<?xml version="1.0" encoding="utf-8"?>
<!-- Generator: Adobe Illustrator 23.0.6, SVG Export Plug-In . SVG Version: 6.00 Build 0)  -->
<svg version="1.1" id="Layer_1" xmlns="http://www.w3.org/2000/svg" xmlns:xlink="http://www.w3.org/1999/xlink" x="0px" y="0px"
	 viewBox="0 0 1280 720" style="enable-background:new 0 0 1280 720;" xml:space="preserve">
<style type="text/css">
	.st0{fill:#0A0A0A;}
	.st1{fill:#FFFFFF;}
</style>
<title>Asset 1</title>
<g>
	<g id="Layer_1-2">
		<rect x="16" y="9" class="st0" width="1248" height="702"/>
	</g>
</g>
<rect x="119.2" y="361" class="st1" width="1041.7" height="9.5"/>
<g>
	<path class="st1" d="M1027.8,381.5c0-0.5,0.4-0.9,0.9-0.9h4.2c0.5,0,0.9,0.4,0.9,0.9v29.3c0,0.5-0.4,0.9-0.9,0.9h-4.2
		c-0.5,0-0.9-0.4-0.9-0.9V381.5z"/>
	<path class="st1" d="M1044.8,380.9c0.1-0.3,0.3-0.7,0.8-0.7h0.7c0.3,0,0.6,0.2,0.7,0.5l9.8,21c0.1,0,0.1,0,0.1,0l9.8-21
		c0.1-0.3,0.3-0.5,0.7-0.5h0.7c0.5,0,0.7,0.3,0.8,0.7l5.3,29.8c0.1,0.6-0.2,1.1-0.8,1.1h-4c-0.4,0-0.7-0.3-0.9-0.7l-2.6-16.8
		c-0.1,0-0.1,0-0.1,0l-7.8,17.5c-0.1,0.3-0.3,0.5-0.7,0.5h-0.8c-0.4,0-0.6-0.2-0.7-0.5l-7.8-17.5h-0.1l-2.5,16.8
		c-0.1,0.3-0.4,0.7-0.8,0.7h-4c-0.6,0-0.9-0.4-0.9-1.1L1044.8,380.9z"/>
	<path class="st1" d="M1076.3,410.5l13.8-29.8c0.1-0.3,0.3-0.5,0.7-0.5h0.5c0.5,0,0.6,0.2,0.7,0.5l13.7,29.8
		c0.3,0.6-0.1,1.2-0.7,1.2h-3.9c-0.7,0-1-0.3-1.3-0.9l-2.1-4.8h-13.3l-2.1,4.8c-0.2,0.5-0.6,0.9-1.3,0.9h-3.9
		C1076.4,411.7,1076,411,1076.3,410.5z M1095.4,401l-4.4-9.8h-0.1l-4.4,9.8H1095.4z"/>
	<path class="st1" d="M1123.2,380.2c4,0,7.8,1.6,10.8,4.2c0.3,0.3,0.4,0.9,0.1,1.3l-2.7,2.9c-0.3,0.3-0.7,0.3-1.2,0
		c-2-1.8-4.3-2.5-6.7-2.5c-5.6,0-9.9,4.8-9.9,10.2c0,5.5,4.4,10.1,10,10.1c2.5,0,4.4-0.7,5.3-1.1v-3.8h-3.5c-0.5,0-0.9-0.3-0.9-0.8
		V397c0-0.5,0.3-0.9,0.9-0.9h8.5c0.5,0,0.8,0.4,0.8,0.9v11.4c0,0.3-0.2,0.6-0.3,0.7c0,0-4.6,2.9-11,2.9c-8.8,0-15.9-7-15.9-15.9
		C1107.3,387.3,1114.4,380.2,1123.2,380.2z"/>
	<path class="st1" d="M1141.2,381.5c0-0.5,0.3-0.9,0.9-0.9h18c0.5,0,0.9,0.4,0.9,0.9v3.6c0,0.5-0.3,0.9-0.9,0.9H1147v7.3h10.9
		c0.5,0,0.9,0.4,0.9,0.9v3.7c0,0.5-0.4,0.9-0.9,0.9H1147v7.8h13.1c0.5,0,0.9,0.4,0.9,0.9v3.6c0,0.5-0.3,0.9-0.9,0.9h-18
		c-0.5,0-0.9-0.4-0.9-0.9V381.5z"/>
</g>
<g>
	<path class="st1" d="M119.2,319.9c0-0.5,0.3-0.9,0.9-0.9h4.1c0.5,0,0.9,0.4,0.9,0.9v24.9h11.3c0.5,0,0.9,0.4,0.9,0.9v3.6
		c0,0.5-0.3,0.9-0.9,0.9H120c-0.5,0-0.9-0.4-0.9-0.9C119.2,349.3,119.2,319.9,119.2,319.9z"/>
	<path class="st1" d="M154.9,318.7c8.9,0,16,7.2,16,16c0,8.9-7.1,15.9-16,15.9s-15.9-7-15.9-15.9S146.1,318.7,154.9,318.7z
		 M154.9,344.8c5.6,0,10.2-4.6,10.2-10.1c0-5.6-4.6-10.2-10.2-10.2c-5.6,0-10.1,4.7-10.1,10.2C144.7,340.2,149.4,344.8,154.9,344.8z
		"/>
	<path class="st1" d="M172.5,349l13.8-29.8c0.1-0.3,0.3-0.5,0.7-0.5h0.5c0.5,0,0.6,0.2,0.7,0.5l13.6,29.8c0.3,0.6-0.1,1.2-0.7,1.2
		h-3.9c-0.7,0-1-0.3-1.3-0.9l-2.1-4.8h-13.3l-2.1,4.8c-0.2,0.5-0.6,0.9-1.3,0.9h-3.9C172.5,350.1,172.2,349.5,172.5,349z
		 M191.6,339.5l-4.4-9.8h-0.1l-4.4,9.8H191.6z"/>
	<path class="st1" d="M205.8,319.9c0-0.5,0.3-0.9,0.8-0.9h10.5c8.6,0,15.6,7,15.6,15.5c0,8.6-7,15.6-15.6,15.6h-10.5
		c-0.5,0-0.8-0.4-0.8-0.9V319.9L205.8,319.9z M216.7,344.7c5.8,0,10-4.4,10-10.1s-4.2-10.1-10-10.1h-5.1v20.3H216.7z"/>
	<path class="st1" d="M238.6,319.9c0-0.5,0.4-0.9,0.9-0.9h4.2c0.5,0,0.9,0.4,0.9,0.9v29.3c0,0.5-0.4,0.9-0.9,0.9h-4.2
		c-0.5,0-0.9-0.4-0.9-0.9V319.9z"/>
	<path class="st1" d="M252.4,319.4c0-0.5,0.4-0.8,0.9-0.8h1.1l18.4,19.6h0.1v-18.3c0-0.5,0.3-0.9,0.9-0.9h4.1c0.5,0,0.9,0.4,0.9,0.9
		v29.8c0,0.5-0.4,0.8-0.9,0.8h-1.1l-18.5-20.4h-0.1v19.1c0,0.5-0.3,0.9-0.9,0.9h-4c-0.5,0-0.9-0.4-0.9-0.9V319.4z"/>
	<path class="st1" d="M300.5,318.7c4,0,7.8,1.6,10.8,4.2c0.3,0.3,0.4,0.9,0.1,1.3l-2.7,2.9c-0.3,0.3-0.7,0.3-1.2,0
		c-1.9-1.8-4.3-2.5-6.7-2.5c-5.6,0-9.9,4.8-9.9,10.2c0,5.6,4.4,10.1,10,10.1c2.5,0,4.4-0.7,5.3-1.1V340h-3.5c-0.5,0-0.9-0.3-0.9-0.8
		v-3.5c0-0.5,0.3-0.9,0.9-0.9h8.5c0.5,0,0.8,0.4,0.8,0.9v11.4c0,0.3-0.2,0.6-0.3,0.7c0,0-4.6,2.9-11,2.9c-8.8,0-15.9-7-15.9-15.9
		C284.5,325.8,291.6,318.7,300.5,318.7z"/>
</g>
</svg>
