<?xml version="1.0" encoding="utf-8"?>
<!-- Generator: Adobe Illustrator 23.0.6, SVG Export Plug-In . SVG Version: 6.00 Build 0)  -->
<svg version="1.1" id="Layer_1" xmlns="http://www.w3.org/2000/svg" xmlns:xlink="http://www.w3.org/1999/xlink" x="0px" y="0px"
	 viewBox="0 0 724.3 413" style="enable-background:new 0 0 724.3 413;" xml:space="preserve">
<style type="text/css">
	.st0{fill:#FFFFFF;}
	.st1{fill:none;}
</style>
<title>Asset 15</title>
<g>
	<g id="Layer_1-2">
		<rect y="168" class="st0" width="724.3" height="89"/>
		<rect class="st1" width="724.3" height="413"/>
		<rect x="76.5" y="214.5" transform="matrix(0.9945 -0.1045 0.1045 0.9945 -20.6457 39.0392)" width="571.3" height="4"/>
		<path d="M593.4,243.2l1-1.7c0.2-0.3,0.6-0.4,0.9-0.3c0,0,0.1,0,0.1,0.1c0.1,0.1,2.4,1.7,4.2,1.7c1.3,0.1,2.4-0.8,2.5-2.1
			c0,0,0,0,0,0c0-1.4-1.2-2.4-3.6-3.4c-2.6-1.1-5.3-2.7-5.3-6.1c0-2.5,1.8-5.4,6.3-5.4c2,0,4,0.7,5.6,1.9c0.3,0.2,0.4,0.6,0.2,0.9
			l-1.1,1.6c-0.2,0.4-0.6,0.5-1,0.3c0,0,0,0,0,0c-0.2-0.1-2.3-1.5-3.9-1.5c-1.2-0.1-2.3,0.7-2.5,2c0,0,0,0,0,0c0,1.3,1,2.2,3.3,3.1
			c2.7,1.1,5.8,2.7,5.8,6.3c0,2.9-2.5,5.6-6.4,5.6c-2.3,0.1-4.5-0.7-6.2-2.2C593.3,243.8,593.2,243.6,593.4,243.2z"/>
		<path d="M613.6,234.4c3.2-0.1,5.9,2.5,6,5.7c0.1,3.2-2.5,5.9-5.7,6s-5.9-2.5-6-5.7c0-0.1,0-0.1,0-0.2
			C607.9,237.1,610.4,234.5,613.6,234.4z M613.6,243.2c1.5-0.1,2.7-1.3,2.7-2.9c-0.1-1.5-1.4-2.6-2.9-2.5c-1.5,0.1-2.6,1.4-2.5,2.9
			C611,242.1,612.2,243.2,613.6,243.2z"/>
		<path d="M626.7,234.4c3.2-0.1,6,2.5,6,5.7c0.1,3.2-2.5,6-5.7,6c-3.2,0.1-6-2.5-6-5.7c0-0.1,0-0.1,0-0.2
			C621,237.1,623.5,234.5,626.7,234.4z M626.7,243.2c1.5-0.1,2.7-1.3,2.7-2.9c-0.1-1.5-1.4-2.6-2.9-2.5s-2.6,1.4-2.5,2.9
			C624.1,242.1,625.3,243.2,626.7,243.2z"/>
		<path d="M634.9,235.3c0-0.3,0.2-0.5,0.5-0.5l0,0h1.1c0.2,0,0.4,0.1,0.5,0.3l0.4,1c1.1-1.1,2.5-1.7,4-1.6c3.5,0,5,2.7,5,5.6v5.4
			c0,0.3-0.2,0.5-0.5,0.5h-2.3c-0.3,0-0.5-0.2-0.5-0.5v-5.5c0-1.5-0.8-2.4-2.1-2.4c-1.2,0-2.2,0.7-2.6,1.8v6.2
			c0,0.4-0.2,0.5-0.7,0.5h-2.1c-0.3,0-0.5-0.2-0.5-0.5L634.9,235.3z"/>
		<g>
			<path d="M87.7,180.8c2.5-0.1,5,0.9,6.8,2.6c0.2,0.2,0.2,0.5,0.1,0.7c0,0,0,0-0.1,0.1l-1.7,1.8c-0.1,0.2-0.4,0.2-0.6,0.1
				c0,0-0.1-0.1-0.1-0.1c-1.2-1-2.7-1.6-4.3-1.6c-3.6,0-6.5,2.9-6.5,6.5s2.9,6.5,6.5,6.5c1.6,0,3.1-0.6,4.3-1.6
				c0.2-0.2,0.5-0.2,0.7,0l1.7,1.8c0.2,0.2,0.2,0.5,0,0.7c0,0,0,0,0,0c-1.8,1.8-4.3,2.7-6.8,2.7c-5.6,0-10.1-4.5-10.1-10.1
				S82.2,180.9,87.7,180.8L87.7,180.8z"/>
			<path d="M101.8,189.2c3.2-0.1,5.9,2.5,6,5.7c0.1,3.2-2.5,5.9-5.7,6s-5.9-2.5-6-5.7c0-0.1,0-0.1,0-0.2
				C96.1,191.9,98.6,189.3,101.8,189.2z M101.8,197.9c1.5-0.1,2.7-1.4,2.7-2.9c-0.1-1.5-1.4-2.6-2.9-2.5c-1.5,0.1-2.6,1.4-2.5,2.9
				C99.2,196.9,100.4,197.9,101.8,197.9z"/>
			<path d="M110,190c0-0.3,0.2-0.5,0.5-0.5h1c0.2,0,0.4,0.1,0.5,0.3l0.4,1.1c1-1,2.3-1.6,3.8-1.6c1.4,0,2.8,0.6,3.6,1.7
				c1-1.1,2.4-1.7,3.9-1.7c3.6,0,4.9,2.7,4.9,5.6v5.4c0,0.3-0.2,0.5-0.5,0.5h-2.2c-0.3,0-0.5-0.2-0.5-0.5v-5.5
				c0-1.4-0.7-2.4-2.1-2.4c-0.9,0-1.8,0.4-2.3,1.2c0,0,0,0.6,0,1.1v5.7c0,0.3-0.2,0.5-0.5,0.5h-2.1c-0.3,0-0.5-0.2-0.5-0.5v-5.5
				c0-1.4-0.6-2.4-2.1-2.4c-1.1,0-2,0.7-2.3,1.8v6.2c0,0.3-0.2,0.5-0.5,0.5h-2.3c-0.3,0-0.5-0.2-0.5-0.5L110,190z"/>
			<path d="M131.6,183.6c0-1.1,0.8-1.9,1.9-1.9c0,0,0,0,0,0c1.1,0,1.9,0.9,1.9,1.9c0,1.1-0.9,1.9-1.9,1.9
				C132.4,185.5,131.6,184.6,131.6,183.6C131.6,183.6,131.6,183.6,131.6,183.6z M131.8,190c0-0.3,0.2-0.5,0.5-0.5h2.3
				c0.3,0,0.5,0.2,0.5,0.5v10.1c0,0.3-0.2,0.5-0.5,0.5h-2.3c-0.3,0-0.5-0.2-0.5-0.5V190z"/>
			<path d="M138.6,190c0-0.3,0.2-0.5,0.5-0.5h1.1c0.2,0,0.4,0.1,0.5,0.3l0.4,1c1-1,2.5-1.6,4-1.6c3.6,0,5,2.7,5,5.6v5.4
				c0,0.3-0.2,0.5-0.5,0.5h-2.3c-0.3,0-0.5-0.2-0.5-0.5v-5.6c0-1.4-0.8-2.4-2.1-2.4c-1.2,0-2.2,0.7-2.6,1.8v6.2
				c0,0.4-0.2,0.5-0.7,0.5h-2.1c-0.3,0-0.5-0.2-0.5-0.5L138.6,190z"/>
			<path d="M154,196.7c-0.6-0.8-0.9-1.7-0.8-2.6c0-2.7,2.2-4.9,4.9-4.9h5.1c0.3,0,0.5,0.2,0.5,0.5c0,0,0,0,0,0v0.9
				c0,0.2-0.1,0.4-0.3,0.5l-1.6,0.5c0.8,0.7,1.2,1.8,1.1,2.9c-0.1,2.5-2.2,4.5-4.7,4.4c0,0-0.1,0-0.1,0c-1.1,0-1.8-0.2-2.2-0.2
				c-0.6,0.1-1,0.5-1,1.1c0,0.6,0.4,1,1,1c0,0,0.1,0,0.1,0h3.6c2.6,0,4.6,1.5,4.6,3.9s-2.1,4.8-6.1,4.8s-5.7-2-5.7-3.8
				c0-1.1,0.7-2.1,1.7-2.7v-0.1c-1.3-0.4-2.1-1.6-2.1-2.9C152,198.5,152.8,197.3,154,196.7z M158,206.6c1.6,0,2.6-0.7,2.6-1.8
				c0-0.5-0.4-1.4-2-1.4c-0.6,0-1.2,0-1.8,0.1c-0.3,0.1-1.2,0.5-1.2,1.4S156.5,206.6,158,206.6L158,206.6z M158.1,196.2
				c1.1,0,2-0.9,2-2s-0.9-2-2-2s-2,0.9-2,2S157,196.2,158.1,196.2z"/>
		</g>
	</g>
</g>
</svg>
