<?xml version="1.0" encoding="utf-8"?>
<!-- Generator: Adobe Illustrator 23.0.3, SVG Export Plug-In . SVG Version: 6.00 Build 0)  -->
<svg version="1.1" id="Layer_1" xmlns="http://www.w3.org/2000/svg" xmlns:xlink="http://www.w3.org/1999/xlink" x="0px" y="0px"
	 viewBox="0 0 400 353.2" style="enable-background:new 0 0 400 353.2;" xml:space="preserve">
<style type="text/css">
	.st0{fill:#FF9C43;}
</style>
<title>Asset 7</title>
<circle class="st0" cx="200" cy="130.9" r="90.3"/>
<g>
	<path d="M129.9,258.4c0,1-0.3,1.9-1,2.6c-0.6,0.7-1.6,1.1-2.7,1.1c-1.2,0-2.1-0.4-2.7-1.1s-0.9-1.6-0.9-2.6s0.3-1.9,1-2.6
		c0.7-0.7,1.6-1.1,2.7-1.1s2,0.4,2.7,1.1C129.5,256.5,129.9,257.4,129.9,258.4z M128.3,258.4c0-0.8-0.2-1.4-0.5-1.8
		c-0.4-0.4-0.9-0.6-1.5-0.6c-0.7,0-1.2,0.2-1.6,0.7c-0.3,0.5-0.5,1-0.5,1.7s0.2,1.2,0.5,1.7s0.9,0.7,1.6,0.7s1.2-0.2,1.5-0.7
		C128.1,259.7,128.3,259.1,128.3,258.4z"/>
	<path d="M136.9,262h-1.8l-1.4-2.7h-1v1.5h0.8v1.3h-3v-1.3h0.8v-4.6h-0.8v-1.3h3.2c0.9,0,1.6,0.2,2,0.5s0.7,0.9,0.7,1.6
		c0,0.5-0.1,0.9-0.4,1.2c-0.3,0.3-0.6,0.6-1,0.7l1,1.8h0.9V262L136.9,262z M134.8,257c0-0.4-0.1-0.6-0.3-0.7
		c-0.2-0.1-0.6-0.2-1.1-0.2h-0.7v2h0.7c0.6,0,0.9-0.1,1.2-0.3C134.7,257.6,134.8,257.4,134.8,257z"/>
	<path d="M144.6,262h-2.9v-1.3h0.6L142,260h-2.4l-0.3,0.7h0.7v1.3h-2.8v-1.3h0.6l2-4.6h-1v-1.3h2.5l2.6,5.9h0.7L144.6,262L144.6,262
		z M141.6,258.9l-0.7-2h-0.1l-0.8,2H141.6z"/>
	<path d="M152.6,256.1h-0.8v5.9H151l-3.8-4.5l0,0v3.3h1v1.3h-3.1v-1.3h0.8v-4.6H145v-1.3h1.9l3.6,4.2l0,0v-3h-1v-1.3h3.2
		L152.6,256.1L152.6,256.1L152.6,256.1z"/>
	<path d="M160.1,259.3h-0.4v2.7h-1.1l-0.1-0.7c-0.2,0.3-0.5,0.5-0.8,0.6c-0.3,0.2-0.7,0.2-1.2,0.2c-1,0-1.8-0.3-2.4-1
		c-0.6-0.7-0.9-1.6-0.9-2.6s0.3-1.9,0.9-2.6c0.6-0.7,1.5-1.1,2.8-1.1c0.6,0,1.1,0.1,1.6,0.3s0.8,0.4,1.1,0.6l0.2,1.6l-1.2,0.1
		l-0.2-0.8c-0.2-0.1-0.4-0.2-0.7-0.3c-0.3-0.1-0.6-0.1-0.8-0.1c-0.6,0-1.1,0.2-1.5,0.6c-0.4,0.4-0.6,1-0.6,1.8s0.2,1.4,0.5,1.8
		c0.4,0.4,0.8,0.6,1.4,0.6c0.5,0,0.9-0.1,1.2-0.4c0.3-0.3,0.4-0.6,0.4-1.1l0,0h-1.4V258h3.2V259.3z"/>
	<path d="M166.3,262h-5.6v-1.3h0.8v-4.6h-0.8v-1.3h5.5l0.2,2.1l-1.3,0.1l-0.2-0.9h-2v1.7h3v1.2h-3v1.7h2l0.2-0.9l1.3,0.1L166.3,262z
		"/>
	<path d="M129,278h-1.4l-1.5-3h-1.5v2.3h1v0.7h-2.7v-0.7h0.9v-5.7h-0.9v-0.7h3.1c0.9,0,1.5,0.2,1.9,0.6s0.6,0.9,0.6,1.4
		s-0.1,0.9-0.4,1.2c-0.3,0.3-0.6,0.6-1.1,0.7l1.3,2.4h0.9v0.8L129,278L129,278z M127.5,272.9c0-0.5-0.1-0.8-0.4-1s-0.7-0.3-1.3-0.3
		h-1.3v2.8h1.3c0.6,0,1-0.1,1.3-0.4C127.3,273.7,127.5,273.3,127.5,272.9z"/>
	<path d="M136.3,275h-0.6v3h-0.6l-0.1-1c-0.2,0.3-0.5,0.6-0.9,0.8c-0.4,0.2-0.9,0.3-1.4,0.3c-1,0-1.8-0.4-2.4-1.1s-0.9-1.6-0.9-2.6
		c0-0.7,0.1-1.3,0.4-1.9s0.7-1,1.2-1.3s1.1-0.5,1.8-0.5c0.6,0,1.1,0.1,1.5,0.2c0.4,0.2,0.8,0.4,1,0.6l0.2,1.3l-0.7,0.1l-0.2-1
		c-0.2-0.1-0.4-0.3-0.7-0.4s-0.6-0.2-1.1-0.2c-0.8,0-1.4,0.3-1.9,0.8s-0.7,1.3-0.7,2.1c0,0.9,0.2,1.6,0.7,2.1s1.1,0.8,1.9,0.8
		c0.7,0,1.2-0.2,1.5-0.5c0.4-0.4,0.5-0.8,0.5-1.2V275h-1.7v-0.7h3.1L136.3,275L136.3,275z"/>
	<path d="M142.8,276c0,0.6-0.2,1-0.6,1.4c-0.4,0.4-1,0.6-1.8,0.6h-3.3v-0.7h0.9v-5.7h-0.9v-0.7h3.3c0.7,0,1.3,0.2,1.6,0.5
		c0.4,0.3,0.5,0.7,0.5,1.2c0,0.4-0.1,0.7-0.3,1s-0.5,0.5-0.9,0.5l0,0c0.5,0.1,0.9,0.3,1.2,0.6C142.8,275,142.8,275.5,142.8,276z
		 M141.7,272.7c0-0.4-0.1-0.8-0.4-0.9c-0.3-0.2-0.6-0.3-1.1-0.3h-1.5v2.4h1.4c0.4,0,0.8-0.1,1.1-0.3
		C141.5,273.4,141.7,273.1,141.7,272.7z M142,275.9c0-0.4-0.1-0.7-0.4-1c-0.3-0.3-0.6-0.3-1.1-0.3h-1.8v2.7h1.5
		c0.5,0,0.9-0.1,1.2-0.3C141.8,276.7,142,276.4,142,275.9z"/>
	<path d="M144,274.3v-1.2h1v1.2H144z M144,278v-1.2h1v1.2H144z"/>
	<path d="M149,272.6c0.3-0.2,0.6-0.3,0.9-0.4c0.4-0.1,0.7-0.1,1-0.1c0.7,0,1.2,0.2,1.5,0.5c0.3,0.4,0.5,0.8,0.5,1.2
		c0,0.5-0.2,1-0.6,1.4s-0.8,0.8-1.3,1.2c-0.5,0.3-1,0.6-1.4,0.9h2.9l0.1-0.9l0.7,0.1l-0.1,1.5h-4.5l-0.1-0.6c1-0.7,1.9-1.3,2.5-1.8
		c0.6-0.5,0.9-1,0.9-1.6c0-0.7-0.4-1.1-1.3-1.1c-0.2,0-0.3,0-0.6,0.1c-0.2,0-0.4,0.1-0.6,0.2l-0.2,0.8l-0.6-0.1L149,272.6z"/>
	<path d="M158.4,279.4h-0.8v-1.8h-3.4l-0.1-0.7l2.6-4.7h1.7v4.7h1.2l-0.1,0.7h-1.1V279.4L158.4,279.4z M157.6,276.9v-4h-0.5l-2.2,4
		H157.6z"/>
	<path d="M164.3,279.4h-0.8v-1.8h-3.4l-0.1-0.7l2.6-4.7h1.7v4.7h1.2l-0.1,0.7h-1.1L164.3,279.4L164.3,279.4z M163.5,276.9v-4H163
		l-2.2,4H163.5z"/>
	<path d="M172.2,278h-3.4v-0.7h1.3V273h-1.3v-0.7h2.2v5h1.3v0.7H172.2z"/>
	<path d="M173.3,272.6c0.3-0.2,0.6-0.3,0.9-0.4c0.4-0.1,0.7-0.1,1-0.1c0.7,0,1.2,0.2,1.5,0.5c0.3,0.4,0.5,0.8,0.5,1.2
		c0,0.5-0.2,1-0.6,1.4s-0.8,0.8-1.3,1.2c-0.5,0.3-1,0.6-1.4,0.9h2.9l0.1-0.9l0.7,0.1l-0.1,1.5H173l-0.1-0.6c1-0.7,1.9-1.3,2.5-1.8
		s0.9-1,0.9-1.6c0-0.7-0.4-1.1-1.3-1.1c-0.2,0-0.3,0-0.6,0.1c-0.2,0-0.4,0.1-0.6,0.2l-0.2,0.8l-0.6-0.1L173.3,272.6z"/>
	<path d="M183.6,276.2c0,0.6-0.2,1.1-0.7,1.4s-1.1,0.5-1.8,0.5s-1.3-0.2-1.7-0.5c-0.5-0.3-0.7-0.8-0.7-1.4c0-0.5,0.2-1,0.5-1.2
		c0.3-0.3,0.7-0.5,1.2-0.7c-0.4-0.2-0.7-0.4-1-0.7c-0.3-0.3-0.4-0.6-0.4-1.1s0.2-1,0.6-1.3c0.4-0.3,1-0.5,1.6-0.5s1.2,0.2,1.6,0.5
		c0.4,0.3,0.6,0.8,0.6,1.3s-0.2,0.8-0.5,1.1c-0.3,0.2-0.7,0.5-1.1,0.6c0.5,0.2,0.9,0.5,1.2,0.8C183.4,275.2,183.6,275.7,183.6,276.2
		z M182.7,276.2c0-0.4-0.2-0.8-0.6-1c-0.4-0.2-0.8-0.4-1.3-0.7c-0.4,0.2-0.8,0.4-1,0.6c-0.3,0.2-0.4,0.5-0.4,0.9s0.2,0.7,0.5,1
		c0.3,0.2,0.7,0.3,1.2,0.3s0.9-0.1,1.2-0.3C182.6,276.9,182.7,276.6,182.7,276.2z M182.5,272.6c0-0.4-0.1-0.7-0.4-0.9
		c-0.3-0.2-0.6-0.3-1-0.3s-0.8,0.1-1,0.3c-0.3,0.2-0.4,0.4-0.4,0.8s0.2,0.7,0.5,0.9c0.3,0.2,0.7,0.4,1.1,0.6c0.4-0.2,0.7-0.4,1-0.6
		S182.5,272.9,182.5,272.6z"/>
	<path d="M191.9,275.7c0,0.7-0.2,1.2-0.5,1.7s-1,0.7-1.8,0.7c-1,0-1.6-0.3-2-1s-0.5-1.5-0.5-2.5c0-1.1,0.2-2,0.6-2.8s1.1-1.1,2-1.1
		c0.5,0,0.8,0.1,1.2,0.2c0.3,0.2,0.6,0.4,0.9,0.7l-0.5,0.5c-0.4-0.5-0.9-0.8-1.6-0.8c-0.7,0-1.1,0.3-1.4,0.8s-0.4,1.3-0.4,2.3v0.1
		v0.1c0.1-0.3,0.3-0.6,0.6-0.8c0.3-0.3,0.7-0.4,1.3-0.4c0.7,0,1.2,0.2,1.6,0.6C191.7,274.6,191.9,275.1,191.9,275.7z M191,275.8
		c0-0.5-0.1-0.9-0.3-1.1c-0.2-0.3-0.6-0.4-1.1-0.4c-0.6,0-1,0.2-1.3,0.5c-0.2,0.3-0.4,0.7-0.4,1c0.1,0.5,0.2,0.9,0.5,1.1
		c0.2,0.3,0.6,0.4,1.2,0.4c0.5,0,0.9-0.1,1.1-0.4C190.9,276.6,191,276.3,191,275.8z"/>
	<path d="M196.4,278H193v-0.7h1.3V273H193v-0.7h2.2v5h1.3L196.4,278L196.4,278z"/>
	<path d="M202.6,270.4l-2.4,7.6h-0.8l2.4-7.6H202.6z"/>
	<path d="M213.2,278h-2.6v-0.7h0.9v-2.6h-4v2.6h0.9v0.7h-2.6v-0.7h0.9v-5.7h-0.9v-0.7h2.6v0.7h-0.9v2.5h4v-2.5h-0.9v-0.7h2.6v0.7
		h-0.9v5.7h0.9V278z"/>
	<path d="M219.4,278h-5.3v-0.7h0.9v-5.7h-0.9v-0.7h5.2l0.2,2l-0.7,0.1l-0.2-1.4h-2.8v2.5h3.4v0.7h-3.4v2.6h2.9l0.2-1.4l0.7,0.1
		L219.4,278z"/>
	<path d="M227,278h-2.5v-0.7h0.9l-1.8-2.4l-1.7,2.4h0.8v0.7h-2.5v-0.7h0.7l2.2-3l-2.1-2.8h-0.7v-0.7h2.4v0.7h-0.8l1.7,2.2l1.6-2.2
		h-0.7v-0.7h2.4v0.7h-0.8l-2.1,2.7l2.3,3h0.7L227,278L227,278z"/>
	<path d="M227.8,274.3v-1.2h1v1.2H227.8z M227.8,278v-1.2h1v1.2H227.8z"/>
	<path d="M237.5,272.2l-0.3,1.3h0.9v0.6h-1l-0.4,1.9h1v0.6h-1.1l-0.3,1.4h-0.6l0.3-1.4h-1.9l-0.4,1.4H233l0.3-1.4h-0.8V276h1
		l0.3-1.8h-1v-0.6h1.1l0.3-1.3h0.7l-0.3,1.3h1.9l0.3-1.3h0.7V272.2z M234.1,276h1.9l0.3-1.8h-1.9L234.1,276z"/>
	<path d="M241.4,270.3c0.2,0,0.4,0,0.6,0.1s0.4,0.1,0.5,0.3l0.2,1.1l-0.6,0.1l-0.2-0.8c-0.1-0.1-0.3-0.1-0.6-0.1
		c-0.6,0-0.9,0.4-0.9,1.2v1h1.3v0.6h-1.3v3.7h1.1v0.6h-2.7v-0.6h0.8v-3.7h-0.7v-0.6h0.7v-0.9c0-0.6,0.2-1,0.5-1.4
		S240.9,270.3,241.4,270.3z"/>
	<path d="M246.5,279.4h-0.8v-1.8h-3.4l-0.1-0.7l2.6-4.7h1.7v4.7h1.2l-0.1,0.7h-1.1L246.5,279.4L246.5,279.4z M245.7,276.9v-4h-0.5
		l-2.2,4H245.7z"/>
	<path d="M253.4,276.2c0,0.6-0.2,1.1-0.7,1.4s-1.1,0.5-1.8,0.5s-1.3-0.2-1.7-0.5c-0.5-0.3-0.7-0.8-0.7-1.4c0-0.5,0.2-1,0.5-1.2
		c0.3-0.3,0.7-0.5,1.2-0.7c-0.4-0.2-0.7-0.4-1-0.7c-0.3-0.3-0.4-0.6-0.4-1.1s0.2-1,0.6-1.3c0.4-0.3,1-0.5,1.6-0.5s1.2,0.2,1.6,0.5
		c0.4,0.3,0.6,0.8,0.6,1.3s-0.2,0.8-0.5,1.1c-0.3,0.2-0.7,0.5-1.1,0.6c0.5,0.2,0.9,0.5,1.2,0.8C253.2,275.2,253.4,275.7,253.4,276.2
		z M252.6,276.2c0-0.4-0.2-0.8-0.6-1c-0.4-0.2-0.8-0.4-1.3-0.7c-0.4,0.2-0.8,0.4-1,0.6c-0.3,0.2-0.4,0.5-0.4,0.9s0.2,0.7,0.5,1
		c0.3,0.2,0.7,0.3,1.2,0.3s0.9-0.1,1.2-0.3C252.4,276.9,252.6,276.6,252.6,276.2z M252.4,272.6c0-0.4-0.1-0.7-0.4-0.9
		c-0.3-0.2-0.6-0.3-1-0.3s-0.8,0.1-1,0.3c-0.3,0.2-0.4,0.4-0.4,0.8s0.2,0.7,0.5,0.9c0.3,0.2,0.7,0.4,1.1,0.6c0.4-0.2,0.7-0.4,1-0.6
		S252.4,272.9,252.4,272.6z"/>
	<path d="M259.7,275.1c0,0.9-0.2,1.6-0.7,2.2c-0.5,0.5-1.1,0.8-2,0.8s-1.5-0.3-2-0.8c-0.4-0.5-0.7-1.2-0.7-2.1s0.2-1.6,0.7-2.2
		s1.1-0.9,2-0.9s1.6,0.3,2,0.9C259.5,273.6,259.7,274.3,259.7,275.1z M258.9,275.1c0-0.7-0.1-1.2-0.4-1.6s-0.7-0.6-1.4-0.6
		c-0.6,0-1.1,0.2-1.4,0.6c-0.3,0.4-0.4,0.9-0.4,1.7s0.2,1.3,0.5,1.7c0.3,0.4,0.7,0.6,1.3,0.6C258.3,277.4,258.9,276.6,258.9,275.1z"
		/>
	<path d="M260.9,272.7c0.2-0.1,0.5-0.3,0.8-0.4c0.3-0.1,0.7-0.2,1.1-0.2c0.6,0,1.1,0.2,1.4,0.5s0.6,0.7,0.6,1.3c0,0.4-0.1,0.7-0.3,1
		s-0.6,0.5-1.1,0.7l0,0c0.7,0.1,1.1,0.3,1.3,0.7c0.2,0.3,0.4,0.7,0.4,1.1c0,0.6-0.2,1.1-0.6,1.5c-0.4,0.4-1,0.6-1.7,0.6
		s-1.2-0.2-1.5-0.5c-0.4-0.3-0.6-0.7-0.7-1.1l0.6-0.2c0.1,0.3,0.3,0.5,0.5,0.8c0.2,0.3,0.6,0.3,1,0.3c0.6,0,1-0.2,1.2-0.5
		s0.3-0.6,0.3-1s-0.2-0.8-0.5-1c-0.3-0.2-0.8-0.4-1.6-0.4v-0.6c0.7,0,1.2-0.2,1.4-0.5c0.2-0.3,0.4-0.6,0.4-0.9
		c0-0.4-0.1-0.6-0.3-0.8c-0.2-0.2-0.6-0.3-1-0.3s-0.7,0.1-1.1,0.3l-0.2,0.9l-0.6-0.1L260.9,272.7z"/>
	<path d="M271.5,278h-1.6v-1c-0.2,0.3-0.4,0.5-0.7,0.8c-0.3,0.2-0.6,0.3-1.1,0.3c-0.6,0-1.1-0.2-1.5-0.6c-0.4-0.4-0.6-1-0.6-1.8
		c0-0.7,0.2-1.3,0.5-1.8c0.3-0.6,0.9-0.8,1.7-0.8s1.3,0.3,1.6,0.9v-3h-1.1v-0.6h2v6.9h0.8V278L271.5,278z M269.9,275.8V275
		c0-0.4-0.2-0.7-0.5-1s-0.6-0.4-1-0.4c-0.5,0-0.9,0.2-1.2,0.6c-0.3,0.4-0.4,0.9-0.4,1.4c0,0.6,0.1,1.1,0.4,1.4s0.6,0.5,1.1,0.5
		c0.4,0,0.8-0.2,1.1-0.5C269.7,276.5,269.9,276.2,269.9,275.8z"/>
	<path d="M277.6,270.4l-2.4,7.6h-0.8l2.4-7.6H277.6z"/>
	<path d="M128.6,293.4c-0.6,0.4-1.4,0.7-2.4,0.7s-1.9-0.3-2.5-1s-1-1.6-1-2.6c0-0.7,0.1-1.3,0.4-1.8c0.3-0.6,0.7-1,1.2-1.4
		s1.1-0.5,1.8-0.5c0.6,0,1.1,0.1,1.5,0.2c0.4,0.2,0.7,0.4,1,0.6l0.2,1.4l-0.7,0.1l-0.2-1c-0.2-0.2-0.5-0.3-0.8-0.4s-0.6-0.1-1-0.1
		c-0.8,0-1.4,0.3-1.9,0.8c-0.5,0.6-0.7,1.3-0.7,2.1c0,0.9,0.2,1.6,0.7,2.1s1.2,0.8,2,0.8c0.6,0,1.1-0.1,1.6-0.3l0.2-1.1l0.7,0.1
		L128.6,293.4z"/>
	<path d="M136.1,287.5h-0.7l-2.2,3.7v2h1.3v0.7h-3.3v-0.7h1.2v-2l-2.3-3.7h-0.7v-0.7h2.6v0.7h-1l1.8,3h0.1l1.7-3h-1v-0.7h2.5V287.5z
		"/>
	<path d="M145.4,287.5h-0.9v5.7h0.9v0.7h-2.5v-0.7h0.8v-4.6l0,0l-2.4,4.9h-0.4l-2.5-4.9l0,0v4.6h0.9v0.7h-2.5v-0.7h0.9v-5.7h-0.9
		v-0.7h1.6l2.8,5.6l0,0l2.7-5.6h1.6v0.7H145.4z"/>
	<path d="M152.8,294h-2.6v-0.7h0.8l-1.9-2.6h-1.2v2.6h0.8v0.7h-2.5v-0.7h0.9v-5.7h-0.9v-0.7h2.6v0.7H148v2.5h1.2l1.8-2.5h-0.8v-0.7
		h2.5v0.7h-0.8l-2.1,2.7l2.2,3h0.8C152.8,293.3,152.8,294,152.8,294z"/>
	<path d="M153.6,290.3v-1.2h1v1.2H153.6z M153.6,294v-1.2h1v1.2H153.6z"/>
	<path d="M163.7,291.1c0,0.9-0.2,1.6-0.7,2.2c-0.5,0.5-1.1,0.8-2,0.8s-1.5-0.3-2-0.8c-0.4-0.5-0.7-1.2-0.7-2.1s0.2-1.6,0.7-2.2
		s1.1-0.9,2-0.9s1.6,0.3,2,0.9C163.5,289.6,163.7,290.3,163.7,291.1z M162.8,291.1c0-0.7-0.1-1.2-0.4-1.6c-0.3-0.4-0.7-0.6-1.4-0.6
		c-0.6,0-1.1,0.2-1.4,0.6c-0.3,0.4-0.4,0.9-0.4,1.7s0.2,1.3,0.5,1.7c0.3,0.4,0.7,0.6,1.3,0.6C162.2,293.4,162.8,292.6,162.8,291.1z"
		/>
	<path d="M166.1,291.3c-0.4,0-0.8-0.1-1.1-0.4c-0.3-0.2-0.4-0.6-0.4-1.2c0-0.5,0.1-0.9,0.5-1.2c0.3-0.3,0.7-0.4,1.2-0.4
		s0.8,0.1,1.1,0.4s0.4,0.6,0.4,1.2c0,0.5-0.1,0.9-0.4,1.2S166.6,291.3,166.1,291.3z M166.1,290.7c0.6,0,0.9-0.4,0.9-1.1
		s-0.3-1-0.9-1c-0.6,0-0.9,0.4-0.9,1.1C165.3,290.4,165.6,290.7,166.1,290.7z M170.6,288.2l-2.2,2.8l-2.2,2.9h-0.8l2.5-3.2l1.9-2.6
		h0.8V288.2z M169.8,294.1c-0.4,0-0.8-0.1-1.1-0.4c-0.3-0.2-0.4-0.6-0.4-1.2c0-0.5,0.2-0.9,0.5-1.2c0.3-0.3,0.7-0.4,1.2-0.4
		s0.8,0.1,1.1,0.4s0.4,0.6,0.4,1.2c0,0.5-0.1,0.9-0.4,1.2C170.7,293.9,170.3,294.1,169.8,294.1z M169.8,293.5c0.6,0,1-0.4,1-1.1
		s-0.3-1-0.9-1s-0.9,0.4-0.9,1.1C168.9,293.2,169.2,293.5,169.8,293.5z"/>
	<path d="M179.6,291.7c0,0.7-0.2,1.2-0.5,1.7s-1,0.7-1.8,0.7c-1,0-1.6-0.3-2-1s-0.5-1.5-0.5-2.5c0-1.1,0.2-2,0.6-2.8s1.1-1.1,2-1.1
		c0.5,0,0.8,0.1,1.2,0.2c0.3,0.2,0.6,0.4,0.9,0.7l-0.5,0.5c-0.4-0.5-0.9-0.8-1.6-0.8c-0.7,0-1.1,0.3-1.4,0.8s-0.4,1.3-0.4,2.3v0.1
		v0.1c0.1-0.3,0.3-0.6,0.6-0.8c0.3-0.3,0.7-0.4,1.3-0.4c0.7,0,1.2,0.2,1.6,0.6C179.4,290.6,179.6,291.1,179.6,291.7z M178.8,291.8
		c0-0.5-0.1-0.9-0.3-1.1c-0.2-0.3-0.6-0.4-1.1-0.4c-0.6,0-1,0.2-1.3,0.5c-0.2,0.3-0.4,0.7-0.4,1c0.1,0.5,0.2,0.9,0.5,1.1
		c0.2,0.3,0.6,0.4,1.2,0.4c0.5,0,0.9-0.1,1.1-0.4C178.6,292.6,178.8,292.3,178.8,291.8z"/>
	<path d="M184.1,294h-3.4v-0.7h1.3V289h-1.3v-0.7h2.2v5h1.3L184.1,294L184.1,294z"/>
	<path d="M186.3,291.3c-0.4,0-0.8-0.1-1.1-0.4c-0.3-0.2-0.4-0.6-0.4-1.2c0-0.5,0.1-0.9,0.5-1.2c0.3-0.3,0.7-0.4,1.2-0.4
		s0.8,0.1,1.1,0.4s0.4,0.6,0.4,1.2c0,0.5-0.1,0.9-0.4,1.2S186.8,291.3,186.3,291.3z M186.3,290.7c0.6,0,0.9-0.4,0.9-1.1
		s-0.3-1-0.9-1c-0.6,0-0.9,0.4-0.9,1.1C185.4,290.4,185.7,290.7,186.3,290.7z M190.7,288.2l-2.2,2.8l-2.2,2.9h-0.8l2.5-3.2l1.9-2.6
		h0.8V288.2z M189.9,294.1c-0.4,0-0.8-0.1-1.1-0.4c-0.3-0.2-0.4-0.6-0.4-1.2c0-0.5,0.2-0.9,0.5-1.2c0.3-0.3,0.7-0.4,1.2-0.4
		s0.8,0.1,1.1,0.4s0.4,0.6,0.4,1.2c0,0.5-0.1,0.9-0.4,1.2C190.8,293.9,190.4,294.1,189.9,294.1z M189.9,293.5c0.6,0,1-0.4,1-1.1
		s-0.3-1-0.9-1c-0.6,0-0.9,0.4-0.9,1.1C189,293.2,189.3,293.5,189.9,293.5z"/>
	<path d="M199.4,288.7l-2.7,6.7h-0.8l2.7-6.5h-3v1.2h-0.7v-1.9h4.5V288.7z"/>
	<path d="M200.1,290.5c0-0.6,0.2-1.2,0.5-1.7c0.4-0.5,1-0.7,1.8-0.7c1,0,1.6,0.3,2,1c0.3,0.7,0.5,1.5,0.5,2.5c0,1.1-0.2,2-0.6,2.8
		s-1.1,1.1-2,1.1c-0.5,0-0.8-0.1-1.2-0.2c-0.3-0.2-0.6-0.4-0.9-0.7l0.5-0.5c0.4,0.5,0.9,0.8,1.6,0.8c0.7,0,1.1-0.3,1.4-0.8
		c0.2-0.5,0.4-1.3,0.4-2.3c0,0,0,0,0-0.1s0-0.1,0-0.1c-0.1,0.3-0.3,0.6-0.6,0.8c-0.3,0.3-0.7,0.4-1.3,0.4c-0.7,0-1.2-0.2-1.6-0.6
		C200.3,291.6,200.1,291.1,200.1,290.5z M200.9,290.5c0,0.5,0.1,0.9,0.3,1.1c0.2,0.3,0.6,0.4,1.1,0.4c0.6,0,1-0.2,1.3-0.5
		c0.2-0.3,0.4-0.7,0.4-1c-0.1-0.5-0.2-0.9-0.4-1.1c-0.2-0.3-0.6-0.4-1.2-0.4c-0.5,0-0.9,0.1-1.1,0.4
		C201,289.6,200.9,290,200.9,290.5z"/>
	<path d="M207.3,291.3c-0.4,0-0.8-0.1-1.1-0.4c-0.3-0.2-0.4-0.6-0.4-1.2c0-0.5,0.1-0.9,0.5-1.2c0.3-0.3,0.7-0.4,1.2-0.4
		s0.8,0.1,1.1,0.4s0.4,0.6,0.4,1.2c0,0.5-0.1,0.9-0.4,1.2S207.9,291.3,207.3,291.3z M207.3,290.7c0.6,0,0.9-0.4,0.9-1.1
		s-0.3-1-0.9-1c-0.6,0-0.9,0.4-0.9,1.1C206.5,290.4,206.8,290.7,207.3,290.7z M211.8,288.2l-2.2,2.8l-2.2,2.9h-0.8l2.5-3.2l1.9-2.6
		h0.8V288.2z M211,294.1c-0.4,0-0.8-0.1-1.1-0.4c-0.3-0.2-0.4-0.6-0.4-1.2c0-0.5,0.2-0.9,0.5-1.2c0.3-0.3,0.7-0.4,1.2-0.4
		s0.8,0.1,1.1,0.4s0.4,0.6,0.4,1.2c0,0.5-0.1,0.9-0.4,1.2C211.9,293.9,211.5,294.1,211,294.1z M211,293.5c0.6,0,1-0.4,1-1.1
		s-0.3-1-0.9-1c-0.6,0-0.9,0.4-0.9,1.1C210.1,293.2,210.4,293.5,211,293.5z"/>
	<path d="M221.3,291.1c0,0.9-0.2,1.6-0.7,2.2c-0.5,0.5-1.1,0.8-2,0.8s-1.5-0.3-2-0.8c-0.4-0.5-0.7-1.2-0.7-2.1s0.2-1.6,0.7-2.2
		s1.1-0.9,2-0.9s1.6,0.3,2,0.9C221.1,289.6,221.3,290.3,221.3,291.1z M220.4,291.1c0-0.7-0.1-1.2-0.4-1.6c-0.3-0.4-0.7-0.6-1.4-0.6
		c-0.6,0-1.1,0.2-1.4,0.6c-0.3,0.4-0.4,0.9-0.4,1.7s0.2,1.3,0.5,1.7c0.3,0.4,0.7,0.6,1.3,0.6C219.8,293.4,220.4,292.6,220.4,291.1z"
		/>
	<path d="M223.7,291.3c-0.4,0-0.8-0.1-1.1-0.4c-0.3-0.2-0.4-0.6-0.4-1.2c0-0.5,0.1-0.9,0.5-1.2c0.3-0.3,0.7-0.4,1.2-0.4
		s0.8,0.1,1.1,0.4s0.4,0.6,0.4,1.2c0,0.5-0.1,0.9-0.4,1.2S224.2,291.3,223.7,291.3z M223.7,290.7c0.6,0,0.9-0.4,0.9-1.1
		s-0.3-1-0.9-1c-0.6,0-0.9,0.4-0.9,1.1C222.9,290.4,223.1,290.7,223.7,290.7z M228.2,288.2L226,291l-2.3,3h-0.8l2.5-3.2l1.9-2.6
		L228.2,288.2L228.2,288.2z M227.4,294.1c-0.4,0-0.8-0.1-1.1-0.4c-0.3-0.2-0.4-0.6-0.4-1.2c0-0.5,0.2-0.9,0.5-1.2
		c0.3-0.3,0.7-0.4,1.2-0.4s0.8,0.1,1.1,0.4s0.4,0.6,0.4,1.2c0,0.5-0.1,0.9-0.4,1.2C228.3,293.9,227.9,294.1,227.4,294.1z
		 M227.4,293.5c0.6,0,1-0.4,1-1.1s-0.3-1-0.9-1c-0.6,0-0.9,0.4-0.9,1.1C226.5,293.2,226.8,293.5,227.4,293.5z"/>
	<path d="M235.3,286.4l-2.4,7.6h-0.8l2.4-7.6H235.3z"/>
	<path d="M128.3,305c0,0.7-0.2,1.3-0.7,1.7c-0.5,0.4-1,0.6-1.7,0.6h-1.4v2h1.2v0.7h-2.9v-0.7h0.9v-5.7h-0.9v-0.7h3
		c0.9,0,1.5,0.2,1.9,0.6S128.3,304.4,128.3,305z M127.4,305c0-0.5-0.1-0.8-0.4-1.1s-0.7-0.4-1.3-0.4h-1.3v3.1h1.3
		C126.9,306.6,127.4,306.1,127.4,305z"/>
	<path d="M135.3,310h-2.6v-0.7h1l-0.5-1.4h-3.1l-0.5,1.4h1v0.7h-2.5v-0.7h0.7l2.3-5.7H130v-0.7h2l2.6,6.4h0.7
		C135.3,309.3,135.3,310,135.3,310z M132.9,307.3l-1.2-3.3h-0.1l-1.3,3.3H132.9z"/>
	<path d="M142.9,303.5H142v6.4h-0.5l-4.1-5.6l0,0v4.9h1.1v0.7h-2.8v-0.7h0.8v-5.7h-0.9v-0.7h1.5l4.1,5.5l0,0v-4.8h-1.1v-0.7h2.7v0.7
		L142.9,303.5L142.9,303.5z"/>
	<path d="M149.9,305l-0.7,0.1l-0.2-1.5h-1.8v5.7h1.3v0.7h-3.3v-0.7h1.2v-5.7h-1.8l-0.2,1.5l-0.7-0.1l0.2-2.2h5.9L149.9,305z"/>
	<path d="M157.7,306.4c0,0.7-0.2,1.3-0.5,1.8c-0.3,0.6-0.7,1-1.3,1.3c-0.5,0.3-1.2,0.5-1.9,0.5c-1.1,0-1.9-0.4-2.6-1.1
		c-0.6-0.7-1-1.6-1-2.6s0.3-1.9,1-2.6s1.5-1.1,2.6-1.1c1.1,0,1.9,0.4,2.6,1.1C157.3,304.5,157.7,305.4,157.7,306.4z M156.8,306.4
		c0-0.9-0.2-1.6-0.7-2.1c-0.5-0.6-1.2-0.8-2-0.8c-0.9,0-1.5,0.3-2,0.9s-0.7,1.3-0.7,2.1c0,0.8,0.2,1.5,0.7,2.1s1.1,0.9,2,0.9
		c0.8,0,1.5-0.3,2-0.9S156.8,307.2,156.8,306.4z"/>
	<path d="M165.7,303.5h-0.9v6.4h-0.5l-4.1-5.6l0,0v4.9h1.1v0.7h-2.7v-0.7h0.8v-5.7h-0.9v-0.7h1.5l4.1,5.5l0,0v-4.8H163v-0.7h2.7
		V303.5z"/>
	<path d="M171.8,310h-5.3v-0.7h0.9v-5.7h-0.9v-0.7h5.2l0.2,2l-0.7,0.1l-0.2-1.4h-2.8v2.5h3.4v0.7h-3.4v2.6h2.9l0.2-1.4l0.7,0.1
		L171.8,310z"/>
	<path d="M173.2,306.3v-1.2h1v1.2H173.2z M173.2,310v-1.2h1v1.2H173.2z"/>
	<path d="M181.5,310h-3.4v-0.7h1.3V305h-1.3v-0.7h2.2v5h1.3L181.5,310L181.5,310z"/>
	<path d="M186.9,309.3c0,0.7-0.2,1.3-0.6,1.7c-0.4,0.4-1,0.6-1.7,0.6s-1.2-0.1-1.5-0.4c-0.4-0.3-0.6-0.7-0.7-1.1l0.6-0.2
		c0.1,0.3,0.3,0.6,0.5,0.8c0.3,0.2,0.6,0.3,1,0.3c0.5,0,0.9-0.1,1.2-0.4s0.4-0.6,0.4-1.1c0-0.7-0.2-1.1-0.7-1.3
		c-0.5-0.2-1-0.3-1.6-0.3c-0.3,0-0.6,0-0.9,0l-0.3-0.3v-3.2h4l0.1,1.5L186,306l-0.1-0.9h-2.6v2.1c0.1,0,0.2,0,0.3,0s0.2,0,0.3,0
		c0.5,0,1,0.1,1.5,0.2s0.8,0.3,1.1,0.7C186.8,308.2,186.9,308.7,186.9,309.3z"/>
	<path d="M193.2,307.1c0,0.9-0.2,1.6-0.7,2.2c-0.5,0.5-1.1,0.8-2,0.8s-1.5-0.3-2-0.8c-0.4-0.5-0.7-1.2-0.7-2.1s0.2-1.6,0.7-2.2
		s1.1-0.9,2-0.9s1.6,0.3,2,0.9C193,305.6,193.2,306.3,193.2,307.1z M192.3,307.1c0-0.7-0.1-1.2-0.4-1.6c-0.3-0.4-0.7-0.6-1.4-0.6
		c-0.6,0-1.1,0.2-1.4,0.6c-0.3,0.4-0.4,0.9-0.4,1.7s0.2,1.3,0.5,1.7c0.3,0.4,0.7,0.6,1.3,0.6C191.7,309.4,192.3,308.6,192.3,307.1z"
		/>
	<path d="M198.9,309.3c0,0.7-0.2,1.3-0.6,1.7c-0.4,0.4-1,0.6-1.7,0.6s-1.2-0.1-1.5-0.4c-0.4-0.3-0.6-0.7-0.7-1.1l0.6-0.2
		c0.1,0.3,0.3,0.6,0.5,0.8c0.3,0.2,0.6,0.3,1,0.3c0.5,0,0.9-0.1,1.2-0.4s0.4-0.6,0.4-1.1c0-0.7-0.2-1.1-0.7-1.3
		c-0.5-0.2-1-0.3-1.6-0.3c-0.3,0-0.6,0-0.9,0l-0.3-0.3v-3.2h4l0.1,1.5L198,306l-0.1-0.9h-2.6v2.1c0.1,0,0.2,0,0.3,0s0.2,0,0.3,0
		c0.5,0,1,0.1,1.5,0.2s0.8,0.3,1.1,0.7C198.7,308.2,198.9,308.7,198.9,309.3z"/>
	<path d="M209.3,303.5h-0.7v3.5c0,0.5-0.1,1-0.3,1.5s-0.5,0.8-0.9,1.1c-0.4,0.3-1,0.4-1.7,0.4c-1.1,0-1.8-0.3-2.2-0.9
		s-0.6-1.3-0.6-2v-3.6h-0.7v-0.7h2.5v0.7h-1v3.6c0,0.7,0.2,1.2,0.5,1.6s0.8,0.6,1.5,0.6c1.4,0,2.1-0.8,2.1-2.3v-3.5h-1v-0.7h2.5
		L209.3,303.5L209.3,303.5z"/>
	<path d="M209.6,311.1l0.6-2.4h0.8l-0.6,2.4H209.6z"/>
	<path d="M218.1,310h-3.4v-0.7h1.3V305h-1.3v-0.7h2.2v5h1.3L218.1,310L218.1,310z"/>
	<path d="M223.5,309.3c0,0.7-0.2,1.3-0.6,1.7c-0.4,0.4-1,0.6-1.7,0.6s-1.2-0.1-1.5-0.4c-0.4-0.3-0.6-0.7-0.7-1.1l0.6-0.2
		c0.1,0.3,0.3,0.6,0.5,0.8c0.3,0.2,0.6,0.3,1,0.3c0.5,0,0.9-0.1,1.2-0.4s0.4-0.6,0.4-1.1c0-0.7-0.2-1.1-0.7-1.3
		c-0.5-0.2-1-0.3-1.6-0.3c-0.3,0-0.6,0-0.9,0l-0.3-0.3v-3.2h4l0.1,1.5l-0.7,0.1l-0.1-0.9h-2.6v2.1c0.1,0,0.2,0,0.3,0s0.2,0,0.3,0
		c0.5,0,1,0.1,1.5,0.2s0.8,0.3,1.1,0.7C223.3,308.2,223.5,308.7,223.5,309.3z"/>
	<path d="M227.9,310h-3.4v-0.7h1.3V305h-1.3v-0.7h2.2v5h1.3L227.9,310L227.9,310z"/>
	<path d="M237,309.4c-0.6,0.4-1.4,0.7-2.4,0.7s-1.9-0.3-2.5-1s-1-1.6-1-2.6c0-0.7,0.1-1.3,0.4-1.8c0.3-0.6,0.7-1,1.2-1.4
		s1.1-0.5,1.8-0.5c0.6,0,1.1,0.1,1.5,0.2c0.4,0.2,0.7,0.4,1,0.6l0.2,1.4l-0.7,0.1l-0.2-1c-0.2-0.2-0.5-0.3-0.8-0.4s-0.6-0.1-1-0.1
		c-0.8,0-1.4,0.3-1.9,0.8c-0.5,0.6-0.7,1.3-0.7,2.1c0,0.9,0.2,1.6,0.7,2.1s1.2,0.8,2,0.8c0.6,0,1.1-0.1,1.6-0.3l0.2-1.1l0.7,0.1
		L237,309.4z"/>
</g>
</svg>
