<?xml version="1.0" encoding="utf-8"?>
<!-- Generator: Adobe Illustrator 23.0.3, SVG Export Plug-In . SVG Version: 6.00 Build 0)  -->
<svg version="1.1" id="Layer_1" xmlns="http://www.w3.org/2000/svg" xmlns:xlink="http://www.w3.org/1999/xlink" x="0px" y="0px"
	 viewBox="0 0 680 219.6" style="enable-background:new 0 0 680 219.6;" xml:space="preserve">
<style type="text/css">
	.st0{fill:#0089CB;}
	.st1{fill:#FF894A;}
	.st2{fill:#0070B8;}
</style>
<title>Asset 7</title>
<g>
	<path class="st0" d="M72.2,137.7c0,0.5-0.2,0.9-0.5,1.2s-0.8,0.5-1.5,0.5h-3.1v-1h0.6v-3.8h-0.6v-1h3.1c0.5,0,1,0.1,1.3,0.4
		c0.3,0.3,0.5,0.6,0.5,1c0,0.3-0.1,0.6-0.3,0.8c-0.2,0.2-0.5,0.4-0.8,0.4l0,0c0.4,0.1,0.7,0.2,1,0.5C72.1,137,72.2,137.3,72.2,137.7
		z M70.7,135.2c0-0.3-0.1-0.4-0.2-0.5c-0.2-0.1-0.3-0.1-0.6-0.1H69v1.4h0.8c0.3,0,0.6-0.1,0.7-0.2C70.7,135.6,70.7,135.4,70.7,135.2
		z M70.9,137.6c0-0.5-0.3-0.7-0.9-0.7h-1v1.5h0.9C70.6,138.4,70.9,138.2,70.9,137.6z"/>
	<path class="st0" d="M77.2,139.4h-4.4v-1h0.6v-3.8h-0.6v-1h2.7v1h-0.8v3.8h1.5l0.2-1.1l1,0.1L77.2,139.4z"/>
	<path class="st0" d="M83.6,134.6h-0.5v2.4c0,0.4-0.1,0.8-0.2,1.2c-0.2,0.4-0.4,0.7-0.8,1s-0.9,0.4-1.5,0.4c-0.9,0-1.5-0.2-1.9-0.7
		s-0.6-1.1-0.6-1.7v-2.5h-0.5v-1H80v1h-0.7v2.5c0,0.4,0.1,0.7,0.3,1c0.2,0.3,0.5,0.4,1,0.4s0.8-0.1,1-0.4c0.2-0.3,0.3-0.6,0.3-1.1
		v-2.4h-0.7v-1h2.4L83.6,134.6L83.6,134.6z"/>
	<path class="st0" d="M88.8,139.4h-4.6v-1h0.6v-3.8h-0.6v-1h4.5l0.2,1.7l-1,0.1l-0.2-0.8h-1.6v1.4h2.5v1h-2.5v1.4h1.7l0.2-0.8l1,0.1
		L88.8,139.4z"/>
</g>
<g>
	<path class="st1" d="M491.8,136.5c0,0.8-0.3,1.5-0.8,2.1s-1.3,0.9-2.2,0.9c-0.9,0-1.7-0.3-2.2-0.9c-0.5-0.6-0.8-1.3-0.8-2.1
		s0.3-1.6,0.8-2.1s1.3-0.9,2.2-0.9c0.9,0,1.7,0.3,2.2,0.9S491.8,135.7,491.8,136.5z M490.5,136.6c0-0.6-0.1-1.1-0.4-1.5
		c-0.3-0.3-0.7-0.5-1.2-0.5c-0.6,0-1,0.2-1.3,0.6c-0.3,0.4-0.4,0.8-0.4,1.4c0,0.5,0.1,1,0.4,1.4s0.7,0.6,1.3,0.6
		c0.6,0,1-0.2,1.2-0.5C490.3,137.6,490.5,137.1,490.5,136.6z"/>
	<path class="st1" d="M497.5,139.4H496l-1.2-2.2H494v1.2h0.6v1h-2.5v-1h0.6v-3.8h-0.6v-1h2.6c0.7,0,1.3,0.1,1.7,0.4
		c0.4,0.3,0.6,0.7,0.6,1.3c0,0.4-0.1,0.7-0.3,1c-0.2,0.3-0.5,0.5-0.8,0.6l0.8,1.5h0.7L497.5,139.4L497.5,139.4z M495.8,135.4
		c0-0.3-0.1-0.5-0.3-0.6c-0.2-0.1-0.5-0.2-0.9-0.2H494v1.6h0.6c0.5,0,0.8-0.1,0.9-0.2C495.7,135.9,495.8,135.7,495.8,135.4z"/>
	<path class="st1" d="M503.7,139.4h-2.3v-1h0.5l-0.2-0.6h-2l-0.2,0.6h0.5v1h-2.3v-1h0.5l1.7-3.8h-0.8v-1h2l2.1,4.8h0.6v1H503.7z
		 M501.4,137l-0.6-1.6h-0.1L500,137H501.4z"/>
	<path class="st1" d="M510.3,134.6h-0.6v4.8H509l-3.1-3.7l0,0v2.7h0.8v1h-2.6v-1h0.6v-3.8H504v-1h1.6l2.9,3.5l0,0v-2.4h-0.8v-1h2.6
		L510.3,134.6L510.3,134.6z"/>
	<path class="st1" d="M516.3,137.2H516v2.2h-0.9l-0.1-0.6c-0.2,0.2-0.4,0.4-0.7,0.5s-0.6,0.2-1,0.2c-0.8,0-1.5-0.3-1.9-0.9
		c-0.5-0.6-0.7-1.3-0.7-2.1s0.3-1.6,0.8-2.1s1.3-0.9,2.2-0.9c0.5,0,0.9,0.1,1.3,0.2c0.4,0.1,0.7,0.3,0.9,0.5l0.2,1.3l-1,0.1
		l-0.2-0.7c-0.2-0.1-0.4-0.2-0.6-0.2c-0.2-0.1-0.5-0.1-0.6-0.1c-0.5,0-0.9,0.2-1.2,0.5c-0.3,0.3-0.5,0.8-0.5,1.5
		c0,0.6,0.1,1.1,0.4,1.4c0.3,0.3,0.7,0.5,1.2,0.5c0.4,0,0.7-0.1,0.9-0.3s0.3-0.5,0.3-0.9l0,0h-1.1v-1h2.6L516.3,137.2L516.3,137.2z"
		/>
	<path class="st1" d="M521.4,139.4h-4.5v-1h0.6v-3.8h-0.6v-1h4.4l0.2,1.7l-1,0.1l-0.2-0.8h-1.6v1.4h2.5v1h-2.5v1.4h1.6l0.2-0.8
		l1,0.1L521.4,139.4z"/>
</g>
<path class="st0" d="M513.7,44.3H66.3c-2.8,0-5,2.2-5,5v65.1c0,2.8,2.2,5,5,5h447.4V44.3z"/>
<path class="st1" d="M613.7,44.3H482.3v75.1h131.4c2.8,0,5-2.2,5-5V49.3C618.7,46.5,616.5,44.3,613.7,44.3z"/>
<g>
	<path class="st2" d="M71.9,151.6h-1.1l-1.2-2.3h-1.2v1.8h0.7v0.5h-2v-0.5h0.7v-4.4h-0.7v-0.5h2.4c0.7,0,1.2,0.1,1.5,0.4
		c0.3,0.3,0.4,0.7,0.4,1.1c0,0.4-0.1,0.7-0.3,0.9c-0.2,0.3-0.5,0.5-0.9,0.6l1,1.9h0.7V151.6z M70.7,147.7c0-0.4-0.1-0.6-0.3-0.8
		c-0.2-0.2-0.5-0.2-1-0.2h-1v2.1h1c0.5,0,0.8-0.1,1-0.3C70.6,148.3,70.7,148.1,70.7,147.7z"/>
	<path class="st2" d="M77.5,149.3h-0.4v2.3h-0.5l-0.1-0.8c-0.2,0.2-0.4,0.4-0.7,0.6c-0.3,0.2-0.7,0.2-1.1,0.2
		c-0.8,0-1.4-0.3-1.8-0.8c-0.5-0.5-0.7-1.2-0.7-2c0-0.5,0.1-1,0.3-1.4c0.2-0.4,0.5-0.8,0.9-1c0.4-0.3,0.9-0.4,1.4-0.4
		c0.4,0,0.8,0.1,1.1,0.2c0.3,0.1,0.6,0.3,0.8,0.5l0.2,1l-0.5,0.1l-0.2-0.8c-0.2-0.1-0.3-0.2-0.6-0.3c-0.2-0.1-0.5-0.1-0.8-0.1
		c-0.6,0-1.1,0.2-1.5,0.6c-0.4,0.4-0.6,1-0.6,1.6c0,0.7,0.2,1.2,0.5,1.6c0.4,0.4,0.8,0.6,1.4,0.6c0.5,0,0.9-0.1,1.2-0.4
		c0.3-0.3,0.4-0.6,0.4-0.9v-0.5h-1.3v-0.5h2.4V149.3z"/>
	<path class="st2" d="M82.5,150.1c0,0.4-0.2,0.8-0.5,1.1c-0.3,0.3-0.8,0.5-1.4,0.5h-2.6v-0.5h0.7v-4.4h-0.7v-0.5h2.5
		c0.6,0,1,0.1,1.2,0.4c0.3,0.2,0.4,0.6,0.4,1c0,0.3-0.1,0.5-0.3,0.8c-0.2,0.2-0.4,0.4-0.7,0.4v0c0.4,0.1,0.7,0.2,0.9,0.5
		C82.4,149.4,82.5,149.7,82.5,150.1z M81.6,147.6c0-0.3-0.1-0.6-0.3-0.7c-0.2-0.1-0.5-0.2-0.8-0.2h-1.1v1.9h1.1
		c0.3,0,0.6-0.1,0.8-0.2C81.5,148.1,81.6,147.9,81.6,147.6z M81.8,150c0-0.3-0.1-0.6-0.3-0.7c-0.2-0.2-0.5-0.3-0.8-0.3h-1.3v2h1.1
		c0.4,0,0.7-0.1,0.9-0.2C81.7,150.7,81.8,150.4,81.8,150z"/>
	<path class="st2" d="M83.4,148.8v-0.9h0.8v0.9H83.4z M83.4,151.6v-0.9h0.8v0.9H83.4z"/>
	<path class="st2" d="M91.1,149.4c0,0.7-0.2,1.2-0.5,1.7c-0.4,0.4-0.9,0.6-1.5,0.6c-0.7,0-1.2-0.2-1.5-0.6c-0.3-0.4-0.5-1-0.5-1.6
		c0-0.7,0.2-1.2,0.5-1.7c0.3-0.4,0.9-0.7,1.5-0.7c0.7,0,1.2,0.2,1.5,0.7C90.9,148.2,91.1,148.8,91.1,149.4z M90.4,149.4
		c0-0.5-0.1-0.9-0.3-1.3c-0.2-0.3-0.6-0.5-1-0.5c-0.5,0-0.8,0.2-1,0.5c-0.2,0.3-0.3,0.7-0.3,1.3s0.1,1,0.3,1.3
		c0.2,0.3,0.6,0.5,1,0.5C90,151.2,90.4,150.6,90.4,149.4z"/>
	<path class="st2" d="M96.5,151.6h-2.6v-0.5h1v-3.3h-1v-0.5h1.7v3.9h1V151.6z"/>
	<path class="st2" d="M99.7,151.6h-2.6v-0.5h1v-3.3h-1v-0.5h1.7v3.9h1V151.6z"/>
	<path class="st2" d="M100.5,147.5c0.2-0.1,0.4-0.2,0.7-0.3c0.3-0.1,0.5-0.1,0.8-0.1c0.6,0,0.9,0.1,1.2,0.4c0.2,0.3,0.3,0.6,0.3,0.9
		c0,0.4-0.1,0.7-0.4,1.1c-0.3,0.3-0.6,0.6-1,0.9c-0.4,0.3-0.7,0.5-1,0.7h2.2l0.1-0.7l0.5,0l-0.1,1.2h-3.4l-0.1-0.5
		c0.8-0.5,1.4-1,1.9-1.4c0.5-0.4,0.7-0.8,0.7-1.2c0-0.6-0.3-0.8-1-0.8c-0.1,0-0.3,0-0.4,0.1c-0.2,0-0.3,0.1-0.5,0.1l-0.1,0.6
		l-0.5-0.1L100.5,147.5z"/>
	<path class="st2" d="M109.2,151.6h-2.6v-0.5h1v-3.3h-1v-0.5h1.7v3.9h1V151.6z"/>
	<path class="st2" d="M113.5,150.2c0,0.4-0.2,0.8-0.6,1.1c-0.4,0.3-0.8,0.4-1.4,0.4c-0.5,0-1-0.1-1.3-0.4c-0.3-0.2-0.5-0.6-0.5-1.1
		c0-0.4,0.1-0.7,0.4-0.9c0.3-0.2,0.6-0.4,0.9-0.5c-0.3-0.1-0.6-0.3-0.8-0.5c-0.2-0.2-0.3-0.5-0.3-0.8c0-0.4,0.2-0.7,0.5-1
		c0.3-0.3,0.7-0.4,1.3-0.4c0.5,0,0.9,0.1,1.2,0.4c0.3,0.2,0.5,0.6,0.5,1c0,0.4-0.1,0.6-0.4,0.8c-0.2,0.2-0.5,0.3-0.8,0.5
		c0.3,0.2,0.7,0.4,0.9,0.6C113.4,149.5,113.5,149.8,113.5,150.2z M112.9,150.3c0-0.3-0.1-0.6-0.4-0.8c-0.3-0.2-0.6-0.3-1-0.5
		c-0.3,0.1-0.6,0.3-0.8,0.5c-0.2,0.2-0.3,0.4-0.3,0.7c0,0.3,0.1,0.6,0.3,0.7s0.5,0.3,0.9,0.3c0.4,0,0.7-0.1,0.9-0.2
		S112.9,150.6,112.9,150.3z M112.7,147.5c0-0.3-0.1-0.5-0.3-0.7c-0.2-0.1-0.5-0.2-0.8-0.2c-0.3,0-0.6,0.1-0.8,0.2
		c-0.2,0.1-0.3,0.3-0.3,0.6c0,0.3,0.1,0.5,0.4,0.7c0.2,0.2,0.5,0.3,0.8,0.5c0.3-0.1,0.6-0.3,0.7-0.4
		C112.6,147.9,112.7,147.7,112.7,147.5z"/>
	<path class="st2" d="M117.3,152.7h-0.6v-1.4h-2.6l-0.1-0.5l2-3.6h1.3v3.6h0.9l-0.1,0.5h-0.8V152.7z M116.7,150.8v-3h-0.4l-1.7,3
		H116.7z"/>
	<path class="st2" d="M123,145.8l-1.8,5.8h-0.6l1.8-5.8H123z"/>
	<path class="st2" d="M131.1,151.6h-2v-0.5h0.7v-2h-3v2h0.7v0.5h-2v-0.5h0.7v-4.4h-0.7v-0.5h2v0.5h-0.7v1.9h3v-1.9h-0.7v-0.5h2v0.5
		h-0.7v4.4h0.7V151.6z"/>
	<path class="st2" d="M135.9,151.6h-4.1v-0.5h0.7v-4.4h-0.7v-0.5h4l0.2,1.6l-0.5,0.1l-0.2-1.1h-2.2v1.9h2.6v0.5h-2.6v2h2.2l0.2-1.1
		l0.5,0.1L135.9,151.6z"/>
	<path class="st2" d="M141.7,151.6h-1.9v-0.5h0.7l-1.4-1.9l-1.3,1.9h0.6v0.5h-1.9v-0.5h0.6l1.7-2.3l-1.6-2.1h-0.5v-0.5h1.9v0.5h-0.6
		l1.3,1.7l1.2-1.7h-0.6v-0.5h1.9v0.5H141l-1.6,2.1l1.8,2.3h0.5V151.6z"/>
	<path class="st2" d="M142.3,148.8v-0.9h0.8v0.9H142.3z M142.3,151.6v-0.9h0.8v0.9H142.3z"/>
	<path class="st2" d="M149.7,147.2l-0.2,1h0.7v0.5h-0.8l-0.3,1.4h0.8v0.5h-0.9l-0.2,1.1h-0.5l0.2-1.1H147l-0.2,1.1h-0.5l0.2-1.1
		h-0.6v-0.5h0.7l0.3-1.4h-0.7v-0.5h0.8l0.2-1h0.5l-0.2,1h1.5l0.2-1H149.7z M147.1,150.1h1.5l0.3-1.4h-1.5L147.1,150.1z"/>
	<path class="st2" d="M155,149.4c0,0.7-0.2,1.2-0.5,1.7c-0.4,0.4-0.9,0.6-1.5,0.6c-0.7,0-1.2-0.2-1.5-0.6c-0.3-0.4-0.5-1-0.5-1.6
		c0-0.7,0.2-1.2,0.5-1.7c0.3-0.4,0.9-0.7,1.5-0.7c0.7,0,1.2,0.2,1.5,0.7C154.8,148.2,155,148.8,155,149.4z M154.3,149.4
		c0-0.5-0.1-0.9-0.3-1.3c-0.2-0.3-0.6-0.5-1-0.5c-0.5,0-0.8,0.2-1,0.5c-0.2,0.3-0.3,0.7-0.3,1.3s0.1,1,0.3,1.3
		c0.2,0.3,0.6,0.5,1,0.5C153.9,151.2,154.3,150.6,154.3,149.4z"/>
	<path class="st2" d="M159.8,149.4c0,0.7-0.2,1.2-0.5,1.7c-0.4,0.4-0.9,0.6-1.5,0.6c-0.7,0-1.2-0.2-1.5-0.6c-0.3-0.4-0.5-1-0.5-1.6
		c0-0.7,0.2-1.2,0.5-1.7c0.3-0.4,0.9-0.7,1.5-0.7c0.7,0,1.2,0.2,1.5,0.7C159.7,148.2,159.8,148.8,159.8,149.4z M159.2,149.4
		c0-0.5-0.1-0.9-0.3-1.3c-0.2-0.3-0.6-0.5-1-0.5c-0.5,0-0.8,0.2-1,0.5c-0.2,0.3-0.3,0.7-0.3,1.3s0.1,1,0.3,1.3
		c0.2,0.3,0.6,0.5,1,0.5C158.7,151.2,159.2,150.6,159.2,149.4z"/>
	<path class="st2" d="M164.1,147.6l-2.1,5.1h-0.6l2-5h-2.3v0.9h-0.6v-1.5h3.5L164.1,147.6z"/>
	<path class="st2" d="M168.7,149.4c0,0.7-0.2,1.2-0.5,1.7c-0.4,0.4-0.9,0.6-1.5,0.6c-0.7,0-1.2-0.2-1.5-0.6c-0.3-0.4-0.5-1-0.5-1.6
		c0-0.7,0.2-1.2,0.5-1.7c0.3-0.4,0.9-0.7,1.5-0.7c0.7,0,1.2,0.2,1.5,0.7S168.7,148.8,168.7,149.4z M168,149.4c0-0.5-0.1-0.9-0.3-1.3
		c-0.2-0.3-0.6-0.5-1-0.5c-0.5,0-0.8,0.2-1,0.5c-0.2,0.3-0.3,0.7-0.3,1.3s0.1,1,0.3,1.3c0.2,0.3,0.6,0.5,1,0.5
		C167.5,151.2,168,150.6,168,149.4z"/>
	<path class="st2" d="M173.2,149.6c0,0.3-0.1,0.7-0.2,1c-0.1,0.3-0.3,0.6-0.5,0.8c-0.2,0.2-0.6,0.3-1,0.3c-0.6,0-1.1-0.2-1.3-0.7
		l-0.1,0.6h-0.6c0-0.2,0-0.3,0.1-0.5c0-0.2,0-0.4,0-0.6v-4.2H169v-0.5h1.2v2.8c0.1-0.2,0.3-0.4,0.5-0.6c0.2-0.2,0.5-0.3,0.9-0.3
		c0.5,0,0.9,0.2,1.2,0.5C173.1,148.6,173.2,149,173.2,149.6z M172.6,149.7c0-0.5-0.1-0.8-0.3-1.1c-0.2-0.2-0.5-0.4-0.8-0.4
		c-0.4,0-0.6,0.1-0.9,0.4c-0.2,0.3-0.3,0.5-0.3,0.8v0.6c0,0.3,0.1,0.6,0.3,0.8c0.2,0.2,0.5,0.3,0.8,0.3c0.4,0,0.7-0.2,0.9-0.5
		C172.5,150.4,172.6,150.1,172.6,149.7z"/>
	<path class="st2" d="M177.7,150.2c0,0.4-0.2,0.8-0.6,1.1c-0.4,0.3-0.8,0.4-1.4,0.4c-0.5,0-1-0.1-1.3-0.4c-0.3-0.2-0.5-0.6-0.5-1.1
		c0-0.4,0.1-0.7,0.4-0.9c0.3-0.2,0.6-0.4,0.9-0.5c-0.3-0.1-0.6-0.3-0.8-0.5c-0.2-0.2-0.3-0.5-0.3-0.8c0-0.4,0.2-0.7,0.5-1
		c0.3-0.3,0.7-0.4,1.3-0.4c0.5,0,0.9,0.1,1.2,0.4c0.3,0.2,0.5,0.6,0.5,1c0,0.4-0.1,0.6-0.4,0.8c-0.2,0.2-0.5,0.3-0.8,0.5
		c0.3,0.2,0.7,0.4,0.9,0.6C177.6,149.5,177.7,149.8,177.7,150.2z M177.1,150.3c0-0.3-0.1-0.6-0.4-0.8c-0.3-0.2-0.6-0.3-1-0.5
		c-0.3,0.1-0.6,0.3-0.8,0.5c-0.2,0.2-0.3,0.4-0.3,0.7c0,0.3,0.1,0.6,0.3,0.7c0.2,0.2,0.5,0.3,0.9,0.3c0.4,0,0.7-0.1,0.9-0.2
		C176.9,150.8,177.1,150.6,177.1,150.3z M176.9,147.5c0-0.3-0.1-0.5-0.3-0.7c-0.2-0.1-0.5-0.2-0.8-0.2c-0.3,0-0.6,0.1-0.8,0.2
		c-0.2,0.1-0.3,0.3-0.3,0.6c0,0.3,0.1,0.5,0.4,0.7c0.2,0.2,0.5,0.3,0.8,0.5c0.3-0.1,0.6-0.3,0.7-0.4
		C176.8,147.9,176.9,147.7,176.9,147.5z"/>
	<path class="st2" d="M182.7,145.8l-1.8,5.8h-0.6l1.8-5.8H182.7z"/>
	<path class="st2" d="M71.6,162.2c-0.4,0.3-1,0.5-1.8,0.5c-0.8,0-1.4-0.3-1.9-0.8c-0.5-0.5-0.7-1.2-0.7-2c0-0.5,0.1-1,0.3-1.4
		c0.2-0.4,0.5-0.8,0.9-1c0.4-0.3,0.8-0.4,1.4-0.4c0.5,0,0.8,0.1,1.1,0.2c0.3,0.1,0.6,0.3,0.8,0.5l0.2,1.1l-0.5,0.1l-0.2-0.8
		c-0.2-0.1-0.4-0.2-0.6-0.3c-0.2-0.1-0.5-0.1-0.8-0.1c-0.6,0-1.1,0.2-1.5,0.6c-0.4,0.4-0.6,1-0.6,1.6c0,0.7,0.2,1.2,0.6,1.6
		c0.4,0.4,0.9,0.6,1.5,0.6c0.5,0,0.9-0.1,1.2-0.2l0.2-0.8l0.5,0.1L71.6,162.2z"/>
	<path class="st2" d="M79.3,157.7h-0.7v4.4h0.7v0.5h-1.9v-0.5H78v-3.5h0l-1.8,3.7h-0.3l-1.9-3.8h0v3.5h0.7v0.5h-1.9v-0.5h0.7v-4.4
		h-0.7v-0.5h1.3l2.1,4.3h0l2.1-4.3h1.3V157.7z"/>
	<path class="st2" d="M84.8,157.7h-0.5l-1.7,2.8v1.6h1v0.5H81v-0.5h0.9v-1.6l-1.8-2.8h-0.5v-0.5h2v0.5h-0.7l1.4,2.3h0l1.3-2.3h-0.8
		v-0.5h1.9V157.7z"/>
	<path class="st2" d="M90.1,162.7h-2v-0.5h0.6l-1.4-2h-0.9v2h0.6v0.5h-1.9v-0.5h0.7v-4.4h-0.7v-0.5h2v0.5h-0.6v1.9h0.9l1.4-1.9h-0.6
		v-0.5H90v0.5h-0.6l-1.6,2.1l1.7,2.3h0.6V162.7z"/>
	<path class="st2" d="M90.8,159.8v-0.9h0.8v0.9H90.8z M90.8,162.7v-0.9h0.8v0.9H90.8z"/>
	<path class="st2" d="M97.1,162.7h-2.6v-0.5h1v-3.3h-1v-0.5h1.7v3.9h1V162.7z"/>
	<path class="st2" d="M101.7,160.5c0,0.7-0.2,1.2-0.5,1.7c-0.4,0.4-0.9,0.6-1.5,0.6c-0.7,0-1.2-0.2-1.5-0.6c-0.3-0.4-0.5-1-0.5-1.6
		c0-0.7,0.2-1.2,0.5-1.7c0.3-0.4,0.9-0.7,1.5-0.7c0.7,0,1.2,0.2,1.5,0.7C101.5,159.3,101.7,159.8,101.7,160.5z M101.1,160.5
		c0-0.5-0.1-0.9-0.3-1.3c-0.2-0.3-0.6-0.5-1-0.5c-0.5,0-0.8,0.2-1,0.5c-0.2,0.3-0.3,0.7-0.3,1.3c0,0.6,0.1,1,0.3,1.3
		c0.2,0.3,0.6,0.5,1,0.5C100.6,162.2,101.1,161.6,101.1,160.5z"/>
	<path class="st2" d="M106.6,160.5c0,0.7-0.2,1.2-0.5,1.7c-0.4,0.4-0.9,0.6-1.5,0.6c-0.7,0-1.2-0.2-1.5-0.6c-0.3-0.4-0.5-1-0.5-1.6
		c0-0.7,0.2-1.2,0.5-1.7c0.3-0.4,0.9-0.7,1.5-0.7c0.7,0,1.2,0.2,1.5,0.7C106.4,159.3,106.6,159.8,106.6,160.5z M105.9,160.5
		c0-0.5-0.1-0.9-0.3-1.3c-0.2-0.3-0.6-0.5-1-0.5c-0.5,0-0.8,0.2-1,0.5c-0.2,0.3-0.3,0.7-0.3,1.3c0,0.6,0.1,1,0.3,1.3
		c0.2,0.3,0.6,0.5,1,0.5C105.5,162.2,105.9,161.6,105.9,160.5z"/>
	<path class="st2" d="M108.4,160.6c-0.3,0-0.6-0.1-0.8-0.3c-0.2-0.2-0.3-0.5-0.3-0.9c0-0.4,0.1-0.7,0.3-0.9c0.2-0.2,0.5-0.3,0.9-0.3
		c0.3,0,0.6,0.1,0.8,0.3c0.2,0.2,0.3,0.5,0.3,0.9c0,0.4-0.1,0.7-0.3,0.9C109.1,160.5,108.8,160.6,108.4,160.6z M108.4,160.2
		c0.5,0,0.7-0.3,0.7-0.8c0-0.5-0.2-0.8-0.7-0.8c-0.5,0-0.7,0.3-0.7,0.8C107.8,159.9,108,160.2,108.4,160.2z M111.9,158.3l-1.7,2.1
		l-1.7,2.2h-0.6l1.9-2.4l1.5-2H111.9z M111.2,162.7c-0.3,0-0.6-0.1-0.8-0.3c-0.2-0.2-0.3-0.5-0.3-0.9c0-0.4,0.1-0.7,0.3-0.9
		c0.2-0.2,0.5-0.3,0.9-0.3c0.3,0,0.6,0.1,0.8,0.3c0.2,0.2,0.3,0.5,0.3,0.9c0,0.4-0.1,0.7-0.3,0.9
		C111.9,162.6,111.6,162.7,111.2,162.7z M111.2,162.3c0.5,0,0.7-0.3,0.7-0.8c0-0.5-0.2-0.8-0.7-0.8c-0.5,0-0.7,0.3-0.7,0.8
		C110.6,162.1,110.8,162.3,111.2,162.3z"/>
	<path class="st2" d="M115.2,158.6c0.2-0.1,0.4-0.2,0.6-0.3c0.3-0.1,0.5-0.1,0.8-0.1c0.4,0,0.8,0.1,1.1,0.3c0.3,0.2,0.4,0.6,0.4,1
		c0,0.3-0.1,0.5-0.2,0.8c-0.2,0.2-0.4,0.4-0.8,0.5v0c0.5,0.1,0.8,0.3,1,0.5c0.2,0.3,0.3,0.5,0.3,0.9c0,0.5-0.2,0.9-0.5,1.2
		c-0.3,0.3-0.8,0.4-1.3,0.4c-0.5,0-0.9-0.1-1.2-0.3c-0.3-0.2-0.4-0.5-0.5-0.8l0.5-0.2c0.1,0.2,0.2,0.4,0.4,0.6
		c0.2,0.2,0.4,0.2,0.8,0.2c0.4,0,0.8-0.1,0.9-0.3c0.2-0.2,0.2-0.5,0.2-0.8c0-0.3-0.1-0.6-0.4-0.8c-0.2-0.2-0.6-0.3-1.2-0.3v-0.5
		c0.5,0,0.9-0.1,1.1-0.4s0.3-0.5,0.3-0.7c0-0.3-0.1-0.5-0.3-0.6c-0.2-0.2-0.4-0.2-0.7-0.2c-0.3,0-0.5,0.1-0.8,0.2l-0.2,0.7l-0.5-0.1
		L115.2,158.6z"/>
	<path class="st2" d="M123.2,160.5c0,0.7-0.2,1.2-0.5,1.7c-0.4,0.4-0.9,0.6-1.5,0.6c-0.7,0-1.2-0.2-1.5-0.6c-0.3-0.4-0.5-1-0.5-1.6
		c0-0.7,0.2-1.2,0.5-1.7c0.3-0.4,0.9-0.7,1.5-0.7c0.7,0,1.2,0.2,1.5,0.7C123.1,159.3,123.2,159.8,123.2,160.5z M122.6,160.5
		c0-0.5-0.1-0.9-0.3-1.3c-0.2-0.3-0.6-0.5-1-0.5c-0.5,0-0.8,0.2-1,0.5c-0.2,0.3-0.3,0.7-0.3,1.3c0,0.6,0.1,1,0.3,1.3
		c0.2,0.3,0.6,0.5,1,0.5C122.1,162.2,122.6,161.6,122.6,160.5z"/>
	<path class="st2" d="M125.1,160.6c-0.3,0-0.6-0.1-0.8-0.3c-0.2-0.2-0.3-0.5-0.3-0.9c0-0.4,0.1-0.7,0.3-0.9s0.5-0.3,0.9-0.3
		c0.3,0,0.6,0.1,0.8,0.3c0.2,0.2,0.3,0.5,0.3,0.9c0,0.4-0.1,0.7-0.3,0.9C125.8,160.5,125.5,160.6,125.1,160.6z M125.1,160.2
		c0.5,0,0.7-0.3,0.7-0.8c0-0.5-0.2-0.8-0.7-0.8c-0.5,0-0.7,0.3-0.7,0.8C124.4,159.9,124.7,160.2,125.1,160.2z M128.5,158.3l-1.7,2.1
		l-1.7,2.2h-0.6l1.9-2.4l1.5-2H128.5z M127.9,162.7c-0.3,0-0.6-0.1-0.8-0.3c-0.2-0.2-0.3-0.5-0.3-0.9c0-0.4,0.1-0.7,0.3-0.9
		c0.2-0.2,0.5-0.3,0.9-0.3c0.3,0,0.6,0.1,0.8,0.3c0.2,0.2,0.3,0.5,0.3,0.9c0,0.4-0.1,0.7-0.3,0.9
		C128.6,162.6,128.3,162.7,127.9,162.7z M127.9,162.3c0.5,0,0.7-0.3,0.7-0.8c0-0.5-0.2-0.8-0.7-0.8c-0.5,0-0.7,0.3-0.7,0.8
		C127.2,162.1,127.4,162.3,127.9,162.3z"/>
	<path class="st2" d="M132,158.6c0.2-0.1,0.4-0.2,0.7-0.3c0.3-0.1,0.5-0.1,0.8-0.1c0.6,0,0.9,0.1,1.2,0.4c0.2,0.3,0.3,0.6,0.3,0.9
		c0,0.4-0.1,0.7-0.4,1.1c-0.3,0.3-0.6,0.6-1,0.9c-0.4,0.3-0.7,0.5-1,0.7h2.2l0.1-0.7l0.5,0l-0.1,1.2h-3.4l-0.1-0.5
		c0.8-0.5,1.4-1,1.9-1.4c0.5-0.4,0.7-0.8,0.7-1.2c0-0.6-0.3-0.8-1-0.8c-0.1,0-0.3,0-0.4,0.1c-0.2,0-0.3,0.1-0.5,0.1l-0.1,0.6
		l-0.5-0.1L132,158.6z"/>
	<path class="st2" d="M137.1,160.6c-0.3,0-0.6-0.1-0.8-0.3c-0.2-0.2-0.3-0.5-0.3-0.9c0-0.4,0.1-0.7,0.3-0.9s0.5-0.3,0.9-0.3
		c0.3,0,0.6,0.1,0.8,0.3c0.2,0.2,0.3,0.5,0.3,0.9c0,0.4-0.1,0.7-0.3,0.9C137.8,160.5,137.5,160.6,137.1,160.6z M137.1,160.2
		c0.5,0,0.7-0.3,0.7-0.8c0-0.5-0.2-0.8-0.7-0.8c-0.5,0-0.7,0.3-0.7,0.8C136.5,159.9,136.7,160.2,137.1,160.2z M140.6,158.3l-1.7,2.1
		l-1.7,2.2h-0.6l1.9-2.4l1.5-2H140.6z M139.9,162.7c-0.3,0-0.6-0.1-0.8-0.3c-0.2-0.2-0.3-0.5-0.3-0.9c0-0.4,0.1-0.7,0.3-0.9
		c0.2-0.2,0.5-0.3,0.9-0.3c0.3,0,0.6,0.1,0.8,0.3c0.2,0.2,0.3,0.5,0.3,0.9c0,0.4-0.1,0.7-0.3,0.9
		C140.6,162.6,140.3,162.7,139.9,162.7z M139.9,162.3c0.5,0,0.7-0.3,0.7-0.8c0-0.5-0.2-0.8-0.7-0.8c-0.5,0-0.7,0.3-0.7,0.8
		C139.3,162.1,139.5,162.3,139.9,162.3z"/>
	<path class="st2" d="M147.8,160.5c0,0.7-0.2,1.2-0.5,1.7c-0.4,0.4-0.9,0.6-1.5,0.6c-0.7,0-1.2-0.2-1.5-0.6c-0.3-0.4-0.5-1-0.5-1.6
		c0-0.7,0.2-1.2,0.5-1.7c0.3-0.4,0.9-0.7,1.5-0.7c0.7,0,1.2,0.2,1.5,0.7C147.7,159.3,147.8,159.8,147.8,160.5z M147.2,160.5
		c0-0.5-0.1-0.9-0.3-1.3c-0.2-0.3-0.6-0.5-1-0.5c-0.5,0-0.8,0.2-1,0.5c-0.2,0.3-0.3,0.7-0.3,1.3c0,0.6,0.1,1,0.3,1.3
		c0.2,0.3,0.6,0.5,1,0.5C146.7,162.2,147.2,161.6,147.2,160.5z"/>
	<path class="st2" d="M149.7,160.6c-0.3,0-0.6-0.1-0.8-0.3c-0.2-0.2-0.3-0.5-0.3-0.9c0-0.4,0.1-0.7,0.3-0.9s0.5-0.3,0.9-0.3
		c0.3,0,0.6,0.1,0.8,0.3c0.2,0.2,0.3,0.5,0.3,0.9c0,0.4-0.1,0.7-0.3,0.9C150.4,160.5,150.1,160.6,149.7,160.6z M149.7,160.2
		c0.5,0,0.7-0.3,0.7-0.8c0-0.5-0.2-0.8-0.7-0.8c-0.5,0-0.7,0.3-0.7,0.8C149,159.9,149.3,160.2,149.7,160.2z M153.1,158.3l-1.7,2.1
		l-1.7,2.2h-0.6l1.9-2.4l1.5-2H153.1z M152.5,162.7c-0.3,0-0.6-0.1-0.8-0.3c-0.2-0.2-0.3-0.5-0.3-0.9c0-0.4,0.1-0.7,0.3-0.9
		c0.2-0.2,0.5-0.3,0.9-0.3c0.3,0,0.6,0.1,0.8,0.3c0.2,0.2,0.3,0.5,0.3,0.9c0,0.4-0.1,0.7-0.3,0.9
		C153.2,162.6,152.9,162.7,152.5,162.7z M152.5,162.3c0.5,0,0.7-0.3,0.7-0.8c0-0.5-0.2-0.8-0.7-0.8c-0.5,0-0.7,0.3-0.7,0.8
		C151.8,162.1,152,162.3,152.5,162.3z"/>
	<path class="st2" d="M158.6,156.9l-1.8,5.8h-0.6l1.8-5.8H158.6z"/>
	<path class="st2" d="M71.3,169.9c0,0.6-0.2,1-0.5,1.3c-0.3,0.3-0.8,0.5-1.3,0.5h-1.1v1.5h0.9v0.5h-2.2v-0.5h0.7v-4.4h-0.7v-0.5h2.3
		c0.7,0,1.2,0.2,1.5,0.5C71.2,169.1,71.3,169.5,71.3,169.9z M70.7,169.9c0-0.4-0.1-0.6-0.3-0.8s-0.5-0.3-1-0.3h-1v2.4h1
		C70.3,171.1,70.7,170.7,70.7,169.9z"/>
	<path class="st2" d="M76.7,173.7h-1.9v-0.5h0.7l-0.4-1.1h-2.3l-0.4,1.1h0.8v0.5h-1.9v-0.5h0.5l1.8-4.4h-0.9v-0.5h1.6l2,4.9h0.6
		V173.7z M74.9,171.6l-0.9-2.5h-0.1l-1,2.5H74.9z"/>
	<path class="st2" d="M82.6,168.8h-0.7v4.9h-0.4l-3.2-4.3h0v3.8h0.9v0.5H77v-0.5h0.6v-4.4H77v-0.5h1.2l3.1,4.2h0v-3.7h-0.8v-0.5h2.1
		V168.8z"/>
	<path class="st2" d="M87.9,169.9l-0.5,0l-0.2-1.2h-1.4v4.4h1v0.5h-2.5v-0.5h0.9v-4.4h-1.4l-0.2,1.2l-0.5,0l0.2-1.7h4.5L87.9,169.9z
		"/>
	<path class="st2" d="M93.8,171c0,0.5-0.1,1-0.3,1.4c-0.2,0.4-0.6,0.8-1,1c-0.4,0.3-0.9,0.4-1.4,0.4c-0.8,0-1.5-0.3-2-0.8
		c-0.5-0.6-0.7-1.2-0.7-2c0-0.8,0.3-1.5,0.8-2c0.5-0.5,1.2-0.8,2-0.8c0.8,0,1.5,0.3,2,0.8C93.6,169.5,93.8,170.2,93.8,171z
		 M93.2,171c0-0.7-0.2-1.2-0.6-1.6c-0.4-0.4-0.9-0.6-1.5-0.6c-0.7,0-1.2,0.2-1.5,0.7c-0.4,0.4-0.5,1-0.5,1.6c0,0.6,0.2,1.2,0.5,1.6
		c0.4,0.4,0.9,0.7,1.5,0.7c0.6,0,1.2-0.2,1.5-0.7C93,172.2,93.2,171.6,93.2,171z"/>
	<path class="st2" d="M100,168.8h-0.7v4.9h-0.4l-3.2-4.3h0v3.8h0.9v0.5h-2.1v-0.5h0.6v-4.4h-0.7v-0.5h1.2l3.1,4.2h0v-3.7h-0.8v-0.5
		h2.1V168.8z"/>
	<path class="st2" d="M104.7,173.7h-4.1v-0.5h0.7v-4.4h-0.7v-0.5h4l0.2,1.6l-0.5,0.1l-0.2-1.1h-2.2v1.9h2.6v0.5h-2.6v2h2.2l0.2-1.1
		l0.5,0.1L104.7,173.7z"/>
	<path class="st2" d="M105.8,170.9V170h0.8v0.9H105.8z M105.8,173.7v-0.9h0.8v0.9H105.8z"/>
	<path class="st2" d="M113.6,169.9c0,0.6-0.2,1-0.5,1.3c-0.3,0.3-0.8,0.5-1.3,0.5h-1.1v1.5h0.9v0.5h-2.2v-0.5h0.7v-4.4h-0.7v-0.5
		h2.3c0.7,0,1.2,0.2,1.5,0.5C113.5,169.1,113.6,169.5,113.6,169.9z M113,169.9c0-0.4-0.1-0.6-0.3-0.8s-0.5-0.3-1-0.3h-1v2.4h1
		C112.5,171.1,113,170.7,113,169.9z"/>
	<path class="st2" d="M116.3,169.9c0.3,0,0.5,0.1,0.6,0.2l0.1,0.9l-0.5,0.1l-0.1-0.6c-0.1,0-0.2-0.1-0.3-0.1c-0.2,0-0.4,0.1-0.5,0.3
		c-0.1,0.2-0.2,0.4-0.2,0.7v1.8h0.9v0.5h-2.1v-0.5h0.7v-2.8h-0.7V170h1.2v0.7c0.1-0.2,0.2-0.4,0.4-0.5
		C115.9,170,116.1,169.9,116.3,169.9z"/>
	<path class="st2" d="M121.4,171.8c0,0.6-0.2,1-0.5,1.4s-0.8,0.6-1.4,0.6c-0.6,0-1-0.2-1.3-0.5c-0.3-0.4-0.5-0.8-0.5-1.4
		c0-0.5,0.2-1,0.5-1.4c0.3-0.4,0.8-0.6,1.4-0.6c0.6,0,1.1,0.2,1.4,0.6C121.3,170.8,121.4,171.3,121.4,171.8z M120.8,171.8
		c0-0.4-0.1-0.8-0.3-1c-0.2-0.3-0.5-0.4-0.9-0.4s-0.7,0.1-0.9,0.4c-0.2,0.3-0.3,0.6-0.3,1c0,0.4,0.1,0.8,0.3,1
		c0.2,0.3,0.5,0.4,0.9,0.4c0.4,0,0.7-0.1,0.9-0.4C120.7,172.6,120.8,172.2,120.8,171.8z"/>
	<path class="st2" d="M125.3,172.5c-0.1,0.3-0.2,0.6-0.4,0.9c-0.2,0.3-0.6,0.4-1.1,0.4s-0.9-0.2-1.2-0.5c-0.3-0.3-0.5-0.8-0.5-1.4
		c0-0.5,0.1-1,0.4-1.4c0.3-0.4,0.7-0.6,1.3-0.6c0.2,0,0.5,0,0.7,0.1c0.2,0.1,0.4,0.2,0.6,0.3l0.1,0.9l-0.5,0.1l-0.1-0.6
		c-0.2-0.1-0.5-0.2-0.8-0.2c-0.4,0-0.7,0.1-0.9,0.4s-0.3,0.6-0.3,1c0,0.4,0.1,0.8,0.3,1.1c0.2,0.3,0.5,0.4,0.9,0.4
		c0.6,0,0.9-0.3,1-1L125.3,172.5z"/>
	<path class="st2" d="M129.3,172.6c-0.1,0.3-0.2,0.6-0.5,0.8c-0.3,0.2-0.6,0.3-1.1,0.3c-0.5,0-1-0.2-1.3-0.5
		c-0.3-0.3-0.5-0.8-0.5-1.4c0-0.6,0.2-1.1,0.5-1.4c0.3-0.4,0.7-0.6,1.3-0.6c0.5,0,0.9,0.2,1.2,0.5c0.3,0.3,0.4,0.7,0.4,1.2
		c0,0.1,0,0.3-0.1,0.4h-2.6c0,0.9,0.4,1.3,1.2,1.3c0.3,0,0.5-0.1,0.7-0.2c0.2-0.1,0.3-0.3,0.3-0.6L129.3,172.6z M128.6,171.5
		c0-0.3,0-0.5-0.2-0.8c-0.2-0.2-0.4-0.4-0.8-0.4c-0.3,0-0.6,0.1-0.8,0.3c-0.2,0.2-0.3,0.5-0.3,0.8H128.6z"/>
	<path class="st2" d="M132.9,172.6c0,0.4-0.2,0.7-0.5,0.9s-0.7,0.3-1.1,0.3c-0.3,0-0.5,0-0.8-0.1c-0.3-0.1-0.5-0.2-0.6-0.3l0.1-0.9
		l0.5,0.1l0,0.5c0.3,0.1,0.5,0.2,0.8,0.2c0.3,0,0.5-0.1,0.7-0.2c0.2-0.1,0.3-0.3,0.3-0.5c0-0.2-0.1-0.4-0.2-0.4
		c-0.2-0.1-0.4-0.1-0.6-0.2c-0.2,0-0.5-0.1-0.7-0.1c-0.2-0.1-0.4-0.2-0.6-0.3c-0.2-0.1-0.2-0.4-0.2-0.6c0-0.4,0.1-0.7,0.4-0.8
		c0.3-0.2,0.6-0.2,1-0.2c0.3,0,0.5,0,0.7,0.1c0.2,0.1,0.4,0.1,0.6,0.2l0.1,0.9l-0.5,0.1l-0.1-0.6c-0.2-0.1-0.5-0.2-0.8-0.2
		c-0.2,0-0.4,0-0.6,0.1c-0.2,0.1-0.2,0.2-0.2,0.4c0,0.2,0.1,0.3,0.2,0.4c0.2,0.1,0.4,0.1,0.6,0.2c0.2,0,0.5,0.1,0.7,0.1
		c0.2,0.1,0.4,0.2,0.6,0.3C132.9,172.1,132.9,172.3,132.9,172.6z"/>
	<path class="st2" d="M136.6,172.6c0,0.4-0.2,0.7-0.5,0.9c-0.3,0.2-0.7,0.3-1.1,0.3c-0.3,0-0.5,0-0.8-0.1c-0.3-0.1-0.5-0.2-0.6-0.3
		l0.1-0.9l0.5,0.1l0,0.5c0.3,0.1,0.5,0.2,0.8,0.2c0.3,0,0.5-0.1,0.7-0.2c0.2-0.1,0.3-0.3,0.3-0.5c0-0.2-0.1-0.4-0.2-0.4
		c-0.2-0.1-0.4-0.1-0.6-0.2c-0.2,0-0.5-0.1-0.7-0.1c-0.2-0.1-0.4-0.2-0.6-0.3c-0.2-0.1-0.2-0.4-0.2-0.6c0-0.4,0.1-0.7,0.4-0.8
		c0.3-0.2,0.6-0.2,1-0.2c0.3,0,0.5,0,0.7,0.1c0.2,0.1,0.4,0.1,0.6,0.2l0.1,0.9l-0.5,0.1l-0.1-0.6c-0.2-0.1-0.5-0.2-0.8-0.2
		c-0.2,0-0.4,0-0.6,0.1c-0.2,0.1-0.2,0.2-0.2,0.4c0,0.2,0.1,0.3,0.2,0.4c0.2,0.1,0.4,0.1,0.6,0.2c0.2,0,0.5,0.1,0.7,0.1
		c0.2,0.1,0.4,0.2,0.6,0.3C136.6,172.1,136.6,172.3,136.6,172.6z"/>
	<path class="st2" d="M143.6,172.2c0,0.4-0.2,0.8-0.5,1.1c-0.3,0.3-0.8,0.5-1.4,0.5h-2.6v-0.5h0.7v-4.4h-0.7v-0.5h2.5
		c0.6,0,1,0.1,1.2,0.4c0.3,0.2,0.4,0.6,0.4,1c0,0.3-0.1,0.5-0.3,0.8c-0.2,0.2-0.4,0.4-0.7,0.4v0c0.4,0.1,0.7,0.2,0.9,0.5
		C143.5,171.5,143.6,171.8,143.6,172.2z M142.7,169.7c0-0.3-0.1-0.6-0.3-0.7c-0.2-0.1-0.5-0.2-0.8-0.2h-1.1v1.9h1.1
		c0.3,0,0.6-0.1,0.8-0.2C142.6,170.2,142.7,170,142.7,169.7z M143,172.1c0-0.3-0.1-0.6-0.3-0.7s-0.5-0.3-0.8-0.3h-1.3v2h1.1
		c0.4,0,0.7-0.1,0.9-0.2C142.9,172.8,143,172.5,143,172.1z"/>
	<path class="st2" d="M146,173.7h-1.9v-0.5h0.7v-4.8h-0.7v-0.5h1.3v5.3h0.7V173.7z"/>
	<path class="st2" d="M150.8,173.7h-1.3V173c-0.1,0.2-0.3,0.4-0.5,0.6c-0.2,0.1-0.5,0.2-0.8,0.2c-0.4,0-0.7-0.1-0.9-0.3
		c-0.2-0.2-0.4-0.6-0.4-1.1v-1.9h-0.7V170h1.2v2.2c0,0.4,0.1,0.7,0.3,0.9c0.2,0.2,0.4,0.2,0.6,0.2c0.3,0,0.6-0.1,0.8-0.4
		c0.2-0.2,0.3-0.5,0.3-0.8v-1.7h-0.8V170h1.4v3.3h0.7V173.7z"/>
	<path class="st2" d="M154.5,172.6c-0.1,0.3-0.2,0.6-0.5,0.8c-0.3,0.2-0.6,0.3-1.1,0.3c-0.5,0-1-0.2-1.3-0.5
		c-0.3-0.3-0.5-0.8-0.5-1.4c0-0.6,0.2-1.1,0.5-1.4c0.3-0.4,0.7-0.6,1.3-0.6c0.5,0,0.9,0.2,1.2,0.5c0.3,0.3,0.4,0.7,0.4,1.2
		c0,0.1,0,0.3-0.1,0.4h-2.6c0,0.9,0.4,1.3,1.2,1.3c0.3,0,0.5-0.1,0.7-0.2c0.2-0.1,0.3-0.3,0.3-0.6L154.5,172.6z M153.9,171.5
		c0-0.3,0-0.5-0.2-0.8c-0.2-0.2-0.4-0.4-0.8-0.4c-0.3,0-0.6,0.1-0.8,0.3c-0.2,0.2-0.3,0.5-0.3,0.8H153.9z"/>
	<path class="st2" d="M162.5,168.8H162v2.7c0,0.4-0.1,0.8-0.2,1.1c-0.1,0.4-0.4,0.6-0.7,0.9c-0.3,0.2-0.8,0.3-1.3,0.3
		c-0.8,0-1.4-0.2-1.7-0.7c-0.3-0.5-0.5-1-0.5-1.6v-2.8h-0.6v-0.5h1.9v0.5h-0.8v2.8c0,0.5,0.1,1,0.4,1.3c0.3,0.3,0.6,0.4,1.2,0.4
		c1,0,1.6-0.6,1.6-1.8v-2.7h-0.8v-0.5h1.9V168.8z"/>
	<path class="st2" d="M162.7,174.6l0.4-1.8h0.6l-0.4,1.8H162.7z"/>
	<path class="st2" d="M169.9,169.7l-2.1,5.1h-0.6l2-5H167v0.9h-0.6v-1.5h3.5L169.9,169.7z"/>
	<path class="st2" d="M173.3,174.8h-0.6v-1.4h-2.6l-0.1-0.5l2-3.6h1.3v3.6h0.9l-0.1,0.5h-0.8V174.8z M172.7,172.9v-3h-0.4l-1.7,3
		H172.7z"/>
	<path class="st2" d="M178.5,172c0,0.5-0.1,0.9-0.4,1.3c-0.3,0.4-0.7,0.5-1.4,0.5c-0.7,0-1.2-0.3-1.5-0.8c-0.3-0.5-0.4-1.1-0.4-1.9
		c0-0.8,0.2-1.5,0.5-2.1c0.3-0.6,0.8-0.9,1.6-0.9c0.3,0,0.6,0.1,0.9,0.2c0.2,0.1,0.5,0.3,0.7,0.6l-0.4,0.4c-0.3-0.4-0.7-0.6-1.2-0.6
		c-0.5,0-0.9,0.2-1.1,0.6c-0.2,0.4-0.3,1-0.3,1.8c0,0,0,0,0,0.1c0,0.1,0,0.1,0,0.1c0.1-0.2,0.2-0.4,0.5-0.6c0.2-0.2,0.6-0.3,1-0.3
		c0.6,0,1,0.2,1.2,0.5C178.4,171.1,178.5,171.5,178.5,172z M177.9,172c0-0.4-0.1-0.7-0.2-0.9c-0.2-0.2-0.4-0.3-0.8-0.3
		c-0.5,0-0.8,0.1-1,0.4c-0.2,0.3-0.3,0.5-0.3,0.8c0.1,0.4,0.2,0.7,0.3,0.9c0.2,0.2,0.5,0.3,0.9,0.3c0.4,0,0.7-0.1,0.9-0.3
		C177.8,172.7,177.9,172.4,177.9,172z"/>
	<path class="st2" d="M183.3,171.5c0,0.7-0.2,1.2-0.5,1.7c-0.4,0.4-0.9,0.6-1.5,0.6c-0.7,0-1.2-0.2-1.5-0.6c-0.3-0.4-0.5-1-0.5-1.6
		c0-0.7,0.2-1.2,0.5-1.7c0.3-0.4,0.9-0.7,1.5-0.7c0.7,0,1.2,0.2,1.5,0.7C183.2,170.3,183.3,170.9,183.3,171.5z M182.7,171.5
		c0-0.5-0.1-0.9-0.3-1.3c-0.2-0.3-0.6-0.5-1-0.5c-0.5,0-0.8,0.2-1,0.5c-0.2,0.3-0.3,0.7-0.3,1.3c0,0.6,0.1,1,0.3,1.3
		c0.2,0.3,0.6,0.5,1,0.5C182.2,173.3,182.7,172.7,182.7,171.5z"/>
	<path class="st2" d="M190.5,173.3c-0.4,0.3-1,0.5-1.8,0.5c-0.8,0-1.4-0.3-1.9-0.8c-0.5-0.5-0.7-1.2-0.7-2c0-0.5,0.1-1,0.3-1.4
		c0.2-0.4,0.5-0.8,0.9-1c0.4-0.3,0.8-0.4,1.4-0.4c0.5,0,0.8,0.1,1.1,0.2s0.6,0.3,0.8,0.5l0.2,1.1l-0.5,0.1l-0.2-0.8
		c-0.2-0.1-0.4-0.2-0.6-0.3c-0.2-0.1-0.5-0.1-0.8-0.1c-0.6,0-1.1,0.2-1.5,0.6c-0.4,0.4-0.6,1-0.6,1.6c0,0.7,0.2,1.2,0.6,1.6
		c0.4,0.4,0.9,0.6,1.5,0.6c0.5,0,0.9-0.1,1.2-0.2l0.2-0.8l0.5,0.1L190.5,173.3z"/>
</g>
<g>
	<path class="st1" d="M490.6,151.5h-1.1l-1.2-2.3h-1.2v1.7h0.7v0.5h-2V151h0.7v-4.4h-0.7v-0.5h2.4c0.7,0,1.2,0.1,1.4,0.4
		c0.3,0.3,0.4,0.7,0.4,1.1c0,0.4-0.1,0.7-0.3,0.9c-0.2,0.3-0.5,0.5-0.9,0.6l1,1.9h0.7V151.5z M489.4,147.6c0-0.4-0.1-0.6-0.3-0.8
		c-0.2-0.2-0.5-0.2-1-0.2h-1v2.1h1c0.5,0,0.8-0.1,1-0.3C489.3,148.2,489.4,148,489.4,147.6z"/>
	<path class="st1" d="M496.1,149.2h-0.4v2.3h-0.5l-0.1-0.8c-0.2,0.2-0.4,0.4-0.7,0.6c-0.3,0.2-0.6,0.2-1.1,0.2
		c-0.7,0-1.4-0.3-1.8-0.8c-0.5-0.5-0.7-1.2-0.7-2c0-0.5,0.1-1,0.3-1.4c0.2-0.4,0.5-0.8,0.9-1c0.4-0.3,0.9-0.4,1.4-0.4
		c0.4,0,0.8,0.1,1.1,0.2c0.3,0.1,0.6,0.3,0.8,0.5l0.2,1l-0.5,0.1l-0.2-0.8c-0.2-0.1-0.3-0.2-0.5-0.3c-0.2-0.1-0.5-0.1-0.8-0.1
		c-0.6,0-1.1,0.2-1.5,0.6c-0.4,0.4-0.6,1-0.6,1.6c0,0.7,0.2,1.2,0.5,1.6c0.4,0.4,0.8,0.6,1.4,0.6c0.5,0,0.9-0.1,1.2-0.4
		c0.3-0.3,0.4-0.6,0.4-0.9v-0.5h-1.3v-0.5h2.3V149.2z"/>
	<path class="st1" d="M501.1,150c0,0.4-0.2,0.8-0.5,1.1c-0.3,0.3-0.8,0.4-1.4,0.4h-2.5V151h0.7v-4.4h-0.7v-0.5h2.5
		c0.6,0,1,0.1,1.2,0.4c0.3,0.2,0.4,0.6,0.4,0.9c0,0.3-0.1,0.5-0.3,0.8c-0.2,0.2-0.4,0.4-0.7,0.4v0c0.4,0.1,0.7,0.2,0.9,0.5
		S501.1,149.6,501.1,150z M500.2,147.5c0-0.3-0.1-0.6-0.3-0.7c-0.2-0.1-0.5-0.2-0.8-0.2H498v1.8h1.1c0.3,0,0.6-0.1,0.8-0.2
		C500.1,148,500.2,147.8,500.2,147.5z M500.4,149.9c0-0.3-0.1-0.5-0.3-0.7c-0.2-0.2-0.5-0.3-0.8-0.3H498v2h1.1
		c0.4,0,0.7-0.1,0.9-0.2C500.3,150.5,500.4,150.3,500.4,149.9z"/>
	<path class="st1" d="M502,148.7v-0.9h0.8v0.9H502z M502,151.5v-0.9h0.8v0.9H502z"/>
	<path class="st1" d="M505.8,147.4c0.2-0.1,0.4-0.2,0.7-0.3c0.3-0.1,0.5-0.1,0.8-0.1c0.5,0,0.9,0.1,1.2,0.4c0.2,0.3,0.3,0.6,0.3,0.9
		c0,0.4-0.1,0.7-0.4,1.1c-0.3,0.3-0.6,0.6-1,0.9c-0.4,0.3-0.7,0.5-1,0.7h2.2l0.1-0.7l0.5,0l-0.1,1.2h-3.4l-0.1-0.5
		c0.8-0.5,1.4-1,1.9-1.4c0.5-0.4,0.7-0.8,0.7-1.2c0-0.6-0.3-0.8-1-0.8c-0.1,0-0.3,0-0.4,0.1c-0.2,0-0.3,0.1-0.5,0.1l-0.1,0.6
		l-0.5-0.1L505.8,147.4z"/>
	<path class="st1" d="M512.9,152.6h-0.6v-1.4h-2.6l-0.1-0.5l2-3.6h1.3v3.6h0.9l-0.1,0.5h-0.8V152.6z M512.3,150.7v-3h-0.4l-1.7,3
		H512.3z"/>
	<path class="st1" d="M517.5,152.6h-0.6v-1.4h-2.6l-0.1-0.5l2-3.6h1.3v3.6h0.9l-0.1,0.5h-0.8V152.6z M516.9,150.7v-3h-0.4l-1.7,3
		H516.9z"/>
	<path class="st1" d="M523.5,151.5h-2.6V151h1v-3.3h-1v-0.5h1.6v3.8h1V151.5z"/>
	<path class="st1" d="M524.3,147.4c0.2-0.1,0.4-0.2,0.7-0.3c0.3-0.1,0.5-0.1,0.8-0.1c0.5,0,0.9,0.1,1.2,0.4c0.2,0.3,0.3,0.6,0.3,0.9
		c0,0.4-0.1,0.7-0.4,1.1c-0.3,0.3-0.6,0.6-1,0.9c-0.4,0.3-0.7,0.5-1,0.7h2.2l0.1-0.7l0.5,0l-0.1,1.2h-3.4l-0.1-0.5
		c0.8-0.5,1.4-1,1.9-1.4c0.5-0.4,0.7-0.8,0.7-1.2c0-0.6-0.3-0.8-1-0.8c-0.1,0-0.3,0-0.4,0.1s-0.3,0.1-0.5,0.1l-0.1,0.6l-0.5-0.1
		L524.3,147.4z"/>
	<path class="st1" d="M532.1,150.1c0,0.4-0.2,0.8-0.6,1.1c-0.4,0.3-0.8,0.4-1.4,0.4c-0.5,0-1-0.1-1.3-0.4c-0.3-0.2-0.5-0.6-0.5-1.1
		c0-0.4,0.1-0.7,0.4-0.9c0.3-0.2,0.6-0.4,0.9-0.5c-0.3-0.1-0.6-0.3-0.8-0.5s-0.3-0.5-0.3-0.8c0-0.4,0.2-0.7,0.5-1
		c0.3-0.3,0.7-0.4,1.2-0.4c0.5,0,0.9,0.1,1.2,0.4c0.3,0.2,0.5,0.6,0.5,1c0,0.4-0.1,0.6-0.4,0.8c-0.2,0.2-0.5,0.3-0.8,0.5
		c0.3,0.2,0.7,0.4,0.9,0.6C532,149.4,532.1,149.7,532.1,150.1z M531.5,150.2c0-0.3-0.1-0.6-0.4-0.7s-0.6-0.3-1-0.5
		c-0.3,0.1-0.6,0.3-0.8,0.4c-0.2,0.2-0.3,0.4-0.3,0.7c0,0.3,0.1,0.6,0.3,0.7c0.2,0.2,0.5,0.3,0.9,0.3c0.4,0,0.7-0.1,0.9-0.2
		C531.4,150.7,531.5,150.4,531.5,150.2z M531.3,147.4c0-0.3-0.1-0.5-0.3-0.7s-0.5-0.2-0.8-0.2c-0.3,0-0.6,0.1-0.8,0.2
		c-0.2,0.1-0.3,0.3-0.3,0.6c0,0.3,0.1,0.5,0.4,0.7c0.2,0.2,0.5,0.3,0.8,0.5c0.3-0.1,0.6-0.3,0.7-0.4
		C531.3,147.8,531.3,147.6,531.3,147.4z"/>
	<path class="st1" d="M538.4,149.8c0,0.5-0.1,0.9-0.4,1.3c-0.3,0.4-0.7,0.5-1.3,0.5c-0.7,0-1.2-0.3-1.5-0.8
		c-0.3-0.5-0.4-1.1-0.4-1.9c0-0.8,0.1-1.5,0.4-2.1c0.3-0.6,0.8-0.9,1.5-0.9c0.3,0,0.6,0.1,0.9,0.2c0.2,0.1,0.5,0.3,0.7,0.6l-0.4,0.4
		c-0.3-0.4-0.7-0.6-1.2-0.6c-0.5,0-0.9,0.2-1.1,0.6c-0.2,0.4-0.3,1-0.3,1.8c0,0,0,0,0,0.1c0,0,0,0.1,0,0.1c0.1-0.2,0.2-0.4,0.5-0.6
		c0.2-0.2,0.6-0.3,1-0.3c0.6,0,0.9,0.2,1.2,0.5S538.4,149.3,538.4,149.8z M537.8,149.8c0-0.4-0.1-0.7-0.2-0.9
		c-0.2-0.2-0.4-0.3-0.8-0.3c-0.5,0-0.8,0.1-1,0.4c-0.2,0.3-0.3,0.5-0.3,0.8c0.1,0.4,0.2,0.6,0.3,0.9c0.2,0.2,0.5,0.3,0.9,0.3
		c0.4,0,0.7-0.1,0.9-0.3C537.7,150.5,537.8,150.2,537.8,149.8z"/>
	<path class="st1" d="M541.9,151.5h-2.6V151h1v-3.3h-1v-0.5h1.6v3.8h1V151.5z"/>
	<path class="st1" d="M546.6,145.7l-1.8,5.8h-0.6l1.8-5.8H546.6z"/>
	<path class="st1" d="M554.7,151.5h-2V151h0.7v-2h-3v2h0.7v0.5h-2V151h0.7v-4.4h-0.7v-0.5h2v0.5h-0.7v1.9h3v-1.9h-0.7v-0.5h2v0.5
		H554v4.4h0.7V151.5z"/>
	<path class="st1" d="M559.5,151.5h-4.1V151h0.7v-4.4h-0.7v-0.5h4l0.2,1.5l-0.5,0.1l-0.2-1.1h-2.1v1.9h2.6v0.5h-2.6v2h2.2l0.2-1.1
		l0.5,0.1L559.5,151.5z"/>
	<path class="st1" d="M565.2,151.5h-1.9V151h0.7l-1.4-1.9l-1.3,1.9h0.6v0.5H560V151h0.6l1.7-2.3l-1.6-2.1h-0.5v-0.5h1.9v0.5h-0.6
		l1.3,1.7l1.2-1.7h-0.6v-0.5h1.8v0.5h-0.6l-1.6,2.1l1.8,2.3h0.5V151.5z"/>
	<path class="st1" d="M565.8,148.7v-0.9h0.8v0.9H565.8z M565.8,151.5v-0.9h0.8v0.9H565.8z"/>
	<path class="st1" d="M573.2,147.1l-0.2,1h0.7v0.5h-0.8l-0.3,1.4h0.8v0.5h-0.9l-0.2,1h-0.5l0.2-1h-1.5l-0.2,1h-0.5l0.2-1h-0.6V150
		h0.7l0.3-1.4h-0.7v-0.5h0.8l0.2-1h0.5l-0.2,1h1.5l0.2-1H573.2z M570.6,150h1.5l0.3-1.4h-1.5L570.6,150z"/>
	<path class="st1" d="M576.2,145.6c0.2,0,0.3,0,0.5,0.1c0.1,0,0.3,0.1,0.4,0.2l0.1,0.9l-0.5,0.1l-0.2-0.6c-0.1,0-0.3-0.1-0.4-0.1
		c-0.4,0-0.7,0.3-0.7,0.9v0.7h1v0.5h-1v2.8h0.8v0.5h-2.1V151h0.6v-2.8h-0.5v-0.5h0.5v-0.7c0-0.4,0.1-0.8,0.4-1
		C575.5,145.8,575.8,145.6,576.2,145.6z"/>
	<path class="st1" d="M580.1,152.6h-0.6v-1.4h-2.6l-0.1-0.5l2-3.6h1.3v3.6h0.9l-0.1,0.5h-0.8V152.6z M579.5,150.7v-3h-0.4l-1.7,3
		H579.5z"/>
	<path class="st1" d="M585.3,150.1c0,0.4-0.2,0.8-0.6,1.1c-0.4,0.3-0.8,0.4-1.4,0.4c-0.5,0-1-0.1-1.3-0.4c-0.3-0.2-0.5-0.6-0.5-1.1
		c0-0.4,0.1-0.7,0.4-0.9c0.3-0.2,0.6-0.4,0.9-0.5c-0.3-0.1-0.6-0.3-0.8-0.5s-0.3-0.5-0.3-0.8c0-0.4,0.2-0.7,0.5-1
		c0.3-0.3,0.7-0.4,1.2-0.4c0.5,0,0.9,0.1,1.2,0.4c0.3,0.2,0.5,0.6,0.5,1c0,0.4-0.1,0.6-0.4,0.8c-0.2,0.2-0.5,0.3-0.8,0.5
		c0.3,0.2,0.7,0.4,0.9,0.6C585.2,149.4,585.3,149.7,585.3,150.1z M584.7,150.2c0-0.3-0.1-0.6-0.4-0.7s-0.6-0.3-1-0.5
		c-0.3,0.1-0.6,0.3-0.8,0.4c-0.2,0.2-0.3,0.4-0.3,0.7c0,0.3,0.1,0.6,0.3,0.7c0.2,0.2,0.5,0.3,0.9,0.3c0.4,0,0.7-0.1,0.9-0.2
		C584.6,150.7,584.7,150.4,584.7,150.2z M584.5,147.4c0-0.3-0.1-0.5-0.3-0.7c-0.2-0.1-0.5-0.2-0.8-0.2c-0.3,0-0.6,0.1-0.8,0.2
		c-0.2,0.1-0.3,0.3-0.3,0.6c0,0.3,0.1,0.5,0.4,0.7c0.2,0.2,0.5,0.3,0.8,0.5c0.3-0.1,0.6-0.3,0.7-0.4
		C584.4,147.8,584.5,147.6,584.5,147.4z"/>
	<path class="st1" d="M590.1,149.3c0,0.7-0.2,1.2-0.5,1.6s-0.9,0.6-1.5,0.6c-0.7,0-1.2-0.2-1.5-0.6s-0.5-0.9-0.5-1.6
		c0-0.7,0.2-1.2,0.5-1.6c0.3-0.4,0.9-0.7,1.5-0.7c0.7,0,1.2,0.2,1.5,0.7C590,148.1,590.1,148.7,590.1,149.3z M589.5,149.3
		c0-0.5-0.1-0.9-0.3-1.2c-0.2-0.3-0.6-0.5-1-0.5c-0.5,0-0.8,0.1-1,0.4c-0.2,0.3-0.3,0.7-0.3,1.3s0.1,1,0.3,1.3
		c0.2,0.3,0.6,0.5,1,0.5C589,151,589.5,150.5,589.5,149.3z"/>
	<path class="st1" d="M591.1,147.5c0.2-0.1,0.4-0.2,0.6-0.3c0.3-0.1,0.5-0.1,0.8-0.1c0.4,0,0.8,0.1,1.1,0.3c0.3,0.2,0.4,0.6,0.4,1
		c0,0.3-0.1,0.5-0.2,0.8c-0.2,0.2-0.4,0.4-0.8,0.5v0c0.5,0.1,0.8,0.3,1,0.5c0.2,0.3,0.3,0.5,0.3,0.9c0,0.5-0.2,0.9-0.5,1.2
		c-0.3,0.3-0.7,0.4-1.3,0.4c-0.5,0-0.9-0.1-1.2-0.3c-0.3-0.2-0.4-0.5-0.5-0.8l0.5-0.2c0.1,0.2,0.2,0.4,0.4,0.6
		c0.2,0.2,0.4,0.2,0.8,0.2c0.4,0,0.7-0.1,0.9-0.3c0.2-0.2,0.2-0.5,0.2-0.8c0-0.3-0.1-0.6-0.4-0.8s-0.6-0.3-1.2-0.3v-0.5
		c0.5,0,0.9-0.1,1.1-0.4c0.2-0.2,0.3-0.5,0.3-0.7c0-0.3-0.1-0.5-0.3-0.6c-0.2-0.2-0.4-0.2-0.7-0.2c-0.3,0-0.5,0.1-0.8,0.2l-0.2,0.7
		l-0.5-0.1L591.1,147.5z"/>
	<path class="st1" d="M599.1,151.5h-1.2v-0.8c-0.1,0.2-0.3,0.4-0.5,0.6c-0.2,0.2-0.5,0.3-0.8,0.3c-0.5,0-0.9-0.2-1.2-0.5
		c-0.3-0.3-0.4-0.8-0.4-1.4c0-0.5,0.1-1,0.4-1.4c0.3-0.4,0.7-0.6,1.3-0.6c0.6,0,1,0.2,1.2,0.7v-2.2H597v-0.5h1.5v5.3h0.6V151.5z
		 M597.9,149.8v-0.6c0-0.3-0.1-0.6-0.3-0.8c-0.2-0.2-0.5-0.3-0.8-0.3c-0.4,0-0.7,0.2-0.9,0.5c-0.2,0.3-0.3,0.6-0.3,1
		c0,0.5,0.1,0.8,0.3,1c0.2,0.2,0.5,0.4,0.8,0.4c0.3,0,0.6-0.1,0.8-0.4C597.7,150.4,597.9,150.1,597.9,149.8z"/>
	<path class="st1" d="M603.8,145.7l-1.8,5.8h-0.6l1.8-5.8H603.8z"/>
	<path class="st1" d="M490.3,162.1c-0.4,0.3-1,0.5-1.8,0.5c-0.8,0-1.4-0.3-1.9-0.8c-0.5-0.5-0.7-1.2-0.7-2c0-0.5,0.1-1,0.3-1.4
		c0.2-0.4,0.5-0.8,0.9-1c0.4-0.3,0.8-0.4,1.4-0.4c0.5,0,0.8,0.1,1.1,0.2c0.3,0.1,0.6,0.3,0.8,0.5l0.2,1l-0.5,0.1l-0.2-0.8
		c-0.2-0.1-0.4-0.2-0.6-0.3c-0.2-0.1-0.5-0.1-0.8-0.1c-0.6,0-1.1,0.2-1.4,0.6c-0.4,0.4-0.5,1-0.5,1.6c0,0.7,0.2,1.2,0.6,1.6
		c0.4,0.4,0.9,0.6,1.5,0.6c0.5,0,0.9-0.1,1.2-0.2l0.2-0.8l0.5,0.1L490.3,162.1z"/>
	<path class="st1" d="M497.9,157.6h-0.7v4.4h0.7v0.5H496V162h0.6v-3.5h0l-1.8,3.7h-0.3l-1.9-3.8h0v3.5h0.7v0.5h-1.9V162h0.7v-4.4
		h-0.7V157h1.2l2.1,4.3h0l2.1-4.3h1.3V157.6z"/>
	<path class="st1" d="M503.4,157.6h-0.5l-1.7,2.8v1.5h1v0.5h-2.5V162h0.9v-1.6l-1.8-2.8h-0.5V157h2v0.5h-0.7l1.4,2.3h0l1.3-2.3h-0.8
		V157h1.9V157.6z"/>
	<path class="st1" d="M508.7,162.5h-2V162h0.6l-1.4-2h-0.9v2h0.6v0.5h-1.9V162h0.7v-4.4h-0.7V157h1.9v0.5h-0.6v1.9h0.9l1.4-1.9h-0.6
		V157h1.9v0.5H508l-1.6,2.1l1.7,2.3h0.6V162.5z"/>
	<path class="st1" d="M509.3,159.7v-0.9h0.8v0.9H509.3z M509.3,162.5v-0.9h0.8v0.9H509.3z"/>
	<path class="st1" d="M517,160.3c0,0.7-0.2,1.2-0.5,1.6c-0.4,0.4-0.9,0.6-1.5,0.6c-0.7,0-1.2-0.2-1.5-0.6c-0.3-0.4-0.5-0.9-0.5-1.6
		c0-0.7,0.2-1.2,0.5-1.6c0.3-0.4,0.9-0.7,1.5-0.7c0.7,0,1.2,0.2,1.5,0.7C516.8,159.1,517,159.7,517,160.3z M516.3,160.3
		c0-0.5-0.1-0.9-0.3-1.2c-0.2-0.3-0.6-0.5-1-0.5c-0.5,0-0.8,0.1-1,0.4c-0.2,0.3-0.3,0.7-0.3,1.3c0,0.5,0.1,1,0.3,1.3
		c0.2,0.3,0.6,0.5,1,0.5C515.9,162,516.3,161.4,516.3,160.3z"/>
	<path class="st1" d="M518.9,160.4c-0.3,0-0.6-0.1-0.8-0.3c-0.2-0.2-0.3-0.5-0.3-0.9c0-0.4,0.1-0.7,0.3-0.9c0.2-0.2,0.5-0.3,0.9-0.3
		c0.3,0,0.6,0.1,0.8,0.3s0.3,0.5,0.3,0.9c0,0.4-0.1,0.7-0.3,0.9C519.6,160.3,519.2,160.4,518.9,160.4z M518.9,160
		c0.5,0,0.7-0.3,0.7-0.8c0-0.5-0.2-0.8-0.7-0.8c-0.5,0-0.7,0.3-0.7,0.8C518.2,159.8,518.4,160,518.9,160z M522.3,158.1l-1.7,2.1
		l-1.7,2.2h-0.6l1.9-2.4l1.5-2H522.3z M521.6,162.6c-0.3,0-0.6-0.1-0.8-0.3c-0.2-0.2-0.3-0.5-0.3-0.9c0-0.4,0.1-0.7,0.3-0.9
		c0.2-0.2,0.5-0.3,0.9-0.3c0.3,0,0.6,0.1,0.8,0.3c0.2,0.2,0.3,0.5,0.3,0.9c0,0.4-0.1,0.7-0.3,0.9C522.3,162.5,522,162.6,521.6,162.6
		z M521.6,162.2c0.5,0,0.7-0.3,0.7-0.8c0-0.5-0.2-0.8-0.7-0.8c-0.5,0-0.7,0.3-0.7,0.8C521,161.9,521.2,162.2,521.6,162.2z"/>
	<path class="st1" d="M529.1,160.8c0,0.5-0.1,0.9-0.4,1.3c-0.3,0.4-0.7,0.5-1.3,0.5c-0.7,0-1.2-0.3-1.5-0.8
		c-0.3-0.5-0.4-1.1-0.4-1.9c0-0.8,0.1-1.5,0.4-2.1c0.3-0.6,0.8-0.9,1.5-0.9c0.3,0,0.6,0.1,0.9,0.2c0.2,0.1,0.5,0.3,0.7,0.6l-0.4,0.4
		c-0.3-0.4-0.7-0.6-1.2-0.6c-0.5,0-0.9,0.2-1.1,0.6c-0.2,0.4-0.3,1-0.3,1.8c0,0,0,0,0,0.1c0,0,0,0.1,0,0.1c0.1-0.2,0.2-0.4,0.5-0.6
		c0.2-0.2,0.6-0.3,1-0.3c0.6,0,0.9,0.2,1.2,0.5S529.1,160.3,529.1,160.8z M528.5,160.8c0-0.4-0.1-0.7-0.2-0.9
		c-0.2-0.2-0.4-0.3-0.8-0.3c-0.5,0-0.8,0.1-1,0.4c-0.2,0.3-0.3,0.5-0.3,0.8c0.1,0.4,0.2,0.6,0.3,0.9c0.2,0.2,0.5,0.3,0.9,0.3
		c0.4,0,0.7-0.1,0.9-0.3C528.4,161.5,528.5,161.2,528.5,160.8z"/>
	<path class="st1" d="M532.6,162.5h-2.6V162h1v-3.3h-1v-0.5h1.6v3.8h1V162.5z"/>
	<path class="st1" d="M534.2,160.4c-0.3,0-0.6-0.1-0.8-0.3c-0.2-0.2-0.3-0.5-0.3-0.9c0-0.4,0.1-0.7,0.3-0.9c0.2-0.2,0.5-0.3,0.9-0.3
		c0.3,0,0.6,0.1,0.8,0.3s0.3,0.5,0.3,0.9c0,0.4-0.1,0.7-0.3,0.9C534.9,160.3,534.6,160.4,534.2,160.4z M534.2,160
		c0.5,0,0.7-0.3,0.7-0.8c0-0.5-0.2-0.8-0.7-0.8c-0.5,0-0.7,0.3-0.7,0.8C533.5,159.8,533.7,160,534.2,160z M537.6,158.1l-1.7,2.1
		l-1.7,2.2h-0.6l1.9-2.4l1.5-2H537.6z M537,162.6c-0.3,0-0.6-0.1-0.8-0.3c-0.2-0.2-0.3-0.5-0.3-0.9c0-0.4,0.1-0.7,0.3-0.9
		c0.2-0.2,0.5-0.3,0.9-0.3c0.3,0,0.6,0.1,0.8,0.3c0.2,0.2,0.3,0.5,0.3,0.9c0,0.4-0.1,0.7-0.3,0.9C537.7,162.5,537.3,162.6,537,162.6
		z M537,162.2c0.5,0,0.7-0.3,0.7-0.8c0-0.5-0.2-0.8-0.7-0.8c-0.5,0-0.7,0.3-0.7,0.8C536.3,161.9,536.5,162.2,537,162.2z"/>
	<path class="st1" d="M544.2,158.5l-2.1,5.1h-0.6l2-4.9h-2.3v0.9h-0.6v-1.5h3.4L544.2,158.5z"/>
	<path class="st1" d="M544.7,159.8c0-0.5,0.1-0.9,0.4-1.3c0.3-0.4,0.7-0.5,1.3-0.5c0.7,0,1.2,0.3,1.5,0.8c0.3,0.5,0.4,1.1,0.4,1.9
		c0,0.8-0.1,1.5-0.4,2.1c-0.3,0.6-0.8,0.9-1.5,0.9c-0.3,0-0.6-0.1-0.9-0.2c-0.2-0.1-0.5-0.3-0.7-0.6l0.4-0.4
		c0.3,0.4,0.7,0.6,1.2,0.6c0.5,0,0.9-0.2,1.1-0.6c0.2-0.4,0.3-1,0.3-1.8c0,0,0,0,0-0.1c0-0.1,0-0.1,0-0.1c-0.1,0.2-0.2,0.4-0.5,0.6
		c-0.2,0.2-0.6,0.3-1,0.3c-0.6,0-0.9-0.2-1.2-0.5C544.8,160.7,544.7,160.3,544.7,159.8z M545.3,159.8c0,0.4,0.1,0.7,0.3,0.9
		c0.2,0.2,0.4,0.3,0.8,0.3c0.5,0,0.8-0.1,1-0.4s0.3-0.5,0.3-0.8c-0.1-0.4-0.2-0.6-0.3-0.9c-0.2-0.2-0.5-0.3-0.9-0.3
		c-0.4,0-0.7,0.1-0.9,0.3C545.4,159.1,545.3,159.4,545.3,159.8z"/>
	<path class="st1" d="M550.2,160.4c-0.3,0-0.6-0.1-0.8-0.3c-0.2-0.2-0.3-0.5-0.3-0.9c0-0.4,0.1-0.7,0.3-0.9c0.2-0.2,0.5-0.3,0.9-0.3
		c0.3,0,0.6,0.1,0.8,0.3c0.2,0.2,0.3,0.5,0.3,0.9c0,0.4-0.1,0.7-0.3,0.9C550.9,160.3,550.6,160.4,550.2,160.4z M550.2,160
		c0.5,0,0.7-0.3,0.7-0.8c0-0.5-0.2-0.8-0.7-0.8c-0.5,0-0.7,0.3-0.7,0.8C549.6,159.8,549.8,160,550.2,160z M553.6,158.1l-1.7,2.1
		l-1.7,2.2h-0.6l1.9-2.4l1.5-2H553.6z M553,162.6c-0.3,0-0.6-0.1-0.8-0.3c-0.2-0.2-0.3-0.5-0.3-0.9c0-0.4,0.1-0.7,0.3-0.9
		c0.2-0.2,0.5-0.3,0.9-0.3c0.3,0,0.6,0.1,0.8,0.3c0.2,0.2,0.3,0.5,0.3,0.9c0,0.4-0.1,0.7-0.3,0.9C553.7,162.5,553.4,162.6,553,162.6
		z M553,162.2c0.5,0,0.7-0.3,0.7-0.8c0-0.5-0.2-0.8-0.7-0.8c-0.5,0-0.7,0.3-0.7,0.8C552.3,161.9,552.6,162.2,553,162.2z"/>
	<path class="st1" d="M560.9,160.3c0,0.7-0.2,1.2-0.5,1.6c-0.4,0.4-0.9,0.6-1.5,0.6c-0.7,0-1.2-0.2-1.5-0.6s-0.5-0.9-0.5-1.6
		c0-0.7,0.2-1.2,0.5-1.6c0.3-0.4,0.9-0.7,1.5-0.7c0.7,0,1.2,0.2,1.5,0.7C560.7,159.1,560.9,159.7,560.9,160.3z M560.2,160.3
		c0-0.5-0.1-0.9-0.3-1.2c-0.2-0.3-0.6-0.5-1-0.5c-0.5,0-0.8,0.1-1,0.4c-0.2,0.3-0.3,0.7-0.3,1.3c0,0.5,0.1,1,0.3,1.3
		c0.2,0.3,0.6,0.5,1,0.5C559.8,162,560.2,161.4,560.2,160.3z"/>
	<path class="st1" d="M562.7,160.4c-0.3,0-0.6-0.1-0.8-0.3c-0.2-0.2-0.3-0.5-0.3-0.9c0-0.4,0.1-0.7,0.3-0.9c0.2-0.2,0.5-0.3,0.9-0.3
		c0.3,0,0.6,0.1,0.8,0.3s0.3,0.5,0.3,0.9c0,0.4-0.1,0.7-0.3,0.9C563.4,160.3,563.1,160.4,562.7,160.4z M562.7,160
		c0.5,0,0.7-0.3,0.7-0.8c0-0.5-0.2-0.8-0.7-0.8c-0.5,0-0.7,0.3-0.7,0.8C562.1,159.8,562.3,160,562.7,160z M566.1,158.1l-1.7,2.1
		l-1.7,2.2h-0.6l1.9-2.4l1.5-2H566.1z M565.5,162.6c-0.3,0-0.6-0.1-0.8-0.3c-0.2-0.2-0.3-0.5-0.3-0.9c0-0.4,0.1-0.7,0.3-0.9
		c0.2-0.2,0.5-0.3,0.9-0.3c0.3,0,0.6,0.1,0.8,0.3c0.2,0.2,0.3,0.5,0.3,0.9c0,0.4-0.1,0.7-0.3,0.9
		C566.2,162.5,565.9,162.6,565.5,162.6z M565.5,162.2c0.5,0,0.7-0.3,0.7-0.8c0-0.5-0.2-0.8-0.7-0.8c-0.5,0-0.7,0.3-0.7,0.8
		C564.8,161.9,565.1,162.2,565.5,162.2z"/>
	<path class="st1" d="M571.6,156.7l-1.8,5.8h-0.6l1.8-5.8H571.6z"/>
	<path class="st1" d="M490,169.7c0,0.6-0.2,1-0.5,1.3c-0.3,0.3-0.8,0.4-1.3,0.4h-1.1v1.5h0.9v0.5h-2.2v-0.5h0.7v-4.4h-0.7V168h2.3
		c0.7,0,1.2,0.2,1.5,0.5C489.9,168.9,490,169.2,490,169.7z M489.4,169.7c0-0.4-0.1-0.6-0.3-0.8c-0.2-0.2-0.5-0.3-1-0.3h-1v2.3h1
		C488.9,170.9,489.4,170.5,489.4,169.7z"/>
	<path class="st1" d="M495.3,173.5h-1.9v-0.5h0.7l-0.4-1h-2.3l-0.4,1h0.8v0.5h-1.9v-0.5h0.5l1.8-4.4h-0.9V168h1.6l2,4.9h0.6V173.5z
		 M493.6,171.4l-0.9-2.5h-0.1l-1,2.5H493.6z"/>
	<path class="st1" d="M501.2,168.6h-0.7v4.9h-0.4l-3.2-4.3h0v3.8h0.9v0.5h-2.1v-0.5h0.6v-4.4h-0.7V168h1.2l3.1,4.2h0v-3.7h-0.8V168
		h2.1V168.6z"/>
	<path class="st1" d="M506.5,169.7l-0.5,0l-0.2-1.2h-1.4v4.4h1v0.5h-2.5v-0.5h0.9v-4.4h-1.4l-0.2,1.2l-0.5,0l0.2-1.7h4.5
		L506.5,169.7z"/>
	<path class="st1" d="M512.4,170.8c0,0.5-0.1,1-0.3,1.4c-0.2,0.4-0.6,0.8-1,1c-0.4,0.3-0.9,0.4-1.4,0.4c-0.8,0-1.5-0.3-2-0.8
		c-0.5-0.6-0.7-1.2-0.7-2c0-0.8,0.3-1.4,0.8-2c0.5-0.5,1.2-0.8,2-0.8c0.8,0,1.5,0.3,2,0.8C512.2,169.3,512.4,170,512.4,170.8z
		 M511.7,170.8c0-0.7-0.2-1.2-0.6-1.6c-0.4-0.4-0.9-0.6-1.5-0.6c-0.6,0-1.2,0.2-1.5,0.7c-0.4,0.4-0.5,1-0.5,1.6
		c0,0.6,0.2,1.1,0.5,1.6c0.4,0.4,0.9,0.7,1.5,0.7c0.6,0,1.1-0.2,1.5-0.6C511.6,171.9,511.7,171.4,511.7,170.8z"/>
	<path class="st1" d="M518.5,168.6h-0.7v4.9h-0.4l-3.2-4.3h0v3.8h0.9v0.5H513v-0.5h0.6v-4.4h-0.7V168h1.2l3.1,4.2h0v-3.7h-0.8V168
		h2.1V168.6z"/>
	<path class="st1" d="M523.2,173.5h-4.1v-0.5h0.7v-4.4h-0.7V168h4l0.2,1.5l-0.5,0.1l-0.2-1.1h-2.1v1.9h2.6v0.5h-2.6v2h2.2l0.2-1.1
		l0.5,0.1L523.2,173.5z"/>
	<path class="st1" d="M524.3,170.7v-0.9h0.8v0.9H524.3z M524.3,173.5v-0.9h0.8v0.9H524.3z"/>
	<path class="st1" d="M530.6,173.5h-2.6v-0.5h1v-3.3h-1v-0.5h1.6v3.8h1V173.5z"/>
	<path class="st1" d="M534.7,172.9c0,0.5-0.2,1-0.5,1.3c-0.3,0.3-0.8,0.4-1.3,0.4c-0.5,0-0.9-0.1-1.2-0.3c-0.3-0.2-0.4-0.5-0.5-0.8
		l0.5-0.2c0.1,0.2,0.2,0.4,0.4,0.6c0.2,0.2,0.4,0.2,0.7,0.2c0.4,0,0.7-0.1,0.9-0.3c0.2-0.2,0.3-0.5,0.3-0.9c0-0.5-0.2-0.9-0.5-1
		s-0.7-0.2-1.2-0.2c-0.2,0-0.5,0-0.7,0l-0.2-0.2v-2.5h3l0.1,1.2l-0.5,0l-0.1-0.7H532v1.6c0.1,0,0.1,0,0.2,0c0.1,0,0.1,0,0.2,0
		c0.4,0,0.8,0,1.1,0.1c0.3,0.1,0.6,0.3,0.9,0.5C534.6,172.1,534.7,172.5,534.7,172.9z"/>
	<path class="st1" d="M539.5,171.3c0,0.7-0.2,1.2-0.5,1.6c-0.4,0.4-0.9,0.6-1.5,0.6c-0.7,0-1.2-0.2-1.5-0.6
		c-0.3-0.4-0.5-0.9-0.5-1.6c0-0.7,0.2-1.2,0.5-1.6c0.3-0.4,0.9-0.7,1.5-0.7c0.7,0,1.2,0.2,1.5,0.7
		C539.3,170.1,539.5,170.7,539.5,171.3z M538.8,171.3c0-0.5-0.1-0.9-0.3-1.2c-0.2-0.3-0.6-0.5-1-0.5c-0.5,0-0.8,0.1-1,0.4
		c-0.2,0.3-0.3,0.7-0.3,1.3s0.1,1,0.3,1.3c0.2,0.3,0.6,0.5,1,0.5C538.4,173,538.8,172.4,538.8,171.3z"/>
	<path class="st1" d="M543.8,172.9c0,0.5-0.2,1-0.5,1.3c-0.3,0.3-0.8,0.4-1.3,0.4c-0.5,0-0.9-0.1-1.2-0.3c-0.3-0.2-0.4-0.5-0.5-0.8
		l0.5-0.2c0.1,0.2,0.2,0.4,0.4,0.6c0.2,0.2,0.4,0.2,0.7,0.2c0.4,0,0.7-0.1,0.9-0.3c0.2-0.2,0.3-0.5,0.3-0.9c0-0.5-0.2-0.9-0.5-1
		s-0.7-0.2-1.2-0.2c-0.2,0-0.5,0-0.7,0l-0.2-0.2v-2.5h3l0.1,1.2l-0.5,0l-0.1-0.7h-1.9v1.6c0.1,0,0.1,0,0.2,0s0.1,0,0.2,0
		c0.4,0,0.8,0,1.1,0.1c0.3,0.1,0.6,0.3,0.9,0.5C543.7,172.1,543.8,172.5,543.8,172.9z"/>
	<path class="st1" d="M551.7,168.6h-0.5v2.7c0,0.4-0.1,0.8-0.2,1.1c-0.1,0.4-0.4,0.6-0.7,0.9c-0.3,0.2-0.8,0.3-1.3,0.3
		c-0.8,0-1.4-0.2-1.7-0.7c-0.3-0.5-0.5-1-0.5-1.6v-2.8h-0.6V168h1.9v0.5h-0.8v2.7c0,0.5,0.1,1,0.4,1.2c0.3,0.3,0.6,0.4,1.2,0.4
		c1,0,1.6-0.6,1.6-1.8v-2.7h-0.8V168h1.9V168.6z"/>
	<path class="st1" d="M552,174.3l0.4-1.8h0.6l-0.4,1.8H552z"/>
	<path class="st1" d="M558.4,173.5h-2.6v-0.5h1v-3.3h-1v-0.5h1.6v3.8h1V173.5z"/>
	<path class="st1" d="M562.5,172.9c0,0.5-0.2,1-0.5,1.3c-0.3,0.3-0.8,0.4-1.3,0.4c-0.5,0-0.9-0.1-1.2-0.3c-0.3-0.2-0.4-0.5-0.5-0.8
		l0.5-0.2c0.1,0.2,0.2,0.4,0.4,0.6c0.2,0.2,0.4,0.2,0.7,0.2c0.4,0,0.7-0.1,0.9-0.3c0.2-0.2,0.3-0.5,0.3-0.9c0-0.5-0.2-0.9-0.5-1
		s-0.7-0.2-1.2-0.2c-0.2,0-0.5,0-0.7,0l-0.2-0.2v-2.5h3l0.1,1.2l-0.5,0l-0.1-0.7h-1.9v1.6c0.1,0,0.1,0,0.2,0s0.1,0,0.2,0
		c0.4,0,0.8,0,1.1,0.1c0.3,0.1,0.6,0.3,0.9,0.5C562.4,172.1,562.5,172.5,562.5,172.9z"/>
	<path class="st1" d="M565.9,173.5h-2.6v-0.5h1v-3.3h-1v-0.5h1.6v3.8h1V173.5z"/>
	<path class="st1" d="M572.8,173.1c-0.4,0.3-1,0.5-1.8,0.5c-0.8,0-1.4-0.3-1.9-0.8c-0.5-0.5-0.7-1.2-0.7-2c0-0.5,0.1-1,0.3-1.4
		c0.2-0.4,0.5-0.8,0.9-1c0.4-0.3,0.8-0.4,1.4-0.4c0.5,0,0.8,0.1,1.1,0.2c0.3,0.1,0.6,0.3,0.8,0.5l0.2,1l-0.5,0.1l-0.2-0.8
		c-0.2-0.1-0.4-0.2-0.6-0.3c-0.2-0.1-0.5-0.1-0.8-0.1c-0.6,0-1.1,0.2-1.4,0.6c-0.4,0.4-0.5,1-0.5,1.6c0,0.7,0.2,1.2,0.6,1.6
		c0.4,0.4,0.9,0.6,1.5,0.6c0.5,0,0.9-0.1,1.2-0.2l0.2-0.8l0.5,0.1L572.8,173.1z"/>
</g>
</svg>
