<?xml version="1.0" encoding="utf-8"?>
<!-- Generator: Adobe Illustrator 22.1.0, SVG Export Plug-In . SVG Version: 6.00 Build 0)  -->
<svg version="1.1" id="Layer_1" xmlns="http://www.w3.org/2000/svg" xmlns:xlink="http://www.w3.org/1999/xlink" x="0px" y="0px"
	 viewBox="0 0 480 270" style="enable-background:new 0 0 480 270;" xml:space="preserve">
<style type="text/css">
	.st0{fill:#5CCAE8;}
	.st1{fill:#41B3CE;}
</style>
<title>Asset 1</title>
<g id="Layer_2_1_">
	<g id="Layer_1-2">
		<polygon class="st0" points="48,130.2 124.8,27 373.7,67.8 432,213.4 149,243 		"/>
	</g>
</g>
<polygon class="st1" points="420.9,207.6 270.9,191.4 320.3,89.4 420.9,65 "/>
<g>
	<path d="M156.5,136.9c-1.1-1.1-2.1-1.7-3.7-1.7c-2.8,0-4.4,2.6-4.4,5.2c0,2.7,1.7,5,4.6,5c1.4,0,2.6-0.7,3.5-1.7v4.8
		c-1.4,0.7-2.8,1.1-4.3,1.1c-5.2,0-8.8-4.2-8.8-9.2c0-5.2,3.8-9.4,9.1-9.4c1.4,0,2.8,0.4,4.1,1.1V136.9z"/>
	<path d="M176.8,140.4c0,5.4-3.7,9.3-9.2,9.3s-9.2-3.9-9.2-9.3c0-5.4,3.7-9.3,9.2-9.3C173,131,176.8,134.9,176.8,140.4z
		 M163.5,140.4c0,2.3,1.6,4.9,4.1,4.9c2.6,0,4.1-2.5,4.1-4.9c0-2.4-1.6-4.9-4.1-4.9C165,135.4,163.5,137.9,163.5,140.4z"/>
	<path d="M184.1,133.2L184.1,133.2c1-1.4,2.7-2.1,4.3-2.1c2.2,0,3.9,0.9,5,2.7c1.1-1.7,3.1-2.7,5.1-2.7c4.4,0,5.5,3.3,5.5,7.1v10.9
		h-5v-9.2c0-1.7,0.1-4.9-2.3-4.9c-2.7,0-2.7,3.7-2.7,5.5v8.6h-5v-8.9c0-1.7,0.2-5.2-2.4-5.2c-2.8,0-2.6,3.6-2.6,5.5v8.6h-5v-17.5h5
		V133.2z"/>
	<path d="M213.3,124.3c0,1.6-1.3,3-3,3c-1.6,0-3-1.3-3-3c0-1.6,1.3-3,3-3C212,121.3,213.3,122.7,213.3,124.3z M212.9,149.1h-5v-17.5
		h5V149.1z"/>
	<path d="M221.6,133.2L221.6,133.2c1.1-1.6,2.8-2.2,4.6-2.2c4.7,0,6,3.3,6,7.4v10.7h-5v-9.2c0-2.1,0.1-4.8-2.7-4.8c-3,0-3,3.3-3,5.4
		v8.6h-5v-17.5h5V133.2z"/>
	<path d="M252.3,148c0,5.7-1.9,10.4-8.5,10.4c-4.3,0-8.6-2.6-8.8-7.3h5.3c0.2,1.9,1.6,3.1,3.4,3.1c3.5,0,3.6-3.1,3.6-5.7v-1.1h-0.1
		c-1.1,1.4-2.9,2.3-4.8,2.3c-5.1,0-7.9-4.5-7.9-9.2c0-4.8,2.9-9.4,8.1-9.4c1.7,0,3.5,0.9,4.5,2.2h0.1v-1.7h5V148z M247.9,140.4
		c0-2.3-1.6-4.9-4.1-4.9c-2.6,0-4.1,2.6-4.1,4.9c0,2.3,1.6,4.9,4.1,4.9C246.3,145.2,247.9,142.7,247.9,140.4z"/>
	<path d="M275.1,135.7c-0.7-0.7-1.6-1.2-2.6-1.2c-0.8,0-1.6,0.6-1.6,1.5c0,1.3,1.8,1.6,3.6,2.4c1.8,0.8,3.6,2,3.6,5
		c0,3.9-3.1,6.2-6.8,6.2c-2.3,0-4.6-1.1-6.2-2.9l2.3-3c1,1.1,2.2,2,3.7,2c1.1,0,2-0.7,2-1.9c0-1.5-1.7-1.9-3.5-2.6
		c-1.7-0.7-3.5-1.8-3.5-4.6c0-3.3,2.3-5.7,5.5-5.7c1.9,0,4.2,0.6,5.6,1.8L275.1,135.7z"/>
	<path d="M297.9,140.4c0,5.4-3.7,9.3-9.2,9.3c-5.5,0-9.2-3.9-9.2-9.3c0-5.4,3.7-9.3,9.2-9.3C294.1,131,297.9,134.9,297.9,140.4z
		 M284.6,140.4c0,2.3,1.6,4.9,4.1,4.9c2.6,0,4.1-2.5,4.1-4.9c0-2.4-1.6-4.9-4.1-4.9C286.1,135.4,284.6,137.9,284.6,140.4z"/>
	<path d="M317.4,140.4c0,5.4-3.7,9.3-9.2,9.3c-5.5,0-9.2-3.9-9.2-9.3c0-5.4,3.7-9.3,9.2-9.3C313.6,131,317.4,134.9,317.4,140.4z
		 M304,140.4c0,2.3,1.6,4.9,4.1,4.9c2.6,0,4.1-2.5,4.1-4.9c0-2.4-1.6-4.9-4.1-4.9C305.6,135.4,304,137.9,304,140.4z"/>
	<path d="M324.7,133.2L324.7,133.2c1.1-1.6,2.8-2.2,4.6-2.2c4.7,0,6,3.3,6,7.4v10.7h-5v-9.2c0-2.1,0.1-4.8-2.7-4.8c-3,0-3,3.3-3,5.4
		v8.6h-5v-17.5h5V133.2z"/>
</g>
</svg>
