<?xml version="1.0" encoding="utf-8"?>
<!-- Generator: Adobe Illustrator 23.0.6, SVG Export Plug-In . SVG Version: 6.00 Build 0)  -->
<svg version="1.1" id="Layer_1" xmlns="http://www.w3.org/2000/svg" xmlns:xlink="http://www.w3.org/1999/xlink" x="0px" y="0px"
	 viewBox="0 0 1280 720" style="enable-background:new 0 0 1280 720;" xml:space="preserve">
<style type="text/css">
	.st0{fill:#0A0A0A;}
	.st1{fill:#FFFFFF;}
</style>
<title>Asset 1</title>
<g>
	<g id="Layer_1-2">
		<rect x="0" y="0" class="st0" width="1280" height="720"/>
	</g>
</g>
<rect x="105.8" y="361" class="st1" width="1068.4" height="9.7"/>
<g>
	<path class="st1" d="M1037.7,382c0-0.5,0.4-0.9,0.9-0.9h4.3c0.5,0,0.9,0.4,0.9,0.9v30.1c0,0.5-0.4,0.9-0.9,0.9h-4.3
		c-0.5,0-0.9-0.4-0.9-0.9V382z"/>
	<path class="st1" d="M1055.2,381.4c0.1-0.3,0.3-0.7,0.8-0.7h0.7c0.3,0,0.6,0.2,0.7,0.5l10,21.5c0.1,0,0.1,0,0.1,0l10-21.5
		c0.1-0.3,0.3-0.5,0.7-0.5h0.7c0.5,0,0.7,0.3,0.8,0.7l5.4,30.6c0.1,0.6-0.2,1.1-0.8,1.1h-4.1c-0.4,0-0.7-0.3-0.9-0.7l-2.7-17.2
		c-0.1,0-0.1,0-0.1,0l-8,17.9c-0.1,0.3-0.3,0.5-0.7,0.5h-0.8c-0.4,0-0.6-0.2-0.7-0.5l-8-17.9h-0.1l-2.6,17.2
		c-0.1,0.3-0.4,0.7-0.8,0.7h-4.1c-0.6,0-0.9-0.4-0.9-1.1L1055.2,381.4z"/>
	<path class="st1" d="M1087.5,411.8l14.2-30.6c0.1-0.3,0.3-0.5,0.7-0.5h0.5c0.5,0,0.6,0.2,0.7,0.5l14,30.6c0.3,0.6-0.1,1.2-0.7,1.2
		h-4c-0.7,0-1-0.3-1.3-0.9l-2.2-4.9h-13.6l-2.2,4.9c-0.2,0.5-0.6,0.9-1.3,0.9h-4C1087.6,413,1087.2,412.3,1087.5,411.8z
		 M1107.1,402.1l-4.5-10h-0.1l-4.5,10H1107.1z"/>
	<path class="st1" d="M1135.6,380.7c4.1,0,8,1.6,11.1,4.3c0.3,0.3,0.4,0.9,0.1,1.3l-2.8,3c-0.3,0.3-0.7,0.3-1.2,0
		c-2-1.8-4.4-2.6-6.9-2.6c-5.7,0-10.2,4.9-10.2,10.5s4.5,10.4,10.3,10.4c2.6,0,4.5-0.7,5.4-1.1v-3.9h-3.6c-0.5,0-0.9-0.3-0.9-0.8
		V398c0-0.5,0.3-0.9,0.9-0.9h8.7c0.5,0,0.8,0.4,0.8,0.9v11.7c0,0.3-0.2,0.6-0.3,0.7c0,0-4.7,3-11.3,3c-9,0-16.3-7.2-16.3-16.3
		C1119.3,388,1126.6,380.7,1135.6,380.7z"/>
	<path class="st1" d="M1154,382c0-0.5,0.3-0.9,0.9-0.9h18.5c0.5,0,0.9,0.4,0.9,0.9v3.7c0,0.5-0.3,0.9-0.9,0.9H1160v7.5h11.2
		c0.5,0,0.9,0.4,0.9,0.9v3.8c0,0.5-0.4,0.9-0.9,0.9H1160v8h13.4c0.5,0,0.9,0.4,0.9,0.9v3.7c0,0.5-0.3,0.9-0.9,0.9h-18.5
		c-0.5,0-0.9-0.4-0.9-0.9V382z"/>
</g>
<g>
	<path class="st1" d="M105.8,318.9c0-0.5,0.3-0.9,0.9-0.9h4.2c0.5,0,0.9,0.4,0.9,0.9v25.5h11.6c0.5,0,0.9,0.4,0.9,0.9v3.7
		c0,0.5-0.3,0.9-0.9,0.9h-16.7c-0.5,0-0.9-0.4-0.9-0.9C105.8,349,105.8,318.9,105.8,318.9z"/>
	<path class="st1" d="M142.5,317.6c9.1,0,16.4,7.4,16.4,16.4c0,9.1-7.3,16.3-16.4,16.3s-16.3-7.2-16.3-16.3S133.4,317.6,142.5,317.6
		z M142.5,344.4c5.7,0,10.5-4.7,10.5-10.4s-4.7-10.5-10.5-10.5c-5.7,0-10.4,4.8-10.4,10.5C132,339.7,136.8,344.4,142.5,344.4z"/>
	<path class="st1" d="M160.5,348.7l14.2-30.6c0.1-0.3,0.3-0.5,0.7-0.5h0.5c0.5,0,0.6,0.2,0.7,0.5l14,30.6c0.3,0.6-0.1,1.2-0.7,1.2
		h-4c-0.7,0-1-0.3-1.3-0.9l-2.2-4.9h-13.6l-2.2,4.9c-0.2,0.5-0.6,0.9-1.3,0.9h-4C160.5,349.8,160.2,349.2,160.5,348.7z M180.1,339
		l-4.5-10h-0.1l-4.5,10H180.1z"/>
	<path class="st1" d="M194.7,318.9c0-0.5,0.3-0.9,0.8-0.9h10.8c8.8,0,16,7.2,16,15.9c0,8.8-7.2,16-16,16h-10.8
		c-0.5,0-0.8-0.4-0.8-0.9V318.9L194.7,318.9z M205.8,344.3c5.9,0,10.3-4.5,10.3-10.4s-4.3-10.4-10.3-10.4h-5.2v20.8H205.8z"/>
	<path class="st1" d="M228.3,318.9c0-0.5,0.4-0.9,0.9-0.9h4.3c0.5,0,0.9,0.4,0.9,0.9V349c0,0.5-0.4,0.9-0.9,0.9h-4.3
		c-0.5,0-0.9-0.4-0.9-0.9V318.9z"/>
	<path class="st1" d="M242.5,318.4c0-0.5,0.4-0.8,0.9-0.8h1.1l18.9,20.1h0.1v-18.8c0-0.5,0.3-0.9,0.9-0.9h4.2c0.5,0,0.9,0.4,0.9,0.9
		v30.6c0,0.5-0.4,0.8-0.9,0.8h-1.1l-19-20.9h-0.1V349c0,0.5-0.3,0.9-0.9,0.9h-4.1c-0.5,0-0.9-0.4-0.9-0.9V318.4z"/>
	<path class="st1" d="M291.8,317.6c4.1,0,8,1.6,11.1,4.3c0.3,0.3,0.4,0.9,0.1,1.3l-2.8,3c-0.3,0.3-0.7,0.3-1.2,0
		c-2-1.8-4.4-2.6-6.9-2.6c-5.7,0-10.2,4.9-10.2,10.5c0,5.7,4.5,10.4,10.3,10.4c2.6,0,4.5-0.7,5.4-1.1v-3.9H294
		c-0.5,0-0.9-0.3-0.9-0.8v-3.6c0-0.5,0.3-0.9,0.9-0.9h8.7c0.5,0,0.8,0.4,0.8,0.9v11.7c0,0.3-0.2,0.6-0.3,0.7c0,0-4.7,3-11.3,3
		c-9,0-16.3-7.2-16.3-16.3C275.4,324.9,282.7,317.6,291.8,317.6z"/>
</g>
</svg>
