<svg id="Layer_1" data-name="Layer 1" xmlns="http://www.w3.org/2000/svg" viewBox="0 0 1280 720"><defs><style>.cls-1{fill:#0a0a0a;}.cls-2{fill:#fff;}</style></defs><title>Artboard 1</title><rect class="cls-1" x="-49.11" y="599.3" width="1380.15" height="53.38"/><path class="cls-2" d="M2.93,614.13a.56.56,0,0,1,.57-.54h.75l12.48,13.26h0V614.46a.57.57,0,0,1,.57-.57h2.76a.59.59,0,0,1,.57.57v20.19a.56.56,0,0,1-.57.54h-.72L6.83,621.42h0v12.9a.57.57,0,0,1-.57.57H3.5a.59.59,0,0,1-.57-.57Z"/><path class="cls-2" d="M35.39,613.59a11.34,11.34,0,0,1,7.32,2.79.58.58,0,0,1,0,.84l-1.86,1.95a.51.51,0,0,1-.78,0,6.8,6.8,0,0,0-4.53-1.74,6.92,6.92,0,0,0,0,13.83,9.38,9.38,0,0,0,3.57-.75V628h-2.4a.55.55,0,0,1-.57-.54v-2.37a.55.55,0,0,1,.57-.57h5.76a.56.56,0,0,1,.54.57v7.68a.58.58,0,0,1-.24.48,15.16,15.16,0,0,1-7.44,1.95,10.79,10.79,0,0,1,0-21.57Z"/><path class="cls-2" d="M52.88,632,54,630.09a.7.7,0,0,1,1-.21c.15.09,2.58,1.86,4.53,1.86a2.5,2.5,0,0,0,2.73-2.31c0-1.53-1.29-2.58-3.81-3.6-2.82-1.14-5.64-2.94-5.64-6.48,0-2.67,2-5.76,6.75-5.76a10.56,10.56,0,0,1,6,2,.74.74,0,0,1,.18,1l-1.14,1.71a.79.79,0,0,1-1,.36c-.24-.15-2.52-1.65-4.17-1.65a2.39,2.39,0,0,0-2.64,2.1c0,1.41,1.11,2.37,3.54,3.36,2.91,1.17,6.27,2.91,6.27,6.78,0,3.09-2.67,5.94-6.9,5.94a9.65,9.65,0,0,1-6.6-2.34C52.76,632.58,52.61,632.43,52.88,632Z"/><path class="cls-2" d="M79.64,613.59a10.8,10.8,0,1,1-10.77,10.83A10.78,10.78,0,0,1,79.64,613.59Zm0,17.7a6.9,6.9,0,1,0-6.87-6.87A6.91,6.91,0,0,0,79.64,631.29Z"/><path class="cls-2" d="M103.64,613.59a10.8,10.8,0,1,1-10.77,10.83A10.78,10.78,0,0,1,103.64,613.59Zm0,17.7a6.9,6.9,0,1,0-6.87-6.87A6.91,6.91,0,0,0,103.64,631.29Z"/><path class="cls-2" d="M118.37,614.13a.56.56,0,0,1,.57-.54h.75l12.48,13.26h0V614.46a.57.57,0,0,1,.57-.57h2.76a.59.59,0,0,1,.57.57v20.19a.56.56,0,0,1-.57.54h-.72l-12.53-13.77h0v12.9a.57.57,0,0,1-.57.57h-2.73a.59.59,0,0,1-.57-.57Z"/><path class="cls-2" d="M236,613.59a10.15,10.15,0,0,1,7.26,2.79.56.56,0,0,1,0,.84l-1.83,1.89a.48.48,0,0,1-.75,0,7.1,7.1,0,0,0-4.62-1.77,7,7,0,0,0,0,13.92,7.2,7.2,0,0,0,4.59-1.71.55.55,0,0,1,.75,0l1.86,1.92a.57.57,0,0,1,0,.81,10.3,10.3,0,0,1-7.29,2.91,10.8,10.8,0,1,1,0-21.6Z"/><path class="cls-2" d="M256.36,613.59a10.8,10.8,0,1,1-10.77,10.83A10.78,10.78,0,0,1,256.36,613.59Zm0,17.7a6.9,6.9,0,1,0-6.86-6.87A6.91,6.91,0,0,0,256.36,631.29Z"/><path class="cls-2" d="M273.28,614a.51.51,0,0,1,.54-.45h.48a.55.55,0,0,1,.51.3l6.6,14.16h.09l6.6-14.16a.52.52,0,0,1,.51-.3h.48a.51.51,0,0,1,.54.45l3.54,20.16a.52.52,0,0,1-.54.69H289.9a.65.65,0,0,1-.57-.45l-1.77-11.37h-.09l-5.25,11.79a.51.51,0,0,1-.51.33h-.54a.54.54,0,0,1-.51-.33l-5.31-11.79h-.09l-1.74,11.37a.58.58,0,0,1-.54.45h-2.7a.55.55,0,0,1-.57-.69Z"/><path class="cls-2" d="M297.28,614.46a.59.59,0,0,1,.57-.57h2.79a.59.59,0,0,1,.57.57v19.86a.59.59,0,0,1-.57.57h-2.79a.59.59,0,0,1-.57-.57Z"/><path class="cls-2" d="M306.67,614.13a.56.56,0,0,1,.57-.54H308l12.48,13.26h0V614.46a.57.57,0,0,1,.57-.57h2.76a.59.59,0,0,1,.57.57v20.19a.56.56,0,0,1-.57.54h-.72l-12.54-13.77h0v12.9a.57.57,0,0,1-.57.57h-2.73a.59.59,0,0,1-.57-.57Z"/><path class="cls-2" d="M339.13,613.59a11.34,11.34,0,0,1,7.32,2.79.58.58,0,0,1,0,.84l-1.86,1.95a.51.51,0,0,1-.78,0,6.8,6.8,0,0,0-4.53-1.74,6.92,6.92,0,0,0,0,13.83,9.38,9.38,0,0,0,3.57-.75V628h-2.4a.55.55,0,0,1-.57-.54v-2.37a.55.55,0,0,1,.57-.57h5.76a.56.56,0,0,1,.54.57v7.68a.58.58,0,0,1-.24.48,15.16,15.16,0,0,1-7.44,1.95,10.79,10.79,0,0,1,0-21.57Z"/><path class="cls-2" d="M356.62,632l1.08-1.86a.7.7,0,0,1,1-.21c.15.09,2.58,1.86,4.53,1.86a2.5,2.5,0,0,0,2.73-2.31c0-1.53-1.29-2.58-3.81-3.6-2.82-1.14-5.64-2.94-5.64-6.48,0-2.67,2-5.76,6.75-5.76a10.56,10.56,0,0,1,6,2,.74.74,0,0,1,.18,1l-1.14,1.71a.79.79,0,0,1-1.05.36c-.24-.15-2.52-1.65-4.17-1.65a2.39,2.39,0,0,0-2.64,2.1c0,1.41,1.11,2.37,3.54,3.36,2.91,1.17,6.27,2.91,6.27,6.78,0,3.09-2.67,5.94-6.9,5.94a9.65,9.65,0,0,1-6.6-2.34C356.5,632.58,356.35,632.43,356.62,632Z"/><path class="cls-2" d="M383.38,613.59a10.8,10.8,0,1,1-10.77,10.83A10.78,10.78,0,0,1,383.38,613.59Zm0,17.7a6.9,6.9,0,1,0-6.87-6.87A6.91,6.91,0,0,0,383.38,631.29Z"/><path class="cls-2" d="M407.38,613.59a10.8,10.8,0,1,1-10.77,10.83A10.78,10.78,0,0,1,407.38,613.59Zm0,17.7a6.9,6.9,0,1,0-6.87-6.87A6.91,6.91,0,0,0,407.38,631.29Z"/><path class="cls-2" d="M422.11,614.13a.56.56,0,0,1,.57-.54h.75l12.48,13.26h0V614.46a.57.57,0,0,1,.57-.57h2.76a.59.59,0,0,1,.57.57v20.19a.56.56,0,0,1-.57.54h-.72L426,621.42h0v12.9a.57.57,0,0,1-.57.57h-2.73a.59.59,0,0,1-.57-.57Z"/><path class="cls-2" d="M539.71,613.59a10.15,10.15,0,0,1,7.26,2.79.56.56,0,0,1,0,.84l-1.83,1.89a.48.48,0,0,1-.75,0,7.1,7.1,0,0,0-4.62-1.77,7,7,0,0,0,0,13.92,7.2,7.2,0,0,0,4.59-1.71.55.55,0,0,1,.75,0l1.86,1.92a.57.57,0,0,1,0,.81,10.3,10.3,0,0,1-7.29,2.91,10.8,10.8,0,1,1,0-21.6Z"/><path class="cls-2" d="M560.11,613.59a10.8,10.8,0,1,1-10.77,10.83A10.78,10.78,0,0,1,560.11,613.59Zm0,17.7a6.9,6.9,0,1,0-6.87-6.87A6.91,6.91,0,0,0,560.11,631.29Z"/><path class="cls-2" d="M577,614a.51.51,0,0,1,.54-.45h.48a.55.55,0,0,1,.51.3l6.6,14.16h.09l6.6-14.16a.52.52,0,0,1,.51-.3h.48a.51.51,0,0,1,.54.45l3.54,20.16a.52.52,0,0,1-.54.69h-2.73a.65.65,0,0,1-.57-.45l-1.77-11.37h-.09L586,634.86a.51.51,0,0,1-.51.33h-.54a.54.54,0,0,1-.51-.33l-5.31-11.79H579l-1.74,11.37a.58.58,0,0,1-.54.45H574a.55.55,0,0,1-.57-.69Z"/><path class="cls-2" d="M601,614.46a.59.59,0,0,1,.57-.57h2.79a.59.59,0,0,1,.57.57v19.86a.59.59,0,0,1-.57.57H601.6a.59.59,0,0,1-.57-.57Z"/><path class="cls-2" d="M610.42,614.13a.56.56,0,0,1,.57-.54h.75l12.48,13.26h0V614.46a.57.57,0,0,1,.57-.57h2.76a.59.59,0,0,1,.57.57v20.19a.56.56,0,0,1-.57.54h-.72l-12.54-13.77h0v12.9a.57.57,0,0,1-.57.57H611a.59.59,0,0,1-.57-.57Z"/><path class="cls-2" d="M642.88,613.59a11.34,11.34,0,0,1,7.32,2.79.58.58,0,0,1,0,.84l-1.86,1.95a.51.51,0,0,1-.78,0,6.8,6.8,0,0,0-4.53-1.74,6.92,6.92,0,0,0,0,13.83,9.38,9.38,0,0,0,3.57-.75V628h-2.4a.55.55,0,0,1-.57-.54v-2.37a.55.55,0,0,1,.57-.57H650a.56.56,0,0,1,.54.57v7.68a.58.58,0,0,1-.24.48,15.16,15.16,0,0,1-7.44,1.95,10.79,10.79,0,0,1,0-21.57Z"/><path class="cls-2" d="M660.37,632l1.08-1.86a.7.7,0,0,1,1-.21c.15.09,2.58,1.86,4.53,1.86a2.5,2.5,0,0,0,2.73-2.31c0-1.53-1.29-2.58-3.81-3.6-2.82-1.14-5.64-2.94-5.64-6.48,0-2.67,2-5.76,6.75-5.76a10.56,10.56,0,0,1,6,2,.74.74,0,0,1,.18,1l-1.14,1.71a.79.79,0,0,1-1.05.36c-.24-.15-2.52-1.65-4.17-1.65a2.39,2.39,0,0,0-2.64,2.1c0,1.41,1.11,2.37,3.54,3.36,2.91,1.17,6.27,2.91,6.27,6.78,0,3.09-2.67,5.94-6.9,5.94a9.65,9.65,0,0,1-6.6-2.34C660.25,632.58,660.1,632.43,660.37,632Z"/><path class="cls-2" d="M687.13,613.59a10.8,10.8,0,1,1-10.77,10.83A10.78,10.78,0,0,1,687.13,613.59Zm0,17.7a6.9,6.9,0,1,0-6.87-6.87A6.91,6.91,0,0,0,687.13,631.29Z"/><path class="cls-2" d="M711.13,613.59a10.8,10.8,0,1,1-10.77,10.83A10.78,10.78,0,0,1,711.13,613.59Zm0,17.7a6.9,6.9,0,1,0-6.87-6.87A6.91,6.91,0,0,0,711.13,631.29Z"/><path class="cls-2" d="M725.86,614.13a.56.56,0,0,1,.57-.54h.75l12.48,13.26h0V614.46a.57.57,0,0,1,.57-.57H743a.59.59,0,0,1,.57.57v20.19a.56.56,0,0,1-.57.54h-.72l-12.54-13.77h0v12.9a.57.57,0,0,1-.57.57h-2.73a.59.59,0,0,1-.57-.57Z"/><path class="cls-2" d="M843.46,613.59a10.15,10.15,0,0,1,7.26,2.79.56.56,0,0,1,0,.84l-1.83,1.89a.48.48,0,0,1-.75,0,7.1,7.1,0,0,0-4.62-1.77,7,7,0,0,0,0,13.92,7.2,7.2,0,0,0,4.59-1.71.55.55,0,0,1,.75,0l1.86,1.92a.57.57,0,0,1,0,.81,10.3,10.3,0,0,1-7.29,2.91,10.8,10.8,0,1,1,0-21.6Z"/><path class="cls-2" d="M863.86,613.59a10.8,10.8,0,1,1-10.77,10.83A10.78,10.78,0,0,1,863.86,613.59Zm0,17.7a6.9,6.9,0,1,0-6.87-6.87A6.91,6.91,0,0,0,863.86,631.29Z"/><path class="cls-2" d="M880.78,614a.51.51,0,0,1,.54-.45h.48a.55.55,0,0,1,.51.3l6.6,14.16H889l6.6-14.16a.52.52,0,0,1,.51-.3h.48a.51.51,0,0,1,.54.45l3.54,20.16a.52.52,0,0,1-.54.69H897.4a.65.65,0,0,1-.57-.45l-1.77-11.37H895l-5.25,11.79a.51.51,0,0,1-.51.33h-.54a.54.54,0,0,1-.51-.33l-5.31-11.79h-.09L881,634.44a.58.58,0,0,1-.54.45h-2.7a.55.55,0,0,1-.57-.69Z"/><path class="cls-2" d="M904.78,614.46a.59.59,0,0,1,.57-.57h2.79a.59.59,0,0,1,.57.57v19.86a.59.59,0,0,1-.57.57h-2.79a.59.59,0,0,1-.57-.57Z"/><path class="cls-2" d="M914.17,614.13a.56.56,0,0,1,.57-.54h.75L928,626.85h0V614.46a.57.57,0,0,1,.57-.57h2.76a.59.59,0,0,1,.57.57v20.19a.56.56,0,0,1-.57.54h-.72l-12.54-13.77h0v12.9a.57.57,0,0,1-.57.57h-2.73a.59.59,0,0,1-.57-.57Z"/><path class="cls-2" d="M946.63,613.59a11.34,11.34,0,0,1,7.32,2.79.58.58,0,0,1,0,.84l-1.86,1.95a.51.51,0,0,1-.78,0,6.8,6.8,0,0,0-4.53-1.74,6.92,6.92,0,0,0,0,13.83,9.38,9.38,0,0,0,3.57-.75V628H948a.55.55,0,0,1-.57-.54v-2.37a.55.55,0,0,1,.57-.57h5.76a.56.56,0,0,1,.54.57v7.68a.58.58,0,0,1-.24.48,15.16,15.16,0,0,1-7.44,1.95,10.79,10.79,0,0,1,0-21.57Z"/><path class="cls-2" d="M964.12,632l1.08-1.86a.7.7,0,0,1,1-.21c.15.09,2.58,1.86,4.53,1.86a2.5,2.5,0,0,0,2.73-2.31c0-1.53-1.29-2.58-3.81-3.6-2.82-1.14-5.64-2.94-5.64-6.48,0-2.67,2-5.76,6.75-5.76a10.56,10.56,0,0,1,6,2,.74.74,0,0,1,.18,1l-1.14,1.71a.79.79,0,0,1-1.05.36c-.24-.15-2.52-1.65-4.17-1.65a2.39,2.39,0,0,0-2.64,2.1c0,1.41,1.11,2.37,3.54,3.36,2.91,1.17,6.27,2.91,6.27,6.78,0,3.09-2.67,5.94-6.9,5.94a9.65,9.65,0,0,1-6.6-2.34C964,632.58,963.85,632.43,964.12,632Z"/><path class="cls-2" d="M990.88,613.59a10.8,10.8,0,1,1-10.77,10.83A10.77,10.77,0,0,1,990.88,613.59Zm0,17.7a6.9,6.9,0,1,0-6.87-6.87A6.91,6.91,0,0,0,990.88,631.29Z"/><path class="cls-2" d="M1014.88,613.59a10.8,10.8,0,1,1-10.77,10.83A10.77,10.77,0,0,1,1014.88,613.59Zm0,17.7a6.9,6.9,0,1,0-6.87-6.87A6.91,6.91,0,0,0,1014.88,631.29Z"/><path class="cls-2" d="M1029.61,614.13a.56.56,0,0,1,.56-.54h.75l12.48,13.26h0V614.46a.57.57,0,0,1,.57-.57h2.76a.59.59,0,0,1,.57.57v20.19a.56.56,0,0,1-.57.54H1046l-12.54-13.77h0v12.9a.56.56,0,0,1-.56.57h-2.74a.59.59,0,0,1-.56-.57Z"/><path class="cls-2" d="M1147.2,613.59a10.15,10.15,0,0,1,7.26,2.79.56.56,0,0,1,0,.84l-1.83,1.89a.48.48,0,0,1-.75,0,7.1,7.1,0,0,0-4.62-1.77,7,7,0,0,0,0,13.92,7.2,7.2,0,0,0,4.59-1.71.55.55,0,0,1,.75,0l1.86,1.92a.57.57,0,0,1,0,.81,10.3,10.3,0,0,1-7.29,2.91,10.8,10.8,0,1,1,0-21.6Z"/><path class="cls-2" d="M1167.6,613.59a10.8,10.8,0,1,1-10.77,10.83A10.78,10.78,0,0,1,1167.6,613.59Zm0,17.7a6.9,6.9,0,1,0-6.87-6.87A6.91,6.91,0,0,0,1167.6,631.29Z"/><path class="cls-2" d="M1184.52,614a.51.51,0,0,1,.54-.45h.48a.55.55,0,0,1,.51.3l6.6,14.16h.09l6.6-14.16a.52.52,0,0,1,.51-.3h.48a.51.51,0,0,1,.54.45l3.54,20.16a.52.52,0,0,1-.54.69h-2.73a.65.65,0,0,1-.57-.45l-1.77-11.37h-.09l-5.25,11.79a.51.51,0,0,1-.51.33h-.54a.54.54,0,0,1-.51-.33l-5.31-11.79h-.09l-1.74,11.37a.58.58,0,0,1-.54.45h-2.7a.55.55,0,0,1-.57-.69Z"/><path class="cls-2" d="M1208.52,614.46a.59.59,0,0,1,.57-.57h2.79a.59.59,0,0,1,.57.57v19.86a.59.59,0,0,1-.57.57h-2.79a.59.59,0,0,1-.57-.57Z"/><path class="cls-2" d="M1217.91,614.13a.56.56,0,0,1,.57-.54h.75l12.48,13.26h0V614.46a.57.57,0,0,1,.57-.57h2.76a.59.59,0,0,1,.57.57v20.19a.56.56,0,0,1-.57.54h-.72l-12.54-13.77h0v12.9a.57.57,0,0,1-.57.57h-2.73a.59.59,0,0,1-.57-.57Z"/><path class="cls-2" d="M1250.37,613.59a11.34,11.34,0,0,1,7.32,2.79.58.58,0,0,1,0,.84l-1.86,1.95a.51.51,0,0,1-.78,0,6.8,6.8,0,0,0-4.53-1.74,6.92,6.92,0,0,0,0,13.83,9.38,9.38,0,0,0,3.57-.75V628h-2.4a.55.55,0,0,1-.57-.54v-2.37a.55.55,0,0,1,.57-.57h5.76a.56.56,0,0,1,.54.57v7.68a.58.58,0,0,1-.24.48,15.16,15.16,0,0,1-7.44,1.95,10.79,10.79,0,0,1,0-21.57Z"/><path class="cls-2" d="M1267.86,632l1.08-1.86a.7.7,0,0,1,1-.21c.15.09,2.58,1.86,4.53,1.86a2.5,2.5,0,0,0,2.73-2.31c0-1.53-1.29-2.58-3.81-3.6-2.82-1.14-5.64-2.94-5.64-6.48,0-2.67,2-5.76,6.75-5.76a10.56,10.56,0,0,1,6,2,.74.74,0,0,1,.18,1l-1.14,1.71a.79.79,0,0,1-1,.36c-.24-.15-2.52-1.65-4.17-1.65a2.39,2.39,0,0,0-2.64,2.1c0,1.41,1.11,2.37,3.54,3.36,2.91,1.17,6.27,2.91,6.27,6.78,0,3.09-2.67,5.94-6.9,5.94a9.65,9.65,0,0,1-6.6-2.34C1267.74,632.58,1267.59,632.43,1267.86,632Z"/><rect class="cls-1" x="-49.11" y="91.71" width="1380.15" height="53.38"/><path class="cls-2" d="M6,106a10.15,10.15,0,0,1,7.26,2.79.56.56,0,0,1,0,.84l-1.83,1.89a.48.48,0,0,1-.75,0,7.09,7.09,0,0,0-4.62-1.76,7,7,0,0,0,0,13.91A7.2,7.2,0,0,0,10.67,122a.55.55,0,0,1,.75,0l1.86,1.92a.57.57,0,0,1,0,.81A10.3,10.3,0,0,1,6,127.59,10.8,10.8,0,1,1,6,106Z"/><path class="cls-2" d="M26.36,106a10.8,10.8,0,1,1-10.77,10.83A10.78,10.78,0,0,1,26.36,106Zm0,17.7a6.9,6.9,0,1,0-6.86-6.87A6.91,6.91,0,0,0,26.36,123.69Z"/><path class="cls-2" d="M43.28,106.44a.51.51,0,0,1,.54-.45h.48a.55.55,0,0,1,.51.3l6.6,14.16h.09l6.6-14.16a.52.52,0,0,1,.51-.3h.48a.51.51,0,0,1,.54.45l3.54,20.16a.52.52,0,0,1-.54.69H59.9a.65.65,0,0,1-.57-.45l-1.77-11.37h-.09l-5.25,11.79a.51.51,0,0,1-.51.33h-.54a.54.54,0,0,1-.51-.33l-5.31-11.79h-.09l-1.74,11.37a.58.58,0,0,1-.54.45h-2.7a.55.55,0,0,1-.57-.69Z"/><path class="cls-2" d="M67.28,106.86a.59.59,0,0,1,.57-.57h2.79a.59.59,0,0,1,.57.57v19.86a.59.59,0,0,1-.57.57H67.85a.59.59,0,0,1-.57-.57Z"/><path class="cls-2" d="M76.67,106.53a.56.56,0,0,1,.57-.54H78l12.48,13.26h0V106.86a.57.57,0,0,1,.57-.57h2.76a.59.59,0,0,1,.57.57v20.19a.56.56,0,0,1-.57.54h-.72L80.57,113.82h0v12.9a.57.57,0,0,1-.57.57H77.24a.59.59,0,0,1-.57-.57Z"/><path class="cls-2" d="M109.13,106a11.34,11.34,0,0,1,7.32,2.79.58.58,0,0,1,0,.84l-1.86,1.95a.51.51,0,0,1-.78,0,6.8,6.8,0,0,0-4.53-1.74,6.92,6.92,0,0,0,0,13.83,9.38,9.38,0,0,0,3.57-.75v-2.55h-2.4a.55.55,0,0,1-.57-.54v-2.37a.55.55,0,0,1,.57-.57h5.76a.56.56,0,0,1,.54.57v7.68a.58.58,0,0,1-.24.48,15.16,15.16,0,0,1-7.44,2,10.79,10.79,0,0,1,0-21.57Z"/><path class="cls-2" d="M126.62,124.35l1.08-1.86a.7.7,0,0,1,1-.21c.15.09,2.58,1.86,4.53,1.86a2.5,2.5,0,0,0,2.73-2.31c0-1.53-1.29-2.58-3.81-3.6-2.82-1.14-5.64-2.94-5.64-6.48,0-2.67,2-5.76,6.75-5.76a10.56,10.56,0,0,1,6,2,.74.74,0,0,1,.18,1l-1.14,1.72a.79.79,0,0,1-1,.35c-.24-.14-2.52-1.64-4.17-1.64a2.38,2.38,0,0,0-2.64,2.09c0,1.41,1.11,2.37,3.54,3.36,2.91,1.17,6.27,2.91,6.27,6.78,0,3.09-2.67,5.94-6.9,5.94a9.65,9.65,0,0,1-6.6-2.34C126.5,125,126.35,124.83,126.62,124.35Z"/><path class="cls-2" d="M153.38,106a10.8,10.8,0,1,1-10.77,10.83A10.78,10.78,0,0,1,153.38,106Zm0,17.7a6.9,6.9,0,1,0-6.87-6.87A6.91,6.91,0,0,0,153.38,123.69Z"/><path class="cls-2" d="M177.38,106a10.8,10.8,0,1,1-10.77,10.83A10.78,10.78,0,0,1,177.38,106Zm0,17.7a6.9,6.9,0,1,0-6.87-6.87A6.91,6.91,0,0,0,177.38,123.69Z"/><path class="cls-2" d="M192.11,106.53a.56.56,0,0,1,.57-.54h.75l12.48,13.26h0V106.86a.57.57,0,0,1,.57-.57h2.76a.59.59,0,0,1,.57.57v20.19a.56.56,0,0,1-.57.54h-.72L196,113.82h0v12.9a.57.57,0,0,1-.57.57h-2.73a.59.59,0,0,1-.57-.57Z"/><path class="cls-2" d="M309.71,106a10.15,10.15,0,0,1,7.26,2.79.56.56,0,0,1,0,.84l-1.83,1.89a.48.48,0,0,1-.75,0,7.09,7.09,0,0,0-4.62-1.76,7,7,0,0,0,0,13.91,7.2,7.2,0,0,0,4.59-1.71.55.55,0,0,1,.75,0l1.86,1.92a.57.57,0,0,1,0,.81,10.3,10.3,0,0,1-7.29,2.91,10.8,10.8,0,1,1,0-21.6Z"/><path class="cls-2" d="M330.11,106a10.8,10.8,0,1,1-10.77,10.83A10.78,10.78,0,0,1,330.11,106Zm0,17.7a6.9,6.9,0,1,0-6.87-6.87A6.91,6.91,0,0,0,330.11,123.69Z"/><path class="cls-2" d="M347,106.44a.51.51,0,0,1,.54-.45h.48a.55.55,0,0,1,.51.3l6.6,14.16h.09l6.6-14.16a.52.52,0,0,1,.51-.3h.48a.51.51,0,0,1,.54.45l3.54,20.16a.52.52,0,0,1-.54.69h-2.73a.65.65,0,0,1-.57-.45l-1.77-11.37h-.09L356,127.26a.51.51,0,0,1-.51.33h-.54a.54.54,0,0,1-.51-.33l-5.31-11.79H349l-1.74,11.37a.58.58,0,0,1-.54.45H344a.55.55,0,0,1-.57-.69Z"/><path class="cls-2" d="M371,106.86a.59.59,0,0,1,.57-.57h2.79a.59.59,0,0,1,.57.57v19.86a.59.59,0,0,1-.57.57H371.6a.59.59,0,0,1-.57-.57Z"/><path class="cls-2" d="M380.42,106.53A.56.56,0,0,1,381,106h.75l12.48,13.26h0V106.86a.57.57,0,0,1,.57-.57h2.76a.59.59,0,0,1,.57.57v20.19a.56.56,0,0,1-.57.54h-.72l-12.54-13.77h0v12.9a.57.57,0,0,1-.57.57H381a.59.59,0,0,1-.57-.57Z"/><path class="cls-2" d="M412.88,106a11.34,11.34,0,0,1,7.32,2.79.58.58,0,0,1,0,.84l-1.86,1.95a.51.51,0,0,1-.78,0,6.8,6.8,0,0,0-4.53-1.74,6.92,6.92,0,0,0,0,13.83,9.38,9.38,0,0,0,3.57-.75v-2.55h-2.4a.55.55,0,0,1-.57-.54v-2.37a.55.55,0,0,1,.57-.57H420a.56.56,0,0,1,.54.57v7.68a.58.58,0,0,1-.24.48,15.16,15.16,0,0,1-7.44,2,10.79,10.79,0,0,1,0-21.57Z"/><path class="cls-2" d="M430.37,124.35l1.08-1.86a.7.7,0,0,1,1-.21c.15.09,2.58,1.86,4.53,1.86a2.5,2.5,0,0,0,2.73-2.31c0-1.53-1.29-2.58-3.81-3.6-2.82-1.14-5.64-2.94-5.64-6.48,0-2.67,2-5.76,6.75-5.76a10.56,10.56,0,0,1,6,2,.74.74,0,0,1,.18,1l-1.14,1.72a.79.79,0,0,1-1.05.35c-.24-.14-2.52-1.64-4.17-1.64a2.38,2.38,0,0,0-2.64,2.09c0,1.41,1.11,2.37,3.54,3.36,2.91,1.17,6.27,2.91,6.27,6.78,0,3.09-2.67,5.94-6.9,5.94a9.65,9.65,0,0,1-6.6-2.34C430.25,125,430.1,124.83,430.37,124.35Z"/><path class="cls-2" d="M457.13,106a10.8,10.8,0,1,1-10.77,10.83A10.78,10.78,0,0,1,457.13,106Zm0,17.7a6.9,6.9,0,1,0-6.87-6.87A6.91,6.91,0,0,0,457.13,123.69Z"/><path class="cls-2" d="M481.13,106a10.8,10.8,0,1,1-10.77,10.83A10.78,10.78,0,0,1,481.13,106Zm0,17.7a6.9,6.9,0,1,0-6.87-6.87A6.91,6.91,0,0,0,481.13,123.69Z"/><path class="cls-2" d="M495.86,106.53a.56.56,0,0,1,.57-.54h.75l12.48,13.26h0V106.86a.57.57,0,0,1,.57-.57H513a.59.59,0,0,1,.57.57v20.19a.56.56,0,0,1-.57.54h-.72l-12.54-13.77h0v12.9a.57.57,0,0,1-.57.57h-2.73a.59.59,0,0,1-.57-.57Z"/><path class="cls-2" d="M613.46,106a10.15,10.15,0,0,1,7.26,2.79.56.56,0,0,1,0,.84l-1.83,1.89a.48.48,0,0,1-.75,0,7.09,7.09,0,0,0-4.62-1.76,7,7,0,0,0,0,13.91,7.2,7.2,0,0,0,4.59-1.71.55.55,0,0,1,.75,0l1.86,1.92a.57.57,0,0,1,0,.81,10.3,10.3,0,0,1-7.29,2.91,10.8,10.8,0,1,1,0-21.6Z"/><path class="cls-2" d="M633.86,106a10.8,10.8,0,1,1-10.77,10.83A10.78,10.78,0,0,1,633.86,106Zm0,17.7a6.9,6.9,0,1,0-6.87-6.87A6.91,6.91,0,0,0,633.86,123.69Z"/><path class="cls-2" d="M650.78,106.44a.51.51,0,0,1,.54-.45h.48a.55.55,0,0,1,.51.3l6.6,14.16H659l6.6-14.16a.52.52,0,0,1,.51-.3h.48a.51.51,0,0,1,.54.45l3.54,20.16a.52.52,0,0,1-.54.69H667.4a.65.65,0,0,1-.57-.45l-1.77-11.37H665l-5.25,11.79a.51.51,0,0,1-.51.33h-.54a.54.54,0,0,1-.51-.33l-5.31-11.79h-.09L651,126.84a.58.58,0,0,1-.54.45h-2.7a.55.55,0,0,1-.57-.69Z"/><path class="cls-2" d="M674.78,106.86a.59.59,0,0,1,.57-.57h2.79a.59.59,0,0,1,.57.57v19.86a.59.59,0,0,1-.57.57h-2.79a.59.59,0,0,1-.57-.57Z"/><path class="cls-2" d="M684.17,106.53a.56.56,0,0,1,.57-.54h.75L698,119.25h0V106.86a.57.57,0,0,1,.57-.57h2.76a.59.59,0,0,1,.57.57v20.19a.56.56,0,0,1-.57.54h-.72l-12.54-13.77h0v12.9a.57.57,0,0,1-.57.57h-2.73a.59.59,0,0,1-.57-.57Z"/><path class="cls-2" d="M716.63,106a11.34,11.34,0,0,1,7.32,2.79.58.58,0,0,1,0,.84l-1.86,1.95a.51.51,0,0,1-.78,0,6.8,6.8,0,0,0-4.53-1.74,6.92,6.92,0,0,0,0,13.83,9.38,9.38,0,0,0,3.57-.75v-2.55H718a.55.55,0,0,1-.57-.54v-2.37a.55.55,0,0,1,.57-.57h5.76a.56.56,0,0,1,.54.57v7.68a.58.58,0,0,1-.24.48,15.16,15.16,0,0,1-7.44,2,10.79,10.79,0,0,1,0-21.57Z"/><path class="cls-2" d="M734.12,124.35l1.08-1.86a.7.7,0,0,1,1-.21c.15.09,2.58,1.86,4.53,1.86a2.5,2.5,0,0,0,2.73-2.31c0-1.53-1.29-2.58-3.81-3.6-2.82-1.14-5.64-2.94-5.64-6.48,0-2.67,2-5.76,6.75-5.76a10.56,10.56,0,0,1,6,2,.74.74,0,0,1,.18,1l-1.14,1.72a.8.8,0,0,1-1.05.35c-.24-.14-2.52-1.64-4.17-1.64a2.38,2.38,0,0,0-2.64,2.09c0,1.41,1.11,2.37,3.54,3.36,2.91,1.17,6.27,2.91,6.27,6.78,0,3.09-2.67,5.94-6.9,5.94a9.65,9.65,0,0,1-6.6-2.34C734,125,733.85,124.83,734.12,124.35Z"/><path class="cls-2" d="M760.88,106a10.8,10.8,0,1,1-10.77,10.83A10.77,10.77,0,0,1,760.88,106Zm0,17.7a6.9,6.9,0,1,0-6.87-6.87A6.91,6.91,0,0,0,760.88,123.69Z"/><path class="cls-2" d="M784.88,106a10.8,10.8,0,1,1-10.77,10.83A10.77,10.77,0,0,1,784.88,106Zm0,17.7a6.9,6.9,0,1,0-6.87-6.87A6.91,6.91,0,0,0,784.88,123.69Z"/><path class="cls-2" d="M799.61,106.53a.56.56,0,0,1,.56-.54h.75l12.48,13.26h0V106.86a.57.57,0,0,1,.57-.57h2.76a.59.59,0,0,1,.57.57v20.19a.56.56,0,0,1-.57.54H816L803.5,113.82h0v12.9a.56.56,0,0,1-.56.57h-2.74a.59.59,0,0,1-.56-.57Z"/><path class="cls-2" d="M917.2,106a10.15,10.15,0,0,1,7.26,2.79.56.56,0,0,1,0,.84l-1.83,1.89a.48.48,0,0,1-.75,0,7.09,7.09,0,0,0-4.62-1.76,7,7,0,0,0,0,13.91,7.2,7.2,0,0,0,4.59-1.71.55.55,0,0,1,.75,0l1.86,1.92a.57.57,0,0,1,0,.81,10.3,10.3,0,0,1-7.29,2.91,10.8,10.8,0,1,1,0-21.6Z"/><path class="cls-2" d="M937.6,106a10.8,10.8,0,1,1-10.77,10.83A10.78,10.78,0,0,1,937.6,106Zm0,17.7a6.9,6.9,0,1,0-6.87-6.87A6.91,6.91,0,0,0,937.6,123.69Z"/><path class="cls-2" d="M954.52,106.44a.51.51,0,0,1,.54-.45h.48a.55.55,0,0,1,.51.3l6.6,14.16h.09l6.6-14.16a.52.52,0,0,1,.51-.3h.48a.51.51,0,0,1,.54.45l3.54,20.16a.52.52,0,0,1-.54.69h-2.73a.65.65,0,0,1-.57-.45l-1.77-11.37h-.09l-5.25,11.79a.51.51,0,0,1-.51.33h-.54a.54.54,0,0,1-.51-.33l-5.31-11.79h-.09l-1.74,11.37a.58.58,0,0,1-.54.45h-2.7a.55.55,0,0,1-.57-.69Z"/><path class="cls-2" d="M978.52,106.86a.59.59,0,0,1,.57-.57h2.79a.59.59,0,0,1,.57.57v19.86a.59.59,0,0,1-.57.57h-2.79a.59.59,0,0,1-.57-.57Z"/><path class="cls-2" d="M987.91,106.53a.56.56,0,0,1,.57-.54h.75l12.48,13.26h0V106.86a.57.57,0,0,1,.57-.57h2.76a.59.59,0,0,1,.57.57v20.19a.56.56,0,0,1-.57.54h-.72l-12.54-13.77h0v12.9a.57.57,0,0,1-.57.57h-2.73a.59.59,0,0,1-.57-.57Z"/><path class="cls-2" d="M1020.37,106a11.34,11.34,0,0,1,7.32,2.79.58.58,0,0,1,0,.84l-1.86,1.95a.51.51,0,0,1-.78,0,6.8,6.8,0,0,0-4.53-1.74,6.92,6.92,0,0,0,0,13.83,9.38,9.38,0,0,0,3.57-.75v-2.55h-2.4a.55.55,0,0,1-.57-.54v-2.37a.55.55,0,0,1,.57-.57h5.76a.56.56,0,0,1,.54.57v7.68a.58.58,0,0,1-.24.48,15.16,15.16,0,0,1-7.44,2,10.79,10.79,0,0,1,0-21.57Z"/><path class="cls-2" d="M1037.86,124.35l1.08-1.86a.7.7,0,0,1,1-.21c.15.09,2.58,1.86,4.53,1.86a2.5,2.5,0,0,0,2.73-2.31c0-1.53-1.29-2.58-3.81-3.6-2.82-1.14-5.64-2.94-5.64-6.48,0-2.67,2-5.76,6.75-5.76a10.56,10.56,0,0,1,6,2,.74.74,0,0,1,.18,1l-1.14,1.72a.79.79,0,0,1-1,.35c-.24-.14-2.52-1.64-4.17-1.64a2.38,2.38,0,0,0-2.64,2.09c0,1.41,1.11,2.37,3.54,3.36,2.91,1.17,6.27,2.91,6.27,6.78,0,3.09-2.67,5.94-6.9,5.94a9.65,9.65,0,0,1-6.6-2.34C1037.74,125,1037.59,124.83,1037.86,124.35Z"/><path class="cls-2" d="M1064.62,106a10.8,10.8,0,1,1-10.77,10.83A10.78,10.78,0,0,1,1064.62,106Zm0,17.7a6.9,6.9,0,1,0-6.87-6.87A6.91,6.91,0,0,0,1064.62,123.69Z"/><path class="cls-2" d="M1088.62,106a10.8,10.8,0,1,1-10.77,10.83A10.78,10.78,0,0,1,1088.62,106Zm0,17.7a6.9,6.9,0,1,0-6.87-6.87A6.91,6.91,0,0,0,1088.62,123.69Z"/><path class="cls-2" d="M1103.35,106.53a.56.56,0,0,1,.57-.54h.75l12.48,13.26h0V106.86a.57.57,0,0,1,.57-.57h2.76a.59.59,0,0,1,.57.57v20.19a.56.56,0,0,1-.57.54h-.72l-12.54-13.77h0v12.9a.57.57,0,0,1-.57.57h-2.73a.59.59,0,0,1-.57-.57Z"/><path class="cls-2" d="M1221,106a10.15,10.15,0,0,1,7.26,2.79.56.56,0,0,1,0,.84l-1.83,1.89a.48.48,0,0,1-.75,0,7.09,7.09,0,0,0-4.62-1.76,7,7,0,0,0,0,13.91,7.2,7.2,0,0,0,4.59-1.71.55.55,0,0,1,.75,0l1.86,1.92a.57.57,0,0,1,0,.81,10.3,10.3,0,0,1-7.29,2.91,10.8,10.8,0,1,1,0-21.6Z"/><path class="cls-2" d="M1241.35,106a10.8,10.8,0,1,1-10.77,10.83A10.78,10.78,0,0,1,1241.35,106Zm0,17.7a6.9,6.9,0,1,0-6.87-6.87A6.91,6.91,0,0,0,1241.35,123.69Z"/><path class="cls-2" d="M1258.27,106.44a.51.51,0,0,1,.54-.45h.48a.55.55,0,0,1,.51.3l6.6,14.16h.09l6.6-14.16a.52.52,0,0,1,.51-.3h.48a.51.51,0,0,1,.54.45l3.54,20.16a.52.52,0,0,1-.54.69h-2.73a.65.65,0,0,1-.57-.45l-1.77-11.37h-.09l-5.25,11.79a.51.51,0,0,1-.51.33h-.54a.54.54,0,0,1-.51-.33l-5.31-11.79h-.09l-1.74,11.37a.58.58,0,0,1-.54.45h-2.7a.55.55,0,0,1-.57-.69Z"/></svg>