<?xml version="1.0" encoding="utf-8"?>
<!-- Generator: Adobe Illustrator 23.0.6, SVG Export Plug-In . SVG Version: 6.00 Build 0)  -->
<svg version="1.1" id="Layer_1" xmlns="http://www.w3.org/2000/svg" xmlns:xlink="http://www.w3.org/1999/xlink" x="0px" y="0px"
	 viewBox="0 0 1280 720" style="enable-background:new 0 0 1280 720;" xml:space="preserve">
<style type="text/css">
	.st0{fill:#0A0A0A;}
	.st1{fill:#FFFFFF;}
</style>
<title>Asset 1</title>
<g>
	<g id="Layer_1-2">
		<rect x="40.9" y="40.9" class="st0" width="1198.2" height="638.2"/>
		<path class="st1" d="M469.1,360.1c0-0.4,0.3-0.8,0.8-0.8l0,0h3.8c0.4,0,0.8,0.4,0.8,0.8V383h10.4c0.4,0,0.8,0.3,0.8,0.8l0,0v3.3
			c0,0.4-0.4,0.8-0.8,0.8H470c-0.4,0-0.8-0.3-0.8-0.8l0,0L469.1,360.1L469.1,360.1z"/>
		<path class="st1" d="M502.1,358.9c8.1,0,14.7,6.6,14.7,14.7s-6.6,14.7-14.7,14.7s-14.6-6.5-14.7-14.6
			C487.3,365.6,493.9,359,502.1,358.9C502,358.9,502,358.9,502.1,358.9z M502.1,383c5.2,0,9.4-4.2,9.4-9.4c0-5.2-4.2-9.4-9.4-9.4
			c-5.2,0-9.4,4.2-9.4,9.4v0.1C492.7,378.8,496.9,383,502.1,383L502.1,383z"/>
		<path class="st1" d="M518.2,386.9l12.7-27.5c0.1-0.3,0.4-0.5,0.7-0.5h0.4c0.3,0,0.6,0.2,0.7,0.5l12.6,27.5c0.2,0.4,0.1,0.8-0.3,1
			c-0.1,0.1-0.3,0.1-0.4,0.1H541c-0.5,0-1-0.3-1.2-0.8l-2-4.4h-12.2l-2,4.4c-0.2,0.5-0.7,0.8-1.2,0.8h-3.6c-0.4,0-0.7-0.3-0.8-0.7
			C518.1,387.1,518.1,387,518.2,386.9z M535.8,378.2l-4.1-9h-0.1l-4,9H535.8z"/>
		<path class="st1" d="M549,360.1c0-0.4,0.3-0.8,0.7-0.8h9.7c7.9,0,14.3,6.4,14.3,14.3s-6.4,14.3-14.3,14.3l0,0h-9.7
			c-0.4,0-0.7-0.4-0.7-0.8V360.1z M558.9,382.9c5.3,0,9.2-4,9.2-9.3s-3.9-9.3-9.2-9.3h-4.7V383L558.9,382.9z"/>
		<path class="st1" d="M579.1,360.1c0-0.4,0.4-0.8,0.8-0.8h3.8c0.4,0,0.8,0.4,0.8,0.8v27c0,0.4-0.4,0.7-0.8,0.8h-3.8
			c-0.4,0-0.8-0.4-0.8-0.8V360.1z"/>
		<path class="st1" d="M591.9,359.7c0-0.4,0.4-0.7,0.8-0.7h1l17,18.1l0,0v-16.9c0-0.4,0.3-0.8,0.8-0.8h3.8c0.4,0,0.8,0.4,0.8,0.8
			v27.5c0,0.4-0.4,0.7-0.8,0.7h-1l-17.1-18.7l0,0v17.6c0,0.4-0.3,0.8-0.8,0.8h-3.7c-0.4,0-0.8-0.4-0.8-0.8V359.7z"/>
		<path class="st1" d="M636.1,358.9c3.7,0,7.2,1.4,10,3.8c0.3,0.3,0.4,0.8,0.1,1.1l0,0l-2.6,2.7c-0.3,0.3-0.7,0.3-1,0.1
			c0,0-0.1,0-0.1-0.1c-1.7-1.5-3.9-2.4-6.2-2.4c-5.1,0-9.2,4.4-9.2,9.5s4.1,9.3,9.2,9.4c1.7,0,3.3-0.4,4.9-1v-3.5h-3.3
			c-0.4,0-0.8-0.3-0.8-0.7l0,0v-3.2c0-0.4,0.3-0.8,0.7-0.8c0,0,0,0,0.1,0h7.8c0.4,0,0.7,0.4,0.7,0.8V385c0,0.3-0.1,0.5-0.3,0.6
			c-3.1,1.7-6.6,2.7-10.1,2.7c-8.1,0-14.7-6.6-14.7-14.7C621.4,365.5,627.9,358.9,636.1,358.9L636.1,358.9z"/>
		<path class="st1" d="M661.5,360.1c0-0.4,0.4-0.8,0.8-0.8h3.8c0.4,0,0.8,0.4,0.8,0.8v27c0,0.4-0.4,0.7-0.8,0.8h-3.8
			c-0.4,0-0.8-0.4-0.8-0.8V360.1z"/>
		<path class="st1" d="M677.3,359.5c0-0.4,0.4-0.7,0.7-0.6h0.6c0.3,0,0.6,0.1,0.7,0.4l9,19.3h0.1l9-19.3c0.1-0.3,0.4-0.4,0.7-0.4
			h0.6c0.4,0,0.7,0.3,0.7,0.6l4.8,27.4c0.1,0.4-0.1,0.8-0.5,0.9c-0.1,0-0.2,0-0.3,0h-3.7c-0.4,0-0.7-0.3-0.8-0.6l-2.4-15.5h-0.1
			l-7.1,16.1c-0.1,0.3-0.4,0.5-0.7,0.5h-0.7c-0.3,0-0.6-0.2-0.7-0.5l-7.2-16h0l-2.4,15.5c-0.1,0.4-0.4,0.6-0.7,0.6h-3.7
			c-0.4,0-0.8-0.3-0.8-0.7c0-0.1,0-0.2,0-0.2L677.3,359.5z"/>
		<path class="st1" d="M706.3,386.9l12.7-27.5c0.1-0.3,0.4-0.5,0.7-0.5h0.4c0.3,0,0.6,0.2,0.7,0.5l12.6,27.5c0.2,0.4,0.1,0.8-0.3,1
			c-0.1,0.1-0.3,0.1-0.4,0.1h-3.6c-0.5,0-1-0.3-1.2-0.8l-2-4.4h-12.2l-2,4.4c-0.2,0.5-0.7,0.8-1.2,0.8H707c-0.4,0-0.7-0.3-0.8-0.7
			C706.2,387.1,706.2,387,706.3,386.9z M723.9,378.2l-4.1-9h-0.1l-4,9H723.9z"/>
		<path class="st1" d="M749.5,358.9c3.7,0,7.2,1.4,10,3.8c0.3,0.3,0.4,0.8,0.1,1.1l0,0l-2.6,2.7c-0.2,0.3-0.7,0.3-1,0.1l-0.1-0.1
			c-1.7-1.5-3.9-2.4-6.2-2.4c-5.1,0-9.2,4.4-9.2,9.5s4.1,9.3,9.2,9.4c1.7,0,3.3-0.4,4.9-1v-3.5h-3.3c-0.4,0-0.8-0.3-0.8-0.7l0,0
			v-3.2c0-0.4,0.3-0.8,0.7-0.8c0,0,0,0,0.1,0h7.8c0.4,0,0.7,0.4,0.7,0.8V385c0,0.3-0.1,0.5-0.3,0.6c-3.1,1.7-6.6,2.7-10.1,2.7
			c-8.1,0-14.7-6.6-14.7-14.7C734.8,365.5,741.4,358.9,749.5,358.9L749.5,358.9z"/>
		<path class="st1" d="M765.9,360.1c0-0.4,0.3-0.8,0.8-0.8h16.6c0.4,0,0.8,0.4,0.8,0.8v3.3c0,0.4-0.3,0.8-0.8,0.8l0,0h-12.1v6.7
			h10.1c0.4,0,0.8,0.4,0.8,0.8v3.4c0,0.4-0.3,0.8-0.8,0.8h-10v7.1h12.1c0.4,0,0.8,0.4,0.8,0.8v3.3c0,0.4-0.3,0.8-0.8,0.8h-16.6
			c-0.4,0-0.8-0.3-0.8-0.8L765.9,360.1z"/>
		<path class="st1" d="M791,381.6c1.9,0,3.4,1.5,3.4,3.4s-1.5,3.4-3.4,3.4l0,0c-1.9,0-3.4-1.5-3.4-3.4S789.2,381.6,791,381.6z"/>
		<path class="st1" d="M800.6,381.6c1.9,0,3.4,1.5,3.4,3.4s-1.5,3.4-3.4,3.4l0,0c-1.9,0-3.4-1.5-3.4-3.4
			C797.3,383.1,798.8,381.6,800.6,381.6z"/>
		<path class="st1" d="M810.2,381.6c1.9,0,3.4,1.5,3.4,3.4s-1.5,3.4-3.4,3.4l0,0c-1.9,0-3.4-1.5-3.4-3.4S808.4,381.6,810.2,381.6z"
			/>
	</g>
</g>
</svg>
