<svg xmlns="http://www.w3.org/2000/svg" viewBox="0 0 209.87 33"><defs><style>.cls-1{fill:#fff;}</style></defs><title>Asset 2</title><g id="Layer_2" data-name="Layer 2"><g id="Layer_1-2" data-name="Layer 1"><rect width="103" height="33"/><path class="cls-1" d="M10.52,12.89h0l-2.11,12H6L9.72,6l6.22,14.25L22.16,6l3.69,18.86H23.53L21.41,12.89h0L15.94,25.23Z"/><path class="cls-1" d="M34.14,12.89h0L32,24.84H29.65L33.35,6l6.22,14.25L45.78,6l3.7,18.86H47.15L45,12.89h0L39.57,25.23Z"/><path class="cls-1" d="M57.76,12.89h0l-2.12,12H53.28L57,6l6.22,14.25L69.41,6,73.1,24.84H70.77L68.66,12.89h0L63.19,25.23Z"/><path class="cls-1" d="M81.39,12.89h0l-2.11,12H76.9L80.6,6l6.21,14.25L93,6l3.7,18.86H94.4L92.29,12.89h-.05L86.81,25.23Z"/><path d="M119.51,25.89h-2.26v-16H113V7.79h10.85V9.85h-4.3Z"/><path d="M143.27,16.84a9.48,9.48,0,0,1-19,0,9.48,9.48,0,0,1,19,0Zm-2.26,0a7.23,7.23,0,1,0-14.45,0,7.23,7.23,0,1,0,14.45,0Z"/><path d="M148.52,13.93h0l-2.12,12H144L147.73,7,154,21.28,160.17,7l3.69,18.87h-2.33l-2.11-12h0L154,26.27Z"/><path d="M175.07,23.82h5.49v2.07h-7.75V7.79h2.26Z"/><path d="M186.4,25.89h-2.26V7.79h2.26Z"/><path d="M194.53,13.93h-.05l-2.11,12H190L193.74,7,200,21.28,206.17,7l3.7,18.87h-2.33l-2.11-12h-.05L200,26.27Z"/></g></g></svg>