<?xml version="1.0" encoding="utf-8"?>
<!-- Generator: Adobe Illustrator 23.0.3, SVG Export Plug-In . SVG Version: 6.00 Build 0)  -->
<svg version="1.1" id="Layer_1" xmlns="http://www.w3.org/2000/svg" xmlns:xlink="http://www.w3.org/1999/xlink" x="0px" y="0px"
	 viewBox="0 0 325 95.5" style="enable-background:new 0 0 325 95.5;" xml:space="preserve">
<style type="text/css">
	.st0{fill:#00D34B;}
</style>
<title>Asset 29</title>
<path class="st0" d="M24.8,9.3v55.5h-9.9V9.3H0V0h39.7v9.3H24.8z"/>
<path class="st0" d="M90.2,44.4c0,12.5-9.5,21.7-21.9,21.7C56,66.1,46.5,57,46.5,44.4S56,22.8,68.4,22.8
	C80.7,22.9,90.2,31.8,90.2,44.4z M80.5,44.5c0-9.3-6.1-13.1-12.2-13.1c-6,0-12.2,3.8-12.2,13.1c0,7.9,4.7,13,12.2,13
	S80.5,52.4,80.5,44.5z"/>
<path class="st0" d="M102.1,23.9h9.5v3.8c3.2-3.9,7-4.9,10.1-4.9c4.3,0,8.3,2,10.6,6c3.4-4.9,8.6-6,12.2-6c5,0,9.3,2.3,11.7,6.4
	c0.8,1.4,2.1,4.4,2.1,10.3v25.3h-9.5V42.3c0-4.6-0.5-6.4-0.9-7.3c-0.6-1.6-2-3.6-5.4-3.6c-2.3,0-4.4,1.3-5.6,3
	c-1.7,2.3-1.8,5.8-1.8,9.3v21.1h-9.5V42.3c0-4.6-0.5-6.4-0.9-7.3c-0.6-1.6-2-3.6-5.4-3.6c-2.3,0-4.4,1.3-5.6,3
	c-1.7,2.3-1.8,5.8-1.8,9.3v21.1h-9.5V23.9H102.1z"/>
<path class="st0" d="M208.6,0v55.5h19.1v9.3h-29V0H208.6z"/>
<path class="st0" d="M247.9,0.9c3.5,0,6.1,2.6,6.1,6.1s-2.6,6.1-6.1,6.1s-6.1-2.6-6.1-6.1S244.4,0.9,247.9,0.9z M252.7,23.9v40.9
	h-9.5V23.9H252.7z"/>
<path class="st0" d="M268.7,23.9h9.5v3.8c3.2-3.9,7-4.9,10.1-4.9c4.3,0,8.3,2,10.6,6c3.4-4.9,8.6-6,12.2-6c5,0,9.3,2.3,11.7,6.4
	c0.8,1.4,2.1,4.4,2.1,10.3v25.3h-9.5V42.3c0-4.6-0.5-6.4-0.9-7.3c-0.6-1.6-2-3.6-5.4-3.6c-2.3,0-4.4,1.3-5.6,3
	c-1.7,2.3-1.8,5.8-1.8,9.3v21.1h-9.5V42.3c0-4.6-0.5-6.4-0.9-7.3c-0.6-1.6-2-3.6-5.4-3.6c-2.3,0-4.4,1.3-5.6,3
	c-1.7,2.3-1.8,5.8-1.8,9.3v21.1H269V23.9H268.7z"/>
<rect x="0" y="80.5" class="st0" width="325" height="15"/>
</svg>
