<svg xmlns="http://www.w3.org/2000/svg" viewBox="0 0 220 33.32"><defs><style>.cls-1{fill:none;}.cls-2{fill:#fff;}.cls-3{font-size:24px;font-family:FuturaStd-Medium, Futura Std;font-weight:500;}.cls-4{letter-spacing:0.1em;}.cls-5{letter-spacing:0.07em;}</style></defs><title>Asset 6</title><g id="Layer_2" data-name="Layer 2"><g id="Layer_1-2" data-name="Layer 1"><rect class="cls-1" width="220" height="33"/><rect width="103" height="33" rx="2"/><path class="cls-2" d="M10.52,13.89h0l-2.11,12H6L9.72,7l6.22,14.25L22.16,7l3.69,18.86H23.53L21.41,13.89h0L15.94,26.23Z"/><path class="cls-2" d="M34.14,13.89h0L32,25.84H29.65L33.35,7l6.22,14.25L45.78,7l3.7,18.86H47.15L45,13.89h0L39.57,26.23Z"/><path class="cls-2" d="M57.76,13.89h0l-2.12,12H53.28L57,7l6.22,14.25L69.41,7,73.1,25.84H70.77L68.66,13.89h0L63.19,26.23Z"/><path class="cls-2" d="M81.39,13.89h0l-2.11,12H76.9L80.6,7l6.21,14.25L93,7l3.7,18.86H94.4L92.29,13.89h-.05L86.81,26.23Z"/><text class="cls-3" transform="translate(112.91 26.89)">TOM <tspan class="cls-4" x="58.18" y="0">L</tspan><tspan class="cls-5" x="69.81" y="0">I</tspan><tspan x="77.06" y="0">M</tspan></text></g></g></svg>