<svg xmlns="http://www.w3.org/2000/svg" viewBox="0 0 173.16 41.02"><defs><style>.cls-1{fill:#fff;}</style></defs><title>Asset 12</title><g id="Layer_2" data-name="Layer 2"><g id="Layer_1-2" data-name="Layer 1"><rect width="41.2" height="41.02" rx="1"/><path class="cls-1" d="M16.37,33.47H13.73a.3.3,0,0,1-.3-.3V10.51H7.58a.3.3,0,0,1-.3-.3V7.85a.29.29,0,0,1,.3-.3H22.82v3H16.67V33.17A.3.3,0,0,1,16.37,33.47Z"/><path class="cls-1" d="M26.05,30.51h7.57a.3.3,0,0,1,.3.3v2.36a.29.29,0,0,1-.3.3H23.12a.29.29,0,0,1-.3-.3V7.55h2.93a.29.29,0,0,1,.3.3Z"/><rect class="cls-1" x="7.28" y="19.18" width="26.64" height="2.66" rx="0.3"/><path d="M57.65,32.32H54.77V11.83H49.28V9.19H63.14v2.64H57.65Z"/><path d="M88,20.75a12.12,12.12,0,0,1-24.24,0,12.12,12.12,0,0,1,24.24,0Zm-2.89,0a9.24,9.24,0,1,0-18.47,0,9.24,9.24,0,1,0,18.47,0Z"/><path d="M94.74,17h-.06L92,32.32H89L93.73,8.21l8,18.22,7.94-18.22,4.73,24.11h-3L108.67,17h-.06l-6.93,15.77Z"/><path d="M128.67,29.68h7v2.64h-9.91V9.19h2.88Z"/><path d="M143.15,32.32h-2.88V9.19h2.88Z"/><path d="M153.55,17h-.06l-2.7,15.28h-3l4.72-24.11,8,18.22,7.95-18.22,4.72,24.11h-3L167.48,17h-.06l-6.93,15.77Z"/></g></g></svg>