<svg xmlns="http://www.w3.org/2000/svg" viewBox="0 0 62.95 41.45">

  <title>Asset 37</title>

  <path class="hi-hi hi-h" d="M6.84,0V19.45h.1a7.52,7.52,0,0,1,6.26-2.78c6.45,0,8.3,4.54,8.3,10.11V41.45H14.66V28.74c0-2.89.15-6.6-3.71-6.6-4.06,0-4.11,4.55-4.11,7.43V41.45H0V0Z"/>
  <path class="hi-hi hi-i" d="M33.58,41.45H26.74v-24h6.84Z"/>
  <path class="hi-hi hi-wave" d="M63,28.1c-1.51,2.64-3.91,7-7.43,7-2.1,0-3.71-1.22-5.23-2.15-1.9-1.17-3.47-2.59-4.79-2.59-1.07,0-2.15,2.35-2.73,3.76l-4.84-4.3c1.81-2.34,4-7.08,7.48-7.08,1.8,0,3.86,1.22,5.47,2.49,1.32,1.12,3.28,2.3,4.59,2.3,1.13,0,2.2-2.59,2.64-3.82Z"/>
  <circle id="hi-circle"  class="hi-hi hi-circle" cx="30.16" cy="7.38" r="4.06">
    <animateTransform attributeName="transform"
             type="translate"
             attributeType="XML"
             dur="1.15s"
             values="0 -4 ; 0 6 ; 0 -4 "
             keyTimes="0 ; 0.5 ; 1"
             repeatCount="indefinite"
             calcMode="spline"
             keySplines="0.6 0.08 0.8 0.60;
                         0.2 0.40 0.4 0.92" />
  </circle>

</svg>
