<svg xmlns="http://www.w3.org/2000/svg" viewBox="0 0 60.04 47.47">
  <defs>
    <style>
      .cls-1{fill:#231f20;}
    </style>
  </defs>
  <title>logo-name</title>
    <path class="cls-1" d="M8.33,21.57H4.24V4.13H0V.56H12.57V4.13H8.33Z"/>
    <path class="cls-1" d="M25.23,22.13c-6.41,0-10.4-4.9-10.4-11.09S19,0,25.23,0,35.62,4.79,35.62,11,31.64,22.13,25.23,22.13ZM25.23,4c-3.88,0-6.16,3.43-6.16,6.83,0,3.23,1.61,7.22,6.16,7.22s6.16-4,6.16-7.22C31.39,7.47,29.1,4,25.23,4Z"/>
    <path class="cls-1" d="M54.24,8.53h-.06L49.42,21.85H48L43.4,8.53h-.06l-1.87,13H37.35L40.89,0h2.9L49,13.85,53.93,0h3L60,21.57H55.91Z"/>
    <path class="cls-1" d="M54.24,34.14h-.06L49.42,47.47H48L43.4,34.14h-.06l-1.87,13H37.35l3.54-21.58h2.9L49,39.47l5-13.86h3L60,47.19H55.91Z"/>
    <polygon class="cls-1" points="11.73 43.62 6.79 43.62 5.93 43.62 5.93 26.17 1.84 26.17 1.84 47.19 6.79 47.19 11.73 47.19 12.57 47.19 12.57 43.62 11.73 43.62"/>
    <polygon class="cls-1" points="31.84 29.74 31.84 26.17 27.27 26.17 23.18 26.17 18.62 26.17 18.62 29.74 23.18 29.74 23.18 43.62 18.62 43.62 18.62 47.19 23.18 47.19 27.27 47.19 31.84 47.19 31.84 43.62 27.27 43.62 27.27 29.74 31.84 29.74"/>
</svg>
