<?xml version="1.0" encoding="utf-8"?>
<!-- Generator: Adobe Illustrator 23.0.6, SVG Export Plug-In . SVG Version: 6.00 Build 0)  -->
<svg version="1.1" id="Layer_1" xmlns="http://www.w3.org/2000/svg" xmlns:xlink="http://www.w3.org/1999/xlink" x="0px" y="0px"
	 viewBox="0 0 173.2 41" style="enable-background:new 0 0 173.2 41;" xml:space="preserve">
<style type="text/css">
	.st0{fill:#FFFFFF;}
</style>
<title>Asset 12</title>
<g>
	<g id="Layer_1-2">
		<path d="M1,0h39.2c0.6,0,1,0.4,1,1v39c0,0.6-0.4,1-1,1H1c-0.6,0-1-0.4-1-1V1C0,0.4,0.4,0,1,0z"/>
		<path class="st0" d="M16.4,33.5h-2.6c-0.2,0-0.3-0.1-0.3-0.3V10.5H7.6c-0.2,0-0.3-0.1-0.3-0.3l0,0V7.8c0-0.2,0.1-0.3,0.3-0.3
			c0,0,0,0,0,0h15.2v3h-6.1v22.6C16.7,33.3,16.5,33.5,16.4,33.5L16.4,33.5z"/>
		<path class="st0" d="M26,30.5h7.6c0.2,0,0.3,0.1,0.3,0.3v2.4c0,0.2-0.1,0.3-0.3,0.3c0,0,0,0,0,0H23.1c-0.2,0-0.3-0.1-0.3-0.3
			c0,0,0,0,0,0V7.6h2.9c0.2,0,0.3,0.1,0.3,0.3c0,0,0,0,0,0L26,30.5z"/>
		<path class="st0" d="M7.6,19h26c0.2,0,0.3,0.2,0.3,0.3v2.3c0,0.2-0.1,0.3-0.3,0.3h-26c-0.2,0-0.3-0.2-0.3-0.3v-2.3
			C7.3,19.2,7.4,19,7.6,19z"/>
		<path d="M57.7,32.3h-2.9V11.8h-5.5V9.2h13.9v2.6h-5.5V32.3z"/>
		<path d="M88,20.8c0,6.7-5.4,12.1-12.1,12.1c-6.7,0-12.1-5.4-12.1-12.1c0-6.7,5.4-12.1,12.1-12.1C82.6,8.6,88,14.1,88,20.8z
			 M85.1,20.8c0.2-5.1-3.8-9.4-8.9-9.5c-5.1-0.2-9.4,3.8-9.5,8.9c0,0.2,0,0.4,0,0.6c-0.2,5.1,3.8,9.4,8.9,9.5
			c5.1,0.2,9.4-3.8,9.5-8.9C85.1,21.2,85.1,21,85.1,20.8z"/>
		<path d="M94.7,17L94.7,17L92,32.3h-3l4.7-24.1l8,18.2l7.9-18.2l4.7,24.1h-3L108.7,17h-0.1l-6.9,15.8L94.7,17z"/>
		<path d="M128.7,29.7h7v2.6h-9.9V9.2h2.9L128.7,29.7z"/>
		<path d="M143.1,32.3h-2.9V9.2h2.9V32.3z"/>
		<path d="M153.6,17L153.6,17l-2.8,15.3h-3l4.7-24.1l8,18.2l7.9-18.2l4.7,24.1h-3L167.5,17h-0.1l-6.9,15.8L153.6,17z"/>
	</g>
</g>
</svg>
