<?xml version="1.0" encoding="utf-8"?>
<!-- Generator: Adobe Illustrator 23.0.6, SVG Export Plug-In . SVG Version: 6.00 Build 0)  -->
<svg version="1.1" id="Layer_1" xmlns="http://www.w3.org/2000/svg" xmlns:xlink="http://www.w3.org/1999/xlink" x="0px" y="0px"
	 viewBox="0 0 1528.8 1938.7" style="enable-background:new 0 0 1528.8 1938.7;" xml:space="preserve">
<style type="text/css">
	.st0{fill:#404041;}
	.st1{fill:#EA5532;}
	.st2{fill:#F4F7F9;}
	.st3{fill:#424143;}
	.st4{fill:#F7E1BC;}
	.st5{fill:#F6CEA4;}
	.st6{fill:#E8E0C3;}
	.st7{fill:none;}
</style>
<title>Asset 3</title>
<g>
	<path class="st0" d="M1065.2,1662.6c8.4-8,8.6-21.3,0.6-29.7c-8-8.4-21.3-8.6-29.7-0.6c-8.4,8.1-8.6,21.3-0.6,29.7
		c0.2,0.2,0.4,0.4,0.6,0.6c-13.5,8-17.8,25.4-9.8,38.9c8,13.5,25.4,17.8,38.9,9.8c13.5-8,17.8-25.4,9.8-38.9
		C1072.6,1668.4,1069.2,1665.1,1065.2,1662.6z M1039.6,1647.5c0-6.1,4.9-11.1,11-11.1c6.1,0,11.1,4.9,11.1,11
		c0,6.1-4.9,11.1-11,11.1l0,0C1044.6,1658.6,1039.6,1653.6,1039.6,1647.5L1039.6,1647.5z M1050.7,1705.4c-10.1,0-18.5-8.2-18.5-18.5
		c0-10.2,8.2-18.5,18.5-18.5s18.5,8.2,18.5,18.5C1069,1697.1,1060.8,1705.4,1050.7,1705.4z"/>
	<path class="st0" d="M975,1715.4h-10c0-5.4,0.4-10.8,1.3-16.1c1-6.4,2.4-12.8,4.4-18.9c5.5-17.8,15.1-33.8,24.7-43.6H962v-10h51.3
		v10c-6.5,0-24,17.7-33.1,46.6c-1.8,5.7-3.2,11.5-4,17.4C975.4,1705.5,975,1710.5,975,1715.4z"/>
	<path class="st0" d="M1194.2,1715.4c-20,0-36.1-19.9-36.1-44.5s16.2-44.5,36.1-44.5c20,0,36.1,19.9,36.1,44.5
		S1214.1,1715.4,1194.2,1715.4z M1194.2,1636.4c-14.4,0-26.2,15.5-26.2,34.5s11.7,34.5,26.2,34.5c14.5,0,26.2-15.5,26.2-34.5
		S1208.7,1636.4,1194.2,1636.4z"/>
	<path class="st0" d="M916.7,1659.2c-2.8,0-5.5,0.4-8.1,1.2c6.7-9.7,15.7-19.1,29.5-28l-9.1-5.9c-23.2,16-40.3,41-40.3,59.4v1.3
		c0,15.5,12.6,28.1,28.1,28.1c15.5,0,28.1-12.6,28.1-28.1C944.7,1671.7,932.1,1659.2,916.7,1659.2L916.7,1659.2z M916.7,1705.4
		c-10,0-18.1-8.1-18.1-18.1c0-10,8.1-18.1,18.1-18.1c10,0,18.1,8.1,18.1,18.1C934.7,1697.2,926.6,1705.4,916.7,1705.4L916.7,1705.4z
		"/>
	<path class="st0" d="M1119.9,1682.6c2.8,0,5.5-0.4,8.1-1.2c-6.7,9.7-15.7,19.1-29.5,28l9.1,5.9c23.2-15.9,40.3-41,40.3-59.4v-1.3
		c0-15.5-12.6-28.1-28.1-28.1c-15.5,0-28.1,12.6-28.1,28.1C1091.9,1670.1,1104.5,1682.6,1119.9,1682.6z M1119.9,1636.4
		c10,0,18.1,8.1,18.1,18.1s-8.1,18.1-18.1,18.1c-10,0-18.1-8.1-18.1-18.1S1109.9,1636.4,1119.9,1636.4L1119.9,1636.4z"/>
</g>
<g>
	<path class="st0" d="M1058.3,1217.6c0,7.8-1.5,18.7-9,26.2c-4.4,4.4-10.1,6.9-17.3,7.8v-33.9h-10v0.2c0,7.8-1.6,18.5-9,26
		c-4.4,4.4-10.1,7-17.3,7.8v-80h-10v90.3h5c12.2,0,22.1-3.6,29.3-10.9c0.7-0.7,1.3-1.4,2-2.1v13.1h5c12.2,0,22.1-3.6,29.3-10.9
		c7.8-7.8,12-19.3,12-33.3v-46h-10V1217.6z"/>
	<path class="st0" d="M892.4,1237.3c-0.2,7.1-6.2,12.8-13.3,12.6c-6.9-0.2-12.4-5.7-12.6-12.6v-65.7h-10v65.7
		c0.2,12.7,10.8,22.7,23.5,22.4c12.3-0.2,22.2-10.1,22.4-22.4v-65.7h-10V1237.3z"/>
	<path class="st0" d="M1256,1213.5c4.2-11.9,6.4-24.3,6.5-36.9v-5H1224v10h28.4c-0.6,9.7-2.5,19.4-5.8,28.7
		c-5.6,16.2-15.3,31.7-25.8,41.3l-9.4,8.7h50.8v-10h-26.4C1244.5,1239.2,1251.4,1226.8,1256,1213.5z"/>
	<polygon class="st0" points="958.7,1171.5 943.2,1227.2 927.8,1171.5 917.4,1171.5 943.2,1264.7 969,1171.5 	"/>
	<path class="st0" d="M1135.4,1226.3c-4.1-11.6-10-22.4-17.3-32.3c5.3-5.9,10.5-10.1,14.9-12v-10.5c-6.7,1.6-14.3,7-21.3,14.7
		c-7.1-7.7-14.6-13.1-21.3-14.7v10.5c4.4,1.8,9.6,6,14.9,12c-7.4,9.8-13.2,20.8-17.4,32.3c-2.3,6.4-4,13-5.2,19.7
		c-0.8,4.8-1.3,9.6-1.3,14.4l10,0.2c0.1-4.4,0.5-8.7,1.2-13c1-6.1,2.6-12.1,4.7-18c3.5-9.7,8.3-19,14.3-27.5
		c6,8.5,10.9,17.7,14.3,27.5c2.1,5.9,3.6,11.9,4.7,18c0.7,4.3,1.1,8.6,1.2,13l10-0.2c-0.1-4.8-0.6-9.7-1.3-14.4
		C1139.5,1239.3,1137.7,1232.7,1135.4,1226.3z"/>
	<path class="st0" d="M1196.4,1171.6c-4.5,10.2-10.7,19.7-18.1,28.1c-7.4-8.4-13.6-17.8-18.1-28.1h-10.8
		c5.8,14.2,14.4,27.6,23.9,37.2v51.5h10v-51.5c9.5-9.6,18.1-23.1,23.9-37.2H1196.4z"/>
</g>
<g>
	<rect x="965.1" y="1835.3" class="st0" width="10" height="13.3"/>
	<rect x="1015.1" y="1835.3" class="st0" width="10" height="13.3"/>
	<rect x="1015.1" y="1818.9" class="st0" width="10" height="13.3"/>
	<path class="st0" d="M996.3,1858.1l-8.6-4.9c1.3-2.3,2.5-4.8,3.3-7.4v-10.4h10v10.6C1000.9,1849.4,998,1855,996.3,1858.1z"/>
	<rect x="1043.9" y="1818.9" class="st0" width="10" height="13.3"/>
	<path class="st0" d="M1047.2,1855.8l-8.3-5.4c2-2.9,3.6-6,5-9.3v-5.8h9.9v6C1053.8,1844.1,1051.6,1849,1047.2,1855.8z"/>
	<path class="st0" d="M926.4,1790.6c-5.8,0-10.5-4.7-10.5-10.5s4.7-10.5,10.5-10.5c4.2,0,8,2.5,9.7,6.5c0.2,0.6,0.4,1,0.5,1.6
		l7.4-7.9c-3-5.2-8-8.6-13.9-9.7v-6.2h-10v6.7c-10.7,3.4-16.6,14.9-13.2,25.6c2.7,8.4,10.4,14.1,19.2,14.2l0,0
		c10.6,0.6,18.7,9.6,18.1,20.2c-0.6,10.6-9.6,18.7-20.2,18.1c-8.5-0.5-15.7-6.4-17.7-14.7c-0.2-0.9-0.3-1.7-0.4-2.7l-7.8,9.4
		c3.8,9.3,12.1,15.9,22,17.6v5.9h10v-6c15.8-2.8,26.5-17.8,23.8-33.7C951.6,1801.2,940.1,1791.1,926.4,1790.6L926.4,1790.6z"/>
	<rect x="1074.4" y="1835.3" class="st0" width="10" height="13.3"/>
	<rect x="1074.4" y="1759.9" class="st0" width="10" height="72.3"/>
	<rect x="1118.9" y="1838.7" class="st0" width="10" height="10"/>
	<path class="st0" d="M1129.7,1821c-0.3,1.8-1.7,3.4-3.4,4c-1.3,0.4-2.6,0.3-3.8-0.2c-2.1-1-3-3.4-2.1-5.5c0.1-0.1,0.1-0.2,0.2-0.3
		c0.6-1.1,1.7-2,2.9-2.4c0.3-0.1,0.6-0.2,0.9-0.2c15.5-2.2,26.2-16.6,24-32.1c-2.2-15.5-16.6-26.2-32.1-24
		c-7.6,1.1-14.5,5.2-19,11.6l6,9.7c3.8-9.4,14.4-14,23.9-10.2c9.4,3.8,14,14.4,10.2,23.9c-2.5,6.1-7.9,10.5-14.4,11.3
		c-0.9,0.2-1.7,0.3-2.5,0.6c-3.7,1.2-6.8,3.7-8.6,7.1c-3.8,6.8-1.3,15.4,5.5,19.2c0.2,0.2,0.5,0.2,0.7,0.4c2.1,1,4.3,1.5,6.5,1.5
		c1.6,0,3.2-0.2,4.7-0.7c3.5-1.1,6.4-3.4,8.3-6.5L1129.7,1821z"/>
	<path class="st0" d="M1220.6,1848.6c-4-5.2-8.3-12.5-8.3-16.3v-31.1h8.3v-9.8h-8.3v-8.7h-9.8v8.7h-3.3c-7.9,0-13.9-1.9-17.6-5.7
		c-4.4-4.4-5.4-10.9-5.6-16h29v-9.8H1166v5.7c0,5.9-0.1,18.3,8.6,27c0.1,0.1,0.2,0.2,0.2,0.2c-15,4.9-23.2,21-18.3,36.1
		c4.9,15,21,23.2,36.1,18.3c4.4-1.4,8.4-3.9,11.6-7.2c1.2,3,2.7,5.9,4.5,8.7H1220.6z M1202.5,1819.9c0,10.4-8.4,18.8-18.8,18.8
		s-18.8-8.4-18.8-18.8c0-10.4,8.4-18.8,18.8-18.8l0,0h18.8V1819.9z"/>
</g>
<path class="st0" d="M1133.2,1582.2h-10v-18h-33.9v-5c0-4,0.3-8,1-12c0.8-4.8,1.9-9.4,3.5-14c7.3-21.6,23.1-39.8,34.4-39.8h5v60.8
	h5.9v10h-5.9L1133.2,1582.2L1133.2,1582.2z M1099.5,1554.3h23.8v-48.5c-6.1,4.6-14.9,15.6-20,30.7c-1.3,4-2.4,8.2-3.1,12.4
	C1099.9,1550.7,1099.7,1552.5,1099.5,1554.3L1099.5,1554.3z"/>
<path class="st0" d="M921.5,1493.5c-1.6,7.4-5.3,14.2-10.7,19.5v11.6c3.7-1.3,7.4-4.5,10.8-8.7v66.2h10v-88.7L921.5,1493.5
	L921.5,1493.5z"/>
<path class="st0" d="M971.6,1572.3c14.1-11.3,34.9-31.5,34.9-52.4c0-12.4-6.5-21.8-17.4-25.1c-10.7-3.2-22.4,0.2-28,8.4
	c-7.2,10.7-4.4,24.3,2.1,32.4l7.8-6.3c-4.1-5.2-5.9-14.3-1.6-20.5c3-4.4,10.5-6.4,16.8-4.4c3.9,1.2,10.3,4.8,10.3,15.6
	c0,19.7-26.9,42.2-40.3,51.3v10.9h51v-10L971.6,1572.3z"/>
<path class="st0" d="M1180.5,1526.9c-1.8,0-3.6,0.2-5.4,0.6c2.7-7.8,3.9-15.9,3.6-24.1h25.6v-10h-36.8l0.8,5.6
	c2.9,20.3-7.8,36.6-7.9,36.8l7.7,6.3c6.9-6.9,18.1-6.9,25,0c6.9,6.9,6.9,18.1,0,25c-6.9,6.9-18.1,6.9-25,0
	c-3.3-3.3-5.2-7.8-5.2-12.5l-9.6,4.4c2.5,15.1,16.7,25.2,31.8,22.7c15.1-2.5,25.2-16.7,22.7-31.8
	C1205.4,1536.8,1193.9,1526.9,1180.5,1526.9z"/>
<path class="st0" d="M1059.4,1528.4c0.7-0.6,1.4-1.2,2.1-1.8c8.7-8.7,8.6-21.2,8.6-27.2v-5.7h-39.2v9.8h29.4
	c-0.2,5.1-1.2,11.7-5.7,16.2c-3.8,3.8-9.7,5.7-17.8,5.7h-0.8v9.8h10.8c10.3,0,18.6,8.3,18.6,18.6c0,10.3-8.3,18.6-18.6,18.6
	c-7.8,0-14.7-4.8-17.4-12l-8.5,5.2c6.5,14.3,23.4,20.5,37.6,14c14.3-6.5,20.5-23.4,14-37.6
	C1069.8,1536.1,1065.2,1531.3,1059.4,1528.4L1059.4,1528.4z"/>
<g>
	<path class="st0" d="M1086.1,812.9c13.3,10.1,27.3,24.2,27.3,37.6c0,7.9-3.8,20.7-27.3,23.5V812.9 M1076.2,884.3
		c33.6,0,47.2-15.7,47.2-33.9c0-26-35.5-49.4-47.2-55.9V884.3z"/>
	<path class="st0" d="M948.9,884.7h-5v-89.8l6.1,1.3c17.5,4,29.4,12.9,31.1,23.3c0.7,4.4-0.6,8.8-3.4,12.1c3.1,2.8,5.8,5.9,8.1,9.4
		c6.1,9.4,7.1,19.3,2.8,27.4C984.6,875.9,974.4,884.7,948.9,884.7z M953.9,835.8v38.9c13.3-0.7,22.4-4.5,25.9-10.9
		c2.5-4.8,1.7-11-2.4-17.2c-2.9-4.1-6.3-7.8-10.5-10.7l-5.9-4.4l6.3-3.8c3-1.8,4.3-4,4-6.4c-0.7-4.3-6.4-9.8-17.4-13.6V835.8z"/>
	<path class="st0" d="M1032.8,813.1c5.8-3.5,12-5.9,18.6-7.4l-1-4.9l-1-4.9c-15.3,2.9-44.1,16.1-44.1,45.2s29,41.3,44.4,43.5
		l1.4-9.9c-6.5-1.2-12.8-3.4-18.6-6.5c-11.4-6.4-17.3-15.5-17.3-27.1C1015.4,829.6,1021.3,820.2,1032.8,813.1z"/>
	<path class="st0" d="M1140.2,884.3h39.6v-10h-29.6v-29.7c0-3.2,9.2-13.6,24.4-19l-3.3-9.4c-7.7,2.7-14.8,6.8-21,12.1v-22.6h29.6
		v-10h-39.7L1140.2,884.3L1140.2,884.3z"/>
	<path class="st0" d="M1214.4,827.5v-22.3h29.5v-10h-39.5v88.7h10v-40.1l0,0c0-3.2,9.1-13.6,24.2-18.9l-3.3-9.4
		C1227.7,818.2,1220.6,822.3,1214.4,827.5z"/>
	<path class="st0" d="M875,794.9v89.8h9.9v-38.4h22.3c5.2,12.1,7.8,25.2,8.1,38.4h10C925.3,872.6,922,823.1,875,794.9z M885,836.4
		v-21.9c7,6.3,12.8,13.7,17.5,21.9H885z"/>
</g>
<g>
	<polygon class="st0" points="974.2,1392.4 989.6,1336.7 1005,1392.4 1015.4,1392.4 989.6,1299.2 963.9,1392.4 	"/>
	<path class="st0" d="M1031.7,1392.4h9.9c0.2-13.2,2.9-26.2,8-38.4h22.4v38.4h9.9v-89.8C1035,1330.8,1031.8,1380.2,1031.7,1392.4z
		 M1054.6,1344.1c4.7-8.2,10.5-15.5,17.5-21.9v21.9H1054.6z"/>
	<path class="st0" d="M1104.7,1302.6v89.8h9.9v-32.3h24.8c3.6,10.4,5.5,21.2,5.7,32.3h9.9
		C1154.9,1380.2,1151.7,1330.8,1104.7,1302.6z M1114.6,1350.1v-27.9c8.6,7.8,15.7,17.4,20.7,28L1114.6,1350.1z"/>
</g>
<g>
	<path class="st0" d="M1246.2,916.9h-5V930c-0.6-0.7-1.3-1.4-2-2.1c-7.2-7.3-17.1-10.9-29.3-10.9h-5v90.3h10v-80
		c7.1,0.8,13,3.4,17.3,7.8c7.4,7.4,9,18.2,9,26.1v0.2h10v-33.9c7.1,0.8,12.9,3.4,17.3,7.7c7.4,7.4,9,18.4,9,26.2v46h10v-46
		c0-13.9-4.1-25.4-12-33.3C1268.3,920.7,1258.4,916.9,1246.2,916.9z"/>
	<rect x="978.1" y="918.7" class="st0" width="10" height="88.8"/>
	<path class="st0" d="M937.4,945.4c-3.6-1.2-7.4-1.7-11.3-1.7c-4-0.1-7.9,0.6-11.6,1.9v-26.9h-10v88.8h10v-50.9
		c3.6-2.1,7.6-3,11.6-2.9c4-0.1,7.8,0.8,11.3,2.6v51.2h10v-88.8h-10V945.4z"/>
	<polygon class="st0" points="1153,918.4 1143.1,918.4 1143.1,1007.2 1179.7,1007.2 1179.7,997.2 1153,997.2 	"/>
	<path class="st0" d="M1014.3,1020.7l9,5.5c5.5-5.2,8.6-11.7,8.6-18.6v-88.8h-10v88.8C1021.9,1013.9,1017.1,1018.5,1014.3,1020.7z"
		/>
	<rect x="1064.8" y="918.4" class="st0" width="10" height="88.5"/>
	<path class="st0" d="M1091.8,949.9l15-31.5h-11.1l-16.2,34.1l3,2.5c0.2,0.2,17,14.1,22.1,31.3c2,6.7,3.1,13.6,3.2,20.6l10-0.1
		c-0.2-7.9-1.3-15.8-3.6-23.3C1109.6,967.9,1097.4,955.2,1091.8,949.9z"/>
	<path class="st0" d="M868.9,943.9h-12.2v10h12.2v34.9c-13.4-10.1-27.5-24.3-27.5-37.6c0-8.3,4.2-22,30.9-23.9v-10
		c-28.9,1.9-40.8,16.7-40.8,33.8c0,26.1,35.6,49.4,47.4,56.1v-63.2H868.9L868.9,943.9z"/>
</g>
<path class="st0" d="M1049.5,691.1c-5.6,0-13.4,8.6-17,18.6c-0.8,2.1-1.3,4.3-1.7,6.6c-0.3,1.8-0.5,3.7-0.5,5.6
	c0,6.4,1.9,11.7,5.5,15.4c3.4,3.4,7.9,5.1,13.6,5.1c8.6,0,13.1-4,15.5-7.2c4.4-6.1,4.9-15.8,1.5-25.4
	C1062.9,699.6,1055.1,691.1,1049.5,691.1z M1060.4,731.8c-2.3,3.2-5.9,4.9-10.9,4.9c-4.1,0-7.4-1.2-9.7-3.5c-3.2-3.2-4-8.1-4-11.5
	c0-1.6,0.2-3.2,0.4-4.7c0.3-1.9,0.8-3.8,1.4-5.6c3.2-9.1,9.6-14.9,11.7-14.9c2.1,0,8.6,5.8,11.7,14.9l0,0
	C1064,719.4,1063.7,727.1,1060.4,731.8L1060.4,731.8z"/>
<path class="st0" d="M1105.2,694.4l-4.2-2.6v49.8h2.8c8.1,0,15.1-3.2,19-8.9c3.7-5.5,4.5-12.4,2.1-18.5
	C1121.7,704.7,1106.8,695.4,1105.2,694.4z M1118.2,729.4c-2.5,3.6-6.7,5.9-11.8,6.4v-34c4.9,3.6,11.6,9.3,13.2,14
	C1121.5,720.3,1120.9,725.4,1118.2,729.4L1118.2,729.4z"/>
<path class="st0" d="M1019.2,711.9c1-1,1.6-2.3,1.9-3.7c0.5-2.9-0.4-5.9-2.3-8c-3.4-4.3-10.7-8.1-15.5-8.1h-2.8v49h2.8
	c14.1,0,19.7-4.8,21.9-9c2.4-4.4,1.8-10-1.5-15.1C1022.4,715.2,1020.9,713.4,1019.2,711.9z M1020.3,729.5c-1.9,3.5-6.9,5.6-14.3,6
	v-37.3c3.2,1,6.3,2.9,8.6,5.5c0.9,1,1.3,2.2,1.3,3.5c-0.3,1-1.1,1.9-2.1,2.3l-3.8,2.1l3.5,2.6c2.2,1.7,4.2,3.6,5.8,5.9
	C1021.2,723.5,1021.7,726.9,1020.3,729.5L1020.3,729.5z"/>
<polygon class="st0" points="1078.9,692.2 1073.4,692.2 1073.4,741.2 1093.5,741.2 1093.5,735.6 1078.9,735.6 "/>
<path class="st0" d="M1178.5,716.9v-2.2h-5.8c0.3-0.2,0.6-0.6,1-0.9c3.2-3.2,4.8-7.4,4.8-12.9v-2.1h-39.6v4.4h35.1
	c-0.2,2.9-1.4,5.5-3.4,7.6c-3.2,3.2-8,4-11.4,4h-0.1v4.4h14.9c-0.2,2.9-1.4,5.5-3.4,7.6c-3.3,3.3-8.1,4-11.5,4h-20.3v4.4h20.3
	c6.1,0,11.2-1.8,14.6-5.2C1176.9,726.6,1178.5,722.3,1178.5,716.9z"/>
<path class="st0" d="M940.4,716.9v-2.2h5.7c-0.3-0.2-0.6-0.6-1-0.9c-3.2-3.2-4.8-7.4-4.8-12.9v-2.1H980v4.4h-35.2
	c0.2,2.9,1.4,5.5,3.4,7.6c3.2,3.2,8,4,11.4,4h0.1v4.4h-14.9c0.2,2.9,1.4,5.5,3.4,7.6c3.2,3.3,8.1,4,11.5,4H980v4.4h-20.3
	c-6.1,0-11.2-1.8-14.6-5.2C942.1,726.6,940.4,722.3,940.4,716.9z"/>
<g>
	<path class="st0" d="M921.6,1036.8c-10.1,0-24.2,15.5-30.7,33.8c-1.3,3.9-2.4,7.8-3.1,11.9c-0.6,3.3-0.9,6.7-0.9,10.1
		c0,11.6,3.5,21.3,10.1,27.9c6.1,6.1,14.4,9.2,24.6,9.2c15.5,0,23.7-7.1,28-13.2c7.8-11.1,8.9-28.8,2.8-46
		C945.9,1052.3,931.8,1036.8,921.6,1036.8z M941.5,1110.8c-4.2,5.9-10.9,8.9-19.8,8.9c-7.5,0-13.4-2.1-17.6-6.3
		c-5.9-5.9-7.1-14.6-7.1-20.8c0-2.9,0.2-5.7,0.7-8.6c0.6-3.5,1.5-6.9,2.7-10.2c5.9-16.6,17.4-27.1,21.3-27.1
		c4,0,15.5,10.5,21.3,27.1l0,0C948,1088.2,947.5,1102.3,941.5,1110.8L941.5,1110.8z"/>
	<path class="st0" d="M858.6,1050c-0.6-0.7-1.3-1.5-2-2.2c-7.2-7.2-17-10.9-29.3-10.9h-5v90.3h10v-80c7.1,0.8,12.9,3.4,17.3,7.8
		c7.4,7.4,9,18.4,9,26.2v46h10v-90.3h-10V1050z"/>
	<path class="st0" d="M983.5,1042l-7.6-4.7v90.3h10v-25.3c8.3-1.1,15.3-5.1,19.7-11.3c4.8-6.8,5.9-15.6,2.9-24.2
		C1004.1,1055,985.6,1043.4,983.5,1042z M997.3,1085.4c-2.8,3.7-6.9,6.2-11.5,6.9v-36.4c5.7,4.4,11.5,10.1,13.1,14.4
		C1000.9,1075.8,1000.3,1081.2,997.3,1085.4z"/>
	<path class="st0" d="M1165.5,1127.6l-16.9-30.7c2.3-1.6,4.3-3.6,5.9-5.9c4.8-6.8,5.9-15.6,2.9-24.2c-4.3-12-22.7-23.6-24.9-25
		l-7.6-4.7v90.3h10v-25.3c1.6-0.2,3.2-0.6,4.8-1l14.5,26.3H1165.5z M1134.8,1092.3v-36.4c5.7,4.4,11.5,10.1,13.1,14.4
		c2,5.5,1.3,10.9-1.6,15.1C1143.5,1089.1,1139.4,1091.6,1134.8,1092.3z"/>
	<path class="st0" d="M1105.7,1124.5c-5.3-2.1-10.5-4.7-15.4-7.5c7.8-11.2,8.8-28.7,2.7-45.8l0,0c-6.5-18.3-20.6-33.8-30.8-33.8
		c-10.2,0-24.3,15.5-30.8,33.8c-1.3,3.9-2.4,7.8-3.1,11.9c-0.6,3.3-0.9,6.7-0.9,10.1c0,11.6,3.5,21.3,10.1,27.9
		c6.1,6.1,14.4,9.2,24.7,9.2c9.2,0,15.8-2.5,20.6-5.8c6.1,3.7,12.4,6.9,19,9.6L1105.7,1124.5z M1062.2,1119.9
		c-7.4,0-13.2-2.1-17.4-6.2c-5.9-5.9-7.1-14.4-7.1-20.6c0-2.9,0.2-5.6,0.7-8.5c0.6-3.4,1.4-6.8,2.6-10.1
		c5.9-16.7,17.5-26.9,21.1-26.9s15.1,10.1,21.1,26.9c5,14.1,4.4,28.1-1.5,36.5c0,0-0.1,0.1-0.2,0.2c-4.7-3.2-9-7-13-11.1l-7.4,7.2
		c3.7,3.8,7.8,7.4,12,10.5C1069.7,1119.3,1065.9,1119.9,1062.2,1119.9z"/>
	<path class="st0" d="M1191.6,1129.6c-4.9,0-11.7-1.7-16.3-6.2l7.1-7.1c2.3,2.3,6.3,3.2,9.3,3.2c14.7,0,20.6-10.4,20.6-35.7
		c0-19.7,3.2-45.7,30.6-45.7v10c-14.7,0-20.6,10.4-20.6,35.7C1222.3,1103.5,1219,1129.6,1191.6,1129.6z"/>
	<polygon class="st0" points="1281.8,1038.2 1281.8,1038.2 1257,1038.2 1257,1048.1 1271.8,1048.1 1271.8,1126.8 1281.8,1126.8 
		1281.8,1048.1 1296.6,1048.1 1296.6,1038.2 	"/>
</g>
<rect x="1054.5" y="1437.9" class="st0" width="10" height="13.3"/>
<g>
	<path class="st0" d="M532.8,867.1c6.7-9.4,8-21.5,3.9-33.2c-6.1-17.2-35-35.2-36.2-36l-5.7-3.5v88.8h3.7
		C513.1,883.2,525.6,877.3,532.8,867.1z M502.1,808.1c8.5,5.9,23.6,17.8,27.4,28.3c3.3,9.4,2.3,19-2.9,26.4
		c-5.2,7.4-13.9,11.8-24.5,12.7V808.1z"/>
	<path class="st0" d="M454.8,809.6c6.1-3.6,12.8-6.3,19.7-7.8l-1.4-7.4c-7.8,1.7-15.1,4.6-22,8.6c-14.7,8.8-22.6,21.6-22.6,36.8
		c0,36.7,44.3,43.5,44.7,43.6l1-7.4c-6.9-1.2-13.6-3.6-19.7-6.9c-12.4-6.9-18.6-16.7-18.6-29.3C436.1,827.4,442.4,817.1,454.8,809.6
		z"/>
	<path class="st0" d="M313.5,798.5l-5.8-3.8v88.6h7.4V843H340c5.8,12.7,8.7,26.4,8.7,40.3h7.4C356.2,827.3,315.3,799.7,313.5,798.5z
		 M315.2,835.5v-26.1c8.4,7.5,15.5,16.3,21,26.1H315.2z"/>
	<path class="st0" d="M592.8,877.1h-32V845c0-4.1,9.9-15.2,26.1-20.9l-2.5-7.1c-8.8,3.1-16.9,8-23.6,14.5v-28.1h32V796h-39.5v88.6
		h39.5L592.8,877.1L592.8,877.1z"/>
	<path class="st0" d="M620.7,830.2v-28h32v-7.5h-39.5v88.6h7.4v-39.6l0,0c0-4.1,9.9-15.2,26.1-20.9l-2.5-7.1
		C635.6,818.8,627.5,823.7,620.7,830.2z"/>
	<path class="st0" d="M413.2,842.9c-3.6-5.2-8-9.8-13.2-13.6c9.1-4.9,9.4-13.1,3.6-20.3c-6.4-8.1-27.3-14.3-27.3-14.3v88.8
		C417.8,883.4,425.3,861.4,413.2,842.9z M409.5,864.5c-3.3,6.2-12.5,10.1-25.7,11.2v-70.3c5.9,2.5,11.8,5.6,14,8.3
		c1.7,2.1,2.5,4.2,2.2,5.5c-0.3,1.6-2.3,2.9-3.5,3.5l-10.4,5.6l9.4,7c4.4,3.2,8.2,7.1,11.3,11.6
		C411.1,853.4,412.1,859.8,409.5,864.5L409.5,864.5z"/>
</g>
<g>
	<path class="st0" d="M551,1226.1c-4.3-11.9-10.4-23.1-18.1-33.1c6-7,12.1-11.7,17.1-13.6v-7.8c-6.8,1.6-14.6,7.4-21.9,15.6
		c-7.4-8.2-15.1-14-21.9-15.6v7.8c5,1.8,11.1,6.7,17.1,13.6c-7.7,10.1-13.8,21.2-18.1,33.1c-2.3,6.4-4,13-5.2,19.7
		c-0.8,4.8-1.3,9.6-1.3,14.3l7.4,0.2c0.1-4.4,0.6-9,1.3-13.3c1-6.3,2.7-12.4,4.8-18.4c3.8-10.6,9.1-20.6,15.8-29.7
		c6.7,9,12,19,15.8,29.6c2.1,6,3.7,12.1,4.8,18.4c0.7,4.4,1.2,8.9,1.3,13.3l7.4-0.2c-0.1-4.8-0.6-9.6-1.3-14.3
		C555.1,1239.1,553.3,1232.5,551,1226.1z"/>
	<polygon class="st0" points="367.5,1225.6 355.6,1171.6 347.9,1171.6 367.5,1260.4 387,1171.6 379.3,1171.6 	"/>
	<path class="st0" d="M323,1171.6v66.6c0,7.8-6.3,14.2-14.2,14.2s-14.2-6.3-14.2-14.2l0,0v-66.6h-7.4v66.6c0,12,9.7,21.6,21.6,21.6
		s21.6-9.7,21.6-21.6l0,0v-66.6H323z"/>
	<path class="st0" d="M476.8,1217.5c0,8-1.6,19.2-9.4,26.9c-4.8,4.8-11.3,7.5-19.3,8.2v-35.2h-7.4v0.2c0,8-1.7,19-9.4,26.8
		c-4.8,4.8-11.3,7.6-19.4,8.2l0.1-81h-7.4l-0.1,88.6h3.7c11.9,0,21.4-3.6,28.4-10.5c1.5-1.5,2.9-3.2,4.1-4.9v15.5h3.7
		c11.8,0,21.3-3.6,28.3-10.5c7.6-7.6,11.6-18.7,11.6-32.3v-45.8h-7.4L476.8,1217.5z"/>
	<path class="st0" d="M594.3,1204.7c-9-9.7-16.2-20.9-21.4-33.1h-8.1c6.2,15.3,15.5,29.7,25.8,39.9v48.7h7.4v-48.8
		c10.2-10.2,19.6-24.7,25.8-39.9h-8.1C610.5,1183.7,603.3,1195,594.3,1204.7z"/>
	<path class="st0" d="M673.4,1175.3v-3.7H635v7.4h30.8c-0.5,10.8-2.5,21.4-6.1,31.5c-5.9,17-16,33.2-27.1,43.3l-7.1,6.5h47.6v-7.4
		H644c10-11.7,17.8-25.3,22.7-39.9C671.1,1200.9,673.3,1188.2,673.4,1175.3z"/>
</g>
<g>
	<path class="st0" d="M314.3,1002.4l5.7,3.5v-65.1h-22.1v7.4h14.7v44.1c-8.4-5.9-23.6-17.8-27.4-28.3c-3.3-9.4-2.3-19,2.9-26.4
		c5.8-8.2,16-12.8,28.2-12.8v-7.4c-14.7,0-27.2,5.9-34.3,16c-6.7,9.4-8,21.5-3.9,33.2C284.3,983.7,313.1,1001.7,314.3,1002.4z"/>
	<path class="st0" d="M375,946c-4-1.5-8.2-2.3-12.5-2.2c-4.4-0.1-8.8,0.8-12.9,2.5v-28.6h-7.4v88.6h7.4v-51.4
		c3.9-2.4,8.3-3.6,12.9-3.5c4.4-0.2,8.7,1,12.5,3.2v51.7h7.4v-88.7H375V946z"/>
	<rect x="408.6" y="917.6" class="st0" width="7.4" height="88.6"/>
	<path class="st0" d="M456,1006.1v-88.5h-7.4v88.5c0,7.1-5.1,11.9-8.1,14.2l4.5,5.9C452,1020.8,456,1013.7,456,1006.1z"/>
	<polygon class="st0" points="555.5,917.1 548.1,917.1 548.1,1005.8 583.3,1005.8 583.3,998.2 555.5,998.2 	"/>
	<path class="st0" d="M502.2,948.9l15.1-31.9h-8.2L493,950.8l2.3,1.8c0.2,0.2,17.4,14.3,22.6,32.1c2,6.8,3.1,13.9,3.2,21l7.4-0.1
		c-0.2-7.8-1.3-15.5-3.5-23.1C520.3,966.6,507.4,953.6,502.2,948.9z"/>
	<rect x="482.1" y="916.9" class="st0" width="7.4" height="88.8"/>
	<path class="st0" d="M677.2,1005.8h7.4V960c0-13.6-4-24.7-11.6-32.3c-7-7-16.5-10.5-28.3-10.5h-3.7v15.5c-1.2-1.7-2.5-3.4-4.1-4.9
		c-7-7-16.6-10.5-28.4-10.5h-3.7l0.1,88.6h7.4l-0.1-81c8.1,0.6,14.6,3.4,19.4,8.2c7.7,7.8,9.4,18.8,9.4,26.8v0.2h7.4v-35.1
		c8,0.6,14.5,3.4,19.3,8.2c7.8,7.8,9.4,18.9,9.4,26.9L677.2,1005.8z"/>
</g>
<g>
	<polygon class="st0" points="664.9,1044.3 681,1044.3 681,1125.6 688.4,1125.6 688.4,1044.3 704.6,1044.3 704.6,1036.9 
		664.9,1036.9 	"/>
	<path class="st0" d="M563.1,1093.4c2-1.5,3.7-3.2,5.2-5.3c4.6-6.6,5.6-15.1,2.7-23.2c-4.1-11.6-22.5-23.2-24.5-24.5l-5.7-3.6v88.8
		h7.4V1099c2.9-0.3,5.7-1,8.4-2.1l13.6,28.6h8.3l-14.4-30.2L563.1,1093.4z M548.2,1091.6v-40.9c6,4.4,13.7,11.1,15.8,16.8
		c2.1,5.9,1.4,11.8-1.7,16.4C559.2,1088,554.2,1090.8,548.2,1091.6L548.2,1091.6z"/>
	<path class="st0" d="M622,1081.3c0,32.5-10.4,36.8-20.6,36.8c-3.5,0.2-6.9-1.1-9.4-3.6l-5.4,5.2c4,3.9,9.3,6,14.8,5.9
		c25.1,0,28.1-25.3,28.1-44.4c0-32.5,10.4-36.8,20.5-36.8v-7.4C624.9,1036.9,622,1062.2,622,1081.3z"/>
	<path class="st0" d="M508.2,1069.5c-6.5-18.3-20-32.6-27.9-32.6c-7.8,0-21.3,14.3-27.9,32.6c-1.3,3.8-2.4,7.8-3.1,11.8
		c-0.6,3.3-0.9,6.7-0.9,10c0,18.5,9.2,34.4,31.8,34.4c9.1,0,16.1-2.6,21.2-7c5.6,3.4,11.5,6.3,17.6,8.8l2.8-6.9
		c-5.3-2.1-10.5-4.7-15.4-7.6C513.8,1101.8,513.6,1084.7,508.2,1069.5z M480.3,1118.2c-7.4,0-13.3-2.1-17.4-6.1
		c-4.5-4.5-7.1-11.9-7-20.8c0-2.9,0.2-5.9,0.8-8.8c0.6-3.6,1.5-7.1,2.8-10.5c6.1-17,17.4-27.2,20.8-27.6
		c3.4,0.5,14.7,10.5,20.8,27.6c5,14.1,4.6,28.4-1,37c-5.2-3.5-10.1-7.5-14.4-12l-5.3,5.2c4.4,4.5,9.3,8.6,14.4,12.2
		C491,1116.9,486.2,1118.2,480.3,1118.2z"/>
	<path class="st0" d="M299.6,1125.6V1037h-7.4v15.5c-1.2-1.8-2.5-3.5-4-5c-7-7-16.5-10.5-28.4-10.5H256v88.7h7.4v-81
		c8.1,0.6,14.5,3.4,19.3,8.2c7.8,7.8,9.4,18.9,9.4,26.9v45.8L299.6,1125.6z"/>
	<path class="st0" d="M349.7,1037c-7.8,0-21.3,14.3-27.9,32.6c-1.3,3.8-2.4,7.8-3.1,11.8c-0.6,3.3-0.9,6.7-0.9,10
		c0,18.5,9.2,34.4,31.8,34.4c31.3,0,37-30.6,27.9-56.2C371,1051.2,357.4,1037,349.7,1037z M369.1,1109.6c-4,5.7-10.6,8.6-19.5,8.6
		c-7.4,0-13.3-2.1-17.4-6.1c-4.5-4.5-7.1-11.9-7.1-20.8c0-2.9,0.2-5.9,0.8-8.8c0.6-3.6,1.5-7.1,2.8-10.5c6.1-17,17.4-27.2,20.8-27.6
		c3.4,0.5,14.7,10.5,20.8,27.6C375.6,1086.4,375,1101.2,369.1,1109.6z"/>
	<path class="st0" d="M400.5,1037v88.8h7.4v-26.6c8.6-0.9,15.7-4.8,20-10.9c4.6-6.6,5.6-15.1,2.7-23.2
		c-4.1-11.6-22.5-23.2-24.5-24.5L400.5,1037z M408,1090.3v-39.5c6,4.4,13.7,11.1,15.8,16.7c2.1,5.9,1.4,11.8-1.7,16.4
		c-3,4.3-7.9,7-13.9,7.8L408,1090.3L408,1090.3z"/>
</g>
<g>
	<path class="st0" d="M417.1,1352v40.3h7.4v-88.6l-5.8,3.8c-1.7,1.2-42.6,28.8-42.6,84.8h7.4c-0.1-13.9,2.9-27.7,8.7-40.3H417.1z
		 M417.1,1318.4v26.1h-21C401.6,1334.7,408.8,1325.9,417.1,1318.4z"/>
	<polygon class="st0" points="339.9,1331.8 356.5,1392.3 364.2,1392.3 339.9,1303.6 315.6,1392.3 323.3,1392.3 	"/>
	<path class="st0" d="M644.9,1387.5c-5.3-2.1-10.5-4.7-15.4-7.6c7.6-8.8,11.9-20,11.8-31.7c0-26.9-20.8-48.1-47.5-48.1
		s-47.5,21.1-47.5,48.1c0,26.5,21.3,48.1,47.5,48.1c11,0,21.7-3.9,30.2-11c5.8,3.5,11.8,6.6,18.1,9.1L644.9,1387.5z M593.9,1388.8
		c-22.1,0-40-18.2-40-40.7c0-23.1,17.2-40.7,40-40.7s40,17.4,40,40.7c0,10.2-3.8,20.1-10.8,27.7c-5.2-3.5-10-7.4-14.3-12l-5.4,5.2
		c4.3,4.4,9,8.3,14,11.8C610.7,1386,602.4,1388.8,593.9,1388.8z"/>
	<path class="st0" d="M487.5,1299.8c-26.6,0-47.5,21.2-47.5,48.1c0,26.5,21.3,48.1,47.5,48.1s47.5-21.6,47.5-48.1
		C534.9,1320.9,514.1,1299.8,487.5,1299.8z M487.5,1388.5c-22.1,0-40-18.2-40-40.7c0-23.1,17.2-40.7,40-40.7s40,17.4,40,40.7
		C527.5,1370.3,509.5,1388.5,487.5,1388.5z"/>
</g>
<path class="st0" d="M481.8,737l3.1,1.9v-35.2h-12v4h7.9v23.8c-4.5-3.2-12.8-9.6-14.7-15.3c-1.8-4.8-1.3-10.1,1.6-14.3
	c3.1-4.4,8.6-6.9,15.2-6.9v-4c-7.9,0-14.7,3.2-18.5,8.6c-3.6,5.2-4.4,12-2.1,17.9C465.5,726.9,481,736.6,481.8,737z"/>
<path class="st0" d="M507.7,706.4c-2.1-0.8-4.4-1.3-6.7-1.2c-2.4,0-4.8,0.4-7,1.3v-15.5h-4v47.8h4v-27.7c2.1-1.3,4.5-2,7-1.9
	c2.4-0.1,4.7,0.6,6.7,1.7v27.9h4v-47.8h-4V706.4z"/>
<rect x="454" y="691.1" class="st0" width="4" height="47.8"/>
<polygon class="st0" points="517.1,695.1 525.7,695.1 525.7,738.9 529.8,738.9 529.8,695.1 538.4,695.1 538.4,691.1 517.1,691.1 "/>
<polygon class="st0" points="433.7,691.1 429.7,691.1 429.7,738.9 448.7,738.9 448.7,734.9 433.7,734.9 "/>
<path class="st0" d="M545.9,728.8v3.2h19.7c5.8,0,10.5-1.7,13.9-4.9c3-3,4.5-7.1,4.5-12.1v-1.6h-6.7c0.8-0.6,1.5-1.1,2.1-1.7
	c3-3,4.5-7.1,4.5-12.2v-1.6h-38v3.2h34.7c-0.1,3.1-1.3,6-3.5,8.3c-3.3,3.3-8,4-11.5,4h-0.1v3.2h15.1c-0.1,3.1-1.3,6-3.5,8.2
	c-3.3,3.3-8.1,4-11.6,4L545.9,728.8z"/>
<path class="st0" d="M414.6,728.8v3.2h-19.7c-5.8,0-10.5-1.7-13.8-4.9c-3-3-4.5-7.1-4.5-12.1v-1.6h6.7c-0.8-0.5-1.5-1.1-2.1-1.7
	c-3-3-4.5-7.1-4.5-12.2v-1.6h38v3.2h-34.6c0.1,3.1,1.3,6,3.5,8.3c3.3,3.3,8,4,11.4,4h0.1v3.2h-15.1c0.1,3.1,1.3,6,3.5,8.2
	c3.3,3.3,8.1,4,11.6,4L414.6,728.8z"/>
<path class="st0" d="M630.8,117.2c0,24.2-5.7,34-19.7,34c-3.3,0-6.4-1-8.9-3.1l-6.6,6.6c4.3,4.3,10.8,5.8,15.4,5.8
	c26,0,29-24.7,29-43.4c0-24.2,5.7-34,19.7-34v-9.3C633.7,74,630.8,98.7,630.8,117.2z"/>
<path class="st0" d="M873.1,159.9h38.1v-9.6h-28.4v-28.5c0-3,8.9-13,23.5-18.3l-3.3-9.1c-7.4,2.6-14.3,6.5-20.2,11.7V84.4h28.5v-9.6
	h-38.1v85.1H873.1z"/>
<polygon class="st0" points="493.6,84.1 508,84.1 508,159.9 517.5,159.9 517.5,84.1 531.9,84.1 531.9,74.5 493.6,74.5 "/>
<path class="st0" d="M707.5,73.2h-4.8v12.6c-0.6-0.7-1.2-1.3-1.9-2c-7-7-16.5-10.6-28.2-10.6h-4.8V160h9.6V83
	c6.3,0.4,12.1,3.1,16.6,7.4c7.2,7.2,8.7,17.5,8.7,25.1v0.1h9.6V83c6.3,0.4,12.1,3.1,16.6,7.4c7.2,7.2,8.7,17.6,8.7,25.2v44.3h9.6
	v-44.2c0-13.4-3.9-24.5-11.5-32C728.8,76.7,719.2,73.2,707.5,73.2z"/>
<rect x="757.7" y="74.5" class="st0" width="9.6" height="85.4"/>
<path class="st0" d="M988.6,104h12.7v38.3c-8.8-6.4-20.7-16.5-23.7-24.9c-3-8.5-2.1-17.3,2.6-24c5.3-7.4,14.7-11.7,25.8-11.7V72
	c-14.4,0-26.6,5.7-33.7,15.7c-6.5,9.3-8,21.1-3.8,32.8c6.1,16.7,33.8,34.2,35.1,34.9l7.3,4.5V94.3h-22.4v9.7H988.6z"/>
<path class="st0" d="M936.5,104h12.7v38.3c-8.8-6.4-20.6-16.5-23.6-25.1c-3-8.5-2.1-17.3,2.6-24c5.3-7.4,14.7-11.7,25.8-11.7v-9.7
	c-14.4,0-26.6,5.7-33.7,15.7c-6.5,9.3-7.9,21.1-3.8,32.8c6.1,16.7,33.8,34.2,35.1,34.9l7.3,4.5V94.3h-22.4L936.5,104L936.5,104z"/>
<path class="st0" d="M814.3,85.8c-0.7-0.8-1.2-1.5-1.9-2.1c-7-7-16.4-10.6-28.2-10.6h-4.8v86.9h9.6V83c6.2,0.4,12.1,3.1,16.6,7.4
	c7.2,7.2,8.7,17.8,8.7,25.2v44.3h9.6V73.2h-9.7v12.6H814.3z"/>
<path class="st0" d="M540.7,74.8v85.8h9.4V124h21.5c4.9,11.6,7.5,24,7.6,36.6h9.4C588.8,149.1,585.6,101.7,540.7,74.8z M550.1,114.4
	V93.5c6.6,6.1,12.4,13.1,16.7,20.9H550.1z"/>
<path class="st0" d="M634.6,210.2v-24h3.6c0.8,0,10.8-1.2,10.8,12.2c0,6.9-2.7,11.8-10.1,11.8H634.6z M644.2,198.4
	c0-3-0.9-7.9-4.8-7.9V206C643.2,206.1,644.2,201.3,644.2,198.4L644.2,198.4z"/>
<path class="st0" d="M662,203.3H655c0,1.1,0,3.7,1.7,3.7c1.1,0,1.5-0.9,1.5-1.9h3.8c-0.1,1.3-0.7,2.7-1.5,3.7
	c-0.9,1-2.2,1.6-3.6,1.5c-4.5,0-6.2-4-6.2-8c0-3.9,1.5-8.7,6.1-8.7c3,0,5.7,2.7,5.4,7.8L662,203.3z M658.3,200.2c0-1-0.2-3-1.7-3
	c-1.5,0-1.7,1.9-1.7,2.9v0.4h3.3v-0.3H658.3z"/>
<path class="st0" d="M672.1,198.4c-0.6-0.7-1.3-1-2.1-1c-0.6-0.1-1.1,0.3-1.2,1c0,0.1,0,0.1,0,0.2c0.1,1.9,5.2,1.5,5.2,6.3
	c0,3.1-1.9,5.6-5.2,5.6c-1.8,0-3.5-0.7-4.8-1.8l2-3.1c0.6,0.7,1.3,1,2.2,1c0.7,0,1.3-0.6,1.3-1.2c0,0,0,0,0-0.1
	c0-2.1-5.2-1.6-5.2-6.6c0-3,2.6-4.7,5.4-4.7c1.6,0,3,0.4,4.3,1.3L672.1,198.4z"/>
<path class="st0" d="M675.4,189.3c0-1.6,1.2-2.8,2.8-2.8c0,0,0,0,0.1,0c1.6,0,2.8,1.3,2.8,2.9s-1.3,2.8-2.9,2.8
	C676.6,192.2,675.4,190.8,675.4,189.3z M680.6,194.1v16.1h-4.5v-16.1H680.6z"/>
<path class="st0" d="M686.5,212.3c0.1,1,0.3,2.2,1.7,2.2c2,0,1.7-3,1.7-4.4v-2h-0.1c-0.2,0.6-0.7,1.1-1.1,1.6s-1.1,0.8-1.8,0.7
	c-1.6-0.1-2.9-1.2-3.5-2.7c-0.8-1.7-1.1-3.6-1-5.4c0-2.8,0.6-8.7,4.4-8.7c1.3,0,2.6,0.9,3,2.2h0.1V194h4.5v17.5
	c0,4.7-2.1,6.6-6.1,6.6c-3.9,0-5.6-2.2-5.8-5.8L686.5,212.3z M690.1,202.1c0-0.9,0-4.3-1.6-4.3c-1.6,0-1.6,3.4-1.6,4.3
	s0,4.3,1.7,4.3C690.4,206.3,690.1,203,690.1,202.1z"/>
<path class="st0" d="M701.1,196.6L701.1,196.6c0.7-1.6,2.1-2.7,3.8-2.8c3.3,0,3,3.7,3,6.1v10.3h-4.5v-8.9c0-0.8,0.3-3-1.1-3
	c-1,0-1.2,1-1.2,1.8v10h-4.5v-16.2h4.5V196.6z"/>
<path class="st0" d="M721.4,203.3h-7.2c0,1.1,0,3.7,1.7,3.7c1.1,0,1.5-0.9,1.5-1.9h3.8c-0.1,1.3-0.7,2.7-1.5,3.7
	c-0.9,1-2.2,1.6-3.6,1.5c-4.5,0-6.2-4-6.2-8c0-3.9,1.5-8.7,6.1-8.7c3,0,5.7,2.7,5.5,7.8L721.4,203.3z M717.5,200.2c0-1-0.2-3-1.7-3
	c-1.5,0-1.7,1.9-1.7,2.9v0.4h3.3L717.5,200.2z"/>
<path class="st0" d="M730.5,208.4L730.5,208.4c-0.4,1.2-1.7,2.1-3,2.1c-3.6,0-4.4-5.8-4.4-8.4s0.6-8.3,4.3-8.3c1.3,0,2.6,0.9,3,2.2
	l0,0v-11.6h4.5v25.7h-4.5L730.5,208.4z M730.8,202.1c0-0.9-0.1-4.3-1.6-4.3c-1.5,0-1.6,3.4-1.6,4.3s0.1,4.4,1.6,4.4
	C730.7,206.5,730.8,203,730.8,202.1z"/>
<path class="st0" d="M745,184.4h4.5V196h0.1c0.4-1.3,1.6-2.2,3-2.2c3.8,0,4.3,5.6,4.3,8.3c0,2.8-0.7,8.4-4.3,8.4
	c-1.3,0-2.6-0.9-3-2.1h-0.1v1.8H745V184.4z M752.3,202.1c0-0.9-0.1-4.3-1.6-4.3s-1.6,3.4-1.6,4.3s0.1,4.3,1.5,4.3
	C752,206.3,752.3,203.1,752.3,202.1z"/>
<path class="st0" d="M762.6,194.1l1.7,6.5l0.6,2.7l0,0l2.1-9.2h4.5l-6.9,24h-4.4l2.6-8.2l-4.7-15.7h4.5V194.1z"/>
<path class="st0" d="M792.6,186.1v4.5h-3.7v19.6h-4.7v-19.6h-3.7v-4.5H792.6z"/>
<path class="st0" d="M803.7,202.2c0,4.2-1.3,8.3-6.1,8.3s-6.1-4.3-6.1-8.3c0-4,1.3-8.4,6.1-8.4S803.7,198,803.7,202.2z M796,202.2
	c0,0.9,0.1,4.4,1.7,4.4c1.6,0,1.6-3.4,1.6-4.4s0-4.4-1.6-4.4C796,197.8,796,201.3,796,202.2z"/>
<path class="st0" d="M810.1,196.7L810.1,196.7c0.7-1.7,2.2-2.8,4-2.9c1.5,0,2.7,1.2,2.8,2.7h0.1c0.7-1.6,2.1-2.6,3.8-2.7
	c2.9,0,2.9,3.3,2.9,5.3v11.1h-4.5v-8.8c0-0.8,0.2-3.1-1.1-3.1c-1,0-1.2,1.1-1.2,1.8v10.1h-4.5v-9.1c0-0.8,0.2-2.8-1-2.8
	c-1.2,0-1.2,1-1.2,1.8v10h-4.5V194h4.5L810.1,196.7z"/>
<path class="st0" d="M839.1,186.1v19.6h4.9v4.5h-9.7v-24H839.1z"/>
<path class="st0" d="M845.1,189.3c0-1.6,1.2-2.8,2.8-2.8c0,0,0,0,0.1,0c1.6,0,2.8,1.3,2.8,2.9s-1.3,2.8-2.9,2.8
	C846.3,192.2,845.1,190.8,845.1,189.3z M850.1,194.1v16.1h-4.5v-16.1H850.1z"/>
<path class="st0" d="M856.9,196.7L856.9,196.7c0.7-1.7,2.1-2.8,3.9-2.9c1.5,0,2.7,1.2,2.8,2.7l0,0c0.7-1.6,2.1-2.6,3.8-2.7
	c2.9,0,2.9,3.3,2.9,5.3v11.1h-4.5v-8.8c0-0.8,0.2-3.1-1.1-3.1c-1,0-1.2,1.1-1.2,1.8v10.1H859v-9.1c0-0.8,0.2-2.8-1-2.8
	c-1.2,0-1.2,1-1.2,1.8v10h-4.5V194h4.5L856.9,196.7z"/>
<g>
	<path class="st1" d="M683.9,452.4c-4-0.1-7.8-1.8-10.7-4.5c-4.3-4.3-5.2-10.4-5.2-14.8c0-2,0.2-3.9,0.6-6c0.4-2.4,1-4.7,1.8-7
		c3.4-9.6,9.6-16.4,13.5-18.4V452.4z"/>
	<path class="st2" d="M854.7,484c0.7,46.6-36.6,84.9-83.3,85.5s-84.9-36.6-85.5-83.3c0-0.8,0-1.5,0-2.2V315.9
		c0,0,84.4,55.8,84.4,168.4c0-112.6,84.4-168.4,84.4-168.4v77.4"/>
	<path class="st1" d="M688,279.7c7.3,0.3,13.1,2.7,17.4,7c6.5,6.5,7.9,15.8,7.9,22.6v24l26.4-33.7c6.3,5.4,10,11.7,10.8,18.5
		c1.2,10.3-3.9,19.6-8.5,25.5l-0.1,0.1l3.1,2.5l0,0l0.1-0.1l20.5-26.2c6.3,5.4,10,11.7,10.8,18.5c1.2,10.3-4,19.7-8.7,25.6
		l-18.5,23.7c-5.6-10.9-12.1-21.2-19.4-31C710.9,331.8,692.4,318,688,315V279.7z"/>
	<polygon class="st2" points="683.9,374.2 683.9,397.1 641.1,397.1 	"/>
	<path class="st3" d="M708.1,372.4c0-2.9-2.4-5.4-5.4-5.4c-2.9,0-5.4,2.4-5.4,5.4l0,0c0,2.9,2.4,5.4,5.4,5.4
		C705.7,377.8,708.1,375.4,708.1,372.4L708.1,372.4z"/>
	<path class="st3" d="M792.7,547h-30.2v-3.9h30.1c5.4,0,12.8-1.1,18-6.3c3.5-3.6,5.5-8.4,5.5-13.5h-23.6v-3.9h0.1
		c5.3,0,12.7-1.1,17.9-6.3c3.5-3.6,5.5-8.4,5.5-13.5h-53.5v-3.9h57.6v1.9c0,7.5-2.2,13.7-6.7,18.2c-1.3,1.3-2.9,2.6-4.5,3.5h11.3
		v1.9c0,7.5-2.2,13.7-6.7,18.2C808.6,544.6,801.4,547,792.7,547z"/>
	<path class="st3" d="M869.8,575.2l2.6-2.9c-2.8-2.6-7.8-4.3-13.8-4.9c1.5-5.8,1.7-11.1,0.2-14.6l-3.6,1.5c1.1,2.8,0.9,7.4-0.6,12.9
		c-3.5-0.2-7-0.1-10.4,0.3c-0.7-0.9-1.3-1.8-2-2.6c-1.8-2.1-3.7-4.2-5.7-6.1c-0.3-4.5-1.3-8.9-2.8-13c-0.2-0.7-0.4-1.3-0.8-2
		c15.3-16.1,23.7-37.4,23.7-59.6V312.3l-3,2c-0.9,0.6-21.6,14.5-42.7,42.5c-12.2,16.2-22.1,34-29.3,53.1
		c-5.5,14.6-9.3,29.8-11.3,45.3c-2-15.5-5.8-30.7-11.3-45.3c-2.4-6.2-4.9-12.2-7.9-18.1l19.7-25.3c7.4-9.4,10.6-19.3,9.6-28.5
		c-1-8.5-5.7-16.1-13.9-22.5l-1.5-1.2l-11,14c0.8-3.5,1-7.1,0.6-10.6c-1-8.5-5.7-16.1-13.9-22.5l-1.6-1.2l-21.7,27.8v-12.5
		c0-10.7-3.1-19.4-9.1-25.4c-5.4-5.5-12.9-8.2-22.2-8.2h-2v77.6l0,0v16.5l-59,31.5h52.9c-5.1,4.9-9,10.9-11.3,17.6
		c-0.9,2.5-1.6,5.1-2,7.8c-0.3,2.1-0.6,4.4-0.6,6.5c0,7.4,2.1,13.6,6.3,17.8c3.7,3.5,8.5,5.6,13.6,5.7v27.5c0,26,11.7,50.6,31.7,67
		c-0.2,1.1-0.6,2.2-0.7,3.5c-0.4,2.5-0.7,5.1-0.7,7.5c0,1.1,0,2.1,0.1,3.1c-0.9,1.5-1.7,3-2.5,4.6c-0.6,1.2-1.1,2.4-1.5,3.6
		c-3.8,1.5-7.5,3.1-11.1,5.3c-3.8-4.2-6.2-8.2-6.5-11.1l-3.9,0.4c0.4,3.6,2.8,7.8,6.4,12c0,0.4,0,0.9,0,1.3c-4.5,3.3-7.9,7-9.1,10.3
		l3.7,1.3c1.3-2.9,3.4-5.4,6-7.2c0.6,2.4,1.2,4.7,2.2,7c-5.8,1.6-10.4,4-12.9,7l3,2.5c1.9-2.2,6.1-4.4,11.5-5.8
		c0.8,1.7,1.8,3.4,2.8,5.1c-3,0.7-6.2,0.6-9.2-0.2l-1.5,3.6c3.1,1.2,7.8,1.2,12.9,0.1c0.8,1,1.5,2,2.2,3c0.6,3.7,2.1,7.3,4.4,10.3
		l2.8-2.6c1.8,1.6,3.7,3.1,5.6,4.5c2.1,1.5,4.4,2.9,6.6,4l1.8-3.5c-2.1-1.1-4.3-2.4-6.2-3.8c-2.8-2-5.4-4.3-7.9-6.7
		c-1.3-1.3-2.6-2.7-3.7-4.2c-0.1-0.9-0.3-1.8-0.4-2.8c4-1.3,8.1-3,11.8-5.2l1.9,0.7c-1,0.7-2.1,1.5-3.1,2.2l2.4,3
		c1.9-1.5,3.8-2.8,5.8-3.9c1.5,0.3,2.9,0.6,4.5,0.8l0.4-3.3l0.3-0.1c1.5,0.6,3,1.1,4.5,1.8l0.8-1.7c1.5,1.2,2.9,2.4,4.5,3.4
		c-3.8,4.5-6.4,9.2-6.7,13l3.9,0.3c0.2-3,2.5-7.1,6.2-11.3c1.3,0.8,2.8,1.5,4.3,2.1c-0.7,1.3-1.5,2.7-2.2,3.9
		c-1.8,2.9-3.8,5.7-6.1,8.3c-1.6,1.8-3.4,3.5-5.2,5.1l2.6,3c2-1.7,3.8-3.5,5.6-5.5c2.5-2.8,4.6-5.7,6.5-8.9c0.9-1.5,1.7-2.9,2.5-4.5
		c3.1,1.2,6.4,2.2,9.8,3c-1.6,1.7-2.7,3.7-3.5,5.8l3.7,1.1c0.9-2.4,2.4-4.5,4.3-6.2c2.7,0.4,5.4,0.7,8.1,0.7h1.5
		c3.7,2.7,7.8,4.9,11.9,6.9c1.5,0.7,3,1.2,4.5,1.8c2.5,2.6,5.3,4.8,8.2,7c2.1,1.6,4.4,2.9,6.6,4l1.8-3.5c-2.1-1.1-4.3-2.4-6.2-3.8
		c-0.7-0.4-1.3-1-2-1.5c1.7,0.3,3.4,0.6,5.2,0.8l0.3-3.8c-2.5-0.2-4.8-0.7-7.2-1.2c-1.5-0.3-3.1-0.9-4.7-1.3
		c-3.6-3.7-6.6-7.9-9.2-12.2c1.8-0.8,3.5-1.8,5.2-2.9c2.7,5.4,5.8,9.6,9.2,11.3l1.9-3.4c-2.2-1.2-4.7-4.2-6.9-8.2
		c6.1-0.1,12.1,0.7,18,2.5c2.4,0.7,4.6,1.6,6.9,2.6l0.8-1.8c0.4,0.8,0.8,1.5,1.2,2.2c1.9,3.1,4,6.1,6.5,8.9c1.7,1.9,3.6,3.8,5.6,5.5
		l2.6-3c-1.8-1.6-3.6-3.3-5.2-5.1c-2.2-2.6-4.3-5.4-6.1-8.3c-3.1-5.3-5.6-11-7.1-17c6.2,0.3,12.2,1.5,18,3.6
		c0.7,0.2,1.5,0.6,2.1,0.8c-0.9,1-1.8,1.9-2.8,2.9c-1.8,1.7-3.6,3.3-5.6,4.7l2.2,3.1c2.1-1.6,4.2-3.3,6.1-5.1c1.3-1.2,2.6-2.6,3.8-4
		c1.2,0.6,2.4,1.2,3.6,1.8c1.2,0.6,2.2,1.3,3.4,2.1c-0.1,0.7-0.2,1.2-0.3,1.9l3.7,1.2c0.2-0.8,0.4-1.7,0.6-2.6l1.2-1.6l-1.1-0.9
		c-0.1-3.3-0.7-6.5-1.7-9.6c6-1.1,10.8-3,13.5-5.8l-2.8-2.7c-2.1,2.1-6.4,3.9-12,4.8l0,0c2-3.6,3.6-7.4,4.8-11.3
		C863.2,571.7,867.5,573.3,869.8,575.2z M683.9,452.4c-4-0.1-7.8-1.8-10.7-4.5c-4.3-4.3-5.2-10.4-5.2-14.8c0-2,0.2-3.9,0.6-6
		c0.4-2.4,1-4.7,1.8-7c3.4-9.6,9.6-16.4,13.5-18.4V452.4z M683.9,397.1h-42.8l42.9-22.9L683.9,397.1z M836.6,564.2
		c0.9,1,1.8,1.9,2.6,3l0.6,0.8c-1.2,0.2-2.5,0.4-3.7,0.8C836.4,567.2,836.5,565.8,836.6,564.2L836.6,564.2z M688,279.7
		c7.3,0.3,13.1,2.7,17.4,7c6.5,6.5,7.9,15.8,7.9,22.6v24l26.4-33.7c6.3,5.4,10,11.7,10.8,18.5c1.2,10.3-3.9,19.6-8.5,25.5l-0.1,0.1
		l3.1,2.5l0,0l0.1-0.1l20.5-26.2c6.3,5.4,10,11.7,10.8,18.5c1.2,10.3-4,19.7-8.7,25.6l-18.5,23.7c-5.6-10.9-12.1-21.2-19.4-31
		C710.9,331.8,692.4,318,688,315V279.7z M687.9,353.2L687.9,353.2v-33.6c14.6,11.3,27.6,24.6,38.8,39.4
		c11.7,15.4,21.1,32.5,28.1,50.5v52.6c-4.9-0.1-9.8-2-13.4-5.5c-5.2-5.2-6.3-12.6-6.3-17.9l0,0v-17.3h-4V462
		c-4.9-0.1-9.8-2-13.4-5.5c-5.2-5.2-6.2-12.5-6.3-17.8v-0.1h-3.9V462c-4.9-0.1-9.8-2-13.4-5.5c-4.5-4.5-6-10.8-6.2-15.8v-43.5l0,0
		V353.2z M687.9,484v-27.5l0,0v-1.7c0.9,1.6,2.1,3.1,3.5,4.5c4.4,4.5,10.6,6.7,18.1,6.7h1.9v-11.2c0.9,1.7,2.1,3.1,3.5,4.5
		c4.5,4.5,10.6,6.7,18.1,6.7h1.9v-2v-9.3c1,1.7,2.1,3.3,3.6,4.7c4.5,4.5,10.6,6.7,18.1,6.7h1.9v-45.5c6.5,20.6,9.9,42,9.9,63.6h3.9
		c0-64.4,29.7-125.1,80.5-164.6v54.2c-5.6,3.9-56.1,40.8-76.3,109.7l3.8,1.1c18.1-62,61.2-97.4,72.5-105.8v29.6
		c-4.5,3.3-39.2,28.4-62.6,74.8l3.6,1.8c14-28,34.3-52.5,59-71.7v24.2c-3.6,2.5-24.4,17.4-44.6,45.4l3.3,2.4
		c11.6-16.2,25.6-30.7,41.3-42.8V484c0,20.6-7.6,40.5-21.5,55.6l0,0c-0.4,0.6-0.9,1-1.5,1.5l0,0l-1.5,1.5
		c-8.5,8.5-18.8,15.1-30.1,19.1l0,0l-1.9,0.7l0,0c-0.7,0.2-1.3,0.4-1.9,0.7c-13.7,4.2-28.3,4.7-42.2,1.5c-1.3-0.3-2.7-0.7-3.9-1
		c-10.2-2.9-19.7-7.6-28.1-14.2l0,0c-0.6-0.4-1.1-0.9-1.7-1.3l0,0c-0.6-0.4-1.1-0.9-1.6-1.3C698.4,531.2,687.9,508.3,687.9,484z
		 M748.6,567.8c0.6,4.6,2.4,8.9,5.1,12.6c-3.5,3.1-8.3,4.7-14.3,4.7h-0.8c-1.6,0-3.3-0.2-4.8-0.6l0,0c-3.6-0.7-6.9-2.4-9.4-4.9
		c-1.5-1.5-2.7-3.1-3.6-5.1c-0.4-0.9-0.8-1.8-1.1-2.7v-0.1c-0.1-0.3-0.2-0.6-0.2-0.9c-0.4-1.6-0.8-3.1-0.9-4.7l0,0l-0.1-1.5l0,0
		c0-0.9-0.1-1.8-0.1-2.6c0-2.4,0.2-4.6,0.6-7c0.1-0.4,0.1-0.9,0.2-1.5C728,560.3,738,565,748.6,567.8L748.6,567.8z M715.6,571.5
		c0,0.1,0,0.2,0,0.3h-0.3C715.4,571.7,715.5,571.6,715.6,571.5z M703.6,595.6c0.8-0.1,1.7-0.3,2.5-0.4c0,1.7,0,3.3,0,4.8
		C705.2,598.5,704.3,597,703.6,595.6L703.6,595.6z M706.4,591.2c-1.5,0.2-3,0.4-4.5,0.8c-1-2.5-1.8-4.9-2.4-7.5c2.1,2,4.5,3.9,7,5.6
		C706.4,590.4,706.4,590.8,706.4,591.2L706.4,591.2z M708.3,580.2c-0.4,1.8-0.9,3.7-1.2,5.5c-1.7-1.2-3.4-2.7-4.8-4.2
		c2.1-1.2,4.4-2.4,6.6-3.3C708.7,578.9,708.4,579.6,708.3,580.2L708.3,580.2z M709.9,599.5c0-1.5,0-3.1,0-4.8
		c1.1-0.1,2.4-0.1,3.6-0.2c0.7,0.3,1.3,0.7,2,1s1.1,0.6,1.8,0.8C715,597.6,712.5,598.6,709.9,599.5z M728.6,596.1
		c-0.6-0.1-1-0.2-1.5-0.4l-0.6-0.1h0.1l2.2,0.4L728.6,596.1z M726.3,591l-0.7,0.4c-1.1-0.2-2.1-0.3-3.3-0.4
		c-2.6-0.3-5.2-0.4-7.8-0.3c-1.3-0.8-2.7-1.5-4-2.5c0.3-2.4,0.8-4.7,1.5-7c0.4-1.6,0.9-3.1,1.5-4.7c1.1-0.3,2.2-0.8,3.5-1
		c1.1,2.6,2.7,4.9,4.6,7c2.5,2.5,5.5,4.3,8.8,5.3C729.1,588.8,727.7,589.9,726.3,591L726.3,591z M739.1,591.6
		c-0.7-0.8-1.1-1.6-1.5-2.5l-3.6,1.5c0.3,0.9,0.8,1.7,1.3,2.5l-1.1,0.4l-1-0.3c-0.8-0.2-1.7-0.4-2.5-0.7c1.5-1.2,3-2.5,4.4-3.8
		c1.5,0.2,2.9,0.2,4.3,0.2c6.2,0.2,12.1-1.8,16.9-5.7c0.6,0.4,1.1,1,1.7,1.3c-0.1,1.2-0.2,2.6-0.4,3.9
		C751.3,588.7,745.1,589.8,739.1,591.6L739.1,591.6z M746.8,598.3c-1.7-1-3.1-2.1-4.6-3.5c3.6-1,7.2-1.7,10.8-2.1
		C750.8,594.4,748.7,596.2,746.8,598.3L746.8,598.3z M753.4,601.9c-1.1-0.6-2.2-1-3.3-1.6c1.8-1.8,3.7-3.5,5.6-4.9
		C755.2,597.6,754.3,599.7,753.4,601.9L753.4,601.9z M768.4,606.6l-0.9-0.1c-3.6-0.7-7.2-1.7-10.6-3c1.6-3.6,2.8-7.2,3.7-11
		c1,0,1.9,0.1,2.8,0.2c0.8,3.6,3.5,7.9,7.5,11.9C770.1,605.2,769.2,605.9,768.4,606.6L768.4,606.6z M761.7,586.8L761.7,586.8
		L761.7,586.8z M773.8,607.4L773.8,607.4l0.1,0.1L773.8,607.4z M767.8,593.2c1.9,0.3,3.8,1.1,5.4,2.2l2.4-3
		c-2.9-1.9-6.3-3.1-9.7-3.5l1.1-0.6c4,0.8,8.1,0.8,12.1,0c0.2,3.4,0.9,6.6,2.1,9.8c-2.5,1.2-4.8,2.6-7.1,4
		C771.5,599.7,769.3,596.7,767.8,593.2L767.8,593.2z M789.9,613.4c-1.5-0.8-2.9-1.5-4.3-2.4l-0.4-3.8c-1.7,0.2-3.3,0.3-4.7,0.3
		c-1-0.8-1.9-1.5-2.8-2.2c0.8-0.3,1.7-0.7,2.6-1l-0.1,2.4c1.7,0,3.4-0.2,4.9-0.8C786.4,608.5,788,611.1,789.9,613.4L789.9,613.4z
		 M784.8,596.6c-1.2-2.9-1.8-6.1-1.8-9.2c1.9-0.7,3.6-1.6,5.3-2.7c0.6,3.4,1.5,6.6,2.5,9.8C788.8,595.1,786.8,595.8,784.8,596.6
		L784.8,596.6z M791.5,575.5l-0.3,0.6c-0.1,0.2-0.2,0.3-0.3,0.4c-0.1,0.1-0.3,0.6-0.6,0.9l0,0l0,0l-0.7,0.8
		c-0.1,0.1-0.1,0.2-0.2,0.3l-0.3,0.4l-0.4,0.4c-0.1,0.1-0.1,0.1-0.2,0.2l-0.6,0.6c-3.4,2.9-7.5,4.6-11.9,4.8c1.9-0.6,3.8-1,5.8-1.3
		l-0.7-3.8c-2.6,0.4-5.1,1-7.5,1.9c-2.4,0.8-4.6,1.7-6.7,2.7c-1.6-0.4-3.1-1-4.5-1.8c0.1-2.9-0.3-5.8-1.5-8.5l-3.5,1.7
		c0.6,1.2,0.9,2.5,1,3.8l-0.6-0.6l-0.2-0.2c-0.2-0.2-0.3-0.4-0.6-0.7l-0.2-0.3c-1.9-2.7-3.3-5.7-3.8-9c13.7,2.8,27.9,2.4,41.3-1.5
		c-0.2,2-0.8,3.9-1.5,5.8c-0.3,0.7-0.6,1.5-1,2.1L791.5,575.5z M794.5,593.4c-1.3-3.8-2.2-7.8-2.7-11.8c0.2-0.2,0.4-0.6,0.7-0.8
		c0.4,0.6,0.9,1.1,1.5,1.6c2.4,2.4,5.3,4.2,8.5,5.2l-0.3,0.2l0.8,1c-1.1,1.2-2.4,2.5-3.6,3.7C797.7,592.6,796.1,593,794.5,593.4z
		 M822,601.9c-1.7-0.7-3.4-1.3-5.1-1.8c-3.5-1-7.2-1.8-10.8-2.1c-2.2-0.2-4.5-0.3-6.9-0.3l1.5-1.3c1.1-0.1,2.1-0.3,3.3-0.3
		c2.5-0.2,4.8-0.2,7.3-0.1l0.2-3.9c-2-0.1-4.2-0.1-6.2,0c0.8-0.8,1.5-1.6,2.1-2.5c0.4-0.1,0.9-0.3,1.3-0.4c0.9,0.1,1.8,0.1,2.8,0.1
		c1.8,0,3.7-0.1,5.5-0.4C818.3,593.1,820,597.6,822,601.9L822,601.9z M825.5,580.8c-0.3,0.2-0.7,0.6-1,0.8l-0.1,0.1
		c-0.3,0.2-0.7,0.4-0.9,0.6h-0.1c-0.3,0.2-0.7,0.3-1,0.6h-0.1c-0.3,0.2-0.8,0.3-1.1,0.6c-2.9,1.1-6.1,1.7-9.3,1.7H811l0.3-0.4
		c2.1-3,3.9-6.2,5.5-9.6c1.1-2.4,2-4.8,2.8-7.3l-3.7-1.1c-0.7,2.4-1.6,4.6-2.6,6.9c-1.5,3.1-3.1,6.1-5.2,9c-0.6,0.8-1.1,1.5-1.7,2.2
		c-3.7-0.7-7.1-2.4-9.8-4.9c-0.7-0.7-1.3-1.5-1.9-2.2c1.8-3.5,2.9-7.4,3.4-11.3c11.9-4,22.8-10.7,31.9-19.4c0,0.1,0.1,0.2,0.1,0.3
		c0.9,2.6,1.7,5.3,2.1,8.1c0.2,1.5,0.4,2.8,0.6,4.2l0,0c0,0.4,0,0.9,0.1,1.3c0.1,3.1-0.1,6.3-0.9,9.4c-0.2,0.8-0.4,1.6-0.7,2.4l0,0
		c-0.1,0.3-0.2,0.7-0.3,1c0,0,0,0,0,0.1c-0.1,0.3-0.3,0.7-0.4,1c-0.4,1-1,1.9-1.7,2.8C827.9,578.6,826.8,579.7,825.5,580.8
		L825.5,580.8z M830,582c0.7-0.8,1.3-1.5,1.9-2.4c1.3-2,2.5-4.3,3.3-6.6h0.2c2.4-0.7,4.7-1.1,7.2-1.5c2.2,3.4,4.3,7,5.8,10.7
		c-0.2,0.3-0.3,0.7-0.6,0.9c-5.8,0.4-11.7,0.1-17.4-1.1H830z M845.2,587.3c-0.4,0.6-0.9,1.2-1.3,1.8c-1.1-0.4-2.2-0.9-3.5-1.3
		c-0.7-0.2-1.3-0.4-2-0.7C840.6,587.1,842.9,587.1,845.2,587.3L845.2,587.3z M850.4,592.2c-1-0.6-1.9-1.1-3-1.5l0.9-1.1
		c0.7-0.9,1.2-1.8,1.8-2.7c0.7,2,1.2,4,1.5,6.2L850.4,592.2z M850.7,577.9c-1.1-2.4-2.5-4.6-3.8-6.9c2.2-0.1,4.5-0.2,6.7-0.1
		C852.8,573.3,851.8,575.6,850.7,577.9L850.7,577.9z"/>
	<path class="st4" d="M748.6,567.8c0.6,4.6,2.4,8.9,5.1,12.6c-3.5,3.1-8.3,4.7-14.3,4.7h-0.8c-1.6,0-3.3-0.2-4.8-0.6l0,0
		c-3.6-0.7-6.9-2.4-9.4-4.9c-1.5-1.5-2.7-3.1-3.6-5.1c-0.4-0.9-0.8-1.8-1.1-2.7v-0.1c-0.1-0.3-0.2-0.6-0.2-0.9
		c-0.4-1.6-0.8-3.1-0.9-4.7l0,0l-0.1-1.5l0,0c0-0.9-0.1-1.8-0.1-2.6c0-2.4,0.2-4.6,0.6-7c0.1-0.4,0.1-0.9,0.2-1.5
		C728,560.3,738,565,748.6,567.8z"/>
	<path class="st5" d="M825.5,580.7c-0.3,0.2-0.7,0.6-1,0.8l-0.1,0.1c-0.3,0.2-0.7,0.4-0.9,0.6h-0.1c-0.3,0.2-0.7,0.3-1,0.6h-0.1
		c-0.3,0.2-0.8,0.3-1.1,0.6c-2.9,1.1-6.1,1.7-9.3,1.7H811l0.3-0.4c2.1-3,3.9-6.2,5.5-9.6c1.1-2.4,2-4.8,2.8-7.3l-3.7-1.1
		c-0.7,2.4-1.6,4.6-2.6,6.9c-1.5,3.1-3.1,6.1-5.2,9c-0.6,0.8-1.1,1.5-1.7,2.2c-3.7-0.7-7.1-2.4-9.8-4.9c-0.7-0.7-1.3-1.5-1.9-2.2
		c1.8-3.5,2.9-7.4,3.4-11.3c11.9-4,22.8-10.7,31.9-19.4c0,0.1,0.1,0.2,0.1,0.3c0.9,2.6,1.7,5.3,2.1,8.1c0.2,1.5,0.4,2.8,0.6,4.2l0,0
		c0,0.4,0,0.9,0.1,1.3c0.1,3.1-0.1,6.3-0.9,9.4c-0.2,0.8-0.4,1.6-0.7,2.4l0,0c-0.1,0.3-0.2,0.7-0.3,1c0,0,0,0,0,0.1
		c-0.1,0.3-0.3,0.7-0.4,1c-0.4,1-1,1.9-1.7,2.8C827.9,578.6,826.8,579.7,825.5,580.7z"/>
	<path class="st6" d="M791.4,575.5L791,576c-0.1,0.2-0.2,0.3-0.3,0.4c-0.1,0.1-0.3,0.6-0.6,0.9l0,0l0,0l-0.7,0.8
		c-0.1,0.1-0.1,0.2-0.2,0.3l-0.3,0.4l-0.4,0.4c-0.1,0.1-0.1,0.1-0.2,0.2l-0.6,0.6c-3.4,2.9-7.5,4.6-11.9,4.8c1.9-0.6,3.8-1,5.8-1.3
		l-0.7-3.8c-2.6,0.4-5.1,1-7.5,1.9c-2.4,0.8-4.6,1.7-6.7,2.7c-1.6-0.4-3.1-1-4.5-1.8c0.1-2.9-0.3-5.8-1.5-8.5l-3.5,1.7
		c0.6,1.2,0.9,2.5,1,3.8l-0.6-0.6l-0.2-0.2c-0.2-0.2-0.3-0.4-0.6-0.7l-0.2-0.3c-1.9-2.7-3.3-5.7-3.8-9c13.7,2.8,27.9,2.4,41.3-1.5
		c-0.2,2-0.8,3.9-1.5,5.8c-0.3,0.7-0.6,1.5-1,2.1L791.4,575.5z"/>
</g>
<rect class="st7" width="1528.8" height="1938.7"/>
</svg>
