<?xml version="1.0" encoding="utf-8"?>
<!-- Generator: Adobe Illustrator 23.0.3, SVG Export Plug-In . SVG Version: 6.00 Build 0)  -->
<svg version="1.1" id="Layer_1" xmlns="http://www.w3.org/2000/svg" xmlns:xlink="http://www.w3.org/1999/xlink" x="0px" y="0px"
	 viewBox="0 0 1036 760" style="enable-background:new 0 0 1036 760;" xml:space="preserve">
<style type="text/css">
	.st0{fill:#414042;}
	.st1{fill:#FFFFFF;}
	.st2{fill:#F8E1BD;}
	.st3{fill:#EB5532;}
</style>
<title>Asset 4</title>
<path class="st0" d="M458.7,523.7c-2.6,0-4.8,2.1-4.8,4.8c0,2.6,2.1,4.8,4.8,4.8c2.6,0,4.8-2.1,4.8-4.8
	C463.5,525.9,461.4,523.7,458.7,523.7z"/>
<path class="st0" d="M502.4,558.4l24.8-28.2c8.3-9.4,12.3-19.6,11.7-29.6c-0.6-9.2-5.1-17.6-13.3-24.8l-3.6-3.2l-5.3,6
	c0-0.5,0-1.1-0.1-1.6c-0.6-9.2-5.1-17.6-13.3-24.8l-3.6-3.2l-18.2,20.6c-0.6-11.1-4.3-20.4-10.8-26.9s-15.7-10-26.8-10h-4.8v47.6
	c-9.8,2.6-19.2,12-24.4,18c-10.8,12.8-19.2,27.5-24.6,43.3c-2.5,7.2-4.4,14.6-5.6,22.1c-1,6.2-1.6,12.5-1.6,18.8
	c0,21.5,6.2,39.1,18,50.9c10.6,10.7,25.1,16.1,43,16.1c21.3,0,38.1-7.9,48.7-22.8C504.5,609.8,507.9,584.7,502.4,558.4z M439,638.9
	c-12.9-0.9-23.2-5.2-30.9-12.9c-6.9-6.9-15.1-20.1-15-43.6c0-5.7,0.5-11.5,1.5-17.2c0.1-0.8,0.3-1.7,0.4-2.5h34.4
	c-4.5,4-9,9-10.8,14c-2.8,7.8-1.8,16,2.6,22.3c4,5.6,10.3,9.3,17.9,10.3v29.6L439,638.9L439,638.9z M439,599.5
	c-4-0.7-7.6-2.9-10-6.1c-2.7-3.8-3.2-8.6-1.4-13.5c1.4-3.8,6.4-8.7,11.4-12.7V599.5z M439,553.1h-22.6l22.6-18.2V553.1z M439,491.7
	L439,491.7v30.7L396.2,557c1-4.1,2.1-8.2,3.5-12.1c9.9-28.5,28.1-48.8,39.3-53.9V491.7z M448.7,549.2V491
	c11.2,5.1,29.4,25.3,39.3,53.9c0.9,2.7,1.8,5.5,2.6,8.2h-41.9L448.7,549.2z M484.2,620.5c-7.9,11.1-19.9,17.3-35.5,18.3v-76.1h44.1
	C497.1,585.4,494.1,606.6,484.2,620.5z M497.7,541.4c-5.5-15.8-13.8-30.5-24.6-43.3c-5.2-6-14.7-15.5-24.4-18v-37.6
	c6.3,0.8,11.4,3.1,15.2,6.9c6.7,6.7,8.1,16.5,8.1,23.6v3.5c3.2,2.6,6.1,5.3,8.8,8.4l1-1l18.6-21.1c4.1,4.6,6.3,9.6,6.7,14.8
	c0.6,9.2-4.7,17.3-9.2,22.5l-0.1,0.1c1.8,2.9,3.4,5.9,5,8.9l14.9-17l0,0l5-5.7c4.1,4.6,6.3,9.6,6.7,14.8c0.6,9.3-4.8,17.4-9.3,22.6
	L499.5,547C499,545.2,498.4,543.3,497.7,541.4L497.7,541.4z"/>
<path class="st0" d="M521.1,616.1c-0.3-0.1-0.5-0.1-0.8-0.1c-1.9,0-2.8,1.8-2.8,3.5s0.9,3.7,2.8,3.7c0.3,0,0.6-0.1,0.8-0.2v2.1
	c-0.3,0.1-0.7,0.2-1,0.2c-3.2,0-5-2.9-5-5.8c0-2.8,1.8-5.6,4.9-5.6c0.4,0,0.8,0.1,1.1,0.2V616.1z"/>
<path class="st0" d="M524.8,613.9v4.4h2.2v-4.4h2.2v11.2H527v-4.8h-2.2v4.8h-2.2v-11.2H524.8z"/>
<path class="st0" d="M533.5,613.9v11.2h-2.2v-11.2H533.5z"/>
<path class="st0" d="M541,616.1c-0.3-0.1-0.5-0.1-0.8-0.1c-1.9,0-2.8,1.8-2.8,3.5s0.8,3.7,2.8,3.7c0.3,0,0.6-0.1,0.8-0.2v2.1
	c-0.3,0.1-0.7,0.2-1,0.2c-3.2,0-5-2.9-5-5.8c0-2.8,1.8-5.6,4.9-5.6c0.4,0,0.8,0.1,1.1,0.2V616.1z"/>
<path class="st0" d="M544.7,613.9v5l0,0l1.8-5h2.3l-2.1,5.2l2.3,6h-2.3l-2-5.7l0,0v5.7h-2.2v-11.2H544.7z"/>
<path class="st0" d="M555,613.9v2.1h-2.2v2.4h2v2.1h-2v2.5h2.3v2.1h-4.5v-11.2L555,613.9L555,613.9z"/>
<path class="st0" d="M558.8,613.9l2.8,6.8l0,0c-0.1-0.6-0.2-1.1-0.2-1.7v-5.1h2.2v11.2h-2.1l-2.7-6.8l0,0l0.1,1.1v5.6h-2.2v-11.2
	h2.1L558.8,613.9L558.8,613.9z"/>
<path class="st0" d="M569.3,625.2V614h2.3c0.5,0,3.8-0.3,3.8,3.3c0.1,1.7-1.2,3.2-2.9,3.3c-0.2,0-0.3,0-0.5,0h-0.5v4.6L569.3,625.2z
	 M571.5,618.7c1.1,0,1.7-0.4,1.7-1.5c0-0.8-0.3-1.5-1.3-1.5h-0.4V618.7z"/>
<path class="st0" d="M580.6,613.9l2.7,11.2h-2.4l-0.4-1.9h-2.3l-0.4,1.9h-2.2l2.6-11.2H580.6z M579.6,618.5l-0.2-1.7l0,0l-0.2,1.7
	l-0.5,3h1.6L579.6,618.5z"/>
<path class="st0" d="M589.2,616.5c-0.4-0.4-1-0.7-1.6-0.7s-1.1,0.4-1.1,0.9c0,0.1,0,0.1,0,0.2c0,1.8,3.4,1.9,3.4,5
	c0,2-1.1,3.5-3.2,3.5c-0.7,0-1.3-0.2-1.9-0.6v-2.1c0.5,0.4,1.1,0.6,1.7,0.6c0.7,0,1.2-0.5,1.3-1.1v-0.1c0-0.9-0.7-1.2-1.3-1.6
	c-1.3-0.9-2.1-1.7-2.1-3.3s1-3.3,2.9-3.3c0.7,0,1.4,0.2,2,0.5L589.2,616.5z"/>
<path class="st0" d="M596.6,613.9v2.1h-1.7v9.1h-2.2V616h-1.8v-2.1H596.6z"/>
<path class="st0" d="M600.2,613.9v7.3c0,0.9-0.1,2.1,1.1,2.1s1.1-0.8,1.1-1.7v-7.7h2.2v8.2c0,1.2-0.1,3.2-3.3,3.2
	c-2.1,0-3.3-1-3.3-3.1v-8.3H600.2z"/>
<path class="st0" d="M606.5,625.2V614h2.2c1.4,0,3.9,0.2,3.9,3.2c0.1,1.2-0.6,2.3-1.6,2.9l1.9,5.1h-2.3l-1.9-5.2l0,0v5.2H606.5z
	 M608.7,618.8h0.4c1,0,1.4-0.7,1.4-1.6c0.1-0.7-0.4-1.3-1.1-1.4c-0.1,0-0.2,0-0.3,0h-0.3L608.7,618.8z"/>
<path class="st0" d="M619.2,613.9v2.1H617v2.4h2v2.1h-2v2.5h2.3v2.1h-4.5v-11.2L619.2,613.9L619.2,613.9z"/>
<path class="st0" d="M538.3,547.2c-6.8,0-16.2,10.3-20.6,22.6c-0.9,2.6-1.6,5.2-2.1,7.9c-0.4,2.2-0.6,4.5-0.6,6.8
	c0,7.8,2.3,14.3,6.7,18.7c4.1,4.1,9.6,6.2,16.5,6.2c10.3,0,15.9-4.8,18.7-8.8c5.3-7.5,6-19.3,1.9-30.8
	C554.6,557.6,545.1,547.2,538.3,547.2z M551.6,596.8c-2.8,4-7.3,6-13.3,6c-5,0-9-1.4-11.8-4.2c-4-4-4.8-9.8-4.8-13.9
	c0-1.9,0.2-3.8,0.5-5.7c0.4-2.3,1-4.6,1.8-6.8c3.9-11.1,11.6-18.2,14.3-18.2s10.3,7.1,14.3,18.2l0,0
	C556,581.6,555.6,591.1,551.6,596.8L551.6,596.8z"/>
<polygon class="st0" points="572,548.4 565.4,548.4 565.4,607.4 589.4,607.4 589.4,600.9 572,600.9 "/>
<polygon class="st0" points="625.3,585 615.3,548.5 608.5,548.5 625.3,609.6 642.2,548.5 635.4,548.5 "/>
<rect x="596.1" y="548.5" class="st0" width="6.5" height="59"/>
<rect x="649" y="548.5" class="st0" width="6.5" height="59"/>
<path class="st0" d="M664.5,547.2v60.2h6.7v-21.6h16.6c2.4,7,3.7,14.3,3.8,21.6h6.6C698.1,599.3,696,566.1,664.5,547.2z
	 M671.1,579.1v-18.7c5.8,5.3,10.5,11.6,13.9,18.7H671.1z"/>
<path class="st0" d="M179,488.1c-2.6,0-4.8,2.1-4.8,4.8s2.1,4.8,4.8,4.8c2.6,0,4.8-2.1,4.8-4.8S181.6,488.1,179,488.1z"/>
<path class="st0" d="M222.7,522.7l24.8-28.2c8.3-9.4,12.3-19.6,11.7-29.6c-0.6-9.2-5.1-17.6-13.4-24.8l-3.6-3.2l-5.3,6
	c0-0.5,0-1.1-0.1-1.6c-0.6-9.2-5.1-17.6-13.3-24.8l-3.6-3.2l-18.2,20.6c-0.6-11.2-4.3-20.4-10.8-26.9s-15.7-10-26.8-10h-4.8v47.6
	c-9.8,2.6-19.2,12-24.4,18c-10.8,12.8-19.2,27.5-24.6,43.3c-2.5,7.2-4.4,14.6-5.6,22.1c-1,6.2-1.6,12.5-1.6,18.8
	c0,21.5,6.2,39.1,18,50.9c10.6,10.6,25.1,16,43,16c21.3,0,38.1-7.9,48.7-22.8C224.7,574.2,228.1,549.1,222.7,522.7z M159.3,603.2
	c-12.9-0.9-23.2-5.2-30.9-12.9c-6.9-6.9-15.1-20.1-15-43.6c0-5.7,0.5-11.5,1.5-17.2c0.1-0.8,0.3-1.7,0.4-2.5h34.4
	c-4.5,4-9,9-10.8,14c-2.8,7.8-1.8,15.9,2.6,22.3c4,5.6,10.3,9.3,17.9,10.3v29.6L159.3,603.2L159.3,603.2z M159.3,563.9
	c-4-0.7-7.6-2.9-10-6.1c-2.7-3.8-3.2-8.6-1.4-13.5c1.4-3.8,6.4-8.7,11.5-12.7L159.3,563.9z M159.3,517.4h-22.6l22.6-18.2V517.4z
	 M159.3,456.1L159.3,456.1v30.7l-42.9,34.6c1-4.1,2.1-8.2,3.5-12.1c9.9-28.5,28.1-48.8,39.3-53.9L159.3,456.1z M168.9,513.6v-58.3
	c11.2,5.1,29.4,25.3,39.3,53.9c1,2.7,1.8,5.5,2.6,8.2h-41.9V513.6z M204.5,584.9c-7.9,11.1-19.9,17.3-35.5,18.3V527h44.1
	C217.3,549.8,214.4,571,204.5,584.9L204.5,584.9z M218,505.8c-5.5-15.8-13.8-30.5-24.6-43.3c-5.2-6-14.7-15.5-24.4-18v-37.6
	c6.3,0.8,11.4,3.1,15.2,6.9c6.7,6.7,8.1,16.5,8.1,23.6v3.5c3.2,2.6,6.1,5.3,8.8,8.4l0.9-1l18.6-21.1c4.1,4.6,6.3,9.6,6.7,14.8
	c0.6,9.2-4.7,17.3-9.2,22.5l-0.1,0.1c1.8,2.9,3.4,5.9,5,8.9l14.9-17l0,0l5-5.7c4.1,4.6,6.3,9.6,6.7,14.8c0.6,9.3-4.8,17.4-9.3,22.6
	l-20.5,23.3C219.2,509.5,218.6,507.7,218,505.8L218,505.8z"/>
<path class="st0" d="M118.5,688.6c-0.3-0.1-0.5-0.1-0.8-0.1c-1.9,0-2.8,1.8-2.8,3.5s0.9,3.7,2.8,3.7c0.3,0,0.6-0.1,0.9-0.2v2.1
	c-0.3,0.1-0.7,0.2-1,0.2c-3.2,0-5-2.9-5-5.8c0-2.8,1.8-5.6,4.9-5.6c0.4,0,0.8,0.1,1.1,0.2v2L118.5,688.6L118.5,688.6z"/>
<path class="st0" d="M122.2,686.5v4.4h2.3v-4.4h2.2v11.2h-2.2v-4.8h-2.3v4.8H120v-11.2H122.2z"/>
<path class="st0" d="M130.9,686.5v11.2h-2.2v-11.2H130.9z"/>
<path class="st0" d="M138.4,688.6c-0.3-0.1-0.5-0.1-0.8-0.1c-1.9,0-2.8,1.8-2.8,3.5s0.9,3.7,2.8,3.7c0.3,0,0.6-0.1,0.9-0.2v2.1
	c-0.3,0.1-0.7,0.2-1,0.2c-3.2,0-5-2.9-5-5.8c0-2.8,1.8-5.6,4.9-5.6c0.4,0,0.8,0.1,1.1,0.2v2L138.4,688.6L138.4,688.6z"/>
<path class="st0" d="M142.1,686.5v5l0,0l1.9-5h2.3l-2.1,5.2l2.3,6h-2.3l-2-5.7l0,0v5.7h-2.3v-11.2H142.1z"/>
<path class="st0" d="M152.4,686.5v2.1h-2.2v2.4h2v2.2h-2v2.5h2.3v2.1h-4.6v-11.3H152.4z"/>
<path class="st0" d="M156.2,686.5l2.8,6.8l0,0c-0.1-0.6-0.2-1.1-0.2-1.7v-5.1h2.2v11.2h-2l-2.7-6.8l0,0l0.1,1.1v0.5v5.2h-2.2v-11.2
	H156.2z"/>
<path class="st0" d="M166.6,697.7v-11.3h2.3c0.5,0,3.8-0.3,3.8,3.3c0.1,1.7-1.2,3.2-2.9,3.3c-0.2,0-0.3,0-0.5,0h-0.4v4.6
	L166.6,697.7z M168.9,691.3c1.1,0,1.7-0.4,1.7-1.5c0-0.8-0.3-1.5-1.3-1.5h-0.4V691.3z"/>
<path class="st0" d="M178,686.5l2.7,11.2h-2.4l-0.4-1.9h-2.2l-0.4,1.9h-2.2l2.6-11.2H178z M177.1,691l-0.3-1.7l0,0l-0.2,1.7l-0.5,3
	h1.6L177.1,691z"/>
<path class="st0" d="M186.6,689c-0.4-0.4-1-0.7-1.6-0.7s-1.1,0.4-1.1,0.9c0,0.1,0,0.1,0,0.2c0,1.8,3.4,1.9,3.4,5
	c0,2-1.1,3.5-3.2,3.5c-0.7,0-1.3-0.2-1.9-0.6v-2.1c0.5,0.4,1.1,0.6,1.7,0.6c0.7,0,1.2-0.5,1.3-1.1v-0.1c0-0.9-0.7-1.2-1.3-1.6
	c-1.3-0.9-2.1-1.7-2.1-3.3s1-3.3,2.9-3.3c0.7,0,1.4,0.2,2,0.6L186.6,689z"/>
<path class="st0" d="M194,686.5v2.1h-1.8v9.1H190v-9.1h-1.7v-2.1H194z"/>
<path class="st0" d="M197.6,686.5v7.3c0,0.9-0.1,2.1,1.1,2.1s1.1-0.8,1.1-1.7v-7.7h2.2v8.2c0,1.2-0.1,3.2-3.3,3.2
	c-2.1,0-3.3-1-3.3-3.1v-8.3H197.6z"/>
<path class="st0" d="M203.9,697.7v-11.3h2.2c1.4,0,3.9,0.1,3.9,3.2c0.1,1.2-0.6,2.3-1.6,2.9l1.9,5.1H208l-1.9-5.2l0,0v5.2
	L203.9,697.7z M206.1,691.3h0.4c1,0,1.4-0.7,1.4-1.6c0.1-0.7-0.5-1.3-1.2-1.4c-0.1,0-0.2,0-0.4,0H206L206.1,691.3z"/>
<path class="st0" d="M216.6,686.5v2.1h-2.2v2.4h2v2.2h-2v2.5h2.3v2.1h-4.5v-11.3H216.6z"/>
<path class="st0" d="M95.8,619.8c-6.8,0-16.2,10.3-20.6,22.6c-0.9,2.6-1.6,5.2-2.1,7.9c-0.4,2.2-0.6,4.5-0.6,6.8
	c0,7.8,2.3,14.3,6.7,18.7c4.1,4.1,9.6,6.2,16.5,6.2c10.3,0,15.9-4.8,18.7-8.8c5.3-7.5,6-19.3,1.9-30.8
	C112,630.1,102.6,619.8,95.8,619.8z M109.1,669.3c-2.8,4-7.3,6-13.3,6c-5,0-9-1.4-11.8-4.2c-4-4-4.8-9.8-4.8-13.9
	c0-1.9,0.2-3.8,0.5-5.7c0.4-2.3,1-4.6,1.8-6.8c3.9-11.1,11.6-18.2,14.3-18.2s10.3,7.1,14.3,18.2l0,0
	C113.5,654.1,113.1,663.6,109.1,669.3z"/>
<polygon class="st0" points="129.4,621 122.9,621 122.9,680 146.8,680 146.8,673.4 129.4,673.4 "/>
<polygon class="st0" points="182.8,657.6 172.7,621.1 165.9,621.1 182.8,682.1 199.7,621.1 192.9,621.1 "/>
<rect x="153.6" y="621.1" class="st0" width="6.5" height="59"/>
<rect x="206.4" y="621.1" class="st0" width="6.5" height="59"/>
<path class="st0" d="M221.9,619.8V680h6.7v-21.6h16.6c2.4,7,3.7,14.3,3.8,21.6h6.7C255.6,671.9,253.4,638.7,221.9,619.8z
	 M228.5,651.7V633c5.8,5.3,10.5,11.6,13.9,18.7H228.5z"/>
<path class="st1" d="M160.8,181.7v-58.2c11.2,5.1,29.4,25.3,39.3,53.9c1,2.7,1.8,5.5,2.6,8.2h-41.9V181.7z"/>
<path class="st0" d="M170.8,156.2c-2.6,0-4.8,2.1-4.8,4.8c0,2.6,2.1,4.8,4.8,4.8c2.6,0,4.8-2.1,4.8-4.8
	C175.6,158.3,173.5,156.2,170.8,156.2z"/>
<path class="st0" d="M214.5,190.8l24.8-28.2c8.3-9.4,12.3-19.6,11.7-29.6c-0.6-9.2-5.1-17.6-13.3-24.8l-3.6-3.2l-5.3,6
	c0-0.5,0-1.1-0.1-1.6c-0.6-9.2-5.1-17.6-13.4-24.8l-3.6-3.2L193.5,102c-0.6-11.2-4.3-20.4-10.8-26.9s-15.6-10-26.8-10h-4.8v47.6
	c-9.8,2.6-19.2,12-24.4,18c-10.8,12.8-19.2,27.5-24.7,43.3c-2.5,7.2-4.4,14.6-5.6,22.1c-1,6.2-1.6,12.5-1.6,18.8
	c0,21.5,6.2,39.1,18,50.9c10.6,10.7,25.1,16.1,43,16.1c21.3,0,38.1-7.9,48.7-22.8C216.6,242.3,220,217.2,214.5,190.8z M151.1,271.4
	c-12.9-0.9-23.2-5.2-30.9-12.9c-6.9-6.9-15.1-20.1-15-43.6c0-5.7,0.5-11.5,1.5-17.2c0.1-0.8,0.3-1.7,0.4-2.5h34.4
	c-4.5,4-9,9-10.8,14c-2.8,7.8-1.8,16,2.6,22.3c4,5.6,10.3,9.3,17.9,10.3L151.1,271.4z M151.1,232c-4-0.7-7.6-2.9-10-6.1
	c-2.7-3.8-3.2-8.6-1.4-13.5c1.4-3.9,6.4-8.7,11.5-12.7L151.1,232z M151.1,185.5h-22.6l22.6-18.2V185.5z M151.1,124.2L151.1,124.2
	v30.7l-42.9,34.6c1-4.1,2.2-8.2,3.5-12.2c9.9-28.5,28.1-48.8,39.3-53.9v0.8C151,124.2,151.1,124.2,151.1,124.2z M160.8,181.7v-58.3
	c11.2,5.1,29.4,25.3,39.3,53.9c1,2.7,1.8,5.5,2.6,8.2h-41.9V181.7z M196.3,253c-7.9,11.2-19.9,17.3-35.5,18.3v-76.2h44.1
	C209.2,217.9,206.2,239.1,196.3,253L196.3,253z M209.8,173.9c-5.5-15.8-13.8-30.5-24.6-43.3c-5.2-6-14.6-15.5-24.4-18V74.9
	c6.3,0.8,11.4,3.1,15.2,6.9c6.7,6.7,8.1,16.5,8.1,23.6v3.5c3.1,2.6,6.1,5.4,8.8,8.4l0.9-1l18.7-21.1c4.1,4.6,6.3,9.6,6.7,14.8
	c0.6,9.2-4.7,17.3-9.2,22.5l-0.1,0.1c1.8,2.9,3.4,5.9,5,8.9l14.9-17l0,0l5-5.7c4.1,4.6,6.3,9.6,6.7,14.8c0.6,9.3-4.8,17.4-9.3,22.6
	l-20.5,23.3C211.1,177.6,210.5,175.8,209.8,173.9z"/>
<path class="st2" d="M151.1,271.4c-12.9-0.9-23.2-5.2-30.9-12.9c-6.9-6.9-15.1-20.1-15-43.6c0-5.7,0.5-11.5,1.5-17.2
	c0.1-0.8,0.3-1.7,0.4-2.5h34.4c-4.5,4-9,9-10.8,14c-2.8,7.8-1.8,16,2.6,22.3c4,5.6,10.3,9.3,17.9,10.3L151.1,271.4z"/>
<path class="st3" d="M151.1,231.9c-4-0.7-7.6-2.9-10-6.1c-2.7-3.8-3.2-8.6-1.4-13.5c1.4-3.9,6.4-8.7,11.5-12.7L151.1,231.9z"/>
<polygon class="st1" points="151.1,185.5 128.5,185.5 151.1,167.3 "/>
<path class="st3" d="M209.8,173.9c-5.5-15.8-13.8-30.5-24.6-43.3c-5.2-6-14.6-15.5-24.4-18V74.9c6.3,0.8,11.4,3.1,15.2,6.9
	c6.7,6.7,8.1,16.5,8.1,23.6v3.5c3.1,2.6,6.1,5.4,8.8,8.4l0.9-1l18.7-21.1c4.1,4.6,6.3,9.6,6.7,14.8c0.6,9.2-4.7,17.3-9.2,22.5
	l-0.1,0.1c1.8,2.9,3.4,5.9,5,8.9l14.9-17l0,0l5-5.7c4.1,4.6,6.3,9.6,6.7,14.8c0.6,9.3-4.8,17.4-9.3,22.6l-20.5,23.3
	C211.1,177.6,210.5,175.8,209.8,173.9z"/>
<path class="st1" d="M196.3,253c-7.9,11.2-19.9,17.3-35.5,18.3v-76.2h44.1C209.2,217.9,206.2,239.1,196.3,253z"/>
<path class="st2" d="M151.1,124.2L151.1,124.2v30.7l-42.9,34.6c1-4.1,2.2-8.2,3.5-12.2c9.9-28.5,28.1-48.8,39.3-53.9v0.8
	C151,124.2,151.1,124.2,151.1,124.2z"/>
<path class="st0" d="M110.4,356.5c-0.3-0.1-0.6-0.1-0.8-0.1c-1.9,0-2.8,1.8-2.8,3.5s0.9,3.7,2.8,3.7c0.3,0,0.6-0.1,0.9-0.2v2.1
	c-0.3,0.1-0.7,0.2-1,0.2c-3.2,0-5-2.9-5-5.8c0-2.8,1.8-5.6,4.9-5.6c0.4,0,0.8,0.1,1.1,0.2v2L110.4,356.5L110.4,356.5z"/>
<path class="st0" d="M114.1,354.4v4.4h2.2v-4.4h2.2v11.2h-2.2v-4.8h-2.2v4.8h-2.2v-11.2H114.1z"/>
<path class="st0" d="M122.7,354.4v11.2h-2.2v-11.2H122.7z"/>
<path class="st0" d="M130.3,356.5c-0.3-0.1-0.6-0.1-0.8-0.1c-1.9,0-2.8,1.8-2.8,3.5s0.9,3.7,2.8,3.7c0.3,0,0.6-0.1,0.9-0.2v2.1
	c-0.3,0.1-0.7,0.2-1,0.2c-3.2,0-5-2.9-5-5.8c0-2.8,1.8-5.6,4.9-5.6c0.4,0,0.8,0.1,1.1,0.2v2L130.3,356.5L130.3,356.5z"/>
<path class="st0" d="M134,354.4v5l0,0l1.8-5h2.3l-2,5.2l2.3,6h-2.3l-2-5.7l0,0v5.7h-2.3v-11.2H134z"/>
<path class="st0" d="M144.2,354.4v2.1H142v2.4h2v2.1h-2v2.5h2.3v2.1h-4.5v-11.2H144.2z"/>
<path class="st0" d="M148.1,354.4l2.8,6.8l0,0c-0.1-0.6-0.2-1.1-0.2-1.7v-5h2.2v11.2h-2.1l-2.7-6.8l0,0l0.1,1.1v0.5v5.1H146v-11.2
	H148.1z"/>
<path class="st0" d="M158.5,365.6v-11.2h2.3c0.5,0,3.8-0.3,3.8,3.3c0.1,1.7-1.2,3.2-2.9,3.3c-0.2,0-0.3,0-0.5,0h-0.5v4.6
	L158.5,365.6z M160.7,359.2c1.1,0,1.7-0.4,1.7-1.5c0-0.8-0.3-1.5-1.3-1.5h-0.4L160.7,359.2L160.7,359.2z"/>
<path class="st0" d="M169.9,354.4l2.7,11.2h-2.4l-0.4-1.9h-2.2l-0.4,1.9h-2.3l2.6-11.2H169.9z M168.9,359l-0.3-1.7l0,0l-0.2,1.7
	l-0.5,3h1.6L168.9,359z"/>
<path class="st0" d="M178.4,356.9c-0.4-0.4-1-0.7-1.6-0.7s-1.1,0.4-1.1,0.9c0,0.1,0,0.1,0,0.2c0,1.8,3.4,1.9,3.4,5
	c0,2-1.1,3.5-3.2,3.5c-0.7,0-1.3-0.2-1.9-0.6v-2.1c0.5,0.4,1.1,0.6,1.7,0.6c0.7,0,1.2-0.5,1.3-1.1v-0.1c0-0.9-0.7-1.2-1.3-1.6
	c-1.3-0.9-2.1-1.7-2.1-3.3c0-1.6,1-3.3,2.9-3.3c0.7,0,1.3,0.2,1.9,0.5L178.4,356.9z"/>
<path class="st0" d="M185.9,354.4v2.1h-1.8v9.1h-2.2v-9.1h-1.7v-2.1H185.9z"/>
<path class="st0" d="M189.4,354.4v7.3c0,0.9-0.1,2.1,1.1,2.1s1.1-0.8,1.1-1.7v-7.7h2.2v8.2c0,1.2-0.1,3.2-3.3,3.2
	c-2.1,0-3.3-1-3.3-3.1v-8.3H189.4z"/>
<path class="st0" d="M195.7,365.6v-11.2h2.2c1.4,0,3.9,0.2,3.9,3.2c0.1,1.2-0.6,2.3-1.6,2.9l1.9,5.1h-2.2l-1.9-5.2l0,0v5.2H195.7z
	 M198,359.2h0.4c1,0,1.4-0.7,1.4-1.6c0.1-0.7-0.4-1.3-1.1-1.4c-0.1,0-0.3,0-0.4,0H198V359.2z"/>
<path class="st0" d="M208.5,354.4v2.1h-2.2v2.4h2v2.1h-2v2.5h2.3v2.1h-4.5v-11.2H208.5z"/>
<path class="st0" d="M87.7,287.7c-6.8,0-16.2,10.3-20.6,22.6c-0.9,2.6-1.6,5.2-2.1,7.9c-0.4,2.2-0.6,4.5-0.6,6.8
	c0,7.8,2.3,14.3,6.7,18.7c4.1,4.1,9.6,6.2,16.5,6.2c10.3,0,15.9-4.8,18.7-8.8c5.3-7.4,6-19.2,1.9-30.8
	C103.9,298,94.4,287.7,87.7,287.7z M100.9,337.2c-2.8,4-7.3,6-13.3,6c-5,0-9-1.4-11.8-4.2c-4-4-4.8-9.8-4.8-13.9
	c0-1.9,0.2-3.8,0.5-5.7c0.4-2.3,1-4.6,1.8-6.8c3.9-11.1,11.6-18.2,14.3-18.2s10.3,7.1,14.3,18.2l0,0
	C105.3,322.1,104.9,331.6,100.9,337.2z"/>
<polygon class="st0" points="121.3,288.9 114.7,288.9 114.7,347.9 138.7,347.9 138.7,341.4 121.3,341.4 "/>
<polygon class="st0" points="174.6,325.5 164.6,289 157.8,289 174.6,350 191.5,289 184.7,289 "/>
<rect x="145.4" y="289" class="st0" width="6.5" height="59"/>
<rect x="198.3" y="289" class="st0" width="6.5" height="59"/>
<path class="st0" d="M213.7,287.7v60.2h6.7v-21.6H237c2.4,7,3.7,14.3,3.8,21.6h6.7C247.4,339.8,245.3,306.6,213.7,287.7z
	 M220.4,319.6v-18.7c5.8,5.3,10.5,11.7,13.9,18.7H220.4z"/>
<path class="st1" d="M448.7,215.6v-58.2c11.2,5,29.5,25.3,39.3,53.9c0.9,2.7,1.8,5.5,2.6,8.2h-41.9L448.7,215.6L448.7,215.6z"/>
<path class="st1" d="M484.2,287c-7.9,11.1-19.9,17.3-35.5,18.3v-76.2h44.1C497.1,251.8,494.1,273,484.2,287z"/>
<polygon class="st1" points="439,219.5 416.4,219.5 439,201.2 "/>
<path class="st0" d="M458.7,190.1c-2.6,0-4.8,2.1-4.8,4.8s2.1,4.8,4.8,4.8c2.6,0,4.8-2.1,4.8-4.8S461.4,190.1,458.7,190.1z"/>
<path class="st0" d="M502.4,224.8l24.8-28.2c8.3-9.4,12.3-19.6,11.7-29.6c-0.6-9.2-5.1-17.6-13.3-24.8L522,139l-5.3,6
	c0-0.5,0-1.1-0.1-1.6c-0.6-9.2-5.1-17.6-13.3-24.8l-3.6-3.2L481.5,136c-0.6-11.1-4.4-20.4-10.8-26.9s-15.7-10-26.8-10h-4.8v47.6
	c-9.8,2.6-19.3,12.1-24.5,18.1c-10.8,12.8-19.2,27.5-24.6,43.3c-2.5,7.2-4.4,14.6-5.6,22.1c-1,6.2-1.6,12.5-1.6,18.8
	c0,21.5,6.2,39.1,18,50.9c10.6,10.7,25.1,16.1,43,16.1c21.3,0,38.1-7.9,48.7-22.8C504.5,276.3,507.9,251.2,502.4,224.8z M439,305.3
	c-12.9-0.9-23.2-5.2-30.9-12.9c-6.9-6.9-15.1-20.1-15-43.6c0-5.8,0.5-11.5,1.5-17.2c0.1-0.8,0.3-1.7,0.4-2.5h34.4
	c-4.5,4-9,9-10.8,14c-2.8,7.8-1.8,16,2.6,22.3c4,5.6,10.3,9.3,17.9,10.3v29.6H439z M439,265.9c-4-0.7-7.6-2.9-10-6.1
	c-2.7-3.8-3.2-8.6-1.4-13.5c1.4-3.8,6.4-8.7,11.4-12.7V265.9z M439,219.5h-22.6l22.6-18.2V219.5z M439,158.2L439,158.2v30.7
	l-42.9,34.6c1-4.1,2.1-8.2,3.5-12.1c9.9-28.5,28.1-48.8,39.3-53.9L439,158.2z M448.7,215.6v-58.2c11.2,5,29.5,25.3,39.4,53.9
	c0.9,2.7,1.8,5.5,2.6,8.2h-41.9L448.7,215.6z M484.2,287c-7.9,11.1-19.9,17.3-35.5,18.3v-76.2h44.1C497.1,251.8,494.1,273,484.2,287
	L484.2,287z M497.7,207.9c-5.5-15.8-13.8-30.5-24.6-43.3c-5.2-6-14.7-15.5-24.4-18V109c6.3,0.8,11.4,3.1,15.2,6.9
	c6.7,6.7,8.1,16.5,8.1,23.6v3.5c3.2,2.6,6.1,5.3,8.8,8.4l1-1l18.6-21.1c4.1,4.6,6.3,9.6,6.7,14.8c0.6,9.2-4.7,17.3-9.2,22.5
	l-0.1,0.1c1.8,2.9,3.4,5.9,5,8.9l14.9-17l0,0l5-5.7c4.1,4.6,6.3,9.6,6.7,14.8c0.6,9.3-4.8,17.4-9.3,22.6l-20.5,23.2
	C499,211.6,498.4,209.7,497.7,207.9L497.7,207.9z"/>
<path class="st0" d="M521.1,282.5c-0.3-0.1-0.6-0.1-0.8-0.1c-1.9,0-2.8,1.8-2.8,3.5s0.9,3.7,2.8,3.7c0.3,0,0.6-0.1,0.8-0.2v2.1
	c-0.3,0.1-0.7,0.2-1,0.2c-3.2,0-5-2.9-5-5.8c0-2.8,1.8-5.6,4.9-5.6c0.4,0,0.8,0.1,1.1,0.2V282.5z"/>
<path class="st0" d="M524.8,280.4v4.4h2.2v-4.4h2.2v11.2H527v-4.8h-2.2v4.8h-2.2v-11.2H524.8z"/>
<path class="st0" d="M533.5,280.4v11.2h-2.2v-11.2H533.5z"/>
<path class="st0" d="M541,282.5c-0.3-0.1-0.6-0.1-0.8-0.1c-1.9,0-2.8,1.8-2.8,3.5s0.8,3.7,2.8,3.7c0.3,0,0.6-0.1,0.8-0.2v2.1
	c-0.3,0.1-0.7,0.2-1,0.2c-3.2,0-5-2.9-5-5.8c0-2.8,1.8-5.6,4.9-5.6c0.4,0,0.8,0.1,1.1,0.2V282.5z"/>
<path class="st0" d="M544.7,280.4v5l0,0l1.8-5h2.3l-2.1,5.2l2.3,6h-2.3l-2-5.7l0,0v5.7h-2.2v-11.2H544.7z"/>
<path class="st0" d="M555,280.4v2.1h-2.2v2.4h2v2.1h-2v2.6h2.3v2.1h-4.5v-11.2h4.4V280.4z"/>
<path class="st0" d="M558.8,280.4l2.8,6.8l0,0c-0.1-0.6-0.2-1.1-0.2-1.7v-5h2.2v11.2h-2.1l-2.7-6.8l0,0l0.1,1.1v5.6h-2.2v-11.2
	H558.8z"/>
<path class="st0" d="M569.3,291.6v-11.2h2.3c0.5,0,3.8-0.3,3.8,3.3c0.1,1.7-1.2,3.2-2.9,3.3c-0.2,0-0.3,0-0.5,0h-0.5v4.6
	L569.3,291.6z M571.5,285.1c1.1,0,1.7-0.4,1.7-1.5c0-0.8-0.3-1.5-1.3-1.5h-0.4V285.1z"/>
<path class="st0" d="M580.6,280.4l2.7,11.2h-2.4l-0.4-1.9h-2.3l-0.4,1.9h-2.2l2.6-11.2H580.6z M579.6,284.9l-0.2-1.7l0,0l-0.2,1.7
	l-0.5,3h1.6L579.6,284.9z"/>
<path class="st0" d="M589.2,282.9c-0.4-0.4-1-0.7-1.6-0.7s-1.1,0.4-1.1,0.9c0,0.1,0,0.1,0,0.2c0,1.8,3.4,1.9,3.4,5
	c0,2-1.1,3.5-3.2,3.5c-0.7,0-1.3-0.2-1.9-0.6v-2.1c0.5,0.4,1.1,0.6,1.7,0.6c0.7,0,1.2-0.5,1.3-1.1v-0.1c0-0.9-0.7-1.2-1.3-1.6
	c-1.3-0.9-2.1-1.7-2.1-3.3s1-3.3,2.9-3.3c0.7,0,1.4,0.2,2,0.5L589.2,282.9z"/>
<path class="st0" d="M596.6,280.4v2.1h-1.7v9.1h-2.2v-9.1h-1.8v-2.1H596.6z"/>
<path class="st0" d="M600.2,280.4v7.3c0,0.9-0.1,2.1,1.1,2.1s1.1-0.8,1.1-1.7v-7.7h2.2v8.2c0,1.2-0.1,3.2-3.3,3.2
	c-2.1,0-3.3-1-3.3-3.1v-8.3H600.2z"/>
<path class="st0" d="M606.5,291.6v-11.2h2.2c1.4,0,3.9,0.2,3.9,3.2c0.1,1.2-0.6,2.3-1.6,2.9l1.9,5.1h-2.3l-1.9-5.2l0,0v5.2H606.5z
	 M608.7,285.2h0.4c1,0,1.4-0.7,1.4-1.6c0.1-0.7-0.4-1.3-1.1-1.4c-0.1,0-0.3,0-0.4,0h-0.3L608.7,285.2z"/>
<path class="st0" d="M619.2,280.4v2.1H617v2.4h2v2.1h-2v2.6h2.3v2.1h-4.5v-11.2h4.4V280.4z"/>
<path class="st0" d="M538.3,213.6c-6.8,0-16.2,10.3-20.6,22.6c-0.9,2.6-1.6,5.2-2.1,7.9c-0.4,2.2-0.6,4.5-0.6,6.8
	c0,7.8,2.3,14.3,6.7,18.7c4.1,4.1,9.6,6.2,16.5,6.2c10.3,0,15.9-4.8,18.7-8.8c5.3-7.4,6-19.2,1.9-30.8
	C554.6,224,545.1,213.6,538.3,213.6z M551.6,263.2c-2.8,4-7.3,6-13.3,6c-5,0-9-1.4-11.8-4.2c-4-4-4.8-9.8-4.8-13.9
	c0-1.9,0.2-3.8,0.5-5.7c0.4-2.3,1-4.6,1.8-6.8c3.9-11.1,11.6-18.2,14.3-18.2s10.3,7.1,14.3,18.2l0,0
	C556,248,555.6,257.5,551.6,263.2L551.6,263.2z"/>
<polygon class="st0" points="572,214.8 565.4,214.8 565.4,273.8 589.4,273.8 589.4,267.3 572,267.3 "/>
<polygon class="st0" points="625.3,251.4 615.3,215 608.5,215 625.3,276 642.2,215 635.4,215 "/>
<rect x="596.1" y="215" class="st0" width="6.5" height="59"/>
<rect x="649" y="215" class="st0" width="6.5" height="59"/>
<path class="st0" d="M664.5,213.6v60.2h6.7v-21.6h16.6c2.4,7,3.7,14.3,3.8,21.6h6.6C698.1,265.8,696,232.5,664.5,213.6z
	 M671.1,245.6v-18.7c5.8,5.3,10.5,11.7,13.8,18.8L671.1,245.6z"/>
<path class="st3" d="M497.7,207.9c-5.5-15.8-13.8-30.5-24.6-43.3c-5.2-6-14.7-15.5-24.4-18V109c6.3,0.8,11.4,3.1,15.2,6.9
	c6.7,6.7,8.1,16.5,8.1,23.6v3.5c3.2,2.6,6.1,5.3,8.8,8.4l1-1l18.6-21.1c4.1,4.6,6.3,9.6,6.7,14.8c0.6,9.2-4.7,17.3-9.2,22.5
	l-0.1,0.1c1.8,2.9,3.4,5.9,5,8.9l14.9-17l0,0l5-5.7c4.1,4.6,6.3,9.6,6.7,14.8c0.6,9.3-4.8,17.4-9.3,22.6l-20.5,23.2
	C499,211.6,498.4,209.7,497.7,207.9z"/>
<path class="st3" d="M439,265.9c-4-0.7-7.6-2.9-10-6.1c-2.7-3.8-3.2-8.6-1.4-13.5c1.4-3.8,6.4-8.7,11.4-12.7V265.9z"/>
<path class="st2" d="M439,158.2L439,158.2v30.7l-42.9,34.6c1-4.1,2.1-8.2,3.5-12.1c9.9-28.5,28.1-48.8,39.3-53.9L439,158.2z"/>
<path class="st2" d="M439,305.3c-12.9-0.9-23.2-5.2-30.9-12.9c-6.9-6.9-15.1-20.1-15-43.6c0-5.8,0.5-11.5,1.5-17.2
	c0.1-0.8,0.3-1.7,0.4-2.5h34.4c-4.5,4-9,9-10.8,14c-2.8,7.8-1.8,16,2.6,22.3c4,5.6,10.3,9.3,17.9,10.3v29.6H439z"/>
<path class="st0" d="M834.4,279.5c-0.3-0.1-0.6-0.1-0.8-0.1c-1.9,0-2.8,1.8-2.8,3.5s0.9,3.7,2.8,3.7c0.3,0,0.6-0.1,0.9-0.2v2.1
	c-0.3,0.1-0.7,0.2-1,0.2c-3.2,0-5-2.9-5-5.8c0-2.8,1.8-5.6,4.9-5.6c0.4,0,0.8,0.1,1.1,0.2v2L834.4,279.5L834.4,279.5z"/>
<path class="st0" d="M838.1,277.4v4.4h2.2v-4.4h2.2v11.2h-2.2v-4.8h-2.2v4.8h-2.2v-11.2H838.1z"/>
<path class="st0" d="M846.8,277.4v11.2h-2.2v-11.2H846.8z"/>
<path class="st0" d="M854.3,279.5c-0.3-0.1-0.5-0.1-0.8-0.1c-1.9,0-2.8,1.8-2.8,3.5s0.9,3.7,2.8,3.7c0.3,0,0.6-0.1,0.9-0.2v2.1
	c-0.3,0.1-0.7,0.2-1,0.2c-3.2,0-5-2.9-5-5.8c0-2.8,1.8-5.6,4.9-5.6c0.4,0,0.8,0.1,1.1,0.2L854.3,279.5z"/>
<path class="st0" d="M858,277.4v5l0,0l1.8-5h2.3l-2.1,5.2l2.3,6H860l-2-5.7l0,0v5.7h-2.2v-11.2H858z"/>
<path class="st0" d="M868.3,277.4v2.1h-2.2v2.4h2v2.1h-2v2.5h2.3v2.1h-4.5v-11.2H868.3z"/>
<path class="st0" d="M872.2,277.4l2.8,6.8l0,0c-0.1-0.6-0.2-1.1-0.2-1.7v-5h2.2v11.2h-2.1l-2.7-6.8l0,0l0.1,1.1v0.5v5.1h-2.2v-11.2
	H872.2z"/>
<path class="st0" d="M882.6,288.6v-11.2h2.3c0.5,0,3.8-0.3,3.8,3.3c0.1,1.7-1.2,3.2-2.9,3.3c-0.2,0-0.4,0-0.5,0h-0.5v4.6
	L882.6,288.6z M884.8,282.2c1.1,0,1.7-0.4,1.7-1.5c0-0.8-0.3-1.5-1.3-1.5h-0.4L884.8,282.2L884.8,282.2z"/>
<path class="st0" d="M893.9,277.4l2.7,11.2h-2.4l-0.4-1.9h-2.2l-0.4,1.9H889l2.6-11.2H893.9z M893,282l-0.2-1.7l0,0l-0.2,1.7l-0.5,3
	h1.6L893,282z"/>
<path class="st0" d="M902.5,280c-0.4-0.4-1-0.7-1.6-0.7c-0.6-0.1-1.1,0.4-1.1,0.9c0,0.1,0,0.1,0,0.2c0,1.8,3.4,1.9,3.4,5
	c0,2-1.1,3.5-3.2,3.5c-0.7,0-1.3-0.2-1.9-0.6v-2.1c0.5,0.4,1.1,0.6,1.7,0.6c0.7,0,1.2-0.5,1.3-1.1v-0.1c0-0.9-0.7-1.2-1.3-1.6
	c-1.3-0.9-2.1-1.7-2.1-3.3s1-3.3,2.9-3.3c0.7,0,1.3,0.2,1.9,0.6L902.5,280z"/>
<path class="st0" d="M909.9,277.4v2.1h-1.7v9.1H906v-9.1h-1.7v-2.1H909.9z"/>
<path class="st0" d="M913.5,277.4v7.3c0,0.9-0.1,2.1,1.1,2.1s1.1-0.8,1.1-1.7v-7.7h2.2v8.2c0,1.2-0.1,3.2-3.3,3.2
	c-2.1,0-3.3-1-3.3-3.1v-8.3H913.5z"/>
<path class="st0" d="M919.8,288.6v-11.2h2.2c1.4,0,3.9,0.1,3.9,3.2c0.1,1.2-0.6,2.3-1.6,2.9l1.9,5.1h-2.3l-1.9-5.2l0,0v5.2H919.8z
	 M922,282.2h0.4c1,0,1.4-0.7,1.4-1.6c0.1-0.7-0.4-1.3-1.1-1.4c-0.1,0-0.3,0-0.4,0H922V282.2z"/>
<path class="st0" d="M932.5,277.4v2.1h-2.2v2.4h2v2.1h-2v2.5h2.3v2.1h-4.5v-11.2H932.5z"/>
<path class="st0" d="M811.7,210.7c-6.8,0-16.2,10.3-20.6,22.6c-0.9,2.6-1.6,5.3-2.1,8c-0.4,2.2-0.6,4.5-0.6,6.8
	c0,7.8,2.3,14.3,6.7,18.7c4.1,4.1,9.6,6.2,16.5,6.2c10.3,0,15.9-4.8,18.7-8.8c5.3-7.5,6-19.3,1.9-30.8
	C827.9,221.1,818.5,210.7,811.7,210.7z M825,260.2c-2.8,4-7.3,6-13.3,6c-5,0-9-1.4-11.8-4.2c-4-4-4.8-9.8-4.8-13.9
	c0-1.9,0.2-3.8,0.5-5.7c0.4-2.3,1-4.6,1.8-6.8c3.9-11.1,11.6-18.2,14.3-18.2s10.3,7.1,14.3,18.2l0,0
	C829.4,245.1,829,254.5,825,260.2z"/>
<polygon class="st0" points="845.3,211.9 838.8,211.9 838.8,270.9 862.7,270.9 862.7,264.4 845.3,264.4 "/>
<polygon class="st0" points="898.7,248.5 888.6,212 881.8,212 898.7,273 915.6,212 908.8,212 "/>
<rect x="869.5" y="212" class="st0" width="6.5" height="59"/>
<rect x="922.3" y="212" class="st0" width="6.5" height="59"/>
<path class="st0" d="M937.8,210.7v60.2h6.7v-21.6h16.6c2.4,7,3.7,14.3,3.8,21.6h6.7C971.5,262.8,969.3,229.6,937.8,210.7z
	 M944.5,242.6v-18.7c5.8,5.3,10.5,11.6,13.9,18.7H944.5z"/>
</svg>
