<?xml version="1.0" encoding="utf-8"?>
<!-- Generator: Adobe Illustrator 23.0.6, SVG Export Plug-In . SVG Version: 6.00 Build 0)  -->
<svg version="1.1" id="Layer_1" xmlns="http://www.w3.org/2000/svg" xmlns:xlink="http://www.w3.org/1999/xlink" x="0px" y="0px"
	 viewBox="0 0 1036 1126.4" style="enable-background:new 0 0 1036 1126.4;" xml:space="preserve">
<style type="text/css">
	.st0{fill:#414042;}
	.st1{fill:#FFFFFF;}
	.st2{fill:#F8E1BD;}
	.st3{fill:#EB5532;}
	.st4{fill:#C1C1C1;}
	.st5{fill:#323232;}
</style>
<title>Asset 4</title>
<g>
	<g>
		<path class="st0" d="M697,476.5c-1.8,0-3.4,1.5-3.4,3.4c0,1.8,1.5,3.4,3.4,3.4c1.8,0,3.4-1.5,3.4-3.4
			C700.5,478.1,699,476.5,697,476.5z"/>
		<path class="st0" d="M728.3,501.4l17.7-20.2c5.9-6.7,8.8-14,8.3-21.2c-0.4-6.6-3.6-12.6-9.5-17.7l-2.6-2.3l-3.8,4.3
			c0-0.3,0-0.8-0.1-1.1c-0.4-6.6-3.6-12.6-9.5-17.7l-2.6-2.3l-13,14.7c-0.4-7.9-3-14.6-7.7-19.2c-4.6-4.6-11.2-7.1-19.1-7.1H683v34
			c-7,1.8-13.7,8.6-17.5,12.9c-7.7,9.1-13.7,19.6-17.5,30.9c-1.8,5.1-3.1,10.4-4,15.8c-0.7,4.4-1.1,9-1.1,13.5
			c0,15.4,4.4,28,12.9,36.4c7.6,7.6,17.9,11.5,30.8,11.5c15.2,0,27.2-5.6,34.8-16.3C729.8,538,732.2,520.2,728.3,501.4z
			 M682.9,558.9c-9.2-0.6-16.6-3.7-22.1-9.2c-5-5-10.8-14.3-10.7-31.2c0-4.1,0.3-8.3,1-12.3c0.1-0.6,0.2-1.2,0.3-1.8h24.7
			c-3.2,2.9-6.4,6.4-7.7,10c-2,5.6-1.3,11.5,1.8,15.9c2.9,4,7.4,6.6,12.8,7.4L682.9,558.9L682.9,558.9L682.9,558.9z M682.9,530.8
			c-2.9-0.5-5.4-2.1-7.1-4.3c-1.9-2.7-2.3-6.2-1-9.6c1-2.7,4.6-6.2,8.2-9.1L682.9,530.8L682.9,530.8z M682.9,497.6h-16.2l16.2-13
			V497.6z M682.9,453.7L682.9,453.7v22l-30.5,24.7c0.7-3,1.5-5.8,2.5-8.7c7.1-20.3,20.1-34.9,28.1-38.5L682.9,453.7L682.9,453.7z
			 M689.9,494.8v-41.6c8,3.6,21,18.1,28.1,38.5c0.6,1.9,1.3,3.9,1.8,5.8h-30v-2.7L689.9,494.8L689.9,494.8z M715.2,545.7
			c-5.6,7.9-14.3,12.3-25.4,13.1v-54.4h31.5C724.5,520.7,722.4,535.8,715.2,545.7z M724.9,489.2c-3.9-11.3-9.9-21.8-17.5-30.9
			c-3.7-4.3-10.5-11.1-17.5-12.9v-26.8c4.5,0.6,8.2,2.2,10.9,5c4.8,4.8,5.8,11.8,5.8,16.9v2.5c2.3,1.8,4.3,3.8,6.2,6l0.7-0.7
			l13.3-15.1c3,3.3,4.5,6.9,4.8,10.6c0.4,6.6-3.4,12.3-6.6,16.1l-0.1,0.1c1.3,2.1,2.4,4.2,3.6,6.3l10.7-12.2l0,0l3.6-4.1
			c3,3.3,4.5,6.9,4.8,10.6c0.4,6.6-3.4,12.4-6.6,16.2l-14.7,16.6C725.9,491.9,725.4,490.5,724.9,489.2L724.9,489.2z"/>
	</g>
	<path class="st0" d="M741.7,542.6c-0.2-0.1-0.3-0.1-0.6-0.1c-1.4,0-2,1.3-2,2.5s0.6,2.6,2,2.6c0.2,0,0.4-0.1,0.6-0.2v1.5
		c-0.2,0.1-0.5,0.2-0.7,0.2c-2.3,0-3.6-2.1-3.6-4.2c0-2,1.3-4,3.5-4c0.3,0,0.6,0.1,0.8,0.2V542.6z"/>
	<path class="st0" d="M744.3,541v3.1h1.6V541h1.6v8h-1.6v-3.4h-1.6v3.4h-1.6v-8H744.3z"/>
	<path class="st0" d="M750.5,541v8h-1.6v-8H750.5z"/>
	<path class="st0" d="M755.8,542.6c-0.2-0.1-0.3-0.1-0.6-0.1c-1.4,0-2,1.3-2,2.5s0.6,2.6,2,2.6c0.2,0,0.4-0.1,0.6-0.2v1.5
		c-0.2,0.1-0.5,0.2-0.7,0.2c-2.3,0-3.6-2.1-3.6-4.2c0-2,1.3-4,3.5-4c0.3,0,0.6,0.1,0.8,0.2V542.6z"/>
	<path class="st0" d="M758.5,541v3.6l0,0l1.3-3.6h1.7l-1.5,3.7l1.7,4.3H760l-1.4-4.1l0,0v4.1H757v-8H758.5z"/>
	<path class="st0" d="M765.9,541v1.5h-1.6v1.7h1.4v1.5h-1.4v1.8h1.7v1.5h-3.2v-8H765.9L765.9,541z"/>
	<path class="st0" d="M768.6,541l2,4.9l0,0c-0.1-0.4-0.2-0.8-0.2-1.2v-3.6h1.6v8h-1.5l-1.9-4.9l0,0l0.1,0.8v4h-1.6v-8H768.6
		L768.6,541L768.6,541z"/>
	<path class="st0" d="M776.1,549.1v-8h1.7c0.3,0,2.7-0.2,2.7,2.3c0.1,1.2-0.9,2.3-2.1,2.3c-0.2,0-0.2,0-0.3,0h-0.3v3.3L776.1,549.1
		L776.1,549.1z M777.6,544.5c0.8,0,1.2-0.3,1.2-1c0-0.6-0.2-1-1-1h-0.3L777.6,544.5L777.6,544.5z"/>
	<path class="st0" d="M784.1,541l1.9,8h-1.7l-0.3-1.4h-1.7L782,549h-1.6l1.8-8H784.1z M783.4,544.3l-0.2-1.2l0,0l-0.2,1.2l-0.3,2.2
		h1.1L783.4,544.3z"/>
	<path class="st0" d="M790.3,542.9c-0.3-0.3-0.7-0.5-1.1-0.5s-0.8,0.3-0.8,0.6c0,0.1,0,0.1,0,0.2c0,1.3,2.4,1.4,2.4,3.6
		c0,1.4-0.8,2.5-2.3,2.5c-0.5,0-1-0.2-1.4-0.4v-1.5c0.3,0.3,0.8,0.4,1.2,0.4c0.5,0,0.9-0.3,1-0.8v-0.1c0-0.6-0.5-0.9-1-1.1
		c-1-0.6-1.5-1.2-1.5-2.3s0.7-2.3,2.1-2.3c0.5,0,1,0.2,1.4,0.3L790.3,542.9z"/>
	<path class="st0" d="M795.6,541v1.5h-1.2v6.5h-1.6v-6.5h-1.3V541H795.6z"/>
	<path class="st0" d="M798.1,541v5.2c0,0.6-0.1,1.5,0.8,1.5c0.9,0,0.8-0.6,0.8-1.2V541h1.6v5.8c0,0.9-0.1,2.3-2.3,2.3
		c-1.5,0-2.3-0.7-2.3-2.2V541H798.1z"/>
	<path class="st0" d="M802.6,549.1v-8h1.6c1,0,2.8,0.2,2.8,2.3c0.1,0.9-0.4,1.7-1.1,2.1l1.4,3.6h-1.7l-1.4-3.7l0,0v3.7L802.6,549.1
		L802.6,549.1z M804.2,544.5h0.3c0.7,0,1-0.5,1-1.1c0.1-0.5-0.3-1-0.8-1c-0.1,0-0.2,0-0.2,0h-0.2L804.2,544.5z"/>
	<path class="st0" d="M811.8,541v1.5h-1.6v1.7h1.4v1.5h-1.4v1.8h1.7v1.5h-3.2v-8H811.8L811.8,541z"/>
	<path class="st0" d="M753.9,493.3c-4.9,0-11.6,7.4-14.7,16.2c-0.6,1.8-1.1,3.7-1.5,5.6c-0.3,1.6-0.4,3.2-0.4,4.9
		c0,5.6,1.7,10.3,4.8,13.4c3,3,6.9,4.4,11.8,4.4c7.4,0,11.4-3.4,13.4-6.2c3.8-5.4,4.3-13.8,1.4-22
		C765.5,500.8,758.8,493.3,753.9,493.3z M763.5,528.8c-2,2.9-5.2,4.3-9.5,4.3c-3.6,0-6.4-1-8.4-3c-2.9-2.9-3.4-7-3.4-9.9
		c0-1.4,0.2-2.7,0.3-4.1c0.3-1.7,0.7-3.3,1.3-4.9c2.8-7.9,8.3-13,10.3-13c1.9,0,7.4,5,10.3,13l0,0
		C766.6,517.9,766.3,524.7,763.5,528.8L763.5,528.8z"/>
	<polygon class="st0" points="778,494.2 773.3,494.2 773.3,536.4 790.5,536.4 790.5,531.7 778,531.7 	"/>
	<polygon class="st0" points="816.1,520.3 809,494.3 804.1,494.3 816.1,538 828.2,494.3 823.3,494.3 	"/>
	<rect x="795.3" y="494.3" class="st0" width="4.6" height="42.1"/>
	<rect x="833.1" y="494.3" class="st0" width="4.6" height="42.1"/>
	<path class="st0" d="M844.1,493.3v43h4.8v-15.5h11.9c1.7,5,2.6,10.3,2.7,15.5h4.7C868.2,530.6,866.6,506.9,844.1,493.3z
		 M848.9,516.2v-13.4c4.2,3.8,7.5,8.3,9.9,13.4H848.9z"/>
</g>
<g>
	<path class="st0" d="M284.4,445.8c-1.8,0-3.4,1.5-3.4,3.4s1.5,3.4,3.4,3.4c1.8,0,3.4-1.5,3.4-3.4S286.2,445.8,284.4,445.8z"/>
	<path class="st0" d="M315.6,470.5l17.7-20.2c5.9-6.7,8.8-14,8.3-21.2c-0.4-6.6-3.6-12.6-9.6-17.7l-2.6-2.3l-3.8,4.3
		c0-0.3,0-0.8-0.1-1.1c-0.4-6.6-3.6-12.6-9.5-17.7l-2.6-2.3l-13,14.7c-0.4-8-3-14.6-7.7-19.2c-4.6-4.6-11.2-7.1-19.1-7.1h-3.4v34
		c-7,1.8-13.7,8.6-17.5,12.9c-7.7,9.1-13.7,19.6-17.5,30.9c-1.8,5.1-3.1,10.4-4,15.8c-0.7,4.4-1.1,9-1.1,13.5
		c0,15.4,4.4,28,12.9,36.4c7.6,7.6,17.9,11.5,30.8,11.5c15.2,0,27.2-5.6,34.8-16.3C317,507.3,319.5,489.3,315.6,470.5z M270.3,528
		c-9.2-0.6-16.6-3.7-22.1-9.2c-5-5-10.8-14.3-10.7-31.2c0-4.1,0.3-8.3,1-12.3c0.1-0.6,0.2-1.2,0.3-1.8h24.6c-3.2,2.9-6.4,6.4-7.7,10
		c-2,5.6-1.3,11.4,1.8,15.9c2.9,4,7.4,6.6,12.8,7.4L270.3,528L270.3,528L270.3,528z M270.3,499.9c-2.9-0.5-5.4-2.1-7.1-4.3
		c-1.9-2.7-2.3-6.2-1-9.6c1-2.7,4.6-6.2,8.3-9.1L270.3,499.9z M270.3,466.7h-16.2l16.2-13V466.7z M270.3,422.8L270.3,422.8v22
		l-30.7,24.8c0.7-3,1.5-5.8,2.5-8.7c7.1-20.3,20.1-34.9,28.1-38.5L270.3,422.8z M277.2,463.9v-41.7c8,3.6,21,18.1,28.1,38.5
		c0.7,1.9,1.3,3.9,1.8,5.8h-30v-2.6L277.2,463.9L277.2,463.9z M302.6,514.9c-5.6,7.9-14.3,12.3-25.4,13.1v-54.5h31.5
		C311.8,489.8,309.7,505,302.6,514.9L302.6,514.9z M312.2,458.4c-3.9-11.3-9.9-21.8-17.5-30.9c-3.7-4.3-10.5-11.1-17.5-12.9v-26.8
		c4.5,0.6,8.2,2.2,10.9,5c4.8,4.8,5.8,11.8,5.8,16.9v2.5c2.3,1.8,4.3,3.8,6.2,6l0.6-0.7l13.3-15.1c3,3.3,4.5,6.9,4.8,10.6
		c0.4,6.6-3.4,12.3-6.6,16.1l-0.1,0.1c1.3,2.1,2.4,4.2,3.6,6.3l10.7-12.2l0,0l3.6-4.1c3,3.3,4.5,6.9,4.8,10.6
		c0.4,6.6-3.4,12.4-6.6,16.2l-14.7,16.6C313.1,461.1,312.6,459.8,312.2,458.4L312.2,458.4z"/>
	<path class="st0" d="M241.1,589c-0.2-0.1-0.3-0.1-0.6-0.1c-1.4,0-2,1.3-2,2.5s0.6,2.6,2,2.6c0.2,0,0.4-0.1,0.6-0.2v1.5
		c-0.2,0.1-0.5,0.2-0.7,0.2c-2.3,0-3.6-2.1-3.6-4.2c0-2,1.3-4,3.5-4c0.3,0,0.6,0.1,0.8,0.2L241.1,589L241.1,589L241.1,589z"/>
	<path class="st0" d="M243.7,587.6v3.1h1.7v-3.1h1.6v8h-1.6v-3.4h-1.7v3.4h-1.6v-8H243.7z"/>
	<path class="st0" d="M250,587.6v8h-1.6v-8H250z"/>
	<path class="st0" d="M255.4,589c-0.2-0.1-0.3-0.1-0.6-0.1c-1.4,0-2,1.3-2,2.5s0.6,2.6,2,2.6c0.2,0,0.4-0.1,0.6-0.2v1.5
		c-0.2,0.1-0.5,0.2-0.7,0.2c-2.3,0-3.6-2.1-3.6-4.2c0-2,1.3-4,3.5-4c0.3,0,0.6,0.1,0.8,0.2L255.4,589L255.4,589L255.4,589z"/>
	<path class="st0" d="M258,587.6v3.6l0,0l1.4-3.6h1.7l-1.5,3.7l1.7,4.3h-1.7l-1.4-4.1l0,0v4.1h-1.7v-8H258z"/>
	<path class="st0" d="M265.4,587.6v1.5h-1.6v1.7h1.4v1.6h-1.4v1.8h1.7v1.5h-3.3v-8.1H265.4L265.4,587.6z"/>
	<path class="st0" d="M268.1,587.6l2,4.9l0,0c-0.1-0.4-0.2-0.8-0.2-1.2v-3.6h1.6v8h-1.4l-1.9-4.9l0,0l0.1,0.8v0.3v3.7h-1.6v-8H268.1
		z"/>
	<path class="st0" d="M275.5,595.6v-8.1h1.7c0.3,0,2.7-0.2,2.7,2.3c0.1,1.2-0.9,2.3-2.1,2.3c-0.2,0-0.2,0-0.3,0h-0.3v3.3
		L275.5,595.6z M277.2,590.9c0.8,0,1.2-0.3,1.2-1c0-0.6-0.2-1-1-1h-0.3L277.2,590.9L277.2,590.9z"/>
	<path class="st0" d="M283.6,587.6l1.9,8h-1.7l-0.3-1.4H282l-0.3,1.4H280l1.8-8H283.6z M283,590.8l-0.2-1.2l0,0l-0.2,1.2l-0.3,2.2
		h1.1L283,590.8z"/>
	<path class="st0" d="M289.8,589.3c-0.3-0.3-0.7-0.5-1.1-0.5s-0.8,0.3-0.8,0.6c0,0.1,0,0.1,0,0.2c0,1.3,2.4,1.4,2.4,3.6
		c0,1.4-0.8,2.5-2.3,2.5c-0.5,0-1-0.2-1.4-0.4v-1.5c0.3,0.3,0.8,0.4,1.2,0.4c0.5,0,0.9-0.3,1-0.8v-0.1c0-0.6-0.5-0.9-1-1.1
		c-1-0.6-1.5-1.2-1.5-2.3s0.7-2.3,2.1-2.3c0.5,0,1,0.2,1.4,0.4L289.8,589.3z"/>
	<path class="st0" d="M295.1,587.6v1.5h-1.3v6.5h-1.6v-6.5H291v-1.5H295.1z"/>
	<path class="st0" d="M297.7,587.6v5.2c0,0.6-0.1,1.5,0.8,1.5s0.8-0.6,0.8-1.2v-5.5h1.6v5.8c0,0.9-0.1,2.3-2.3,2.3
		c-1.5,0-2.3-0.7-2.3-2.2v-5.9L297.7,587.6L297.7,587.6z"/>
	<path class="st0" d="M302.1,595.6v-8.1h1.6c1,0,2.8,0.1,2.8,2.3c0.1,0.9-0.4,1.7-1.1,2.1l1.4,3.6h-1.7l-1.4-3.7l0,0v3.7
		L302.1,595.6z M303.7,590.9h0.3c0.7,0,1-0.5,1-1.1c0.1-0.5-0.3-1-0.9-1c-0.1,0-0.2,0-0.3,0h-0.2L303.7,590.9z"/>
	<path class="st0" d="M311.2,587.6v1.5h-1.6v1.7h1.4v1.6h-1.4v1.8h1.7v1.5h-3.2v-8.1H311.2L311.2,587.6z"/>
	<path class="st0" d="M224.9,539.9c-4.9,0-11.6,7.4-14.7,16.2c-0.6,1.8-1.1,3.7-1.5,5.6c-0.3,1.6-0.4,3.2-0.4,4.9
		c0,5.6,1.7,10.3,4.8,13.4c3,3,6.9,4.4,11.8,4.4c7.4,0,11.4-3.4,13.4-6.2c3.8-5.4,4.3-13.8,1.4-22
		C236.5,547.3,229.8,539.9,224.9,539.9z M234.4,575.2c-2,2.9-5.2,4.3-9.5,4.3c-3.6,0-6.4-1-8.4-3c-2.9-2.9-3.4-7-3.4-9.9
		c0-1.4,0.2-2.7,0.3-4.1c0.3-1.7,0.7-3.3,1.3-4.9c2.8-7.9,8.3-13,10.3-13s7.4,5,10.3,13l0,0C237.6,564.4,237.3,571.1,234.4,575.2z"
		/>
	<polygon class="st0" points="248.9,540.7 244.3,540.7 244.3,582.9 261.4,582.9 261.4,578.2 248.9,578.2 	"/>
	<polygon class="st0" points="287.1,566.9 279.9,540.8 275,540.8 287.1,584.4 299.2,540.8 294.3,540.8 	"/>
	<rect x="266.2" y="540.8" class="st0" width="4.6" height="42.1"/>
	<rect x="303.9" y="540.8" class="st0" width="4.6" height="42.1"/>
	<path class="st0" d="M315,539.9v43h4.8v-15.5h11.9c1.7,5,2.6,10.3,2.7,15.5h4.8C339.1,577.1,337.6,553.4,315,539.9z M319.8,562.6
		v-13.4c4.2,3.8,7.5,8.3,9.9,13.4H319.8z"/>
</g>
<g>
	<path class="st1" d="M280.7,151.6V110c8,3.6,21,18.1,28.1,38.5c0.7,1.9,1.3,3.9,1.8,5.8h-30v-2.7H280.7z"/>
	<path class="st0" d="M287.8,133.3c-1.8,0-3.4,1.5-3.4,3.4c0,1.8,1.5,3.4,3.4,3.4c1.8,0,3.4-1.5,3.4-3.4
		C291.2,134.8,289.7,133.3,287.8,133.3z"/>
	<path class="st0" d="M319,158.1l17.7-20.2c5.9-6.7,8.8-14,8.3-21.2c-0.4-6.6-3.6-12.6-9.5-17.7l-2.6-2.3l-3.8,4.3
		c0-0.3,0-0.8-0.1-1.1c-0.4-6.6-3.6-12.6-9.6-17.7l-2.6-2.3l-13,14.7c-0.4-8-3-14.6-7.7-19.2c-4.6-4.6-11.1-7.1-19.1-7.1h-3.4v34
		c-7,1.8-13.7,8.6-17.5,12.9c-7.7,9.1-13.7,19.6-17.6,30.9c-1.8,5.1-3.1,10.4-4,15.8c-0.7,4.4-1.1,9-1.1,13.5
		c0,15.4,4.4,28,12.9,36.4c7.6,7.6,17.9,11.5,30.8,11.5c15.2,0,27.2-5.6,34.8-16.3C320.5,194.8,323,176.9,319,158.1z M273.7,215.7
		c-9.2-0.6-16.6-3.7-22.1-9.2c-5-5-10.8-14.3-10.7-31.2c0-4.1,0.3-8.3,1-12.3c0.1-0.6,0.2-1.2,0.3-1.8h24.6c-3.2,2.9-6.4,6.4-7.7,10
		c-2,5.6-1.3,11.5,1.8,15.9c2.9,4,7.4,6.6,12.8,7.4L273.7,215.7z M273.7,187.5c-2.9-0.5-5.4-2.1-7.1-4.3c-1.9-2.7-2.3-6.2-1-9.6
		c1-2.8,4.6-6.2,8.3-9.1L273.7,187.5z M273.7,154.3h-16.2l16.2-13V154.3z M273.7,110.5L273.7,110.5v22L243,157.2
		c0.7-3,1.6-5.8,2.5-8.7c7.1-20.3,20.1-34.9,28.1-38.5L273.7,110.5C273.6,110.5,273.7,110.5,273.7,110.5z M280.7,151.6v-41.7
		c8,3.6,21,18.1,28.1,38.5c0.7,1.9,1.3,3.9,1.8,5.8h-30v-2.6H280.7z M306,202.5c-5.6,8-14.3,12.3-25.4,13.1v-54.5h31.5
		C315.2,177.5,313.1,192.6,306,202.5L306,202.5z M315.7,146c-3.9-11.3-9.9-21.8-17.5-30.9c-3.7-4.3-10.4-11.1-17.5-12.9V75.3
		c4.5,0.6,8.2,2.2,10.9,5c4.8,4.8,5.8,11.8,5.8,16.9v2.5c2.2,1.8,4.3,3.8,6.2,6l0.6-0.7l13.4-15.1c3,3.3,4.5,6.9,4.8,10.6
		c0.4,6.6-3.4,12.3-6.6,16.1l-0.1,0.1c1.3,2.1,2.4,4.2,3.6,6.3l10.7-12.2l0,0l3.6-4.1c3,3.3,4.5,6.9,4.8,10.6
		c0.4,6.6-3.4,12.4-6.6,16.2l-14.7,16.7C316.6,148.6,316.2,147.3,315.7,146z"/>
	<path class="st2" d="M273.7,215.7c-9.2-0.6-16.6-3.7-22.1-9.2c-5-5-10.8-14.3-10.7-31.2c0-4.1,0.3-8.3,1-12.3
		c0.1-0.6,0.2-1.2,0.3-1.8h24.6c-3.2,2.9-6.4,6.4-7.7,10c-2,5.6-1.3,11.5,1.8,15.9c2.9,4,7.4,6.6,12.8,7.4L273.7,215.7z"/>
	<path class="st3" d="M273.7,187.5c-2.9-0.5-5.4-2.1-7.1-4.3c-1.9-2.7-2.3-6.2-1-9.6c1-2.8,4.6-6.2,8.3-9.1L273.7,187.5z"/>
	<polygon class="st1" points="273.7,154.3 257.6,154.3 273.7,141.2 	"/>
	<path class="st3" d="M315.7,146c-3.9-11.3-9.9-21.8-17.5-30.9c-3.7-4.3-10.4-11.1-17.5-12.9V75.3c4.5,0.6,8.2,2.2,10.9,5
		c4.8,4.8,5.8,11.8,5.8,16.9v2.5c2.2,1.8,4.3,3.8,6.2,6l0.6-0.7l13.4-15.1c3,3.3,4.5,6.9,4.8,10.6c0.4,6.6-3.4,12.3-6.6,16.1
		l-0.1,0.1c1.3,2.1,2.4,4.2,3.6,6.3l10.7-12.2l0,0l3.6-4.1c3,3.3,4.5,6.9,4.8,10.6c0.4,6.6-3.4,12.4-6.6,16.2l-14.7,16.7
		C316.6,148.6,316.2,147.3,315.7,146z"/>
	<path class="st1" d="M306,202.5c-5.6,8-14.3,12.3-25.4,13.1v-54.5h31.5C315.2,177.5,313.1,192.6,306,202.5z"/>
	<path class="st2" d="M273.7,110.5L273.7,110.5v22L243,157.2c0.7-3,1.6-5.8,2.5-8.7c7.1-20.3,20.1-34.9,28.1-38.5L273.7,110.5
		C273.6,110.5,273.7,110.5,273.7,110.5z"/>
	<path class="st0" d="M244.6,276.5c-0.2-0.1-0.4-0.1-0.6-0.1c-1.4,0-2,1.3-2,2.5s0.6,2.6,2,2.6c0.2,0,0.4-0.1,0.6-0.2v1.5
		c-0.2,0.1-0.5,0.2-0.7,0.2c-2.3,0-3.6-2.1-3.6-4.2c0-2,1.3-4,3.5-4c0.3,0,0.6,0.1,0.8,0.2L244.6,276.5L244.6,276.5L244.6,276.5z"/>
	<path class="st0" d="M247.3,275v3.1h1.6V275h1.6v8h-1.6v-3.4h-1.6v3.4h-1.6v-8H247.3z"/>
	<path class="st0" d="M253.4,275v8h-1.6v-8H253.4z"/>
	<path class="st0" d="M258.9,276.5c-0.2-0.1-0.4-0.1-0.6-0.1c-1.4,0-2,1.3-2,2.5s0.6,2.6,2,2.6c0.2,0,0.4-0.1,0.6-0.2v1.5
		c-0.2,0.1-0.5,0.2-0.7,0.2c-2.3,0-3.6-2.1-3.6-4.2c0-2,1.3-4,3.5-4c0.3,0,0.6,0.1,0.8,0.2L258.9,276.5L258.9,276.5L258.9,276.5z"/>
	<path class="st0" d="M261.5,275v3.6l0,0l1.3-3.6h1.7l-1.4,3.7l1.7,4.3H263l-1.4-4.1l0,0v4.1h-1.7v-8H261.5z"/>
	<path class="st0" d="M268.8,275v1.5h-1.6v1.7h1.4v1.5h-1.4v1.8h1.7v1.5h-3.2v-8H268.8z"/>
	<path class="st0" d="M271.5,275l2,4.9l0,0c-0.1-0.4-0.2-0.8-0.2-1.2V275h1.6v8h-1.5l-1.9-4.9l0,0l0.1,0.8v0.3v3.6H270v-8L271.5,275
		L271.5,275z"/>
	<path class="st0" d="M279,283v-8h1.7c0.3,0,2.7-0.2,2.7,2.3c0.1,1.2-0.9,2.3-2.1,2.3c-0.2,0-0.2,0-0.3,0h-0.3v3.3L279,283z
		 M280.6,278.4c0.8,0,1.2-0.3,1.2-1c0-0.6-0.2-1-1-1h-0.3L280.6,278.4L280.6,278.4z"/>
	<path class="st0" d="M287.2,275l1.9,8h-1.7l-0.3-1.4h-1.6l-0.3,1.4h-1.6l1.8-8H287.2z M286.4,278.2l-0.2-1.2l0,0l-0.2,1.2l-0.3,2.2
		h1.1L286.4,278.2z"/>
	<path class="st0" d="M293.2,276.8c-0.3-0.3-0.7-0.5-1.1-0.5s-0.8,0.3-0.8,0.6c0,0.1,0,0.1,0,0.2c0,1.3,2.4,1.4,2.4,3.6
		c0,1.4-0.8,2.5-2.3,2.5c-0.5,0-1-0.2-1.4-0.4v-1.5c0.3,0.3,0.8,0.4,1.2,0.4c0.5,0,0.9-0.3,1-0.8v-0.1c0-0.6-0.5-0.9-1-1.1
		c-1-0.6-1.5-1.2-1.5-2.3s0.7-2.3,2.1-2.3c0.5,0,1,0.2,1.4,0.3L293.2,276.8z"/>
	<path class="st0" d="M298.6,275v1.5h-1.3v6.5h-1.6v-6.5h-1.2V275H298.6z"/>
	<path class="st0" d="M301.1,275v5.2c0,0.6-0.1,1.5,0.8,1.5s0.8-0.6,0.8-1.2V275h1.6v5.8c0,0.9-0.1,2.3-2.3,2.3
		c-1.5,0-2.3-0.7-2.3-2.2V275H301.1z"/>
	<path class="st0" d="M305.6,283v-8h1.6c1,0,2.8,0.2,2.8,2.3c0.1,0.9-0.4,1.7-1.1,2.1l1.4,3.6h-1.6l-1.4-3.7l0,0v3.7H305.6
		L305.6,283z M307.3,278.4h0.3c0.7,0,1-0.5,1-1.1c0.1-0.5-0.3-1-0.8-1c-0.1,0-0.2,0-0.3,0h-0.2V278.4L307.3,278.4z"/>
	<path class="st0" d="M314.7,275v1.5h-1.6v1.7h1.4v1.5h-1.4v1.8h1.7v1.5h-3.2v-8H314.7z"/>
	<path class="st0" d="M228.4,227.3c-4.9,0-11.6,7.4-14.7,16.2c-0.6,1.8-1.1,3.7-1.5,5.6c-0.3,1.6-0.4,3.2-0.4,4.9
		c0,5.6,1.7,10.3,4.8,13.4c3,3,6.9,4.4,11.8,4.4c7.4,0,11.4-3.4,13.4-6.2c3.8-5.3,4.3-13.7,1.4-22
		C240,234.7,233.2,227.3,228.4,227.3z M237.8,262.7c-2,2.9-5.2,4.3-9.5,4.3c-3.6,0-6.4-1-8.4-3c-2.9-2.9-3.4-7-3.4-9.9
		c0-1.4,0.2-2.7,0.3-4.1c0.3-1.7,0.7-3.3,1.3-4.9c2.8-7.9,8.3-13,10.3-13c1.9,0,7.4,5,10.3,13l0,0
		C241,251.9,240.7,258.7,237.8,262.7z"/>
	<polygon class="st0" points="252.4,228.2 247.7,228.2 247.7,270.3 264.9,270.3 264.9,265.7 252.4,265.7 	"/>
	<polygon class="st0" points="290.5,254.3 283.4,228.2 278.5,228.2 290.5,271.8 302.6,228.2 297.7,228.2 	"/>
	<rect x="269.6" y="228.2" class="st0" width="4.6" height="42.1"/>
	<rect x="307.4" y="228.2" class="st0" width="4.6" height="42.1"/>
	<path class="st0" d="M318.5,227.3v43h4.8v-15.5h11.9c1.7,5,2.6,10.3,2.7,15.5h4.8C342.5,264.5,341,240.8,318.5,227.3z M323.2,250.1
		v-13.4c4.2,3.8,7.5,8.3,9.9,13.4H323.2z"/>
</g>
<g>
	<path class="st0" d="M741.7,223c-0.2-0.1-0.4-0.1-0.6-0.1c-1.4,0-2,1.3-2,2.5s0.6,2.6,2,2.6c0.2,0,0.4-0.1,0.6-0.2v1.5
		c-0.2,0.1-0.5,0.2-0.7,0.2c-2.3,0-3.6-2.1-3.6-4.2c0-2,1.3-4,3.5-4c0.3,0,0.6,0.1,0.8,0.2V223z"/>
	<path class="st0" d="M744.3,221.5v3.1h1.6v-3.1h1.6v8h-1.6v-3.4h-1.6v3.4h-1.6v-8H744.3L744.3,221.5z"/>
	<path class="st0" d="M750.5,221.5v8h-1.6v-8H750.5L750.5,221.5z"/>
	<path class="st0" d="M755.8,223c-0.2-0.1-0.4-0.1-0.6-0.1c-1.4,0-2,1.3-2,2.5s0.6,2.6,2,2.6c0.2,0,0.4-0.1,0.6-0.2v1.5
		c-0.2,0.1-0.5,0.2-0.7,0.2c-2.3,0-3.6-2.1-3.6-4.2c0-2,1.3-4,3.5-4c0.3,0,0.6,0.1,0.8,0.2V223z"/>
	<path class="st0" d="M758.5,221.5v3.6l0,0l1.3-3.6h1.7l-1.5,3.7l1.7,4.3H760l-1.4-4.1l0,0v4.1H757v-8H758.5L758.5,221.5z"/>
	<path class="st0" d="M765.9,221.5v1.5h-1.6v1.7h1.4v1.5h-1.4v1.8h1.7v1.5h-3.2v-8H765.9L765.9,221.5z"/>
	<path class="st0" d="M768.6,221.5l2,4.9l0,0c-0.1-0.4-0.2-0.8-0.2-1.2v-3.6h1.6v8h-1.5l-1.9-4.9l0,0l0.1,0.8v4h-1.6v-8H768.6
		L768.6,221.5z"/>
	<path class="st0" d="M776.1,229.5v-8h1.7c0.3,0,2.7-0.2,2.7,2.3c0.1,1.2-0.9,2.3-2.1,2.3c-0.2,0-0.2,0-0.3,0h-0.3v3.3L776.1,229.5z
		 M777.6,224.9c0.8,0,1.2-0.3,1.2-1c0-0.6-0.2-1-1-1h-0.3L777.6,224.9L777.6,224.9z"/>
	<path class="st0" d="M784.1,221.5l1.9,8h-1.7l-0.3-1.4h-1.7l-0.3,1.4h-1.6l1.8-8H784.1L784.1,221.5z M783.4,224.7l-0.2-1.2l0,0
		l-0.2,1.2l-0.3,2.2h1.1L783.4,224.7z"/>
	<path class="st0" d="M790.3,223.3c-0.3-0.3-0.7-0.5-1.1-0.5s-0.8,0.3-0.8,0.6c0,0.1,0,0.1,0,0.2c0,1.3,2.4,1.4,2.4,3.6
		c0,1.4-0.8,2.5-2.3,2.5c-0.5,0-1-0.2-1.4-0.4v-1.5c0.3,0.3,0.8,0.4,1.2,0.4c0.5,0,0.9-0.3,1-0.8v-0.1c0-0.6-0.5-0.9-1-1.1
		c-1-0.6-1.5-1.2-1.5-2.3s0.7-2.3,2.1-2.3c0.5,0,1,0.2,1.4,0.3L790.3,223.3z"/>
	<path class="st0" d="M795.6,221.5v1.5h-1.2v6.5h-1.6V223h-1.3v-1.5H795.6L795.6,221.5z"/>
	<path class="st0" d="M798.1,221.5v5.2c0,0.6-0.1,1.5,0.8,1.5c0.9,0,0.8-0.6,0.8-1.2v-5.5h1.6v5.8c0,0.9-0.1,2.3-2.3,2.3
		c-1.5,0-2.3-0.7-2.3-2.2v-5.9L798.1,221.5L798.1,221.5z"/>
	<path class="st0" d="M802.6,229.5v-8h1.6c1,0,2.8,0.2,2.8,2.3c0.1,0.9-0.4,1.7-1.1,2.1l1.4,3.6h-1.7l-1.4-3.7l0,0v3.7L802.6,229.5
		L802.6,229.5z M804.2,225h0.3c0.7,0,1-0.5,1-1.1c0.1-0.5-0.3-1-0.8-1c-0.1,0-0.2,0-0.3,0h-0.2V225z"/>
	<path class="st0" d="M811.8,221.5v1.5h-1.6v1.7h1.4v1.5h-1.4v1.8h1.7v1.5h-3.2v-8H811.8L811.8,221.5z"/>
	<path class="st0" d="M753.9,173.8c-4.9,0-11.6,7.4-14.7,16.2c-0.6,1.8-1.1,3.7-1.5,5.6c-0.3,1.6-0.4,3.2-0.4,4.9
		c0,5.6,1.7,10.3,4.8,13.4c3,3,6.9,4.4,11.8,4.4c7.4,0,11.4-3.4,13.4-6.2c3.8-5.3,4.3-13.7,1.4-22
		C765.5,181.2,758.8,173.8,753.9,173.8z M763.5,209.2c-2,2.9-5.2,4.3-9.5,4.3c-3.6,0-6.4-1-8.4-3c-2.9-2.9-3.4-7-3.4-9.9
		c0-1.4,0.2-2.7,0.3-4.1c0.3-1.7,0.7-3.3,1.3-4.9c2.8-7.9,8.3-13,10.3-13c1.9,0,7.4,5,10.3,13l0,0
		C766.6,198.4,766.3,205.2,763.5,209.2L763.5,209.2z"/>
	<polygon class="st0" points="778,174.6 773.3,174.6 773.3,216.8 790.5,216.8 790.5,212.1 778,212.1 	"/>
	<polygon class="st0" points="816.1,200.8 809,174.8 804.1,174.8 816.1,218.4 828.2,174.8 823.3,174.8 	"/>
	<rect x="795.3" y="174.8" class="st0" width="4.6" height="42.1"/>
	<rect x="833.1" y="174.8" class="st0" width="4.6" height="42.1"/>
	<path class="st0" d="M844.1,173.8v43h4.8v-15.5h11.9c1.7,5,2.6,10.3,2.7,15.5h4.7C868.2,211.1,866.6,187.3,844.1,173.8z
		 M848.9,196.7v-13.4c4.2,3.8,7.5,8.3,9.9,13.5L848.9,196.7z"/>
	<g>
		<path class="st1" d="M689.9,175.2v-41.6c8,3.6,21.1,18.1,28.1,38.5c0.6,1.9,1.3,3.9,1.8,5.8h-30v-2.7L689.9,175.2L689.9,175.2z"/>
		<path class="st1" d="M715.2,226.2c-5.6,7.9-14.3,12.3-25.4,13.1v-54.5h31.5C724.5,201.1,722.4,216.2,715.2,226.2z"/>
		<polygon class="st1" points="682.9,178 666.8,178 682.9,164.9 		"/>
		<path class="st0" d="M697,157c-1.8,0-3.4,1.5-3.4,3.4s1.5,3.4,3.4,3.4c1.8,0,3.4-1.5,3.4-3.4C700.5,158.5,699,157,697,157z"/>
		<path class="st0" d="M728.3,181.8l17.7-20.2c5.9-6.7,8.8-14,8.3-21.2c-0.4-6.6-3.6-12.6-9.5-17.7l-2.6-2.3l-3.8,4.3
			c0-0.3,0-0.8-0.1-1.1c-0.4-6.6-3.6-12.6-9.5-17.7l-2.6-2.3l-13,14.7c-0.4-7.9-3.1-14.6-7.7-19.2S694.3,92,686.4,92H683v34
			c-7,1.8-13.8,8.7-17.5,12.9c-7.7,9.1-13.7,19.6-17.5,30.9c-1.8,5.1-3.1,10.4-4,15.8c-0.7,4.4-1.1,9-1.1,13.5
			c0,15.4,4.4,28,12.9,36.4c7.6,7.6,17.9,11.5,30.8,11.5c15.2,0,27.2-5.6,34.8-16.3C729.8,218.6,732.2,200.7,728.3,181.8z
			 M682.9,239.3c-9.2-0.6-16.6-3.7-22.1-9.2c-5-5-10.8-14.3-10.7-31.2c0-4.2,0.3-8.3,1-12.3c0.1-0.6,0.2-1.2,0.3-1.8h24.7
			c-3.2,2.9-6.4,6.4-7.7,10c-2,5.6-1.3,11.5,1.8,15.9c2.9,4,7.4,6.6,12.8,7.4L682.9,239.3L682.9,239.3z M682.9,211.2
			c-2.9-0.5-5.4-2.1-7.1-4.3c-1.9-2.7-2.3-6.2-1-9.6c1-2.7,4.6-6.2,8.2-9.1L682.9,211.2L682.9,211.2z M682.9,178h-16.2l16.2-13V178z
			 M682.9,134.2L682.9,134.2v22L652.2,181c0.7-3,1.5-5.8,2.5-8.7c7.1-20.3,20.1-34.9,28.1-38.5L682.9,134.2z M689.9,175.2v-41.6
			c8,3.6,21.1,18.1,28.1,38.5c0.6,1.9,1.3,3.9,1.8,5.8h-30v-2.7L689.9,175.2L689.9,175.2z M715.2,226.2
			c-5.6,7.9-14.3,12.3-25.4,13.1v-54.5h31.5C724.5,201.1,722.4,216.2,715.2,226.2L715.2,226.2z M724.9,169.7
			c-3.9-11.3-9.9-21.8-17.5-30.9c-3.7-4.3-10.5-11.1-17.5-12.9V99c4.5,0.6,8.2,2.2,10.9,5c4.8,4.8,5.8,11.8,5.8,16.9v2.5
			c2.3,1.8,4.3,3.8,6.2,6l0.7-0.7l13.3-15.1c3,3.3,4.5,6.9,4.8,10.6c0.4,6.6-3.4,12.3-6.6,16.1l-0.1,0.1c1.3,2.1,2.4,4.2,3.6,6.3
			l10.7-12.2l0,0l3.6-4.1c3,3.3,4.5,6.9,4.8,10.6c0.4,6.6-3.4,12.4-6.6,16.2l-14.7,16.6C725.9,172.3,725.4,171,724.9,169.7
			L724.9,169.7z"/>
		<path class="st3" d="M724.9,169.7c-3.9-11.3-9.9-21.8-17.5-30.9c-3.7-4.3-10.5-11.1-17.5-12.9V99c4.5,0.6,8.2,2.2,10.9,5
			c4.8,4.8,5.8,11.8,5.8,16.9v2.5c2.3,1.8,4.3,3.8,6.2,6l0.7-0.7l13.3-15.1c3,3.3,4.5,6.9,4.8,10.6c0.4,6.6-3.4,12.3-6.6,16.1
			l-0.1,0.1c1.3,2.1,2.4,4.2,3.6,6.3l10.7-12.2l0,0l3.6-4.1c3,3.3,4.5,6.9,4.8,10.6c0.4,6.6-3.4,12.4-6.6,16.2l-14.7,16.6
			C725.9,172.3,725.4,171,724.9,169.7z"/>
		<path class="st3" d="M682.9,211.2c-2.9-0.5-5.4-2.1-7.1-4.3c-1.9-2.7-2.3-6.2-1-9.6c1-2.7,4.6-6.2,8.2-9.1L682.9,211.2
			L682.9,211.2z"/>
		<path class="st2" d="M682.9,134.2L682.9,134.2v22L652.2,181c0.7-3,1.5-5.8,2.5-8.7c7.1-20.3,20.1-34.9,28.1-38.5L682.9,134.2z"/>
		<path class="st2" d="M682.9,239.3c-9.2-0.6-16.6-3.7-22.1-9.2c-5-5-10.8-14.3-10.7-31.2c0-4.2,0.3-8.3,1-12.3
			c0.1-0.6,0.2-1.2,0.3-1.8h24.7c-3.2,2.9-6.4,6.4-7.7,10c-2,5.6-1.3,11.5,1.8,15.9c2.9,4,7.4,6.6,12.8,7.4L682.9,239.3L682.9,239.3
			z"/>
	</g>
</g>
<g>
	<path class="st0" d="M736.9,1001.6c-1.8,0-3.4,1.5-3.4,3.4c0,1.8,1.5,3.4,3.4,3.4c1.8,0,3.4-1.5,3.4-3.4
		C740.3,1003.2,738.8,1001.6,736.9,1001.6z"/>
	<path class="st0" d="M768.1,1026.4l17.7-20.2c5.9-6.7,8.8-14,8.3-21.2c-0.4-6.6-3.6-12.6-9.5-17.7L782,965l-3.8,4.3
		c0-0.3,0-0.8-0.1-1.1c-0.4-6.6-3.6-12.6-9.5-17.7l-2.6-2.3l-13,14.7c-0.4-7.9-3-14.6-7.7-19.2c-4.6-4.6-11.2-7.1-19.1-7.1h-3.4v34
		c-7,1.8-13.7,8.6-17.5,12.9c-7.7,9.1-13.7,19.6-17.5,30.9c-1.8,5.1-3.1,10.4-4,15.8c-0.7,4.4-1.1,9-1.1,13.5
		c0,15.4,4.4,28,12.9,36.4c7.6,7.6,17.9,11.5,30.8,11.5c15.2,0,27.2-5.6,34.8-16.3C769.6,1063.1,772,1045.3,768.1,1026.4z
		 M722.8,1084c-9.2-0.6-16.6-3.7-22.1-9.2c-5-5-10.8-14.3-10.7-31.2c0-4.1,0.3-8.3,1-12.3c0.1-0.6,0.2-1.2,0.3-1.8H716
		c-3.2,2.9-6.4,6.4-7.7,10c-2,5.6-1.3,11.5,1.8,15.9c2.9,4,7.4,6.6,12.8,7.4L722.8,1084L722.8,1084L722.8,1084z M722.8,1055.8
		c-2.9-0.5-5.4-2.1-7.1-4.3c-1.9-2.7-2.3-6.2-1-9.6c1-2.7,4.6-6.2,8.2-9.1L722.8,1055.8L722.8,1055.8z M722.8,1022.7h-16.2l16.2-13
		V1022.7z M722.8,978.8L722.8,978.8v22l-30.5,24.7c0.7-3,1.5-5.8,2.5-8.7c7.1-20.3,20.1-34.9,28.1-38.5L722.8,978.8L722.8,978.8z
		 M729.7,1019.9v-41.6c8,3.6,21,18.1,28.1,38.5c0.6,1.9,1.3,3.9,1.8,5.8h-30v-2.7H729.7z M755.1,1070.8
		c-5.6,7.9-14.3,12.3-25.4,13.1v-54.4h31.5C764.3,1045.7,762.2,1060.9,755.1,1070.8z M764.8,1014.3c-3.9-11.3-9.9-21.8-17.5-30.9
		c-3.7-4.3-10.5-11.1-17.5-12.9v-26.8c4.5,0.6,8.2,2.2,10.9,5c4.8,4.8,5.8,11.8,5.8,16.9v2.5c2.3,1.8,4.3,3.8,6.2,6l0.7-0.7
		l13.3-15.1c3,3.3,4.5,6.9,4.8,10.6c0.4,6.6-3.4,12.3-6.6,16.1l-0.1,0.1c1.3,2.1,2.4,4.2,3.6,6.3l10.7-12.2l0,0l3.6-4.1
		c3,3.3,4.5,6.9,4.8,10.6c0.4,6.6-3.4,12.4-6.6,16.2l-14.7,16.6C765.7,1017,765.2,1015.6,764.8,1014.3L764.8,1014.3z"/>
</g>
<g>
	<path class="st1" d="M269.8,1019.7v-41.6c8,3.6,21.1,18.1,28.1,38.5c0.6,1.9,1.3,3.9,1.8,5.8h-30v-2.7H269.8z"/>
	<path class="st1" d="M295.1,1070.8c-5.6,7.9-14.3,12.3-25.4,13.1v-54.5h31.5C304.4,1045.6,302.2,1060.8,295.1,1070.8z"/>
	<polygon class="st1" points="262.8,1022.5 246.7,1022.5 262.8,1009.5 	"/>
	<path class="st0" d="M276.9,1001.6c-1.8,0-3.4,1.5-3.4,3.4s1.5,3.4,3.4,3.4c1.8,0,3.4-1.5,3.4-3.4
		C280.3,1003,278.8,1001.6,276.9,1001.6z"/>
	<path class="st0" d="M308.1,1026.3l17.7-20.2c5.9-6.7,8.8-14,8.3-21.2c-0.4-6.6-3.6-12.6-9.5-17.7l-2.6-2.3l-3.8,4.3
		c0-0.3,0-0.8-0.1-1.1c-0.4-6.6-3.6-12.6-9.5-17.7l-2.6-2.3l-13,14.7c-0.4-7.9-3.1-14.6-7.7-19.2s-11.2-7.1-19.1-7.1h-3.4v34
		c-7,1.8-13.8,8.7-17.5,12.9c-7.7,9.1-13.7,19.6-17.5,30.9c-1.8,5.1-3.1,10.4-4,15.8c-0.7,4.4-1.1,9-1.1,13.5
		c0,15.4,4.4,28,12.9,36.4c7.6,7.6,17.9,11.5,30.8,11.5c15.2,0,27.2-5.6,34.8-16.3C309.7,1063.2,312.1,1045.2,308.1,1026.3z
		 M262.8,1083.8c-9.2-0.6-16.6-3.7-22.1-9.2c-5-5-10.8-14.3-10.7-31.2c0-4.2,0.3-8.3,1-12.3c0.1-0.6,0.2-1.2,0.3-1.8H256
		c-3.2,2.9-6.4,6.4-7.7,10c-2,5.6-1.3,11.5,1.8,15.9c2.9,4,7.4,6.6,12.8,7.4L262.8,1083.8L262.8,1083.8z M262.8,1055.7
		c-2.9-0.5-5.4-2.1-7.1-4.3c-1.9-2.7-2.3-6.2-1-9.6c1-2.7,4.6-6.2,8.2-9.1L262.8,1055.7L262.8,1055.7z M262.8,1022.5h-16.2l16.2-13
		V1022.5z M262.8,978.7L262.8,978.7v22l-30.7,24.8c0.7-3,1.5-5.8,2.5-8.7c7.1-20.3,20.1-34.9,28.1-38.5L262.8,978.7z M269.8,1019.7
		v-41.6c8,3.6,21.1,18.1,28.1,38.5c0.6,1.9,1.3,3.9,1.8,5.8h-30v-2.7H269.8z M295.1,1070.8c-5.6,7.9-14.3,12.3-25.4,13.1v-54.5h31.5
		C304.4,1045.6,302.2,1060.8,295.1,1070.8L295.1,1070.8z M304.8,1014.2c-3.9-11.3-9.9-21.8-17.5-30.9c-3.7-4.3-10.5-11.1-17.5-12.9
		v-26.8c4.5,0.6,8.2,2.2,10.9,5c4.8,4.8,5.8,11.8,5.8,16.9v2.5c2.3,1.8,4.3,3.8,6.2,6l0.7-0.7l13.3-15.1c3,3.3,4.5,6.9,4.8,10.6
		c0.4,6.6-3.4,12.3-6.6,16.1l-0.1,0.1c1.3,2.1,2.4,4.2,3.6,6.3l10.7-12.2l0,0l3.6-4.1c3,3.3,4.5,6.9,4.8,10.6
		c0.4,6.6-3.4,12.4-6.6,16.2l-14.7,16.6C305.7,1016.9,305.3,1015.6,304.8,1014.2L304.8,1014.2z"/>
	<path class="st3" d="M304.8,1014.2c-3.9-11.3-9.9-21.8-17.5-30.9c-3.7-4.3-10.5-11.1-17.5-12.9v-26.8c4.5,0.6,8.2,2.2,10.9,5
		c4.8,4.8,5.8,11.8,5.8,16.9v2.5c2.3,1.8,4.3,3.8,6.2,6l0.7-0.7l13.3-15.1c3,3.3,4.5,6.9,4.8,10.6c0.4,6.6-3.4,12.3-6.6,16.1
		l-0.1,0.1c1.3,2.1,2.4,4.2,3.6,6.3l10.7-12.2l0,0l3.6-4.1c3,3.3,4.5,6.9,4.8,10.6c0.4,6.6-3.4,12.4-6.6,16.2l-14.7,16.6
		C305.7,1016.9,305.3,1015.6,304.8,1014.2z"/>
	<path class="st3" d="M262.8,1055.7c-2.9-0.5-5.4-2.1-7.1-4.3c-1.9-2.7-2.3-6.2-1-9.6c1-2.7,4.6-6.2,8.2-9.1L262.8,1055.7
		L262.8,1055.7z"/>
	<path class="st2" d="M262.8,978.7L262.8,978.7v22l-30.7,24.8c0.7-3,1.5-5.8,2.5-8.7c7.1-20.3,20.1-34.9,28.1-38.5L262.8,978.7z"/>
	<path class="st2" d="M262.8,1083.8c-9.2-0.6-16.6-3.7-22.1-9.2c-5-5-10.8-14.3-10.7-31.2c0-4.2,0.3-8.3,1-12.3
		c0.1-0.6,0.2-1.2,0.3-1.8H256c-3.2,2.9-6.4,6.4-7.7,10c-2,5.6-1.3,11.5,1.8,15.9c2.9,4,7.4,6.6,12.8,7.4L262.8,1083.8L262.8,1083.8
		z"/>
</g>
<g>
	<path class="st0" d="M245.8,798.6c-0.2-0.1-0.4-0.1-0.6-0.1c-1.4,0-2,1.3-2,2.5s0.6,2.6,2,2.6c0.2,0,0.4-0.1,0.6-0.2v1.5
		c-0.2,0.1-0.5,0.2-0.7,0.2c-2.3,0-3.6-2.1-3.6-4.2c0-2,1.3-4,3.5-4c0.3,0,0.6,0.1,0.8,0.2L245.8,798.6L245.8,798.6L245.8,798.6z"/>
	<path class="st0" d="M248.4,797.1v3.1h1.6v-3.1h1.6v8H250v-3.4h-1.6v3.4h-1.6v-8H248.4z"/>
	<path class="st0" d="M254.7,797.1v8h-1.6v-8H254.7z"/>
	<path class="st0" d="M260.1,798.6c-0.2-0.1-0.3-0.1-0.6-0.1c-1.4,0-2,1.3-2,2.5s0.6,2.6,2,2.6c0.2,0,0.4-0.1,0.6-0.2v1.5
		c-0.2,0.1-0.5,0.2-0.7,0.2c-2.3,0-3.6-2.1-3.6-4.2c0-2,1.3-4,3.5-4c0.3,0,0.6,0.1,0.8,0.2L260.1,798.6z"/>
	<path class="st0" d="M262.7,797.1v3.6l0,0l1.3-3.6h1.7l-1.5,3.7l1.7,4.3h-1.7l-1.4-4.1l0,0v4.1h-1.6v-8H262.7z"/>
	<path class="st0" d="M270.1,797.1v1.5h-1.6v1.7h1.4v1.5h-1.4v1.8h1.7v1.5H267v-8H270.1z"/>
	<path class="st0" d="M272.9,797.1l2,4.9l0,0c-0.1-0.4-0.2-0.8-0.2-1.2v-3.6h1.6v8h-1.5l-1.9-4.9l0,0l0.1,0.8v0.3v3.6h-1.6v-8
		L272.9,797.1L272.9,797.1z"/>
	<path class="st0" d="M280.2,805.1v-8h1.7c0.3,0,2.7-0.2,2.7,2.3c0.1,1.2-0.9,2.3-2.1,2.3c-0.2,0-0.3,0-0.3,0h-0.3v3.3L280.2,805.1z
		 M281.8,800.6c0.8,0,1.2-0.3,1.2-1c0-0.6-0.2-1-1-1h-0.3L281.8,800.6L281.8,800.6z"/>
	<path class="st0" d="M288.3,797.1l1.9,8h-1.7l-0.3-1.4h-1.6l-0.3,1.4h-1.6l1.8-8H288.3z M287.7,800.4l-0.2-1.2l0,0l-0.2,1.2
		l-0.3,2.2h1.1L287.7,800.4z"/>
	<path class="st0" d="M294.5,799c-0.3-0.3-0.7-0.5-1.1-0.5c-0.4-0.1-0.8,0.3-0.8,0.6c0,0.1,0,0.1,0,0.2c0,1.3,2.4,1.4,2.4,3.6
		c0,1.4-0.8,2.5-2.3,2.5c-0.5,0-1-0.2-1.4-0.4v-1.5c0.3,0.3,0.8,0.4,1.2,0.4c0.5,0,0.9-0.3,1-0.8V803c0-0.6-0.5-0.9-1-1.1
		c-1-0.6-1.5-1.2-1.5-2.3s0.7-2.3,2.1-2.3c0.5,0,1,0.2,1.4,0.4L294.5,799z"/>
	<path class="st0" d="M299.8,797.1v1.5h-1.2v6.5H297v-6.5h-1.2v-1.5H299.8z"/>
	<path class="st0" d="M302.4,797.1v5.2c0,0.6-0.1,1.5,0.8,1.5s0.8-0.6,0.8-1.2v-5.5h1.6v5.8c0,0.9-0.1,2.3-2.3,2.3
		c-1.5,0-2.3-0.7-2.3-2.2v-5.9L302.4,797.1L302.4,797.1z"/>
	<path class="st0" d="M306.8,805.1v-8h1.6c1,0,2.8,0.1,2.8,2.3c0.1,0.9-0.4,1.7-1.1,2.1l1.4,3.6h-1.7l-1.4-3.7l0,0v3.7L306.8,805.1
		L306.8,805.1z M308.4,800.6h0.3c0.7,0,1-0.5,1-1.1c0.1-0.5-0.3-1-0.8-1c-0.1,0-0.2,0-0.3,0h-0.2V800.6L308.4,800.6z"/>
	<path class="st0" d="M315.9,797.1v1.5h-1.6v1.7h1.4v1.5h-1.4v1.8h1.7v1.5h-3.2v-8H315.9z"/>
	<path class="st0" d="M229.6,749.5c-4.9,0-11.6,7.4-14.7,16.2c-0.6,1.8-1.1,3.8-1.5,5.7c-0.3,1.6-0.4,3.2-0.4,4.9
		c0,5.6,1.7,10.3,4.8,13.4c3,3,6.9,4.4,11.8,4.4c7.4,0,11.4-3.4,13.4-6.2c3.8-5.4,4.3-13.8,1.4-22
		C241.1,756.9,234.5,749.5,229.6,749.5z M239.1,784.9c-2,2.9-5.2,4.3-9.5,4.3c-3.6,0-6.4-1-8.4-3c-2.9-2.9-3.4-7-3.4-9.9
		c0-1.4,0.2-2.7,0.3-4.1c0.3-1.7,0.7-3.3,1.3-4.9c2.8-7.9,8.3-13,10.3-13c1.9,0,7.4,5,10.3,13l0,0
		C242.3,774.1,242,780.8,239.1,784.9z"/>
	<polygon class="st0" points="253.6,750.3 249,750.3 249,792.5 266.1,792.5 266.1,787.8 253.6,787.8 	"/>
	<polygon class="st0" points="291.8,776.5 284.6,750.4 279.7,750.4 291.8,794 303.9,750.4 299,750.4 	"/>
	<rect x="270.9" y="750.4" class="st0" width="4.6" height="42.1"/>
	<rect x="308.6" y="750.4" class="st0" width="4.6" height="42.1"/>
	<path class="st0" d="M319.7,749.5v43h4.8V777h11.9c1.7,5,2.6,10.3,2.7,15.5h4.8C343.8,786.7,342.3,763,319.7,749.5z M324.5,772.3
		v-13.4c4.2,3.8,7.5,8.3,9.9,13.4H324.5z"/>
</g>
<g>
	<path class="st0" d="M689.6,749.5c-4.9,0-11.6,7.4-14.7,16.2c-0.6,1.8-1.1,3.8-1.5,5.7c-0.3,1.6-0.4,3.2-0.4,4.9
		c0,5.6,1.7,10.3,4.8,13.4c3,3,6.9,4.4,11.8,4.4c7.4,0,11.4-3.4,13.4-6.2c3.8-5.4,4.3-13.8,1.4-22
		C701.2,756.9,694.5,749.5,689.6,749.5z M699.2,784.9c-2,2.9-5.2,4.3-9.5,4.3c-3.6,0-6.4-1-8.4-3c-2.9-2.9-3.4-7-3.4-9.9
		c0-1.4,0.2-2.7,0.3-4.1c0.3-1.7,0.7-3.3,1.3-4.9c2.8-7.9,8.3-13,10.3-13c1.9,0,7.4,5,10.3,13l0,0
		C702.3,774.1,702,780.8,699.2,784.9z"/>
	<polygon class="st0" points="713.7,750.3 709,750.3 709,792.5 726.1,792.5 726.1,787.8 713.7,787.8 	"/>
	<polygon class="st0" points="751.8,776.5 744.6,750.4 739.7,750.4 751.8,794 763.9,750.4 759,750.4 	"/>
	<rect x="730.9" y="750.4" class="st0" width="4.6" height="42.1"/>
	<rect x="768.6" y="750.4" class="st0" width="4.6" height="42.1"/>
	<path class="st0" d="M779.8,749.5v43h4.8V777h11.9c1.7,5,2.6,10.3,2.7,15.5h4.8C803.8,786.7,802.3,763,779.8,749.5z M784.5,772.3
		v-13.4c4.2,3.8,7.5,8.3,9.9,13.4H784.5z"/>
</g>
<rect x="26.5" y="27.5" class="st4" width="979.8" height="1"/>
<rect x="26.5" y="339.7" class="st4" width="979.8" height="1"/>
<rect x="26.5" y="659.2" class="st4" width="979.8" height="1"/>
<rect x="26.5" y="896.5" class="st4" width="979.8" height="1"/>
<g>
	<path class="st5" d="M26.2,44.8l0.2-0.2c0.1-0.1,0.2-0.2,0.4-0.1c0.2,0.2,0.7,0.8,1.6,0.8c0.7,0,1.4-0.6,1.4-1.3s-0.5-1.1-1.4-1.6
		s-1.5-1-1.5-2c0-0.9,0.6-2.2,2.4-2.2c1.1,0,1.6,0.5,1.7,0.6c0.1,0,0.2,0.2,0,0.4l-0.1,0.2c-0.1,0.1-0.2,0.2-0.4,0.1
		c-0.2-0.2-0.8-0.5-1.3-0.5c-1,0-1.5,0.8-1.5,1.4s0.4,1,1.1,1.4c1.1,0.6,1.9,1.1,1.9,2.3s-0.9,2.2-2.4,2.2c-1.2,0-2-0.8-2.1-1
		C26.1,45.1,26,45,26.2,44.8z"/>
	<path class="st5" d="M33.9,39h-1.7c-0.1,0-0.2-0.1-0.2-0.2v-0.3c0-0.1,0.1-0.2,0.2-0.2h4.3c0.1,0,0.2,0.1,0.2,0.2v0.3
		c0,0.1-0.1,0.2-0.2,0.2h-1.7l-1,6.8c0,0.1-0.1,0.2-0.2,0.2h-0.5c-0.1,0-0.2-0.1-0.2-0.2L33.9,39z"/>
	<path class="st5" d="M35.7,45.7l4.1-7.5c0-0.1,0.1-0.1,0.2-0.1h0.1c0.1,0,0.1,0.1,0.2,0.1l2,7.5c0,0.1-0.1,0.3-0.2,0.3h-0.5
		c-0.1,0-0.2-0.1-0.2-0.1L41,44.1h-3.5l-0.9,1.8c0,0.1-0.1,0.1-0.2,0.1h-0.5C35.6,46,35.6,45.9,35.7,45.7z M40.7,43.4l-0.9-3.6h-0.1
		l-1.9,3.6H40.7z"/>
	<path class="st5" d="M44.4,38.3c0-0.1,0.1-0.2,0.2-0.2h0.3l3.6,6.2l0,0l0.8-5.9c0-0.1,0.1-0.2,0.3-0.2H50c0.1,0,0.2,0.1,0.2,0.2
		l-1.1,7.5c0,0.1-0.1,0.2-0.2,0.2h-0.3L45,39.8l0,0l-0.8,6c0,0.1-0.1,0.2-0.3,0.2h-0.4c-0.1,0-0.2-0.1-0.2-0.2L44.4,38.3z"/>
	<path class="st5" d="M52.3,38.4c0-0.1,0.1-0.2,0.2-0.2h2.3c1.7,0,3,1.6,3,3.4c0,2.4-1.8,4.4-4.1,4.4h-2.3c-0.1,0-0.2-0.1-0.1-0.2
		L52.3,38.4z M53.7,45.2c1.8,0,3.2-1.5,3.2-3.6c0-1.5-0.9-2.6-2.3-2.6h-1.4l-0.9,6.3L53.7,45.2L53.7,45.2z"/>
	<path class="st5" d="M58,45.7l4.1-7.5c0-0.1,0.1-0.1,0.2-0.1h0.1c0.1,0,0.1,0.1,0.2,0.1l2,7.5c0,0.1-0.1,0.3-0.2,0.3h-0.5
		c-0.1,0-0.2-0.1-0.2-0.1l-0.4-1.8h-3.5l-0.9,1.8c0,0.1-0.1,0.1-0.2,0.1h-0.5C58,46,57.9,45.9,58,45.7z M63,43.4l-0.9-3.6H62
		l-1.9,3.6H63z"/>
	<path class="st5" d="M66.7,38.4c0-0.1,0.1-0.2,0.2-0.2h2.5c1.2,0,2,1,2,2.2c0,1.1-0.7,2.1-1.8,2.5l1,2.8c0.1,0.1,0,0.3-0.2,0.3
		h-0.5c-0.1,0-0.1-0.1-0.1-0.1L68.9,43H67l-0.4,2.8c0,0.1-0.1,0.2-0.2,0.2h-0.5c-0.1,0-0.2-0.1-0.2-0.2L66.7,38.4z M68.9,42.2
		c0.9,0,1.7-0.8,1.7-1.8c0-0.7-0.5-1.4-1.2-1.4h-1.8l-0.5,3.2H68.9L68.9,42.2z"/>
	<path class="st5" d="M73.5,38.4c0-0.1,0.1-0.2,0.2-0.2H76c1.7,0,3,1.6,3,3.4c0,2.4-1.8,4.4-4.1,4.4h-2.3c-0.1,0-0.2-0.1-0.1-0.2
		L73.5,38.4z M74.8,45.2c1.8,0,3.2-1.5,3.2-3.6c0-1.5-0.9-2.6-2.3-2.6h-1.4l-0.9,6.3L74.8,45.2L74.8,45.2z"/>
</g>
<g>
	<path class="st5" d="M26.6,354.3c0.3-2.2,2.1-4,4.2-4c2,0,3.4,1.8,3.1,4c-0.3,2.2-2,4-4.2,4C27.7,358.3,26.3,356.5,26.6,354.3z
		 M33,354.3c0.3-1.8-0.8-3.2-2.4-3.2s-3,1.5-3.3,3.2c-0.2,1.8,0.8,3.2,2.4,3.2S32.8,356.1,33,354.3z"/>
	<path class="st5" d="M36,350.5c0-0.1,0.1-0.2,0.2-0.2h0.3l3.6,6.2l0,0l0.8-5.9c0-0.1,0.1-0.2,0.3-0.2h0.4c0.1,0,0.2,0.1,0.2,0.2
		l-1.1,7.5c0,0.1-0.1,0.2-0.2,0.2h-0.3l-3.6-6.3l0,0l-0.8,6c0,0.1-0.1,0.2-0.3,0.2h-0.4c-0.1,0-0.2-0.1-0.2-0.2L36,350.5z"/>
	<path class="st5" d="M44,350.6c0-0.1,0.1-0.2,0.2-0.2h4c0.1,0,0.2,0.1,0.2,0.2v0.3c0,0.1-0.1,0.2-0.2,0.2h-3.3l-0.4,2.7h2.8
		c0.1,0,0.2,0.1,0.2,0.2v0.3c0,0.1-0.1,0.2-0.2,0.2h-2.8l-0.4,2.8h3.3c0.1,0,0.2,0.1,0.2,0.2v0.3c0,0.1-0.1,0.2-0.2,0.2h-4
		c-0.1,0-0.2-0.1-0.2-0.2L44,350.6z"/>
	<path class="st5" d="M49.1,354.5v-0.2c0-0.1,0.1-0.2,0.2-0.2h2.1c0.1,0,0.2,0.1,0.2,0.2v0.2c0,0.1-0.1,0.2-0.2,0.2h-2.1
		C49.1,354.7,49.1,354.7,49.1,354.5z"/>
	<path class="st5" d="M54.5,351.2h-1.7c-0.1,0-0.2-0.1-0.2-0.2v-0.3c0-0.1,0.1-0.2,0.2-0.2h4.3c0.1,0,0.2,0.1,0.2,0.2v0.3
		c0,0.1-0.1,0.2-0.2,0.2h-1.7l-1,6.8c0,0.1-0.1,0.2-0.2,0.2h-0.5c-0.1,0-0.2-0.1-0.2-0.2L54.5,351.2z"/>
	<path class="st5" d="M57.4,354.3c0.3-2.2,2.1-4,4.2-4c2,0,3.4,1.8,3.1,4c-0.3,2.2-2,4-4.2,4C58.5,358.3,57.1,356.5,57.4,354.3z
		 M63.9,354.3c0.3-1.8-0.8-3.2-2.4-3.2c-1.6,0-3,1.5-3.3,3.2c-0.2,1.8,0.8,3.2,2.4,3.2C62.2,357.5,63.6,356.1,63.9,354.3z"/>
	<path class="st5" d="M66.9,350.5c0-0.1,0.1-0.2,0.2-0.2h0.3l3.6,6.2l0,0l0.8-5.9c0-0.1,0.1-0.2,0.3-0.2h0.4c0.1,0,0.2,0.1,0.2,0.2
		l-1.1,7.5c0,0.1-0.1,0.2-0.2,0.2H71l-3.6-6.3l0,0l-0.8,6c0,0.1-0.1,0.2-0.3,0.2H66c-0.1,0-0.2-0.1-0.2-0.2L66.9,350.5z"/>
	<path class="st5" d="M74.8,350.6c0-0.1,0.1-0.2,0.2-0.2h4c0.1,0,0.2,0.1,0.2,0.2v0.3c0,0.1-0.1,0.2-0.2,0.2h-3.3l-0.4,2.7H78
		c0.1,0,0.2,0.1,0.2,0.2v0.3c0,0.1-0.1,0.2-0.2,0.2h-2.8l-0.4,2.8H78c0.1,0,0.2,0.1,0.2,0.2v0.3c0,0.1-0.1,0.2-0.2,0.2h-4
		c-0.1,0-0.2-0.1-0.2-0.2L74.8,350.6z"/>
</g>
<g>
	<path class="st5" d="M27,670.2c0-0.2,0.1-0.3,0.2-0.3h0.5c0.1,0,0.2,0.1,0.2,0.2l0.5,5.7l0,0l2.5-5.9c0-0.1,0.1-0.1,0.2-0.1h0.2
		c0.1,0,0.1,0.1,0.2,0.1l0.9,5.9l0,0l2.1-5.7c0-0.1,0.1-0.2,0.2-0.2h0.5c0.1,0,0.2,0.1,0.1,0.3l-2.9,7.5c0,0.1-0.1,0.2-0.2,0.2H32
		c-0.1,0-0.1-0.1-0.2-0.1l-0.9-6l0,0l-2.6,6c0,0.1-0.1,0.1-0.2,0.1H28c-0.1,0-0.2-0.1-0.2-0.2L27,670.2z"/>
	<path class="st5" d="M35.8,673.8c0.3-2.2,2.1-4,4.2-4c2,0,3.4,1.8,3.1,4c-0.3,2.2-2,4-4.2,4C36.9,677.8,35.5,676,35.8,673.8z
		 M42.3,673.8c0.3-1.8-0.8-3.2-2.4-3.2c-1.6,0-3,1.5-3.3,3.2c-0.2,1.8,0.8,3.2,2.4,3.2C40.6,677,42,675.6,42.3,673.8z"/>
	<path class="st5" d="M45.3,670.1c0-0.1,0.1-0.2,0.2-0.2H48c1.2,0,2,1,2,2.2c0,1.1-0.7,2.1-1.8,2.5l1,2.8c0.1,0.1,0,0.3-0.2,0.3
		h-0.5c-0.1,0-0.1-0.1-0.1-0.1l-0.9-2.9h-1.9l-0.4,2.8c0,0.1-0.1,0.2-0.2,0.2h-0.5c-0.1,0-0.2-0.1-0.2-0.2L45.3,670.1z M47.4,673.9
		c0.9,0,1.7-0.8,1.7-1.8c0-0.7-0.5-1.4-1.2-1.4h-1.8l-0.5,3.2H47.4L47.4,673.9z"/>
	<path class="st5" d="M52.1,670.1c0-0.1,0.1-0.2,0.2-0.2h2.3c1.7,0,3,1.6,3,3.4c0,2.4-1.8,4.4-4.1,4.4h-2.3c-0.1,0-0.2-0.1-0.1-0.2
		L52.1,670.1z M53.4,676.9c1.8,0,3.2-1.5,3.2-3.6c0-1.5-0.9-2.6-2.3-2.6h-1.4L52,677L53.4,676.9L53.4,676.9z"/>
	<path class="st5" d="M60.5,670c0-0.1,0.1-0.2,0.2-0.2h0.2c0.1,0,0.2,0.1,0.2,0.1l1.1,6.1l0,0l2.8-6.1c0-0.1,0.1-0.1,0.2-0.1h0.2
		c0.1,0,0.2,0.1,0.2,0.2l0.2,7.5c0,0.2-0.1,0.3-0.3,0.3h-0.4c-0.1,0-0.2-0.1-0.2-0.2l-0.1-5.6l0,0l-2.6,5.7c0,0.1-0.1,0.1-0.2,0.1
		h-0.1c-0.1,0-0.2-0.1-0.2-0.1l-1-5.8l0,0l-1.7,5.7c0,0.1-0.1,0.2-0.2,0.2h-0.4c-0.2,0-0.2-0.1-0.2-0.3L60.5,670z"/>
	<path class="st5" d="M66.5,677.4l4.1-7.5c0-0.1,0.1-0.1,0.2-0.1h0.1c0.1,0,0.1,0.1,0.2,0.1l2,7.5c0,0.1-0.1,0.3-0.2,0.3h-0.5
		c-0.1,0-0.2-0.1-0.2-0.1l-0.4-1.8h-3.5l-0.9,1.8c0,0.1-0.1,0.1-0.2,0.1h-0.5C66.5,677.7,66.5,677.6,66.5,677.4z M71.6,675.1
		l-0.9-3.6h-0.1l-1.9,3.6H71.6z"/>
	<path class="st5" d="M75.3,670.1c0-0.1,0.1-0.2,0.2-0.2H78c1.2,0,2,1,2,2.2c0,1.1-0.7,2.1-1.8,2.5l1,2.8c0.1,0.1,0,0.3-0.2,0.3
		h-0.5c-0.1,0-0.1-0.1-0.1-0.1l-0.9-2.9h-1.9l-0.4,2.8c0,0.1-0.1,0.2-0.2,0.2h-0.5c-0.1,0-0.2-0.1-0.2-0.2L75.3,670.1z M77.4,673.9
		c0.9,0,1.7-0.8,1.7-1.8c0-0.7-0.5-1.4-1.2-1.4h-1.8l-0.5,3.2H77.4L77.4,673.9z"/>
	<path class="st5" d="M82.1,670.2c0-0.1,0.1-0.3,0.3-0.3h0.4c0.1,0,0.2,0.1,0.2,0.3l-0.4,3.1l3.5-3.3c0-0.1,0.1-0.1,0.2-0.1h0.6
		c0.2,0,0.3,0.2,0.1,0.4l-3.6,3.4l2.6,3.7c0.1,0.1,0,0.3-0.2,0.3h-0.5c-0.1,0-0.2,0-0.2-0.1l-2.6-3.7l-0.5,3.5
		c0,0.1-0.1,0.3-0.3,0.3h-0.4c-0.1,0-0.2-0.1-0.2-0.3L82.1,670.2z"/>
</g>
<g>
	<path class="st5" d="M28.3,907.3c0-0.1,0.1-0.2,0.2-0.2h0.2c0.1,0,0.2,0.1,0.2,0.1l1.1,6.1l0,0l2.8-6.1c0-0.1,0.1-0.1,0.2-0.1h0.2
		c0.1,0,0.2,0.1,0.2,0.2l0.2,7.5c0,0.2-0.1,0.3-0.3,0.3h-0.4c-0.1,0-0.2-0.1-0.2-0.2l-0.1-5.6l0,0L30,915c0,0.1-0.1,0.1-0.2,0.1
		h-0.1c-0.1,0-0.2-0.1-0.2-0.1l-1-5.8l0,0l-1.7,5.7c0,0.1-0.1,0.2-0.2,0.2h-0.4c-0.2,0-0.2-0.1-0.2-0.3L28.3,907.3z"/>
	<path class="st5" d="M34.3,914.7l4.1-7.5c0-0.1,0.1-0.1,0.2-0.1h0.1c0.1,0,0.1,0.1,0.2,0.1l2,7.5c0,0.1-0.1,0.3-0.2,0.3h-0.5
		c-0.1,0-0.2-0.1-0.2-0.1l-0.4-1.8H36l-0.9,1.8c0,0.1-0.1,0.1-0.2,0.1h-0.5C34.3,915,34.2,914.8,34.3,914.7z M39.3,912.3l-0.9-3.6
		h-0.1l-1.9,3.6H39.3z"/>
	<path class="st5" d="M43,907.4c0-0.1,0.1-0.2,0.2-0.2h2.5c1.2,0,2,1,2,2.2c0,1.1-0.7,2.1-1.8,2.5l1,2.8c0.1,0.1,0,0.3-0.2,0.3h-0.5
		c-0.1,0-0.1-0.1-0.1-0.1l-0.9-2.9h-1.9l-0.4,2.8c0,0.1-0.1,0.2-0.2,0.2h-0.5c-0.1,0-0.2-0.1-0.2-0.2L43,907.4z M45.1,911.2
		c0.9,0,1.7-0.8,1.7-1.8c0-0.7-0.5-1.4-1.2-1.4h-1.8l-0.5,3.2H45.1L45.1,911.2z"/>
	<path class="st5" d="M49.8,907.5c0-0.1,0.1-0.3,0.3-0.3h0.4c0.1,0,0.2,0.1,0.2,0.3l-0.4,3.1l3.5-3.3c0-0.1,0.1-0.1,0.2-0.1h0.6
		c0.2,0,0.3,0.2,0.1,0.4L51,911l2.6,3.7c0.1,0.1,0,0.3-0.2,0.3h-0.5c-0.1,0-0.2,0-0.2-0.1l-2.6-3.7l-0.5,3.5c0,0.1-0.1,0.3-0.3,0.3
		H49c-0.1,0-0.2-0.1-0.2-0.3L49.8,907.5z"/>
</g>
</svg>
