<?xml version="1.0" encoding="utf-8"?>
<!-- Generator: Adobe Illustrator 23.0.3, SVG Export Plug-In . SVG Version: 6.00 Build 0)  -->
<svg version="1.1" id="Layer_1" xmlns="http://www.w3.org/2000/svg" xmlns:xlink="http://www.w3.org/1999/xlink" x="0px" y="0px"
	 viewBox="0 0 973.4 164.7" style="enable-background:new 0 0 973.4 164.7;" xml:space="preserve">
<style type="text/css">
	.st0{fill:#414042;}
</style>
<title>Asset 5</title>
<g>
	<path class="st0" d="M319.5,68.7c8.2,6.1,16.7,14.8,16.7,22.9c0,4.8-2.3,12.6-16.7,14.3L319.5,68.7 M313.4,112.3
		c20.5,0,28.9-9.6,28.9-20.7c0-15.9-21.7-30.1-28.9-34.2V112.3z"/>
	<path class="st0" d="M288.3,58c-6.2,0-14.8,9.4-18.8,20.6c-0.8,2.4-1.5,4.8-1.9,7.3c-0.3,2-0.5,4.1-0.5,6.2c0,7.1,2.1,13,6.1,17
		c3.7,3.7,8.8,5.6,15,5.6c9.4,0,14.5-4.4,17.1-8c4.8-6.8,5.4-17.6,1.7-28.1C303.1,67.4,294.5,58,288.3,58z M300.4,103.2
		c-2.5,3.6-6.6,5.4-12.1,5.4c-4.6,0-8.2-1.3-10.7-3.8c-3.6-3.6-4.4-8.9-4.3-12.7c0-1.7,0.2-3.5,0.5-5.2c0.4-2.1,0.9-4.2,1.6-6.2
		c3.6-10.1,10.6-16.5,13-16.5s9.4,6.5,13,16.5l0,0C304.4,89.3,304,98,300.4,103.2L300.4,103.2z"/>
	<path class="st0" d="M462.9,86.3c0,15.8-3.7,22.3-12.9,22.3c-1.9,0-4.4-0.7-5.8-2l-4.3,4.3c2.8,2.8,7.1,3.8,10.1,3.8
		c17,0,19-16.2,19-28.4c0-15.8,3.7-22.3,12.9-22.3V58C464.8,58,462.9,74.1,462.9,86.3z"/>
	<path class="st0" d="M395.1,68.6c3.5-2.1,7.4-3.6,11.4-4.5l-0.6-3l-0.6-3c-9.3,1.8-27,9.8-27,27.6c0,17.9,17.7,25.2,27.1,26.5
		l0.9-6c-4-0.7-7.8-2-11.4-4c-7-3.9-10.6-9.5-10.6-16.5C384.5,78.7,388.1,72.9,395.1,68.6z"/>
	<path class="st0" d="M412.6,112.3h24.2v-6.1h-18.1V88.1c0-1.9,5.6-8.3,14.9-11.6l-2-5.7c-4.7,1.6-9.1,4.2-12.8,7.4V64.3h18.1v-6.1
		h-24.2L412.6,112.3L412.6,112.3z"/>
	<path class="st0" d="M221.9,60l-4.7-2.9v55.1h6.1V96.8c5.1-0.7,9.3-3.1,12-6.9c2.9-4.2,3.6-9.6,1.7-14.7
		C234.5,68,223.2,60.8,221.9,60z M230.4,86.5c-1.5,2.2-4,3.6-7,4.2V68.5c3.5,2.7,7,6.1,8,8.8C232.6,80.7,232.2,83.9,230.4,86.5z"/>
	<path class="st0" d="M368.3,98.3c0,4.4-3.5,7.9-7.9,7.9c-4.4,0-7.9-3.5-7.9-7.9V58.2h-6.1v40.1c0,7.7,6.3,14,14,14
		c7.7,0,14-6.3,14-14V58.2h-6.1V98.3z"/>
	<path class="st0" d="M269,112.3l-10.3-18.7c1.4-1,2.6-2.2,3.6-3.6c2.9-4.2,3.6-9.6,1.7-14.7c-2.6-7.3-13.9-14.4-15.2-15.2l-4.7-2.9
		v55.1h6.1V96.9c1-0.1,2-0.3,2.9-0.6l8.8,16.1H269z M250.3,90.7V68.5c3.5,2.7,7,6.1,8,8.8c1.2,3.4,0.8,6.6-1,9.2
		C255.8,88.7,253.3,90.1,250.3,90.7z"/>
</g>
<g>
	<path class="st0" d="M48.6,57.3c-6.2,0-14.8,9.4-18.8,20.6c-0.8,2.4-1.5,4.8-1.9,7.2c-0.3,2-0.5,4.1-0.5,6.2c0,7.1,2.1,13,6.1,17
		c3.7,3.7,8.8,5.6,15,5.6c9.4,0,14.5-4.4,17.1-8c4.8-6.8,5.4-17.5,1.7-28.1C63.4,66.7,54.8,57.3,48.6,57.3z M60.7,102.5
		c-2.5,3.6-6.6,5.4-12.1,5.4c-4.6,0-8.2-1.3-10.7-3.8c-3.6-3.6-4.4-8.9-4.3-12.7c0-1.7,0.2-3.5,0.5-5.2c0.4-2.1,0.9-4.2,1.6-6.2
		c3.6-10.1,10.6-16.5,13-16.5s9.4,6.5,13,16.5l0,0C64.7,88.7,64.4,97.3,60.7,102.5z"/>
	<rect x="151.7" y="57.9" class="st0" width="6.1" height="54.2"/>
	<rect x="102.2" y="57.9" class="st0" width="6.1" height="54.2"/>
	<polygon class="st0" points="79.9,57.9 73.8,57.9 73.8,112.1 96.1,112.1 96.1,106 79.9,106 	"/>
	<polygon class="st0" points="139.3,57.9 129.9,91.9 120.5,57.9 114.2,57.9 129.9,114.7 145.7,57.9 	"/>
	<path class="st0" d="M163.8,57.6v54.8h6.1V89h13.7c3.1,7.4,4.8,15.4,4.9,23.4h6.1C194.5,105,192.5,74.8,163.8,57.6z M169.9,82.9
		V69.5c4.3,3.9,7.9,8.4,10.7,13.4H169.9z"/>
</g>
<g>
	<path class="st0" d="M728.7,87.5c0,15.8-3.7,22.3-12.9,22.3c-1.9,0-4.4-0.6-5.8-2l-4.3,4.3c2.8,2.8,7.1,3.8,10.1,3.8
		c17,0,19-16.2,19-28.4c0-15.8,3.7-22.3,12.9-22.3v-6.1C730.7,59.2,728.7,75.4,728.7,87.5z"/>
	<path class="st0" d="M511.7,69.8c3.5-2.1,7.4-3.6,11.4-4.5l-0.6-3l-0.6-3c-9.3,1.8-27,9.8-27,27.6c0,17.9,17.7,25.2,27.1,26.5
		l0.9-6c-4-0.7-7.8-2.1-11.4-4c-7-3.9-10.6-9.5-10.6-16.5C501,79.9,504.6,74.1,511.7,69.8z"/>
	<path class="st0" d="M588.2,69.8c3.5-2.1,7.4-3.6,11.4-4.5l-0.6-3l-0.6-3c-9.3,1.8-27,9.8-27,27.6c0,17.9,17.7,25.2,27.1,26.5
		l0.9-6c-4-0.7-7.8-2.1-11.4-4c-7-3.9-10.6-9.5-10.6-16.5C577.6,79.9,581.2,74.1,588.2,69.8z"/>
	<path class="st0" d="M643.8,113.5H668v-6.1h-18.1V89.3c0-1.9,5.6-8.3,14.9-11.6l-2-5.7c-4.7,1.6-9,4.2-12.8,7.4V65.6H668v-6.1
		h-24.2V113.5z"/>
	<rect x="561.4" y="59.3" class="st0" width="6.1" height="54.2"/>
	<path class="st0" d="M549.2,75.6c-2.2-0.7-4.6-1.1-6.9-1.1c-2.4,0-4.8,0.4-7.1,1.1V59.3h-6.1v54.2h6.1v-31c1.9-1.1,4.3-1.8,7.1-1.8
		c2.7,0,5,0.6,6.9,1.6v31.2h6.1V59.3h-6.1V75.6z"/>
	<path class="st0" d="M696.2,66.5c-0.4-0.5-0.8-0.9-1.2-1.4c-4.4-4.4-10.4-6.7-17.9-6.7h-3l0,55.1h6.1V64.7
		c4.4,0.5,7.9,2.1,10.6,4.7c4.6,4.6,5.5,11.2,5.5,16v28.1h6.1V58.5h-6.1L696.2,66.5L696.2,66.5z"/>
	<rect x="605.3" y="59.5" class="st0" width="6.1" height="54"/>
	<path class="st0" d="M621.8,78.7l9.2-19.2h-6.8l-9.9,20.9l1.9,1.5c0.1,0.1,10.4,8.6,13.5,19.1c1.2,4.1,1.9,8.3,1.9,12.6l6.1-0.1
		c-0.1-4.8-0.8-9.6-2.2-14.2C632.7,89.7,625.2,81.9,621.8,78.7z"/>
</g>
<g>
	<path class="st0" d="M929.4,87.8c0,15.8-3.7,22.3-12.9,22.3c-1.9,0-4.4-0.6-5.8-2l-4.3,4.3c2.8,2.8,7.1,3.8,10.1,3.8
		c17,0,19-16.2,19-28.4c0-15.8,3.7-22.3,12.9-22.3v-6.1C931.4,59.5,929.4,75.6,929.4,87.8z"/>
	<path class="st0" d="M818.6,113.8h24.2v-6.1h-18.1V89.6c0-1.9,5.6-8.3,14.9-11.6l-2.1-5.7c-4.7,1.6-9,4.2-12.8,7.4V65.8h18.1v-6.1
		h-24.2L818.6,113.8L818.6,113.8z"/>
	<path class="st0" d="M803.7,113.8c-2.4-3.2-5.1-7.6-5.1-10v-19h5.1v-6h-5.1v-5.3h-6v5.3h-2c-4.8,0-8.4-1.2-10.7-3.5
		c-2.7-2.7-3.3-6.7-3.4-9.7h17.7v-6h-23.7v3.5c0,3.6-0.1,11.2,5.2,16.5c0,0,0.1,0.1,0.1,0.1c-9.2,3-14.2,12.8-11.2,22
		s12.8,14.2,22,11.2c2.7-0.9,5.1-2.4,7.1-4.4c0.7,1.9,1.7,3.6,2.8,5.3H803.7z M792.7,96.3c0,6.3-5.1,11.5-11.5,11.5
		s-11.5-5.1-11.5-11.5c0-6.3,5.1-11.5,11.4-11.5h11.5L792.7,96.3L792.7,96.3z"/>
	<path class="st0" d="M896.9,75.2h-7.5v6.1h7.5v21.3c-8.2-6.1-16.8-14.8-16.8-23c0-5.1,2.6-13.4,18.8-14.6v-6.1
		C881.3,60.1,874,69.2,874,79.6c0,15.9,21.7,30.2,28.9,34.3V75.2H896.9z"/>
	<path class="st0" d="M865.6,75.2h-7.5v6.1h7.5v21.3c-8.2-6.1-16.8-14.8-16.8-23c0-5.1,2.6-13.4,18.8-14.6v-6.1
		c-17.7,1.2-24.9,10.2-24.9,20.6c0,15.9,21.7,30.2,28.9,34.3V75.2H865.6z"/>
</g>
</svg>
