<?xml version="1.0" encoding="utf-8"?>
<!-- Generator: Adobe Illustrator 23.0.6, SVG Export Plug-In . SVG Version: 6.00 Build 0)  -->
<svg version="1.1" id="Layer_1" xmlns="http://www.w3.org/2000/svg" xmlns:xlink="http://www.w3.org/1999/xlink" x="0px" y="0px"
	 viewBox="0 0 1036 405.4" style="enable-background:new 0 0 1036 405.4;" xml:space="preserve">
<style type="text/css">
	.st0{fill:#F8E1BD;}
	.st1{fill:#EB5532;}
	.st2{fill:#FFFFFF;}
	.st3{fill:#414042;}
</style>
<path class="st0" d="M490,227.2c-5-7.2-6.2-16.5-2.9-25.5c2.1-5.8,7.2-11.4,12.3-16h-26.6l4.1-19.1l33.5-27v-35.1l-0.1-0.9
	c-12.4,5.7-32.4,27.7-43.9,58.6l-5.1,3.8l-6.7,23.7l4.3,2.8c-0.7,5.2-1.1,10.5-1.1,15.7C457.7,235,467,250,475,258
	c8.8,8.8,20.6,13.7,35.4,14.7l0.1-33.7C501.8,237.9,494.6,233.6,490,227.2z"/>
<path class="st1" d="M600.4,104.8L600.4,104.8l5.3-6c0.2-0.3,0.7-0.3,0.9,0c4.4,5.1,6.7,10.7,7.2,16.4c0.6,10.6-5.5,19.9-10.6,25.9
	l-23.5,26.7c-0.9-2.3-1.5-4.4-2.3-6.5c-6.3-18.1-15.8-34.9-28.1-49.5c-5.9-6.9-16.7-17.7-27.9-20.6V48.8c0-0.4,0.3-0.7,0.7-0.6
	c6.9,1,12.5,3.6,16.7,7.9c7.7,7.7,9.2,18.8,9.2,27v4c3.6,2.9,6.9,6.2,10,9.6l1-1.2l20.9-23.6c0.2-0.3,0.7-0.3,0.9,0
	c4.4,5.1,6.7,10.7,7.2,16.4L600.4,104.8z"/>
<title>Asset 4</title>
<g>
	<path class="st2" d="M521.5,170.2v-66.5c12.8,5.8,33.6,29,45,61.6c1.2,3.1,2.1,6.3,2.9,9.4h-47.9V170.2L521.5,170.2z"/>
	<path class="st3" d="M532.9,141c-2.9,0-5.5,2.4-5.5,5.5c0,2.9,2.4,5.5,5.5,5.5c2.9,0,5.5-2.4,5.5-5.5S536,141,532.9,141z"/>
	<path class="st3" d="M582.9,180.6l28.3-32.3c9.5-10.8,14.1-22.4,13.3-33.8c-0.6-10.5-5.8-20.1-15.3-28.3l-3.2-2.9
		c-0.5-0.5-1.3-0.4-1.7,0.1l-5.2,6c0-0.5,0-1.3-0.1-1.8c-0.6-10.5-5.8-20.1-15.4-28.3l-3.2-2.9c-0.5-0.5-1.3-0.4-1.7,0.1l-19.9,22.7
		c-0.6-12.8-4.9-23.3-12.3-30.8c-7.4-7.4-17.8-11.4-30.6-11.4h-4.3c-0.7,0-1.2,0.5-1.2,1.2v53.3c-11.2,2.9-21.9,13.7-27.9,20.6
		c-12.3,14.6-21.9,31.4-28.2,49.5c-2.8,8.2-5,16.7-6.4,25.2c-1.2,7-1.8,14.4-1.8,21.5c0,24.6,7,44.7,20.6,58.2
		c12.2,12.2,28.7,18.5,49.2,18.5c24.4,0,43.6-9,55.6-26C585.2,239.4,589.2,210.7,582.9,180.6z M510.3,272.7
		c-14.7-1-26.5-5.9-35.4-14.7c-7.9-7.9-17.3-22.9-17.2-49.9c0-6.5,0.5-13.2,1.7-19.6c0.1-0.9,0.4-1.9,0.5-2.8h39.3
		c-5.1,4.6-10.3,10.3-12.3,16c-3.2,9-2.1,18.3,2.9,25.5c4.6,6.4,11.8,10.6,20.5,11.8L510.3,272.7z M510.3,227.6
		c-4.6-0.8-8.7-3.3-11.4-6.9c-3.1-4.4-3.7-9.9-1.5-15.4c1.5-4.5,7.3-10,13.2-14.5L510.3,227.6z M510.3,174.6h-25.9l25.9-20.8V174.6z
		 M510.3,104.5L510.3,104.5v35.1l-49.1,39.6c1.2-4.7,2.6-9.4,4-14c11.3-32.6,32.2-55.8,45-61.6L510.3,104.5
		C510.2,104.5,510.3,104.5,510.3,104.5z M521.5,170.2v-66.6c12.8,5.8,33.6,29,45,61.6c1.2,3.1,2.1,6.3,2.9,9.4h-47.9V170.2
		L521.5,170.2z M562,251.7c-9,12.8-22.8,19.7-40.6,20.9v-87.2h50.4C576.7,211.6,573.4,235.8,562,251.7L562,251.7z M577.5,161.2
		c-6.3-18.1-15.8-34.9-28.1-49.5c-5.9-6.9-16.7-17.7-27.9-20.6l0-42.4c0-0.4,0.3-0.7,0.7-0.6c6.9,1,12.5,3.6,16.7,7.9
		c7.7,7.7,9.2,18.8,9.2,27v4c3.6,2.9,6.9,6.2,10,9.6l1-1.2l20.9-23.6c0.2-0.3,0.7-0.3,0.9,0c4.4,5.1,6.7,10.7,7.2,16.4
		c0.6,10.5-5.4,19.7-10.5,25.8l-0.1,0.1c2,3.2,3.7,6.6,5.6,9.8c0.1,0.1,0.3,0.2,0.4,0l16.8-19.2l0,0l5.3-6c0.2-0.3,0.7-0.3,0.9,0
		c4.4,5.1,6.7,10.7,7.2,16.4c0.6,10.6-5.5,19.9-10.6,25.9l-23.5,26.7C578.9,165.5,578.3,163.4,577.5,161.2z"/>
	<path class="st1" d="M510.3,227.6c-4.6-0.8-8.7-3.3-11.4-6.9c-3.1-4.4-3.7-9.9-1.5-15.4c1.5-4.5,7.3-10,13.2-14.5L510.3,227.6z"/>
	<polygon class="st2" points="510.3,174.6 484.6,174.6 510.3,153.7 	"/>
	<path class="st2" d="M562,251.7c-9,12.8-22.8,19.7-40.6,20.9v-87.2h50.4C576.7,211.6,573.4,235.8,562,251.7z"/>
	<path class="st3" d="M463.8,370c-0.4-0.1-0.6-0.1-0.9-0.1c-2.2,0-3.2,2.1-3.2,4c0,1.9,1,4.2,3.2,4.2c0.4,0,0.6-0.1,1-0.3v2.4
		c-0.4,0.1-0.8,0.3-1.2,0.3c-3.7,0-5.8-3.3-5.8-6.7c0-3.2,2.1-6.4,5.6-6.4c0.5,0,0.9,0.1,1.3,0.3L463.8,370L463.8,370L463.8,370z"/>
	<path class="st3" d="M468.1,367.6v5h2.6v-5h2.6v12.8h-2.6v-5.5h-2.6v5.5h-2.6v-12.8H468.1z"/>
	<path class="st3" d="M477.9,367.6v12.8h-2.6v-12.8H477.9z"/>
	<path class="st3" d="M486.6,370c-0.4-0.1-0.6-0.1-0.9-0.1c-2.2,0-3.2,2.1-3.2,4c0,1.9,1,4.2,3.2,4.2c0.4,0,0.6-0.1,1-0.3v2.4
		c-0.4,0.1-0.8,0.3-1.2,0.3c-3.7,0-5.8-3.3-5.8-6.7c0-3.2,2.1-6.4,5.6-6.4c0.5,0,0.9,0.1,1.3,0.3L486.6,370L486.6,370L486.6,370z"/>
	<path class="st3" d="M490.9,367.6v5.8l0,0l2.1-5.8h2.7l-2.3,5.9l2.7,6.9h-2.7l-2.3-6.5l0,0v6.5h-2.7v-12.8H490.9z"/>
	<path class="st3" d="M502.5,367.6v2.4H500v2.7h2.3v2.4H500v2.8h2.7v2.4h-5.1v-12.8H502.5z"/>
	<path class="st3" d="M506.9,367.6l3.2,7.8l0,0c-0.1-0.6-0.3-1.3-0.3-1.9v-5.8h2.6v12.8H510l-3.1-7.8l0,0l0.1,1.3v0.5v5.8h-2.6
		v-12.8h2.4V367.6z"/>
	<path class="st3" d="M518.8,380.4v-12.8h2.7c0.5,0,4.4-0.4,4.4,3.7c0.1,1.9-1.4,3.7-3.3,3.7c-0.3,0-0.4,0-0.5,0h-0.5v5.3
		L518.8,380.4z M521.4,373.1c1.3,0,1.9-0.5,1.9-1.7c0-0.9-0.4-1.7-1.5-1.7h-0.5v3.3H521.4z"/>
	<path class="st3" d="M531.9,367.6l3.1,12.8h-2.7l-0.5-2.2h-2.6l-0.5,2.2h-2.6l2.9-12.8H531.9z M530.7,372.8l-0.4-1.9l0,0l-0.3,1.9
		l-0.5,3.5h1.8L530.7,372.8z"/>
	<path class="st3" d="M541.6,370.5c-0.5-0.5-1.2-0.8-1.8-0.8s-1.3,0.5-1.3,1c0,0.1,0,0.1,0,0.3c0,2.1,3.8,2.2,3.8,5.8
		c0,2.3-1.3,4-3.7,4c-0.8,0-1.5-0.3-2.2-0.6v-2.4c0.5,0.5,1.3,0.6,1.9,0.6c0.8,0,1.4-0.5,1.5-1.3v-0.1c0-1-0.8-1.4-1.5-1.8
		c-1.5-1-2.4-1.9-2.4-3.7c0-1.8,1.2-3.7,3.3-3.7c0.8,0,1.5,0.3,2.2,0.5L541.6,370.5z"/>
	<path class="st3" d="M550.2,367.6v2.4h-2.1v10.4h-2.6V370h-1.9v-2.4H550.2z"/>
	<path class="st3" d="M554.2,367.6v8.3c0,1-0.1,2.4,1.3,2.4c1.4,0,1.3-0.9,1.3-1.9v-8.8h2.6v9.4c0,1.4-0.1,3.7-3.7,3.7
		c-2.4,0-3.7-1.2-3.7-3.6v-9.5H554.2z"/>
	<path class="st3" d="M561.4,380.4v-12.8h2.6c1.5,0,4.5,0.3,4.5,3.7c0.1,1.4-0.6,2.7-1.8,3.3l2.2,5.8h-2.6l-2.2-5.9l0,0v5.9H561.4z
		 M564,373.1h0.5c1.2,0,1.5-0.8,1.5-1.8c0.1-0.8-0.5-1.5-1.3-1.5c-0.1,0-0.4,0-0.5,0h-0.4v3.3H564z"/>
	<path class="st3" d="M576,367.6v2.4h-2.6v2.7h2.3v2.4h-2.2v2.8h2.7v2.4h-5.1v-12.8H576z"/>
	<path class="st3" d="M437.9,291.3c-7.8,0-18.6,11.8-23.6,25.9c-1,2.9-1.8,5.9-2.4,9c-0.5,2.6-0.6,5.1-0.6,7.8
		c0,9,2.7,16.4,7.7,21.4c4.7,4.7,11,7,18.8,7c11.8,0,18.2-5.5,21.4-10c6-8.5,6.9-21.9,2.2-35.2C456.4,303.1,445.5,291.3,437.9,291.3
		z M452.9,348c-3.2,4.6-8.3,6.9-15.3,6.9c-5.8,0-10.3-1.5-13.5-4.7c-4.6-4.6-5.5-11.2-5.5-15.9c0-2.2,0.3-4.4,0.5-6.5
		c0.5-2.7,1.2-5.3,2.1-7.8c4.5-12.7,13.2-20.8,16.4-20.8c3.1,0,11.8,8.1,16.4,20.8l0,0C458.1,330.7,457.5,341.6,452.9,348z"/>
	<path class="st3" d="M475.6,292.7h-6.3c-0.3,0-0.6,0.3-0.6,0.6v66.2c0,0.3,0.3,0.6,0.6,0.6h26.3c0.3,0,0.6-0.3,0.6-0.6v-6.2
		c0-0.3-0.3-0.6-0.6-0.6h-19.4v-59.4C476.3,293,476,292.7,475.6,292.7z"/>
	<path class="st3" d="M537.3,334.5L526,293.3c-0.1-0.3-0.3-0.4-0.6-0.4h-6.6c-0.4,0-0.7,0.4-0.6,0.8l18.4,66.8c0.2,0.6,1,0.6,1.2,0
		l18.5-66.8c0.1-0.4-0.2-0.8-0.6-0.8h-6.6c-0.3,0-0.5,0.2-0.6,0.4L537.3,334.5z"/>
	<path class="st3" d="M504.4,292.9h6.2c0.3,0,0.6,0.3,0.6,0.6v66.2c0,0.3-0.3,0.6-0.6,0.6h-6.2c-0.3,0-0.6-0.3-0.6-0.6v-66.2
		C503.8,293.1,504.1,292.9,504.4,292.9z"/>
	<path class="st3" d="M564.9,292.9h6.2c0.3,0,0.6,0.3,0.6,0.6v66.2c0,0.3-0.3,0.6-0.6,0.6h-6.2c-0.3,0-0.6-0.3-0.6-0.6v-66.2
		C564.3,293.1,564.6,292.9,564.9,292.9z"/>
	<path class="st3" d="M582,291.8v67.8c0,0.3,0.3,0.6,0.6,0.6h6.5c0.3,0,0.6-0.3,0.6-0.6v-24.1h19c2.6,7.8,4.2,16,4.3,24.1
		c0,0.3,0.3,0.6,0.6,0.6l6.5,0c0.3,0,0.6-0.3,0.6-0.6c-0.4-10.2-3.4-46.7-38.3-68C582.2,291.4,582,291.6,582,291.8z M589.5,327.8
		v-21.4c6.7,6,12,13.3,15.9,21.4H589.5z"/>
</g>
</svg>
