<?xml version="1.0" encoding="utf-8"?>
<!-- Generator: Adobe Illustrator 23.0.3, SVG Export Plug-In . SVG Version: 6.00 Build 0)  -->
<svg version="1.1" id="Layer_1" xmlns="http://www.w3.org/2000/svg" xmlns:xlink="http://www.w3.org/1999/xlink" x="0px" y="0px"
	 viewBox="0 0 1528.8 1586.4" style="enable-background:new 0 0 1528.8 1586.4;" xml:space="preserve">
<style type="text/css">
	.st0{fill:#404041;}
	.st1{fill:#EA5532;}
	.st2{fill:#F4F7F9;}
	.st3{fill:#424143;}
	.st4{fill:#F7E1BC;}
	.st5{fill:#F6CEA4;}
	.st6{fill:#E8E0C3;}
	.st7{fill:none;}
</style>
<title>Asset 3</title>
<g>
	<path class="st0" d="M1097.5,1250c10.6-10.1,10.9-26.9,0.7-37.5c-10.1-10.6-26.9-10.9-37.5-0.7s-10.9,26.9-0.7,37.5
		c0.2,0.3,0.5,0.5,0.7,0.7c-17,10.1-22.5,32.1-12.4,49.1s32.1,22.5,49.1,12.4s22.5-32.1,12.4-49.1
		C1106.9,1257.3,1102.6,1253.1,1097.5,1250z M1065.3,1231c0-7.7,6.2-14,13.9-14c7.7,0,14,6.2,14,13.9c0,7.7-6.2,14-13.9,14
		c0,0,0,0,0,0C1071.5,1244.9,1065.2,1238.7,1065.3,1231L1065.3,1231z M1079.2,1304c-12.8,0-23.3-10.4-23.3-23.3s10.4-23.3,23.3-23.3
		s23.3,10.4,23.3,23.3C1102.4,1293.6,1092,1304,1079.2,1304z"/>
	<path class="st0" d="M983.7,1316.6h-12.6c0-6.8,0.5-13.6,1.6-20.3c1.2-8.1,3-16.1,5.5-23.9c7-22.4,19-42.6,31.2-55h-42.1v-12.6
		h64.7v12.6c-8.2,0-30.3,22.3-41.8,58.8c-2.3,7.2-4,14.5-5.1,21.9C984.2,1304.2,983.7,1310.4,983.7,1316.6z"/>
	<path class="st0" d="M1260.3,1316.6c-25.2,0-45.6-25.1-45.6-56.1s20.5-56.1,45.6-56.1c25.2,0,45.6,25.1,45.6,56.1
		S1285.5,1316.6,1260.3,1316.6z M1260.3,1217c-18.2,0-33.1,19.5-33.1,43.5s14.8,43.5,33.1,43.5c18.3,0,33.1-19.5,33.1-43.5
		S1278.6,1217,1260.3,1217z"/>
	<path class="st0" d="M910.1,1245.7c-3.5,0-6.9,0.5-10.2,1.5c8.4-12.2,19.8-24.1,37.2-35.3l-11.5-7.5c-29.3,20.2-50.9,51.7-50.9,75
		v1.7c0,19.6,15.9,35.4,35.4,35.4c19.6,0,35.4-15.9,35.4-35.4C945.5,1261.5,929.6,1245.7,910.1,1245.7L910.1,1245.7z M910.1,1304
		c-12.6,0-22.9-10.2-22.9-22.9c0-12.6,10.2-22.9,22.9-22.9c12.6,0,22.9,10.2,22.9,22.9C932.9,1293.7,922.7,1304,910.1,1304
		L910.1,1304z"/>
	<path class="st0" d="M1166.6,1275.3c3.5,0,6.9-0.5,10.2-1.5c-8.4,12.2-19.8,24.1-37.2,35.3l11.5,7.5c29.3-20.1,50.9-51.7,50.9-75
		v-1.7c0-19.6-15.9-35.4-35.4-35.4c-19.6,0-35.4,15.9-35.4,35.4C1131.2,1259.5,1147.1,1275.3,1166.6,1275.3z M1166.6,1217
		c12.6,0,22.9,10.2,22.9,22.9s-10.2,22.9-22.9,22.9c-12.6,0-22.9-10.2-22.9-22.9C1143.7,1227.2,1154,1217,1166.6,1217L1166.6,1217z"
		/>
	<path class="st0" d="M1088.9,694.8c0,9.9-1.9,23.6-11.4,33.1c-5.5,5.5-12.8,8.7-21.8,9.8v-42.8h-12.6v0.2c0,9.8-2,23.4-11.4,32.8
		c-5.5,5.5-12.8,8.8-21.8,9.8V636.7h-12.6v113.9h6.3c15.4,0,27.9-4.6,37-13.8c0.9-0.9,1.7-1.8,2.5-2.7v16.5h6.3
		c15.4,0,27.9-4.6,37-13.8c9.9-9.9,15.1-24.4,15.1-42v-58.1h-12.6V694.8z"/>
	<path class="st0" d="M879.5,719.6c-0.3,9-7.8,16.2-16.8,15.9c-8.7-0.2-15.7-7.2-15.9-15.9v-82.9h-12.6v82.9
		c0.3,16,13.6,28.7,29.6,28.3c15.5-0.3,28-12.8,28.3-28.3v-82.9h-12.6V719.6z"/>
	<path class="st0" d="M1338.3,689.6c5.3-15,8.1-30.7,8.2-46.6v-6.3h-48.6v12.6h35.9c-0.7,12.3-3.2,24.5-7.3,36.2
		c-7.1,20.5-19.3,40-32.6,52.1l-11.9,11h64.1v-12.6h-33.3C1323.8,722,1332.5,706.4,1338.3,689.6z"/>
	<polygon class="st0" points="963.1,636.6 943.6,706.9 924.2,636.6 911.1,636.6 943.6,754.2 976.2,636.6 	"/>
	<path class="st0" d="M1186.2,705.7c-5.2-14.6-12.6-28.3-21.8-40.7c6.7-7.5,13.3-12.7,18.8-15.1v-13.3c-8.5,2-18,8.8-26.9,18.5
		c-9-9.7-18.4-16.5-26.9-18.5v13.3c5.5,2.3,12.1,7.6,18.8,15.1c-9.3,12.4-16.7,26.2-22,40.7c-2.9,8.1-5.1,16.4-6.5,24.8
		c-1,6-1.6,12.1-1.7,18.2l12.6,0.3c0.1-5.5,0.6-11,1.5-16.4c1.3-7.7,3.3-15.3,5.9-22.7c4.4-12.3,10.5-24,18.1-34.7
		c7.6,10.7,13.7,22.3,18.1,34.7c2.6,7.4,4.6,15,5.9,22.7c0.9,5.4,1.4,10.9,1.5,16.4l12.6-0.3c-0.1-6.1-0.7-12.2-1.7-18.2
		C1191.3,722.1,1189.1,713.8,1186.2,705.7z"/>
	<path class="st0" d="M1263.1,636.7c-5.7,12.9-13.5,24.9-22.9,35.4c-9.4-10.6-17.1-22.5-22.9-35.4h-13.6c7.3,17.9,18.2,34.8,30.2,47
		v65h12.6v-65c12-12.1,22.9-29.1,30.2-47H1263.1z"/>
	<rect x="971.2" y="1460.4" class="st0" width="12.6" height="16.8"/>
	<rect x="1034.3" y="1460.4" class="st0" width="12.6" height="16.8"/>
	<rect x="1034.3" y="1439.7" class="st0" width="12.6" height="16.8"/>
	<path class="st0" d="M1010.6,1489.1l-10.9-6.2c1.7-2.9,3.1-6.1,4.2-9.3v-13.1h12.6v13.4C1016.4,1478.2,1012.7,1485.2,1010.6,1489.1
		z"/>
	<rect x="1070.7" y="1439.7" class="st0" width="12.6" height="16.8"/>
	<path class="st0" d="M1074.9,1486.2l-10.5-6.8c2.5-3.7,4.6-7.6,6.3-11.7v-7.3h12.5v7.6C1083.2,1471.5,1080.4,1477.6,1074.9,1486.2z
		"/>
	<path class="st0" d="M922.4,1403.9c-7.3,0-13.2-5.9-13.2-13.2c0-7.3,5.9-13.2,13.2-13.2c5.3,0,10.1,3.2,12.2,8.2
		c0.3,0.7,0.5,1.3,0.6,2l9.4-10c-3.8-6.5-10.1-10.9-17.5-12.3v-7.8h-12.6v8.5c-13.5,4.3-21,18.8-16.7,32.3
		c3.4,10.6,13.1,17.8,24.2,17.9l0,0c13.4,0.7,23.6,12.1,22.9,25.5s-12.1,23.6-25.5,22.9c-10.7-0.6-19.8-8.1-22.3-18.6
		c-0.3-1.1-0.4-2.2-0.5-3.4l-9.9,11.9c4.8,11.7,15.3,20.1,27.8,22.2v7.5h12.6v-7.6c20-3.5,33.5-22.5,30-42.5
		C954.2,1417.3,939.7,1404.6,922.4,1403.9L922.4,1403.9z"/>
	<rect x="1109.2" y="1460.4" class="st0" width="12.6" height="16.8"/>
	<rect x="1109.2" y="1365.2" class="st0" width="12.6" height="91.2"/>
	<rect x="1165.3" y="1464.6" class="st0" width="12.6" height="12.6"/>
	<path class="st0" d="M1178.9,1442.3c-0.4,2.3-2.1,4.3-4.3,5c-1.6,0.5-3.3,0.4-4.8-0.3c-2.6-1.2-3.8-4.3-2.6-6.9
		c0.1-0.1,0.1-0.3,0.2-0.4c0.8-1.4,2.1-2.5,3.7-3c0.4-0.1,0.7-0.2,1.1-0.3c19.5-2.8,33.1-20.9,30.3-40.5
		c-2.8-19.5-20.9-33.1-40.5-30.3c-9.6,1.4-18.3,6.6-24,14.6l7.6,12.2c4.8-11.9,18.2-17.7,30.1-12.9s17.7,18.2,12.9,30.1
		c-3.1,7.7-10,13.2-18.2,14.3c-1.1,0.2-2.1,0.4-3.1,0.7c-4.7,1.5-8.6,4.7-10.9,9c-4.8,8.6-1.7,19.4,6.9,24.2
		c0.3,0.2,0.6,0.3,0.9,0.5c2.6,1.3,5.4,1.9,8.2,1.9c2,0,4-0.3,5.9-0.9c4.4-1.4,8.1-4.3,10.5-8.2L1178.9,1442.3z"/>
	<path class="st0" d="M1293.7,1477.2c-5-6.6-10.5-15.8-10.5-20.6v-39.2h10.5V1405h-10.5v-11h-12.4v11h-4.2c-10,0-17.5-2.4-22.2-7.2
		c-5.6-5.6-6.8-13.8-7.1-20.2h36.6v-12.4h-49.1v7.2c0,7.5-0.1,23.1,10.8,34.1c0.1,0.1,0.2,0.2,0.3,0.2
		c-18.9,6.2-29.3,26.5-23.1,45.5c6.2,18.9,26.5,29.3,45.5,23.1c5.5-1.8,10.6-4.9,14.6-9.1c1.5,3.8,3.4,7.5,5.7,11L1293.7,1477.2z
		 M1270.8,1441c0,13.1-10.6,23.7-23.7,23.7c-13.1,0-23.7-10.6-23.7-23.7c0-13.1,10.6-23.7,23.7-23.7c0,0,0,0,0,0h23.7L1270.8,1441z"
		/>
	<path class="st0" d="M1183.4,1154.9h-12.6v-22.7h-42.8v-6.3c0-5.1,0.4-10.1,1.2-15.1c1-6,2.4-11.9,4.4-17.7
		c9.2-27.2,29.1-50.2,43.4-50.2h6.3v76.7h7.4v12.6h-7.4V1154.9z M1140.9,1119.6h30v-61.2c-7.7,5.8-18.8,19.7-25.2,38.7
		c-1.7,5.1-3,10.3-3.9,15.6C1141.4,1115.1,1141.1,1117.4,1140.9,1119.6L1140.9,1119.6z"/>
	<path class="st0" d="M916.2,1042.9c-2,9.3-6.7,17.9-13.5,24.6v14.7c4.7-1.7,9.4-5.7,13.6-11v83.6h12.6v-111.9H916.2z"/>
	<path class="st0" d="M979.5,1142.3c17.8-14.2,44.1-39.7,44.1-66.1c0-15.6-8.2-27.5-21.9-31.7c-13.5-4.1-28.3,0.3-35.3,10.6
		c-9.1,13.5-5.6,30.7,2.6,40.9l9.8-7.9c-5.2-6.5-7.4-18-2-25.9c3.8-5.6,13.2-8.1,21.2-5.6c4.9,1.5,13,6.1,13,19.7
		c0,24.8-34,53.3-50.8,64.8v13.8h64.3v-12.6L979.5,1142.3z"/>
	<path class="st0" d="M1243,1085.1c-2.3,0-4.6,0.2-6.8,0.7c3.4-9.8,4.9-20.1,4.5-30.4h32.3v-12.6h-46.4l1,7.1
		c3.6,25.6-9.9,46.2-10,46.4l9.7,7.9c8.7-8.7,22.8-8.7,31.6,0c8.7,8.7,8.7,22.8,0,31.6c-8.7,8.7-22.8,8.7-31.6,0
		c-4.2-4.2-6.5-9.8-6.5-15.8l-12.1,5.6c3.1,19,21.1,31.8,40.1,28.7c19-3.1,31.8-21.1,28.7-40.1
		C1274.5,1097.5,1260,1085.1,1243,1085.1z"/>
	<path class="st0" d="M1090.2,1087c0.9-0.7,1.8-1.5,2.6-2.3c11-11,10.9-26.8,10.9-34.3v-7.2h-49.5v12.4h37.1
		c-0.3,6.4-1.5,14.8-7.2,20.4c-4.8,4.8-12.3,7.2-22.4,7.2h-1v12.4h13.6c13,0,23.5,10.5,23.5,23.5c0,13-10.5,23.5-23.5,23.5
		c-9.8,0-18.5-6-22-15.1l-10.7,6.5c8.2,18,29.5,25.9,47.5,17.7c18-8.2,25.9-29.5,17.7-47.5C1103.4,1096.7,1097.5,1090.6,1090.2,1087
		L1090.2,1087z"/>
	<path class="st0" d="M1123.9,184c16.8,12.7,34.5,30.6,34.5,47.4c0,10-4.8,26.1-34.5,29.6L1123.9,184 M1111.4,274.2
		c42.4,0,59.6-19.8,59.6-42.8c0-32.8-44.8-62.3-59.6-70.6L1111.4,274.2z"/>
	<path class="st0" d="M950.8,274.6h-6.3V161.3l7.7,1.7c22.1,5,37.1,16.3,39.2,29.4c0.9,5.5-0.7,11.1-4.3,15.3
		c3.9,3.5,7.3,7.5,10.2,11.8c7.7,11.8,9,24.4,3.5,34.6C995.8,263.5,983,274.6,950.8,274.6z M957.1,212.9v49.1
		c16.8-0.9,28.3-5.7,32.7-13.7c3.2-6,2.2-13.9-3-21.7c-3.6-5.2-8-9.8-13.2-13.5l-7.5-5.6l8-4.8c3.8-2.3,5.4-5,5-8.1
		c-0.9-5.4-8.1-12.4-22-17.1V212.9z"/>
	<path class="st0" d="M1056.7,184.3c7.3-4.4,15.2-7.5,23.5-9.4l-1.2-6.2l-1.2-6.2c-19.3,3.6-55.7,20.3-55.7,57.1s36.6,52.1,56,54.9
		l1.8-12.5c-8.2-1.5-16.1-4.3-23.5-8.2c-14.4-8.1-21.8-19.6-21.8-34.2C1034.7,205.1,1042.1,193.2,1056.7,184.3z"/>
	<path class="st0" d="M1192.2,274.2h50v-12.6h-37.4v-37.5c0-4,11.6-17.2,30.8-24l-4.2-11.9c-9.7,3.4-18.7,8.6-26.5,15.3v-28.5h37.4
		v-12.6h-50.1V274.2z"/>
	<path class="st0" d="M1285.9,202.5v-28.2h37.2v-12.6h-49.8v111.9h12.6V223l0,0c0-4,11.5-17.1,30.6-23.8l-4.2-11.9
		C1302.6,190.7,1293.7,195.9,1285.9,202.5z"/>
	<path class="st0" d="M857.5,161.3v113.3h12.5v-48.4h28.2c6.5,15.3,9.9,31.8,10.2,48.4H921C921,259.4,916.9,196.9,857.5,161.3z
		 M870.1,213.7v-27.6c8.8,8,16.2,17.3,22.1,27.6H870.1z"/>
	<polygon class="st0" points="982.7,915.3 1002.2,845 1021.6,915.3 1034.7,915.3 1002.2,797.7 969.7,915.3 	"/>
	<path class="st0" d="M1055.3,915.3h12.5c0.2-16.6,3.7-33.1,10.1-48.4h28.3v48.4h12.5V802C1059.5,837.6,1055.4,900,1055.3,915.3z
		 M1084.2,854.4c5.9-10.3,13.3-19.6,22.1-27.6v27.6L1084.2,854.4z"/>
	<path class="st0" d="M1147.4,802v113.3h12.5v-40.7h31.3c4.6,13.1,7,26.8,7.2,40.7h12.5C1210.8,900,1206.7,837.6,1147.4,802z
		 M1159.9,862v-35.2c10.9,9.9,19.8,21.9,26.1,35.3L1159.9,862z"/>
	<path class="st0" d="M1326,315.6h-6.3v16.5c-0.8-0.9-1.6-1.8-2.5-2.7c-9.1-9.2-21.6-13.8-37-13.8h-6.3v113.9h12.6V328.6
		c9,1,16.4,4.3,21.8,9.8c9.4,9.4,11.4,23,11.4,32.9v0.2h12.6v-42.8c9,1,16.3,4.3,21.8,9.7c9.4,9.4,11.4,23.2,11.4,33.1v58.1h12.6
		v-58.1c0-17.6-5.2-32.1-15.1-42C1353.9,320.3,1341.4,315.6,1326,315.6z"/>
	<rect x="987.6" y="317.8" class="st0" width="12.6" height="112"/>
	<path class="st0" d="M936.3,351.5c-4.6-1.5-9.4-2.2-14.2-2.2c-5-0.1-10,0.8-14.7,2.4v-33.9h-12.6v112h12.6v-64.2
		c4.5-2.6,9.6-3.8,14.7-3.7c5-0.1,9.9,1,14.2,3.3v64.6h12.6v-112h-12.6V351.5z"/>
	<polygon class="st0" points="1208.4,317.5 1195.8,317.5 1195.8,429.5 1242,429.5 1242,416.9 1208.4,416.9 	"/>
	<path class="st0" d="M1033.3,446.5l11.3,6.9c7-6.6,10.9-14.8,10.9-23.5v-112h-12.6v112C1042.9,438,1036.9,443.8,1033.3,446.5z"/>
	<rect x="1097" y="317.5" class="st0" width="12.6" height="111.7"/>
	<path class="st0" d="M1131.1,357.2l18.9-39.8h-14l-20.5,43l3.8,3.1c0.2,0.2,21.5,17.8,27.9,39.5c2.5,8.5,3.9,17.2,4,26l12.6-0.1
		c-0.2-10-1.7-19.9-4.5-29.4C1153.6,379.9,1138.2,363.9,1131.1,357.2z"/>
	<path class="st0" d="M849.8,349.6h-15.4v12.6h15.4v44c-16.9-12.7-34.7-30.7-34.7-47.5c0-10.5,5.3-27.7,39-30.1V316
		c-36.5,2.4-51.5,21.1-51.5,42.6c0,32.9,44.9,62.4,59.8,70.8v-79.8H849.8z"/>
	<path class="st0" d="M1077.7,30.3c-7.1,0-16.9,10.8-21.4,23.5c-1,2.7-1.7,5.4-2.2,8.3c-0.4,2.3-0.6,4.7-0.6,7.1
		c0,8.1,2.4,14.8,7,19.4c4.3,4.3,10,6.4,17.2,6.4c10.8,0,16.5-5,19.5-9.1c5.5-7.7,6.2-20,1.9-32C1094.6,41,1084.8,30.3,1077.7,30.3z
		 M1091.5,81.7c-2.9,4.1-7.5,6.2-13.8,6.2c-5.2,0-9.3-1.5-12.2-4.4c-4.1-4.1-5-10.2-5-14.5c0-2,0.2-4,0.5-5.9c0.4-2.4,1-4.8,1.8-7.1
		c4.1-11.5,12.1-18.8,14.8-18.8c2.7,0,10.8,7.3,14.8,18.8l0,0C1096.1,66,1095.7,75.8,1091.5,81.7L1091.5,81.7z"/>
	<path class="st0" d="M1148,34.5l-5.3-3.3V94h3.5c10.2,0,19-4,24-11.2c4.7-6.9,5.7-15.6,2.7-23.4C1168.8,47.5,1150.1,35.7,1148,34.5
		z M1164.5,78.7c-3.2,4.5-8.5,7.4-14.9,8.1V43.9c6.2,4.6,14.6,11.7,16.7,17.7C1168.6,67.2,1167.9,73.6,1164.5,78.7L1164.5,78.7z"/>
	<path class="st0" d="M1039.5,56.6c1.2-1.3,2-2.9,2.4-4.7c0.6-3.6-0.5-7.4-2.9-10.1c-4.3-5.4-13.5-10.2-19.6-10.2h-3.5v61.8h3.5
		c17.8,0,24.8-6.1,27.6-11.3c3-5.6,2.3-12.6-1.9-19.1C1043.5,60.7,1041.6,58.5,1039.5,56.6z M1040.9,78.8c-2.4,4.4-8.7,7.1-18.1,7.6
		V39.3c4.1,1.3,7.9,3.7,10.8,6.9c1.1,1.2,1.7,2.8,1.6,4.4c-0.4,1.3-1.4,2.4-2.7,2.9l-4.8,2.6l4.4,3.3c2.8,2.1,5.3,4.6,7.3,7.5
		C1042,71.2,1042.6,75.5,1040.9,78.8L1040.9,78.8z"/>
	<polygon class="st0" points="1114.8,31.7 1107.9,31.7 1107.9,93.5 1133.3,93.5 1133.3,86.5 1114.8,86.5 	"/>
	<path class="st0" d="M1240.5,62.9v-2.8h-7.3c0.4-0.3,0.8-0.7,1.2-1.1c4-4,6.1-9.4,6.1-16.3V40h-50v5.5h44.3c-0.3,3.6-1.8,7-4.3,9.6
		c-4.1,4.1-10.1,5-14.4,5h-0.1v5.5h18.8c-0.3,3.6-1.8,7-4.3,9.6c-4.2,4.2-10.2,5-14.5,5h-25.6v5.5h25.6c7.7,0,14.1-2.3,18.4-6.6
		C1238.5,75.1,1240.5,69.7,1240.5,62.9z"/>
	<path class="st0" d="M940.1,62.9v-2.8h7.2c-0.4-0.3-0.8-0.7-1.2-1.1c-4-4-6.1-9.4-6.1-16.3V40h50v5.5h-44.4c0.3,3.6,1.8,7,4.3,9.6
		c4.1,4.1,10.1,5,14.4,5h0.1v5.5h-18.8c0.3,3.6,1.8,7,4.3,9.6c4.1,4.2,10.2,5,14.5,5h25.6v5.5h-25.6c-7.7,0-14.1-2.3-18.4-6.6
		C942.2,75.1,940.1,69.7,940.1,62.9z"/>
	<path class="st0" d="M916.4,466.6c-12.8,0-30.6,19.5-38.8,42.6c-1.7,4.9-3,9.9-3.9,15c-0.7,4.2-1.1,8.5-1.1,12.8
		c0,14.7,4.4,26.9,12.7,35.2c7.7,7.7,18.2,11.6,31.1,11.6c19.5,0,29.9-9,35.3-16.6c9.9-14,11.2-36.3,3.5-58
		C947,486.1,929.2,466.6,916.4,466.6z M941.4,560c-5.3,7.5-13.7,11.2-25,11.2c-9.5,0-16.9-2.7-22.2-7.9c-7.5-7.5-9-18.4-9-26.3
		c0-3.6,0.3-7.2,0.9-10.8c0.7-4.4,1.9-8.7,3.4-12.9c7.4-20.9,21.9-34.2,26.9-34.2s19.5,13.3,26.9,34.2l0,0
		C949.7,531.4,949,549.2,941.4,560L941.4,560z"/>
	<path class="st0" d="M836.8,483.2c-0.8-0.9-1.6-1.9-2.5-2.8c-9.1-9.1-21.5-13.8-37-13.8H791v113.9h12.6v-101c9,1,16.3,4.3,21.8,9.8
		c9.4,9.4,11.4,23.2,11.4,33.1v58.1h12.6V466.6h-12.6V483.2z"/>
	<path class="st0" d="M994.4,473.2l-9.6-5.9v114h12.6v-31.9c10.5-1.4,19.3-6.4,24.8-14.2c6.1-8.6,7.4-19.7,3.6-30.5
		C1020.4,489.6,997.1,474.9,994.4,473.2z M1011.9,527.9c-3.5,4.7-8.7,7.8-14.5,8.7v-45.9c7.2,5.6,14.5,12.7,16.5,18.2
		C1016.4,515.8,1015.7,522.6,1011.9,527.9z"/>
	<path class="st0" d="M1224.1,581.2l-21.3-38.7c2.9-2,5.4-4.5,7.4-7.4c6.1-8.6,7.4-19.7,3.6-30.5c-5.4-15.1-28.7-29.8-31.4-31.5
		l-9.6-5.9v114h12.6v-31.9c2-0.3,4-0.7,6-1.3l18.3,33.2L1224.1,581.2z M1185.4,536.6v-45.9c7.2,5.6,14.5,12.7,16.5,18.2
		c2.5,6.9,1.7,13.7-2,19C1196.4,532.6,1191.2,535.7,1185.4,536.6z"/>
	<path class="st0" d="M1148.7,577.2c-6.7-2.7-13.2-5.9-19.4-9.5c9.8-14.1,11.1-36.2,3.4-57.8l0,0c-8.2-23.1-26-42.6-38.9-42.6
		c-12.9,0-30.7,19.5-38.9,42.6c-1.7,4.9-3,9.9-3.9,15c-0.7,4.2-1.1,8.5-1.1,12.8c0,14.7,4.4,26.9,12.7,35.2
		c7.7,7.7,18.2,11.6,31.2,11.6c11.6,0,19.9-3.2,26-7.3c7.7,4.7,15.7,8.7,24,12.1L1148.7,577.2z M1093.8,571.4
		c-9.4,0-16.7-2.7-21.9-7.8c-7.4-7.4-8.9-18.2-8.9-26c0-3.6,0.3-7.1,0.9-10.7c0.7-4.3,1.8-8.6,3.3-12.8
		c7.5-21.1,22.1-33.9,26.6-33.9s19,12.8,26.6,33.9c6.3,17.8,5.6,35.5-1.9,46.1c0,0-0.1,0.1-0.2,0.2c-5.9-4.1-11.4-8.8-16.4-14
		l-9.4,9.1c4.7,4.8,9.8,9.3,15.2,13.3C1103.2,570.7,1098.5,571.5,1093.8,571.4z"/>
	<path class="st0" d="M1257.1,583.7c-6.2,0-14.8-2.1-20.6-7.8l8.9-8.9c2.9,2.9,7.9,4.1,11.7,4.1c18.5,0,26-13.1,26-45.1
		c0-24.8,4-57.7,38.6-57.7v12.6c-18.5,0-26,13.1-26,45.1C1295.8,550.8,1291.7,583.7,1257.1,583.7z"/>
	<polygon class="st0" points="1370.9,468.3 1370.9,468.3 1339.6,468.3 1339.6,480.9 1358.3,480.9 1358.3,580.2 1370.9,580.2 
		1370.9,480.9 1389.6,480.9 1389.6,468.3 	"/>
	<rect x="1084" y="972.8" class="st0" width="12.6" height="16.8"/>
</g>
<g>
	<path class="st0" d="M462.2,837.4c8.4-11.8,10.1-27.1,4.9-41.9c-7.7-21.7-44.2-44.4-45.7-45.4l-7.2-4.4v112h4.7
		C437.3,857.6,453.1,850.2,462.2,837.4z M423.5,762.9c10.7,7.5,29.8,22.4,34.6,35.7c4.2,11.9,2.9,24-3.7,33.3
		c-6.6,9.3-17.6,14.9-30.9,16L423.5,762.9z"/>
	<path class="st0" d="M363.8,764.8c7.7-4.6,16.1-7.9,24.9-9.8l-1.8-9.3c-9.8,2.1-19.1,5.8-27.7,10.9c-18.6,11.1-28.5,27.2-28.5,46.5
		c0,46.3,55.9,54.9,56.4,55l1.3-9.3c-8.7-1.5-17.1-4.5-24.8-8.7c-15.6-8.7-23.5-21.1-23.5-37C340.2,787.2,348.1,774.3,363.8,764.8z"
		/>
	<path class="st0" d="M185.5,750.8l-7.3-4.8v111.8h9.4v-50.9h31.3c7.3,16,11,33.3,11,50.9h9.4C239.3,787.1,187.7,752.3,185.5,750.8z
		 M187.6,797.5v-32.9c10.6,9.5,19.5,20.6,26.5,32.9L187.6,797.5z"/>
	<path class="st0" d="M537.9,850h-40.4v-40.5c0-5.2,12.5-19.2,32.9-26.4l-3.2-8.9c-11.1,3.9-21.3,10.1-29.8,18.3V757h40.4v-9.4H488
		v111.8h49.8V850z"/>
	<path class="st0" d="M573.2,790.8v-35.3h40.4V746h-49.8v111.8h9.4v-50l0,0c0-5.2,12.5-19.2,32.9-26.4l-3.2-8.9
		C591.9,776.4,581.7,782.6,573.2,790.8z"/>
	<path class="st0" d="M311.3,806.8c-4.5-6.6-10.1-12.4-16.6-17.1c11.5-6.2,11.8-16.5,4.5-25.6c-8.1-10.2-34.5-18.1-34.5-18.1V858
		C317.1,857.9,326.5,830.1,311.3,806.8z M306.6,834c-4.2,7.8-15.8,12.7-32.4,14.1v-88.7c7.5,3.1,14.9,7.1,17.7,10.5
		c2.1,2.7,3.1,5.3,2.8,7c-0.4,2-2.9,3.6-4.4,4.4l-13.1,7.1l11.9,8.8c5.6,4,10.4,9,14.3,14.6C308.7,820,309.9,828.1,306.6,834
		L306.6,834z"/>
	<path class="st0" d="M485.2,1283.1c-5.4-15-13.1-29.1-22.8-41.8c7.6-8.8,15.3-14.8,21.6-17.2v-9.8c-8.6,2-18.4,9.3-27.6,19.7
		c-9.3-10.4-19.1-17.7-27.6-19.7v9.8c6.3,2.3,14,8.4,21.6,17.2c-9.7,12.7-17.4,26.8-22.8,41.8c-2.9,8.1-5,16.4-6.5,24.8
		c-1,6-1.6,12.1-1.7,18.1l9.4,0.2c0.1-5.6,0.7-11.3,1.6-16.8c1.3-7.9,3.4-15.7,6.1-23.2c4.8-13.4,11.5-26,19.9-37.5
		c8.4,11.4,15.1,24,19.9,37.4c2.7,7.6,4.7,15.3,6.1,23.2c0.9,5.6,1.5,11.2,1.6,16.8l9.4-0.2c-0.1-6.1-0.7-12.1-1.7-18.1
		C490.3,1299.5,488.1,1291.2,485.2,1283.1z"/>
	<polygon class="st0" points="253.6,1282.4 238.6,1214.3 228.9,1214.3 253.6,1326.3 278.2,1214.3 268.5,1214.3 	"/>
	<path class="st0" d="M197.5,1214.3v84.1c0,9.9-8,17.9-17.9,17.9c-9.9,0-17.9-8-17.9-17.9c0,0,0,0,0,0v-84.1h-9.4v84.1
		c0,15.1,12.2,27.3,27.3,27.3s27.3-12.2,27.3-27.3l0,0v-84.1H197.5z"/>
	<path class="st0" d="M391.5,1272.2c0,10.1-2,24.2-11.8,34c-6,6.1-14.2,9.5-24.4,10.3v-44.4h-9.4v0.2c0,10.1-2.1,24-11.8,33.8
		c-6.1,6.1-14.3,9.6-24.5,10.4l0.1-102.2h-9.4l-0.1,111.8h4.7c15,0,27-4.5,35.9-13.3c1.9-1.9,3.6-4,5.2-6.2v19.5h4.7
		c14.9,0,26.9-4.5,35.7-13.3c9.6-9.6,14.6-23.6,14.6-40.7v-57.8h-9.4L391.5,1272.2z"/>
	<path class="st0" d="M539.8,1256.1c-11.3-12.3-20.4-26.4-27-41.8h-10.2c7.8,19.3,19.6,37.5,32.5,50.4v61.5h9.4v-61.6
		c12.9-12.9,24.7-31.2,32.5-50.4h-10.2C560.3,1229.6,551.2,1243.8,539.8,1256.1z"/>
	<path class="st0" d="M639.6,1219v-4.7h-48.4v9.4h38.9c-0.6,13.6-3.2,27-7.7,39.8c-7.5,21.4-20.2,41.9-34.2,54.6l-8.9,8.2h60.1v-9.4
		h-36.8c12.6-14.8,22.4-31.9,28.7-50.3C636.7,1251.3,639.5,1235.2,639.6,1219z"/>
	<path class="st0" d="M186.5,1000.8l7.2,4.4V923h-27.9v9.4h18.5V988c-10.6-7.5-29.8-22.4-34.6-35.7c-4.2-11.9-2.9-24,3.7-33.3
		c7.3-10.3,20.2-16.1,35.6-16.1v-9.4c-18.5,0-34.3,7.4-43.3,20.2c-8.4,11.8-10.1,27.1-4.9,41.9C148.6,977.2,185,999.9,186.5,1000.8z
		"/>
	<path class="st0" d="M263.1,929.6c-5-1.9-10.4-2.9-15.8-2.8c-5.6-0.1-11.1,1-16.3,3.1v-36.1h-9.4v111.8h9.4v-64.9
		c4.9-3,10.5-4.6,16.3-4.4c5.5-0.2,11,1.2,15.8,4v65.3h9.4V893.7h-9.4V929.6z"/>
	<rect x="305.5" y="893.7" class="st0" width="9.4" height="111.8"/>
	<path class="st0" d="M365.3,1005.4V893.7h-9.4v111.7c0,8.9-6.4,15-10.2,17.9l5.7,7.5C360.3,1024,365.3,1015,365.3,1005.4z"/>
	<polygon class="st0" points="490.9,893.1 481.5,893.1 481.5,1005 526,1005 526,995.5 490.9,995.5 	"/>
	<path class="st0" d="M423.6,933.2l19.1-40.2h-10.4l-20.3,42.7l2.9,2.3c0.2,0.2,22,18.1,28.5,40.5c2.5,8.6,3.9,17.5,4,26.5l9.4-0.1
		c-0.2-9.8-1.7-19.6-4.4-29.1C446.4,955.6,430.2,939.2,423.6,933.2z"/>
	<rect x="398.2" y="892.9" class="st0" width="9.4" height="112.1"/>
	<path class="st0" d="M644.5,1005h9.4v-57.8c0-17.1-5-31.2-14.6-40.7c-8.8-8.8-20.8-13.3-35.7-13.3h-4.7v19.5
		c-1.5-2.2-3.2-4.3-5.2-6.2c-8.8-8.8-20.9-13.3-35.9-13.3h-4.7l0.1,111.8h9.4l-0.1-102.2c10.2,0.8,18.4,4.3,24.5,10.4
		c9.7,9.8,11.8,23.7,11.8,33.8v0.2h9.4v-44.3c10.1,0.8,18.3,4.3,24.4,10.3c9.8,9.8,11.8,23.9,11.8,34L644.5,1005z"/>
	<polygon class="st0" points="628.9,1062.4 649.2,1062.4 649.2,1165 658.6,1165 658.6,1062.4 679,1062.4 679,1053 628.9,1053 	"/>
	<path class="st0" d="M500.5,1124.3c2.5-1.9,4.7-4.1,6.5-6.7c5.8-8.3,7.1-19,3.4-29.3c-5.2-14.7-28.4-29.3-30.9-30.9l-7.2-4.5v112
		h9.4v-33.5c3.6-0.4,7.2-1.2,10.6-2.6l17.2,36.1h10.5l-18.2-38.1L500.5,1124.3z M481.6,1122v-51.6c7.6,5.6,17.3,14,19.9,21.2
		c2.7,7.4,1.8,14.9-2.2,20.7C495.5,1117.5,489.2,1121,481.6,1122L481.6,1122z"/>
	<path class="st0" d="M574.8,1109c0,41-13.1,46.5-26,46.5c-4.4,0.2-8.7-1.4-11.9-4.5l-6.8,6.5c5,4.9,11.7,7.6,18.7,7.4
		c31.7,0,35.4-31.9,35.4-56c0-41,13.1-46.5,25.9-46.5v-9.4C578.5,1053,574.8,1085,574.8,1109z"/>
	<path class="st0" d="M431.2,1094.2c-8.2-23.1-25.3-41.1-35.2-41.1c-9.8,0-26.9,18-35.2,41.1c-1.7,4.8-3,9.8-3.9,14.9
		c-0.7,4.2-1.1,8.4-1.1,12.6c0,23.3,11.6,43.4,40.1,43.4c11.5,0,20.3-3.3,26.7-8.8c7.1,4.3,14.5,8,22.2,11.1l3.5-8.7
		c-6.7-2.7-13.2-5.9-19.4-9.6C438.2,1134.9,438,1113.4,431.2,1094.2z M396,1155.6c-9.4,0-16.8-2.6-21.9-7.7
		c-5.7-5.7-8.9-15-8.8-26.2c0-3.7,0.3-7.4,1-11.1c0.8-4.5,1.9-9,3.5-13.3c7.7-21.5,22-34.3,26.3-34.8c4.3,0.6,18.6,13.3,26.3,34.8
		c6.3,17.8,5.8,35.9-1.3,46.7c-6.6-4.4-12.7-9.5-18.2-15.1l-6.7,6.5c5.6,5.7,11.7,10.9,18.2,15.4
		C409.5,1154,403.4,1155.6,396,1155.6z"/>
	<path class="st0" d="M167.9,1165v-111.9h-9.4v19.6c-1.5-2.3-3.2-4.4-5.1-6.3c-8.8-8.8-20.8-13.3-35.8-13.3h-4.7V1165h9.4v-102.2
		c10.2,0.8,18.3,4.3,24.4,10.3c9.8,9.8,11.8,23.9,11.8,34v57.8L167.9,1165z"/>
	<path class="st0" d="M231.1,1053.1c-9.8,0-26.9,18-35.2,41.1c-1.7,4.8-3,9.8-3.9,14.9c-0.7,4.2-1.1,8.4-1.1,12.6
		c0,23.3,11.6,43.4,40.1,43.4c39.5,0,46.7-38.6,35.2-70.9C258,1071,240.9,1053.1,231.1,1053.1z M255.6,1144.7
		c-5.1,7.2-13.4,10.9-24.6,10.9c-9.4,0-16.8-2.6-21.9-7.7c-5.7-5.7-8.9-15-8.9-26.2c0-3.7,0.3-7.4,1-11.1c0.8-4.5,1.9-9,3.5-13.3
		c7.7-21.5,22-34.3,26.3-34.8c4.3,0.6,18.6,13.3,26.3,34.8C263.8,1115.5,263.1,1134.1,255.6,1144.7z"/>
	<path class="st0" d="M295.2,1053.1v112h9.4v-33.6c10.8-1.1,19.8-6,25.3-13.8c5.8-8.3,7.1-19,3.4-29.3
		c-5.2-14.7-28.4-29.3-30.9-30.9L295.2,1053.1z M304.7,1120.4v-49.9c7.6,5.6,17.3,14,19.9,21.1c2.7,7.4,1.8,14.9-2.2,20.7
		c-3.8,5.4-10,8.8-17.6,9.8V1120.4z"/>
	<path class="st0" d="M316.2,1426.9v50.9h9.4V1366l-7.3,4.8c-2.2,1.5-53.8,36.3-53.8,107h9.4c-0.1-17.6,3.7-34.9,11-50.9H316.2z
		 M316.2,1384.6v32.9h-26.5C296.7,1405.1,305.7,1394,316.2,1384.6z"/>
	<polygon class="st0" points="218.8,1401.5 239.7,1477.8 249.5,1477.8 218.8,1365.9 188.1,1477.8 197.8,1477.8 	"/>
	<path class="st0" d="M603.7,1471.7c-6.7-2.7-13.2-5.9-19.4-9.6c9.6-11.1,15-25.3,14.9-40c0-34-26.3-60.7-60-60.7s-60,26.6-60,60.7
		c0,33.5,26.9,60.7,60,60.7c13.9,0,27.4-4.9,38.1-13.9c7.3,4.4,14.9,8.3,22.8,11.5L603.7,1471.7z M539.3,1473.4
		c-27.9,0-50.5-23-50.5-51.3c0-29.2,21.7-51.3,50.5-51.3c28.8,0,50.5,22,50.5,51.3c0,12.9-4.8,25.4-13.6,35
		c-6.5-4.4-12.6-9.4-18.1-15.1l-6.8,6.5c5.4,5.5,11.4,10.5,17.7,14.9C560.5,1469.9,550,1473.4,539.3,1473.4z"/>
	<path class="st0" d="M405,1361.1c-33.6,0-60,26.7-60,60.7c0,33.5,26.9,60.7,60,60.7s59.9-27.2,59.9-60.7
		C464.9,1387.7,438.6,1361.1,405,1361.1z M405,1473c-27.9,0-50.5-23-50.5-51.3c0-29.2,21.7-51.3,50.5-51.3s50.5,22,50.5,51.3
		C455.5,1450,432.8,1473,405,1473z"/>
	<path class="st0" d="M397.8,678.5l3.9,2.4v-44.4h-15.1v5.1h10v30c-5.7-4-16.1-12.1-18.6-19.3c-2.3-6-1.6-12.7,2-18
		c3.9-5.6,10.9-8.7,19.2-8.7v-5.1c-10,0-18.5,4-23.4,10.9c-4.5,6.6-5.5,15.1-2.6,22.6C377.3,665.7,396.9,677.9,397.8,678.5z"/>
	<path class="st0" d="M430.6,639.9c-2.7-1-5.6-1.6-8.5-1.5c-3,0-6,0.5-8.8,1.7v-19.5h-5.1v60.3h5.1v-35c2.6-1.6,5.7-2.5,8.8-2.4
		c3-0.1,5.9,0.7,8.5,2.2v35.2h5.1v-60.3h-5.1V639.9z"/>
	<rect x="362.8" y="620.5" class="st0" width="5.1" height="60.3"/>
	<polygon class="st0" points="442.4,625.6 453.3,625.6 453.3,680.9 458.4,680.9 458.4,625.6 469.3,625.6 469.3,620.5 442.4,620.5 	
		"/>
	<polygon class="st0" points="337.2,620.5 332.1,620.5 332.1,680.8 356.1,680.8 356.1,675.8 337.2,675.8 	"/>
	<path class="st0" d="M478.8,668.1v4h24.8c7.3,0,13.3-2.2,17.5-6.2c3.8-3.8,5.7-8.9,5.7-15.3v-2h-8.4c1-0.7,1.9-1.4,2.7-2.2
		c3.8-3.8,5.7-8.9,5.7-15.4v-2h-47.9v4h43.8c-0.1,3.9-1.7,7.6-4.4,10.5c-4.2,4.2-10.1,5.1-14.5,5.1h-0.1v4h19
		c-0.1,3.9-1.7,7.6-4.4,10.4c-4.2,4.2-10.2,5.1-14.6,5.1L478.8,668.1z"/>
	<path class="st0" d="M313,668.1v4h-24.8c-7.3,0-13.3-2.2-17.4-6.2c-3.8-3.8-5.7-8.9-5.7-15.3v-2h8.4c-1-0.6-1.9-1.4-2.7-2.2
		c-3.8-3.8-5.7-8.9-5.7-15.4v-2H313v4h-43.7c0.1,3.9,1.7,7.6,4.4,10.5c4.2,4.2,10.1,5.1,14.4,5.1h0.1v4h-19
		c0.1,3.9,1.7,7.6,4.4,10.4c4.2,4.2,10.2,5.1,14.6,5.1L313,668.1z"/>
</g>
<g>
	<path class="st0" d="M287.8,76.7c0,21.5-5.1,30.3-17.5,30.3c-2.9,0-5.7-0.9-7.9-2.8l-5.9,5.9c3.8,3.8,9.6,5.2,13.7,5.2
		c23.1,0,25.8-22,25.8-38.6c0-21.5,5.1-30.3,17.5-30.3v-8.3C290.4,38.2,287.8,60.2,287.8,76.7z"/>
	<path class="st0" d="M503.4,114.7h33.9v-8.5H512V80.8c0-2.7,7.9-11.6,20.9-16.3l-2.9-8.1c-6.6,2.3-12.7,5.8-18,10.4V47.5h25.4v-8.5
		h-33.9V114.7z"/>
	<polygon class="st0" points="165.7,47.2 178.5,47.2 178.5,114.7 187,114.7 187,47.2 199.8,47.2 199.8,38.7 165.7,38.7 	"/>
	<path class="st0" d="M356.1,37.5h-4.3v11.2c-0.5-0.6-1.1-1.2-1.7-1.8c-6.2-6.2-14.7-9.4-25.1-9.4h-4.3v77.3h8.5V46.2
		c5.6,0.4,10.8,2.8,14.8,6.6c6.4,6.4,7.7,15.6,7.7,22.3v0.1h8.5V46.2c5.6,0.4,10.8,2.8,14.8,6.6c6.4,6.4,7.7,15.7,7.7,22.4v39.4h8.5
		V75.3c0-11.9-3.5-21.8-10.2-28.5C375,40.6,366.5,37.5,356.1,37.5z"/>
	<rect x="400.7" y="38.7" class="st0" width="8.5" height="76"/>
	<path class="st0" d="M606.2,64.9h11.3V99c-7.8-5.7-18.4-14.7-21.1-22.2c-2.7-7.6-1.9-15.4,2.3-21.4c4.7-6.6,13.1-10.4,23-10.4v-8.6
		c-12.8,0-23.7,5.1-30,14c-5.8,8.3-7.1,18.8-3.4,29.2c5.4,14.9,30.1,30.4,31.2,31.1l6.5,4V56.3h-19.9V64.9z"/>
	<path class="st0" d="M559.9,64.9h11.3V99c-7.8-5.7-18.3-14.7-21-22.3c-2.7-7.6-1.9-15.4,2.3-21.4c4.7-6.6,13.1-10.4,23-10.4v-8.6
		c-12.8,0-23.7,5.1-30,14c-5.8,8.3-7,18.8-3.4,29.2c5.4,14.9,30.1,30.4,31.2,31.1l6.5,4V56.3h-19.9V64.9z"/>
	<path class="st0" d="M451.1,48.7c-0.6-0.7-1.1-1.3-1.7-1.9c-6.2-6.2-14.6-9.4-25.1-9.4H420v77.3h8.5V46.2
		c5.5,0.4,10.8,2.8,14.8,6.6c6.4,6.4,7.7,15.8,7.7,22.4v39.4h8.5V37.5h-8.6V48.7z"/>
	<path class="st0" d="M207.6,38.9v76.4h8.4V82.7h19.1c4.4,10.3,6.7,21.4,6.8,32.6h8.4C250.4,105.1,247.6,62.9,207.6,38.9z M216,74.2
		V55.6c5.9,5.4,11,11.7,14.9,18.6H216z"/>
	<path class="st1" d="M335.1,375c-3.6-0.1-6.9-1.6-9.5-4c-3.8-3.8-4.6-9.3-4.6-13.2c0-1.8,0.2-3.5,0.5-5.3c0.4-2.1,0.9-4.2,1.6-6.2
		c3-8.5,8.5-14.6,12-16.4V375z"/>
	<path class="st2" d="M487.1,403.1c0.6,41.5-32.6,75.6-74.1,76.1s-75.6-32.6-76.1-74.1c0-0.7,0-1.3,0-2V253.5
		c0,0,75.1,49.7,75.1,149.9c0-100.2,75.1-149.9,75.1-149.9v68.9"/>
	<path class="st1" d="M338.7,221.3c6.5,0.3,11.7,2.4,15.5,6.2c5.8,5.8,7,14.1,7,20.1V269l23.5-30c5.6,4.8,8.9,10.4,9.6,16.5
		c1.1,9.2-3.5,17.4-7.6,22.7l-0.1,0.1l2.8,2.2l0,0l0.1-0.1l18.2-23.3c5.6,4.8,8.9,10.4,9.6,16.5c1.1,9.2-3.6,17.5-7.7,22.8
		l-16.5,21.1c-5-9.7-10.8-18.9-17.3-27.6c-16.7-22.2-33.2-34.5-37.1-37.2L338.7,221.3z"/>
	<polygon class="st2" points="335.1,305.4 335.1,325.8 297,325.8 	"/>
	<path class="st0" d="M291.2,159.4V138h3.2c0.7,0,9.6-1.1,9.6,10.9c0,6.1-2.4,10.5-9,10.5L291.2,159.4z M299.7,148.9
		c0-2.7-0.8-7-4.3-7v13.8C298.8,155.8,299.7,151.5,299.7,148.9L299.7,148.9z"/>
	<path class="st0" d="M315.6,153.3h-6.3c0,1,0,3.3,1.5,3.3c1,0,1.3-0.8,1.3-1.7h3.4c-0.1,1.2-0.6,2.4-1.3,3.3
		c-0.8,0.9-2,1.4-3.2,1.3c-4,0-5.5-3.6-5.5-7.1s1.3-7.7,5.4-7.7c2.7,0,5.1,2.4,4.8,6.9L315.6,153.3z M312.3,150.5
		c0-0.9-0.2-2.7-1.5-2.7s-1.5,1.7-1.5,2.6v0.4h2.9V150.5z"/>
	<path class="st0" d="M324.6,148.9c-0.5-0.6-1.2-0.9-1.9-0.9c-0.5-0.1-1,0.3-1.1,0.9c0,0.1,0,0.1,0,0.2c0.1,1.7,4.6,1.3,4.6,5.6
		c0,2.8-1.7,5-4.6,5c-1.6,0-3.1-0.6-4.3-1.6l1.8-2.8c0.5,0.6,1.2,0.9,2,0.9c0.6,0,1.2-0.5,1.2-1.1c0,0,0,0,0-0.1
		c0-1.9-4.6-1.4-4.6-5.9c0-2.7,2.3-4.2,4.8-4.2c1.4,0,2.7,0.4,3.8,1.2L324.6,148.9z"/>
	<path class="st0" d="M327.5,140.8c0-1.4,1.1-2.5,2.5-2.5c0,0,0,0,0.1,0c1.4,0,2.5,1.2,2.5,2.6c0,1.4-1.2,2.5-2.6,2.5
		C328.6,143.4,327.5,142.2,327.5,140.8z M332.1,145.1v14.3h-4v-14.3H332.1z"/>
	<path class="st0" d="M337.4,161.3c0.1,0.9,0.3,2,1.5,2c1.8,0,1.5-2.7,1.5-3.9v-1.8h-0.1c-0.2,0.5-0.6,1-1,1.4
		c-0.4,0.4-1,0.7-1.6,0.6c-1.4-0.1-2.6-1.1-3.1-2.4c-0.7-1.5-1-3.2-0.9-4.8c0-2.5,0.5-7.7,3.9-7.7c1.2,0,2.3,0.8,2.7,2h0.1v-1.7h4
		v15.6c0,4.2-1.9,5.9-5.4,5.9c-3.5,0-5-2-5.2-5.2L337.4,161.3z M340.6,152.2c0-0.8,0-3.8-1.4-3.8s-1.4,3-1.4,3.8
		c0,0.8,0,3.8,1.5,3.8S340.6,153,340.6,152.2z"/>
	<path class="st0" d="M350.4,147.3L350.4,147.3c0.6-1.4,1.9-2.4,3.4-2.5c2.9,0,2.7,3.3,2.7,5.4v9.2h-4v-7.9c0-0.7,0.3-2.7-1-2.7
		c-0.9,0-1.1,0.9-1.1,1.6v8.9h-4v-14.4h4L350.4,147.3z"/>
	<path class="st0" d="M368.4,153.3H362c0,1,0,3.3,1.5,3.3c1,0,1.3-0.8,1.3-1.7h3.4c-0.1,1.2-0.6,2.4-1.3,3.3c-0.8,0.9-2,1.4-3.2,1.3
		c-4,0-5.5-3.6-5.5-7.1s1.3-7.7,5.4-7.7c2.7,0,5.1,2.4,4.9,6.9L368.4,153.3z M365,150.5c0-0.9-0.2-2.7-1.5-2.7s-1.5,1.7-1.5,2.6v0.4
		h2.9L365,150.5z"/>
	<path class="st0" d="M376.5,157.8L376.5,157.8c-0.4,1.1-1.5,1.9-2.7,1.9c-3.2,0-3.9-5.2-3.9-7.5s0.5-7.4,3.8-7.4
		c1.2,0,2.3,0.8,2.7,2l0,0v-10.3h4v22.9h-4L376.5,157.8z M376.8,152.2c0-0.8-0.1-3.8-1.4-3.8s-1.4,3-1.4,3.8c0,0.8,0.1,3.9,1.4,3.9
		C376.7,156.1,376.8,153,376.8,152.2z"/>
	<path class="st0" d="M389.4,136.5h4v10.3h0.1c0.4-1.2,1.4-2,2.7-2c3.4,0,3.8,5,3.8,7.4c0,2.5-0.6,7.5-3.8,7.5
		c-1.2,0-2.3-0.8-2.7-1.9h-0.1v1.6h-4L389.4,136.5z M395.9,152.2c0-0.8-0.1-3.8-1.4-3.8s-1.4,3-1.4,3.8s0.1,3.8,1.3,3.8
		C395.7,156,395.9,153.1,395.9,152.2z"/>
	<path class="st0" d="M405.1,145.1l1.5,5.8l0.5,2.4l0,0l1.9-8.2h4l-6.1,21.4h-3.9l2.3-7.3l-4.2-14H405.1z"/>
	<path class="st0" d="M431.8,138v4h-3.3v17.4h-4.2V142h-3.3v-4L431.8,138z"/>
	<path class="st0" d="M441.7,152.3c0,3.7-1.2,7.4-5.4,7.4s-5.4-3.8-5.4-7.4s1.2-7.5,5.4-7.5S441.7,148.6,441.7,152.3z M434.8,152.3
		c0,0.8,0.1,3.9,1.5,3.9c1.4,0,1.4-3,1.4-3.9s0-3.9-1.4-3.9C434.8,148.4,434.8,151.5,434.8,152.3z"/>
	<path class="st0" d="M447.4,147.4L447.4,147.4c0.6-1.5,2-2.5,3.6-2.6c1.3,0,2.4,1.1,2.5,2.4h0.1c0.6-1.4,1.9-2.3,3.4-2.4
		c2.6,0,2.6,2.9,2.6,4.7v9.9h-4v-7.8c0-0.7,0.2-2.8-1-2.8c-0.9,0-1.1,1-1.1,1.6v9h-4v-8.1c0-0.7,0.2-2.5-0.9-2.5
		c-1.1,0-1.1,0.9-1.1,1.6v8.9h-4v-14.3h4L447.4,147.4z"/>
	<path class="st0" d="M473.2,138v17.4h4.4v4h-8.6V138H473.2z"/>
	<path class="st0" d="M478.5,140.8c0-1.4,1.1-2.5,2.5-2.5c0,0,0,0,0.1,0c1.4,0,2.5,1.2,2.5,2.6c0,1.4-1.2,2.5-2.6,2.5
		C479.6,143.4,478.5,142.2,478.5,140.8z M483,145.1v14.3h-4v-14.3H483z"/>
	<path class="st0" d="M489,147.4L489,147.4c0.6-1.5,1.9-2.5,3.5-2.6c1.3,0,2.4,1.1,2.5,2.4l0,0c0.6-1.4,1.9-2.3,3.4-2.4
		c2.6,0,2.6,2.9,2.6,4.7v9.9h-4v-7.8c0-0.7,0.2-2.8-1-2.8c-0.9,0-1.1,1-1.1,1.6v9h-4v-8.1c0-0.7,0.2-2.5-0.9-2.5
		c-1.1,0-1.1,0.9-1.1,1.6v8.9h-4v-14.3h4L489,147.4z"/>
	<path class="st3" d="M356.6,303.8c0-2.6-2.1-4.8-4.8-4.8c-2.6,0-4.8,2.1-4.8,4.8c0,0,0,0,0,0c0,2.6,2.1,4.8,4.8,4.8
		C354.5,308.6,356.6,306.5,356.6,303.8C356.6,303.8,356.6,303.8,356.6,303.8z"/>
	<path class="st3" d="M431.9,459.2H405v-3.5h26.8c4.8,0,11.4-1,16-5.6c3.1-3.2,4.9-7.5,4.9-12h-21v-3.5h0.1c4.7,0,11.3-1,15.9-5.6
		c3.1-3.2,4.9-7.5,4.9-12H405v-3.5h51.3v1.7c0,6.7-2,12.2-6,16.2c-1.2,1.2-2.6,2.3-4,3.1h10.1v1.7c0,6.7-2,12.2-6,16.2
		C446,457,439.6,459.2,431.9,459.2z"/>
	<path class="st3" d="M500.5,484.3l2.3-2.6c-2.5-2.3-6.9-3.8-12.3-4.4c1.3-5.2,1.5-9.9,0.2-13l-3.2,1.3c1,2.5,0.8,6.6-0.5,11.5
		c-3.1-0.2-6.2-0.1-9.3,0.3c-0.6-0.8-1.2-1.6-1.8-2.3c-1.6-1.9-3.3-3.7-5.1-5.4c-0.3-4-1.2-7.9-2.5-11.6c-0.2-0.6-0.4-1.2-0.7-1.8
		c13.6-14.3,21.1-33.3,21.1-53V250.3l-2.7,1.8c-0.8,0.5-19.2,12.9-38,37.8c-10.9,14.4-19.7,30.3-26.1,47.3
		c-4.9,13-8.3,26.5-10.1,40.3c-1.8-13.8-5.2-27.3-10.1-40.3c-2.1-5.5-4.4-10.9-7-16.1l17.5-22.5c6.6-8.4,9.4-17.2,8.5-25.4
		c-0.9-7.6-5.1-14.3-12.4-20l-1.3-1.1l-9.8,12.5c0.7-3.1,0.9-6.3,0.5-9.4c-0.9-7.6-5.1-14.3-12.4-20l-1.4-1.1l-19.3,24.7v-11.1
		c0-9.5-2.8-17.3-8.1-22.6c-4.8-4.9-11.5-7.3-19.8-7.3h-1.8v69.1l0,0v14.7l-52.5,28h47.1c-4.5,4.4-8,9.7-10.1,15.7
		c-0.8,2.2-1.4,4.5-1.8,6.9c-0.3,1.9-0.5,3.9-0.5,5.8c0,6.6,1.9,12.1,5.6,15.8c3.3,3.1,7.6,5,12.1,5.1v24.5
		c0,23.1,10.4,45,28.2,59.6c-0.2,1-0.5,2-0.6,3.1c-0.4,2.2-0.6,4.5-0.6,6.7c0,1,0,1.9,0.1,2.8c-0.8,1.3-1.5,2.7-2.2,4.1
		c-0.5,1.1-1,2.1-1.3,3.2c-3.4,1.3-6.7,2.8-9.9,4.7c-3.4-3.7-5.5-7.3-5.8-9.9l-3.5,0.4c0.4,3.2,2.5,6.9,5.7,10.7c0,0.4,0,0.8,0,1.2
		c-4,2.9-7,6.2-8.1,9.2l3.3,1.2c1.2-2.6,3-4.8,5.3-6.4c0.5,2.1,1.1,4.2,2,6.2c-5.2,1.4-9.3,3.6-11.5,6.2l2.7,2.2
		c1.7-2,5.4-3.9,10.2-5.2c0.7,1.5,1.6,3,2.5,4.5c-2.7,0.6-5.5,0.5-8.2-0.2l-1.3,3.2c2.8,1.1,6.9,1.1,11.5,0.1c0.7,0.9,1.3,1.8,2,2.7
		c0.5,3.3,1.9,6.5,3.9,9.2l2.5-2.3c1.6,1.4,3.3,2.8,5,4c1.9,1.3,3.9,2.6,5.9,3.6l1.6-3.1c-1.9-1-3.8-2.1-5.5-3.4
		c-2.5-1.8-4.8-3.8-7-6c-1.2-1.2-2.3-2.4-3.3-3.7c-0.1-0.8-0.3-1.6-0.4-2.5c3.6-1.2,7.2-2.7,10.5-4.6l1.7,0.6
		c-0.9,0.6-1.9,1.3-2.8,2l2.1,2.7c1.7-1.3,3.4-2.5,5.2-3.5c1.3,0.3,2.6,0.5,4,0.7l0.4-2.9l0.3-0.1c1.3,0.5,2.7,1,4,1.6l0.7-1.5
		c1.3,1.1,2.6,2.1,4,3c-3.4,4-5.7,8.2-6,11.6l3.5,0.3c0.2-2.7,2.2-6.3,5.5-10.1c1.2,0.7,2.5,1.3,3.8,1.9c-0.6,1.2-1.3,2.4-2,3.5
		c-1.6,2.6-3.4,5.1-5.4,7.4c-1.4,1.6-3,3.1-4.6,4.5l2.3,2.7c1.8-1.5,3.4-3.1,5-4.9c2.2-2.5,4.1-5.1,5.8-7.9c0.8-1.3,1.5-2.6,2.2-4
		c2.8,1.1,5.7,2,8.7,2.7c-1.4,1.5-2.4,3.3-3.1,5.2l3.3,1c0.8-2.1,2.1-4,3.8-5.5c2.4,0.4,4.8,0.6,7.2,0.6h1.3
		c3.3,2.4,6.9,4.4,10.6,6.1c1.3,0.6,2.7,1.1,4,1.6c2.2,2.3,4.7,4.3,7.3,6.2c1.9,1.4,3.9,2.6,5.9,3.6l1.6-3.1c-1.9-1-3.8-2.1-5.5-3.4
		c-0.6-0.4-1.2-0.9-1.8-1.3c1.5,0.3,3,0.5,4.6,0.7l0.3-3.4c-2.2-0.2-4.3-0.6-6.4-1.1c-1.3-0.3-2.8-0.8-4.2-1.2
		c-3.2-3.3-5.9-7-8.2-10.9c1.6-0.7,3.1-1.6,4.6-2.6c2.4,4.8,5.2,8.5,8.2,10.1l1.7-3c-2-1.1-4.2-3.7-6.1-7.3c5.4-0.1,10.8,0.6,16,2.2
		c2.1,0.6,4.1,1.4,6.1,2.3l0.7-1.6c0.4,0.7,0.7,1.3,1.1,2c1.7,2.8,3.6,5.4,5.8,7.9c1.5,1.7,3.2,3.4,5,4.9l2.3-2.7
		c-1.6-1.4-3.2-2.9-4.6-4.5c-2-2.3-3.8-4.8-5.4-7.4c-2.8-4.7-5-9.8-6.3-15.1c5.5,0.3,10.9,1.3,16,3.2c0.6,0.2,1.3,0.5,1.9,0.7
		c-0.8,0.9-1.6,1.7-2.5,2.6c-1.6,1.5-3.2,2.9-5,4.2l2,2.8c1.9-1.4,3.7-2.9,5.4-4.5c1.2-1.1,2.3-2.3,3.4-3.6c1.1,0.5,2.1,1.1,3.2,1.6
		s2,1.2,3,1.9c-0.1,0.6-0.2,1.1-0.3,1.7l3.3,1.1c0.2-0.7,0.4-1.5,0.5-2.3l1.1-1.4l-1-0.8c-0.1-2.9-0.6-5.8-1.5-8.5
		c5.3-1,9.6-2.7,12-5.2l-2.5-2.4c-1.9,1.9-5.7,3.5-10.7,4.3l0,0c1.8-3.2,3.2-6.6,4.3-10.1C494.6,481.2,498.5,482.6,500.5,484.3z
		 M335.1,375c-3.6-0.1-6.9-1.6-9.5-4c-3.8-3.8-4.6-9.3-4.6-13.2c0-1.8,0.2-3.5,0.5-5.3c0.4-2.1,0.9-4.2,1.6-6.2
		c3-8.5,8.5-14.6,12-16.4V375z M335.1,325.8H297l38.2-20.4L335.1,325.8z M471,474.5c0.8,0.9,1.6,1.7,2.3,2.7l0.5,0.7
		c-1.1,0.2-2.2,0.4-3.3,0.7C470.8,477.2,470.9,475.9,471,474.5L471,474.5z M338.7,221.3c6.5,0.3,11.7,2.4,15.5,6.2
		c5.8,5.8,7,14.1,7,20.1V269l23.5-30c5.6,4.8,8.9,10.4,9.6,16.5c1.1,9.2-3.5,17.4-7.6,22.7l-0.1,0.1l2.8,2.2l0,0l0.1-0.1l18.2-23.3
		c5.6,4.8,8.9,10.4,9.6,16.5c1.1,9.2-3.6,17.5-7.7,22.8l-16.5,21.1c-5-9.7-10.8-18.9-17.3-27.6c-16.7-22.2-33.2-34.5-37.1-37.2
		L338.7,221.3z M338.6,286.7L338.6,286.7v-29.9c13,10.1,24.6,21.9,34.5,35.1c10.4,13.7,18.8,28.9,25,44.9v46.8
		c-4.4-0.1-8.7-1.8-11.9-4.9c-4.6-4.6-5.6-11.2-5.6-15.9l0,0v-15.4h-3.6v36.1c-4.4-0.1-8.7-1.8-11.9-4.9c-4.6-4.6-5.5-11.1-5.6-15.8
		v-0.1h-3.5v20.8c-4.4-0.1-8.7-1.8-11.9-4.9c-4-4-5.3-9.6-5.5-14.1v-38.7l0,0L338.6,286.7z M338.6,403.1v-24.5l0,0v-1.5
		c0.8,1.4,1.9,2.8,3.1,4c3.9,4,9.4,6,16.1,6h1.7v-10c0.8,1.5,1.9,2.8,3.1,4c4,4,9.4,6,16.1,6h1.7v-1.8v-8.3c0.9,1.5,1.9,2.9,3.2,4.2
		c4,4,9.4,6,16.1,6h1.7v-40.5c5.8,18.3,8.8,37.4,8.8,56.6h3.5c0-57.3,26.4-111.3,71.6-146.5V305c-5,3.5-49.9,36.3-67.9,97.6l3.4,1
		c16.1-55.2,54.5-86.7,64.5-94.2v26.3c-4,2.9-34.9,25.3-55.7,66.6l3.2,1.6c12.5-24.9,30.5-46.7,52.5-63.8v21.5
		c-3.2,2.2-21.7,15.5-39.7,40.4l2.9,2.1c10.3-14.4,22.8-27.3,36.8-38.1v37.1c0,18.3-6.8,36-19.1,49.5l0,0c-0.4,0.5-0.8,0.9-1.3,1.3
		l0,0l-1.3,1.3c-7.6,7.6-16.7,13.4-26.8,17l0,0l-1.7,0.6l0,0c-0.6,0.2-1.2,0.4-1.7,0.6c-12.2,3.7-25.2,4.2-37.6,1.3
		c-1.2-0.3-2.4-0.6-3.5-0.9c-9.1-2.6-17.5-6.8-25-12.6l0,0c-0.5-0.4-1-0.8-1.5-1.2l0,0c-0.5-0.4-1-0.8-1.4-1.2
		C348,445.1,338.6,424.7,338.6,403.1z M392.6,477.7c0.5,4.1,2.1,7.9,4.5,11.2c-3.1,2.8-7.4,4.2-12.7,4.2h-0.7
		c-1.4,0-2.9-0.2-4.3-0.5l0,0c-3.2-0.6-6.1-2.1-8.4-4.4c-1.3-1.3-2.4-2.8-3.2-4.5c-0.4-0.8-0.7-1.6-1-2.4v-0.1
		c-0.1-0.3-0.2-0.5-0.2-0.8c-0.4-1.4-0.7-2.8-0.8-4.2l0,0l-0.1-1.3l0,0c0-0.8-0.1-1.6-0.1-2.3c0-2.1,0.2-4.1,0.5-6.2
		c0.1-0.4,0.1-0.8,0.2-1.3C374.3,471,383.2,475.2,392.6,477.7L392.6,477.7z M363.3,481c0,0.1,0,0.2,0,0.3H363
		C363.1,481.2,363.2,481.1,363.3,481z M352.6,502.4c0.7-0.1,1.5-0.3,2.2-0.4c0,1.5,0,2.9,0,4.3C354,505,353.2,503.7,352.6,502.4
		L352.6,502.4z M355.1,498.5c-1.3,0.2-2.7,0.4-4,0.7c-0.9-2.2-1.6-4.4-2.1-6.7c1.9,1.8,4,3.5,6.2,5
		C355.1,497.8,355.1,498.2,355.1,498.5L355.1,498.5z M356.8,488.7c-0.4,1.6-0.8,3.3-1.1,4.9c-1.5-1.1-3-2.4-4.3-3.7
		c1.9-1.1,3.9-2.1,5.9-2.9C357.1,487.6,356.9,488.2,356.8,488.7L356.8,488.7z M358.2,505.9c0-1.3,0-2.8,0-4.3c1-0.1,2.1-0.1,3.2-0.2
		c0.6,0.3,1.2,0.6,1.8,0.9c0.6,0.3,1,0.5,1.6,0.7C362.7,504.2,360.5,505.1,358.2,505.9z M374.8,502.9c-0.5-0.1-0.9-0.2-1.3-0.4
		l-0.5-0.1h0.1l2,0.4L374.8,502.9z M372.8,498.3l-0.6,0.4c-1-0.2-1.9-0.3-2.9-0.4c-2.3-0.3-4.6-0.4-6.9-0.3
		c-1.2-0.7-2.4-1.3-3.6-2.2c0.3-2.1,0.7-4.2,1.3-6.2c0.4-1.4,0.8-2.8,1.3-4.2c1-0.3,2-0.7,3.1-0.9c1,2.3,2.4,4.4,4.1,6.2
		c2.2,2.2,4.9,3.8,7.8,4.7C375.3,496.4,374,497.4,372.8,498.3L372.8,498.3z M384.2,498.9c-0.6-0.7-1-1.4-1.3-2.2l-3.2,1.3
		c0.3,0.8,0.7,1.5,1.2,2.2l-1,0.4l-0.9-0.3c-0.7-0.2-1.5-0.4-2.2-0.6c1.3-1.1,2.7-2.2,3.9-3.4c1.3,0.2,2.6,0.2,3.8,0.2
		c5.5,0.2,10.8-1.6,15-5.1c0.5,0.4,1,0.9,1.5,1.2c-0.1,1.1-0.2,2.3-0.4,3.5C395,496.3,389.5,497.3,384.2,498.9L384.2,498.9z
		 M391,504.8c-1.5-0.9-2.8-1.9-4.1-3.1c3.2-0.9,6.4-1.5,9.6-1.9C394.6,501.4,392.7,503,391,504.8L391,504.8z M396.9,508
		c-1-0.5-2-0.9-2.9-1.4c1.6-1.6,3.3-3.1,5-4.4C398.5,504.2,397.7,506.1,396.9,508L396.9,508z M410.3,512.2l-0.8-0.1
		c-3.2-0.6-6.4-1.5-9.4-2.7c1.4-3.2,2.5-6.4,3.3-9.8c0.9,0,1.7,0.1,2.5,0.2c0.7,3.2,3.1,7,6.7,10.6C411.8,511,411,511.6,410.3,512.2
		L410.3,512.2z M404.3,494.6L404.3,494.6L404.3,494.6z M415.1,512.9L415.1,512.9l0.1,0.1L415.1,512.9z M409.7,500.3
		c1.7,0.3,3.4,1,4.8,2l2.1-2.7c-2.6-1.7-5.6-2.8-8.6-3.1l1-0.5c3.6,0.7,7.2,0.7,10.8,0c0.2,3,0.8,5.9,1.9,8.7
		c-2.2,1.1-4.3,2.3-6.3,3.6C413,506.1,411.1,503.4,409.7,500.3L409.7,500.3z M429.4,518.3c-1.3-0.7-2.6-1.3-3.8-2.1l-0.4-3.4
		c-1.5,0.2-2.9,0.3-4.2,0.3c-0.9-0.7-1.7-1.3-2.5-2c0.7-0.3,1.5-0.6,2.3-0.9l-0.1,2.1c1.5,0,3-0.2,4.4-0.7
		C426.3,513.9,427.7,516.2,429.4,518.3L429.4,518.3z M424.9,503.3c-1.1-2.6-1.6-5.4-1.6-8.2c1.7-0.6,3.2-1.4,4.7-2.4
		c0.5,3,1.3,5.9,2.2,8.7C428.4,502,426.6,502.6,424.9,503.3L424.9,503.3z M430.8,484.5l-0.3,0.5c-0.1,0.2-0.2,0.3-0.3,0.4
		s-0.3,0.5-0.5,0.8l0,0l0,0l-0.6,0.7c-0.1,0.1-0.1,0.2-0.2,0.3l-0.3,0.4l-0.4,0.4c-0.1,0.1-0.1,0.1-0.2,0.2l-0.5,0.5
		c-3,2.6-6.7,4.1-10.6,4.3c1.7-0.5,3.4-0.9,5.2-1.2l-0.6-3.4c-2.3,0.4-4.5,0.9-6.7,1.7c-2.1,0.7-4.1,1.5-6,2.4
		c-1.4-0.4-2.8-0.9-4-1.6c0.1-2.6-0.3-5.2-1.3-7.6l-3.1,1.5c0.5,1.1,0.8,2.2,0.9,3.4l-0.5-0.5l-0.2-0.2c-0.2-0.2-0.3-0.4-0.5-0.6
		l-0.2-0.3c-1.7-2.4-2.9-5.1-3.4-8c12.2,2.5,24.8,2.1,36.8-1.3c-0.2,1.8-0.7,3.5-1.3,5.2c-0.3,0.6-0.5,1.3-0.9,1.9L430.8,484.5z
		 M433.5,500.5c-1.2-3.4-2-6.9-2.4-10.5c0.2-0.2,0.4-0.5,0.6-0.7c0.4,0.5,0.8,1,1.3,1.4c2.1,2.1,4.7,3.7,7.6,4.6l-0.3,0.2l0.7,0.9
		c-1,1.1-2.1,2.2-3.2,3.3C436.3,499.8,434.9,500.1,433.5,500.5z M458,508c-1.5-0.6-3-1.2-4.5-1.6c-3.1-0.9-6.4-1.6-9.6-1.9
		c-2-0.2-4-0.3-6.1-0.3l1.3-1.2c1-0.1,1.9-0.3,2.9-0.3c2.2-0.2,4.3-0.2,6.5-0.1l0.2-3.5c-1.8-0.1-3.7-0.1-5.5,0
		c0.7-0.7,1.3-1.4,1.9-2.2c0.4-0.1,0.8-0.3,1.2-0.4c0.8,0.1,1.6,0.1,2.5,0.1c1.6,0,3.3-0.1,4.9-0.4C454.7,500.2,456.2,504.2,458,508
		L458,508z M461.1,489.3c-0.3,0.2-0.6,0.5-0.9,0.7l-0.1,0.1c-0.3,0.2-0.6,0.4-0.8,0.5h-0.1c-0.3,0.2-0.6,0.3-0.9,0.5h-0.1
		c-0.3,0.2-0.7,0.3-1,0.5c-2.6,1-5.4,1.5-8.3,1.5h-0.7l0.3-0.4c1.9-2.7,3.5-5.5,4.9-8.5c1-2.1,1.8-4.3,2.5-6.5l-3.3-1
		c-0.6,2.1-1.4,4.1-2.3,6.1c-1.3,2.8-2.8,5.4-4.6,8c-0.5,0.7-1,1.3-1.5,2c-3.3-0.6-6.3-2.1-8.7-4.4c-0.6-0.6-1.2-1.3-1.7-2
		c1.6-3.1,2.6-6.6,3-10.1c10.6-3.6,20.3-9.5,28.4-17.3c0,0.1,0.1,0.2,0.1,0.3c0.8,2.3,1.5,4.7,1.9,7.2c0.2,1.3,0.4,2.5,0.5,3.7l0,0
		c0,0.4,0,0.8,0.1,1.2c0.1,2.8-0.1,5.6-0.8,8.4c-0.2,0.7-0.4,1.4-0.6,2.1l0,0c-0.1,0.3-0.2,0.6-0.3,0.9c0,0,0,0,0,0.1
		c-0.1,0.3-0.3,0.6-0.4,0.9c-0.4,0.9-0.9,1.7-1.5,2.5C463.2,487.3,462.2,488.3,461.1,489.3L461.1,489.3z M465.1,490.3
		c0.6-0.7,1.2-1.3,1.7-2.1c1.2-1.8,2.2-3.8,2.9-5.9h0.2c2.1-0.6,4.2-1,6.4-1.3c2,3,3.8,6.2,5.2,9.5c-0.2,0.3-0.3,0.6-0.5,0.8
		c-5.2,0.4-10.4,0.1-15.5-1L465.1,490.3z M478.6,495c-0.4,0.5-0.8,1.1-1.2,1.6c-1-0.4-2-0.8-3.1-1.2c-0.6-0.2-1.2-0.4-1.8-0.6
		C474.5,494.9,476.6,494.9,478.6,495L478.6,495z M483.2,499.4c-0.9-0.5-1.7-1-2.7-1.3l0.8-1c0.6-0.8,1.1-1.6,1.6-2.4
		c0.6,1.8,1.1,3.6,1.3,5.5L483.2,499.4z M483.5,486.7c-1-2.1-2.2-4.1-3.4-6.1c2-0.1,4-0.2,6-0.1
		C485.4,482.6,484.5,484.6,483.5,486.7L483.5,486.7z"/>
	<path class="st4" d="M392.6,477.7c0.5,4.1,2.1,7.9,4.5,11.2c-3.1,2.8-7.4,4.2-12.7,4.2h-0.7c-1.4,0-2.9-0.2-4.3-0.5l0,0
		c-3.2-0.6-6.1-2.1-8.4-4.4c-1.3-1.3-2.4-2.8-3.2-4.5c-0.4-0.8-0.7-1.6-1-2.4v-0.1c-0.1-0.3-0.2-0.5-0.2-0.8
		c-0.4-1.4-0.7-2.8-0.8-4.2l0,0l-0.1-1.3l0,0c0-0.8-0.1-1.6-0.1-2.3c0-2.1,0.2-4.1,0.5-6.2c0.1-0.4,0.1-0.8,0.2-1.3
		C374.3,471,383.2,475.2,392.6,477.7z"/>
	<path class="st5" d="M461.1,489.2c-0.3,0.2-0.6,0.5-0.9,0.7l-0.1,0.1c-0.3,0.2-0.6,0.4-0.8,0.5h-0.1c-0.3,0.2-0.6,0.3-0.9,0.5h-0.1
		c-0.3,0.2-0.7,0.3-1,0.5c-2.6,1-5.4,1.5-8.3,1.5h-0.7l0.3-0.4c1.9-2.7,3.5-5.5,4.9-8.5c1-2.1,1.8-4.3,2.5-6.5l-3.3-1
		c-0.6,2.1-1.4,4.1-2.3,6.1c-1.3,2.8-2.8,5.4-4.6,8c-0.5,0.7-1,1.3-1.5,2c-3.3-0.6-6.3-2.1-8.7-4.4c-0.6-0.6-1.2-1.3-1.7-2
		c1.6-3.1,2.6-6.6,3-10.1c10.6-3.6,20.3-9.5,28.4-17.3c0,0.1,0.1,0.2,0.1,0.3c0.8,2.3,1.5,4.7,1.9,7.2c0.2,1.3,0.4,2.5,0.5,3.7l0,0
		c0,0.4,0,0.8,0.1,1.2c0.1,2.8-0.1,5.6-0.8,8.4c-0.2,0.7-0.4,1.4-0.6,2.1l0,0c-0.1,0.3-0.2,0.6-0.3,0.9c0,0,0,0,0,0.1
		c-0.1,0.3-0.3,0.6-0.4,0.9c-0.4,0.9-0.9,1.7-1.5,2.5C463.2,487.3,462.2,488.3,461.1,489.2z"/>
	<path class="st6" d="M430.7,484.5l-0.3,0.5c-0.1,0.2-0.2,0.3-0.3,0.4s-0.3,0.5-0.5,0.8l0,0l0,0l-0.6,0.7c-0.1,0.1-0.1,0.2-0.2,0.3
		l-0.3,0.4l-0.4,0.4c-0.1,0.1-0.1,0.1-0.2,0.2l-0.5,0.5c-3,2.6-6.7,4.1-10.6,4.3c1.7-0.5,3.4-0.9,5.2-1.2l-0.6-3.4
		c-2.3,0.4-4.5,0.9-6.7,1.7c-2.1,0.7-4.1,1.5-6,2.4c-1.4-0.4-2.8-0.9-4-1.6c0.1-2.6-0.3-5.2-1.3-7.6l-3.1,1.5
		c0.5,1.1,0.8,2.2,0.9,3.4l-0.5-0.5l-0.2-0.2c-0.2-0.2-0.3-0.4-0.5-0.6l-0.2-0.3c-1.7-2.4-2.9-5.1-3.4-8c12.2,2.5,24.8,2.1,36.8-1.3
		c-0.2,1.8-0.7,3.5-1.3,5.2c-0.3,0.6-0.5,1.3-0.9,1.9L430.7,484.5z"/>
</g>
<rect class="st7" width="1528.8" height="1586.4"/>
</svg>
