<?xml version="1.0" encoding="utf-8"?>
<!-- Generator: Adobe Illustrator 23.0.3, SVG Export Plug-In . SVG Version: 6.00 Build 0)  -->
<svg version="1.1" id="Layer_1" xmlns="http://www.w3.org/2000/svg" xmlns:xlink="http://www.w3.org/1999/xlink" x="0px" y="0px"
	 viewBox="0 0 479.6 294.8" style="enable-background:new 0 0 479.6 294.8;" xml:space="preserve">
<style type="text/css">
	.st0{fill:none;}
	.st1{fill:#404041;}
	.st2{fill:#414042;}
	.st3{fill:#58595B;}
</style>
<title>Asset 10</title>
<g id="Layer_1-2">
	<rect class="st0" width="479.6" height="294.8"/>
	<g>
		<polygon class="st1" points="364.3,236.3 141.2,236.3 141.2,16.2 142.2,16.2 142.2,235.4 364.3,235.4 		"/>
		<polygon class="st1" points="137.7,19.5 138.4,20.1 141.7,16.6 144.9,20.1 145.6,19.5 141.7,15.2 		"/>
		<polygon class="st1" points="361.1,239.8 360.4,239.1 363.9,235.9 360.4,232.6 361.1,231.9 365.3,235.9 		"/>
		<path class="st1" d="M122.1,183.2c-0.6,0.8-1,1.7-1,2.7c0,2.3,1.8,4.2,4.1,4.3c2.3,0,4.2-1.8,4.3-4.1c0-1.1-0.4-2.1-1.1-2.9h1.5
			c0.5,0.8,0.7,1.8,0.7,2.7c0,2.9-2.3,5.3-5.3,5.3c0,0,0,0,0,0c-3,0-5.4-2.4-5.4-5.4c0,0,0,0,0-0.1c0-0.9,0.2-1.8,0.7-2.6H122.1z"/>
		<path class="st1" d="M124.3,175.7h-4.1v-1.3h10.3v1.3h-5v4.9h4.9v1.3h-10.2v-1.3h4.1V175.7z"/>
		<path class="st1" d="M130.4,171.3v1.3h-10.3v-1.3H130.4z"/>
		<path class="st1" d="M122.1,161.9c-0.6,0.8-1,1.7-1,2.7c0,2.3,1.8,4.2,4.1,4.3c2.3,0,4.2-1.8,4.3-4.1c0-1.1-0.4-2.1-1.1-2.9h1.5
			c0.5,0.8,0.7,1.8,0.7,2.7c0,2.9-2.3,5.3-5.3,5.3c0,0,0,0,0,0c-3,0-5.4-2.4-5.4-5.4c0,0,0,0,0-0.1c0-0.9,0.2-1.8,0.7-2.6H122.1z"/>
		<path class="st1" d="M120.2,154.8v-1.7l4.6,4.6l5.6-4.7v1.8l-4.8,3.9l0.5,0.5h4.3v1.3h-10.3v-1.3h4.5L120.2,154.8z"/>
		<path class="st1" d="M120.2,152.3v-5.5h1.2v4.2h2.9v-4.1h1.2v4.1h3.9v-4.2h1.2v5.5H120.2z"/>
		<path class="st1" d="M119.6,145.3l8.1-7.7h-7.6v-1.3h10.7l-8.1,7.7h7.6v1.3H119.6z"/>
		<path class="st1" d="M120.4,132.5l3.6,1.9l-0.3,0.8l-3.7-1.5L120.4,132.5z"/>
		<path class="st1" d="M122.1,126.2c-0.6,0.3-1,1-1,1.7c-0.1,0.9,0.6,1.6,1.5,1.7c0.8,0,1.2-0.8,1.5-1.4l0.3-0.7
			c0.6-1.5,1.4-2.5,3.1-2.5c1.7,0,3.2,1.4,3.2,3.1c0,0.1,0,0.1,0,0.2c0,1.7-1.3,3-2.9,3.2l-0.3-1.3c1.1,0,1.9-0.9,1.9-1.9
			s-0.9-1.9-1.9-1.9c-1.1,0-1.6,0.9-1.9,1.8l-0.3,0.7c-0.5,1.2-1.2,2.2-2.6,2.2c-1.5-0.1-2.7-1.4-2.7-2.9c0,0,0-0.1,0-0.1
			c0-1.1,0.6-2.1,1.6-2.6L122.1,126.2z"/>
		<path class="st1" d="M130.4,113.2v1.6l-4.3,3v0.5h4.3v1.3h-10.3V118c-0.1-0.9,0.1-1.9,0.5-2.7c0.5-0.8,1.5-1.4,2.4-1.3
			c1.5-0.1,2.7,1,2.9,2.5L130.4,113.2z M125,118.3v-0.4c0-1.3-0.3-2.7-1.9-2.7c-1.6,0-1.8,1.5-1.8,2.8v0.3L125,118.3z"/>
		<path class="st1" d="M130.4,110.9v1.3h-10.3v-1.3H130.4z"/>
		<path class="st1" d="M125.2,99.7h0.4c2.6-0.1,4.9,1.9,5,4.5c0,0.1,0,0.2,0,0.3c-0.1,3-2.6,5.3-5.5,5.2c-3-0.1-5.3-2.6-5.2-5.5
			c0-1.5,0.8-3,2-4l0.9,0.9c-1.8,1.3-2.2,3.8-0.9,5.6c0.8,1.1,2.1,1.7,3.4,1.7c2.2,0,4.1-1.7,4.2-4c0-1.7-1.3-3.2-3-3.4v2.6h-1.2
			L125.2,99.7z"/>
		<path class="st1" d="M124.3,92.3h-4.1v-1.3h10.3v1.3h-5v4.9h4.9v1.3h-10.2v-1.3h4.1V92.3z"/>
		<path class="st1" d="M130.4,86.5v1.3h-9.1v2.4h-1.2V84h1.2v2.4H130.4z"/>
		<path class="st1" d="M122.1,78.5c-0.6,0.3-1,0.9-1,1.6c-0.1,0.9,0.6,1.6,1.5,1.7c0.8,0,1.2-0.8,1.5-1.4l0.3-0.7
			c0.6-1.5,1.4-2.5,3.1-2.5c1.8,0,3.2,1.5,3.2,3.3c0,1.6-1.2,3-2.9,3.2l-0.3-1.3c1.1,0,1.9-0.9,1.9-1.9s-0.9-1.9-1.9-1.9
			c-1.1,0-1.6,0.9-1.9,1.8l-0.3,0.7c-0.5,1.2-1.2,2.2-2.6,2.2c-1.5-0.1-2.7-1.4-2.7-2.9c0,0,0-0.1,0-0.1c0-1.1,0.6-2.1,1.6-2.6
			L122.1,78.5z"/>
		<path class="st1" d="M271.5,252.2c-1.7-1.5-4.3-1.4-5.8,0.3c-0.7,0.8-1.1,1.8-1,2.9c-0.1,2.2,1.7,4.1,3.9,4.2
			c1.1,0,2.1-0.4,2.9-1.1v1.5c-0.8,0.5-1.7,0.7-2.7,0.7c-2.9,0-5.3-2.4-5.3-5.3c0,0,0,0,0,0c0-3,2.4-5.4,5.4-5.4c0,0,0.1,0,0.1,0
			c0.9,0,1.8,0.2,2.6,0.7V252.2z"/>
		<path class="st1" d="M283.1,255.4c-0.1,3-2.6,5.3-5.6,5.1c-2.8-0.1-5-2.4-5.1-5.1c0.1-3,2.6-5.3,5.6-5.1
			C280.7,250.4,283,252.6,283.1,255.4z M281.8,255.4c0.1-2.3-1.6-4.2-3.9-4.3c-2.3-0.1-4.2,1.6-4.3,3.9c0,0.1,0,0.3,0,0.4
			c-0.1,2.3,1.6,4.2,3.9,4.3c2.3,0.1,4.2-1.6,4.3-3.9C281.8,255.7,281.8,255.5,281.8,255.4z"/>
		<path class="st1" d="M286,253.8L286,253.8l-1.2,6.8h-1.3l2.1-10.7l3.5,8.1l3.5-8.1l2.1,10.7h-1.4l-1.2-6.8l0,0l-3.1,7L286,253.8z"
			/>
		<path class="st1" d="M297.1,260.5h-1.3v-10.3h1.5c3.2,0,4.1,1.1,4.1,3c0,2.2-1.6,3-3.6,3h-0.7L297.1,260.5z M297.1,255.1h0.4
			c1.3,0,2.7-0.2,2.7-1.9s-1.5-1.8-2.8-1.8h-0.3V255.1z"/>
		<path class="st1" d="M303,258l-1.2,2.6h-1.4l4.9-10.7l4.9,10.7h-1.4l-1.2-2.6H303z M305.3,252.6l-1.8,4.1h3.6L305.3,252.6z"/>
		<path class="st1" d="M310.9,249.8l7.7,8.1v-7.6h1.3V261l-7.7-8.1v7.6h-1.3L310.9,249.8z"/>
		<path class="st1" d="M320.7,250.3h1.5l2.5,4.4l2.5-4.4h1.5l-3.3,5.8v4.5H324v-4.5L320.7,250.3z"/>
		<path class="st1" d="M338,252.2c-0.3-0.6-1-1-1.7-1c-0.9-0.1-1.6,0.6-1.7,1.5c0,0.8,0.8,1.2,1.4,1.5l0.7,0.3
			c1.5,0.6,2.5,1.4,2.5,3.1c0,1.7-1.4,3.2-3.1,3.2c0,0-0.1,0-0.1,0c-1.7,0-3-1.3-3.2-2.9l1.3-0.3c0,1.1,0.9,1.9,2,1.9
			c1.1,0,1.9-0.9,1.9-2c0-1.1-0.9-1.6-1.8-1.9l-0.7-0.3c-1.2-0.5-2.2-1.2-2.2-2.6c0.1-1.5,1.4-2.7,2.9-2.7c0,0,0.1,0,0.1,0
			c1.1,0,2.1,0.6,2.6,1.5L338,252.2z"/>
		<path class="st1" d="M342,260.5h-1.3v-10.3h1.3V260.5z"/>
		<path class="st1" d="M350.3,259.4v1.2H343l5.2-9.1h-4.5v-1.2h6.5l-5.2,9.1H350.3z"/>
		<path class="st1" d="M351.4,250.3h5.5v1.2h-4.2v2.9h4.1v1.2h-4.1v3.9h4.2v1.2h-5.5V250.3z"/>
		<path class="st2" d="M125.7,243.2c-3.3,0-7.9,5-10.1,11c-0.4,1.3-0.7,2.6-1,3.9c-0.2,1.1-0.3,2.2-0.3,3.3c0,3.8,1.1,7,3.3,9.1
			c2.2,2.1,5.1,3.1,8,3c5,0,7.8-2.4,9.2-4.3c2.6-3.6,2.9-9.4,0.9-15.1C133.6,248.3,129,243.2,125.7,243.2z M132.2,267.5
			c-1.3,1.9-3.5,2.9-6.5,2.9c-2.1,0.1-4.2-0.6-5.7-2c-1.6-1.9-2.5-4.3-2.3-6.8c0-0.9,0.1-1.9,0.3-2.8c0.2-1.1,0.5-2.2,0.9-3.3
			c1.9-5.4,5.7-8.9,7-8.9s5,3.5,7,8.9l0,0C134.3,260.1,134.2,264.7,132.2,267.5L132.2,267.5z"/>
		<rect x="181" y="243.5" class="st2" width="3.3" height="29.1"/>
		<rect x="154.4" y="243.5" class="st2" width="3.3" height="29.1"/>
		<polygon class="st2" points="142.5,243.5 139.2,243.5 139.2,272.6 151.2,272.6 151.2,269.3 142.5,269.3 		"/>
		<polygon class="st2" points="174.3,243.5 169.3,261.8 164.2,243.5 160.9,243.5 169.3,274 177.8,243.5 		"/>
		<path class="st2" d="M187.5,243.4v29.4h3.3v-12.6h7.3c1.7,4,2.6,8.2,2.6,12.6h3.3C203.9,268.8,202.8,252.6,187.5,243.4z
			 M190.7,257v-7.2c2.3,2.1,4.2,4.5,5.7,7.2H190.7z"/>
		<rect x="155.3" y="218.4" class="st3" width="1.9" height="3.8"/>
		<rect x="155.3" y="225.2" class="st3" width="1.9" height="3.8"/>
		<rect x="155.3" y="232" class="st3" width="1.9" height="3.8"/>
		<rect x="155.3" y="197.8" class="st3" width="1.9" height="3.8"/>
		<rect x="155.3" y="204.7" class="st3" width="1.9" height="3.8"/>
		<rect x="155.3" y="211.5" class="st3" width="1.9" height="3.8"/>
		<rect x="155.3" y="177.2" class="st3" width="1.9" height="3.8"/>
		<rect x="155.3" y="184.1" class="st3" width="1.9" height="3.8"/>
		<rect x="155.3" y="190.9" class="st3" width="1.9" height="3.8"/>
		<rect x="155.3" y="156.7" class="st3" width="1.9" height="3.8"/>
		<rect x="155.3" y="163.5" class="st3" width="1.9" height="3.8"/>
		<rect x="155.3" y="170.4" class="st3" width="1.9" height="3.8"/>
		<rect x="155.3" y="136.1" class="st3" width="1.9" height="3.8"/>
		<rect x="155.3" y="143" class="st3" width="1.9" height="3.8"/>
		<rect x="155.3" y="149.8" class="st3" width="1.9" height="3.8"/>
		<rect x="155.3" y="115.5" class="st3" width="1.9" height="3.8"/>
		<rect x="155.3" y="122.4" class="st3" width="1.9" height="3.8"/>
		<rect x="155.3" y="129.2" class="st3" width="1.9" height="3.8"/>
		<rect x="155.3" y="95" class="st3" width="1.9" height="3.8"/>
		<rect x="155.3" y="101.8" class="st3" width="1.9" height="3.8"/>
		<rect x="155.3" y="108.7" class="st3" width="1.9" height="3.8"/>
		<rect x="155.3" y="74.4" class="st3" width="1.9" height="3.8"/>
		<rect x="155.3" y="81.3" class="st3" width="1.9" height="3.8"/>
		<rect x="155.3" y="88.1" class="st3" width="1.9" height="3.8"/>
		<path class="st1" d="M352.4,224.7c-111.7,0-202.6-90.9-202.6-202.6h2.9c0,110.1,89.6,199.7,199.7,199.7L352.4,224.7z"/>
	</g>
</g>
</svg>
