<?xml version="1.0" encoding="utf-8"?>
<!-- Generator: Adobe Illustrator 23.0.6, SVG Export Plug-In . SVG Version: 6.00 Build 0)  -->
<svg version="1.1" id="Layer_1" xmlns="http://www.w3.org/2000/svg" xmlns:xlink="http://www.w3.org/1999/xlink" x="0px" y="0px"
	 viewBox="0 0 1036 691.1" style="enable-background:new 0 0 1036 691.1;" xml:space="preserve">
<style type="text/css">
	.st0{fill:#414042;}
	.st1{fill:#FFFFFF;}
	.st2{fill:#F8E1BD;}
	.st3{fill:#EB5532;}
</style>
<title>Asset 4</title>
<path class="st0" d="M465.1,468.3c-2.3,0-4.3,1.9-4.3,4.3c0,2.3,1.9,4.3,4.3,4.3c2.3,0,4.3-1.9,4.3-4.3
	C469.4,470.3,467.5,468.3,465.1,468.3z"/>
<path class="st0" d="M504.1,499.3l22.1-25.2c7.4-8.4,11-17.5,10.4-26.4c-0.5-8.2-4.5-15.7-11.9-22.1l-3.2-2.9l-4.7,5.4
	c0-0.4,0-1-0.1-1.4c-0.5-8.2-4.5-15.7-11.9-22.1l-3.2-2.9l-16.2,18.4c-0.5-9.9-3.8-18.2-9.6-24c-5.8-5.8-14-8.9-23.9-8.9h-4.3v42.5
	c-8.7,2.3-17.1,10.7-21.8,16.1c-9.6,11.4-17.1,24.5-21.9,38.6c-2.2,6.4-3.9,13-5,19.7c-0.9,5.5-1.4,11.2-1.4,16.8
	c0,19.2,5.5,34.9,16.1,45.4c9.5,9.5,22.4,14.4,38.4,14.4c19,0,34-7,43.4-20.3C506,545.1,509,522.8,504.1,499.3z M447.5,571.1
	c-11.5-0.8-20.7-4.6-27.6-11.5c-6.2-6.2-13.5-17.9-13.4-38.9c0-5.1,0.4-10.3,1.3-15.3c0.1-0.7,0.3-1.5,0.4-2.2H439
	c-4,3.6-8,8-9.6,12.5c-2.5,7-1.6,14.3,2.3,19.9c3.6,5,9.2,8.3,16,9.2L447.5,571.1L447.5,571.1L447.5,571.1z M447.5,536
	c-3.6-0.6-6.8-2.6-8.9-5.4c-2.4-3.4-2.9-7.7-1.2-12c1.2-3.4,5.7-7.8,10.2-11.3V536z M447.5,494.6h-20.2l20.2-16.2V494.6z
	 M447.5,439.8L447.5,439.8v27.4L409.4,498c0.9-3.7,1.9-7.3,3.1-10.8c8.8-25.4,25.1-43.5,35.1-48.1V439.8z M456.2,491.1v-51.9
	c10,4.5,26.2,22.6,35.1,48.1c0.8,2.4,1.6,4.9,2.3,7.3h-37.4V491.1z M487.8,554.7c-7,9.9-17.8,15.4-31.7,16.3v-67.9h39.3
	C499.4,523.4,496.7,542.3,487.8,554.7z M499.9,484.1c-4.9-14.1-12.3-27.2-21.9-38.6c-4.6-5.4-13.1-13.8-21.8-16.1v-33.5
	c5.6,0.7,10.2,2.8,13.6,6.2c6,6,7.2,14.7,7.2,21.1v3.1c2.9,2.3,5.4,4.7,7.8,7.5l0.9-0.9l16.6-18.8c3.7,4.1,5.6,8.6,6,13.2
	c0.5,8.2-4.2,15.4-8.2,20.1l-0.1,0.1c1.6,2.6,3,5.3,4.5,7.9l13.3-15.2l0,0l4.5-5.1c3.7,4.1,5.6,8.6,6,13.2
	c0.5,8.3-4.3,15.5-8.3,20.2l-18.4,20.7C501.1,487.5,500.5,485.8,499.9,484.1L499.9,484.1z"/>
<path class="st0" d="M520.8,550.8c-0.3-0.1-0.4-0.1-0.7-0.1c-1.7,0-2.5,1.6-2.5,3.1c0,1.5,0.8,3.3,2.5,3.3c0.3,0,0.5-0.1,0.7-0.2
	v1.9c-0.3,0.1-0.6,0.2-0.9,0.2c-2.9,0-4.5-2.6-4.5-5.2c0-2.5,1.6-5,4.4-5c0.4,0,0.7,0.1,1,0.2V550.8z"/>
<path class="st0" d="M524.1,548.8v3.9h2v-3.9h2v10h-2v-4.3h-2v4.3h-2v-10H524.1z"/>
<path class="st0" d="M531.8,548.8v10h-2v-10H531.8z"/>
<path class="st0" d="M538.5,550.8c-0.3-0.1-0.4-0.1-0.7-0.1c-1.7,0-2.5,1.6-2.5,3.1c0,1.5,0.7,3.3,2.5,3.3c0.3,0,0.5-0.1,0.7-0.2
	v1.9c-0.3,0.1-0.6,0.2-0.9,0.2c-2.9,0-4.5-2.6-4.5-5.2c0-2.5,1.6-5,4.4-5c0.4,0,0.7,0.1,1,0.2V550.8z"/>
<path class="st0" d="M541.8,548.8v4.5l0,0l1.6-4.5h2.1l-1.9,4.6l2.1,5.4h-2.1l-1.8-5.1l0,0v5.1h-2v-10H541.8z"/>
<path class="st0" d="M551,548.8v1.9h-2v2.1h1.8v1.9H549v2.2h2.1v1.9h-4v-10L551,548.8L551,548.8z"/>
<path class="st0" d="M554.4,548.8l2.5,6.1l0,0c-0.1-0.5-0.2-1-0.2-1.5v-4.5h2v10h-1.9l-2.4-6.1l0,0l0.1,1v5h-2v-10L554.4,548.8
	L554.4,548.8L554.4,548.8z"/>
<path class="st0" d="M563.8,558.9v-10h2.1c0.4,0,3.4-0.3,3.4,2.9c0.1,1.5-1.1,2.9-2.6,2.9c-0.2,0-0.3,0-0.4,0h-0.4v4.1H563.8z
	 M565.7,553.1c1,0,1.5-0.4,1.5-1.3c0-0.7-0.3-1.3-1.2-1.3h-0.4V553.1z"/>
<path class="st0" d="M573.8,548.8l2.4,10h-2.1l-0.4-1.7h-2.1l-0.4,1.7h-2l2.3-10H573.8z M572.9,552.9l-0.2-1.5l0,0l-0.2,1.5
	l-0.4,2.7h1.4L572.9,552.9z"/>
<path class="st0" d="M581.5,551.1c-0.4-0.4-0.9-0.6-1.4-0.6s-1,0.4-1,0.8c0,0.1,0,0.1,0,0.2c0,1.6,3,1.7,3,4.5c0,1.8-1,3.1-2.9,3.1
	c-0.6,0-1.2-0.2-1.7-0.5v-1.9c0.4,0.4,1,0.5,1.5,0.5c0.6,0,1.1-0.4,1.2-1v-0.1c0-0.8-0.6-1.1-1.2-1.4c-1.2-0.8-1.9-1.5-1.9-2.9
	c0-1.4,0.9-2.9,2.6-2.9c0.6,0,1.2,0.2,1.8,0.4L581.5,551.1z"/>
<path class="st0" d="M588.1,548.8v1.9h-1.5v8.1h-2v-8.1H583v-1.9H588.1z"/>
<path class="st0" d="M591.3,548.8v6.5c0,0.8-0.1,1.9,1,1.9s1-0.7,1-1.5v-6.9h2v7.3c0,1.1-0.1,2.9-2.9,2.9c-1.9,0-2.9-0.9-2.9-2.8
	v-7.4H591.3z"/>
<path class="st0" d="M596.9,558.9v-10h2c1.2,0,3.5,0.2,3.5,2.9c0.1,1.1-0.5,2.1-1.4,2.6l1.7,4.5h-2.1l-1.7-4.6l0,0v4.6H596.9z
	 M598.9,553.2h0.4c0.9,0,1.2-0.6,1.2-1.4c0.1-0.6-0.4-1.2-1-1.2c-0.1,0-0.2,0-0.3,0H599L598.9,553.2z"/>
<path class="st0" d="M608.3,548.8v1.9h-2v2.1h1.8v1.9h-1.8v2.2h2.1v1.9h-4v-10L608.3,548.8L608.3,548.8z"/>
<path class="st0" d="M536.1,489.3c-6.1,0-14.5,9.2-18.4,20.2c-0.8,2.3-1.4,4.6-1.9,7c-0.4,2-0.5,4-0.5,6.1c0,7,2.1,12.8,6,16.7
	c3.7,3.7,8.6,5.5,14.7,5.5c9.2,0,14.2-4.3,16.7-7.8c4.7-6.7,5.4-17.2,1.7-27.5C550.6,498.6,542.2,489.3,536.1,489.3z M548,533.6
	c-2.5,3.6-6.5,5.4-11.9,5.4c-4.5,0-8-1.2-10.5-3.7c-3.6-3.6-4.3-8.7-4.3-12.4c0-1.7,0.2-3.4,0.4-5.1c0.4-2.1,0.9-4.1,1.6-6.1
	c3.5-9.9,10.3-16.2,12.8-16.2c2.4,0,9.2,6.3,12.8,16.2l0,0C551.9,520,551.5,528.5,548,533.6L548,533.6z"/>
<polygon class="st0" points="566.2,490.4 560.3,490.4 560.3,543 581.7,543 581.7,537.2 566.2,537.2 "/>
<polygon class="st0" points="613.7,523 604.8,490.5 598.7,490.5 613.7,545 628.8,490.5 622.7,490.5 "/>
<rect x="587.7" y="490.5" class="st0" width="5.8" height="52.6"/>
<rect x="634.9" y="490.5" class="st0" width="5.8" height="52.6"/>
<path class="st0" d="M648.7,489.3V543h6v-19.3h14.8c2.1,6.2,3.3,12.8,3.4,19.3h5.9C678.7,535.8,676.8,506.2,648.7,489.3z
	 M654.6,517.8v-16.7c5.2,4.7,9.4,10.3,12.4,16.7H654.6z"/>
<path class="st0" d="M215.6,436.6c-2.3,0-4.3,1.9-4.3,4.3c0,2.4,1.9,4.3,4.3,4.3c2.3,0,4.3-1.9,4.3-4.3
	C219.9,438.5,217.9,436.6,215.6,436.6z"/>
<path class="st0" d="M254.6,467.5l22.1-25.2c7.4-8.4,11-17.5,10.4-26.4c-0.5-8.2-4.5-15.7-12-22.1l-3.2-2.9l-4.7,5.4
	c0-0.4,0-1-0.1-1.4c-0.5-8.2-4.5-15.7-11.9-22.1l-3.2-2.9l-16.2,18.4c-0.5-10-3.8-18.2-9.6-24c-5.8-5.8-14-8.9-23.9-8.9H198v42.5
	c-8.7,2.3-17.1,10.7-21.8,16.1c-9.6,11.4-17.1,24.5-21.9,38.6c-2.2,6.4-3.9,13-5,19.7c-0.9,5.5-1.4,11.2-1.4,16.8
	c0,19.2,5.5,34.9,16.1,45.4c9.5,9.5,22.4,14.3,38.4,14.3c19,0,34-7,43.4-20.3C256.4,513.4,259.4,491,254.6,467.5z M198,539.3
	c-11.5-0.8-20.7-4.6-27.6-11.5c-6.2-6.2-13.5-17.9-13.4-38.9c0-5.1,0.4-10.3,1.3-15.3c0.1-0.7,0.3-1.5,0.4-2.2h30.7
	c-4,3.6-8,8-9.6,12.5c-2.5,7-1.6,14.2,2.3,19.9c3.6,5,9.2,8.3,16,9.2L198,539.3L198,539.3L198,539.3z M198,504.2
	c-3.6-0.6-6.8-2.6-8.9-5.4c-2.4-3.4-2.9-7.7-1.2-12c1.2-3.4,5.7-7.8,10.3-11.3L198,504.2z M198,462.7h-20.2l20.2-16.2V462.7z
	 M198,408L198,408v27.4l-38.3,30.9c0.9-3.7,1.9-7.3,3.1-10.8c8.8-25.4,25.1-43.5,35.1-48.1L198,408z M206.6,459.3v-52
	c10,4.5,26.2,22.6,35.1,48.1c0.9,2.4,1.6,4.9,2.3,7.3h-37.4V459.3z M238.4,522.9c-7,9.9-17.8,15.4-31.7,16.3v-68H246
	C249.8,491.6,247.2,510.5,238.4,522.9L238.4,522.9z M250.4,452.4c-4.9-14.1-12.3-27.2-21.9-38.6c-4.6-5.4-13.1-13.8-21.8-16.1v-33.5
	c5.6,0.7,10.2,2.8,13.6,6.2c6,6,7.2,14.7,7.2,21.1v3.1c2.9,2.3,5.4,4.7,7.8,7.5l0.8-0.9l16.6-18.8c3.7,4.1,5.6,8.6,6,13.2
	c0.5,8.2-4.2,15.4-8.2,20.1l-0.1,0.1c1.6,2.6,3,5.3,4.5,7.9l13.3-15.2l0,0l4.5-5.1c3.7,4.1,5.6,8.6,6,13.2
	c0.5,8.3-4.3,15.5-8.3,20.2L252,457.5C251.5,455.7,250.9,454.1,250.4,452.4L250.4,452.4z"/>
<path class="st0" d="M161.6,615.4c-0.3-0.1-0.4-0.1-0.7-0.1c-1.7,0-2.5,1.6-2.5,3.1c0,1.5,0.8,3.3,2.5,3.3c0.3,0,0.5-0.1,0.8-0.2
	v1.9c-0.3,0.1-0.6,0.2-0.9,0.2c-2.9,0-4.5-2.6-4.5-5.2c0-2.5,1.6-5,4.4-5c0.4,0,0.7,0.1,1,0.2L161.6,615.4L161.6,615.4L161.6,615.4z
	"/>
<path class="st0" d="M164.9,613.6v3.9h2.1v-3.9h2v10h-2v-4.3h-2.1v4.3h-2v-10H164.9z"/>
<path class="st0" d="M172.7,613.6v10h-2v-10H172.7z"/>
<path class="st0" d="M179.4,615.4c-0.3-0.1-0.4-0.1-0.7-0.1c-1.7,0-2.5,1.6-2.5,3.1c0,1.5,0.8,3.3,2.5,3.3c0.3,0,0.5-0.1,0.8-0.2
	v1.9c-0.3,0.1-0.6,0.2-0.9,0.2c-2.9,0-4.5-2.6-4.5-5.2c0-2.5,1.6-5,4.4-5c0.4,0,0.7,0.1,1,0.2L179.4,615.4L179.4,615.4L179.4,615.4z
	"/>
<path class="st0" d="M182.7,613.6v4.5l0,0l1.7-4.5h2.1l-1.9,4.6l2.1,5.4h-2.1l-1.8-5.1l0,0v5.1h-2.1v-10H182.7z"/>
<path class="st0" d="M191.9,613.6v1.9h-2v2.1h1.8v2h-1.8v2.2h2.1v1.9h-4.1v-10.1H191.9z"/>
<path class="st0" d="M195.3,613.6l2.5,6.1l0,0c-0.1-0.5-0.2-1-0.2-1.5v-4.5h2v10h-1.8l-2.4-6.1l0,0l0.1,1v0.4v4.6h-2v-10H195.3z"/>
<path class="st0" d="M204.5,623.6v-10.1h2.1c0.4,0,3.4-0.3,3.4,2.9c0.1,1.5-1.1,2.9-2.6,2.9c-0.2,0-0.3,0-0.4,0h-0.4v4.1
	L204.5,623.6z M206.6,617.8c1,0,1.5-0.4,1.5-1.3c0-0.7-0.3-1.3-1.2-1.3h-0.4V617.8z"/>
<path class="st0" d="M214.7,613.6l2.4,10H215l-0.4-1.7h-2l-0.4,1.7h-2l2.3-10H214.7z M213.9,617.6l-0.3-1.5l0,0l-0.2,1.5l-0.4,2.7
	h1.4L213.9,617.6z"/>
<path class="st0" d="M222.4,615.8c-0.4-0.4-0.9-0.6-1.4-0.6s-1,0.4-1,0.8c0,0.1,0,0.1,0,0.2c0,1.6,3,1.7,3,4.5c0,1.8-1,3.1-2.9,3.1
	c-0.6,0-1.2-0.2-1.7-0.5v-1.9c0.4,0.4,1,0.5,1.5,0.5c0.6,0,1.1-0.4,1.2-1v-0.1c0-0.8-0.6-1.1-1.2-1.4c-1.2-0.8-1.9-1.5-1.9-2.9
	s0.9-2.9,2.6-2.9c0.6,0,1.2,0.2,1.8,0.5L222.4,615.8z"/>
<path class="st0" d="M229,613.6v1.9h-1.6v8.1h-2v-8.1h-1.5v-1.9H229z"/>
<path class="st0" d="M232.2,613.6v6.5c0,0.8-0.1,1.9,1,1.9s1-0.7,1-1.5v-6.9h2v7.3c0,1.1-0.1,2.9-2.9,2.9c-1.9,0-2.9-0.9-2.9-2.8
	v-7.4H232.2z"/>
<path class="st0" d="M237.8,623.6v-10.1h2c1.2,0,3.5,0.1,3.5,2.9c0.1,1.1-0.5,2.1-1.4,2.6l1.7,4.5h-2.1l-1.7-4.6l0,0v4.6
	L237.8,623.6z M239.8,617.8h0.4c0.9,0,1.2-0.6,1.2-1.4c0.1-0.6-0.4-1.2-1.1-1.2c-0.1,0-0.2,0-0.4,0h-0.3L239.8,617.8z"/>
<path class="st0" d="M249.1,613.6v1.9h-2v2.1h1.8v2h-1.8v2.2h2.1v1.9h-4v-10.1H249.1z"/>
<path class="st0" d="M141.4,554.1c-6.1,0-14.5,9.2-18.4,20.2c-0.8,2.3-1.4,4.6-1.9,7c-0.4,2-0.5,4-0.5,6.1c0,7,2.1,12.8,6,16.7
	c3.7,3.7,8.6,5.5,14.7,5.5c9.2,0,14.2-4.3,16.7-7.8c4.7-6.7,5.4-17.2,1.7-27.5C155.8,563.3,147.5,554.1,141.4,554.1z M153.3,598.2
	c-2.5,3.6-6.5,5.4-11.9,5.4c-4.5,0-8-1.2-10.5-3.7c-3.6-3.6-4.3-8.7-4.3-12.4c0-1.7,0.2-3.4,0.4-5.1c0.4-2.1,0.9-4.1,1.6-6.1
	c3.5-9.9,10.3-16.2,12.8-16.2s9.2,6.3,12.8,16.2l0,0C157.2,584.7,156.8,593.1,153.3,598.2z"/>
<polygon class="st0" points="171.4,555.1 165.6,555.1 165.6,607.8 186.9,607.8 186.9,601.9 171.4,601.9 "/>
<polygon class="st0" points="219,587.8 210,555.2 203.9,555.2 219,609.6 234.1,555.2 228,555.2 "/>
<rect x="192.9" y="555.2" class="st0" width="5.8" height="52.6"/>
<rect x="240" y="555.2" class="st0" width="5.8" height="52.6"/>
<path class="st0" d="M253.9,554.1v53.7h6v-19.3h14.8c2.1,6.2,3.3,12.8,3.4,19.3h6C283.9,600.5,282,570.9,253.9,554.1z M259.8,582.5
	v-16.7c5.2,4.7,9.4,10.3,12.4,16.7H259.8z"/>
<path class="st1" d="M199.4,163.3v-51.9c10,4.5,26.2,22.6,35.1,48.1c0.9,2.4,1.6,4.9,2.3,7.3h-37.4L199.4,163.3L199.4,163.3z"/>
<path class="st0" d="M208.3,140.5c-2.3,0-4.3,1.9-4.3,4.3c0,2.3,1.9,4.3,4.3,4.3c2.3,0,4.3-1.9,4.3-4.3
	C212.6,142.4,210.7,140.5,208.3,140.5z"/>
<path class="st0" d="M247.3,171.4l22.1-25.2c7.4-8.4,11-17.5,10.4-26.4c-0.5-8.2-4.5-15.7-11.9-22.1l-3.2-2.9l-4.7,5.4
	c0-0.4,0-1-0.1-1.4c-0.5-8.2-4.5-15.7-12-22.1l-3.2-2.9l-16.2,18.4c-0.5-10-3.8-18.2-9.6-24c-5.8-5.8-13.9-8.9-23.9-8.9h-4.3v42.5
	c-8.7,2.3-17.1,10.7-21.8,16.1c-9.6,11.4-17.1,24.5-22,38.6c-2.2,6.4-3.9,13-5,19.7c-0.9,5.5-1.4,11.2-1.4,16.8
	c0,19.2,5.5,34.9,16.1,45.4c9.5,9.5,22.4,14.4,38.4,14.4c19,0,34-7,43.4-20.3C249.1,217.3,252.2,194.9,247.3,171.4z M190.7,243.3
	c-11.5-0.8-20.7-4.6-27.6-11.5c-6.2-6.2-13.5-17.9-13.4-38.9c0-5.1,0.4-10.3,1.3-15.3c0.1-0.7,0.3-1.5,0.4-2.2h30.7
	c-4,3.6-8,8-9.6,12.5c-2.5,7-1.6,14.3,2.3,19.9c3.6,5,9.2,8.3,16,9.2L190.7,243.3z M190.7,208.1c-3.6-0.6-6.8-2.6-8.9-5.4
	c-2.4-3.4-2.9-7.7-1.2-12c1.2-3.5,5.7-7.8,10.3-11.3L190.7,208.1z M190.7,166.7h-20.2l20.2-16.2V166.7z M190.7,112L190.7,112v27.4
	l-38.3,30.9c0.9-3.7,2-7.3,3.1-10.9c8.8-25.4,25.1-43.5,35.1-48.1L190.7,112C190.6,112,190.7,112,190.7,112z M199.4,163.3v-52
	c10,4.5,26.2,22.6,35.1,48.1c0.9,2.4,1.6,4.9,2.3,7.3h-37.4L199.4,163.3L199.4,163.3z M231,226.9c-7,10-17.8,15.4-31.7,16.3v-68
	h39.3C242.5,195.6,239.9,214.5,231,226.9L231,226.9z M243.1,156.3c-4.9-14.1-12.3-27.2-21.9-38.6c-4.6-5.4-13-13.8-21.8-16.1V68
	c5.6,0.7,10.2,2.8,13.6,6.2c6,6,7.2,14.7,7.2,21.1v3.1c2.8,2.3,5.4,4.8,7.8,7.5l0.8-0.9l16.7-18.8c3.7,4.1,5.6,8.6,6,13.2
	c0.5,8.2-4.2,15.4-8.2,20.1l-0.1,0.1c1.6,2.6,3,5.3,4.5,7.9l13.3-15.2l0,0l4.5-5.1c3.7,4.1,5.6,8.6,6,13.2
	c0.5,8.3-4.3,15.5-8.3,20.2l-18.3,20.8C244.2,159.6,243.7,158,243.1,156.3z"/>
<path class="st2" d="M190.7,243.3c-11.5-0.8-20.7-4.6-27.6-11.5c-6.2-6.2-13.5-17.9-13.4-38.9c0-5.1,0.4-10.3,1.3-15.3
	c0.1-0.7,0.3-1.5,0.4-2.2h30.7c-4,3.6-8,8-9.6,12.5c-2.5,7-1.6,14.3,2.3,19.9c3.6,5,9.2,8.3,16,9.2L190.7,243.3z"/>
<path class="st3" d="M190.7,208.1c-3.6-0.6-6.8-2.6-8.9-5.4c-2.4-3.4-2.9-7.7-1.2-12c1.2-3.5,5.7-7.8,10.3-11.3L190.7,208.1z"/>
<polygon class="st1" points="190.7,166.7 170.6,166.7 190.7,150.4 "/>
<path class="st3" d="M243.1,156.3c-4.9-14.1-12.3-27.2-21.9-38.6c-4.6-5.4-13-13.8-21.8-16.1V68c5.6,0.7,10.2,2.8,13.6,6.2
	c6,6,7.2,14.7,7.2,21.1v3.1c2.8,2.3,5.4,4.8,7.8,7.5l0.8-0.9l16.7-18.8c3.7,4.1,5.6,8.6,6,13.2c0.5,8.2-4.2,15.4-8.2,20.1l-0.1,0.1
	c1.6,2.6,3,5.3,4.5,7.9l13.3-15.2l0,0l4.5-5.1c3.7,4.1,5.6,8.6,6,13.2c0.5,8.3-4.3,15.5-8.3,20.2l-18.3,20.8
	C244.2,159.6,243.7,158,243.1,156.3z"/>
<path class="st1" d="M231,226.9c-7,10-17.8,15.4-31.7,16.3v-68h39.3C242.5,195.6,239.9,214.5,231,226.9z"/>
<path class="st2" d="M190.7,112L190.7,112v27.4l-38.3,30.9c0.9-3.7,2-7.3,3.1-10.9c8.8-25.4,25.1-43.5,35.1-48.1L190.7,112
	C190.6,112,190.7,112,190.7,112z"/>
<path class="st0" d="M154.4,319.2c-0.3-0.1-0.5-0.1-0.7-0.1c-1.7,0-2.5,1.6-2.5,3.1s0.8,3.3,2.5,3.3c0.3,0,0.5-0.1,0.8-0.2v1.9
	c-0.3,0.1-0.6,0.2-0.9,0.2c-2.9,0-4.5-2.6-4.5-5.2c0-2.5,1.6-5,4.4-5c0.4,0,0.7,0.1,1,0.2L154.4,319.2L154.4,319.2L154.4,319.2z"/>
<path class="st0" d="M157.7,317.3v3.9h2v-3.9h2v10h-2V323h-2v4.3h-2v-10H157.7z"/>
<path class="st0" d="M165.4,317.3v10h-2v-10H165.4z"/>
<path class="st0" d="M172.2,319.2c-0.3-0.1-0.5-0.1-0.7-0.1c-1.7,0-2.5,1.6-2.5,3.1s0.8,3.3,2.5,3.3c0.3,0,0.5-0.1,0.8-0.2v1.9
	c-0.3,0.1-0.6,0.2-0.9,0.2c-2.9,0-4.5-2.6-4.5-5.2c0-2.5,1.6-5,4.4-5c0.4,0,0.7,0.1,1,0.2L172.2,319.2L172.2,319.2L172.2,319.2z"/>
<path class="st0" d="M175.5,317.3v4.5l0,0l1.6-4.5h2.1l-1.8,4.6l2.1,5.4h-2.1l-1.8-5.1l0,0v5.1h-2.1v-10H175.5z"/>
<path class="st0" d="M184.6,317.3v1.9h-2v2.1h1.8v1.9h-1.8v2.2h2.1v1.9h-4v-10H184.6z"/>
<path class="st0" d="M188,317.3l2.5,6.1l0,0c-0.1-0.5-0.2-1-0.2-1.5v-4.5h2v10h-1.9l-2.4-6.1l0,0l0.1,1v0.4v4.5h-2v-10H188z"/>
<path class="st0" d="M197.3,327.3v-10h2.1c0.4,0,3.4-0.3,3.4,2.9c0.1,1.5-1.1,2.9-2.6,2.9c-0.2,0-0.3,0-0.4,0h-0.4v4.1L197.3,327.3z
	 M199.3,321.6c1,0,1.5-0.4,1.5-1.3c0-0.7-0.3-1.3-1.2-1.3h-0.4V321.6L199.3,321.6z"/>
<path class="st0" d="M207.5,317.3l2.4,10h-2.1l-0.4-1.7h-2l-0.4,1.7H203l2.3-10H207.5z M206.6,321.4l-0.3-1.5l0,0l-0.2,1.5l-0.4,2.7
	h1.4L206.6,321.4z"/>
<path class="st0" d="M215.1,319.6c-0.4-0.4-0.9-0.6-1.4-0.6s-1,0.4-1,0.8c0,0.1,0,0.1,0,0.2c0,1.6,3,1.7,3,4.5c0,1.8-1,3.1-2.9,3.1
	c-0.6,0-1.2-0.2-1.7-0.5v-1.9c0.4,0.4,1,0.5,1.5,0.5c0.6,0,1.1-0.4,1.2-1v-0.1c0-0.8-0.6-1.1-1.2-1.4c-1.2-0.8-1.9-1.5-1.9-2.9
	c0-1.4,0.9-2.9,2.6-2.9c0.6,0,1.2,0.2,1.7,0.4L215.1,319.6z"/>
<path class="st0" d="M221.8,317.3v1.9h-1.6v8.1h-2v-8.1h-1.5v-1.9H221.8z"/>
<path class="st0" d="M224.9,317.3v6.5c0,0.8-0.1,1.9,1,1.9c1.1,0,1-0.7,1-1.5v-6.9h2v7.3c0,1.1-0.1,2.9-2.9,2.9
	c-1.9,0-2.9-0.9-2.9-2.8v-7.4H224.9z"/>
<path class="st0" d="M230.5,327.3v-10h2c1.2,0,3.5,0.2,3.5,2.9c0.1,1.1-0.5,2.1-1.4,2.6l1.7,4.5h-2l-1.7-4.6l0,0v4.6H230.5z
	 M232.6,321.6h0.4c0.9,0,1.2-0.6,1.2-1.4c0.1-0.6-0.4-1.2-1-1.2c-0.1,0-0.3,0-0.4,0h-0.3V321.6z"/>
<path class="st0" d="M241.9,317.3v1.9h-2v2.1h1.8v1.9H240v2.2h2.1v1.9h-4v-10H241.9z"/>
<path class="st0" d="M134.2,257.8c-6.1,0-14.5,9.2-18.4,20.2c-0.8,2.3-1.4,4.6-1.9,7c-0.4,2-0.5,4-0.5,6.1c0,7,2.1,12.8,6,16.7
	c3.7,3.7,8.6,5.5,14.7,5.5c9.2,0,14.2-4.3,16.7-7.8c4.7-6.6,5.4-17.1,1.7-27.5C148.6,267,140.1,257.8,134.2,257.8z M145.9,302
	c-2.5,3.6-6.5,5.4-11.9,5.4c-4.5,0-8-1.2-10.5-3.7c-3.6-3.6-4.3-8.7-4.3-12.4c0-1.7,0.2-3.4,0.4-5.1c0.4-2.1,0.9-4.1,1.6-6.1
	c3.5-9.9,10.3-16.2,12.8-16.2c2.4,0,9.2,6.3,12.8,16.2l0,0C149.9,288.5,149.5,297,145.9,302z"/>
<polygon class="st0" points="164.1,258.9 158.2,258.9 158.2,311.5 179.7,311.5 179.7,305.7 164.1,305.7 "/>
<polygon class="st0" points="211.7,291.5 202.8,259 196.7,259 211.7,313.4 226.8,259 220.7,259 "/>
<rect x="185.6" y="259" class="st0" width="5.8" height="52.6"/>
<rect x="232.8" y="259" class="st0" width="5.8" height="52.6"/>
<path class="st0" d="M246.6,257.8v53.7h6v-19.3h14.8c2.1,6.2,3.3,12.8,3.4,19.3h6C276.6,304.3,274.7,274.7,246.6,257.8z
	 M252.5,286.3v-16.7c5.2,4.7,9.4,10.4,12.4,16.7H252.5z"/>
<path class="st1" d="M456.2,193.5v-51.9c10,4.5,26.3,22.6,35.1,48.1c0.8,2.4,1.6,4.9,2.3,7.3h-37.4V193.5L456.2,193.5z"/>
<path class="st1" d="M487.8,257.2c-7,9.9-17.8,15.4-31.7,16.3v-68h39.3C499.4,225.8,496.7,244.7,487.8,257.2z"/>
<polygon class="st1" points="447.5,197 427.4,197 447.5,180.7 "/>
<path class="st0" d="M465.1,170.8c-2.3,0-4.3,1.9-4.3,4.3c0,2.4,1.9,4.3,4.3,4.3c2.3,0,4.3-1.9,4.3-4.3
	C469.4,172.6,467.5,170.8,465.1,170.8z"/>
<path class="st0" d="M504.1,201.7l22.1-25.2c7.4-8.4,11-17.5,10.4-26.4c-0.5-8.2-4.5-15.7-11.9-22.1l-3.2-2.9l-4.7,5.4
	c0-0.4,0-1-0.1-1.4c-0.5-8.2-4.5-15.7-11.9-22.1l-3.2-2.9l-16.2,18.4c-0.5-9.9-3.9-18.2-9.6-24s-14-8.9-23.9-8.9h-4.3v42.5
	c-8.7,2.3-17.2,10.8-21.9,16.1c-9.6,11.4-17.1,24.5-21.9,38.6c-2.2,6.4-3.9,13-5,19.7c-0.9,5.5-1.4,11.2-1.4,16.8
	c0,19.2,5.5,34.9,16.1,45.4c9.5,9.5,22.4,14.4,38.4,14.4c19,0,34-7,43.4-20.3C506,247.7,509,225.3,504.1,201.7z M447.5,273.5
	c-11.5-0.8-20.7-4.6-27.6-11.5c-6.2-6.2-13.5-17.9-13.4-38.9c0-5.2,0.4-10.3,1.3-15.3c0.1-0.7,0.3-1.5,0.4-2.2H439
	c-4,3.6-8,8-9.6,12.5c-2.5,7-1.6,14.3,2.3,19.9c3.6,5,9.2,8.3,16,9.2L447.5,273.5L447.5,273.5z M447.5,238.4
	c-3.6-0.6-6.8-2.6-8.9-5.4c-2.4-3.4-2.9-7.7-1.2-12c1.2-3.4,5.7-7.8,10.2-11.3V238.4z M447.5,197h-20.2l20.2-16.2V197z M447.5,142.3
	L447.5,142.3v27.4l-38.3,30.9c0.9-3.7,1.9-7.3,3.1-10.8c8.8-25.4,25.1-43.5,35.1-48.1L447.5,142.3z M456.2,193.5v-51.9
	c10,4.5,26.3,22.6,35.1,48.1c0.8,2.4,1.6,4.9,2.3,7.3h-37.4L456.2,193.5z M487.8,257.2c-7,9.9-17.8,15.4-31.7,16.3v-68h39.3
	C499.4,225.8,496.7,244.7,487.8,257.2L487.8,257.2z M499.9,186.6c-4.9-14.1-12.3-27.2-21.9-38.6c-4.6-5.4-13.1-13.8-21.8-16.1V98.4
	c5.6,0.7,10.2,2.8,13.6,6.2c6,6,7.2,14.7,7.2,21.1v3.1c2.9,2.3,5.4,4.7,7.8,7.5l0.9-0.9l16.6-18.8c3.7,4.1,5.6,8.6,6,13.2
	c0.5,8.2-4.2,15.4-8.2,20.1l-0.1,0.1c1.6,2.6,3,5.3,4.5,7.9l13.3-15.2l0,0l4.5-5.1c3.7,4.1,5.6,8.6,6,13.2
	c0.5,8.3-4.3,15.5-8.3,20.2l-18.3,20.7C501.1,189.9,500.5,188.3,499.9,186.6L499.9,186.6z"/>
<path class="st0" d="M520.8,253.2c-0.3-0.1-0.5-0.1-0.7-0.1c-1.7,0-2.5,1.6-2.5,3.1s0.8,3.3,2.5,3.3c0.3,0,0.5-0.1,0.7-0.2v1.9
	c-0.3,0.1-0.6,0.2-0.9,0.2c-2.9,0-4.5-2.6-4.5-5.2c0-2.5,1.6-5,4.4-5c0.4,0,0.7,0.1,1,0.2V253.2z"/>
<path class="st0" d="M524.1,251.3v3.9h2v-3.9h2v10h-2V257h-2v4.3h-2v-10H524.1z"/>
<path class="st0" d="M531.8,251.3v10h-2v-10H531.8z"/>
<path class="st0" d="M538.5,253.2c-0.3-0.1-0.5-0.1-0.7-0.1c-1.7,0-2.5,1.6-2.5,3.1s0.7,3.3,2.5,3.3c0.3,0,0.5-0.1,0.7-0.2v1.9
	c-0.3,0.1-0.6,0.2-0.9,0.2c-2.9,0-4.5-2.6-4.5-5.2c0-2.5,1.6-5,4.4-5c0.4,0,0.7,0.1,1,0.2V253.2z"/>
<path class="st0" d="M541.8,251.3v4.5l0,0l1.6-4.5h2.1l-1.9,4.6l2.1,5.4h-2.1l-1.8-5.1l0,0v5.1h-2v-10H541.8z"/>
<path class="st0" d="M551,251.3v1.9h-2v2.1h1.8v1.9H549v2.3h2.1v1.9h-4v-10L551,251.3L551,251.3z"/>
<path class="st0" d="M554.4,251.3l2.5,6.1l0,0c-0.1-0.5-0.2-1-0.2-1.5v-4.5h2v10h-1.9l-2.4-6.1l0,0l0.1,1v5h-2v-10H554.4z"/>
<path class="st0" d="M563.8,261.3v-10h2.1c0.4,0,3.4-0.3,3.4,2.9c0.1,1.5-1.1,2.9-2.6,2.9c-0.2,0-0.3,0-0.4,0h-0.4v4.1L563.8,261.3z
	 M565.7,255.5c1,0,1.5-0.4,1.5-1.3c0-0.7-0.3-1.3-1.2-1.3h-0.4V255.5z"/>
<path class="st0" d="M573.8,251.3l2.4,10h-2.1l-0.4-1.7h-2.1l-0.4,1.7h-2l2.3-10H573.8z M572.9,255.3l-0.2-1.5l0,0l-0.2,1.5
	l-0.4,2.7h1.4L572.9,255.3z"/>
<path class="st0" d="M581.5,253.5c-0.4-0.4-0.9-0.6-1.4-0.6s-1,0.4-1,0.8c0,0.1,0,0.1,0,0.2c0,1.6,3,1.7,3,4.5c0,1.8-1,3.1-2.9,3.1
	c-0.6,0-1.2-0.2-1.7-0.5v-1.9c0.4,0.4,1,0.5,1.5,0.5c0.6,0,1.1-0.4,1.2-1v-0.1c0-0.8-0.6-1.1-1.2-1.4c-1.2-0.8-1.9-1.5-1.9-2.9
	s0.9-2.9,2.6-2.9c0.6,0,1.2,0.2,1.8,0.4L581.5,253.5z"/>
<path class="st0" d="M588.1,251.3v1.9h-1.5v8.1h-2v-8.1H583v-1.9H588.1z"/>
<path class="st0" d="M591.3,251.3v6.5c0,0.8-0.1,1.9,1,1.9s1-0.7,1-1.5v-6.9h2v7.3c0,1.1-0.1,2.9-2.9,2.9c-1.9,0-2.9-0.9-2.9-2.8
	v-7.4H591.3z"/>
<path class="st0" d="M596.9,261.3v-10h2c1.2,0,3.5,0.2,3.5,2.9c0.1,1.1-0.5,2.1-1.4,2.6l1.7,4.5h-2.1l-1.7-4.6l0,0v4.6H596.9z
	 M598.9,255.6h0.4c0.9,0,1.2-0.6,1.2-1.4c0.1-0.6-0.4-1.2-1-1.2c-0.1,0-0.3,0-0.4,0h-0.3L598.9,255.6z"/>
<path class="st0" d="M608.3,251.3v1.9h-2v2.1h1.8v1.9h-1.8v2.3h2.1v1.9h-4v-10L608.3,251.3L608.3,251.3z"/>
<path class="st0" d="M536.1,191.7c-6.1,0-14.5,9.2-18.4,20.2c-0.8,2.3-1.4,4.6-1.9,7c-0.4,2-0.5,4-0.5,6.1c0,7,2.1,12.8,6,16.7
	c3.7,3.7,8.6,5.5,14.7,5.5c9.2,0,14.2-4.3,16.7-7.8c4.7-6.6,5.4-17.1,1.7-27.5C550.6,201,542.2,191.7,536.1,191.7z M548,236
	c-2.5,3.6-6.5,5.4-11.9,5.4c-4.5,0-8-1.2-10.5-3.7c-3.6-3.6-4.3-8.7-4.3-12.4c0-1.7,0.2-3.4,0.4-5.1c0.4-2.1,0.9-4.1,1.6-6.1
	c3.5-9.9,10.3-16.2,12.8-16.2c2.4,0,9.2,6.3,12.8,16.2l0,0C551.9,222.4,551.5,230.9,548,236L548,236z"/>
<polygon class="st0" points="566.2,192.8 560.3,192.8 560.3,245.4 581.7,245.4 581.7,239.6 566.2,239.6 "/>
<polygon class="st0" points="613.7,225.4 604.8,193 598.7,193 613.7,247.4 628.8,193 622.7,193 "/>
<rect x="587.7" y="193" class="st0" width="5.8" height="52.6"/>
<rect x="634.9" y="193" class="st0" width="5.8" height="52.6"/>
<path class="st0" d="M648.7,191.7v53.7h6v-19.3h14.8c2.1,6.2,3.3,12.8,3.4,19.3h5.9C678.7,238.3,676.8,208.6,648.7,191.7z
	 M654.6,220.3v-16.7c5.2,4.7,9.4,10.4,12.3,16.8L654.6,220.3z"/>
<path class="st3" d="M499.9,186.6c-4.9-14.1-12.3-27.2-21.9-38.6c-4.6-5.4-13.1-13.8-21.8-16.1V98.4c5.6,0.7,10.2,2.8,13.6,6.2
	c6,6,7.2,14.7,7.2,21.1v3.1c2.9,2.3,5.4,4.7,7.8,7.5l0.9-0.9l16.6-18.8c3.7,4.1,5.6,8.6,6,13.2c0.5,8.2-4.2,15.4-8.2,20.1l-0.1,0.1
	c1.6,2.6,3,5.3,4.5,7.9l13.3-15.2l0,0l4.5-5.1c3.7,4.1,5.6,8.6,6,13.2c0.5,8.3-4.3,15.5-8.3,20.2l-18.3,20.7
	C501.1,189.9,500.5,188.3,499.9,186.6z"/>
<path class="st3" d="M447.5,238.4c-3.6-0.6-6.8-2.6-8.9-5.4c-2.4-3.4-2.9-7.7-1.2-12c1.2-3.4,5.7-7.8,10.2-11.3V238.4z"/>
<path class="st2" d="M447.5,142.3L447.5,142.3v27.4l-38.3,30.9c0.9-3.7,1.9-7.3,3.1-10.8c8.8-25.4,25.1-43.5,35.1-48.1L447.5,142.3z
	"/>
<path class="st2" d="M447.5,273.5c-11.5-0.8-20.7-4.6-27.6-11.5c-6.2-6.2-13.5-17.9-13.4-38.9c0-5.2,0.4-10.3,1.3-15.3
	c0.1-0.7,0.3-1.5,0.4-2.2H439c-4,3.6-8,8-9.6,12.5c-2.5,7-1.6,14.3,2.3,19.9c3.6,5,9.2,8.3,16,9.2L447.5,273.5L447.5,273.5z"/>
<path class="st0" d="M800.2,250.5c-0.3-0.1-0.5-0.1-0.7-0.1c-1.7,0-2.5,1.6-2.5,3.1c0,1.5,0.8,3.3,2.5,3.3c0.3,0,0.5-0.1,0.8-0.2
	v1.9c-0.3,0.1-0.6,0.2-0.9,0.2c-2.9,0-4.5-2.6-4.5-5.2c0-2.5,1.6-5,4.4-5c0.4,0,0.7,0.1,1,0.2L800.2,250.5L800.2,250.5L800.2,250.5z
	"/>
<path class="st0" d="M803.5,248.6v3.9h2v-3.9h2v10h-2v-4.3h-2v4.3h-2v-10H803.5z"/>
<path class="st0" d="M811.3,248.6v10h-2v-10H811.3z"/>
<path class="st0" d="M818,250.5c-0.3-0.1-0.4-0.1-0.7-0.1c-1.7,0-2.5,1.6-2.5,3.1c0,1.5,0.8,3.3,2.5,3.3c0.3,0,0.5-0.1,0.8-0.2v1.9
	c-0.3,0.1-0.6,0.2-0.9,0.2c-2.9,0-4.5-2.6-4.5-5.2c0-2.5,1.6-5,4.4-5c0.4,0,0.7,0.1,1,0.2L818,250.5z"/>
<path class="st0" d="M821.3,248.6v4.5l0,0l1.6-4.5h2.1l-1.9,4.6l2.1,5.4h-2.1l-1.8-5.1l0,0v5.1h-2v-10H821.3z"/>
<path class="st0" d="M830.5,248.6v1.9h-2v2.1h1.8v1.9h-1.8v2.2h2.1v1.9h-4v-10H830.5z"/>
<path class="st0" d="M834,248.6l2.5,6.1l0,0c-0.1-0.5-0.2-1-0.2-1.5v-4.5h2v10h-1.9l-2.4-6.1l0,0l0.1,1v0.4v4.5h-2v-10H834z"/>
<path class="st0" d="M843.2,258.6v-10h2.1c0.4,0,3.4-0.3,3.4,2.9c0.1,1.5-1.1,2.9-2.6,2.9c-0.2,0-0.4,0-0.4,0h-0.4v4.1L843.2,258.6z
	 M845.2,252.9c1,0,1.5-0.4,1.5-1.3c0-0.7-0.3-1.3-1.2-1.3h-0.4V252.9L845.2,252.9z"/>
<path class="st0" d="M853.3,248.6l2.4,10h-2.1l-0.4-1.7h-2l-0.4,1.7h-2l2.3-10H853.3z M852.5,252.7l-0.2-1.5l0,0l-0.2,1.5l-0.4,2.7
	h1.4L852.5,252.7z"/>
<path class="st0" d="M861,251c-0.4-0.4-0.9-0.6-1.4-0.6c-0.5-0.1-1,0.4-1,0.8c0,0.1,0,0.1,0,0.2c0,1.6,3,1.7,3,4.5
	c0,1.8-1,3.1-2.9,3.1c-0.6,0-1.2-0.2-1.7-0.5v-1.9c0.4,0.4,1,0.5,1.5,0.5c0.6,0,1.1-0.4,1.2-1V256c0-0.8-0.6-1.1-1.2-1.4
	c-1.2-0.8-1.9-1.5-1.9-2.9s0.9-2.9,2.6-2.9c0.6,0,1.2,0.2,1.7,0.5L861,251z"/>
<path class="st0" d="M867.6,248.6v1.9h-1.5v8.1h-2v-8.1h-1.5v-1.9H867.6z"/>
<path class="st0" d="M870.8,248.6v6.5c0,0.8-0.1,1.9,1,1.9c1.1,0,1-0.7,1-1.5v-6.9h2v7.3c0,1.1-0.1,2.9-2.9,2.9
	c-1.9,0-2.9-0.9-2.9-2.8v-7.4H870.8z"/>
<path class="st0" d="M876.4,258.6v-10h2c1.2,0,3.5,0.1,3.5,2.9c0.1,1.1-0.5,2.1-1.4,2.6l1.7,4.5h-2.1l-1.7-4.6l0,0v4.6H876.4z
	 M878.4,252.9h0.4c0.9,0,1.2-0.6,1.2-1.4c0.1-0.6-0.4-1.2-1-1.2c-0.1,0-0.3,0-0.4,0h-0.3V252.9z"/>
<path class="st0" d="M887.7,248.6v1.9h-2v2.1h1.8v1.9h-1.8v2.2h2.1v1.9h-4v-10H887.7z"/>
<path class="st0" d="M780,189.1c-6.1,0-14.5,9.2-18.4,20.2c-0.8,2.3-1.4,4.7-1.9,7.1c-0.4,2-0.5,4-0.5,6.1c0,7,2.1,12.8,6,16.7
	c3.7,3.7,8.6,5.5,14.7,5.5c9.2,0,14.2-4.3,16.7-7.8c4.7-6.7,5.4-17.2,1.7-27.5C794.4,198.4,786.1,189.1,780,189.1z M791.9,233.3
	c-2.5,3.6-6.5,5.4-11.9,5.4c-4.5,0-8-1.2-10.5-3.7c-3.6-3.6-4.3-8.7-4.3-12.4c0-1.7,0.2-3.4,0.4-5.1c0.4-2.1,0.9-4.1,1.6-6.1
	c3.5-9.9,10.3-16.2,12.8-16.2c2.4,0,9.2,6.3,12.8,16.2l0,0C795.8,219.8,795.4,228.2,791.9,233.3z"/>
<polygon class="st0" points="810,190.2 804.2,190.2 804.2,242.8 825.5,242.8 825.5,237 810,237 "/>
<polygon class="st0" points="857.6,222.9 848.6,190.3 842.5,190.3 857.6,244.7 872.7,190.3 866.6,190.3 "/>
<rect x="831.5" y="190.3" class="st0" width="5.8" height="52.6"/>
<rect x="878.6" y="190.3" class="st0" width="5.8" height="52.6"/>
<path class="st0" d="M892.5,189.1v53.7h6v-19.3h14.8c2.1,6.2,3.3,12.8,3.4,19.3h6C922.5,235.6,920.6,206,892.5,189.1z M898.4,217.6
	v-16.7c5.2,4.7,9.4,10.3,12.4,16.7H898.4z"/>
</svg>
