<svg xmlns="http://www.w3.org/2000/svg" viewBox="0 0 443.92 152.54">
  <defs>
    <style>
      .cls-1{
      fill:#414042;
      }
    </style>
  </defs>
  <path class="cls-1" d="M56.27,0C39.81,0,17,25,6.44,54.69a114.5,114.5,0,0,0-5,19.24A101.79,101.79,0,0,0,0,90.39c0,18.88,5.61,34.52,16.29,45.22,9.89,9.91,23.34,14.93,40,14.93,25,0,38.47-11.58,45.32-21.3,12.73-18,14.45-46.6,4.5-74.55C95.54,25,72.73,0,56.27,0Zm32.1,119.92c-6.76,9.58-17.56,14.44-32.1,14.44-12.18,0-21.78-3.43-28.53-10.18-9.58-9.6-11.58-23.66-11.56-33.76a84.91,84.91,0,0,1,1.2-13.81,98.5,98.5,0,0,1,4.3-16.5c9.56-26.82,28.08-43.93,34.59-43.93s25,17.11,34.58,43.93h0C99.06,83.19,98.11,106.11,88.37,119.92Z"/>
  <rect class="cls-1" x="330.09" y="1.53" width="16.18" height="143.91"/>
  <rect class="cls-1" x="198.56" y="1.53" width="16.18" height="143.91"/>
  <polygon class="cls-1" points="139.41 1.53 123.23 1.53 123.23 145.4 182.51 145.4 182.51 129.22 139.41 129.22 139.41 1.53"/>
  <polygon class="cls-1" points="297.25 1.53 272.28 91.83 247.31 1.53 230.52 1.53 272.28 152.54 314.04 1.53 297.25 1.53"/>
  <path class="cls-1" d="M362.31.67V146.22h16.1V84.07h36.4a165.17,165.17,0,0,1,13,62.15h16.07C443.81,126.67,438.57,46.39,362.31.67ZM378.41,68V32.51A144.84,144.84,0,0,1,406.82,68Z"/>
</svg>
