<?xml version="1.0" encoding="utf-8"?>
<!-- Generator: Adobe Illustrator 23.0.3, SVG Export Plug-In . SVG Version: 6.00 Build 0)  -->
<svg version="1.1" id="Layer_1" xmlns="http://www.w3.org/2000/svg" xmlns:xlink="http://www.w3.org/1999/xlink" x="0px" y="0px"
	 viewBox="0 0 1280 362" style="enable-background:new 0 0 1280 362;" xml:space="preserve">
<style type="text/css">
	.st0{fill:none;}
	.st1{fill:#8767AD;}
	.st2{fill:#FFFFFF;}
</style>
<rect x="-1.2" y="-0.6" class="st0" width="1280" height="362.6"/>
<title>Asset 6</title>
<g id="Layer_2_1_">
	<g id="Layer_1-2">
		<circle class="st1" cx="638.8" cy="170.4" r="127.1"/>
		<path class="st2" d="M572.3,159.6h6.1V186h-6.1v-2.8c-2.5,2.3-5.2,3.5-8.1,3.5c-3.4,0.1-6.8-1.4-9-3.9c-2.3-2.7-3.5-6.1-3.5-10.1
			c0-3.9,1.2-7.3,3.5-9.9c2.2-2.6,5.5-4,8.8-3.9c3.1,0,5.9,1.2,8.3,3.8V159.6z M557.9,172.8c0,2.5,0.7,4.6,2,6.1
			c1.3,1.6,3.2,2.4,5.2,2.4c2,0.1,4.1-0.7,5.5-2.3c1.4-1.6,2-3.6,2-6.1c0-2.4-0.7-4.5-2-6.1c-1.4-1.6-3.4-2.4-5.4-2.3
			c-2,0-3.9,0.8-5.2,2.4C558.6,168.5,557.8,170.6,557.9,172.8z"/>
		<path class="st2" d="M590.9,159.6v15.1c0,4.4,1.7,6.6,5.1,6.6c3.4,0,5.1-2.2,5.1-6.6v-15.1h6.1v15.3c0,1.9-0.3,3.7-0.7,5.5
			c-0.6,1.5-1.5,2.7-2.6,3.7c-2,1.8-4.7,2.7-7.8,2.7c-3.2,0-5.8-0.9-7.8-2.7c-1.2-0.9-2.1-2.2-2.7-3.7c-0.5-1.2-0.7-3.1-0.7-5.5
			v-15.3H590.9z"/>
		<path class="st2" d="M638.4,185.4c0,1.2,0,2.3-0.1,3.3c-0.1,0.8-0.2,1.7-0.4,2.5c-0.4,2-1.2,3.6-2.5,5.1c-2.4,2.7-5.7,4.1-9.8,4.1
			c-3.5,0-6.4-0.9-8.7-2.9c-2.3-2-3.7-4.7-4.1-8.1h6.1c0.2,1.1,0.6,2.1,1.2,3c1.2,1.7,3.2,2.4,5.5,2.4c4.5,0,6.7-2.7,6.7-8.2v-3.5
			c-2.4,2.4-5.2,3.7-8.4,3.7c-3.6,0-6.5-1.3-8.8-3.9c-2.3-2.6-3.4-5.9-3.4-9.9c0-3.8,1-7.1,3.2-9.8c2.3-2.9,5.4-4.3,9.1-4.3
			c3.2-0.1,6.2,1.3,8.3,3.7v-3h6.1V185.4z M632.5,172.9c0-2.5-0.7-4.7-2-6.1c-1.3-1.5-3.3-2.4-5.3-2.3c-2.3,0-4.1,0.8-5.5,2.6
			c-1.2,1.5-1.8,3.5-1.8,6c0,2.4,0.6,4.4,1.8,5.9c1.3,1.7,3.2,2.5,5.5,2.5s4.2-0.8,5.5-2.5C631.8,177.2,632.5,175.3,632.5,172.9
			L632.5,172.9z"/>
		<path class="st2" d="M645.2,183c0.1-2,1.9-3.7,3.9-3.6c2,0.1,3.5,1.7,3.6,3.6c0.1,2-1.6,3.8-3.6,3.9c-2,0.1-3.8-1.6-3.9-3.6
			C645.2,183.1,645.2,183.1,645.2,183z"/>
		<path class="st2" d="M678,159.6h6.1V186H678v-2.8c-2.5,2.3-5.2,3.5-8.1,3.5c-3.4,0.1-6.8-1.4-9-3.9c-2.3-2.7-3.5-6.1-3.5-10.1
			c0-3.9,1.2-7.3,3.5-9.9c2.2-2.6,5.5-4,8.8-3.9c3.1,0,5.9,1.2,8.3,3.8V159.6z M663.6,172.8c0,2.5,0.7,4.6,2,6.1
			c1.3,1.6,3.2,2.4,5.2,2.4c2,0.1,4.1-0.7,5.5-2.3c1.4-1.6,2-3.6,2-6.1c0-2.4-0.7-4.5-2-6.1c-1.4-1.6-3.4-2.4-5.4-2.3
			c-2,0-3.9,0.8-5.2,2.4C664.3,168.5,663.6,170.6,663.6,172.8L663.6,172.8z"/>
		<path class="st2" d="M690.9,159.6h6.1v2.3c0.8-0.9,1.9-1.8,3-2.4c0.9-0.5,2-0.7,3.2-0.7c1.8,0,3.5,0.6,5,1.6l-2.8,5.6
			c-0.9-0.7-2.1-1.2-3.4-1.2c-3.4,0-4.9,2.5-4.9,7.5v13.7h-6.1L690.9,159.6L690.9,159.6z"/>
		<path class="st2" d="M721.2,165.3V186h-6.1v-20.7h-2.6v-5.7h2.6v-9.7h6.1v9.7h4.7v5.7H721.2z"/>
	</g>
</g>
</svg>
