<?xml version="1.0" encoding="utf-8"?>
<!-- Generator: Adobe Illustrator 22.1.0, SVG Export Plug-In . SVG Version: 6.00 Build 0)  -->
<svg version="1.1" id="Layer_1" xmlns="http://www.w3.org/2000/svg" xmlns:xlink="http://www.w3.org/1999/xlink" x="0px" y="0px"
	 viewBox="0 0 1280 720" style="enable-background:new 0 0 1280 720;" xml:space="preserve">
<style type="text/css">
	.st0{fill:#FFFFFF;}
	.st1{fill:#8767AD;}
</style>
<rect class="st0" width="1280" height="720"/>
<title>Asset 6</title>
<g id="Layer_2_1_">
	<g id="Layer_1-2">
		<circle class="st1" cx="665.2" cy="365.8" r="325.2"/>
		<path class="st0" d="M495.2,338.1h15.6v67.4h-15.6v-7.1c-6.4,6-13.3,9-20.7,9c-8.8,0.2-17.3-3.5-23.1-10.1
			c-6-6.9-9.1-15.5-9.1-25.8c0-10.1,3-18.5,9.1-25.3c5.7-6.6,14-10.3,22.7-10.1c7.8,0,14.9,3.2,21.1,9.7V338.1z M458.2,371.6
			c0,6.5,1.7,11.7,5.2,15.8c3.3,4,8.2,6.3,13.4,6.2c5.3,0.2,10.5-2,14-6c3.6-4.1,5.3-9.3,5.3-15.6c0-6.3-1.8-11.5-5.3-15.6
			c-3.5-4-8.6-6.2-13.9-6c-5.2-0.1-10.1,2.1-13.4,6.1C459.9,360.7,458,366.1,458.2,371.6z"/>
		<path class="st0" d="M542.6,338.1v38.7c0,11.2,4.4,16.8,13.2,16.8c8.8,0,13.2-5.6,13.2-16.8v-38.7h15.6v39c0.1,4.7-0.6,9.5-2,14
			c-1.4,3.7-3.7,6.9-6.7,9.5c-5.3,4.6-12,6.9-20.1,6.9c-8.1,0-14.8-2.3-20-6.9c-3-2.5-5.4-5.8-6.9-9.5c-1.3-3.1-1.9-7.8-1.9-14v-39
			H542.6z"/>
		<path class="st0" d="M663.9,404c0,3.2-0.1,6-0.3,8.4c-0.2,2.1-0.5,4.3-0.9,6.4c-1,4.9-3.2,9.4-6.5,13.1
			c-6.1,7-14.5,10.5-25.1,10.5c-9,0-16.4-2.4-22.2-7.3c-6-5-9.5-11.9-10.4-20.7h15.7c0.4,2.8,1.4,5.4,3,7.7c3.2,4.2,8,6.3,14.1,6.3
			c11.4,0,17.1-7,17.1-21V398c-6.2,6.3-13.3,9.5-21.4,9.5c-9.2,0-16.7-3.3-22.6-10c-5.9-6.7-8.8-15.1-8.9-25.3
			c0-9.8,2.7-18.2,8.2-25.1c5.9-7.3,13.7-10.9,23.4-10.9c8.1-0.2,15.9,3.3,21.2,9.5v-7.6h15.6L663.9,404z M648.9,372
			c0-6.5-1.8-11.8-5.3-15.7c-3.4-3.9-8.4-6.1-13.6-6c-5.9,0-10.6,2.2-14,6.6c-3.1,3.9-4.6,9-4.6,15.2c0,6.2,1.5,11.2,4.6,15.1
			c3.3,4.3,8,6.4,14,6.4c6,0,10.7-2.2,14.1-6.5C647.3,383.1,648.9,378.1,648.9,372L648.9,372z"/>
		<path class="st0" d="M681.7,397.8c0.2-5.3,4.7-9.5,10-9.3c5.1,0.2,9.1,4.3,9.3,9.4c0.2,5.3-4,9.7-9.4,9.9c-5.3,0.2-9.7-4-9.9-9.4
			C681.7,398.2,681.7,398,681.7,397.8z"/>
		<path class="st0" d="M765.6,338.1h15.6v67.4h-15.6v-7.1c-6.4,6-13.3,9-20.7,9c-8.8,0.2-17.3-3.5-23.1-10.1
			c-6-6.9-9.1-15.5-9.1-25.8c0-10.1,3-18.5,9.1-25.3c5.7-6.6,14-10.3,22.7-10.1c7.8,0,14.9,3.2,21.1,9.7L765.6,338.1z M728.6,371.6
			c0,6.5,1.7,11.7,5.2,15.8c3.3,4,8.2,6.3,13.4,6.2c5.3,0.2,10.5-2,14-6c3.5-4.1,5.3-9.3,5.3-15.6c0-6.3-1.8-11.5-5.3-15.6
			c-3.5-4-8.6-6.2-13.9-6c-5.2-0.1-10.1,2.1-13.4,6.1C730.4,360.6,728.5,366.1,728.6,371.6L728.6,371.6z"/>
		<path class="st0" d="M798.5,338.1h15.6v6c2.2-2.5,4.8-4.5,7.6-6.2c2.5-1.2,5.2-1.8,8-1.7c4.6,0.1,9,1.5,12.9,4l-7.1,14.3
			c-2.5-2-5.5-3.1-8.7-3.2c-8.5,0-12.7,6.4-12.7,19.2v35h-15.5V338.1z"/>
		<path class="st0" d="M876,352.6v52.9h-15.6v-52.9h-6.7v-14.5h6.7v-24.7H876v24.7h12.1v14.5H876z"/>
	</g>
</g>
</svg>
