<?xml version="1.0" encoding="utf-8"?>
<!-- Generator: Adobe Illustrator 23.0.6, SVG Export Plug-In . SVG Version: 6.00 Build 0)  -->
<svg version="1.1" id="Layer_1" xmlns="http://www.w3.org/2000/svg" xmlns:xlink="http://www.w3.org/1999/xlink" x="0px" y="0px"
	 viewBox="0 0 792 600" style="enable-background:new 0 0 792 600;" xml:space="preserve">
<style type="text/css">
	.st0{fill:#F6ED56;}
	.st1{fill:#3B3B4D;}
	.st2{fill:#404041;}
	.st3{fill:none;}
	.st4{fill:#8D6DAF;}
	.st5{fill:#FFFFFF;}
	.st6{fill:#02B6B2;}
	.st7{fill:#F8EAA7;}
	.st8{fill:#FFDA83;}
	.st9{fill:#D93B4D;}
</style>
<polygon class="st0" points="538.2,281.3 527.9,125 684.9,153 676.5,263.3 "/>
<path class="st1" d="M544,276.1c-0.2,0-0.4-0.1-0.6-0.2c-0.3-0.2-0.4-0.5-0.4-0.8l-10.4-156.3c0-0.3,0.1-0.6,0.3-0.8
	c0.2-0.2,0.5-0.3,0.8-0.2l157,28c0.5,0.1,0.9,0.5,0.8,1.1l-8.4,110.3c0,0.4-0.3,0.7-0.7,0.9l-138.3,18
	C544.2,276.1,544.1,276.1,544,276.1z M534.7,120.1L545,273.7l136.4-17.4l8.3-108.7L534.7,120.1z"/>
<g>
	<path class="st1" d="M577.2,174.2c0.6,0,1.2,0.2,1.7,0.6c1,0.9,1.1,2.5,0.2,3.5l-37.7,41.7l48.5,36.9c1.1,0.8,1.3,2.4,0.5,3.5
		c-0.5,0.6-1.2,1-2,1c-0.5,0-1.1-0.2-1.5-0.5l-50.6-38.6c-0.6-0.4-0.9-1.1-1-1.8s0.2-1.4,0.6-1.9l39.5-43.7
		C575.9,174.5,576.6,174.2,577.2,174.2 M577.2,172.2L577.2,172.2c-1.3,0-2.5,0.5-3.3,1.5l-39.5,43.7c-0.8,0.9-1.3,2.2-1.1,3.4
		c0.1,1.2,0.7,2.4,1.7,3.2l50.6,38.6c0.8,0.6,1.7,0.9,2.7,0.9c1.4,0,2.7-0.6,3.6-1.8c0.7-1,1-2.1,0.9-3.3c-0.2-1.2-0.8-2.3-1.7-3
		l-46.7-35.6l36.2-40.1c0.8-0.9,1.2-2,1.2-3.2c-0.1-1.2-0.6-2.3-1.5-3.1C579.4,172.7,578.3,172.2,577.2,172.2L577.2,172.2z"/>
</g>
<path class="st1" d="M447.7,191.4H40.8c-7.2,0-13-5.8-13-13V82.6c0-7.2,5.8-13,13-13h406.9c7.2,0,13,5.8,13,13v95.9
	C460.7,185.6,454.9,191.4,447.7,191.4z M40.8,71.6c-6.1,0-11,4.9-11,11v95.9c0,6.1,4.9,11,11,11h406.9c6.1,0,11-4.9,11-11V82.6
	c0-6.1-4.9-11-11-11H40.8z"/>
<path class="st1" d="M447.7,507.9H40.8c-7.2,0-13-5.8-13-13V362.6c0-7.2,5.8-13,13-13h406.9c7.2,0,13,5.8,13,13v132.3
	C460.7,502,454.9,507.9,447.7,507.9z M40.8,351.6c-6.1,0-11,4.9-11,11v132.3c0,6.1,4.9,11,11,11h406.9c6.1,0,11-4.9,11-11V362.6
	c0-6.1-4.9-11-11-11H40.8z"/>
<g>
	<path class="st2" d="M24.8,36.6h-1.1v-9H25c2.8,0,3.6,1,3.6,2.6c0,1.9-1.5,2.6-3.2,2.6h-0.6V36.6z M24.8,31.8h0.4
		c1.2,0,2.4-0.2,2.4-1.7c0-1.4-1.3-1.6-2.5-1.6h-0.3V31.8z"/>
	<path class="st2" d="M30.6,31.9L30.6,31.9c0.3-0.7,0.9-1.1,1.6-1.1c0.3,0,0.6,0.1,0.9,0.3l-0.5,1c-0.2-0.2-0.4-0.2-0.7-0.2
		c-1.2,0-1.3,1.1-1.3,2v2.8h-1.1V31h1.1V31.9z"/>
	<path class="st2" d="M35.2,28.4c0,0.4-0.3,0.7-0.7,0.7c-0.4,0-0.7-0.3-0.7-0.7c0-0.4,0.3-0.8,0.7-0.8C34.9,27.7,35.2,28,35.2,28.4z
		 M35,36.6h-1.1V31H35V36.6z"/>
	<path class="st2" d="M37.8,31.7L37.8,31.7c0.3-0.5,0.9-0.9,1.5-0.9c0.7,0,1.3,0.4,1.6,1c0.3-0.6,1-1,1.7-1c1.5,0,1.9,1.2,1.9,2.4
		v3.4h-1.1v-3.2c0-0.7-0.1-1.6-1-1.6c-1.2,0-1.2,1.2-1.2,2.1v2.8h-1.1v-3c0-0.7,0-1.8-1-1.8c-1.2,0-1.2,1.2-1.2,2.1v2.8h-1.1V31h1.1
		V31.7z"/>
	<path class="st2" d="M51.2,36.6h-1.1v-0.9h0c-0.4,0.6-1.1,1.1-1.9,1.1c-1.7,0-2.7-1.4-2.7-3c0-1.5,1-2.9,2.7-2.9
		c0.8,0,1.5,0.4,1.9,1.1h0V31h1.1V36.6z M50.2,33.8c0-1.1-0.7-2-1.8-2c-1.1,0-1.8,1-1.8,2c0,1.1,0.6,2,1.8,2
		C49.5,35.8,50.2,34.9,50.2,33.8z"/>
	<path class="st2" d="M53.8,31.9L53.8,31.9c0.3-0.7,0.9-1.1,1.6-1.1c0.3,0,0.6,0.1,0.9,0.3l-0.5,1c-0.2-0.2-0.4-0.2-0.7-0.2
		c-1.2,0-1.3,1.1-1.3,2v2.8h-1.1V31h1.1V31.9z"/>
	<path class="st2" d="M56.4,31h1.3l1.9,3.6l1.8-3.6h1.2L58,39.8h-1.2l2.2-4.2L56.4,31z"/>
	<path class="st2" d="M68,34.3l-1,2.3h-1.2l4.3-9.4l4.3,9.4h-1.2l-1-2.3H68z M70.1,29.6l-1.6,3.7h3.2L70.1,29.6z"/>
	<path class="st2" d="M76.1,31v3.1c0,0.9,0.2,1.7,1.3,1.7s1.3-0.8,1.3-1.7V31h1.1v3.2c0,1.5-0.7,2.6-2.4,2.6s-2.4-1-2.4-2.6V31H76.1
		z"/>
	<path class="st2" d="M85.4,35.7L85.4,35.7c-0.5,0.6-1.1,1.1-1.9,1.1c-1.7,0-2.7-1.4-2.7-3c0-1.5,1-2.9,2.6-2.9c0.8,0,1.5,0.4,2,1.1
		h0v-5.7h1.1v10.4h-1.1V35.7z M85.4,33.8c0-1.1-0.7-2-1.8-2c-1.1,0-1.8,1-1.8,2c0,1.1,0.6,2,1.8,2C84.8,35.8,85.4,34.9,85.4,33.8z"
		/>
	<path class="st2" d="M89.4,28.4c0,0.4-0.3,0.7-0.7,0.7c-0.4,0-0.7-0.3-0.7-0.7c0-0.4,0.3-0.8,0.7-0.8C89,27.7,89.4,28,89.4,28.4z
		 M89.2,36.6h-1.1V31h1.1V36.6z"/>
	<path class="st2" d="M91.5,34c0,1,0.7,1.9,1.7,1.9c0.8,0,1.3-0.4,1.7-1.1l0.9,0.5c-0.5,1-1.5,1.5-2.6,1.5c-1.7,0-2.8-1.3-2.8-3
		c0-1.7,0.9-3,2.7-3c1.8,0,2.6,1.3,2.6,3V34H91.5z M94.7,33.2c-0.1-0.8-0.7-1.4-1.5-1.4c-0.8,0-1.5,0.6-1.6,1.4H94.7z"/>
	<path class="st2" d="M97.8,31.7L97.8,31.7c0.4-0.6,1-0.9,1.7-0.9c1.6,0,2,1.1,2,2.4v3.3h-1.1v-3.2c0-1-0.1-1.6-1.2-1.6
		c-1.4,0-1.4,1.2-1.4,2.2v2.6h-1.1V31h1.1V31.7z"/>
	<path class="st2" d="M107.1,32.6c-0.4-0.5-1-0.8-1.6-0.8c-1.1,0-1.9,0.9-1.9,2c0,1.2,0.8,2,1.9,2c0.6,0,1.1-0.3,1.5-0.7v1.4
		c-0.5,0.3-1,0.4-1.5,0.4c-1.7,0-3-1.3-3-3c0-1.7,1.3-3,3.1-3c0.5,0,1.1,0.1,1.5,0.4V32.6z"/>
	<path class="st2" d="M109,34c0,1,0.7,1.9,1.7,1.9c0.8,0,1.3-0.4,1.7-1.1l0.9,0.5c-0.5,1-1.5,1.5-2.6,1.5c-1.7,0-2.8-1.3-2.8-3
		c0-1.7,0.9-3,2.7-3c1.8,0,2.6,1.3,2.6,3V34H109z M112.2,33.2c-0.1-0.8-0.7-1.4-1.5-1.4c-0.8,0-1.5,0.6-1.6,1.4H112.2z"/>
</g>
<g>
	<path class="st2" d="M27.7,310c-0.3-0.6-0.8-0.9-1.5-0.9c-0.7,0-1.5,0.5-1.5,1.3c0,0.7,0.7,1.1,1.3,1.3l0.6,0.3
		c1.3,0.5,2.2,1.2,2.2,2.7c0,1.6-1.3,2.8-2.9,2.8c-1.5,0-2.6-1.1-2.8-2.5l1.1-0.2c0,1,0.8,1.7,1.8,1.7s1.7-0.8,1.7-1.8
		c0-1-0.8-1.4-1.6-1.7l-0.6-0.3c-1-0.4-2-1-2-2.3c0-1.5,1.3-2.3,2.7-2.3c1,0,1.8,0.5,2.3,1.4L27.7,310z"/>
	<path class="st2" d="M30.6,314.7c0,1,0.7,1.9,1.7,1.9c0.8,0,1.3-0.4,1.7-1.1l0.9,0.5c-0.5,1-1.5,1.5-2.6,1.5c-1.7,0-2.8-1.3-2.8-3
		c0-1.7,0.9-3,2.7-3c1.8,0,2.6,1.3,2.6,3v0.2H30.6z M33.8,313.8c-0.1-0.8-0.7-1.4-1.5-1.4c-0.8,0-1.5,0.6-1.6,1.4H33.8z"/>
	<path class="st2" d="M40,313.3c-0.4-0.5-1-0.8-1.6-0.8c-1.1,0-1.9,0.9-1.9,2c0,1.2,0.8,2,1.9,2c0.6,0,1.1-0.3,1.5-0.7v1.4
		c-0.5,0.3-1,0.4-1.5,0.4c-1.7,0-3-1.3-3-3c0-1.7,1.3-3,3.1-3c0.5,0,1.1,0.1,1.5,0.4V313.3z"/>
	<path class="st2" d="M46.6,314.5c0,1.7-1.3,3-3,3s-3-1.3-3-3c0-1.7,1.3-3,3-3S46.6,312.8,46.6,314.5z M41.7,314.5
		c0,1.1,0.9,2,1.9,2s1.9-0.9,1.9-2c0-1.1-0.9-2-1.9-2S41.7,313.4,41.7,314.5z"/>
	<path class="st2" d="M48.7,312.4L48.7,312.4c0.4-0.6,1-0.9,1.7-0.9c1.6,0,2,1.1,2,2.4v3.3h-1.1v-3.2c0-1-0.1-1.6-1.2-1.6
		c-1.4,0-1.4,1.2-1.4,2.2v2.6h-1.1v-5.6h1.1V312.4z"/>
	<path class="st2" d="M58.1,316.4L58.1,316.4c-0.5,0.6-1.1,1.1-1.9,1.1c-1.7,0-2.7-1.4-2.7-3c0-1.5,1-2.9,2.6-2.9
		c0.8,0,1.5,0.4,2,1.1h0v-5.7h1.1v10.4h-1.1V316.4z M58.1,314.5c0-1.1-0.7-2-1.8-2c-1.1,0-1.8,1-1.8,2c0,1.1,0.6,2,1.8,2
		C57.5,316.5,58.1,315.6,58.1,314.5z"/>
	<path class="st2" d="M65.8,317.3h-1.1v-0.9h0c-0.4,0.6-1.1,1.1-1.9,1.1c-1.7,0-2.7-1.4-2.7-3c0-1.5,1-2.9,2.7-2.9
		c0.8,0,1.5,0.4,1.9,1.1h0v-0.9h1.1V317.3z M64.8,314.5c0-1.1-0.7-2-1.8-2c-1.1,0-1.8,1-1.8,2c0,1.1,0.6,2,1.8,2
		C64.2,316.5,64.8,315.6,64.8,314.5z"/>
	<path class="st2" d="M68.4,312.6L68.4,312.6c0.3-0.7,0.9-1.1,1.6-1.1c0.3,0,0.6,0.1,0.9,0.3l-0.5,1c-0.2-0.2-0.4-0.2-0.7-0.2
		c-1.2,0-1.3,1.1-1.3,2v2.8h-1.1v-5.6h1.1V312.6z"/>
	<path class="st2" d="M71,311.7h1.3l1.9,3.6l1.8-3.6h1.2l-4.5,8.8h-1.2l2.2-4.2L71,311.7z"/>
	<path class="st2" d="M82.6,315l-1,2.3h-1.2l4.3-9.4l4.3,9.4h-1.2l-1-2.3H82.6z M84.7,310.3l-1.6,3.7h3.2L84.7,310.3z"/>
	<path class="st2" d="M90.7,311.7v3.1c0,0.9,0.2,1.7,1.3,1.7s1.3-0.8,1.3-1.7v-3.1h1.1v3.2c0,1.5-0.7,2.6-2.4,2.6s-2.4-1-2.4-2.6
		v-3.2H90.7z"/>
	<path class="st2" d="M100,316.4L100,316.4c-0.5,0.6-1.1,1.1-1.9,1.1c-1.7,0-2.7-1.4-2.7-3c0-1.5,1-2.9,2.6-2.9c0.8,0,1.5,0.4,2,1.1
		h0v-5.7h1.1v10.4H100V316.4z M100,314.5c0-1.1-0.7-2-1.8-2c-1.1,0-1.8,1-1.8,2c0,1.1,0.6,2,1.8,2C99.4,316.5,100,315.6,100,314.5z"
		/>
	<path class="st2" d="M104,309.1c0,0.4-0.3,0.7-0.7,0.7c-0.4,0-0.7-0.3-0.7-0.7c0-0.4,0.3-0.8,0.7-0.8
		C103.6,308.4,104,308.7,104,309.1z M103.8,317.3h-1.1v-5.6h1.1V317.3z"/>
	<path class="st2" d="M106.2,314.7c0,1,0.7,1.9,1.7,1.9c0.8,0,1.3-0.4,1.7-1.1l0.9,0.5c-0.5,1-1.5,1.5-2.6,1.5c-1.7,0-2.8-1.3-2.8-3
		c0-1.7,0.9-3,2.7-3c1.8,0,2.6,1.3,2.6,3v0.2H106.2z M109.4,313.8c-0.1-0.8-0.7-1.4-1.5-1.4c-0.8,0-1.5,0.6-1.6,1.4H109.4z"/>
	<path class="st2" d="M112.4,312.4L112.4,312.4c0.4-0.6,1-0.9,1.7-0.9c1.6,0,2,1.1,2,2.4v3.3h-1.1v-3.2c0-1-0.1-1.6-1.2-1.6
		c-1.4,0-1.4,1.2-1.4,2.2v2.6h-1.1v-5.6h1.1V312.4z"/>
	<path class="st2" d="M121.8,313.3c-0.4-0.5-1-0.8-1.6-0.8c-1.1,0-1.9,0.9-1.9,2c0,1.2,0.8,2,1.9,2c0.6,0,1.1-0.3,1.5-0.7v1.4
		c-0.5,0.3-1,0.4-1.5,0.4c-1.7,0-3-1.3-3-3c0-1.7,1.3-3,3.1-3c0.5,0,1.1,0.1,1.5,0.4V313.3z"/>
	<path class="st2" d="M123.6,314.7c0,1,0.7,1.9,1.7,1.9c0.8,0,1.3-0.4,1.7-1.1l0.9,0.5c-0.5,1-1.5,1.5-2.6,1.5c-1.7,0-2.8-1.3-2.8-3
		c0-1.7,0.9-3,2.7-3c1.8,0,2.6,1.3,2.6,3v0.2H123.6z M126.8,313.8c-0.1-0.8-0.7-1.4-1.5-1.4c-0.8,0-1.5,0.6-1.6,1.4H126.8z"/>
</g>
<g>
	<path class="st2" d="M57.9,113.5l2.4-4.8l1,0.4l-2,5L57.9,113.5z M60.9,113.5l2.4-4.8l1,0.4l-2,5L60.9,113.5z"/>
	<g>
		<path class="st2" d="M71,122.6h-1.7V109H71V122.6z"/>
		<path class="st2" d="M80.1,115.3L80.1,115.3c0.5-0.9,1.5-1.4,2.6-1.4c2.4,0,3,1.6,3,3.7v5h-1.6v-4.8c0-1.4-0.2-2.4-1.9-2.4
			c-2.1,0-2.1,1.8-2.1,3.4v3.9h-1.6v-8.4h1.6V115.3z"/>
		<path class="st2" d="M88.9,118.7c0,1.4,1,2.8,2.5,2.8c1.2,0,1.9-0.6,2.5-1.6l1.4,0.8c-0.8,1.5-2.3,2.3-3.9,2.3
			c-2.6,0-4.1-1.9-4.1-4.4c0-2.6,1.4-4.5,4.1-4.5c2.7,0,3.9,2,3.9,4.5v0.3H88.9z M93.7,117.4c-0.2-1.3-1-2.1-2.3-2.1
			c-1.3,0-2.2,0.9-2.4,2.1H93.7z"/>
		<path class="st2" d="M97.7,118.7c0,1.4,1,2.8,2.5,2.8c1.2,0,1.9-0.6,2.5-1.6l1.4,0.8c-0.8,1.5-2.3,2.3-3.9,2.3
			c-2.6,0-4.1-1.9-4.1-4.4c0-2.6,1.4-4.5,4.1-4.5c2.7,0,3.9,2,3.9,4.5v0.3H97.7z M102.5,117.4c-0.2-1.3-1-2.1-2.3-2.1
			c-1.3,0-2.2,0.9-2.4,2.1H102.5z"/>
		<path class="st2" d="M111.8,121.3L111.8,121.3c-0.7,1-1.7,1.6-2.9,1.6c-2.6,0-4-2.1-4-4.6c0-2.3,1.5-4.4,4-4.4
			c1.3,0,2.3,0.6,2.9,1.7h0V107h1.6v15.6h-1.6V121.3z M111.9,118.4c0-1.6-1-3-2.7-3c-1.7,0-2.7,1.5-2.7,3c0,1.6,1,3.1,2.7,3.1
			C110.9,121.4,111.9,120,111.9,118.4z"/>
		<path class="st2" d="M124.9,108.6c-0.3-0.1-0.7-0.3-1.1-0.3c-1.2,0-1.2,1.5-1.2,2.3v3.6h2.2v1.5h-2.2v6.9H121v-6.9h-0.7v-1.5h0.7
			v-4.1c0-1.8,0.6-3.3,2.7-3.3c0.4,0,0.8,0.1,1.1,0.2V108.6z"/>
		<path class="st2" d="M127.4,115.5L127.4,115.5c0.5-1,1.3-1.6,2.4-1.6c0.5,0,0.9,0.2,1.3,0.4l-0.7,1.5c-0.3-0.3-0.6-0.3-1-0.3
			c-1.7,0-2,1.6-2,3v4.1h-1.6v-8.4h1.6V115.5z"/>
		<path class="st2" d="M133,118.7c0,1.4,1,2.8,2.5,2.8c1.2,0,1.9-0.6,2.5-1.6l1.4,0.8c-0.8,1.5-2.3,2.3-3.9,2.3
			c-2.6,0-4.1-1.9-4.1-4.4c0-2.6,1.4-4.5,4.1-4.5c2.7,0,3.9,2,3.9,4.5v0.3H133z M137.8,117.4c-0.2-1.3-1-2.1-2.3-2.1
			c-1.3,0-2.2,0.9-2.4,2.1H137.8z"/>
		<path class="st2" d="M144.1,116.1c-0.2-0.4-0.6-0.7-1.1-0.7c-0.5,0-0.9,0.4-0.9,0.8c0,0.7,1,1.1,2,1.5s1.9,1.1,1.9,2.4
			c0,1.6-1.3,2.8-2.9,2.8c-1.2,0-2.5-0.7-2.9-1.9l1.4-0.6c0.3,0.6,0.8,1.1,1.5,1.1c0.7,0,1.3-0.5,1.3-1.2c0-0.5-0.2-0.7-0.6-0.9
			l-1.6-0.8c-0.9-0.5-1.6-1-1.6-2.1c0-1.4,1.1-2.4,2.5-2.4c1,0,1.9,0.6,2.3,1.5L144.1,116.1z"/>
		<path class="st2" d="M149.3,107v8.3h0c0.5-0.9,1.5-1.4,2.5-1.4c2.4,0,3,1.6,3,3.7v5h-1.6v-4.8c0-1.4-0.2-2.4-1.9-2.4
			c-2.1,0-2.1,1.8-2.1,3.4v3.9h-1.6V107H149.3z"/>
		<path class="st2" d="M164.6,110.3c0,0.6-0.5,1.1-1.1,1.1c-0.6,0-1.1-0.5-1.1-1.1c0-0.6,0.5-1.1,1.1-1.1
			C164.1,109.2,164.6,109.7,164.6,110.3z M164.3,122.6h-1.6v-8.4h1.6V122.6z"/>
		<path class="st2" d="M168.5,115.3L168.5,115.3c0.5-0.9,1.5-1.4,2.6-1.4c2.4,0,3,1.6,3,3.7v5h-1.6v-4.8c0-1.4-0.2-2.4-1.9-2.4
			c-2.1,0-2.1,1.8-2.1,3.4v3.9h-1.6v-8.4h1.6V115.3z"/>
		<path class="st2" d="M179.7,116.1c-0.2-0.4-0.6-0.7-1.1-0.7c-0.5,0-0.9,0.4-0.9,0.8c0,0.7,1,1.1,2,1.5s1.9,1.1,1.9,2.4
			c0,1.6-1.3,2.8-2.9,2.8c-1.2,0-2.5-0.7-2.9-1.9l1.4-0.6c0.3,0.6,0.8,1.1,1.5,1.1c0.7,0,1.3-0.5,1.3-1.2c0-0.5-0.2-0.7-0.6-0.9
			l-1.6-0.8c-0.9-0.5-1.6-1-1.6-2.1c0-1.4,1.1-2.4,2.5-2.4c1,0,1.9,0.6,2.3,1.5L179.7,116.1z"/>
		<path class="st2" d="M184.7,115.6L184.7,115.6c0.7-1,1.7-1.7,3-1.7c2.4,0,4,2.1,4,4.4c0,2.4-1.4,4.6-4,4.6c-1.2,0-2.2-0.6-2.9-1.6
			h0v6.1h-1.6v-13.3h1.6V115.6z M190,118.4c0-1.6-1-3-2.7-3c-1.7,0-2.7,1.5-2.7,3c0,1.6,1,3.1,2.7,3.1C189,121.4,190,120,190,118.4z
			"/>
		<path class="st2" d="M195.5,110.3c0,0.6-0.5,1.1-1.1,1.1c-0.6,0-1.1-0.5-1.1-1.1c0-0.6,0.5-1.1,1.1-1.1
			C195,109.2,195.5,109.7,195.5,110.3z M195.2,122.6h-1.6v-8.4h1.6V122.6z"/>
		<path class="st2" d="M199.5,115.5L199.5,115.5c0.5-1,1.3-1.6,2.4-1.6c0.5,0,0.9,0.2,1.3,0.4l-0.7,1.5c-0.3-0.3-0.6-0.3-1-0.3
			c-1.7,0-2,1.6-2,3v4.1h-1.6v-8.4h1.6V115.5z"/>
		<path class="st2" d="M212,122.6h-1.6v-1.3h0c-0.6,1-1.7,1.6-2.9,1.6c-2.6,0-4-2.1-4-4.6c0-2.3,1.5-4.4,4-4.4
			c1.2,0,2.3,0.6,2.9,1.7h0v-1.4h1.6V122.6z M210.5,118.4c0-1.6-1-3-2.7-3c-1.7,0-2.7,1.5-2.7,3c0,1.6,1,3.1,2.7,3.1
			C209.5,121.4,210.5,120,210.5,118.4z"/>
		<path class="st2" d="M215.9,122.6h-1.6v-6.9h-0.9v-1.5h0.9V111h1.6v3.2h1.6v1.5h-1.6V122.6z"/>
		<path class="st2" d="M220.7,110.3c0,0.6-0.5,1.1-1.1,1.1c-0.6,0-1.1-0.5-1.1-1.1c0-0.6,0.5-1.1,1.1-1.1
			C220.2,109.2,220.7,109.7,220.7,110.3z M220.4,122.6h-1.6v-8.4h1.6V122.6z"/>
		<path class="st2" d="M231.2,118.4c0,2.5-2,4.5-4.5,4.5s-4.5-1.9-4.5-4.5s2-4.5,4.5-4.5S231.2,115.9,231.2,118.4z M223.9,118.4
			c0,1.6,1.3,2.9,2.9,2.9s2.9-1.4,2.9-2.9c0-1.6-1.3-2.9-2.9-2.9S223.9,116.8,223.9,118.4z"/>
		<path class="st2" d="M234.3,115.3L234.3,115.3c0.5-0.9,1.5-1.4,2.6-1.4c2.4,0,3,1.6,3,3.7v5h-1.6v-4.8c0-1.4-0.2-2.4-1.9-2.4
			c-2.1,0-2.1,1.8-2.1,3.4v3.9h-1.6v-8.4h1.6V115.3z"/>
		<path class="st2" d="M245.5,116.1c-0.2-0.4-0.6-0.7-1.1-0.7c-0.5,0-0.9,0.4-0.9,0.8c0,0.7,1,1.1,2,1.5s1.9,1.1,1.9,2.4
			c0,1.6-1.3,2.8-2.9,2.8c-1.2,0-2.5-0.7-2.9-1.9l1.4-0.6c0.3,0.6,0.8,1.1,1.5,1.1c0.7,0,1.3-0.5,1.3-1.2c0-0.5-0.2-0.7-0.6-0.9
			l-1.6-0.8c-0.9-0.5-1.6-1-1.6-2.1c0-1.4,1.1-2.4,2.5-2.4c1,0,1.9,0.6,2.3,1.5L245.5,116.1z"/>
		<path class="st2" d="M258.4,108.6c-0.3-0.1-0.7-0.3-1.1-0.3c-1.2,0-1.2,1.5-1.2,2.3v3.6h2.2v1.5h-2.2v6.9h-1.6v-6.9h-0.7v-1.5h0.7
			v-4.1c0-1.8,0.6-3.3,2.7-3.3c0.4,0,0.8,0.1,1.1,0.2V108.6z"/>
		<path class="st2" d="M260.9,115.5L260.9,115.5c0.5-1,1.3-1.6,2.4-1.6c0.5,0,0.9,0.2,1.3,0.4l-0.7,1.5c-0.3-0.3-0.6-0.3-1-0.3
			c-1.7,0-2,1.6-2,3v4.1h-1.6v-8.4h1.6V115.5z"/>
		<path class="st2" d="M273.7,118.4c0,2.5-2,4.5-4.5,4.5s-4.5-1.9-4.5-4.5s2-4.5,4.5-4.5S273.7,115.9,273.7,118.4z M266.4,118.4
			c0,1.6,1.3,2.9,2.9,2.9s2.9-1.4,2.9-2.9c0-1.6-1.3-2.9-2.9-2.9S266.4,116.8,266.4,118.4z"/>
		<path class="st2" d="M276.8,115.2L276.8,115.2c0.5-0.7,1.4-1.3,2.3-1.3c1.1,0,1.9,0.6,2.4,1.5c0.5-0.9,1.5-1.5,2.6-1.5
			c2.2,0,2.8,1.7,2.8,3.6v5h-1.6v-4.8c0-1.1-0.1-2.5-1.6-2.5c-1.7,0-1.9,1.8-1.9,3.1v4.1h-1.6v-4.5c0-1.1-0.1-2.8-1.5-2.8
			c-1.7,0-1.9,1.8-1.9,3.1v4.1h-1.6v-8.4h1.6V115.2z"/>
		<path class="st2" d="M302.5,118.4c0,2.5-2,4.5-4.5,4.5s-4.5-1.9-4.5-4.5s2-4.5,4.5-4.5S302.5,115.9,302.5,118.4z M295.1,118.4
			c0,1.6,1.3,2.9,2.9,2.9s2.9-1.4,2.9-2.9c0-1.6-1.3-2.9-2.9-2.9S295.1,116.8,295.1,118.4z"/>
		<path class="st2" d="M305.5,114.2v4.7c0,1.4,0.3,2.5,1.9,2.5s1.9-1.2,1.9-2.5v-4.7h1.6v4.8c0,2.3-1.1,3.9-3.6,3.9
			s-3.6-1.6-3.6-3.9v-4.8H305.5z"/>
		<path class="st2" d="M315,122.6h-1.6v-6.9h-0.9v-1.5h0.9V111h1.6v3.2h1.6v1.5H315V122.6z"/>
		<path class="st2" d="M320.9,116.1c-0.2-0.4-0.6-0.7-1.1-0.7c-0.5,0-0.9,0.4-0.9,0.8c0,0.7,1,1.1,2,1.5s1.9,1.1,1.9,2.4
			c0,1.6-1.3,2.8-2.9,2.8c-1.2,0-2.5-0.7-2.9-1.9l1.4-0.6c0.3,0.6,0.8,1.1,1.5,1.1c0.7,0,1.3-0.5,1.3-1.2c0-0.5-0.2-0.7-0.6-0.9
			l-1.6-0.8c-0.9-0.5-1.6-1-1.6-2.1c0-1.4,1.1-2.4,2.5-2.4c1,0,1.9,0.6,2.3,1.5L320.9,116.1z"/>
		<path class="st2" d="M326.7,110.3c0,0.6-0.5,1.1-1.1,1.1c-0.6,0-1.1-0.5-1.1-1.1c0-0.6,0.5-1.1,1.1-1.1
			C326.2,109.2,326.7,109.7,326.7,110.3z M326.4,122.6h-1.6v-8.4h1.6V122.6z"/>
		<path class="st2" d="M335.3,121.3L335.3,121.3c-0.7,1-1.7,1.6-2.9,1.6c-2.6,0-4-2.1-4-4.6c0-2.3,1.5-4.4,4-4.4
			c1.3,0,2.3,0.6,2.9,1.7h0V107h1.6v15.6h-1.6V121.3z M335.3,118.4c0-1.6-1-3-2.7-3c-1.7,0-2.7,1.5-2.7,3c0,1.6,1,3.1,2.7,3.1
			C334.4,121.4,335.3,120,335.3,118.4z"/>
		<path class="st2" d="M339.9,118.7c0,1.4,1,2.8,2.5,2.8c1.2,0,1.9-0.6,2.5-1.6l1.4,0.8c-0.8,1.5-2.3,2.3-3.9,2.3
			c-2.6,0-4.1-1.9-4.1-4.4c0-2.6,1.4-4.5,4.1-4.5c2.7,0,3.9,2,3.9,4.5v0.3H339.9z M344.8,117.4c-0.2-1.3-1-2.1-2.3-2.1
			c-1.3,0-2.2,0.9-2.4,2.1H344.8z"/>
		<path class="st2" d="M361.2,118.4c0,2.5-2,4.5-4.5,4.5s-4.5-1.9-4.5-4.5s2-4.5,4.5-4.5S361.2,115.9,361.2,118.4z M353.8,118.4
			c0,1.6,1.3,2.9,2.9,2.9s2.9-1.4,2.9-2.9c0-1.6-1.3-2.9-2.9-2.9S353.8,116.8,353.8,118.4z"/>
		<path class="st2" d="M366.9,108.6c-0.3-0.1-0.7-0.3-1.1-0.3c-1.2,0-1.2,1.5-1.2,2.3v3.6h2.2v1.5h-2.2v6.9H363v-6.9h-0.7v-1.5h0.7
			v-4.1c0-1.8,0.6-3.3,2.7-3.3c0.4,0,0.8,0.1,1.1,0.2V108.6z"/>
	</g>
	<path class="st2" d="M70.8,148.6h-1.6v-6.9h-0.9v-1.5h0.9V137h1.6v3.2h1.6v1.5h-1.6V148.6z"/>
	<path class="st2" d="M74.9,133v8.3h0c0.5-0.9,1.5-1.4,2.5-1.4c2.4,0,3,1.6,3,3.7v5h-1.6v-4.8c0-1.4-0.2-2.4-1.9-2.4
		c-2.1,0-2.1,1.8-2.1,3.4v3.9h-1.6V133H74.9z"/>
	<path class="st2" d="M83.6,144.7c0,1.4,1,2.8,2.5,2.8c1.2,0,1.9-0.6,2.5-1.6l1.4,0.8c-0.8,1.5-2.3,2.3-3.9,2.3
		c-2.6,0-4.1-1.9-4.1-4.4c0-2.6,1.4-4.5,4.1-4.5c2.7,0,3.9,2,3.9,4.5v0.3H83.6z M88.4,143.4c-0.2-1.3-1-2.1-2.3-2.1
		c-1.3,0-2.2,0.9-2.4,2.1H88.4z"/>
	<path class="st2" d="M100,142.1c-0.2-0.4-0.6-0.7-1.1-0.7c-0.5,0-0.9,0.4-0.9,0.8c0,0.7,1,1.1,2,1.5s1.9,1.1,1.9,2.4
		c0,1.6-1.3,2.8-2.9,2.8c-1.2,0-2.5-0.7-2.9-1.9l1.4-0.6c0.3,0.6,0.8,1.1,1.5,1.1c0.7,0,1.3-0.5,1.3-1.2c0-0.5-0.2-0.7-0.6-0.9
		l-1.6-0.8c-0.9-0.5-1.6-1-1.6-2.1c0-1.4,1.1-2.4,2.5-2.4c1,0,1.9,0.6,2.3,1.5L100,142.1z"/>
	<path class="st2" d="M109.7,142.6c-0.6-0.7-1.4-1.1-2.4-1.1c-1.6,0-2.8,1.4-2.8,3c0,1.7,1.2,3,2.9,3c0.9,0,1.7-0.4,2.3-1.1v2.1
		c-0.7,0.4-1.5,0.6-2.3,0.6c-2.5,0-4.5-1.9-4.5-4.4c0-2.6,2-4.5,4.6-4.5c0.8,0,1.6,0.2,2.2,0.6V142.6z"/>
	<path class="st2" d="M113.1,133v8.3h0c0.5-0.9,1.5-1.4,2.5-1.4c2.4,0,3,1.6,3,3.7v5H117v-4.8c0-1.4-0.2-2.4-1.9-2.4
		c-2.1,0-2.1,1.8-2.1,3.4v3.9h-1.6V133H113.1z"/>
	<path class="st2" d="M129.1,144.4c0,2.5-2,4.5-4.5,4.5c-2.5,0-4.5-1.9-4.5-4.5s2-4.5,4.5-4.5C127.2,139.9,129.1,141.9,129.1,144.4z
		 M121.8,144.4c0,1.6,1.3,2.9,2.9,2.9s2.9-1.4,2.9-2.9c0-1.6-1.3-2.9-2.9-2.9S121.8,142.8,121.8,144.4z"/>
	<path class="st2" d="M138.9,144.4c0,2.5-2,4.5-4.5,4.5s-4.5-1.9-4.5-4.5s2-4.5,4.5-4.5S138.9,141.9,138.9,144.4z M131.5,144.4
		c0,1.6,1.3,2.9,2.9,2.9s2.9-1.4,2.9-2.9c0-1.6-1.3-2.9-2.9-2.9S131.5,142.8,131.5,144.4z"/>
	<path class="st2" d="M142,148.6h-1.6V133h1.6V148.6z"/>
	<path class="st2" d="M153.7,134.6c-0.3-0.1-0.7-0.3-1.1-0.3c-1.2,0-1.2,1.5-1.2,2.3v3.6h2.2v1.5h-2.2v6.9h-1.6v-6.9h-0.7v-1.5h0.7
		v-4.1c0-1.8,0.6-3.3,2.7-3.3c0.4,0,0.8,0.1,1.1,0.2V134.6z"/>
	<path class="st2" d="M162.7,144.4c0,2.5-2,4.5-4.5,4.5s-4.5-1.9-4.5-4.5s2-4.5,4.5-4.5S162.7,141.9,162.7,144.4z M155.4,144.4
		c0,1.6,1.3,2.9,2.9,2.9s2.9-1.4,2.9-2.9c0-1.6-1.3-2.9-2.9-2.9S155.4,142.8,155.4,144.4z"/>
	<path class="st2" d="M165.9,141.5L165.9,141.5c0.5-1,1.3-1.6,2.4-1.6c0.5,0,0.9,0.2,1.3,0.4l-0.7,1.5c-0.3-0.3-0.6-0.3-1-0.3
		c-1.7,0-2,1.6-2,3v4.1h-1.6v-8.4h1.6V141.5z"/>
	<path class="st2" d="M177.3,141.2L177.3,141.2c0.5-0.7,1.4-1.3,2.3-1.3c1.1,0,1.9,0.6,2.4,1.5c0.5-0.9,1.5-1.5,2.6-1.5
		c2.2,0,2.8,1.7,2.8,3.6v5h-1.6v-4.8c0-1.1-0.1-2.5-1.6-2.5c-1.7,0-1.9,1.8-1.9,3.1v4.1h-1.6v-4.5c0-1.1-0.1-2.8-1.5-2.8
		c-1.7,0-1.9,1.8-1.9,3.1v4.1h-1.6v-8.4h1.6V141.2z"/>
	<path class="st2" d="M188.2,140.2h1.9l2.8,5.3l2.6-5.3h1.8l-6.8,13.3h-1.8l3.3-6.3L188.2,140.2z"/>
	<path class="st2" d="M206.8,142.1c-0.2-0.4-0.6-0.7-1.1-0.7c-0.5,0-0.9,0.4-0.9,0.8c0,0.7,1,1.1,2,1.5s1.9,1.1,1.9,2.4
		c0,1.6-1.3,2.8-2.9,2.8c-1.2,0-2.5-0.7-2.9-1.9l1.4-0.6c0.3,0.6,0.8,1.1,1.5,1.1c0.7,0,1.3-0.5,1.3-1.2c0-0.5-0.2-0.7-0.6-0.9
		l-1.6-0.8c-0.9-0.5-1.6-1-1.6-2.1c0-1.4,1.1-2.4,2.5-2.4c1,0,1.9,0.6,2.3,1.5L206.8,142.1z"/>
	<path class="st2" d="M212.1,143.3l3.2-3.2h2.1l-3.6,3.5l4,4.9h-2.1l-3-3.8l-0.6,0.6v3.3h-1.6V133h1.6V143.3z"/>
	<path class="st2" d="M221,136.3c0,0.6-0.5,1.1-1.1,1.1c-0.6,0-1.1-0.5-1.1-1.1c0-0.6,0.5-1.1,1.1-1.1
		C220.5,135.2,221,135.7,221,136.3z M220.7,148.6H219v-8.4h1.6V148.6z"/>
	<path class="st2" d="M224.9,148.6h-1.6V133h1.6V148.6z"/>
	<path class="st2" d="M228.9,148.6h-1.6V133h1.6V148.6z"/>
	<path class="st2" d="M244.3,148.6h-1.6v-1.3h0c-0.6,1-1.7,1.6-2.9,1.6c-2.6,0-4-2.1-4-4.6c0-2.3,1.5-4.4,4-4.4
		c1.2,0,2.3,0.6,2.9,1.7h0v-1.4h1.6V148.6z M242.8,144.4c0-1.6-1-3-2.7-3c-1.7,0-2.7,1.5-2.7,3c0,1.6,1,3.1,2.7,3.1
		C241.8,147.4,242.8,146,242.8,144.4z"/>
	<path class="st2" d="M248.1,141.3L248.1,141.3c0.5-0.9,1.5-1.4,2.6-1.4c2.4,0,3,1.6,3,3.7v5H252v-4.8c0-1.4-0.2-2.4-1.9-2.4
		c-2.1,0-2.1,1.8-2.1,3.4v3.9h-1.6v-8.4h1.6V141.3z"/>
	<path class="st2" d="M262.1,147.3L262.1,147.3c-0.7,1-1.7,1.6-2.9,1.6c-2.6,0-4-2.1-4-4.6c0-2.3,1.5-4.4,4-4.4
		c1.3,0,2.3,0.6,2.9,1.7h0V133h1.6v15.6h-1.6V147.3z M262.2,144.4c0-1.6-1-3-2.7-3c-1.7,0-2.7,1.5-2.7,3c0,1.6,1,3.1,2.7,3.1
		C261.3,147.4,262.2,146,262.2,144.4z"/>
	<path class="st2" d="M272.6,141.6L272.6,141.6c0.7-1,1.7-1.7,3-1.7c2.4,0,4,2.1,4,4.4c0,2.4-1.4,4.6-4,4.6c-1.2,0-2.2-0.6-2.9-1.6
		h0v6.1h-1.6v-13.3h1.6V141.6z M277.9,144.4c0-1.6-1-3-2.7-3c-1.7,0-2.7,1.5-2.7,3c0,1.6,1,3.1,2.7,3.1
		C276.9,147.4,277.9,146,277.9,144.4z"/>
	<path class="st2" d="M289,148.6h-1.6v-1.3h0c-0.6,1-1.7,1.6-2.9,1.6c-2.6,0-4-2.1-4-4.6c0-2.3,1.5-4.4,4-4.4c1.2,0,2.3,0.6,2.9,1.7
		h0v-1.4h1.6V148.6z M287.5,144.4c0-1.6-1-3-2.7-3c-1.7,0-2.7,1.5-2.7,3c0,1.6,1,3.1,2.7,3.1C286.5,147.4,287.5,146,287.5,144.4z"/>
	<path class="st2" d="M292.9,148.6h-1.6v-6.9h-0.9v-1.5h0.9V137h1.6v3.2h1.6v1.5h-1.6V148.6z"/>
	<path class="st2" d="M297,133v8.3h0c0.5-0.9,1.5-1.4,2.5-1.4c2.4,0,3,1.6,3,3.7v5H301v-4.8c0-1.4-0.2-2.4-1.9-2.4
		c-2.1,0-2.1,1.8-2.1,3.4v3.9h-1.6V133H297z"/>
	<path class="st2" d="M314.2,134.6c-0.3-0.1-0.7-0.3-1.1-0.3c-1.2,0-1.2,1.5-1.2,2.3v3.6h2.2v1.5H312v6.9h-1.6v-6.9h-0.7v-1.5h0.7
		v-4.1c0-1.8,0.6-3.3,2.7-3.3c0.4,0,0.8,0.1,1.1,0.2V134.6z"/>
	<path class="st2" d="M323.2,144.4c0,2.5-2,4.5-4.5,4.5s-4.5-1.9-4.5-4.5s2-4.5,4.5-4.5S323.2,141.9,323.2,144.4z M315.8,144.4
		c0,1.6,1.3,2.9,2.9,2.9s2.9-1.4,2.9-2.9c0-1.6-1.3-2.9-2.9-2.9S315.8,142.8,315.8,144.4z"/>
	<path class="st2" d="M326.4,141.5L326.4,141.5c0.5-1,1.3-1.6,2.4-1.6c0.5,0,0.9,0.2,1.3,0.4l-0.7,1.5c-0.3-0.3-0.6-0.3-1-0.3
		c-1.7,0-2,1.6-2,3v4.1h-1.6v-8.4h1.6V141.5z"/>
	<path class="st2" d="M338.1,148.6h-1.6v-6.9h-0.9v-1.5h0.9V137h1.6v3.2h1.6v1.5h-1.6V148.6z"/>
	<path class="st2" d="M342.2,133v8.3h0c0.5-0.9,1.5-1.4,2.5-1.4c2.4,0,3,1.6,3,3.7v5h-1.6v-4.8c0-1.4-0.2-2.4-1.9-2.4
		c-2.1,0-2.1,1.8-2.1,3.4v3.9h-1.6V133H342.2z"/>
	<path class="st2" d="M350.9,144.7c0,1.4,1,2.8,2.5,2.8c1.2,0,1.9-0.6,2.5-1.6l1.4,0.8c-0.8,1.5-2.3,2.3-3.9,2.3
		c-2.6,0-4.1-1.9-4.1-4.4c0-2.6,1.4-4.5,4.1-4.5c2.7,0,3.9,2,3.9,4.5v0.3H350.9z M355.7,143.4c-0.2-1.3-1-2.1-2.3-2.1
		c-1.3,0-2.2,0.9-2.4,2.1H355.7z"/>
	<path class="st2" d="M368.1,134.6c-0.3-0.1-0.7-0.3-1.1-0.3c-1.2,0-1.2,1.5-1.2,2.3v3.6h2.2v1.5h-2.2v6.9h-1.6v-6.9h-0.7v-1.5h0.7
		v-4.1c0-1.8,0.6-3.3,2.7-3.3c0.4,0,0.8,0.1,1.1,0.2V134.6z"/>
	<path class="st2" d="M370.4,140.2v4.7c0,1.4,0.3,2.5,1.9,2.5s1.9-1.2,1.9-2.5v-4.7h1.6v4.8c0,2.3-1.1,3.9-3.6,3.9s-3.6-1.6-3.6-3.9
		v-4.8H370.4z"/>
	<path class="st2" d="M380,148.6h-1.6v-6.9h-0.9v-1.5h0.9V137h1.6v3.2h1.6v1.5H380V148.6z"/>
	<path class="st2" d="M384,140.2v4.7c0,1.4,0.3,2.5,1.9,2.5s1.9-1.2,1.9-2.5v-4.7h1.6v4.8c0,2.3-1.1,3.9-3.6,3.9s-3.6-1.6-3.6-3.9
		v-4.8H384z"/>
	<path class="st2" d="M393.4,141.5L393.4,141.5c0.5-1,1.3-1.6,2.4-1.6c0.5,0,0.9,0.2,1.3,0.4l-0.7,1.5c-0.3-0.3-0.6-0.3-1-0.3
		c-1.7,0-2,1.6-2,3v4.1h-1.6v-8.4h1.6V141.5z"/>
	<path class="st2" d="M398.9,144.7c0,1.4,1,2.8,2.5,2.8c1.2,0,1.9-0.6,2.5-1.6l1.4,0.8c-0.8,1.5-2.3,2.3-3.9,2.3
		c-2.6,0-4.1-1.9-4.1-4.4c0-2.6,1.4-4.5,4.1-4.5c2.7,0,3.9,2,3.9,4.5v0.3H398.9z M403.7,143.4c-0.2-1.3-1-2.1-2.3-2.1
		c-1.3,0-2.2,0.9-2.4,2.1H403.7z"/>
	<path class="st2" d="M409.3,147.8c0,0.6-0.5,1-1,1s-1-0.5-1-1c0-0.6,0.5-1,1-1S409.3,147.3,409.3,147.8z"/>
	<path class="st2" d="M414.7,135.3l-2.4,4.8l-1-0.4l2-5L414.7,135.3z M417.6,135.3l-2.4,4.8l-1-0.4l2-5L417.6,135.3z"/>
</g>
<g>
	<path class="st2" d="M57.9,388.2l2.4-4.8l1,0.4l-2,5L57.9,388.2z M60.9,388.2l2.4-4.8l1,0.4l-2,5L60.9,388.2z"/>
	<g>
		<path class="st2" d="M73.2,397.3h-1.7v-12h-3.2v-1.5h8.1v1.5h-3.2V397.3z"/>
		<path class="st2" d="M79.2,381.7v8.3h0c0.5-0.9,1.5-1.4,2.5-1.4c2.4,0,3,1.6,3,3.7v5h-1.6v-4.8c0-1.4-0.2-2.4-1.9-2.4
			c-2.1,0-2.1,1.8-2.1,3.4v3.9h-1.6v-15.6H79.2z"/>
		<path class="st2" d="M87.9,393.3c0,1.4,1,2.8,2.5,2.8c1.2,0,1.9-0.6,2.5-1.6l1.4,0.8c-0.8,1.5-2.3,2.3-3.9,2.3
			c-2.6,0-4.1-1.9-4.1-4.4c0-2.6,1.4-4.5,4.1-4.5c2.7,0,3.9,2,3.9,4.5v0.3H87.9z M92.8,392.1c-0.2-1.3-1-2.1-2.3-2.1
			c-1.3,0-2.2,0.9-2.4,2.1H92.8z"/>
		<path class="st2" d="M102.6,397.3H101v-15.6h1.6V397.3z"/>
		<path class="st2" d="M105.9,393.3c0,1.4,1,2.8,2.5,2.8c1.2,0,1.9-0.6,2.5-1.6l1.4,0.8c-0.8,1.5-2.3,2.3-3.9,2.3
			c-2.6,0-4.1-1.9-4.1-4.4c0-2.6,1.4-4.5,4.1-4.5c2.7,0,3.9,2,3.9,4.5v0.3H105.9z M110.7,392.1c-0.2-1.3-1-2.1-2.3-2.1
			c-1.3,0-2.2,0.9-2.4,2.1H110.7z"/>
		<path class="st2" d="M119.9,391.3c-0.6-0.7-1.4-1.1-2.4-1.1c-1.6,0-2.8,1.4-2.8,3c0,1.7,1.2,3,2.9,3c0.9,0,1.7-0.4,2.3-1.1v2.1
			c-0.7,0.4-1.5,0.6-2.3,0.6c-2.5,0-4.5-1.9-4.5-4.4c0-2.6,2-4.5,4.6-4.5c0.8,0,1.6,0.2,2.2,0.6V391.3z"/>
		<path class="st2" d="M123.5,397.3h-1.6v-6.9H121v-1.5h0.9v-3.2h1.6v3.2h1.6v1.5h-1.6V397.3z"/>
		<path class="st2" d="M127.5,388.9v4.7c0,1.4,0.3,2.5,1.9,2.5s1.9-1.2,1.9-2.5v-4.7h1.6v4.8c0,2.3-1.1,3.9-3.6,3.9
			s-3.6-1.6-3.6-3.9v-4.8H127.5z"/>
		<path class="st2" d="M136.9,390.2L136.9,390.2c0.5-1,1.3-1.6,2.4-1.6c0.5,0,0.9,0.2,1.3,0.4l-0.7,1.5c-0.3-0.3-0.6-0.3-1-0.3
			c-1.7,0-2,1.6-2,3v4.1h-1.6v-8.4h1.6V390.2z"/>
		<path class="st2" d="M142.5,393.3c0,1.4,1,2.8,2.5,2.8c1.2,0,1.9-0.6,2.5-1.6l1.4,0.8c-0.8,1.5-2.3,2.3-3.9,2.3
			c-2.6,0-4.1-1.9-4.1-4.4c0-2.6,1.4-4.5,4.1-4.5c2.7,0,3.9,2,3.9,4.5v0.3H142.5z M147.3,392.1c-0.2-1.3-1-2.1-2.3-2.1
			c-1.3,0-2.2,0.9-2.4,2.1H147.3z"/>
		<path class="st2" d="M156.5,393.3c0,1.4,1,2.8,2.5,2.8c1.2,0,1.9-0.6,2.5-1.6l1.4,0.8c-0.8,1.5-2.3,2.3-3.9,2.3
			c-2.6,0-4.1-1.9-4.1-4.4c0-2.6,1.4-4.5,4.1-4.5c2.7,0,3.9,2,3.9,4.5v0.3H156.5z M161.3,392.1c-0.2-1.3-1-2.1-2.3-2.1
			c-1.3,0-2.2,0.9-2.4,2.1H161.3z"/>
		<path class="st2" d="M167.2,394.1l2.4-5.3h1.8l-4.2,8.7l-4.2-8.7h1.8L167.2,394.1z"/>
		<path class="st2" d="M173.3,393.3c0,1.4,1,2.8,2.5,2.8c1.2,0,1.9-0.6,2.5-1.6l1.4,0.8c-0.8,1.5-2.3,2.3-3.9,2.3
			c-2.6,0-4.1-1.9-4.1-4.4c0-2.6,1.4-4.5,4.1-4.5c2.7,0,3.9,2,3.9,4.5v0.3H173.3z M178.1,392.1c-0.2-1.3-1-2.1-2.3-2.1
			c-1.3,0-2.2,0.9-2.4,2.1H178.1z"/>
		<path class="st2" d="M182.8,390.2L182.8,390.2c0.5-1,1.3-1.6,2.4-1.6c0.5,0,0.9,0.2,1.3,0.4l-0.7,1.5c-0.3-0.3-0.6-0.3-1-0.3
			c-1.7,0-2,1.6-2,3v4.1h-1.6v-8.4h1.6V390.2z"/>
		<path class="st2" d="M186.8,388.9h1.9l2.8,5.3l2.6-5.3h1.8l-6.8,13.3h-1.8l3.3-6.3L186.8,388.9z"/>
		<path class="st2" d="M200.7,388.9h1.9l2.8,5.3l2.6-5.3h1.8l-6.8,13.3h-1.8l3.3-6.3L200.7,388.9z"/>
		<path class="st2" d="M211.7,393.3c0,1.4,1,2.8,2.5,2.8c1.2,0,1.9-0.6,2.5-1.6l1.4,0.8c-0.8,1.5-2.3,2.3-3.9,2.3
			c-2.6,0-4.1-1.9-4.1-4.4c0-2.6,1.4-4.5,4.1-4.5c2.7,0,3.9,2,3.9,4.5v0.3H211.7z M216.5,392.1c-0.2-1.3-1-2.1-2.3-2.1
			c-1.3,0-2.2,0.9-2.4,2.1H216.5z"/>
		<path class="st2" d="M227.4,397.3h-1.6V396h0c-0.6,1-1.7,1.6-2.9,1.6c-2.6,0-4-2.1-4-4.6c0-2.3,1.5-4.4,4-4.4
			c1.2,0,2.3,0.6,2.9,1.7h0v-1.4h1.6V397.3z M225.9,393.1c0-1.6-1-3-2.7-3c-1.7,0-2.7,1.5-2.7,3c0,1.6,1,3.1,2.7,3.1
			C224.9,396.1,225.9,394.7,225.9,393.1z"/>
		<path class="st2" d="M231.3,390.2L231.3,390.2c0.5-1,1.3-1.6,2.4-1.6c0.5,0,0.9,0.2,1.3,0.4l-0.7,1.5c-0.3-0.3-0.6-0.3-1-0.3
			c-1.7,0-2,1.6-2,3v4.1h-1.6v-8.4h1.6V390.2z"/>
		<path class="st2" d="M243.4,385c0,0.6-0.5,1.1-1.1,1.1c-0.6,0-1.1-0.5-1.1-1.1c0-0.6,0.5-1.1,1.1-1.1
			C242.8,383.9,243.4,384.4,243.4,385z M243,397.3h-1.6v-8.4h1.6V397.3z"/>
		<path class="st2" d="M249,390.8c-0.2-0.4-0.6-0.7-1.1-0.7c-0.5,0-0.9,0.4-0.9,0.8c0,0.7,1,1.1,2,1.5s1.9,1.1,1.9,2.4
			c0,1.6-1.3,2.8-2.9,2.8c-1.2,0-2.5-0.7-2.9-1.9l1.4-0.6c0.3,0.6,0.8,1.1,1.5,1.1c0.7,0,1.3-0.5,1.3-1.2c0-0.5-0.2-0.7-0.6-0.9
			l-1.6-0.8c-0.9-0.5-1.6-1-1.6-2.1c0-1.4,1.1-2.4,2.5-2.4c1,0,1.9,0.6,2.3,1.5L249,390.8z"/>
		<path class="st2" d="M265.7,397.3H264V396h0c-0.6,1-1.7,1.6-2.9,1.6c-2.6,0-4-2.1-4-4.6c0-2.3,1.5-4.4,4-4.4
			c1.2,0,2.3,0.6,2.9,1.7h0v-1.4h1.6V397.3z M264.1,393.1c0-1.6-1-3-2.7-3c-1.7,0-2.7,1.5-2.7,3c0,1.6,1,3.1,2.7,3.1
			C263.2,396.1,264.1,394.7,264.1,393.1z"/>
		<path class="st2" d="M280.8,397.1c0,2.9-0.8,5-4.1,5c-2.3,0-4-1.4-4.1-3.8h1.6c0,1.5,1,2.4,2.5,2.4c2,0,2.4-1.4,2.4-3.1V396h0
			c-0.6,1-1.7,1.6-2.9,1.6c-2.6,0-4-2.1-4-4.6c0-2.3,1.5-4.4,4-4.4c1.3,0,2.3,0.6,2.9,1.7h0v-1.4h1.6V397.1z M279.3,393.1
			c0-1.6-1-3-2.7-3c-1.7,0-2.7,1.5-2.7,3c0,1.6,1,3.1,2.7,3.1C278.3,396.1,279.3,394.7,279.3,393.1z"/>
		<path class="st2" d="M291.2,393.1c0,2.5-2,4.5-4.5,4.5s-4.5-1.9-4.5-4.5c0-2.5,2-4.5,4.5-4.5S291.2,390.6,291.2,393.1z
			 M283.8,393.1c0,1.6,1.3,2.9,2.9,2.9s2.9-1.4,2.9-2.9c0-1.6-1.3-2.9-2.9-2.9S283.8,391.5,283.8,393.1z"/>
		<path class="st2" d="M300.9,393.1c0,2.5-2,4.5-4.5,4.5s-4.5-1.9-4.5-4.5c0-2.5,2-4.5,4.5-4.5S300.9,390.6,300.9,393.1z
			 M293.5,393.1c0,1.6,1.3,2.9,2.9,2.9s2.9-1.4,2.9-2.9c0-1.6-1.3-2.9-2.9-2.9S293.5,391.5,293.5,393.1z"/>
		<path class="st2" d="M308.7,396L308.7,396c-0.7,1-1.7,1.6-2.9,1.6c-2.6,0-4-2.1-4-4.6c0-2.3,1.5-4.4,4-4.4c1.3,0,2.3,0.6,2.9,1.7
			h0v-8.6h1.6v15.6h-1.6V396z M308.8,393.1c0-1.6-1-3-2.7-3c-1.7,0-2.7,1.5-2.7,3c0,1.6,1,3.1,2.7,3.1
			C307.8,396.1,308.8,394.7,308.8,393.1z"/>
	</g>
	<path class="st2" d="M70.8,423.3h-1.6v-6.9h-0.9v-1.5h0.9v-3.2h1.6v3.2h1.6v1.5h-1.6V423.3z"/>
	<path class="st2" d="M75,416.2L75,416.2c0.5-1,1.3-1.6,2.4-1.6c0.5,0,0.9,0.2,1.3,0.4l-0.7,1.5c-0.3-0.3-0.6-0.3-1-0.3
		c-1.7,0-2,1.6-2,3v4.1h-1.6v-8.4H75V416.2z"/>
	<path class="st2" d="M87.5,423.3h-1.6V422h0c-0.6,1-1.7,1.6-2.9,1.6c-2.6,0-4-2.1-4-4.6c0-2.3,1.5-4.4,4-4.4c1.2,0,2.3,0.6,2.9,1.7
		h0v-1.4h1.6V423.3z M85.9,419.1c0-1.6-1-3-2.7-3c-1.7,0-2.7,1.5-2.7,3c0,1.6,1,3.1,2.7,3.1C85,422.1,85.9,420.7,85.9,419.1z"/>
	<path class="st2" d="M95.8,422L95.8,422c-0.7,1-1.7,1.6-2.9,1.6c-2.6,0-4-2.1-4-4.6c0-2.3,1.5-4.4,4-4.4c1.3,0,2.3,0.6,2.9,1.7h0
		v-8.6h1.6v15.6h-1.6V422z M95.9,419.1c0-1.6-1-3-2.7-3c-1.7,0-2.7,1.5-2.7,3c0,1.6,1,3.1,2.7,3.1C95,422.1,95.9,420.7,95.9,419.1z"
		/>
	<path class="st2" d="M101.9,411c0,0.6-0.5,1.1-1.1,1.1s-1.1-0.5-1.1-1.1c0-0.6,0.5-1.1,1.1-1.1S101.9,410.4,101.9,411z
		 M101.6,423.3h-1.6v-8.4h1.6V423.3z"/>
	<path class="st2" d="M106,423.3h-1.6v-6.9h-0.9v-1.5h0.9v-3.2h1.6v3.2h1.6v1.5H106V423.3z"/>
	<path class="st2" d="M110.7,411c0,0.6-0.5,1.1-1.1,1.1s-1.1-0.5-1.1-1.1c0-0.6,0.5-1.1,1.1-1.1S110.7,410.4,110.7,411z
		 M110.4,423.3h-1.6v-8.4h1.6V423.3z"/>
	<path class="st2" d="M121.3,419.1c0,2.5-2,4.5-4.5,4.5c-2.5,0-4.5-1.9-4.5-4.5c0-2.5,2-4.5,4.5-4.5
		C119.3,414.6,121.3,416.6,121.3,419.1z M113.9,419.1c0,1.6,1.3,2.9,2.9,2.9s2.9-1.4,2.9-2.9c0-1.6-1.3-2.9-2.9-2.9
		S113.9,417.5,113.9,419.1z"/>
	<path class="st2" d="M124.4,416L124.4,416c0.5-0.9,1.5-1.4,2.6-1.4c2.4,0,3,1.6,3,3.7v5h-1.6v-4.8c0-1.4-0.2-2.4-1.9-2.4
		c-2.1,0-2.1,1.8-2.1,3.4v3.9h-1.6v-8.4h1.6V416z"/>
	<path class="st2" d="M139.2,423.3h-1.6v-6.9h-0.9v-1.5h0.9v-3.2h1.6v3.2h1.6v1.5h-1.6V423.3z"/>
	<path class="st2" d="M149.9,419.1c0,2.5-2,4.5-4.5,4.5s-4.5-1.9-4.5-4.5c0-2.5,2-4.5,4.5-4.5S149.9,416.6,149.9,419.1z
		 M142.6,419.1c0,1.6,1.3,2.9,2.9,2.9s2.9-1.4,2.9-2.9c0-1.6-1.3-2.9-2.9-2.9S142.6,417.5,142.6,419.1z"/>
	<path class="st2" d="M158.3,418l3.2-3.2h2.1l-3.6,3.5l4,4.9h-2.1l-3-3.8l-0.6,0.6v3.3h-1.6v-15.6h1.6V418z"/>
	<path class="st2" d="M166.5,416L166.5,416c0.5-0.9,1.5-1.4,2.6-1.4c2.4,0,3,1.6,3,3.7v5h-1.6v-4.8c0-1.4-0.2-2.4-1.9-2.4
		c-2.1,0-2.1,1.8-2.1,3.4v3.9h-1.6v-8.4h1.6V416z"/>
	<path class="st2" d="M182.6,419.1c0,2.5-2,4.5-4.5,4.5s-4.5-1.9-4.5-4.5c0-2.5,2-4.5,4.5-4.5S182.6,416.6,182.6,419.1z
		 M175.2,419.1c0,1.6,1.3,2.9,2.9,2.9s2.9-1.4,2.9-2.9c0-1.6-1.3-2.9-2.9-2.9S175.2,417.5,175.2,419.1z"/>
	<path class="st2" d="M186.9,420.2l2.5-5.8l2.5,5.8l2.4-5.4h1.8l-4.3,8.7l-2.5-5.6l-2.5,5.6l-4.3-8.7h1.8L186.9,420.2z"/>
	<path class="st2" d="M210.4,419.1c0,2.5-2,4.5-4.5,4.5s-4.5-1.9-4.5-4.5c0-2.5,2-4.5,4.5-4.5S210.4,416.6,210.4,419.1z
		 M203.1,419.1c0,1.6,1.3,2.9,2.9,2.9s2.9-1.4,2.9-2.9c0-1.6-1.3-2.9-2.9-2.9S203.1,417.5,203.1,419.1z"/>
	<path class="st2" d="M213.8,423.3h-1.6v-6.9h-0.9v-1.5h0.9v-3.2h1.6v3.2h1.6v1.5h-1.6V423.3z"/>
	<path class="st2" d="M217.8,407.7v8.3h0c0.5-0.9,1.5-1.4,2.5-1.4c2.4,0,3,1.6,3,3.7v5h-1.6v-4.8c0-1.4-0.2-2.4-1.9-2.4
		c-2.1,0-2.1,1.8-2.1,3.4v3.9h-1.6v-15.6H217.8z"/>
	<path class="st2" d="M226.6,419.3c0,1.4,1,2.8,2.5,2.8c1.2,0,1.9-0.6,2.5-1.6l1.4,0.8c-0.8,1.5-2.3,2.3-3.9,2.3
		c-2.6,0-4.1-1.9-4.1-4.4c0-2.6,1.4-4.5,4.1-4.5c2.7,0,3.9,2,3.9,4.5v0.3H226.6z M231.4,418.1c-0.2-1.3-1-2.1-2.3-2.1
		c-1.3,0-2.2,0.9-2.4,2.1H231.4z"/>
	<path class="st2" d="M236.2,416.2L236.2,416.2c0.5-1,1.3-1.6,2.4-1.6c0.5,0,0.9,0.2,1.3,0.4l-0.7,1.5c-0.3-0.3-0.6-0.3-1-0.3
		c-1.7,0-2,1.6-2,3v4.1h-1.6v-8.4h1.6V416.2z"/>
	<path class="st2" d="M252.2,422L252.2,422c-0.7,1-1.7,1.6-2.9,1.6c-2.6,0-4-2.1-4-4.6c0-2.3,1.5-4.4,4-4.4c1.3,0,2.3,0.6,2.9,1.7h0
		v-8.6h1.6v15.6h-1.6V422z M252.3,419.1c0-1.6-1-3-2.7-3c-1.7,0-2.7,1.5-2.7,3c0,1.6,1,3.1,2.7,3.1
		C251.3,422.1,252.3,420.7,252.3,419.1z"/>
	<path class="st2" d="M256.9,419.3c0,1.4,1,2.8,2.5,2.8c1.2,0,1.9-0.6,2.5-1.6l1.4,0.8c-0.8,1.5-2.3,2.3-3.9,2.3
		c-2.6,0-4.1-1.9-4.1-4.4c0-2.6,1.4-4.5,4.1-4.5c2.7,0,3.9,2,3.9,4.5v0.3H256.9z M261.7,418.1c-0.2-1.3-1-2.1-2.3-2.1
		c-1.3,0-2.2,0.9-2.4,2.1H261.7z"/>
	<path class="st2" d="M268.1,416.8c-0.2-0.4-0.6-0.7-1.1-0.7c-0.5,0-0.9,0.4-0.9,0.8c0,0.7,1,1.1,2,1.5s1.9,1.1,1.9,2.4
		c0,1.6-1.3,2.8-2.9,2.8c-1.2,0-2.5-0.7-2.9-1.9l1.4-0.6c0.3,0.6,0.8,1.1,1.5,1.1c0.7,0,1.3-0.5,1.3-1.2c0-0.5-0.2-0.7-0.6-0.9
		l-1.6-0.8c-0.9-0.5-1.6-1-1.6-2.1c0-1.4,1.1-2.4,2.5-2.4c1,0,1.9,0.6,2.3,1.5L268.1,416.8z"/>
	<path class="st2" d="M273.9,411c0,0.6-0.5,1.1-1.1,1.1c-0.6,0-1.1-0.5-1.1-1.1c0-0.6,0.5-1.1,1.1-1.1
		C273.4,409.9,273.9,410.4,273.9,411z M273.6,423.3H272v-8.4h1.6V423.3z"/>
	<path class="st2" d="M284.1,423.1c0,2.9-0.8,5-4.1,5c-2.3,0-4-1.4-4.1-3.8h1.6c0,1.5,1,2.4,2.5,2.4c2,0,2.4-1.4,2.4-3.1V422h0
		c-0.6,1-1.7,1.6-2.9,1.6c-2.6,0-4-2.1-4-4.6c0-2.3,1.5-4.4,4-4.4c1.3,0,2.3,0.6,2.9,1.7h0v-1.4h1.6V423.1z M282.6,419.1
		c0-1.6-1-3-2.7-3c-1.7,0-2.7,1.5-2.7,3c0,1.6,1,3.1,2.7,3.1C281.6,422.1,282.6,420.7,282.6,419.1z"/>
	<path class="st2" d="M287.8,416L287.8,416c0.5-0.9,1.5-1.4,2.6-1.4c2.4,0,3,1.6,3,3.7v5h-1.6v-4.8c0-1.4-0.2-2.4-1.9-2.4
		c-2.1,0-2.1,1.8-2.1,3.4v3.9h-1.6v-8.4h1.6V416z"/>
	<path class="st2" d="M296.6,419.3c0,1.4,1,2.8,2.5,2.8c1.2,0,1.9-0.6,2.5-1.6l1.4,0.8c-0.8,1.5-2.3,2.3-3.9,2.3
		c-2.6,0-4.1-1.9-4.1-4.4c0-2.6,1.4-4.5,4.1-4.5c2.7,0,3.9,2,3.9,4.5v0.3H296.6z M301.4,418.1c-0.2-1.3-1-2.1-2.3-2.1
		c-1.3,0-2.2,0.9-2.4,2.1H301.4z"/>
	<path class="st2" d="M306.1,416.2L306.1,416.2c0.5-1,1.3-1.6,2.4-1.6c0.5,0,0.9,0.2,1.3,0.4l-0.7,1.5c-0.3-0.3-0.6-0.3-1-0.3
		c-1.7,0-2,1.6-2,3v4.1h-1.6v-8.4h1.6V416.2z"/>
	<path class="st2" d="M314.1,416.8c-0.2-0.4-0.6-0.7-1.1-0.7c-0.5,0-0.9,0.4-0.9,0.8c0,0.7,1,1.1,2,1.5s1.9,1.1,1.9,2.4
		c0,1.6-1.3,2.8-2.9,2.8c-1.2,0-2.5-0.7-2.9-1.9l1.4-0.6c0.3,0.6,0.8,1.1,1.5,1.1c0.7,0,1.3-0.5,1.3-1.2c0-0.5-0.2-0.7-0.6-0.9
		l-1.6-0.8c-0.9-0.5-1.6-1-1.6-2.1c0-1.4,1.1-2.4,2.5-2.4c1,0,1.9,0.6,2.3,1.5L314.1,416.8z"/>
	<path class="st2" d="M331.1,419.1c0,2.5-2,4.5-4.5,4.5s-4.5-1.9-4.5-4.5c0-2.5,2-4.5,4.5-4.5S331.1,416.6,331.1,419.1z
		 M323.7,419.1c0,1.6,1.3,2.9,2.9,2.9s2.9-1.4,2.9-2.9c0-1.6-1.3-2.9-2.9-2.9S323.7,417.5,323.7,419.1z"/>
	<path class="st2" d="M334.3,416.2L334.3,416.2c0.5-1,1.3-1.6,2.4-1.6c0.5,0,0.9,0.2,1.3,0.4l-0.7,1.5c-0.3-0.3-0.6-0.3-1-0.3
		c-1.7,0-2,1.6-2,3v4.1h-1.6v-8.4h1.6V416.2z"/>
	<path class="st2" d="M76.8,449.3h-1.6V448h0c-0.6,1-1.7,1.6-2.9,1.6c-2.6,0-4-2.1-4-4.6c0-2.3,1.5-4.4,4-4.4c1.2,0,2.3,0.6,2.9,1.7
		h0v-1.4h1.6V449.3z M75.3,445.1c0-1.6-1-3-2.7-3c-1.7,0-2.7,1.5-2.7,3c0,1.6,1,3.1,2.7,3.1C74.3,448.1,75.3,446.7,75.3,445.1z"/>
	<path class="st2" d="M80.7,442.2L80.7,442.2c0.5-1,1.3-1.6,2.4-1.6c0.5,0,0.9,0.2,1.3,0.4l-0.7,1.5c-0.3-0.3-0.6-0.3-1-0.3
		c-1.7,0-2,1.6-2,3v4.1H79v-8.4h1.6V442.2z"/>
	<path class="st2" d="M87.5,449.3h-1.6v-6.9H85v-1.5h0.9v-3.2h1.6v3.2H89v1.5h-1.6V449.3z"/>
	<path class="st2" d="M92.2,437c0,0.6-0.5,1.1-1.1,1.1S90,437.6,90,437c0-0.6,0.5-1.1,1.1-1.1S92.2,436.4,92.2,437z M91.9,449.3
		h-1.6v-8.4h1.6V449.3z"/>
	<path class="st2" d="M97.9,442.8c-0.2-0.4-0.6-0.7-1.1-0.7c-0.5,0-0.9,0.4-0.9,0.8c0,0.7,1,1.1,2,1.5s1.9,1.1,1.9,2.4
		c0,1.6-1.3,2.8-2.9,2.8c-1.2,0-2.5-0.7-2.9-1.9l1.4-0.6c0.3,0.6,0.8,1.1,1.5,1.1c0.7,0,1.3-0.5,1.3-1.2c0-0.5-0.2-0.7-0.6-0.9
		l-1.6-0.8c-0.9-0.5-1.6-1-1.6-2.1c0-1.4,1.1-2.4,2.5-2.4c1,0,1.9,0.6,2.3,1.5L97.9,442.8z"/>
	<path class="st2" d="M103.3,449.3h-1.6v-6.9h-0.9v-1.5h0.9v-3.2h1.6v3.2h1.6v1.5h-1.6V449.3z"/>
	<path class="st2" d="M109.1,442.8c-0.2-0.4-0.6-0.7-1.1-0.7c-0.5,0-0.9,0.4-0.9,0.8c0,0.7,1,1.1,2,1.5s1.9,1.1,1.9,2.4
		c0,1.6-1.3,2.8-2.9,2.8c-1.2,0-2.5-0.7-2.9-1.9l1.4-0.6c0.3,0.6,0.8,1.1,1.5,1.1c0.7,0,1.3-0.5,1.3-1.2c0-0.5-0.2-0.7-0.6-0.9
		l-1.6-0.8c-0.9-0.5-1.6-1-1.6-2.1c0-1.4,1.1-2.4,2.5-2.4c1,0,1.9,0.6,2.3,1.5L109.1,442.8z"/>
	<path class="st2" d="M122,435.3c-0.3-0.1-0.7-0.3-1.1-0.3c-1.2,0-1.2,1.5-1.2,2.3v3.6h2.2v1.5h-2.2v6.9h-1.6v-6.9h-0.7v-1.5h0.7
		v-4.1c0-1.8,0.6-3.3,2.7-3.3c0.4,0,0.8,0.1,1.1,0.2V435.3z"/>
	<path class="st2" d="M124.5,442.2L124.5,442.2c0.5-1,1.3-1.6,2.4-1.6c0.5,0,0.9,0.2,1.3,0.4l-0.7,1.5c-0.3-0.3-0.6-0.3-1-0.3
		c-1.7,0-2,1.6-2,3v4.1h-1.6v-8.4h1.6V442.2z"/>
	<path class="st2" d="M137.4,445.1c0,2.5-2,4.5-4.5,4.5c-2.5,0-4.5-1.9-4.5-4.5c0-2.5,2-4.5,4.5-4.5
		C135.4,440.6,137.4,442.6,137.4,445.1z M130,445.1c0,1.6,1.3,2.9,2.9,2.9c1.6,0,2.9-1.4,2.9-2.9c0-1.6-1.3-2.9-2.9-2.9
		C131.2,442.2,130,443.5,130,445.1z"/>
	<path class="st2" d="M140.4,441.9L140.4,441.9c0.5-0.7,1.4-1.3,2.3-1.3c1.1,0,1.9,0.6,2.4,1.5c0.5-0.9,1.5-1.5,2.6-1.5
		c2.2,0,2.8,1.7,2.8,3.6v5h-1.6v-4.8c0-1.1-0.1-2.5-1.6-2.5c-1.7,0-1.9,1.8-1.9,3.1v4.1h-1.6v-4.5c0-1.1-0.1-2.8-1.5-2.8
		c-1.7,0-1.9,1.8-1.9,3.1v4.1h-1.6v-8.4h1.6V441.9z"/>
	<path class="st2" d="M159.7,449.3h-1.6v-6.9h-0.9v-1.5h0.9v-3.2h1.6v3.2h1.6v1.5h-1.6V449.3z"/>
	<path class="st2" d="M163.8,433.7v8.3h0c0.5-0.9,1.5-1.4,2.5-1.4c2.4,0,3,1.6,3,3.7v5h-1.6v-4.8c0-1.4-0.2-2.4-1.9-2.4
		c-2.1,0-2.1,1.8-2.1,3.4v3.9h-1.6v-15.6H163.8z"/>
	<path class="st2" d="M172.5,445.3c0,1.4,1,2.8,2.5,2.8c1.2,0,1.9-0.6,2.5-1.6l1.4,0.8c-0.8,1.5-2.3,2.3-3.9,2.3
		c-2.6,0-4.1-1.9-4.1-4.4c0-2.6,1.4-4.5,4.1-4.5c2.7,0,3.9,2,3.9,4.5v0.3H172.5z M177.3,444.1c-0.2-1.3-1-2.1-2.3-2.1
		c-1.3,0-2.2,0.9-2.4,2.1H177.3z"/>
	<path class="st2" d="M191.8,448L191.8,448c-0.7,1-1.7,1.6-2.9,1.6c-2.6,0-4-2.1-4-4.6c0-2.3,1.5-4.4,4-4.4c1.3,0,2.3,0.6,2.9,1.7h0
		v-8.6h1.6v15.6h-1.6V448z M191.9,445.1c0-1.6-1-3-2.7-3c-1.7,0-2.7,1.5-2.7,3c0,1.6,1,3.1,2.7,3.1
		C191,448.1,191.9,446.7,191.9,445.1z"/>
	<path class="st2" d="M197.8,437c0,0.6-0.5,1.1-1.1,1.1c-0.6,0-1.1-0.5-1.1-1.1c0-0.6,0.5-1.1,1.1-1.1
		C197.3,435.9,197.8,436.4,197.8,437z M197.5,449.3h-1.6v-8.4h1.6V449.3z"/>
	<path class="st2" d="M203,446.1l2.4-5.3h1.8l-4.2,8.7l-4.2-8.7h1.8L203,446.1z"/>
	<path class="st2" d="M209.1,445.3c0,1.4,1,2.8,2.5,2.8c1.2,0,1.9-0.6,2.5-1.6l1.4,0.8c-0.8,1.5-2.3,2.3-3.9,2.3
		c-2.6,0-4.1-1.9-4.1-4.4c0-2.6,1.4-4.5,4.1-4.5c2.7,0,3.9,2,3.9,4.5v0.3H209.1z M213.9,444.1c-0.2-1.3-1-2.1-2.3-2.1
		c-1.3,0-2.2,0.9-2.4,2.1H213.9z"/>
	<path class="st2" d="M218.7,442.2L218.7,442.2c0.5-1,1.3-1.6,2.4-1.6c0.5,0,0.9,0.2,1.3,0.4l-0.7,1.5c-0.3-0.3-0.6-0.3-1-0.3
		c-1.7,0-2,1.6-2,3v4.1H217v-8.4h1.6V442.2z"/>
	<path class="st2" d="M226.6,442.8c-0.2-0.4-0.6-0.7-1.1-0.7c-0.5,0-0.9,0.4-0.9,0.8c0,0.7,1,1.1,2,1.5s1.9,1.1,1.9,2.4
		c0,1.6-1.3,2.8-2.9,2.8c-1.2,0-2.5-0.7-2.9-1.9l1.4-0.6c0.3,0.6,0.8,1.1,1.5,1.1c0.7,0,1.3-0.5,1.3-1.2c0-0.5-0.2-0.7-0.6-0.9
		l-1.6-0.8c-0.9-0.5-1.6-1-1.6-2.1c0-1.4,1.1-2.4,2.5-2.4c1,0,1.9,0.6,2.3,1.5L226.6,442.8z"/>
	<path class="st2" d="M231.1,445.3c0,1.4,1,2.8,2.5,2.8c1.2,0,1.9-0.6,2.5-1.6l1.4,0.8c-0.8,1.5-2.3,2.3-3.9,2.3
		c-2.6,0-4.1-1.9-4.1-4.4c0-2.6,1.4-4.5,4.1-4.5c2.7,0,3.9,2,3.9,4.5v0.3H231.1z M235.9,444.1c-0.2-1.3-1-2.1-2.3-2.1
		c-1.3,0-2.2,0.9-2.4,2.1H235.9z"/>
	<path class="st2" d="M252,449.3h-1.6V448h0c-0.6,1-1.7,1.6-2.9,1.6c-2.6,0-4-2.1-4-4.6c0-2.3,1.5-4.4,4-4.4c1.2,0,2.3,0.6,2.9,1.7
		h0v-1.4h1.6V449.3z M250.5,445.1c0-1.6-1-3-2.7-3c-1.7,0-2.7,1.5-2.7,3c0,1.6,1,3.1,2.7,3.1C249.5,448.1,250.5,446.7,250.5,445.1z"
		/>
	<path class="st2" d="M255.9,442.2L255.9,442.2c0.5-1,1.3-1.6,2.4-1.6c0.5,0,0.9,0.2,1.3,0.4l-0.7,1.5c-0.3-0.3-0.6-0.3-1-0.3
		c-1.7,0-2,1.6-2,3v4.1h-1.6v-8.4h1.6V442.2z"/>
	<path class="st2" d="M261.4,445.3c0,1.4,1,2.8,2.5,2.8c1.2,0,1.9-0.6,2.5-1.6l1.4,0.8c-0.8,1.5-2.3,2.3-3.9,2.3
		c-2.6,0-4.1-1.9-4.1-4.4c0-2.6,1.4-4.5,4.1-4.5c2.7,0,3.9,2,3.9,4.5v0.3H261.4z M266.2,444.1c-0.2-1.3-1-2.1-2.3-2.1
		c-1.3,0-2.2,0.9-2.4,2.1H266.2z"/>
	<path class="st2" d="M277.2,449.3h-1.6V448h0c-0.6,1-1.7,1.6-2.9,1.6c-2.6,0-4-2.1-4-4.6c0-2.3,1.5-4.4,4-4.4
		c1.2,0,2.3,0.6,2.9,1.7h0v-1.4h1.6V449.3z M275.6,445.1c0-1.6-1-3-2.7-3c-1.7,0-2.7,1.5-2.7,3c0,1.6,1,3.1,2.7,3.1
		C274.7,448.1,275.6,446.7,275.6,445.1z"/>
	<path class="st2" d="M288.6,435.3c-0.3-0.1-0.7-0.3-1.1-0.3c-1.2,0-1.2,1.5-1.2,2.3v3.6h2.2v1.5h-2.2v6.9h-1.6v-6.9H284v-1.5h0.7
		v-4.1c0-1.8,0.6-3.3,2.7-3.3c0.4,0,0.8,0.1,1.1,0.2V435.3z"/>
	<path class="st2" d="M297.7,445.1c0,2.5-2,4.5-4.5,4.5s-4.5-1.9-4.5-4.5c0-2.5,2-4.5,4.5-4.5S297.7,442.6,297.7,445.1z
		 M290.3,445.1c0,1.6,1.3,2.9,2.9,2.9s2.9-1.4,2.9-2.9c0-1.6-1.3-2.9-2.9-2.9S290.3,443.5,290.3,445.1z"/>
	<path class="st2" d="M300.9,442.2L300.9,442.2c0.5-1,1.3-1.6,2.4-1.6c0.5,0,0.9,0.2,1.3,0.4l-0.7,1.5c-0.3-0.3-0.6-0.3-1-0.3
		c-1.7,0-2,1.6-2,3v4.1h-1.6v-8.4h1.6V442.2z"/>
	<path class="st2" d="M312.5,449.3h-1.6v-6.9H310v-1.5h0.9v-3.2h1.6v3.2h1.6v1.5h-1.6V449.3z"/>
	<path class="st2" d="M315.9,445.3c0,1.4,1,2.8,2.5,2.8c1.2,0,1.9-0.6,2.5-1.6l1.4,0.8c-0.8,1.5-2.3,2.3-3.9,2.3
		c-2.6,0-4.1-1.9-4.1-4.4c0-2.6,1.4-4.5,4.1-4.5c2.7,0,3.9,2,3.9,4.5v0.3H315.9z M320.8,444.1c-0.2-1.3-1-2.1-2.3-2.1
		c-1.3,0-2.2,0.9-2.4,2.1H320.8z"/>
	<path class="st2" d="M331.7,449.3H330V448h0c-0.6,1-1.7,1.6-2.9,1.6c-2.6,0-4-2.1-4-4.6c0-2.3,1.5-4.4,4-4.4c1.2,0,2.3,0.6,2.9,1.7
		h0v-1.4h1.6V449.3z M330.1,445.1c0-1.6-1-3-2.7-3c-1.7,0-2.7,1.5-2.7,3c0,1.6,1,3.1,2.7,3.1C329.2,448.1,330.1,446.7,330.1,445.1z"
		/>
	<path class="st2" d="M340,443.3c-0.6-0.7-1.4-1.1-2.4-1.1c-1.6,0-2.8,1.4-2.8,3c0,1.7,1.2,3,2.9,3c0.9,0,1.7-0.4,2.3-1.1v2.1
		c-0.7,0.4-1.5,0.6-2.3,0.6c-2.5,0-4.5-1.9-4.5-4.4c0-2.6,2-4.5,4.6-4.5c0.8,0,1.6,0.2,2.2,0.6V443.3z"/>
	<path class="st2" d="M343.3,433.7v8.3h0c0.5-0.9,1.5-1.4,2.5-1.4c2.4,0,3,1.6,3,3.7v5h-1.6v-4.8c0-1.4-0.2-2.4-1.9-2.4
		c-2.1,0-2.1,1.8-2.1,3.4v3.9h-1.6v-15.6H343.3z"/>
	<path class="st2" d="M353.4,437c0,0.6-0.5,1.1-1.1,1.1c-0.6,0-1.1-0.5-1.1-1.1c0-0.6,0.5-1.1,1.1-1.1
		C352.9,435.9,353.4,436.4,353.4,437z M353.1,449.3h-1.6v-8.4h1.6V449.3z"/>
	<path class="st2" d="M357.3,442L357.3,442c0.5-0.9,1.5-1.4,2.6-1.4c2.4,0,3,1.6,3,3.7v5h-1.6v-4.8c0-1.4-0.2-2.4-1.9-2.4
		c-2.1,0-2.1,1.8-2.1,3.4v3.9h-1.6v-8.4h1.6V442z"/>
	<path class="st2" d="M373,449.1c0,2.9-0.8,5-4.1,5c-2.3,0-4-1.4-4.1-3.8h1.6c0,1.5,1,2.4,2.5,2.4c2,0,2.4-1.4,2.4-3.1V448h0
		c-0.6,1-1.7,1.6-2.9,1.6c-2.6,0-4-2.1-4-4.6c0-2.3,1.5-4.4,4-4.4c1.3,0,2.3,0.6,2.9,1.7h0v-1.4h1.6V449.1z M371.5,445.1
		c0-1.6-1-3-2.7-3c-1.7,0-2.7,1.5-2.7,3c0,1.6,1,3.1,2.7,3.1C370.5,448.1,371.5,446.7,371.5,445.1z"/>
	<path class="st2" d="M76.8,475.3h-1.6V474h0c-0.6,1-1.7,1.6-2.9,1.6c-2.6,0-4-2.1-4-4.6c0-2.3,1.5-4.4,4-4.4c1.2,0,2.3,0.6,2.9,1.7
		h0v-1.4h1.6V475.3z M75.3,471.1c0-1.6-1-3-2.7-3c-1.7,0-2.7,1.5-2.7,3c0,1.6,1,3.1,2.7,3.1C74.3,474.1,75.3,472.7,75.3,471.1z"/>
	<path class="st2" d="M80.5,468L80.5,468c0.5-0.9,1.5-1.4,2.6-1.4c2.4,0,3,1.6,3,3.7v5h-1.6v-4.8c0-1.4-0.2-2.4-1.9-2.4
		c-2.1,0-2.1,1.8-2.1,3.4v3.9h-1.6v-8.4h1.6V468z"/>
	<path class="st2" d="M94.6,474L94.6,474c-0.7,1-1.7,1.6-2.9,1.6c-2.6,0-4-2.1-4-4.6c0-2.3,1.5-4.4,4-4.4c1.3,0,2.3,0.6,2.9,1.7h0
		v-8.6h1.6v15.6h-1.6V474z M94.7,471.1c0-1.6-1-3-2.7-3c-1.7,0-2.7,1.5-2.7,3c0,1.6,1,3.1,2.7,3.1C93.7,474.1,94.7,472.7,94.7,471.1
		z"/>
	<path class="st2" d="M105.1,467.9L105.1,467.9c0.5-0.7,1.4-1.3,2.3-1.3c1.1,0,1.9,0.6,2.4,1.5c0.5-0.9,1.5-1.5,2.6-1.5
		c2.2,0,2.8,1.7,2.8,3.6v5h-1.6v-4.8c0-1.1-0.1-2.5-1.6-2.5c-1.7,0-1.9,1.8-1.9,3.1v4.1h-1.6v-4.5c0-1.1-0.1-2.8-1.5-2.8
		c-1.7,0-1.9,1.8-1.9,3.1v4.1h-1.6v-8.4h1.6V467.9z"/>
	<path class="st2" d="M116,466.9h1.9l2.8,5.3l2.6-5.3h1.8l-6.8,13.3h-1.8l3.3-6.3L116,466.9z"/>
	<path class="st2" d="M131.1,459.7h1.6v8.6h0c0.7-1,1.7-1.7,2.9-1.7c2.4,0,4,2.1,4,4.4c0,2.4-1.4,4.6-4,4.6c-1.2,0-2.2-0.6-2.9-1.6
		h0v1.3h-1.6V459.7z M138.1,471.1c0-1.6-1-3-2.7-3c-1.7,0-2.7,1.5-2.7,3c0,1.6,1,3.1,2.7,3.1C137.1,474.1,138.1,472.7,138.1,471.1z"
		/>
	<path class="st2" d="M142.8,466.9v4.7c0,1.4,0.3,2.5,1.9,2.5s1.9-1.2,1.9-2.5v-4.7h1.6v4.8c0,2.3-1.1,3.9-3.6,3.9s-3.6-1.6-3.6-3.9
		v-4.8H142.8z"/>
	<path class="st2" d="M153.9,468.8c-0.2-0.4-0.6-0.7-1.1-0.7c-0.5,0-0.9,0.4-0.9,0.8c0,0.7,1,1.1,2,1.5s1.9,1.1,1.9,2.4
		c0,1.6-1.3,2.8-2.9,2.8c-1.2,0-2.5-0.7-2.9-1.9l1.4-0.6c0.3,0.6,0.8,1.1,1.5,1.1c0.7,0,1.3-0.5,1.3-1.2c0-0.5-0.2-0.7-0.6-0.9
		l-1.6-0.8c-0.9-0.5-1.6-1-1.6-2.1c0-1.4,1.1-2.4,2.5-2.4c1,0,1.9,0.6,2.3,1.5L153.9,468.8z"/>
	<path class="st2" d="M159.7,463c0,0.6-0.5,1.1-1.1,1.1c-0.6,0-1.1-0.5-1.1-1.1c0-0.6,0.5-1.1,1.1-1.1
		C159.2,461.9,159.7,462.4,159.7,463z M159.4,475.3h-1.6v-8.4h1.6V475.3z"/>
	<path class="st2" d="M163.6,468L163.6,468c0.5-0.9,1.5-1.4,2.6-1.4c2.4,0,3,1.6,3,3.7v5h-1.6v-4.8c0-1.4-0.2-2.4-1.9-2.4
		c-2.1,0-2.1,1.8-2.1,3.4v3.9H162v-8.4h1.6V468z"/>
	<path class="st2" d="M172.4,471.3c0,1.4,1,2.8,2.5,2.8c1.2,0,1.9-0.6,2.5-1.6l1.4,0.8c-0.8,1.5-2.3,2.3-3.9,2.3
		c-2.6,0-4.1-1.9-4.1-4.4c0-2.6,1.4-4.5,4.1-4.5c2.7,0,3.9,2,3.9,4.5v0.3H172.4z M177.2,470.1c-0.2-1.3-1-2.1-2.3-2.1
		c-1.3,0-2.2,0.9-2.4,2.1H177.2z"/>
	<path class="st2" d="M183.6,468.8c-0.2-0.4-0.6-0.7-1.1-0.7c-0.5,0-0.9,0.4-0.9,0.8c0,0.7,1,1.1,2,1.5s1.9,1.1,1.9,2.4
		c0,1.6-1.3,2.8-2.9,2.8c-1.2,0-2.5-0.7-2.9-1.9l1.4-0.6c0.3,0.6,0.8,1.1,1.5,1.1c0.7,0,1.3-0.5,1.3-1.2c0-0.5-0.2-0.7-0.6-0.9
		l-1.6-0.8c-0.9-0.5-1.6-1-1.6-2.1c0-1.4,1.1-2.4,2.5-2.4c1,0,1.9,0.6,2.3,1.5L183.6,468.8z"/>
	<path class="st2" d="M190.5,468.8c-0.2-0.4-0.6-0.7-1.1-0.7c-0.5,0-0.9,0.4-0.9,0.8c0,0.7,1,1.1,2,1.5s1.9,1.1,1.9,2.4
		c0,1.6-1.3,2.8-2.9,2.8c-1.2,0-2.5-0.7-2.9-1.9l1.4-0.6c0.3,0.6,0.8,1.1,1.5,1.1c0.7,0,1.3-0.5,1.3-1.2c0-0.5-0.2-0.7-0.6-0.9
		l-1.6-0.8c-0.9-0.5-1.6-1-1.6-2.1c0-1.4,1.1-2.4,2.5-2.4c1,0,1.9,0.6,2.3,1.5L190.5,468.8z"/>
	<path class="st2" d="M196.5,474.5c0,0.6-0.5,1-1,1s-1-0.5-1-1c0-0.6,0.5-1,1-1S196.5,474,196.5,474.5z"/>
	<path class="st2" d="M201.9,462l-2.4,4.8l-1-0.4l2-5L201.9,462z M204.9,462l-2.4,4.8l-1-0.4l2-5L204.9,462z"/>
</g>
<title>Asset 7</title>
<rect class="st3" width="792" height="600"/>
<g>
	<path class="st2" d="M27.2,52.6h-2.4v-7.1h-1.9v-2h6.2v2h-1.9V52.6z"/>
	<path class="st2" d="M32.1,42.6v4.6h0c0.5-0.7,1.1-1,2-1c1.6,0,2.3,1,2.3,2.6v3.8h-2.2v-3.2c0-0.7-0.1-1.5-1-1.5
		c-0.9,0-1.1,0.7-1.1,1.5v3.2h-2.2v-10H32.1z"/>
	<path class="st2" d="M44.2,49.9h-4.6c0,0.9,0.5,1.4,1.4,1.4c0.5,0,0.8-0.2,1-0.6h2.1c-0.2,0.7-0.6,1.2-1.2,1.6
		c-0.6,0.3-1.3,0.5-2,0.5c-2,0-3.6-1.2-3.6-3.3c0-2.1,1.4-3.3,3.4-3.3c2.1,0,3.4,1.3,3.4,3.4V49.9z M42.1,48.6c-0.1-0.6-0.6-1-1.2-1
		c-0.6,0-1.2,0.3-1.3,1H42.1z"/>
	<path class="st2" d="M56,52c0,2.6-1.3,3.7-3.6,3.7c-1.4,0-3.3-0.7-3.5-2.4h2.4c0.1,0.2,0.2,0.4,0.4,0.5c0.2,0.1,0.4,0.1,0.6,0.1
		c1.2,0,1.4-0.8,1.4-1.8v-0.3c-0.6,0.6-1.1,0.8-2,0.8c-1.8,0-3-1.4-3-3.1c0-1.8,1.3-3.3,3.2-3.3c0.7,0,1.4,0.2,1.8,0.9h0v-0.6H56V52
		z M51.1,49.5c0,0.8,0.5,1.4,1.4,1.4c0.9,0,1.4-0.6,1.4-1.4c0-0.8-0.5-1.4-1.4-1.4C51.6,48.1,51.1,48.7,51.1,49.5z"/>
	<path class="st2" d="M59.6,47.5L59.6,47.5c0.4-0.8,1.2-1.1,2-1.1H62v2.1c-0.3-0.2-0.6-0.2-0.9-0.2c-1.2,0-1.5,0.8-1.5,1.9v2.5h-2.2
		v-6.2h2.2V47.5z"/>
	<path class="st2" d="M69.6,52.6h-2.2v-0.7h0c-0.4,0.6-1.1,0.9-1.9,0.9c-1.8,0-3.1-1.5-3.1-3.3c0-1.8,1.3-3.3,3.1-3.3
		c0.7,0,1.5,0.3,1.9,0.8v-0.6h2.2V52.6z M64.7,49.5c0,0.8,0.5,1.4,1.4,1.4c0.9,0,1.4-0.6,1.4-1.4c0-0.8-0.5-1.4-1.4-1.4
		C65.2,48.1,64.7,48.8,64.7,49.5z"/>
	<path class="st2" d="M73.1,47.1L73.1,47.1c0.4-0.6,1.2-0.9,1.9-0.9c1.8,0,3.1,1.5,3.1,3.3c0,1.8-1.3,3.3-3.1,3.3
		c-0.7,0-1.4-0.3-1.9-0.8v3.7H71v-9.2h2.2V47.1z M73.1,49.5c0,0.8,0.5,1.4,1.4,1.4c0.9,0,1.4-0.6,1.4-1.4c0-0.8-0.5-1.4-1.4-1.4
		C73.6,48.1,73.1,48.8,73.1,49.5z"/>
	<path class="st2" d="M81.4,42.6v4.6h0c0.5-0.7,1.1-1,2-1c1.6,0,2.3,1,2.3,2.6v3.8h-2.2v-3.2c0-0.7-0.1-1.5-1-1.5
		c-0.9,0-1.1,0.7-1.1,1.5v3.2h-2.2v-10H81.4z"/>
	<path class="st2" d="M89.5,44.1c0,0.7-0.6,1.2-1.2,1.2c-0.7,0-1.2-0.6-1.2-1.2c0-0.7,0.6-1.2,1.2-1.2
		C88.9,42.9,89.5,43.4,89.5,44.1z M89.3,52.6h-2.2v-6.2h2.2V52.6z"/>
	<path class="st2" d="M95.2,48.5c-0.3-0.2-0.7-0.4-1.1-0.4c-0.8,0-1.5,0.6-1.5,1.5c0,0.9,0.6,1.5,1.5,1.5c0.4,0,0.8-0.2,1.1-0.4v1.8
		c-0.5,0.2-1,0.3-1.5,0.3c-1.8,0-3.3-1.4-3.3-3.2c0-2,1.5-3.3,3.4-3.3c0.5,0,1,0.1,1.4,0.4V48.5z"/>
	<path class="st2" d="M105.3,51.9L105.3,51.9c-0.4,0.6-1.2,0.9-1.9,0.9c-1.8,0-3.1-1.5-3.1-3.3c0-1.8,1.3-3.3,3.1-3.3
		c0.7,0,1.5,0.3,1.9,0.8v-4.4h2.2v10h-2.2V51.9z M102.6,49.5c0,0.8,0.5,1.4,1.4,1.4c0.9,0,1.4-0.6,1.4-1.4c0-0.8-0.5-1.4-1.4-1.4
		C103.1,48.1,102.6,48.8,102.6,49.5z"/>
	<path class="st2" d="M115.2,49.9h-4.6c0,0.9,0.5,1.4,1.4,1.4c0.5,0,0.8-0.2,1-0.6h2.1c-0.2,0.7-0.6,1.2-1.2,1.6
		c-0.6,0.3-1.3,0.5-2,0.5c-2,0-3.6-1.2-3.6-3.3c0-2.1,1.4-3.3,3.4-3.3c2.1,0,3.4,1.3,3.4,3.4V49.9z M113.2,48.6
		c-0.1-0.6-0.6-1-1.2-1c-0.6,0-1.2,0.3-1.3,1H113.2z"/>
	<path class="st2" d="M120.2,48c-0.3-0.2-0.8-0.3-1.2-0.3c-0.3,0-0.7,0.1-0.7,0.4c0,0.4,0.7,0.5,1,0.5c1,0.2,1.8,0.7,1.8,1.8
		c0,1.6-1.5,2.3-2.9,2.3c-0.9,0-1.7-0.3-2.5-0.7l0.8-1.5c0.4,0.3,1.2,0.6,1.7,0.6c0.3,0,0.7-0.1,0.7-0.5c0-0.5-0.7-0.5-1.4-0.7
		c-0.7-0.2-1.4-0.5-1.4-1.6c0-1.5,1.4-2.2,2.7-2.2c0.7,0,1.4,0.1,2,0.4L120.2,48z"/>
	<path class="st2" d="M124.7,44.1c0,0.7-0.6,1.2-1.2,1.2c-0.7,0-1.2-0.6-1.2-1.2c0-0.7,0.6-1.2,1.2-1.2
		C124.1,42.9,124.7,43.4,124.7,44.1z M124.5,52.6h-2.2v-6.2h2.2V52.6z"/>
	<path class="st2" d="M132.7,52c0,2.6-1.3,3.7-3.6,3.7c-1.4,0-3.3-0.7-3.5-2.4h2.4c0.1,0.2,0.2,0.4,0.4,0.5c0.2,0.1,0.4,0.1,0.6,0.1
		c1.2,0,1.4-0.8,1.4-1.8v-0.3c-0.6,0.6-1.1,0.8-2,0.8c-1.8,0-3-1.4-3-3.1c0-1.8,1.3-3.3,3.2-3.3c0.7,0,1.4,0.2,1.8,0.9h0v-0.6h2.2
		V52z M127.8,49.5c0,0.8,0.5,1.4,1.4,1.4c0.9,0,1.4-0.6,1.4-1.4c0-0.8-0.5-1.4-1.4-1.4C128.3,48.1,127.8,48.7,127.8,49.5z"/>
	<path class="st2" d="M136.3,47.2L136.3,47.2c0.5-0.7,1.1-1,2-1c1.7,0,2.3,1,2.3,2.6v3.8h-2.2v-3c0-0.6,0.1-1.6-1-1.6
		c-0.9,0-1.1,0.7-1.1,1.4v3.2h-2.2v-6.2h2.2V47.2z"/>
	<path class="st2" d="M150.2,48c-0.3-0.2-0.8-0.3-1.2-0.3c-0.3,0-0.7,0.1-0.7,0.4c0,0.4,0.7,0.5,1,0.5c1,0.2,1.8,0.7,1.8,1.8
		c0,1.6-1.5,2.3-2.9,2.3c-0.9,0-1.7-0.3-2.5-0.7l0.8-1.5c0.4,0.3,1.2,0.6,1.7,0.6c0.3,0,0.7-0.1,0.7-0.5c0-0.5-0.7-0.5-1.4-0.7
		c-0.7-0.2-1.4-0.5-1.4-1.6c0-1.5,1.4-2.2,2.7-2.2c0.7,0,1.4,0.1,2,0.4L150.2,48z"/>
	<path class="st2" d="M154.7,52.6h-2.2v-4.4h-0.7v-1.8h0.7v-1.8h2.2v1.8h1.2v1.8h-1.2V52.6z"/>
	<path class="st2" d="M158.8,46.4v3.3c0,0.8,0.2,1.3,1.1,1.3c0.9,0,1.1-0.6,1.1-1.3v-3.3h2.2v3.7c0,2-1.4,2.7-3.3,2.7
		c-1.8,0-3.3-0.6-3.3-2.7v-3.7H158.8z"/>
	<path class="st2" d="M169.1,51.9L169.1,51.9c-0.4,0.6-1.2,0.9-1.9,0.9c-1.8,0-3.1-1.5-3.1-3.3c0-1.8,1.3-3.3,3.1-3.3
		c0.7,0,1.5,0.3,1.9,0.8v-4.4h2.2v10h-2.2V51.9z M166.4,49.5c0,0.8,0.5,1.4,1.4,1.4c0.9,0,1.4-0.6,1.4-1.4c0-0.8-0.5-1.4-1.4-1.4
		C166.9,48.1,166.4,48.8,166.4,49.5z"/>
	<path class="st2" d="M179,49.9h-4.6c0,0.9,0.5,1.4,1.4,1.4c0.5,0,0.8-0.2,1-0.6h2.1c-0.2,0.7-0.6,1.2-1.2,1.6
		c-0.6,0.3-1.3,0.5-2,0.5c-2,0-3.6-1.2-3.6-3.3c0-2.1,1.4-3.3,3.4-3.3c2.1,0,3.4,1.3,3.4,3.4V49.9z M177,48.6c-0.1-0.6-0.6-1-1.2-1
		c-0.6,0-1.2,0.3-1.3,1H177z"/>
	<path class="st2" d="M182.2,47.2L182.2,47.2c0.5-0.7,1.1-1,2-1c1.7,0,2.3,1,2.3,2.6v3.8h-2.2v-3c0-0.6,0.1-1.6-1-1.6
		c-0.9,0-1.1,0.7-1.1,1.4v3.2H180v-6.2h2.2V47.2z"/>
	<path class="st2" d="M190.3,52.6h-2.2v-4.4h-0.7v-1.8h0.7v-1.8h2.2v1.8h1.2v1.8h-1.2V52.6z"/>
	<path class="st2" d="M203.1,52.6h-2.2v-0.7h0c-0.4,0.6-1.1,0.9-1.9,0.9c-1.8,0-3.1-1.5-3.1-3.3c0-1.8,1.3-3.3,3.1-3.3
		c0.7,0,1.5,0.3,1.9,0.8v-0.6h2.2V52.6z M198.2,49.5c0,0.8,0.5,1.4,1.4,1.4c0.9,0,1.4-0.6,1.4-1.4c0-0.8-0.5-1.4-1.4-1.4
		C198.7,48.1,198.2,48.8,198.2,49.5z"/>
	<path class="st2" d="M207,52.6h-2.2v-4.4h-0.7v-1.8h0.7v-1.8h2.2v1.8h1.2v1.8H207V52.6z"/>
	<path class="st2" d="M219.5,46.6c-0.5-0.6-1.3-1-2.1-1c-1.4,0-2.4,1.1-2.4,2.5c0,1.4,1,2.5,2.4,2.5c0.8,0,1.5-0.4,2-1v2.8
		c-0.8,0.2-1.3,0.4-2.1,0.4c-1.3,0-2.5-0.5-3.4-1.3c-1-0.9-1.5-2.1-1.5-3.4c0-1.2,0.5-2.4,1.3-3.3c0.9-0.9,2.2-1.5,3.4-1.5
		c0.8,0,1.5,0.2,2.1,0.5V46.6z"/>
	<path class="st2" d="M227.4,46.6c-0.5-0.6-1.3-1-2.1-1c-1.4,0-2.4,1.1-2.4,2.5c0,1.4,1,2.5,2.4,2.5c0.8,0,1.5-0.4,2-1v2.8
		c-0.8,0.2-1.3,0.4-2.1,0.4c-1.3,0-2.5-0.5-3.4-1.3c-1-0.9-1.5-2.1-1.5-3.4c0-1.2,0.5-2.4,1.3-3.3c0.9-0.9,2.2-1.5,3.4-1.5
		c0.8,0,1.5,0.2,2.1,0.5V46.6z"/>
	<path class="st2" d="M231.2,51l-0.6,1.6h-2.5l3.5-9h2.6l3.4,9H235l-0.6-1.6H231.2z M232.8,46.4L232.8,46.4l-1,2.9h2L232.8,46.4z"/>
</g>
<g>
	<path class="st2" d="M27.2,333.3h-2.4v-7.1h-1.9v-2h6.2v2h-1.9V333.3z"/>
	<path class="st2" d="M32.1,323.3v4.6h0c0.5-0.7,1.1-1,2-1c1.6,0,2.3,1,2.3,2.6v3.8h-2.2v-3.2c0-0.7-0.1-1.5-1-1.5
		c-0.9,0-1.1,0.7-1.1,1.5v3.2h-2.2v-10H32.1z"/>
	<path class="st2" d="M44.2,330.6h-4.6c0,0.9,0.5,1.4,1.4,1.4c0.5,0,0.8-0.2,1-0.6h2.1c-0.2,0.7-0.6,1.2-1.2,1.6
		c-0.6,0.3-1.3,0.5-2,0.5c-2,0-3.6-1.2-3.6-3.3c0-2.1,1.4-3.3,3.4-3.3c2.1,0,3.4,1.3,3.4,3.4V330.6z M42.1,329.3
		c-0.1-0.6-0.6-1-1.2-1c-0.6,0-1.2,0.3-1.3,1H42.1z"/>
	<path class="st2" d="M56,332.7c0,2.6-1.3,3.7-3.6,3.7c-1.4,0-3.3-0.7-3.5-2.4h2.4c0.1,0.2,0.2,0.4,0.4,0.5s0.4,0.1,0.6,0.1
		c1.2,0,1.4-0.8,1.4-1.8v-0.3c-0.6,0.6-1.1,0.8-2,0.8c-1.8,0-3-1.4-3-3.1c0-1.8,1.3-3.3,3.2-3.3c0.7,0,1.4,0.2,1.8,0.9h0v-0.6H56
		V332.7z M51.1,330.2c0,0.8,0.5,1.4,1.4,1.4c0.9,0,1.4-0.6,1.4-1.4c0-0.8-0.5-1.4-1.4-1.4C51.6,328.8,51.1,329.4,51.1,330.2z"/>
	<path class="st2" d="M59.6,328.1L59.6,328.1c0.4-0.8,1.2-1.1,2-1.1H62v2.1c-0.3-0.2-0.6-0.2-0.9-0.2c-1.2,0-1.5,0.8-1.5,1.9v2.5
		h-2.2v-6.2h2.2V328.1z"/>
	<path class="st2" d="M69.6,333.3h-2.2v-0.7h0c-0.4,0.6-1.1,0.9-1.9,0.9c-1.8,0-3.1-1.5-3.1-3.3s1.3-3.3,3.1-3.3
		c0.7,0,1.5,0.3,1.9,0.8v-0.6h2.2V333.3z M64.7,330.2c0,0.8,0.5,1.4,1.4,1.4c0.9,0,1.4-0.6,1.4-1.4c0-0.8-0.5-1.4-1.4-1.4
		C65.2,328.8,64.7,329.5,64.7,330.2z"/>
	<path class="st2" d="M73.1,327.8L73.1,327.8c0.4-0.6,1.2-0.9,1.9-0.9c1.8,0,3.1,1.5,3.1,3.3c0,1.8-1.3,3.3-3.1,3.3
		c-0.7,0-1.4-0.3-1.9-0.8v3.7H71v-9.2h2.2V327.8z M73.1,330.2c0,0.8,0.5,1.4,1.4,1.4c0.9,0,1.4-0.6,1.4-1.4c0-0.8-0.5-1.4-1.4-1.4
		C73.6,328.8,73.1,329.5,73.1,330.2z"/>
	<path class="st2" d="M81.4,323.3v4.6h0c0.5-0.7,1.1-1,2-1c1.6,0,2.3,1,2.3,2.6v3.8h-2.2v-3.2c0-0.7-0.1-1.5-1-1.5
		c-0.9,0-1.1,0.7-1.1,1.5v3.2h-2.2v-10H81.4z"/>
	<path class="st2" d="M89.5,324.8c0,0.7-0.6,1.2-1.2,1.2c-0.7,0-1.2-0.6-1.2-1.2c0-0.7,0.6-1.2,1.2-1.2
		C88.9,323.5,89.5,324.1,89.5,324.8z M89.3,333.3h-2.2v-6.2h2.2V333.3z"/>
	<path class="st2" d="M95.2,329.1c-0.3-0.2-0.7-0.4-1.1-0.4c-0.8,0-1.5,0.6-1.5,1.5c0,0.9,0.6,1.5,1.5,1.5c0.4,0,0.8-0.2,1.1-0.4
		v1.8c-0.5,0.2-1,0.3-1.5,0.3c-1.8,0-3.3-1.4-3.3-3.2c0-2,1.5-3.3,3.4-3.3c0.5,0,1,0.1,1.4,0.4V329.1z"/>
	<path class="st2" d="M105.3,332.6L105.3,332.6c-0.4,0.6-1.2,0.9-1.9,0.9c-1.8,0-3.1-1.5-3.1-3.3s1.3-3.3,3.1-3.3
		c0.7,0,1.5,0.3,1.9,0.8v-4.4h2.2v10h-2.2V332.6z M102.6,330.2c0,0.8,0.5,1.4,1.4,1.4c0.9,0,1.4-0.6,1.4-1.4c0-0.8-0.5-1.4-1.4-1.4
		C103.1,328.8,102.6,329.5,102.6,330.2z"/>
	<path class="st2" d="M115.2,330.6h-4.6c0,0.9,0.5,1.4,1.4,1.4c0.5,0,0.8-0.2,1-0.6h2.1c-0.2,0.7-0.6,1.2-1.2,1.6
		c-0.6,0.3-1.3,0.5-2,0.5c-2,0-3.6-1.2-3.6-3.3c0-2.1,1.4-3.3,3.4-3.3c2.1,0,3.4,1.3,3.4,3.4V330.6z M113.2,329.3
		c-0.1-0.6-0.6-1-1.2-1c-0.6,0-1.2,0.3-1.3,1H113.2z"/>
	<path class="st2" d="M120.2,328.7c-0.3-0.2-0.8-0.3-1.2-0.3c-0.3,0-0.7,0.1-0.7,0.4c0,0.4,0.7,0.5,1,0.5c1,0.2,1.8,0.7,1.8,1.8
		c0,1.6-1.5,2.3-2.9,2.3c-0.9,0-1.7-0.3-2.5-0.7l0.8-1.5c0.4,0.3,1.2,0.6,1.7,0.6c0.3,0,0.7-0.1,0.7-0.5c0-0.5-0.7-0.5-1.4-0.7
		c-0.7-0.2-1.4-0.5-1.4-1.6c0-1.5,1.4-2.2,2.7-2.2c0.7,0,1.4,0.1,2,0.4L120.2,328.7z"/>
	<path class="st2" d="M124.7,324.8c0,0.7-0.6,1.2-1.2,1.2c-0.7,0-1.2-0.6-1.2-1.2c0-0.7,0.6-1.2,1.2-1.2
		C124.1,323.5,124.7,324.1,124.7,324.8z M124.5,333.3h-2.2v-6.2h2.2V333.3z"/>
	<path class="st2" d="M132.7,332.7c0,2.6-1.3,3.7-3.6,3.7c-1.4,0-3.3-0.7-3.5-2.4h2.4c0.1,0.2,0.2,0.4,0.4,0.5s0.4,0.1,0.6,0.1
		c1.2,0,1.4-0.8,1.4-1.8v-0.3c-0.6,0.6-1.1,0.8-2,0.8c-1.8,0-3-1.4-3-3.1c0-1.8,1.3-3.3,3.2-3.3c0.7,0,1.4,0.2,1.8,0.9h0v-0.6h2.2
		V332.7z M127.8,330.2c0,0.8,0.5,1.4,1.4,1.4c0.9,0,1.4-0.6,1.4-1.4c0-0.8-0.5-1.4-1.4-1.4C128.3,328.8,127.8,329.4,127.8,330.2z"/>
	<path class="st2" d="M136.3,327.9L136.3,327.9c0.5-0.7,1.1-1,2-1c1.7,0,2.3,1,2.3,2.6v3.8h-2.2v-3c0-0.6,0.1-1.6-1-1.6
		c-0.9,0-1.1,0.7-1.1,1.4v3.2h-2.2v-6.2h2.2V327.9z"/>
	<path class="st2" d="M148.3,327.9L148.3,327.9c0.5-0.7,1.2-1,2-1c0.9,0,1.7,0.4,2.1,1.2c0.4-0.8,1.2-1.2,2.1-1.2
		c1.6,0,2.1,1,2.1,2.4v3.9h-2.2v-2.9c0-0.6,0-1.7-0.9-1.7c-1,0-1,0.9-1,1.7v2.9h-2.2v-2.9c0-0.7,0-1.7-1-1.7c-1,0-1,1-1,1.7v2.9
		h-2.2v-6.2h2.2V327.9z"/>
	<path class="st2" d="M164.7,333.3h-2.2v-0.7h0c-0.4,0.6-1.1,0.9-1.9,0.9c-1.8,0-3.1-1.5-3.1-3.3s1.3-3.3,3.1-3.3
		c0.7,0,1.5,0.3,1.9,0.8v-0.6h2.2V333.3z M159.8,330.2c0,0.8,0.5,1.4,1.4,1.4c0.9,0,1.4-0.6,1.4-1.4c0-0.8-0.5-1.4-1.4-1.4
		C160.3,328.8,159.8,329.5,159.8,330.2z"/>
	<path class="st2" d="M168.5,324.8c0,0.7-0.6,1.2-1.2,1.2c-0.7,0-1.2-0.6-1.2-1.2c0-0.7,0.6-1.2,1.2-1.2
		C167.9,323.5,168.5,324.1,168.5,324.8z M168.4,336.4h-2.2v-9.2h2.2V336.4z"/>
	<path class="st2" d="M176.8,330.2c0,2.1-1.7,3.3-3.7,3.3c-2,0-3.7-1.2-3.7-3.3s1.7-3.3,3.7-3.3S176.8,328.1,176.8,330.2z
		 M171.7,330.2c0,0.8,0.5,1.4,1.4,1.4c0.9,0,1.4-0.6,1.4-1.4c0-0.8-0.5-1.4-1.4-1.4C172.2,328.8,171.7,329.5,171.7,330.2z"/>
	<path class="st2" d="M179.9,328.1L179.9,328.1c0.4-0.8,1.2-1.1,2-1.1h0.4v2.1c-0.3-0.2-0.6-0.2-0.9-0.2c-1.2,0-1.5,0.8-1.5,1.9v2.5
		h-2.2v-6.2h2.2V328.1z"/>
	<path class="st2" d="M189.7,333.3h-2.4v-9h2.4V333.3z"/>
	<path class="st2" d="M193.4,327.9L193.4,327.9c0.5-0.7,1.1-1,2-1c1.7,0,2.3,1,2.3,2.6v3.8h-2.2v-3c0-0.6,0.1-1.6-1-1.6
		c-0.9,0-1.1,0.7-1.1,1.4v3.2h-2.2v-6.2h2.2V327.9z"/>
	<path class="st2" d="M203.2,328.7c-0.3-0.2-0.8-0.3-1.2-0.3c-0.3,0-0.7,0.1-0.7,0.4c0,0.4,0.7,0.5,1,0.5c1,0.2,1.8,0.7,1.8,1.8
		c0,1.6-1.5,2.3-2.9,2.3c-0.9,0-1.7-0.3-2.5-0.7l0.8-1.5c0.4,0.3,1.2,0.6,1.7,0.6c0.3,0,0.7-0.1,0.7-0.5c0-0.5-0.7-0.5-1.4-0.7
		c-0.7-0.2-1.4-0.5-1.4-1.6c0-1.5,1.4-2.2,2.7-2.2c0.7,0,1.4,0.1,2,0.4L203.2,328.7z"/>
	<path class="st2" d="M207.7,333.3h-2.2v-4.4h-0.7v-1.8h0.7v-1.8h2.2v1.8h1.2v1.8h-1.2V333.3z"/>
	<path class="st2" d="M211.8,328.1L211.8,328.1c0.4-0.8,1.2-1.1,2-1.1h0.4v2.1c-0.3-0.2-0.6-0.2-0.9-0.2c-1.2,0-1.5,0.8-1.5,1.9v2.5
		h-2.2v-6.2h2.2V328.1z"/>
	<path class="st2" d="M217.2,327.1v3.3c0,0.8,0.2,1.3,1.1,1.3c0.9,0,1.1-0.6,1.1-1.3v-3.3h2.2v3.7c0,2-1.4,2.7-3.3,2.7
		c-1.8,0-3.3-0.6-3.3-2.7v-3.7H217.2z"/>
	<path class="st2" d="M227.4,329.1c-0.3-0.2-0.7-0.4-1.1-0.4c-0.8,0-1.5,0.6-1.5,1.5c0,0.9,0.6,1.5,1.5,1.5c0.4,0,0.8-0.2,1.1-0.4
		v1.8c-0.5,0.2-1,0.3-1.5,0.3c-1.8,0-3.3-1.4-3.3-3.2c0-2,1.5-3.3,3.4-3.3c0.5,0,1,0.1,1.4,0.4V329.1z"/>
	<path class="st2" d="M231.1,333.3h-2.2v-4.4h-0.7v-1.8h0.7v-1.8h2.2v1.8h1.2v1.8h-1.2V333.3z"/>
	<path class="st2" d="M240,330.2c0,2.1-1.7,3.3-3.7,3.3c-2,0-3.7-1.2-3.7-3.3s1.7-3.3,3.7-3.3S240,328.1,240,330.2z M234.9,330.2
		c0,0.8,0.5,1.4,1.4,1.4c0.9,0,1.4-0.6,1.4-1.4c0-0.8-0.5-1.4-1.4-1.4C235.4,328.8,234.9,329.5,234.9,330.2z"/>
	<path class="st2" d="M243.2,328.1L243.2,328.1c0.4-0.8,1.2-1.1,2-1.1h0.4v2.1c-0.3-0.2-0.6-0.2-0.9-0.2c-1.2,0-1.5,0.8-1.5,1.9v2.5
		H241v-6.2h2.2V328.1z"/>
	<path class="st2" d="M257.3,333.3h-2.2v-0.7h0c-0.4,0.6-1.1,0.9-1.9,0.9c-1.8,0-3.1-1.5-3.1-3.3s1.3-3.3,3.1-3.3
		c0.7,0,1.5,0.3,1.9,0.8v-0.6h2.2V333.3z M252.4,330.2c0,0.8,0.5,1.4,1.4,1.4c0.9,0,1.4-0.6,1.4-1.4c0-0.8-0.5-1.4-1.4-1.4
		C252.9,328.8,252.4,329.5,252.4,330.2z"/>
	<path class="st2" d="M261.1,333.3h-2.2v-4.4h-0.7v-1.8h0.7v-1.8h2.2v1.8h1.2v1.8h-1.2V333.3z"/>
	<path class="st2" d="M273.7,327.3c-0.5-0.6-1.3-1-2.1-1c-1.4,0-2.4,1.1-2.4,2.5c0,1.4,1,2.5,2.4,2.5c0.8,0,1.5-0.4,2-1v2.8
		c-0.8,0.2-1.3,0.4-2.1,0.4c-1.3,0-2.5-0.5-3.4-1.3c-1-0.9-1.5-2.1-1.5-3.4c0-1.2,0.5-2.4,1.3-3.3c0.9-0.9,2.2-1.5,3.4-1.5
		c0.8,0,1.5,0.2,2.1,0.5V327.3z"/>
	<path class="st2" d="M281.6,327.3c-0.5-0.6-1.3-1-2.1-1c-1.4,0-2.4,1.1-2.4,2.5c0,1.4,1,2.5,2.4,2.5c0.8,0,1.5-0.4,2-1v2.8
		c-0.8,0.2-1.3,0.4-2.1,0.4c-1.3,0-2.5-0.5-3.4-1.3c-1-0.9-1.5-2.1-1.5-3.4c0-1.2,0.5-2.4,1.3-3.3c0.9-0.9,2.2-1.5,3.4-1.5
		c0.8,0,1.5,0.2,2.1,0.5V327.3z"/>
	<path class="st2" d="M285.4,331.7l-0.6,1.6h-2.5l3.5-9h2.6l3.4,9h-2.5l-0.6-1.6H285.4z M287,327L287,327l-1,2.9h2L287,327z"/>
</g>
<g>
	<g>
		<polygon class="st4" points="528.8,365.8 713.9,355.1 694.6,545.7 536.3,526.4 		"/>
		<path class="st1" d="M700.6,540.7c0,0-0.1,0-0.1,0l-158.3-19.3c-0.5-0.1-0.9-0.5-0.9-0.9l-7.4-160.6c0-0.5,0.4-1,0.9-1l185.1-10.7
			c0.3,0,0.6,0.1,0.8,0.3c0.2,0.2,0.3,0.5,0.3,0.8l-19.3,190.6c0,0.3-0.2,0.5-0.4,0.7C701.1,540.6,700.8,540.7,700.6,540.7z
			 M543.2,519.5l156.5,19.1l19.1-188.4l-182.9,10.6L543.2,519.5z"/>
	</g>
	<g>
		<polygon class="st5" points="576.5,442.4 592.5,446.6 578.4,524.9 557.6,520.9 		"/>
		<path class="st1" d="M578.4,525.9c-0.1,0-0.1,0-0.2,0l-20.8-4c-0.3-0.1-0.5-0.2-0.7-0.4c-0.1-0.2-0.2-0.5-0.1-0.8l18.9-78.5
			c0.1-0.3,0.2-0.5,0.5-0.6c0.2-0.1,0.5-0.2,0.8-0.1l16,4.2c0.5,0.1,0.8,0.6,0.7,1.1L579.4,525c0,0.3-0.2,0.5-0.4,0.6
			C578.8,525.8,578.6,525.9,578.4,525.9z M558.8,520.1l18.8,3.6l13.8-76.3l-14.1-3.7L558.8,520.1z"/>
	</g>
	<g>
		<polygon class="st5" points="645.7,445.4 659.5,442.1 676.4,527 658,526.2 		"/>
		<path class="st1" d="M657.9,527.2c-0.5,0-0.9-0.4-0.9-0.8l-12.3-80.8c-0.1-0.5,0.3-1,0.8-1.1l13.8-3.2c0.3-0.1,0.5,0,0.8,0.1
			c0.2,0.1,0.4,0.4,0.4,0.6l17,84.9c0.1,0.3,0,0.6-0.2,0.8s-0.5,0.4-0.8,0.3L657.9,527.2C657.9,527.2,657.9,527.2,657.9,527.2z
			 M646.8,446.1l12.1,79.1l16.3,0.7l-16.5-82.6L646.8,446.1z"/>
	</g>
	<g>
		<path class="st6" d="M580.1,335.3h78.3c0.2,0,0.3,0.1,0.3,0.3l4.4,79.9c0,0.2-0.2,0.3-0.3,0.3l-88.3-7.5c-0.2,0-0.3-0.2-0.3-0.3
			l5.6-72.4C579.8,335.4,579.9,335.3,580.1,335.3z"/>
		<path class="st1" d="M662.8,416.8c0,0-0.1,0-0.1,0l-88.3-7.5c-0.7-0.1-1.3-0.7-1.2-1.4l5.6-72.4c0.1-0.7,0.6-1.2,1.3-1.2h78.3
			c0.7,0,1.3,0.5,1.3,1.2l4.4,79.9c0,0.4-0.1,0.8-0.4,1C663.5,416.7,663.2,416.8,662.8,416.8z M662.9,414.8
			C662.9,414.8,662.9,414.8,662.9,414.8L662.9,414.8z M575.3,407.4l86.8,7.4l-4.3-78.5h-77.1L575.3,407.4z M575.2,408.1L575.2,408.1
			C575.2,408.1,575.2,408.1,575.2,408.1z M574.6,407.4L574.6,407.4C574.6,407.4,574.6,407.4,574.6,407.4z M657.7,335.7
			C657.7,335.7,657.7,335.7,657.7,335.7L657.7,335.7z"/>
	</g>
	<g>
		<path class="st7" d="M588.3,387.1l-7.5,3.6c-0.6,0.3-0.8,1-0.5,1.6l8,14.1V387.1z"/>
		<path class="st1" d="M588.3,387.1v19.3l-8-14.1c-0.3-0.6-0.1-1.3,0.5-1.6L588.3,387.1 M588.3,385.1c-0.3,0-0.6,0.1-0.9,0.2
			l-7.5,3.6c-0.8,0.4-1.4,1.1-1.6,1.9c-0.3,0.8-0.2,1.7,0.3,2.5l8,14.1c0.4,0.6,1,1,1.7,1c0.2,0,0.3,0,0.5-0.1
			c0.9-0.2,1.5-1,1.5-1.9v-19.3c0-0.7-0.4-1.3-0.9-1.7C589,385.2,588.6,385.1,588.3,385.1L588.3,385.1z"/>
	</g>
	<g>
		<path class="st7" d="M647.4,387.5l8,5.3c0.5,0.3,0.7,1,0.3,1.6l-8.4,13.7V387.5z"/>
		<path class="st1" d="M647.4,387.5l8,5.3c0.5,0.3,0.7,1,0.3,1.6l-8.4,13.7V387.5 M647.4,385.5c-0.3,0-0.7,0.1-0.9,0.2
			c-0.6,0.3-1.1,1-1.1,1.8v20.6c0,0.9,0.6,1.7,1.5,1.9c0.2,0.1,0.4,0.1,0.5,0.1c0.7,0,1.3-0.4,1.7-1l8.4-13.7c0.9-1.5,0.5-3.3-1-4.3
			l-8-5.3C648.2,385.6,647.8,385.5,647.4,385.5L647.4,385.5z"/>
	</g>
	<g>
		<rect x="616.2" y="430.9" class="st7" width="4.3" height="28"/>
		<path class="st1" d="M620.5,430.9v28h-4.3v-28H620.5 M620.5,428.9h-4.3c-1.1,0-2,0.9-2,2v28c0,1.1,0.9,2,2,2h4.3c1.1,0,2-0.9,2-2
			v-28C622.5,429.8,621.6,428.9,620.5,428.9L620.5,428.9z"/>
	</g>
	<g>
		<g>
			<polygon class="st6" points="590.5,445.6 614.2,445.5 618,450.4 624,445.5 645.8,445.4 652.4,533.8 584.7,527.5 			"/>
			<path class="st1" d="M652.4,534.8C652.3,534.8,652.3,534.8,652.4,534.8l-67.7-6.3c-0.5-0.1-0.9-0.5-0.9-1.1l5.8-81.9
				c0-0.5,0.5-0.9,1-0.9l23.6-0.1c0,0,0,0,0,0c0.3,0,0.6,0.1,0.8,0.4l3.2,4.1l5.2-4.3c0.2-0.1,0.4-0.2,0.6-0.2l21.8-0.1c0,0,0,0,0,0
				c0.5,0,1,0.4,1,0.9l6.6,88.4c0,0.3-0.1,0.6-0.3,0.8C652.9,534.7,652.6,534.8,652.4,534.8z M585.8,526.6l65.5,6.1l-6.4-86.3
				l-20.5,0.1l-5.7,4.7c-0.2,0.2-0.5,0.2-0.7,0.2c-0.3,0-0.5-0.2-0.7-0.4l-3.5-4.5l-22.2,0.1L585.8,526.6z"/>
		</g>
	</g>
	<g>
		<path class="st7" d="M588.3,362.4v60c0,5.1,4.2,9.3,9.3,9.3h41.6c5.1,0,9.3-4.2,9.3-9.3v-60H588.3z"/>
		<path class="st1" d="M648.5,362.4v60c0,5.1-4.2,9.3-9.3,9.3h-41.6c-5.1,0-9.3-4.2-9.3-9.3v-60H648.5 M648.5,360.4h-60.2
			c-1.1,0-2,0.9-2,2v60c0,6.2,5.1,11.3,11.3,11.3h41.6c6.2,0,11.3-5.1,11.3-11.3v-60C650.5,361.3,649.6,360.4,648.5,360.4
			L648.5,360.4z"/>
	</g>
	<path class="st1" d="M630.1,393.5l12.1-3.5c0.6-0.2,0.6-1,0-1.2l-11.8-4c-0.4-0.1-0.8,0.2-0.8,0.6l-0.3,7.5
		C629.3,393.3,629.7,393.6,630.1,393.5z"/>
	<path class="st1" d="M605.5,394.4l2.5-9c0.1-0.4-0.2-0.7-0.6-0.6l-13.1,3.2c-0.4,0.1-0.5,0.7-0.1,0.9l10.7,5.8
		C605.1,394.8,605.4,394.7,605.5,394.4z"/>
	<path class="st1" d="M619.2,420l-19.3-10c-0.2-0.1-0.3-0.4-0.2-0.7l0.2-0.4c0.1-0.2,0.4-0.3,0.7-0.2l18.7,9.6
		c0.1,0.1,0.3,0.1,0.4,0l20.3-9.7c0.2-0.1,0.5,0,0.7,0.2l0.2,0.4c0.1,0.2,0,0.5-0.2,0.7l-21,10C619.5,420.1,619.3,420.1,619.2,420z"
		/>
	<path class="st1" d="M621.6,406.4h-6.1c-0.6,0-1-0.4-1-1v-6.1c0-0.6,0.4-1,1-1h6.1c0.6,0,1,0.4,1,1v6.1
		C622.6,406,622.1,406.4,621.6,406.4z"/>
	<g>
		<g>
			<path class="st7" d="M642.6,521.1c-0.2,0-0.3,0-0.5,0l-58-7.2c-1.5-0.2-2.5-1.5-2.3-3c0.2-1.5,1.5-2.5,3-2.3l58,7.2
				c1.5,0.2,2.5,1.5,2.3,3C644.9,520.1,643.9,521.1,642.6,521.1z"/>
			<path class="st1" d="M642.3,522.1c-0.1,0-0.2,0-0.3,0l-58-7.2c-1-0.1-1.8-0.6-2.4-1.4c-0.6-0.8-0.9-1.7-0.7-2.7
				c0.1-1,0.6-1.8,1.4-2.4c0.8-0.6,1.7-0.9,2.7-0.7l58,7.2c2,0.3,3.4,2.1,3.2,4.1c-0.2,1.8-1.7,3.1-3.4,3.2l0,0
				C642.6,522.1,642.4,522.1,642.3,522.1z M584.5,509.5c-0.4,0-0.8,0.1-1.1,0.3c-0.4,0.3-0.6,0.7-0.6,1.1c-0.1,0.4,0.1,0.9,0.3,1.2
				c0.3,0.4,0.7,0.6,1.1,0.6l58,7.2c0.1,0,0.2,0,0.3,0l0,0c0.8,0,1.5-0.7,1.6-1.5c0.1-0.4-0.1-0.9-0.3-1.2c-0.3-0.4-0.7-0.6-1.1-0.6
				l-58-7.2C584.6,509.5,584.5,509.5,584.5,509.5z"/>
		</g>
	</g>
	<g>
		<path class="st7" d="M592.5,519.3c-1.4,0-2.6-1-2.7-2.4c-0.2-1.5,0.9-2.8,2.3-3l59.5-7.1c1.5-0.2,2.8,0.9,3,2.3
			c0.2,1.5-0.9,2.8-2.3,3l-59.5,7.1C592.6,519.3,592.5,519.3,592.5,519.3z"/>
		<path class="st1" d="M592.4,520.3c-1.9,0-3.4-1.4-3.6-3.2c-0.1-1,0.2-1.9,0.8-2.7s1.5-1.3,2.5-1.4l59.5-7.1c1-0.1,1.9,0.1,2.7,0.7
			c0.8,0.6,1.3,1.5,1.4,2.5c0.2,2-1.2,3.8-3.2,4.1l-59.5,7.1c-0.1,0-0.2,0-0.3,0l0,0C592.4,520.3,592.4,520.3,592.4,520.3z
			 M651.9,507.9c-0.1,0-0.1,0-0.2,0l-59.5,7.1c-0.4,0.1-0.8,0.3-1.1,0.6c-0.3,0.4-0.4,0.8-0.3,1.2c0.1,0.9,0.9,1.5,1.7,1.5
			c0,0,0.1,0,0.1,0l59.5-7.1c0.4-0.1,0.8-0.3,1.1-0.6c0.3-0.4,0.4-0.8,0.3-1.2c-0.1-0.5-0.3-0.9-0.6-1.1
			C652.6,508,652.2,507.9,651.9,507.9z"/>
	</g>
	<g>
		<polygon class="st5" points="557.6,520.9 564.3,531.4 614.3,529.7 610.2,507.2 		"/>
		<path class="st1" d="M564.3,532.4c-0.3,0-0.7-0.2-0.8-0.5l-6.7-10.4c-0.2-0.3-0.2-0.6-0.1-0.9c0.1-0.3,0.4-0.5,0.7-0.6l52.6-13.7
			c0.3-0.1,0.6,0,0.8,0.1c0.2,0.2,0.4,0.4,0.4,0.7l4,22.5c0.1,0.3,0,0.6-0.2,0.8c-0.2,0.2-0.5,0.4-0.7,0.4L564.3,532.4
			C564.3,532.4,564.3,532.4,564.3,532.4z M559.2,521.5l5.6,8.8l48.2-1.6l-3.6-20.3L559.2,521.5z"/>
	</g>
	<g>
		<polygon class="st5" points="670.3,516.1 623.5,508.1 632.7,540.4 658.7,531.2 676.2,525.5 		"/>
		<path class="st1" d="M632.7,541.4c-0.2,0-0.3,0-0.5-0.1c-0.2-0.1-0.4-0.3-0.5-0.6l-9.2-32.2c-0.1-0.3,0-0.7,0.2-0.9
			c0.2-0.3,0.6-0.4,0.9-0.3l46.9,8c0.3,0,0.5,0.2,0.7,0.5l5.9,9.4c0.2,0.3,0.2,0.6,0.1,0.9c-0.1,0.3-0.3,0.5-0.6,0.6l-17.5,5.7
			l-26,9.2C632.9,541.3,632.8,541.4,632.7,541.4z M624.9,509.4l8.5,29.7l25-8.8l16.4-5.3l-5-7.9L624.9,509.4z"/>
	</g>
	<g>
		<g>
			<path class="st7" d="M584,508.6l-27.9,9.1c-0.9,0.4-1.6,1.2-1.7,2.2c-0.1,1,0.3,2,1.1,2.5l10.4,8.6c0.5,0.3,1,0.5,1.5,0.5
				c0.2,0,0.3,0,0.5,0c0.7-0.1,1.3-0.5,1.7-1.1l15.1-18.8"/>
			<path class="st1" d="M567.4,532.6c-0.8,0-1.5-0.2-2.1-0.7l-10.4-8.7c-1.1-0.7-1.6-2.1-1.5-3.4c0.2-1.4,1.1-2.5,2.3-3l27.9-9.1
				c0.5-0.2,1.1,0.1,1.3,0.6c0.2,0.5-0.1,1.1-0.6,1.3l-27.9,9.1c-0.5,0.2-1,0.7-1,1.3c-0.1,0.6,0.2,1.2,0.7,1.6l10.4,8.7
				c0.3,0.2,0.7,0.3,1.2,0.2c0.4-0.1,0.8-0.3,1.1-0.7L584,511c0.3-0.4,1-0.5,1.4-0.2c0.4,0.3,0.5,1,0.2,1.4L570.4,531
				c-0.5,0.7-1.4,1.3-2.3,1.5C567.9,532.5,567.7,532.6,567.4,532.6z"/>
		</g>
	</g>
	<g>
		<g>
			<path class="st7" d="M650.9,510.6l23.5,23.7c0.5,0.7,1.3,1.1,2.1,1.1c0.8,0,1.6-0.3,2.3-1.2l5-14.9c0.2-0.7,0.2-1.4-0.1-2.1
				c-0.3-0.6-0.9-1.1-1.6-1.3l-29.7-8.9"/>
			<path class="st1" d="M676.5,536.4c-1.1,0-2.2-0.5-2.9-1.4l-23.4-23.7c-0.4-0.4-0.4-1,0-1.4c0.4-0.4,1-0.4,1.4,0l23.5,23.7
				c0,0,0.1,0.1,0.1,0.1c0.3,0.4,0.8,0.7,1.3,0.7c0.5,0,1-0.2,1.5-0.7l4.9-14.7c0.1-0.4,0.1-0.9-0.1-1.3c-0.2-0.4-0.5-0.7-1-0.8
				l-29.7-8.9c-0.5-0.2-0.8-0.7-0.7-1.2s0.7-0.8,1.2-0.7l29.7,8.9c1,0.3,1.7,1,2.2,1.9c0.4,0.9,0.5,1.9,0.2,2.8l-5,14.9
				c0,0.1-0.1,0.2-0.2,0.3C678.5,536.2,677.3,536.4,676.5,536.4z"/>
		</g>
	</g>
</g>
<g>
	<polyline class="st5" points="452.8,112.3 479.1,97.1 452.8,81.9 	"/>
	<path class="st2" d="M452.8,113.3c-0.3,0-0.7-0.2-0.9-0.5c-0.3-0.5-0.1-1.1,0.4-1.4l24.8-14.3l-24.8-14.3c-0.5-0.3-0.6-0.9-0.4-1.4
		c0.3-0.5,0.9-0.6,1.4-0.4l26.3,15.2c0.3,0.2,0.5,0.5,0.5,0.9s-0.2,0.7-0.5,0.9l-26.3,15.2C453.1,113.2,453,113.3,452.8,113.3z"/>
</g>
<g>
	<polyline class="st5" points="452.8,396.9 479.1,381.8 452.8,366.6 	"/>
	<path class="st2" d="M452.8,398c-0.3,0-0.7-0.2-0.9-0.5c-0.3-0.5-0.1-1.1,0.4-1.4l24.8-14.3l-24.8-14.3c-0.5-0.3-0.6-0.9-0.4-1.4
		c0.3-0.5,0.9-0.6,1.4-0.4l26.3,15.2c0.3,0.2,0.5,0.5,0.5,0.9s-0.2,0.7-0.5,0.9l-26.3,15.2C453.1,397.9,453,398,452.8,398z"/>
</g>
<g>
	<polygon class="st8" points="591.8,257.3 563.2,267.1 570.2,278.7 591.6,262.8 	"/>
	<path class="st1" d="M570.2,279.7c-0.1,0-0.1,0-0.2,0c-0.3-0.1-0.5-0.2-0.7-0.5l-7-11.6c-0.2-0.3-0.2-0.6-0.1-0.9
		c0.1-0.3,0.3-0.5,0.6-0.6l28.5-9.8c0.3-0.1,0.7-0.1,0.9,0.1c0.3,0.2,0.4,0.5,0.4,0.8l-0.2,5.6c0,0.3-0.2,0.6-0.4,0.8l-21.3,15.9
		C570.7,279.7,570.4,279.7,570.2,279.7z M564.7,267.6l5.8,9.6l20.1-14.9l0.1-3.6L564.7,267.6z"/>
</g>
<path class="st8" d="M588.3,261.6c-0.5,0-1.1-0.2-1.5-0.5l-50.6-38.6c-0.6-0.4-0.9-1.1-1-1.8s0.2-1.4,0.6-1.9l39.5-43.7
	c0.9-1,2.5-1.1,3.5-0.2c1,0.9,1.1,2.5,0.2,3.5l-37.7,41.7l48.5,36.9c1.1,0.8,1.3,2.4,0.5,3.5C589.8,261.2,589.1,261.6,588.3,261.6z"
	/>
<polygon class="st9" points="588.6,150.7 560.2,180.6 579.9,194.5 600.1,165.7 "/>
<path class="st1" d="M579.9,195.5c-0.2,0-0.4-0.1-0.6-0.2l-19.7-13.9c-0.2-0.2-0.4-0.4-0.4-0.7c0-0.3,0.1-0.6,0.3-0.8l28.3-29.9
	c0.2-0.2,0.5-0.3,0.8-0.3c0.3,0,0.6,0.2,0.7,0.4l11.6,15.1c0.3,0.3,0.3,0.8,0,1.2L580.7,195c-0.2,0.2-0.4,0.4-0.6,0.4
	C580,195.5,580,195.5,579.9,195.5z M561.8,180.4l17.9,12.6l19.2-27.3l-10.4-13.6L561.8,180.4z"/>
<g>
	<path class="st1" d="M654.1,176.4c0.7,0,1.3,0.3,1.8,0.8l39.5,42.9c0.5,0.5,0.7,1.2,0.7,1.8s-0.3,1.3-0.9,1.7l-42.1,36.7
		c-0.5,0.4-1.1,0.6-1.6,0.6c-0.7,0-1.4-0.3-1.9-0.9c-0.9-1-0.8-2.6,0.2-3.5l40.1-35l-37.8-41c-0.9-1-0.9-2.6,0.1-3.5
		C652.9,176.6,653.5,176.4,654.1,176.4 M654.1,174.4L654.1,174.4c-1.1,0-2.2,0.4-3,1.2c-0.9,0.8-1.4,1.9-1.4,3.1
		c0,1.2,0.4,2.3,1.2,3.2l36.4,39.5l-38.6,33.6c-0.9,0.8-1.5,1.9-1.5,3.1c-0.1,1.2,0.3,2.4,1.1,3.3c0.9,1,2.1,1.5,3.4,1.5
		c1.1,0,2.1-0.4,3-1.1l42.1-36.7c0.9-0.8,1.5-1.9,1.5-3.1c0.1-1.2-0.4-2.4-1.2-3.3l-39.5-42.9C656.6,174.9,655.4,174.4,654.1,174.4
		L654.1,174.4z"/>
</g>
<g>
	<polygon class="st8" points="649.2,261.1 670.4,274.4 677.2,261.1 649.1,256.2 	"/>
	<path class="st1" d="M670.4,275.4c-0.2,0-0.4-0.1-0.5-0.2l-21.3-13.3c-0.3-0.2-0.5-0.5-0.5-0.8l-0.1-4.9c0-0.3,0.1-0.6,0.3-0.8
		c0.2-0.2,0.5-0.3,0.8-0.2l28.2,4.9c0.3,0.1,0.6,0.3,0.7,0.5s0.1,0.6,0,0.9l-6.8,13.3c-0.1,0.2-0.4,0.4-0.6,0.5
		C670.6,275.3,670.5,275.4,670.4,275.4z M650.2,260.5l19.9,12.4l5.7-11.1l-25.6-4.5L650.2,260.5z"/>
</g>
<path class="st8" d="M651.6,260.9c-0.7,0-1.4-0.3-1.9-0.9c-0.9-1-0.8-2.6,0.2-3.5l40.1-35l-37.8-41c-0.9-1-0.9-2.6,0.1-3.5
	c1-0.9,2.6-0.9,3.5,0.1l39.5,42.9c0.5,0.5,0.7,1.2,0.7,1.8s-0.3,1.3-0.9,1.7l-42.1,36.7C652.8,260.7,652.2,260.9,651.6,260.9z"/>
<polygon class="st9" points="637.8,152.9 674.1,182.1 654.6,195.4 629.1,162.3 "/>
<path class="st1" d="M654.6,196.4c-0.3,0-0.6-0.1-0.8-0.4l-25.5-33.1c-0.3-0.4-0.3-0.9,0.1-1.3l8.7-9.4c0.4-0.4,1-0.4,1.4-0.1
	l36.4,29.2c0.2,0.2,0.4,0.5,0.4,0.8c0,0.3-0.2,0.6-0.4,0.8l-19.5,13.3C655,196.4,654.8,196.4,654.6,196.4z M630.4,162.3l24.4,31.7
	l17.6-12l-34.6-27.8L630.4,162.3z"/>
<g>
	<polygon class="st5" points="595.3,156.7 634,158.4 649.1,261.5 591.3,269 	"/>
	<path class="st1" d="M591.3,270c-0.2,0-0.5-0.1-0.7-0.3c-0.2-0.2-0.3-0.5-0.3-0.8l4-112.3c0-0.3,0.1-0.5,0.3-0.7
		c0.2-0.2,0.5-0.3,0.7-0.3l38.6,1.7c0.5,0,0.9,0.4,0.9,0.9l15.1,103.1c0,0.3,0,0.5-0.2,0.7c-0.2,0.2-0.4,0.4-0.7,0.4l-57.7,7.5
		C591.4,270,591.4,270,591.3,270z M596.3,157.7l-3.9,110.1l55.5-7.2l-14.8-101.3L596.3,157.7z"/>
</g>
<g>
	<polygon class="st8" points="615.8,157.6 615.8,142.2 610.8,142.2 610.8,157.4 602.6,157 607.3,166.4 620.1,167 625.3,158 	"/>
	<path class="st1" d="M620.1,168C620.1,168,620.1,168,620.1,168l-12.9-0.6c-0.4,0-0.7-0.2-0.8-0.6l-4.7-9.4c-0.2-0.3-0.1-0.7,0.1-1
		c0.2-0.3,0.5-0.5,0.9-0.5l7.2,0.3v-14.1c0-0.6,0.4-1,1-1h5c0.6,0,1,0.4,1,1v14.4l8.6,0.4c0.3,0,0.7,0.2,0.8,0.5
		c0.2,0.3,0.2,0.7,0,1l-5.2,9C620.8,167.8,620.5,168,620.1,168z M607.9,165.4l11.6,0.6l4.1-7.1l-7.9-0.3c-0.5,0-1-0.5-1-1v-14.4h-3
		v14.2c0,0.3-0.1,0.5-0.3,0.7s-0.5,0.3-0.7,0.3l-6.5-0.3L607.9,165.4z"/>
</g>
<polygon class="st9" points="655.9,142.2 565,137.2 559.9,44.7 662.4,48.4 "/>
<path class="st1" d="M655.9,143.2C655.9,143.2,655.9,143.2,655.9,143.2l-91-5c-0.5,0-0.9-0.4-0.9-0.9l-5.1-92.5
	c0-0.3,0.1-0.6,0.3-0.8c0.2-0.2,0.5-0.3,0.7-0.3l102.5,3.7c0.3,0,0.5,0.1,0.7,0.3c0.2,0.2,0.3,0.5,0.3,0.7l-6.5,93.8
	C656.9,142.8,656.5,143.2,655.9,143.2z M566,136.3l89,4.9l6.3-91.8L561,45.8L566,136.3z"/>
<rect x="568.2" y="104.9" class="st8" width="9.4" height="12.2"/>
<path class="st1" d="M577.6,118.2h-9.4c-0.6,0-1-0.4-1-1v-12.2c0-0.6,0.4-1,1-1h9.4c0.6,0,1,0.4,1,1v12.2
	C578.6,117.7,578.2,118.2,577.6,118.2z M569.2,116.2h7.4v-10.2h-7.4V116.2z"/>
<rect x="644.5" y="106.6" class="st8" width="9.4" height="12.2"/>
<path class="st1" d="M653.9,119.9h-9.4c-0.6,0-1-0.4-1-1v-12.2c0-0.6,0.4-1,1-1h9.4c0.6,0,1,0.4,1,1v12.2
	C654.9,119.4,654.5,119.9,653.9,119.9z M645.5,117.9h7.4v-10.2h-7.4V117.9z"/>
<path class="st8" d="M576.5,81.5v49.8c0,6.1,3.7,11.1,8.3,11.1h52.5c4.6,0,8.3-5,8.3-11.1V81.5c0-0.9-0.5-1.6-1.2-1.6h-66.7
	C577.1,80,576.5,80.7,576.5,81.5z"/>
<path class="st1" d="M637.3,143.5h-52.5c-5.1,0-9.3-5.4-9.3-12.1V81.5c0-1.4,1-2.6,2.2-2.6h66.7c1.2,0,2.2,1.1,2.2,2.6v49.8
	C646.6,138,642.4,143.5,637.3,143.5z M644.4,81l-66.7,0c0,0-0.2,0.2-0.2,0.6v49.8c0,5.6,3.3,10.1,7.3,10.1h52.5
	c4,0,7.3-4.5,7.3-10.1V81.5C644.6,81.2,644.4,81,644.4,81z"/>
<g>
	<circle class="st1" cx="592.2" cy="97.2" r="3.4"/>
	<path class="st1" d="M592.2,102.1c-2.7,0-4.9-2.2-4.9-4.9s2.2-4.9,4.9-4.9s4.9,2.2,4.9,4.9S594.9,102.1,592.2,102.1z M592.2,95.3
		c-1,0-1.9,0.8-1.9,1.9s0.8,1.9,1.9,1.9s1.9-0.8,1.9-1.9S593.3,95.3,592.2,95.3z"/>
</g>
<g>
	<circle class="st1" cx="629.4" cy="97.2" r="3.4"/>
	<path class="st1" d="M629.4,102.1c-2.7,0-4.9-2.2-4.9-4.9s2.2-4.9,4.9-4.9s4.9,2.2,4.9,4.9S632.1,102.1,629.4,102.1z M629.4,95.3
		c-1,0-1.9,0.8-1.9,1.9s0.8,1.9,1.9,1.9s1.9-0.8,1.9-1.9S630.4,95.3,629.4,95.3z"/>
</g>
<path class="st1" d="M610.6,109.1l-4.2,7.5c-0.2,0.3,0.1,0.7,0.4,0.7h12.5c0.5,0,0.7-0.6,0.3-0.9l-8.3-7.5
	C611.1,108.8,610.7,108.8,610.6,109.1z"/>
<polygon class="st9" points="636,128.9 599.7,138.7 596.4,125.3 "/>
<path class="st1" d="M599.7,139.7c-0.2,0-0.4,0-0.5-0.1c-0.2-0.1-0.4-0.4-0.5-0.6l-3.3-13.4c-0.1-0.3,0-0.6,0.2-0.9
	c0.2-0.2,0.5-0.4,0.8-0.3l39.6,3.6c0.5,0,0.9,0.4,0.9,0.9c0,0.5-0.3,0.9-0.7,1.1l-36.2,9.8C599.9,139.7,599.8,139.7,599.7,139.7z
	 M597.7,126.5l2.7,11l29.9-8.1L597.7,126.5z"/>
<g>
	<path class="st5" d="M616.9,466.7l-4.3-4.3c-0.4-0.4-0.4-1,0-1.4l4.3-4.3c0.4-0.4,1-0.4,1.4,0l4.3,4.3c0.4,0.4,0.4,1,0,1.4
		l-4.3,4.3C617.9,467.1,617.3,467.1,616.9,466.7z"/>
	<path class="st1" d="M616.2,467.4l-4.3-4.3c-0.8-0.8-0.8-2,0-2.8l4.3-4.3c0.8-0.8,2-0.8,2.8,0l4.3,4.3c0.8,0.8,0.8,2,0,2.8
		l-4.3,4.3C618.2,468.2,616.9,468.2,616.2,467.4z M617.6,466l-0.7,0.7L617.6,466L617.6,466z M617.6,457.4l-4.3,4.3l4.3,4.3l4.3-4.3
		L617.6,457.4z"/>
</g>
<g>
	<path class="st5" d="M616.9,481.1l-4.3-4.3c-0.4-0.4-0.4-1,0-1.4l4.3-4.3c0.4-0.4,1-0.4,1.4,0l4.3,4.3c0.4,0.4,0.4,1,0,1.4
		l-4.3,4.3C617.9,481.5,617.3,481.5,616.9,481.1z"/>
	<path class="st1" d="M616.2,481.8l-4.3-4.3c-0.8-0.8-0.8-2,0-2.8l4.3-4.3c0.8-0.8,2-0.8,2.8,0l4.3,4.3c0.8,0.8,0.8,2,0,2.8
		l-4.3,4.3C618.2,482.6,616.9,482.6,616.2,481.8z M617.6,471.8l-4.3,4.3l4.3,4.3l4.3-4.3L617.6,471.8z"/>
</g>
<g>
	<polygon class="st6" points="612.8,440.9 606.1,443.6 603.4,457.9 618,450.3 	"/>
	<path class="st1" d="M603.4,458.9c-0.2,0-0.4-0.1-0.6-0.2c-0.3-0.2-0.5-0.6-0.4-1l2.7-14.3c0.1-0.3,0.3-0.6,0.6-0.7l6.7-2.7
		c0.5-0.2,1,0,1.2,0.4l5.2,9.4c0.1,0.2,0.2,0.5,0.1,0.8s-0.3,0.5-0.5,0.6l-14.6,7.6C603.7,458.8,603.5,458.9,603.4,458.9z
		 M607,444.3l-2.2,11.7l11.9-6.1l-4.3-7.7L607,444.3z"/>
</g>
<g>
	<polygon class="st6" points="624.2,440.9 618,450.3 631.4,458.9 629.8,445.4 	"/>
	<path class="st1" d="M631.4,459.9c-0.2,0-0.4-0.1-0.5-0.2l-13.4-8.6c-0.2-0.1-0.4-0.4-0.4-0.6s0-0.5,0.1-0.8l6.2-9.4
		c0.2-0.2,0.4-0.4,0.7-0.4c0.3,0,0.6,0,0.8,0.2l5.5,4.5c0.2,0.2,0.3,0.4,0.4,0.7l1.6,13.5c0,0.4-0.1,0.8-0.5,1
		C631.8,459.8,631.6,459.9,631.4,459.9z M619.4,450l10.7,6.9l-1.3-10.9l-4.4-3.6L619.4,450z"/>
</g>
<path class="st9" d="M621.5,190.2l-19.2-2.3c-0.4,0-0.7,0.3-0.5,0.7l7.6,17.8c0.2,0.4,0.6,0.4,0.9,0.1l11.6-15.5
	C622.1,190.7,621.9,190.2,621.5,190.2z"/>
<path class="st1" d="M605.7,205.2c0,0-0.1,0-0.1,0c-0.4,0-0.7-0.3-0.8-0.6l-8.3-19.4c-0.1-0.3-0.1-0.7,0.1-1
	c0.2-0.3,0.6-0.4,0.9-0.4l21,2.5c0.4,0,0.7,0.3,0.8,0.6c0.1,0.3,0.1,0.7-0.1,1l-12.7,16.9C606.3,205,606,205.2,605.7,205.2z
	 M599,185.9l6.9,16.2l10.6-14.1L599,185.9z"/>
<path class="st9" d="M623.1,235.7l18-10.4c0.2-0.1,0.3-0.4,0.2-0.7l-10.4-18c-0.1-0.2-0.4-0.3-0.7-0.2l-18,10.4
	c-0.2,0.1-0.3,0.4-0.2,0.7l10.4,18C622.5,235.8,622.8,235.8,623.1,235.7z"/>
<path class="st1" d="M618.7,234c-0.3,0-0.7-0.2-0.9-0.5l-10.9-18.9c-0.1-0.2-0.2-0.5-0.1-0.8s0.2-0.5,0.5-0.6l18.9-10.9
	c0.5-0.3,1.1-0.1,1.4,0.4l10.9,18.9c0.1,0.2,0.2,0.5,0.1,0.8s-0.2,0.5-0.5,0.6l-18.9,10.9C619,233.9,618.8,234,618.7,234z
	 M609.1,214.4l9.9,17.1l17.1-9.9l-9.9-17.1L609.1,214.4z"/>
<circle class="st9" cx="611.2" cy="240.7" r="9.1"/>
<path class="st1" d="M607.2,247.8c-5.6,0-10.1-4.5-10.1-10.1s4.5-10.1,10.1-10.1c5.6,0,10.1,4.5,10.1,10.1S612.8,247.8,607.2,247.8z
	 M607.2,229.6c-4.5,0-8.1,3.6-8.1,8.1c0,4.5,3.6,8.1,8.1,8.1c4.5,0,8.1-3.6,8.1-8.1C615.3,233.3,611.7,229.6,607.2,229.6z"/>
</svg>
