<?xml version="1.0" encoding="utf-8"?>
<!-- Generator: Adobe Illustrator 23.0.6, SVG Export Plug-In . SVG Version: 6.00 Build 0)  -->
<svg version="1.1" id="Layer_1" xmlns="http://www.w3.org/2000/svg" xmlns:xlink="http://www.w3.org/1999/xlink" x="0px" y="0px"
	 viewBox="0 0 792 290" style="enable-background:new 0 0 792 290;" xml:space="preserve">
<style type="text/css">
	.st0{fill:none;}
	.st1{fill:#6A7D7C;}
	.st2{fill:#FFFFFF;}
	.st3{fill:#3B3A3C;}
	.st4{fill:#3B3B3C;}
</style>
<title>Asset 7</title>
<rect class="st0" width="792" height="290"/>
<g>
	<path class="st1" d="M554.7,119.4h6v3.2h-6c-0.8,0-1.4,0.6-1.4,1.4c0,0.8,0.6,1.4,1.4,1.4h6v60.3c0,0.9,0.5,1.6,1.3,1.9
		c0.8,0.3,1.7,0.1,2.3-0.5l20.3-21.4H613l20.3,21.4c0.6,0.6,1.5,0.8,2.3,0.5c0.8-0.3,1.3-1.1,1.3-1.9v-60.3h6c0.8,0,1.4-0.6,1.4-1.4
		c0-0.8-0.6-1.4-1.4-1.4h-6v-3.2h6c0.8,0,1.4-0.6,1.4-1.4c0-0.8-0.6-1.4-1.4-1.4h-6v-3v-2.8V110v-4.9c0-1.1-0.9-2.1-2.1-2.1h-30.9
		h-0.2h-2.8h-0.7h-37.3c-1.1,0-2.1,0.9-2.1,2.1v11.4h-6c-0.8,0-1.4,0.6-1.4,1.4C553.3,118.7,553.9,119.4,554.7,119.4z"/>
	<g>
		<path class="st2" d="M557.3,99.6l30.5,31.7c0.1,0.1,0.2,0.1,0.2,0.1l5.9,0l5.9,0c0.1,0,0.2,0,0.2-0.1l30.5-31.7H557.3z"/>
		<polygon class="st3" points="577.4,132.9 573.2,140.5 569.3,132.9 564.5,132.9 571.2,143.9 565.6,153.7 570.4,153.7 573.7,147.2 
			576.7,153.7 581.5,153.7 575.8,143.9 582.2,132.9 		"/>
		<polygon class="st3" points="605.7,132.9 612.4,143.9 606.8,153.7 611.6,153.7 614.9,147.2 617.9,153.7 622.8,153.7 617,143.9 
			623.4,132.9 618.7,132.9 614.5,140.5 610.5,132.9 		"/>
		<polygon class="st3" points="588.2,119.9 591.8,119.9 594.2,115.1 596.4,119.9 600,119.9 595.7,112.6 600.4,104.5 597,104.5 
			593.9,110.1 591,104.5 587.5,104.5 592.4,112.6 		"/>
		<g>
			<path class="st4" d="M549.8,114.5h6v3.2h-6c-0.8,0-1.4,0.6-1.4,1.4c0,0.8,0.6,1.4,1.4,1.4h6v60.3c0,0.9,0.5,1.6,1.3,1.9
				c0.8,0.3,1.7,0.1,2.3-0.5l20.3-21.4h28.4l20.3,21.4c0.6,0.6,1.5,0.8,2.3,0.5c0.8-0.3,1.3-1.1,1.3-1.9v-60.3h6
				c0.8,0,1.4-0.6,1.4-1.4c0-0.8-0.6-1.4-1.4-1.4h-6v-3.2h6c0.8,0,1.4-0.6,1.4-1.4c0-0.8-0.6-1.4-1.4-1.4h-6v-3v-2.8v-0.7v-4.9
				c0-1.1-0.9-2.1-2.1-2.1H599h-0.2H596h-0.7H558c-1.1,0-2.1,0.9-2.1,2.1v11.4h-6c-0.8,0-1.4,0.6-1.4,1.4
				C548.4,113.9,549.1,114.5,549.8,114.5z M629.2,117.7h-14.1l3.1-3.2h11V117.7z M629.2,111.7h-8.3l8.3-8.6V111.7z M597.4,101h1.4
				h28.5L617,111.7h-13.7c-0.8,0-1.4,0.6-1.4,1.4c0,0.8,0.6,1.4,1.4,1.4h11l-3.1,3.2h-7.9c-0.8,0-1.4,0.6-1.4,1.4
				c0,0.8,0.6,1.4,1.4,1.4h5.2l-8.5,8.9l-4.4-5.7c-0.4-0.5-1-0.8-1.6-0.8c0,0,0,0,0,0c-0.6,0-1.2,0.3-1.6,0.8l-4.4,5.7l-8.6-8.9h5.2
				c0.8,0,1.4-0.6,1.4-1.4c0-0.8-0.6-1.4-1.4-1.4h-7.9l-3.1-3.2h11c0.8,0,1.4-0.6,1.4-1.4c0-0.8-0.6-1.4-1.4-1.4h-13.7L560.6,101
				H597.4z M558.7,103.1l8.3,8.6h-8.3V103.1z M558.7,114.5h11l3.1,3.2h-14.1V114.5z M558.7,120.5h16.8l11.4,11.8
				c0.3,0.3,0.8,0.5,1.3,0.5l11.8,0c0.5,0,0.9-0.2,1.3-0.5l11.4-11.8h16.8V179l-19.8-21h-30.9l-19.8,21V120.5z"/>
		</g>
	</g>
</g>
<g>
	<path class="st1" d="M402.8,42.5h-14c-1.4,0-2.5,1.1-2.5,2.5v66.6h-13.1V45c0-1.4-1.1-2.5-2.5-2.5h-14c-1.4,0-2.5,1.1-2.5,2.5v66.6
		h-86.1V45c0-1.4-1.1-2.5-2.5-2.5h-14c-1.4,0-2.5,1.1-2.5,2.5v66.6h-11.5V45c0-1.4-1.1-2.5-2.5-2.5h-14c-1.4,0-2.5,1.1-2.5,2.5v84
		h-46.4c-1.4,0-2.5,1.1-2.5,2.5v13.9h-7.4c-0.9,0-1.7,0.8-1.7,1.7s0.8,1.7,1.7,1.7h7.4v3.9h-7.4c-0.9,0-1.7,0.8-1.7,1.7
		s0.8,1.7,1.7,1.7h7.4v73.5c0,1,0.6,2,1.6,2.4c1,0.4,2.1,0.1,2.8-0.6l24.7-26.1h34.7l24.7,26.1c0.7,0.8,1.8,1,2.8,0.6
		c1-0.4,1.6-1.3,1.6-2.4v-73.5h7.4c0.9,0,1.7-0.8,1.7-1.7s-0.8-1.7-1.7-1.7h-7.4v-3.9h7.4c0.9,0,1.7-0.8,1.7-1.7s-0.8-1.7-1.7-1.7
		h-7.4v-3.7h123.9v89.2c0,1.4,1.1,2.5,2.5,2.5h14c1.4,0,2.5-1.1,2.5-2.5V45C405.3,43.6,404.2,42.5,402.8,42.5z"/>
	<g>
		<g>
			<path class="st2" d="M215,38.2h14.2c0.4,0,0.7,0.3,0.7,0.7v17.5h-15.6V39C214.2,38.6,214.6,38.2,215,38.2z"/>
			<path class="st2" d="M245.5,38.2h14.2c0.4,0,0.7,0.3,0.7,0.7v17.5h-15.6V39C244.8,38.6,245.1,38.2,245.5,38.2z"/>
			<path class="st2" d="M350.7,38.2h14.2c0.4,0,0.7,0.3,0.7,0.7v17.5H350V39C350,38.6,350.3,38.2,350.7,38.2z"/>
			<path class="st2" d="M382.8,38.2H397c0.4,0,0.7,0.3,0.7,0.7v17.5h-15.6V39C382.1,38.6,382.4,38.2,382.8,38.2z"/>
			<path class="st2" d="M165.3,124.8l37.2,38.7c0.1,0.1,0.2,0.1,0.3,0.1l7.2,0l7.2,0c0.1,0,0.2,0,0.3-0.1l37.2-38.7H165.3z"/>
			<path class="st2" d="M397.7,196.5h-15.6v28.6c0,0.4,0.3,0.7,0.7,0.7H397c0.4,0,0.7-0.3,0.7-0.7V196.5z"/>
		</g>
		<g>
			<g>
				<polygon class="st3" points="189.9,165.3 184.8,174.6 179.9,165.3 174.1,165.3 182.3,178.8 175.4,190.7 181.3,190.7 
					185.3,182.8 189,190.7 194.9,190.7 187.8,178.8 195.7,165.3 				"/>
				<polygon class="st3" points="224.4,165.3 232.5,178.8 225.7,190.7 231.5,190.7 235.6,182.8 239.3,190.7 245.1,190.7 
					238.1,178.8 245.9,165.3 240.1,165.3 235,174.6 230.2,165.3 				"/>
				<polygon class="st3" points="203,149.5 207.4,149.5 210.3,143.7 213.1,149.5 217.4,149.5 212.2,140.7 217.9,130.8 213.7,130.8 
					209.9,137.6 206.4,130.8 202.1,130.8 208.1,140.7 				"/>
			</g>
			<path class="st3" d="M399,37.6c-0.5-0.7-1.2-1.1-2.1-1.1h-14c-1.2,0-2.2,0.9-2.5,2c0,0.2-0.1,0.3-0.1,0.5v19.1v47.5h-13.1V58.2
				V39.1c0-0.3-0.1-0.7-0.2-1c-0.4-0.9-1.3-1.5-2.3-1.5h-14c-0.7,0-1.3,0.3-1.8,0.7c-0.5,0.5-0.7,1.1-0.7,1.8v19.1v47.5h-86.1V39.1
				c0-1.4-1.1-2.5-2.5-2.5h0h-14c-0.9,0-1.6,0.4-2.1,1.1c-0.3,0.4-0.4,0.9-0.4,1.4v19.1v47.5h-11.5V58.2V39.1c0-0.3-0.1-0.7-0.2-1
				c-0.4-0.9-1.3-1.5-2.3-1.5h-14c-0.7,0-1.3,0.3-1.8,0.7c-0.5,0.5-0.7,1.1-0.7,1.8v19.1v64.9h-46.4c-1.4,0-2.5,1.1-2.5,2.5v13.9
				h-7.4c-0.9,0-1.7,0.8-1.7,1.7c0,0.9,0.8,1.7,1.7,1.7h7.4v3.9h-7.4c-0.9,0-1.7,0.8-1.7,1.7s0.8,1.7,1.7,1.7h7.4v73.5
				c0,1,0.6,2,1.6,2.4c1,0.4,2.1,0.1,2.8-0.6l24.7-26.1h34.7l24.7,26.1c0.7,0.8,1.8,1,2.8,0.6c1-0.4,1.6-1.3,1.6-2.4v-73.5h7.4
				c0.9,0,1.7-0.8,1.7-1.7s-0.8-1.7-1.7-1.7h-7.4V143h7.4c0.9,0,1.7-0.8,1.7-1.7c0-0.9-0.8-1.7-1.7-1.7h-7.4v-3.7h123.9v58.9V225
				c0,0.2,0,0.3,0.1,0.5c0.2,1.2,1.3,2,2.5,2h14c0.9,0,1.6-0.4,2.1-1.1c0.3-0.4,0.4-0.9,0.4-1.4v-30.2V58.2V39.1
				C399.4,38.5,399.2,38,399,37.6z M351.7,39.9h1.7v4.2c0,0.9,0.8,1.7,1.7,1.7s1.7-0.8,1.7-1.7v-4.2h1.7v4.2c0,0.9,0.8,1.7,1.7,1.7
				s1.7-0.8,1.7-1.7v-4.2h1.9v14.8h-12.2V39.9z M246.5,39.9h1.9v4.2c0,0.9,0.8,1.7,1.7,1.7c0.9,0,1.7-0.8,1.7-1.7v-4.2h1.7v4.2
				c0,0.9,0.8,1.7,1.7,1.7c0.9,0,1.7-0.8,1.7-1.7v-4.2h1.7v14.8h-12.2V39.9z M215.9,39.9h1.7v4.2c0,0.9,0.8,1.7,1.7,1.7
				c0.9,0,1.7-0.8,1.7-1.7v-4.2h1.7v4.2c0,0.9,0.8,1.7,1.7,1.7c0.9,0,1.7-0.8,1.7-1.7v-4.2h1.9v14.8h-12.2V39.9z M214.2,126.5h1.7
				h34.7l-12.5,13h-16.7c-0.9,0-1.7,0.8-1.7,1.7c0,0.9,0.8,1.7,1.7,1.7h13.4l-3.7,3.9h-9.7c-0.9,0-1.7,0.8-1.7,1.7s0.8,1.7,1.7,1.7
				h6.4l-10.4,10.8l-5.3-6.9c-0.5-0.6-1.2-1-2-1c0,0,0,0,0,0c-0.8,0-1.5,0.4-2,1l-5.4,6.9l-10.4-10.8h6.4c0.9,0,1.7-0.8,1.7-1.7
				s-0.8-1.7-1.7-1.7h-9.7l-3.7-3.9h13.4c0.9,0,1.7-0.8,1.7-1.7c0-0.9-0.8-1.7-1.7-1.7h-16.7l-12.5-13H214.2z M167.1,129.1
				l10.1,10.5h-10.1V129.1z M167.1,143h13.4l3.7,3.9h-17.1V143z M253,221.5l-24.2-25.6h-37.6l-24.2,25.6v-71.2h20.4l13.8,14.4
				c0.4,0.4,1,0.6,1.5,0.6l14.3,0c0.6,0,1.1-0.2,1.5-0.7l13.8-14.4H253V221.5z M253,146.9h-17.1l3.7-3.9H253V146.9z M253,139.6
				h-10.1l10.1-10.5V139.6z M396,224.1h-12.2v-25.9H396V224.1z M396,194.8h-12.2v-60.2c0-1.2-1-2.1-2.1-2.1H256.4v-6.8
				c0-1.4-1.1-2.5-2.5-2.5h-37.9V58.2h12.2v48.8c0,1.2,1,2.1,2.1,2.1h14.1c1.2,0,2.1-1,2.1-2.1V58.2h12.2v48.8c0,1.2,1,2.1,2.1,2.1
				h88.7c1.2,0,2.1-1,2.1-2.1V58.2h12.2v48.8c0,1.2,1,2.1,2.1,2.1h15.7c1.2,0,2.1-1,2.1-2.1V58.2H396V194.8z M396,54.7h-12.2V39.9
				h1.9v4.2c0,0.9,0.8,1.7,1.7,1.7c0.9,0,1.7-0.8,1.7-1.7v-4.2h1.7v4.2c0,0.9,0.8,1.7,1.7,1.7s1.7-0.8,1.7-1.7v-4.2h1.7V54.7z"/>
		</g>
	</g>
</g>
</svg>
