<?xml version="1.0" encoding="utf-8"?>
<!-- Generator: Adobe Illustrator 23.0.6, SVG Export Plug-In . SVG Version: 6.00 Build 0)  -->
<svg version="1.1" id="Layer_1" xmlns="http://www.w3.org/2000/svg" xmlns:xlink="http://www.w3.org/1999/xlink" x="0px" y="0px"
	 viewBox="0 0 792 506.6" style="enable-background:new 0 0 792 506.6;" xml:space="preserve">
<style type="text/css">
	.st0{fill:#6B7D7C;}
	.st1{fill:#FFFFFF;}
	.st2{fill:#F4EE57;}
	.st3{fill:#E9D648;}
	.st4{fill:#FC88A5;}
	.st5{fill:#EE7191;}
	.st6{fill:#8D6DAF;}
	.st7{fill:#654782;}
	.st8{fill:#DE7FA0;}
	.st9{fill:#C96386;}
	.st10{opacity:0.9;enable-background:new    ;}
	.st11{fill:#404041;}
	.st12{fill:none;}
	.st13{fill:none;stroke:#000000;stroke-miterlimit:10;}
	.st14{fill:none;stroke:#FFFFFF;stroke-miterlimit:10;}
	.st15{fill:none;stroke:#000000;stroke-width:0.5;stroke-miterlimit:10;}
</style>
<circle class="st0" cx="631.9" cy="155.5" r="100"/>
<g>
	<path class="st1" d="M632,140.7l0.5-0.8h1.5v6.8h-0.8v-6H632z"/>
	<path class="st1" d="M636.3,143.3c0-1.4,0.6-3.5,2.4-3.5c1.8,0,2.4,2.1,2.4,3.5c0,1.4-0.6,3.5-2.4,3.5
		C636.9,146.8,636.3,144.7,636.3,143.3z M637.1,143.3c0,0.9,0.3,2.8,1.6,2.8c1.2,0,1.6-1.9,1.6-2.8c0-0.9-0.3-2.8-1.6-2.8
		C637.5,140.5,637.1,142.3,637.1,143.3z"/>
	<path class="st1" d="M641.7,140.7v-0.8h4.9l-4.2,6.9l-0.7-0.4l3.5-5.8H641.7z"/>
	<path class="st1" d="M650.2,140.7l0.5-0.8h1.5v6.8h-0.8v-6H650.2z"/>
	<path class="st1" d="M659.1,145.9v0.8h-4.4l3-3.6c0.3-0.3,0.6-0.8,0.6-1.2c0-0.7-0.6-1.3-1.3-1.3c-0.7,0-1.3,0.6-1.3,1.2h-0.8
		c0.1-1.2,0.9-2,2.2-2c1.2,0,2.1,0.9,2.1,2c0,0.5-0.2,1-0.5,1.4l-2.2,2.7H659.1z"/>
	<path class="st1" d="M662.1,140.7l-0.4,1.4l0.5,0c1.3,0,2.2,1.1,2.2,2.4c0,1.4-1.1,2.4-2.5,2.4c-0.8,0-1.7-0.4-2.1-1.2l0.6-0.6
		c0.2,0.6,0.9,1,1.5,1c0.9,0,1.6-0.8,1.6-1.7c0-0.9-0.7-1.6-1.6-1.6c-0.5,0-1,0.2-1.3,0.6h-0.2l1-3.5h2.7v0.8H662.1z"/>
	<path class="st1" d="M668.4,140.7l0.5-0.8h1.5v6.8h-0.8v-6H668.4z"/>
	<path class="st1" d="M677.3,145.9v0.8h-4.4l3-3.6c0.3-0.3,0.6-0.8,0.6-1.2c0-0.7-0.6-1.3-1.3-1.3c-0.7,0-1.3,0.6-1.3,1.2H673
		c0.1-1.2,0.9-2,2.2-2c1.2,0,2.1,0.9,2.1,2c0,0.5-0.2,1-0.5,1.4l-2.2,2.7H677.3z"/>
	<path class="st1" d="M682.7,145v0.7h-0.8v1h-0.8v-1h-3.3l4.2-6.1v5.3H682.7z M681.1,142.2L681.1,142.2l-1.9,2.8h1.9V142.2z"/>
	<path class="st1" d="M633.5,154.2l-0.3,1.7h1.1l0.3-1.7h0.7L635,156h0.8v0.7h-1l-0.2,1.4h0.9v0.7h-1.1l-0.3,1.9h-0.7l0.3-1.9h-1.1
		l-0.4,1.9h-0.7l0.3-1.9h-0.9v-0.7h1l0.2-1.4h-0.9V156h1.1l0.3-1.7H633.5z M632.8,158.1h1.1l0.2-1.4h-1.1L632.8,158.1z"/>
	<path class="st1" d="M640.1,154.2l-1.8,2.4l0,0c0.2-0.1,0.4-0.2,0.7-0.2c1.1,0,2,1,2,2.1c0,1.2-1,2.2-2.2,2.2c-1.2,0-2.3-1-2.3-2.2
		c0-0.7,0.3-1.3,0.7-1.8l2.3-3.1L640.1,154.2z M640.1,158.7c0-0.8-0.7-1.5-1.4-1.5c-0.7,0-1.4,0.7-1.4,1.4c0,0.8,0.7,1.4,1.4,1.4
		C639.5,160.1,640.1,159.4,640.1,158.7z"/>
	<path class="st1" d="M641.9,153.9h0.8c1.3,0,2.5,0.3,2.5,1.9c0,0.5-0.3,1.1-0.7,1.3v0c0.8,0.1,1.4,0.9,1.4,1.7
		c0,1.4-1.2,1.9-2.4,1.9h-1.6V153.9z M642.7,156.9h0.2c0.8,0,1.5-0.2,1.5-1.1c0-1-0.6-1.1-1.4-1.1h-0.2V156.9z M642.7,159.9h0.6
		c0.8,0,1.6-0.2,1.6-1.2c0-1-1-1.2-1.7-1.2h-0.5V159.9z"/>
	<path class="st1" d="M646.5,154.7v-0.8h4.9l-4.2,6.9l-0.7-0.4l3.5-5.8H646.5z"/>
	<path class="st1" d="M651.9,153.9h1.4c2.1,0,3.8,1.1,3.8,3.4c0,2.3-1.7,3.4-3.8,3.4h-1.4V153.9z M652.7,159.9h0.3
		c1.7,0,3.2-0.6,3.2-2.6c0-2-1.5-2.6-3.2-2.6h-0.3V159.9z"/>
	<path class="st1" d="M657.7,154.7v-0.8h4.9l-4.2,6.9l-0.7-0.4l3.5-5.8H657.7z"/>
	<path class="st1" d="M668.1,155.2c-0.5-0.4-1.2-0.7-1.8-0.7c-1.5,0-2.7,1.3-2.7,2.8c0,1.5,1.2,2.8,2.7,2.8c0.7,0,1.3-0.3,1.8-0.7v1
		c-0.5,0.3-1.2,0.5-1.8,0.5c-1.9,0-3.5-1.5-3.5-3.5c0-2,1.6-3.6,3.6-3.6c0.6,0,1.2,0.1,1.7,0.5V155.2z"/>
	<path class="st1" d="M634.9,168.2l-1.8,2.4l0,0c0.2-0.1,0.4-0.2,0.7-0.2c1.1,0,2,1,2,2.1c0,1.2-1,2.2-2.2,2.2c-1.2,0-2.3-1-2.3-2.2
		c0-0.7,0.3-1.3,0.7-1.8l2.3-3.1L634.9,168.2z M634.9,172.7c0-0.8-0.7-1.5-1.4-1.5c-0.7,0-1.4,0.7-1.4,1.4c0,0.8,0.7,1.4,1.4,1.4
		C634.3,174.1,634.9,173.4,634.9,172.7z"/>
	<path class="st1" d="M637.2,168.7l0.5-0.8h1.5v6.8h-0.8v-6H637.2z"/>
	<path class="st1" d="M648.9,173v0.7h-0.8v1h-0.8v-1H644l4.2-6.1v5.3H648.9z M647.3,170.2L647.3,170.2l-1.9,2.8h1.9V170.2z"/>
	<path class="st1" d="M650.2,168.7l0.5-0.8h1.5v6.8h-0.8v-6H650.2z"/>
	<path class="st1" d="M661.9,173v0.7h-0.8v1h-0.8v-1H657l4.2-6.1v5.3H661.9z M660.3,170.2L660.3,170.2l-1.9,2.8h1.9V170.2z"/>
	<path class="st1" d="M666.1,168.2l-1.8,2.4l0,0c0.2-0.1,0.4-0.2,0.7-0.2c1.1,0,2,1,2,2.1c0,1.2-1,2.2-2.2,2.2c-1.2,0-2.3-1-2.3-2.2
		c0-0.7,0.3-1.3,0.7-1.8l2.3-3.1L666.1,168.2z M666.1,172.7c0-0.8-0.7-1.5-1.4-1.5c-0.7,0-1.4,0.7-1.4,1.4c0,0.8,0.7,1.4,1.4,1.4
		C665.5,174.1,666.1,173.4,666.1,172.7z"/>
	<path class="st1" d="M671,168.7l0.5-0.8h1.5v6.8h-0.8v-6H671z"/>
	<path class="st1" d="M675.3,171.3c0-1.4,0.6-3.5,2.4-3.5s2.4,2.1,2.4,3.5c0,1.4-0.6,3.5-2.4,3.5S675.3,172.7,675.3,171.3z
		 M676.1,171.3c0,0.9,0.3,2.8,1.6,2.8s1.6-1.9,1.6-2.8c0-0.9-0.3-2.8-1.6-2.8S676.1,170.3,676.1,171.3z"/>
</g>
<circle class="st2" cx="161.1" cy="155.5" r="100"/>
<circle class="st3" cx="396.5" cy="155.5" r="100"/>
<title>Asset 7</title>
<circle class="st4" cx="107" cy="372.9" r="45"/>
<circle class="st5" cx="222.6" cy="372.9" r="45"/>
<circle class="st6" cx="338.2" cy="372.9" r="45"/>
<circle class="st7" cx="453.8" cy="372.9" r="45"/>
<circle class="st8" cx="569.4" cy="372.9" r="45"/>
<circle class="st9" cx="685" cy="372.9" r="45"/>
<g class="st10">
	<path class="st11" d="M22.8,36.5l2-10l3.2,7.3l3.3-7.3l1.8,10h-1.5l-1-5.6L27.9,37l-2.7-6.1l-1,5.6H22.8z"/>
	<path class="st11" d="M39.1,30.6h1.4v5.9h-1.4v-0.6c-0.6,0.7-1.3,0.8-1.8,0.8c-1.8,0-2.9-1.5-2.9-3.1c0-1.9,1.3-3.1,2.9-3.1
		c0.4,0,1.2,0.1,1.8,0.8V30.6z M35.9,33.6c0,1,0.6,1.9,1.6,1.9c0.9,0,1.7-0.6,1.7-1.9c0-1.3-0.8-1.9-1.7-1.9
		C36.5,31.7,35.9,32.6,35.9,33.6z"/>
	<path class="st11" d="M42.9,27.3c0.5,0,0.9,0.4,0.9,0.9s-0.4,0.9-0.9,0.9S42,28.7,42,28.2C42,27.7,42.4,27.3,42.9,27.3z M43.6,30.6
		v5.9h-1.4v-5.9H43.6z"/>
	<path class="st11" d="M45.3,30.6h1.4v0.5c0.6-0.7,1.3-0.7,1.6-0.7c1.1,0,1.6,0.5,1.7,0.8c0.2,0.3,0.4,0.7,0.4,1.6v3.6H49v-3.3
		c0-1.5-0.6-1.5-1.1-1.5c-0.6,0-1.2,0.1-1.2,2v2.8h-1.4V30.6z"/>
	<path class="st11" d="M62.5,29.4c-1-0.9-2-1-2.5-1c-2,0-3.4,1.5-3.4,3.6c0,2,1.4,3.5,3.4,3.5c1.1,0,2-0.6,2.5-1.1V36
		c-0.9,0.6-1.9,0.7-2.6,0.7c-1.7,0-2.8-0.8-3.3-1.3c-1.1-1-1.5-2.2-1.5-3.5c0-1.7,0.7-2.9,1.5-3.7c1-0.9,2.1-1.2,3.4-1.2
		c0.9,0,1.7,0.2,2.5,0.7C62.5,27.7,62.5,29.4,62.5,29.4z"/>
	<path class="st11" d="M70,33.6c0,1.8-1.4,3.1-3.2,3.1s-3.2-1.3-3.2-3.1s1.4-3.1,3.2-3.1S70,31.8,70,33.6z M68.6,33.6
		c0-1.3-0.9-1.9-1.8-1.9S65,32.2,65,33.6c0,1.1,0.7,1.9,1.8,1.9S68.6,34.7,68.6,33.6z"/>
	<path class="st11" d="M72.8,26.3v10.2h-1.4V26.3H72.8z"/>
	<path class="st11" d="M80.6,33.6c0,1.8-1.4,3.1-3.2,3.1c-1.8,0-3.2-1.3-3.2-3.1s1.4-3.1,3.2-3.1C79.2,30.5,80.6,31.8,80.6,33.6z
		 M79.2,33.6c0-1.3-0.9-1.9-1.8-1.9s-1.8,0.5-1.8,1.9c0,1.1,0.7,1.9,1.8,1.9S79.2,34.7,79.2,33.6z"/>
	<path class="st11" d="M82,30.6h1.4v0.5c0.2-0.2,0.4-0.4,0.6-0.5c0.3-0.2,0.5-0.2,0.8-0.2s0.7,0.1,1.1,0.3L85.3,32
		c-0.3-0.2-0.6-0.2-0.7-0.2c-0.3,0-0.6,0-0.9,0.3c-0.4,0.4-0.4,1-0.4,1.4v3.1H82V30.6z"/>
</g>
<path class="st11" d="M27.1,306.1c-0.1-0.2-0.2-0.4-0.4-0.6c-0.3-0.2-0.6-0.3-1-0.3c-0.9,0-1.3,0.5-1.3,1.1c0,0.3,0.1,0.8,1,1.1
	l0.9,0.4c1.7,0.7,2.2,1.7,2.2,2.7c0,1.8-1.3,3-3,3c-1.1,0-1.7-0.4-2.2-0.9c-0.5-0.6-0.7-1.2-0.8-1.8l1.4-0.3c0,0.5,0.2,0.9,0.4,1.2
	c0.3,0.3,0.7,0.6,1.2,0.6c0.9,0,1.5-0.6,1.5-1.6s-0.7-1.3-1.3-1.6l-0.9-0.4c-0.8-0.3-1.9-1-1.9-2.4c0-1.3,1-2.5,2.7-2.5
	c1,0,1.6,0.4,1.9,0.6s0.5,0.5,0.7,0.9L27.1,306.1z"/>
<path class="st11" d="M31.4,307.5v3.4c0,0.4,0,0.8,0.3,1.1c0.2,0.2,0.5,0.4,0.9,0.4s0.7-0.2,0.9-0.4c0.2-0.3,0.3-0.7,0.3-1.1v-3.4
	h1.4v3.4c0,0.8-0.1,1.4-0.6,1.9s-1.3,0.7-1.9,0.7c-0.6,0-1.3-0.2-1.9-0.7c-0.5-0.5-0.6-1.2-0.6-1.9v-3.4H31.4z"/>
<path class="st11" d="M38.2,308.2c0.6-0.7,1.3-0.8,1.8-0.8c1.6,0,2.9,1.2,2.9,3.1c0,1.6-1,3.1-2.9,3.1c-0.4,0-1.2-0.1-1.8-0.8v0.6
	h-1.4v-10.2h1.4V308.2z M38.1,310.5c0,1.2,0.8,1.9,1.7,1.9c1,0,1.6-0.9,1.6-1.9c0-1.1-0.6-1.9-1.6-1.9
	C38.9,308.6,38.1,309.2,38.1,310.5z"/>
<path class="st11" d="M54.7,306.2c-1-0.9-2-1-2.5-1c-2,0-3.4,1.5-3.4,3.6c0,2,1.4,3.5,3.4,3.5c1.1,0,2-0.6,2.5-1.1v1.7
	c-0.9,0.6-1.9,0.7-2.6,0.7c-1.7,0-2.8-0.8-3.3-1.3c-1.1-1-1.5-2.2-1.5-3.5c0-1.7,0.7-2.9,1.5-3.7c1-0.9,2.1-1.2,3.4-1.2
	c0.9,0,1.7,0.2,2.5,0.7C54.7,304.6,54.7,306.2,54.7,306.2z"/>
<path class="st11" d="M62.2,310.4c0,1.8-1.4,3.1-3.2,3.1s-3.2-1.3-3.2-3.1c0-1.8,1.4-3.1,3.2-3.1S62.2,308.6,62.2,310.4z
	 M60.8,310.5c0-1.3-0.9-1.9-1.8-1.9c-0.9,0-1.8,0.5-1.8,1.9c0,1.1,0.7,1.9,1.8,1.9S60.8,311.6,60.8,310.5z"/>
<path class="st11" d="M65,303.2v10.2h-1.4v-10.2H65z"/>
<path class="st11" d="M72.7,310.4c0,1.8-1.4,3.1-3.2,3.1s-3.2-1.3-3.2-3.1c0-1.8,1.4-3.1,3.2-3.1S72.7,308.6,72.7,310.4z
	 M71.3,310.5c0-1.3-0.9-1.9-1.8-1.9s-1.8,0.5-1.8,1.9c0,1.1,0.7,1.9,1.8,1.9S71.3,311.6,71.3,310.5z"/>
<path class="st11" d="M74.2,307.5h1.4v0.5c0.2-0.2,0.4-0.4,0.6-0.5c0.3-0.2,0.5-0.2,0.8-0.2s0.7,0.1,1.1,0.3l-0.6,1.2
	c-0.3-0.2-0.6-0.2-0.7-0.2c-0.3,0-0.6,0-0.9,0.3c-0.4,0.4-0.4,1-0.4,1.4v3.1h-1.4L74.2,307.5L74.2,307.5z"/>
<rect class="st12" width="792" height="559.2"/>
<g>
	<path d="M164.9,145.9v0.8h-4.4l3-3.6c0.3-0.3,0.6-0.8,0.6-1.2c0-0.7-0.6-1.3-1.3-1.3c-0.7,0-1.3,0.6-1.3,1.2h-0.8
		c0.1-1.2,0.9-2,2.2-2c1.2,0,2.1,0.9,2.1,2c0,0.5-0.2,1-0.5,1.4l-2.2,2.7H164.9z"/>
	<path d="M170.3,145v0.7h-0.8v1h-0.8v-1h-3.3l4.2-6.1v5.3H170.3z M168.7,142.2L168.7,142.2l-1.9,2.8h1.9V142.2z"/>
	<path d="M175.5,145v0.7h-0.8v1h-0.8v-1h-3.3l4.2-6.1v5.3H175.5z M173.9,142.2L173.9,142.2L172,145h1.9V142.2z"/>
	<path d="M183.1,145.9v0.8h-4.4l3-3.6c0.3-0.3,0.6-0.8,0.6-1.2c0-0.7-0.6-1.3-1.3-1.3c-0.7,0-1.3,0.6-1.3,1.2h-0.8
		c0.1-1.2,0.9-2,2.2-2c1.2,0,2.1,0.9,2.1,2c0,0.5-0.2,1-0.5,1.4l-2.2,2.7H183.1z"/>
	<path d="M186,142.7c0.7,0,1.3-0.3,1.3-1.1c0-0.7-0.5-1.2-1.2-1.2c-0.6,0-1,0.4-1.1,1h-0.8c0.2-1.1,0.9-1.7,2-1.7c1.1,0,2,0.7,2,1.8
		c0,0.7-0.3,1.2-0.9,1.5c0.7,0.3,1,1,1,1.7c0,1.3-1,2-2.2,2c-1.1,0-2-0.7-2.1-1.8h0.8c0.1,0.7,0.7,1.1,1.3,1.1
		c0.8,0,1.3-0.6,1.3-1.3c0-0.9-0.6-1.4-1.4-1.3V142.7z"/>
	<path d="M190.3,143.2c-0.6-0.3-0.9-0.9-0.9-1.5c0-1.1,0.9-1.9,1.9-1.9c1.1,0,1.9,0.8,1.9,1.9c0,0.7-0.3,1.2-0.9,1.5
		c0.7,0.2,1.1,0.9,1.1,1.6c0,1.3-1,2-2.1,2s-2.1-0.8-2.1-2C189.2,144.1,189.6,143.4,190.3,143.2z M190,144.8c0,0.7,0.6,1.3,1.3,1.3
		c0.7,0,1.3-0.6,1.3-1.3c0-0.7-0.6-1.3-1.3-1.3C190.7,143.5,190,144.1,190,144.8z M190.2,141.6c0,0.5,0.6,1.2,1.2,1.2
		c0.6,0,1.2-0.6,1.2-1.2c0-0.6-0.5-1.2-1.2-1.2C190.7,140.5,190.2,141,190.2,141.6z"/>
	<path d="M198.1,143.2c-0.6-0.3-0.9-0.9-0.9-1.5c0-1.1,0.9-1.9,1.9-1.9c1.1,0,1.9,0.8,1.9,1.9c0,0.7-0.3,1.2-0.9,1.5
		c0.7,0.2,1.1,0.9,1.1,1.6c0,1.3-1,2-2.1,2s-2.1-0.8-2.1-2C197,144.1,197.4,143.4,198.1,143.2z M197.8,144.8c0,0.7,0.6,1.3,1.3,1.3
		c0.7,0,1.3-0.6,1.3-1.3c0-0.7-0.6-1.3-1.3-1.3C198.5,143.5,197.8,144.1,197.8,144.8z M198,141.6c0,0.5,0.6,1.2,1.2,1.2
		c0.6,0,1.2-0.6,1.2-1.2c0-0.6-0.5-1.2-1.2-1.2C198.5,140.5,198,141,198,141.6z"/>
	<path d="M202.2,140.7v-0.8h4.9l-4.2,6.9l-0.7-0.4l3.5-5.8H202.2z"/>
	<path d="M162.8,154.2l-0.3,1.7h1.1l0.3-1.7h0.7l-0.3,1.7h0.8v0.7h-1l-0.2,1.4h0.9v0.7h-1.1l-0.3,1.9h-0.7l0.3-1.9H162l-0.4,1.9
		h-0.7l0.3-1.9h-0.9v-0.7h1l0.2-1.4h-0.9V156h1.1l0.3-1.7H162.8z M162.1,158.1h1.1l0.2-1.4h-1.1L162.1,158.1z"/>
	<path d="M166.8,154.7v1.9h2.4v0.8h-2.4v3.3H166v-6.8h3.3v0.8H166.8z"/>
	<path d="M174.6,159v0.7h-0.8v1H173v-1h-3.3l4.2-6.1v5.3H174.6z M173,156.2L173,156.2l-1.9,2.8h1.9V156.2z"/>
	<path d="M175.4,153.9h3.6v0.8h-2.8v1.9h2.7v0.8h-2.7v2.6h2.8v0.8h-3.6V153.9z"/>
	<path d="M180.1,153.9h3.6v0.8H181v1.9h2.7v0.8H181v2.6h2.8v0.8h-3.6V153.9z"/>
	<path d="M186.8,154.7l-0.4,1.4l0.5,0c1.3,0,2.2,1.1,2.2,2.4c0,1.4-1.1,2.4-2.5,2.4c-0.8,0-1.7-0.4-2.1-1.2l0.6-0.6
		c0.2,0.6,0.9,1,1.5,1c0.9,0,1.6-0.8,1.6-1.7c0-0.9-0.7-1.6-1.6-1.6c-0.5,0-1,0.2-1.3,0.6h-0.2l1-3.5h2.7v0.8H186.8z"/>
	<path d="M189.8,154.7v-0.8h4.9l-4.2,6.9l-0.7-0.4l3.5-5.8H189.8z"/>
	<path d="M160.5,168.7v-0.8h4.9l-4.2,6.9l-0.7-0.4l3.5-5.8H160.5z"/>
	<path d="M168.2,171.3c0-1.4,0.6-3.5,2.4-3.5c1.8,0,2.4,2.1,2.4,3.5c0,1.4-0.6,3.5-2.4,3.5C168.8,174.8,168.2,172.7,168.2,171.3z
		 M169,171.3c0,0.9,0.3,2.8,1.6,2.8c1.2,0,1.6-1.9,1.6-2.8c0-0.9-0.3-2.8-1.6-2.8C169.3,168.5,169,170.3,169,171.3z"/>
	<path d="M176.2,168.7v-0.8h4.9l-4.2,6.9l-0.7-0.4l3.5-5.8H176.2z"/>
	<path d="M182.5,171.2c-0.6-0.3-0.9-0.9-0.9-1.5c0-1.1,0.9-1.9,1.9-1.9c1.1,0,1.9,0.8,1.9,1.9c0,0.7-0.3,1.2-0.9,1.5
		c0.7,0.2,1.1,0.9,1.1,1.6c0,1.3-1,2-2.1,2s-2.1-0.8-2.1-2C181.4,172.1,181.8,171.4,182.5,171.2z M182.2,172.8
		c0,0.7,0.6,1.3,1.3,1.3c0.7,0,1.3-0.6,1.3-1.3c0-0.7-0.6-1.3-1.3-1.3C182.8,171.5,182.2,172.1,182.2,172.8z M182.4,169.6
		c0,0.5,0.6,1.2,1.2,1.2c0.6,0,1.2-0.6,1.2-1.2c0-0.6-0.5-1.2-1.2-1.2C182.9,168.5,182.4,169,182.4,169.6z"/>
	<path d="M189,171.3c0-1.4,0.6-3.5,2.4-3.5c1.8,0,2.4,2.1,2.4,3.5c0,1.4-0.6,3.5-2.4,3.5C189.6,174.8,189,172.7,189,171.3z
		 M189.8,171.3c0,0.9,0.3,2.8,1.6,2.8c1.2,0,1.6-1.9,1.6-2.8c0-0.9-0.3-2.8-1.6-2.8C190.1,168.5,189.8,170.3,189.8,171.3z"/>
</g>
<g>
	<path d="M85.5,435.6v0.8h-4.4l3-3.6c0.3-0.3,0.6-0.8,0.6-1.2c0-0.7-0.6-1.3-1.3-1.3c-0.7,0-1.3,0.6-1.3,1.2h-0.8
		c0.1-1.2,0.9-2,2.2-2c1.2,0,2.1,0.9,2.1,2c0,0.5-0.2,1-0.5,1.4l-2.2,2.7H85.5z"/>
	<path d="M88.5,430.4l-0.4,1.4l0.5,0c1.3,0,2.2,1.1,2.2,2.4c0,1.4-1.1,2.4-2.5,2.4c-0.8,0-1.7-0.4-2.1-1.2l0.6-0.6
		c0.2,0.6,0.9,1,1.5,1c0.9,0,1.6-0.8,1.6-1.7c0-0.9-0.7-1.6-1.6-1.6c-0.5,0-1,0.2-1.3,0.6h-0.2l1-3.5h2.7v0.8H88.5z"/>
	<path d="M95.9,435.6v0.8h-4.4l3-3.6c0.3-0.3,0.6-0.8,0.6-1.2c0-0.7-0.6-1.3-1.3-1.3c-0.7,0-1.3,0.6-1.3,1.2h-0.8
		c0.1-1.2,0.9-2,2.2-2c1.2,0,2.1,0.9,2.1,2c0,0.5-0.2,1-0.5,1.4l-2.2,2.7H95.9z"/>
	<path d="M100,430.4l0.5-0.8h1.5v6.8h-0.8v-6H100z"/>
	<path d="M106.6,432.5c0.7,0,1.3-0.3,1.3-1.1c0-0.7-0.5-1.2-1.2-1.2c-0.6,0-1,0.4-1.1,1h-0.8c0.2-1.1,0.9-1.7,2-1.7
		c1.1,0,2,0.7,2,1.8c0,0.7-0.3,1.2-0.9,1.5c0.7,0.3,1,1,1,1.7c0,1.3-1,2-2.2,2c-1.1,0-2-0.7-2.1-1.8h0.8c0.1,0.7,0.7,1.1,1.3,1.1
		c0.8,0,1.3-0.6,1.3-1.3c0-0.9-0.6-1.4-1.4-1.3V432.5z"/>
	<path d="M113.3,429.9l-1.8,2.4l0,0c0.2-0.1,0.4-0.2,0.7-0.2c1.1,0,2,1,2,2.1c0,1.2-1,2.2-2.2,2.2c-1.2,0-2.3-1-2.3-2.2
		c0-0.7,0.3-1.3,0.7-1.8l2.3-3.1L113.3,429.9z M113.4,434.4c0-0.8-0.7-1.5-1.4-1.5c-0.7,0-1.4,0.7-1.4,1.4c0,0.8,0.7,1.4,1.4,1.4
		C112.7,435.8,113.4,435.2,113.4,434.4z"/>
	<path d="M118.2,430.4l0.5-0.8h1.5v6.8h-0.8v-6H118.2z"/>
	<path d="M126.3,429.9l-1.8,2.4l0,0c0.2-0.1,0.4-0.2,0.7-0.2c1.1,0,2,1,2,2.1c0,1.2-1,2.2-2.2,2.2c-1.2,0-2.3-1-2.3-2.2
		c0-0.7,0.3-1.3,0.7-1.8l2.3-3.1L126.3,429.9z M126.4,434.4c0-0.8-0.7-1.5-1.4-1.5c-0.7,0-1.4,0.7-1.4,1.4c0,0.8,0.7,1.4,1.4,1.4
		C125.7,435.8,126.4,435.2,126.4,434.4z"/>
	<path d="M130.1,430.4l-0.4,1.4l0.5,0c1.3,0,2.2,1.1,2.2,2.4c0,1.4-1.1,2.4-2.5,2.4c-0.8,0-1.7-0.4-2.1-1.2l0.6-0.6
		c0.2,0.6,0.9,1,1.5,1c0.9,0,1.6-0.8,1.6-1.7c0-0.9-0.7-1.6-1.6-1.6c-0.5,0-1,0.2-1.3,0.6h-0.2l1-3.5h2.7v0.8H130.1z"/>
	<path d="M83.3,444l-0.3,1.7h1.1l0.3-1.7h0.7l-0.3,1.7h0.8v0.7h-1l-0.2,1.4h0.9v0.7h-1.1l-0.3,1.9h-0.7l0.3-1.9h-1.1l-0.4,1.9h-0.7
		l0.3-1.9h-0.9v-0.7h1l0.2-1.4h-0.9v-0.7h1.1l0.3-1.7H83.3z M82.7,447.8h1.1l0.2-1.4h-1.1L82.7,447.8z"/>
	<path d="M87.4,444.4v1.9h2.4v0.8h-2.4v3.3h-0.8v-6.8h3.3v0.8H87.4z"/>
	<path d="M95.8,444.9c-0.5-0.4-1.2-0.7-1.8-0.7c-1.5,0-2.7,1.3-2.7,2.8c0,1.5,1.2,2.8,2.7,2.8c0.7,0,1.3-0.3,1.8-0.7v1
		c-0.5,0.3-1.2,0.5-1.8,0.5c-1.9,0-3.5-1.5-3.5-3.5c0-2,1.6-3.6,3.6-3.6c0.6,0,1.2,0.1,1.7,0.5V444.9z"/>
	<path d="M97.7,446.9c-0.6-0.3-0.9-0.9-0.9-1.5c0-1.1,0.9-1.9,1.9-1.9c1.1,0,1.9,0.8,1.9,1.9c0,0.7-0.3,1.2-0.9,1.5
		c0.7,0.2,1.1,0.9,1.1,1.6c0,1.3-1,2-2.1,2s-2.1-0.8-2.1-2C96.6,447.8,97,447.1,97.7,446.9z M97.4,448.5c0,0.7,0.6,1.3,1.3,1.3
		c0.7,0,1.3-0.6,1.3-1.3c0-0.7-0.6-1.3-1.3-1.3C98,447.3,97.4,447.8,97.4,448.5z M97.6,445.4c0,0.5,0.6,1.2,1.2,1.2
		c0.6,0,1.2-0.6,1.2-1.2c0-0.6-0.5-1.2-1.2-1.2C98.1,444.2,97.6,444.7,97.6,445.4z"/>
	<path d="M102.9,446.9c-0.6-0.3-0.9-0.9-0.9-1.5c0-1.1,0.9-1.9,1.9-1.9c1.1,0,1.9,0.8,1.9,1.9c0,0.7-0.3,1.2-0.9,1.5
		c0.7,0.2,1.1,0.9,1.1,1.6c0,1.3-1,2-2.1,2s-2.1-0.8-2.1-2C101.8,447.8,102.2,447.1,102.9,446.9z M102.6,448.5
		c0,0.7,0.6,1.3,1.3,1.3c0.7,0,1.3-0.6,1.3-1.3c0-0.7-0.6-1.3-1.3-1.3C103.2,447.3,102.6,447.8,102.6,448.5z M102.8,445.4
		c0,0.5,0.6,1.2,1.2,1.2c0.6,0,1.2-0.6,1.2-1.2c0-0.6-0.5-1.2-1.2-1.2C103.3,444.2,102.8,444.7,102.8,445.4z"/>
	<path d="M108.1,448.7l-0.8,1.7h-0.9l3.2-7.1l3.2,7.1H112l-0.8-1.7H108.1z M109.7,445.2l-1.2,2.7h2.4L109.7,445.2z"/>
	<path d="M115.5,444.4l-0.4,1.4l0.5,0c1.3,0,2.2,1.1,2.2,2.4c0,1.4-1.1,2.4-2.5,2.4c-0.8,0-1.7-0.4-2.1-1.2l0.6-0.6
		c0.2,0.6,0.9,1,1.5,1c0.9,0,1.6-0.8,1.6-1.7c0-0.9-0.7-1.6-1.6-1.6c-0.5,0-1,0.2-1.3,0.6h-0.2l1-3.5h2.7v0.8H115.5z"/>
	<path d="M84.7,457.9l-1.8,2.4l0,0c0.2-0.1,0.4-0.2,0.7-0.2c1.1,0,2,1,2,2.1c0,1.2-1,2.2-2.2,2.2c-1.2,0-2.3-1-2.3-2.2
		c0-0.7,0.3-1.3,0.7-1.8l2.3-3.1L84.7,457.9z M84.8,462.4c0-0.8-0.7-1.5-1.4-1.5c-0.7,0-1.4,0.7-1.4,1.4c0,0.8,0.7,1.4,1.4,1.4
		C84.1,463.8,84.8,463.2,84.8,462.4z"/>
	<path d="M91.1,458.4l-0.4,1.4l0.5,0c1.3,0,2.2,1.1,2.2,2.4c0,1.4-1.1,2.4-2.5,2.4c-0.8,0-1.7-0.4-2.1-1.2l0.6-0.6
		c0.2,0.6,0.9,1,1.5,1c0.9,0,1.6-0.8,1.6-1.7c0-0.9-0.7-1.6-1.6-1.6c-0.5,0-1,0.2-1.3,0.6h-0.2l1-3.5h2.7v0.8H91.1z"/>
	<path d="M95,464.1l1.8-2.4l0,0c-0.2,0.1-0.4,0.1-0.7,0.1c-1.1,0-2-1-2-2.1c0-1.2,1-2.2,2.2-2.2c1.2,0,2.3,1,2.3,2.2
		c0,0.7-0.3,1.3-0.7,1.8l-2.3,3.1L95,464.1z M97.9,459.7c0-0.7-0.6-1.4-1.4-1.4c-0.8,0-1.5,0.6-1.5,1.4c0,0.8,0.7,1.4,1.4,1.4
		C97.3,461.1,97.9,460.4,97.9,459.7z"/>
	<path d="M102.6,458.4l0.5-0.8h1.5v6.8h-0.8v-6H102.6z"/>
	<path d="M109.2,460.5c0.7,0,1.3-0.3,1.3-1.1c0-0.7-0.5-1.2-1.2-1.2c-0.6,0-1,0.4-1.1,1h-0.8c0.2-1.1,0.9-1.7,2-1.7
		c1.1,0,2,0.7,2,1.8c0,0.7-0.3,1.2-0.9,1.5c0.7,0.3,1,1,1,1.7c0,1.3-1,2-2.2,2c-1.1,0-2-0.7-2.1-1.8h0.8c0.1,0.7,0.7,1.1,1.3,1.1
		c0.8,0,1.3-0.6,1.3-1.3c0-0.9-0.6-1.4-1.4-1.3V460.5z"/>
	<path d="M114.7,461c0-1.4,0.6-3.5,2.4-3.5c1.8,0,2.4,2.1,2.4,3.5c0,1.4-0.6,3.5-2.4,3.5C115.4,464.6,114.7,462.4,114.7,461z
		 M115.6,461c0,0.9,0.3,2.8,1.6,2.8s1.6-1.9,1.6-2.8c0-0.9-0.3-2.8-1.6-2.8S115.6,460.1,115.6,461z"/>
</g>
<g>
	<path d="M201.3,435.6v0.8h-4.4l3-3.6c0.3-0.3,0.6-0.8,0.6-1.2c0-0.7-0.6-1.3-1.3-1.3c-0.7,0-1.3,0.6-1.3,1.2H197
		c0.1-1.2,0.9-2,2.2-2c1.2,0,2.1,0.9,2.1,2c0,0.5-0.2,1-0.5,1.4l-2.2,2.7H201.3z"/>
	<path d="M204.2,432.5c0.7,0,1.3-0.3,1.3-1.1c0-0.7-0.5-1.2-1.2-1.2c-0.6,0-1,0.4-1.1,1h-0.8c0.2-1.1,0.9-1.7,2-1.7
		c1.1,0,2,0.7,2,1.8c0,0.7-0.3,1.2-0.9,1.5c0.7,0.3,1,1,1,1.7c0,1.3-1,2-2.2,2c-1.1,0-2-0.7-2.1-1.8h0.8c0.1,0.7,0.7,1.1,1.3,1.1
		c0.8,0,1.3-0.6,1.3-1.3c0-0.9-0.6-1.4-1.4-1.3V432.5z"/>
	<path d="M208.4,432.9c-0.6-0.3-0.9-0.9-0.9-1.5c0-1.1,0.9-1.9,1.9-1.9c1.1,0,1.9,0.8,1.9,1.9c0,0.7-0.3,1.2-0.9,1.5
		c0.7,0.2,1.1,0.9,1.1,1.6c0,1.3-1,2-2.1,2s-2.1-0.8-2.1-2C207.4,433.8,207.7,433.1,208.4,432.9z M208.2,434.5
		c0,0.7,0.6,1.3,1.3,1.3c0.7,0,1.3-0.6,1.3-1.3c0-0.7-0.6-1.3-1.3-1.3C208.8,433.3,208.2,433.8,208.2,434.5z M208.3,431.4
		c0,0.5,0.6,1.2,1.2,1.2c0.6,0,1.2-0.6,1.2-1.2c0-0.6-0.5-1.2-1.2-1.2C208.9,430.2,208.3,430.7,208.3,431.4z"/>
	<path d="M215.8,430.4l0.5-0.8h1.5v6.8H217v-6H215.8z"/>
	<path d="M221,430.4l0.5-0.8h1.5v6.8h-0.8v-6H221z"/>
	<path d="M227.6,432.5c0.7,0,1.3-0.3,1.3-1.1c0-0.7-0.5-1.2-1.2-1.2c-0.6,0-1,0.4-1.1,1h-0.8c0.2-1.1,0.9-1.7,2-1.7
		c1.1,0,2,0.7,2,1.8c0,0.7-0.3,1.2-0.9,1.5c0.7,0.3,1,1,1,1.7c0,1.3-1,2-2.2,2c-1.1,0-2-0.7-2.1-1.8h0.8c0.1,0.7,0.7,1.1,1.3,1.1
		c0.8,0,1.3-0.6,1.3-1.3c0-0.9-0.6-1.4-1.4-1.3V432.5z"/>
	<path d="M234,430.4l0.5-0.8h1.5v6.8h-0.8v-6H234z"/>
	<path d="M243.1,434.7v0.7h-0.8v1h-0.8v-1h-3.3l4.2-6.1v5.3H243.1z M241.5,431.9L241.5,431.9l-1.9,2.8h1.9V431.9z"/>
	<path d="M245.9,430.4l-0.4,1.4l0.5,0c1.3,0,2.2,1.1,2.2,2.4c0,1.4-1.1,2.4-2.5,2.4c-0.8,0-1.7-0.4-2.1-1.2l0.6-0.6
		c0.2,0.6,0.9,1,1.5,1c0.9,0,1.6-0.8,1.6-1.7c0-0.9-0.7-1.6-1.6-1.6c-0.5,0-1,0.2-1.3,0.6h-0.2l1-3.5h2.7v0.8H245.9z"/>
	<path d="M199.1,444l-0.3,1.7h1.1l0.3-1.7h0.7l-0.3,1.7h0.8v0.7h-1l-0.2,1.4h0.9v0.7h-1.1l-0.3,1.9h-0.7l0.3-1.9h-1.1l-0.4,1.9h-0.7
		l0.3-1.9h-0.9v-0.7h1l0.2-1.4H197v-0.7h1.1l0.3-1.7H199.1z M198.4,447.8h1.1l0.2-1.4h-1.1L198.4,447.8z"/>
	<path d="M202.3,443.6h3.6v0.8h-2.8v1.9h2.7v0.8h-2.7v2.6h2.8v0.8h-3.6V443.6z"/>
	<path d="M207,443.6h3.6v0.8h-2.8v1.9h2.7v0.8h-2.7v2.6h2.8v0.8H207V443.6z"/>
	<path d="M211.5,444.4v-0.8h4.9l-4.2,6.9l-0.7-0.4l3.5-5.8H211.5z"/>
	<path d="M217.4,444.4l0.5-0.8h1.5v6.8h-0.8v-6H217.4z"/>
	<path d="M222.8,450.1l1.8-2.4l0,0c-0.2,0.1-0.4,0.1-0.7,0.1c-1.1,0-2-1-2-2.1c0-1.2,1-2.2,2.2-2.2c1.2,0,2.3,1,2.3,2.2
		c0,0.7-0.3,1.3-0.7,1.8l-2.3,3.1L222.8,450.1z M225.6,445.7c0-0.7-0.6-1.4-1.4-1.4c-0.8,0-1.5,0.6-1.5,1.4c0,0.8,0.7,1.4,1.4,1.4
		C225,447.1,225.6,446.4,225.6,445.7z"/>
	<path d="M227.8,444.4l0.5-0.8h1.5v6.8h-0.8v-6H227.8z"/>
	<path d="M201.3,463.6v0.8h-4.4l3-3.6c0.3-0.3,0.6-0.8,0.6-1.2c0-0.7-0.6-1.3-1.3-1.3c-0.7,0-1.3,0.6-1.3,1.2H197
		c0.1-1.2,0.9-2,2.2-2c1.2,0,2.1,0.9,2.1,2c0,0.5-0.2,1-0.5,1.4l-2.2,2.7H201.3z"/>
	<path d="M204.7,458.4v-0.8h4.9l-4.2,6.9l-0.7-0.4l3.5-5.8H204.7z"/>
	<path d="M209.7,461c0-1.4,0.6-3.5,2.4-3.5c1.8,0,2.4,2.1,2.4,3.5c0,1.4-0.6,3.5-2.4,3.5C210.3,464.6,209.7,462.4,209.7,461z
		 M210.5,461c0,0.9,0.3,2.8,1.6,2.8c1.2,0,1.6-1.9,1.6-2.8c0-0.9-0.3-2.8-1.6-2.8C210.9,458.2,210.5,460.1,210.5,461z"/>
	<path d="M222.1,463.6v0.8h-4.4l3-3.6c0.3-0.3,0.6-0.8,0.6-1.2c0-0.7-0.6-1.3-1.3-1.3c-0.7,0-1.3,0.6-1.3,1.2h-0.8
		c0.1-1.2,0.9-2,2.2-2c1.2,0,2.1,0.9,2.1,2c0,0.5-0.2,1-0.5,1.4l-2.2,2.7H222.1z"/>
	<path d="M223.6,458.4l0.5-0.8h1.5v6.8h-0.8v-6H223.6z"/>
	<path d="M230.5,461c0-1.4,0.6-3.5,2.4-3.5c1.8,0,2.4,2.1,2.4,3.5c0,1.4-0.6,3.5-2.4,3.5C231.1,464.6,230.5,462.4,230.5,461z
		 M231.3,461c0,0.9,0.3,2.8,1.6,2.8s1.6-1.9,1.6-2.8c0-0.9-0.3-2.8-1.6-2.8S231.3,460.1,231.3,461z"/>
</g>
<g>
	<path d="M313.4,430.4l0.5-0.8h1.5v6.8h-0.8v-6H313.4z"/>
	<path d="M322.4,434.7v0.7h-0.8v1h-0.8v-1h-3.3l4.2-6.1v5.3H322.4z M320.9,431.9L320.9,431.9l-1.9,2.8h1.9V431.9z"/>
	<path d="M323.8,430.4l0.5-0.8h1.5v6.8h-0.8v-6H323.8z"/>
	<path d="M331.6,430.4l0.5-0.8h1.5v6.8h-0.8v-6H331.6z"/>
	<path d="M335.9,433c0-1.4,0.6-3.5,2.4-3.5c1.8,0,2.4,2.1,2.4,3.5c0,1.4-0.6,3.5-2.4,3.5C336.5,436.6,335.9,434.4,335.9,433z
		 M336.7,433c0,0.9,0.3,2.8,1.6,2.8c1.2,0,1.6-1.9,1.6-2.8c0-0.9-0.3-2.8-1.6-2.8C337,430.2,336.7,432.1,336.7,433z"/>
	<path d="M342.2,436.1l1.8-2.4l0,0c-0.2,0.1-0.4,0.1-0.7,0.1c-1.1,0-2-1-2-2.1c0-1.2,1-2.2,2.2-2.2c1.2,0,2.3,1,2.3,2.2
		c0,0.7-0.3,1.3-0.7,1.8l-2.3,3.1L342.2,436.1z M345,431.7c0-0.7-0.6-1.4-1.4-1.4c-0.8,0-1.5,0.6-1.5,1.4c0,0.8,0.7,1.4,1.4,1.4
		C344.4,433.1,345,432.4,345,431.7z"/>
	<path d="M349.8,430.4l0.5-0.8h1.5v6.8h-0.8v-6H349.8z"/>
	<path d="M354.3,430.4v-0.8h4.9l-4.2,6.9l-0.7-0.4l3.5-5.8H354.3z"/>
	<path d="M361.7,430.4l-0.4,1.4l0.5,0c1.3,0,2.2,1.1,2.2,2.4c0,1.4-1.1,2.4-2.5,2.4c-0.8,0-1.7-0.4-2.1-1.2l0.6-0.6
		c0.2,0.6,0.9,1,1.5,1c0.9,0,1.6-0.8,1.6-1.7c0-0.9-0.7-1.6-1.6-1.6c-0.5,0-1,0.2-1.3,0.6h-0.2l1-3.5h2.7v0.8H361.7z"/>
	<path d="M314.9,444l-0.3,1.7h1.1l0.3-1.7h0.7l-0.3,1.7h0.8v0.7h-1l-0.2,1.4h0.9v0.7h-1.1l-0.3,1.9h-0.7l0.3-1.9h-1.1l-0.4,1.9H313
		l0.3-1.9h-0.9v-0.7h1l0.2-1.4h-0.9v-0.7h1.1l0.3-1.7H314.9z M314.2,447.8h1.1l0.2-1.4h-1.1L314.2,447.8z"/>
	<path d="M319,446.9c-0.6-0.3-0.9-0.9-0.9-1.5c0-1.1,0.9-1.9,1.9-1.9c1.1,0,1.9,0.8,1.9,1.9c0,0.7-0.3,1.2-0.9,1.5
		c0.7,0.2,1.1,0.9,1.1,1.6c0,1.3-1,2-2.1,2s-2.1-0.8-2.1-2C317.9,447.8,318.3,447.1,319,446.9z M318.7,448.5c0,0.7,0.6,1.3,1.3,1.3
		c0.7,0,1.3-0.6,1.3-1.3c0-0.7-0.6-1.3-1.3-1.3C319.4,447.3,318.7,447.8,318.7,448.5z M318.9,445.4c0,0.5,0.6,1.2,1.2,1.2
		c0.6,0,1.2-0.6,1.2-1.2c0-0.6-0.5-1.2-1.2-1.2C319.4,444.2,318.9,444.7,318.9,445.4z"/>
	<path d="M323.2,443.6h1.4c2.1,0,3.8,1.1,3.8,3.4c0,2.3-1.7,3.4-3.8,3.4h-1.4V443.6z M324.1,449.6h0.3c1.7,0,3.2-0.6,3.2-2.6
		c0-2-1.5-2.6-3.2-2.6h-0.3V449.6z"/>
	<path d="M332.7,443.9l-1.8,2.4l0,0c0.2-0.1,0.4-0.2,0.7-0.2c1.1,0,2,1,2,2.1c0,1.2-1,2.2-2.2,2.2c-1.2,0-2.3-1-2.3-2.2
		c0-0.7,0.3-1.3,0.7-1.8l2.3-3.1L332.7,443.9z M332.7,448.4c0-0.8-0.7-1.5-1.4-1.5c-0.7,0-1.4,0.7-1.4,1.4c0,0.8,0.7,1.4,1.4,1.4
		C332,449.8,332.7,449.2,332.7,448.4z"/>
	<path d="M334.4,443.6h1.4c2.1,0,3.8,1.1,3.8,3.4c0,2.3-1.7,3.4-3.8,3.4h-1.4V443.6z M335.3,449.6h0.3c1.7,0,3.2-0.6,3.2-2.6
		c0-2-1.5-2.6-3.2-2.6h-0.3V449.6z"/>
	<path d="M341.4,448.7l-0.8,1.7h-0.9l3.2-7.1l3.2,7.1h-0.9l-0.8-1.7H341.4z M343,445.2l-1.2,2.7h2.4L343,445.2z"/>
	<path d="M347.6,444.4v1.9h2.4v0.8h-2.4v3.3h-0.8v-6.8h3.3v0.8H347.6z"/>
	<path d="M317.2,462.7v0.7h-0.8v1h-0.8v-1h-3.3l4.2-6.1v5.3H317.2z M315.7,459.9L315.7,459.9l-1.9,2.8h1.9V459.9z"/>
	<path d="M318.8,464.1l1.8-2.4l0,0c-0.2,0.1-0.4,0.1-0.7,0.1c-1.1,0-2-1-2-2.1c0-1.2,1-2.2,2.2-2.2c1.2,0,2.3,1,2.3,2.2
		c0,0.7-0.3,1.3-0.7,1.8l-2.3,3.1L318.8,464.1z M321.6,459.7c0-0.7-0.6-1.4-1.4-1.4c-0.8,0-1.5,0.6-1.5,1.4c0,0.8,0.7,1.4,1.4,1.4
		C321,461.1,321.6,460.4,321.6,459.7z"/>
	<path d="M329.3,457.9l-1.8,2.4l0,0c0.2-0.1,0.4-0.2,0.7-0.2c1.1,0,2,1,2,2.1c0,1.2-1,2.2-2.2,2.2c-1.2,0-2.3-1-2.3-2.2
		c0-0.7,0.3-1.3,0.7-1.8l2.3-3.1L329.3,457.9z M329.3,462.4c0-0.8-0.7-1.5-1.4-1.5c-0.7,0-1.4,0.7-1.4,1.4c0,0.8,0.7,1.4,1.4,1.4
		C328.6,463.8,329.3,463.2,329.3,462.4z"/>
	<path d="M335.5,462.7v0.7h-0.8v1h-0.8v-1h-3.3l4.2-6.1v5.3H335.5z M333.9,459.9L333.9,459.9l-1.9,2.8h1.9V459.9z"/>
	<path d="M338.5,461c0-1.4,0.6-3.5,2.4-3.5c1.8,0,2.4,2.1,2.4,3.5c0,1.4-0.6,3.5-2.4,3.5C339.1,464.6,338.5,462.4,338.5,461z
		 M339.3,461c0,0.9,0.3,2.8,1.6,2.8s1.6-1.9,1.6-2.8c0-0.9-0.3-2.8-1.6-2.8S339.3,460.1,339.3,461z"/>
	<path d="M346.3,461c0-1.4,0.6-3.5,2.4-3.5c1.8,0,2.4,2.1,2.4,3.5c0,1.4-0.6,3.5-2.4,3.5C346.9,464.6,346.3,462.4,346.3,461z
		 M347.1,461c0,0.9,0.3,2.8,1.6,2.8s1.6-1.9,1.6-2.8c0-0.9-0.3-2.8-1.6-2.8S347.1,460.1,347.1,461z"/>
</g>
<g>
	<path d="M431.7,430.4l0.5-0.8h1.5v6.8h-0.8v-6H431.7z"/>
	<path d="M436.1,433c0-1.4,0.6-3.5,2.4-3.5c1.8,0,2.4,2.1,2.4,3.5c0,1.4-0.6,3.5-2.4,3.5C436.7,436.6,436.1,434.4,436.1,433z
		 M436.9,433c0,0.9,0.3,2.8,1.6,2.8c1.2,0,1.6-1.9,1.6-2.8c0-0.9-0.3-2.8-1.6-2.8C437.2,430.2,436.9,432.1,436.9,433z"/>
	<path d="M442.1,430.4l0.5-0.8h1.5v6.8h-0.8v-6H442.1z"/>
	<path d="M449.3,430.4v-0.8h4.9l-4.2,6.9l-0.7-0.4l3.5-5.8H449.3z"/>
	<path d="M455.1,430.4l0.5-0.8h1.5v6.8h-0.8v-6H455.1z"/>
	<path d="M462.9,430.4l0.5-0.8h1.5v6.8h-0.8v-6H462.9z"/>
	<path d="M469.5,432.5c0.7,0,1.3-0.3,1.3-1.1c0-0.7-0.5-1.2-1.2-1.2c-0.6,0-1,0.4-1.1,1h-0.8c0.2-1.1,0.9-1.7,2-1.7
		c1.1,0,2,0.7,2,1.8c0,0.7-0.3,1.2-0.9,1.5c0.7,0.3,1,1,1,1.7c0,1.3-1,2-2.2,2c-1.1,0-2-0.7-2.1-1.8h0.8c0.1,0.7,0.7,1.1,1.3,1.1
		c0.8,0,1.3-0.6,1.3-1.3c0-0.9-0.6-1.4-1.4-1.3V432.5z"/>
	<path d="M472.5,433c0-1.4,0.6-3.5,2.4-3.5c1.8,0,2.4,2.1,2.4,3.5c0,1.4-0.6,3.5-2.4,3.5C473.1,436.6,472.5,434.4,472.5,433z
		 M473.3,433c0,0.9,0.3,2.8,1.6,2.8c1.2,0,1.6-1.9,1.6-2.8c0-0.9-0.3-2.8-1.6-2.8C473.6,430.2,473.3,432.1,473.3,433z"/>
	<path d="M433.3,444l-0.3,1.7h1.1l0.3-1.7h0.7l-0.3,1.7h0.8v0.7h-1l-0.2,1.4h0.9v0.7h-1.1l-0.3,1.9h-0.7l0.3-1.9h-1.1l-0.4,1.9h-0.7
		l0.3-1.9h-0.9v-0.7h1l0.2-1.4h-0.9v-0.7h1.1l0.3-1.7H433.3z M432.6,447.8h1.1l0.2-1.4h-1.1L432.6,447.8z"/>
	<path d="M439.8,443.9l-1.8,2.4l0,0c0.2-0.1,0.4-0.2,0.7-0.2c1.1,0,2,1,2,2.1c0,1.2-1,2.2-2.2,2.2c-1.2,0-2.3-1-2.3-2.2
		c0-0.7,0.3-1.3,0.7-1.8l2.3-3.1L439.8,443.9z M439.9,448.4c0-0.8-0.7-1.5-1.4-1.5c-0.7,0-1.4,0.7-1.4,1.4c0,0.8,0.7,1.4,1.4,1.4
		C439.2,449.8,439.9,449.2,439.9,448.4z"/>
	<path d="M443.6,444.4l-0.4,1.4l0.5,0c1.3,0,2.2,1.1,2.2,2.4c0,1.4-1.1,2.4-2.5,2.4c-0.8,0-1.7-0.4-2.1-1.2l0.6-0.6
		c0.2,0.6,0.9,1,1.5,1c0.9,0,1.6-0.8,1.6-1.7c0-0.9-0.7-1.6-1.6-1.6c-0.5,0-1,0.2-1.3,0.6H442l1-3.5h2.7v0.8H443.6z"/>
	<path d="M451.2,448.7v0.7h-0.8v1h-0.8v-1h-3.3l4.2-6.1v5.3H451.2z M449.6,445.9L449.6,445.9l-1.9,2.8h1.9V445.9z"/>
	<path d="M451.9,444.4v-0.8h4.9l-4.2,6.9l-0.7-0.4l3.5-5.8H451.9z"/>
	<path d="M458.2,446.9c-0.6-0.3-0.9-0.9-0.9-1.5c0-1.1,0.9-1.9,1.9-1.9c1.1,0,1.9,0.8,1.9,1.9c0,0.7-0.3,1.2-0.9,1.5
		c0.7,0.2,1.1,0.9,1.1,1.6c0,1.3-1,2-2.1,2s-2.1-0.8-2.1-2C457.1,447.8,457.5,447.1,458.2,446.9z M457.9,448.5
		c0,0.7,0.6,1.3,1.3,1.3c0.7,0,1.3-0.6,1.3-1.3c0-0.7-0.6-1.3-1.3-1.3C458.5,447.3,457.9,447.8,457.9,448.5z M458.1,445.4
		c0,0.5,0.6,1.2,1.2,1.2c0.6,0,1.2-0.6,1.2-1.2c0-0.6-0.5-1.2-1.2-1.2C458.6,444.2,458.1,444.7,458.1,445.4z"/>
	<path d="M466.6,449.6v0.8h-4.4l3-3.6c0.3-0.3,0.6-0.8,0.6-1.2c0-0.7-0.6-1.3-1.3-1.3c-0.7,0-1.3,0.6-1.3,1.2h-0.8
		c0.1-1.2,0.9-2,2.2-2c1.2,0,2.1,0.9,2.1,2c0,0.5-0.2,1-0.5,1.4l-2.2,2.7H466.6z"/>
	<path d="M431,458.4v-0.8h4.9l-4.2,6.9l-0.7-0.4l3.5-5.8H431z"/>
	<path d="M436.9,458.4l0.5-0.8h1.5v6.8h-0.8v-6H436.9z"/>
	<path d="M445.2,460.9c-0.6-0.3-0.9-0.9-0.9-1.5c0-1.1,0.9-1.9,1.9-1.9s1.9,0.8,1.9,1.9c0,0.7-0.3,1.2-0.9,1.5
		c0.7,0.2,1.1,0.9,1.1,1.6c0,1.3-1,2-2.1,2s-2.1-0.8-2.1-2C444.1,461.8,444.5,461.1,445.2,460.9z M444.9,462.5
		c0,0.7,0.6,1.3,1.3,1.3s1.3-0.6,1.3-1.3c0-0.7-0.6-1.3-1.3-1.3S444.9,461.8,444.9,462.5z M445.1,459.4c0,0.5,0.6,1.2,1.2,1.2
		s1.2-0.6,1.2-1.2c0-0.6-0.5-1.2-1.2-1.2S445.1,458.7,445.1,459.4z"/>
	<path d="M451.3,460.5c0.7,0,1.3-0.3,1.3-1.1c0-0.7-0.5-1.2-1.2-1.2c-0.6,0-1,0.4-1.1,1h-0.8c0.2-1.1,0.9-1.7,2-1.7
		c1.1,0,2,0.7,2,1.8c0,0.7-0.3,1.2-0.9,1.5c0.7,0.3,1,1,1,1.7c0,1.3-1,2-2.2,2c-1.1,0-2-0.7-2.1-1.8h0.8c0.1,0.7,0.7,1.1,1.3,1.1
		c0.8,0,1.3-0.6,1.3-1.3c0-0.9-0.6-1.4-1.4-1.3V460.5z"/>
	<path d="M461.4,463.6v0.8H457l3-3.6c0.3-0.3,0.6-0.8,0.6-1.2c0-0.7-0.6-1.3-1.3-1.3c-0.7,0-1.3,0.6-1.3,1.2h-0.8
		c0.1-1.2,0.9-2,2.2-2c1.2,0,2.1,0.9,2.1,2c0,0.5-0.2,1-0.5,1.4l-2.2,2.7H461.4z"/>
	<path d="M462.1,461c0-1.4,0.6-3.5,2.4-3.5c1.8,0,2.4,2.1,2.4,3.5c0,1.4-0.6,3.5-2.4,3.5C462.7,464.6,462.1,462.4,462.1,461z
		 M462.9,461c0,0.9,0.3,2.8,1.6,2.8c1.2,0,1.6-1.9,1.6-2.8c0-0.9-0.3-2.8-1.6-2.8C463.2,458.2,462.9,460.1,462.9,461z"/>
	<path d="M472.3,458.4l-0.4,1.4l0.5,0c1.3,0,2.2,1.1,2.2,2.4c0,1.4-1.1,2.4-2.5,2.4c-0.8,0-1.7-0.4-2.1-1.2l0.6-0.6
		c0.2,0.6,0.9,1,1.5,1c0.9,0,1.6-0.8,1.6-1.7c0-0.9-0.7-1.6-1.6-1.6c-0.5,0-1,0.2-1.3,0.6h-0.2l1-3.5h2.7v0.8H472.3z"/>
</g>
<g>
	<path d="M548.6,435.6v0.8h-4.4l3-3.6c0.3-0.3,0.6-0.8,0.6-1.2c0-0.7-0.6-1.3-1.3-1.3c-0.7,0-1.3,0.6-1.3,1.2h-0.8
		c0.1-1.2,0.9-2,2.2-2c1.2,0,2.1,0.9,2.1,2c0,0.5-0.2,1-0.5,1.4l-2.2,2.7H548.6z"/>
	<path d="M553.8,435.6v0.8h-4.4l3-3.6c0.3-0.3,0.6-0.8,0.6-1.2c0-0.7-0.6-1.3-1.3-1.3c-0.7,0-1.3,0.6-1.3,1.2h-0.8
		c0.1-1.2,0.9-2,2.2-2c1.2,0,2.1,0.9,2.1,2c0,0.5-0.2,1-0.5,1.4l-2.2,2.7H553.8z"/>
	<path d="M559,435.6v0.8h-4.4l3-3.6c0.3-0.3,0.6-0.8,0.6-1.2c0-0.7-0.6-1.3-1.3-1.3c-0.7,0-1.3,0.6-1.3,1.2h-0.8
		c0.1-1.2,0.9-2,2.2-2c1.2,0,2.1,0.9,2.1,2c0,0.5-0.2,1-0.5,1.4l-2.2,2.7H559z"/>
	<path d="M563.1,430.4l0.5-0.8h1.5v6.8h-0.8v-6H563.1z"/>
	<path d="M572,435.6v0.8h-4.4l3-3.6c0.3-0.3,0.6-0.8,0.6-1.2c0-0.7-0.6-1.3-1.3-1.3c-0.7,0-1.3,0.6-1.3,1.2h-0.8
		c0.1-1.2,0.9-2,2.2-2c1.2,0,2.1,0.9,2.1,2c0,0.5-0.2,1-0.5,1.4l-2.2,2.7H572z"/>
	<path d="M572.8,430.4v-0.8h4.9l-4.2,6.9l-0.7-0.4l3.5-5.8H572.8z"/>
	<path d="M581.3,430.4l0.5-0.8h1.5v6.8h-0.8v-6H581.3z"/>
	<path d="M589.4,429.9l-1.8,2.4l0,0c0.2-0.1,0.4-0.2,0.7-0.2c1.1,0,2,1,2,2.1c0,1.2-1,2.2-2.2,2.2c-1.2,0-2.3-1-2.3-2.2
		c0-0.7,0.3-1.3,0.7-1.8l2.3-3.1L589.4,429.9z M589.5,434.4c0-0.8-0.7-1.5-1.4-1.5c-0.7,0-1.4,0.7-1.4,1.4c0,0.8,0.7,1.4,1.4,1.4
		C588.8,435.8,589.5,435.2,589.5,434.4z"/>
	<path d="M590.8,433c0-1.4,0.6-3.5,2.4-3.5c1.8,0,2.4,2.1,2.4,3.5c0,1.4-0.6,3.5-2.4,3.5C591.5,436.6,590.8,434.4,590.8,433z
		 M591.7,433c0,0.9,0.3,2.8,1.6,2.8c1.2,0,1.6-1.9,1.6-2.8c0-0.9-0.3-2.8-1.6-2.8C592,430.2,591.7,432.1,591.7,433z"/>
	<path d="M546.4,444l-0.3,1.7h1.1l0.3-1.7h0.7l-0.3,1.7h0.8v0.7h-1l-0.2,1.4h0.9v0.7h-1.1l-0.3,1.9h-0.7l0.3-1.9h-1.1l-0.4,1.9h-0.7
		l0.3-1.9H544v-0.7h1l0.2-1.4h-0.9v-0.7h1.1l0.3-1.7H546.4z M545.8,447.8h1.1l0.2-1.4H546L545.8,447.8z"/>
	<path d="M549.6,443.6h1.4c2.1,0,3.8,1.1,3.8,3.4c0,2.3-1.7,3.4-3.8,3.4h-1.4V443.6z M550.4,449.6h0.3c1.7,0,3.2-0.6,3.2-2.6
		c0-2-1.5-2.6-3.2-2.6h-0.3V449.6z"/>
	<path d="M555.6,443.6h3.6v0.8h-2.8v1.9h2.7v0.8h-2.7v2.6h2.8v0.8h-3.6V443.6z"/>
	<path d="M560.1,444.4v-0.8h4.9l-4.2,6.9l-0.7-0.4l3.5-5.8H560.1z"/>
	<path d="M566.4,444.4v1.9h2.4v0.8h-2.4v3.3h-0.8v-6.8h3.3v0.8H566.4z"/>
	<path d="M570.2,448.7l-0.8,1.7h-0.9l3.2-7.1l3.2,7.1h-0.9l-0.8-1.7H570.2z M571.8,445.2l-1.2,2.7h2.4L571.8,445.2z"/>
	<path d="M575.2,447c0-1.4,0.6-3.5,2.4-3.5c1.8,0,2.4,2.1,2.4,3.5c0,1.4-0.6,3.5-2.4,3.5C575.8,450.6,575.2,448.4,575.2,447z
		 M576,447c0,0.9,0.3,2.8,1.6,2.8c1.2,0,1.6-1.9,1.6-2.8c0-0.9-0.3-2.8-1.6-2.8C576.3,444.2,576,446.1,576,447z"/>
	<path d="M545.1,464.1l1.8-2.4l0,0c-0.2,0.1-0.4,0.1-0.7,0.1c-1.1,0-2-1-2-2.1c0-1.2,1-2.2,2.2-2.2c1.2,0,2.3,1,2.3,2.2
		c0,0.7-0.3,1.3-0.7,1.8l-2.3,3.1L545.1,464.1z M548,459.7c0-0.7-0.6-1.4-1.4-1.4c-0.8,0-1.5,0.6-1.5,1.4c0,0.8,0.7,1.4,1.4,1.4
		C547.4,461.1,548,460.4,548,459.7z"/>
	<path d="M555.6,457.9l-1.8,2.4l0,0c0.2-0.1,0.4-0.2,0.7-0.2c1.1,0,2,1,2,2.1c0,1.2-1,2.2-2.2,2.2c-1.2,0-2.3-1-2.3-2.2
		c0-0.7,0.3-1.3,0.7-1.8l2.3-3.1L555.6,457.9z M555.6,462.4c0-0.8-0.7-1.5-1.4-1.5c-0.7,0-1.4,0.7-1.4,1.4c0,0.8,0.7,1.4,1.4,1.4
		C555,463.8,555.6,463.2,555.6,462.4z"/>
	<path d="M561.6,463.6v0.8h-4.4l3-3.6c0.3-0.3,0.6-0.8,0.6-1.2c0-0.7-0.6-1.3-1.3-1.3c-0.7,0-1.3,0.6-1.3,1.2h-0.8
		c0.1-1.2,0.9-2,2.2-2c1.2,0,2.1,0.9,2.1,2c0,0.5-0.2,1-0.5,1.4l-2.2,2.7H561.6z"/>
	<path d="M565.7,458.4l0.5-0.8h1.5v6.8h-0.8v-6H565.7z"/>
	<path d="M572.4,458.4l-0.4,1.4l0.5,0c1.3,0,2.2,1.1,2.2,2.4c0,1.4-1.1,2.4-2.5,2.4c-0.8,0-1.7-0.4-2.1-1.2l0.6-0.6
		c0.2,0.6,0.9,1,1.5,1c0.9,0,1.6-0.8,1.6-1.7c0-0.9-0.7-1.6-1.6-1.6c-0.5,0-1,0.2-1.3,0.6h-0.2l1-3.5h2.7v0.8H572.4z"/>
	<path d="M577.8,461c0-1.4,0.6-3.5,2.4-3.5c1.8,0,2.4,2.1,2.4,3.5c0,1.4-0.6,3.5-2.4,3.5C578.5,464.6,577.8,462.4,577.8,461z
		 M578.7,461c0,0.9,0.3,2.8,1.6,2.8c1.2,0,1.6-1.9,1.6-2.8c0-0.9-0.3-2.8-1.6-2.8C579,458.2,578.7,460.1,578.7,461z"/>
</g>
<g>
	<path d="M665.7,435.6v0.8h-4.4l3-3.6c0.3-0.3,0.6-0.8,0.6-1.2c0-0.7-0.6-1.3-1.3-1.3c-0.7,0-1.3,0.6-1.3,1.2h-0.8
		c0.1-1.2,0.9-2,2.2-2c1.2,0,2.1,0.9,2.1,2c0,0.5-0.2,1-0.5,1.4l-2.2,2.7H665.7z"/>
	<path d="M666.3,433c0-1.4,0.6-3.5,2.4-3.5c1.8,0,2.4,2.1,2.4,3.5c0,1.4-0.6,3.5-2.4,3.5C666.9,436.6,666.3,434.4,666.3,433z
		 M667.1,433c0,0.9,0.3,2.8,1.6,2.8c1.2,0,1.6-1.9,1.6-2.8c0-0.9-0.3-2.8-1.6-2.8C667.5,430.2,667.1,432.1,667.1,433z"/>
	<path d="M672.4,430.4l0.5-0.8h1.5v6.8h-0.8v-6H672.4z"/>
	<path d="M680.4,436.1l1.8-2.4l0,0c-0.2,0.1-0.4,0.1-0.7,0.1c-1.1,0-2-1-2-2.1c0-1.2,1-2.2,2.2-2.2c1.2,0,2.3,1,2.3,2.2
		c0,0.7-0.3,1.3-0.7,1.8l-2.3,3.1L680.4,436.1z M683.2,431.7c0-0.7-0.6-1.4-1.4-1.4c-0.8,0-1.5,0.6-1.5,1.4c0,0.8,0.7,1.4,1.4,1.4
		C682.7,433.1,683.2,432.4,683.2,431.7z"/>
	<path d="M685.6,436.1l1.8-2.4l0,0c-0.2,0.1-0.4,0.1-0.7,0.1c-1.1,0-2-1-2-2.1c0-1.2,1-2.2,2.2-2.2c1.2,0,2.3,1,2.3,2.2
		c0,0.7-0.3,1.3-0.7,1.8l-2.3,3.1L685.6,436.1z M688.4,431.7c0-0.7-0.6-1.4-1.4-1.4c-0.8,0-1.5,0.6-1.5,1.4c0,0.8,0.7,1.4,1.4,1.4
		C687.9,433.1,688.4,432.4,688.4,431.7z"/>
	<path d="M693.2,430.4l0.5-0.8h1.5v6.8h-0.8v-6H693.2z"/>
	<path d="M699.8,432.5c0.7,0,1.3-0.3,1.3-1.1c0-0.7-0.5-1.2-1.2-1.2c-0.6,0-1,0.4-1.1,1h-0.8c0.2-1.1,0.9-1.7,2-1.7
		c1.1,0,2,0.7,2,1.8c0,0.7-0.3,1.2-0.9,1.5c0.7,0.3,1,1,1,1.7c0,1.3-1,2-2.2,2c-1.1,0-2-0.7-2.1-1.8h0.8c0.1,0.7,0.7,1.1,1.3,1.1
		c0.8,0,1.3-0.6,1.3-1.3c0-0.9-0.6-1.4-1.4-1.3V432.5z"/>
	<path d="M707.5,434.7v0.7h-0.8v1h-0.8v-1h-3.3l4.2-6.1v5.3H707.5z M705.9,431.9L705.9,431.9l-1.9,2.8h1.9V431.9z"/>
	<path d="M663.5,444l-0.3,1.7h1.1l0.3-1.7h0.7l-0.3,1.7h0.8v0.7h-1l-0.2,1.4h0.9v0.7h-1.1l-0.3,1.9h-0.7l0.3-1.9h-1.1l-0.4,1.9h-0.7
		l0.3-1.9h-0.9v-0.7h1l0.2-1.4h-0.9v-0.7h1.1l0.3-1.7H663.5z M662.8,447.8h1.1l0.2-1.4h-1.1L662.8,447.8z"/>
	<path d="M671.7,444.9c-0.5-0.4-1.2-0.7-1.8-0.7c-1.5,0-2.7,1.3-2.7,2.8c0,1.5,1.2,2.8,2.7,2.8c0.7,0,1.3-0.3,1.8-0.7v1
		c-0.5,0.3-1.2,0.5-1.8,0.5c-1.9,0-3.5-1.5-3.5-3.5c0-2,1.6-3.6,3.6-3.6c0.6,0,1.2,0.1,1.7,0.5V444.9z"/>
	<path d="M673.3,450.1l1.8-2.4l0,0c-0.2,0.1-0.4,0.1-0.7,0.1c-1.1,0-2-1-2-2.1c0-1.2,1-2.2,2.2-2.2c1.2,0,2.3,1,2.3,2.2
		c0,0.7-0.3,1.3-0.7,1.8l-2.3,3.1L673.3,450.1z M676.2,445.7c0-0.7-0.6-1.4-1.4-1.4c-0.8,0-1.5,0.6-1.5,1.4c0,0.8,0.7,1.4,1.4,1.4
		C675.6,447.1,676.2,446.4,676.2,445.7z"/>
	<path d="M681.2,443.9l-1.8,2.4l0,0c0.2-0.1,0.4-0.2,0.7-0.2c1.1,0,2,1,2,2.1c0,1.2-1,2.2-2.2,2.2c-1.2,0-2.3-1-2.3-2.2
		c0-0.7,0.3-1.3,0.7-1.8l2.3-3.1L681.2,443.9z M681.3,448.4c0-0.8-0.7-1.5-1.4-1.5c-0.7,0-1.4,0.7-1.4,1.4c0,0.8,0.7,1.4,1.4,1.4
		C680.6,449.8,681.3,449.2,681.3,448.4z"/>
	<path d="M684.9,446.5c0.7,0,1.3-0.3,1.3-1.1c0-0.7-0.5-1.2-1.2-1.2c-0.6,0-1,0.4-1.1,1h-0.8c0.2-1.1,0.9-1.7,2-1.7
		c1.1,0,2,0.7,2,1.8c0,0.7-0.3,1.2-0.9,1.5c0.7,0.3,1,1,1,1.7c0,1.3-1,2-2.2,2c-1.1,0-2-0.7-2.1-1.8h0.8c0.1,0.7,0.7,1.1,1.3,1.1
		c0.8,0,1.3-0.6,1.3-1.3c0-0.9-0.6-1.4-1.4-1.3V446.5z"/>
	<path d="M689.2,446.9c-0.6-0.3-0.9-0.9-0.9-1.5c0-1.1,0.9-1.9,1.9-1.9c1.1,0,1.9,0.8,1.9,1.9c0,0.7-0.3,1.2-0.9,1.5
		c0.7,0.2,1.1,0.9,1.1,1.6c0,1.3-1,2-2.1,2s-2.1-0.8-2.1-2C688.1,447.8,688.5,447.1,689.2,446.9z M688.9,448.5
		c0,0.7,0.6,1.3,1.3,1.3c0.7,0,1.3-0.6,1.3-1.3c0-0.7-0.6-1.3-1.3-1.3C689.5,447.3,688.9,447.8,688.9,448.5z M689.1,445.4
		c0,0.5,0.6,1.2,1.2,1.2c0.6,0,1.2-0.6,1.2-1.2c0-0.6-0.5-1.2-1.2-1.2C689.6,444.2,689.1,444.7,689.1,445.4z"/>
	<path d="M696.9,443.9l-1.8,2.4l0,0c0.2-0.1,0.4-0.2,0.7-0.2c1.1,0,2,1,2,2.1c0,1.2-1,2.2-2.2,2.2c-1.2,0-2.3-1-2.3-2.2
		c0-0.7,0.3-1.3,0.7-1.8l2.3-3.1L696.9,443.9z M696.9,448.4c0-0.8-0.7-1.5-1.4-1.5c-0.7,0-1.4,0.7-1.4,1.4c0,0.8,0.7,1.4,1.4,1.4
		C696.2,449.8,696.9,449.2,696.9,448.4z"/>
	<path d="M665.7,463.6v0.8h-4.4l3-3.6c0.3-0.3,0.6-0.8,0.6-1.2c0-0.7-0.6-1.3-1.3-1.3c-0.7,0-1.3,0.6-1.3,1.2h-0.8
		c0.1-1.2,0.9-2,2.2-2c1.2,0,2.1,0.9,2.1,2c0,0.5-0.2,1-0.5,1.4l-2.2,2.7H665.7z"/>
	<path d="M666.3,461c0-1.4,0.6-3.5,2.4-3.5c1.8,0,2.4,2.1,2.4,3.5c0,1.4-0.6,3.5-2.4,3.5C666.9,464.6,666.3,462.4,666.3,461z
		 M667.1,461c0,0.9,0.3,2.8,1.6,2.8c1.2,0,1.6-1.9,1.6-2.8c0-0.9-0.3-2.8-1.6-2.8C667.5,458.2,667.1,460.1,667.1,461z"/>
	<path d="M674.3,458.4v-0.8h4.9l-4.2,6.9l-0.7-0.4l3.5-5.8H674.3z"/>
	<path d="M684.1,462.7v0.7h-0.8v1h-0.8v-1h-3.3l4.2-6.1v5.3H684.1z M682.5,459.9L682.5,459.9l-1.9,2.8h1.9V459.9z"/>
	<path d="M691.7,463.6v0.8h-4.4l3-3.6c0.3-0.3,0.6-0.8,0.6-1.2c0-0.7-0.6-1.3-1.3-1.3c-0.7,0-1.3,0.6-1.3,1.2h-0.8
		c0.1-1.2,0.9-2,2.2-2c1.2,0,2.1,0.9,2.1,2c0,0.5-0.2,1-0.5,1.4l-2.2,2.7H691.7z"/>
	<path d="M692.5,458.4v-0.8h4.9l-4.2,6.9l-0.7-0.4l3.5-5.8H692.5z"/>
	<path d="M700.1,461c0-1.4,0.6-3.5,2.4-3.5c1.8,0,2.4,2.1,2.4,3.5c0,1.4-0.6,3.5-2.4,3.5C700.7,464.6,700.1,462.4,700.1,461z
		 M700.9,461c0,0.9,0.3,2.8,1.6,2.8c1.2,0,1.6-1.9,1.6-2.8c0-0.9-0.3-2.8-1.6-2.8C701.3,458.2,700.9,460.1,700.9,461z"/>
</g>
<g>
	<path d="M104.3,143.3l2.6-4.3h8.5v37.7h-4.5v-33.4H104.3z"/>
</g>
<g>
	<path class="st1" d="M115.6,382v3.3h-3.4v4.4h-3.6v-4.4H93.7l18.5-27V382H115.6z M108.6,369.6L108.6,369.6L100,382h8.6V369.6z"/>
</g>
<g>
	<path class="st1" d="M220.7,363l-1.9,6.2l2.1-0.1c5.8,0,9.7,5,9.7,10.6c0,6.4-5,10.7-11.2,10.7c-3.7,0-7.4-2-9.2-5.3l2.8-2.6
		c0.9,2.6,4,4.5,6.7,4.5c4.1,0,7.3-3.4,7.3-7.4c0-3.9-3.3-7.2-7.2-7.2c-2.1,0-4.3,1-5.6,2.7h-0.7l4.6-15.5h12.1v3.4H220.7z"/>
</g>
<g>
	<path class="st1" d="M342.5,360.7l-8,10.9l0.1,0.1c0.9-0.4,1.9-0.7,3-0.7c5,0,8.7,4.6,8.7,9.4c0,5.5-4.5,9.9-10,9.9
		c-5.2,0-10-4.3-10-9.6c0-3,1.5-5.6,3.3-8l10.3-13.8L342.5,360.7z M342.6,380.8c0-3.8-3.2-6.5-6.4-6.5c-3.3,0-6.4,3-6.4,6.3
		c0,3.5,3,6.4,6.4,6.4C339.6,387,342.6,384.2,342.6,380.8z"/>
</g>
<g>
	<path class="st1" d="M441.8,363v-3.4h21.7l-18.8,30.8l-2.9-1.8l15.6-25.6H441.8z"/>
</g>
<g>
	<path class="st1" d="M562.7,374.1c-2.5-1.4-4-3.8-4-6.8c0-4.9,3.8-8.4,8.6-8.4c4.8,0,8.6,3.5,8.6,8.4c0,3-1.5,5.4-4,6.8
		c3.1,1.1,4.8,4,4.8,7.2c0,5.6-4.3,9-9.4,9s-9.4-3.4-9.4-9C558,378.1,559.6,375.1,562.7,374.1z M561.6,381.3c0,3,2.9,5.7,5.8,5.7
		c3,0,5.8-2.6,5.8-5.7c0-3.2-2.8-5.7-5.8-5.7C564.4,375.6,561.6,378.1,561.6,381.3z M562.3,367.3c0,2.4,2.6,5.1,5.1,5.1
		s5.1-2.7,5.1-5.1c0-2.9-2.4-5.2-5.1-5.2S562.3,364.4,562.3,367.3z"/>
</g>
<g>
	<path class="st1" d="M677.2,388.5l8-10.8l-0.1-0.1c-0.9,0.4-1.9,0.6-2.9,0.6c-5,0-8.8-4.5-8.8-9.3c0-5.5,4.5-9.9,10-9.9
		c5.2,0,10,4.3,10,9.6c0,3-1.5,5.6-3.3,8L680,390.3L677.2,388.5z M689.9,368.6c0-3.2-2.9-6.3-6.2-6.3c-3.6,0-6.6,2.9-6.6,6.3
		c0,3.6,3.3,6.3,6.4,6.3C687.4,374.9,689.9,371.9,689.9,368.6z"/>
</g>
<g>
	<path d="M360.1,172.4v4.3h-24.4l16.5-20.3c1.6-1.9,3.4-4.2,3.4-6.8c0-4-3.5-7.2-7.4-7.2c-3.9,0-7,3.1-7.2,6.9h-4.7
		c0.8-6.7,5.1-11.2,12-11.2c6.4,0,11.9,4.8,11.9,11.3c0,2.8-1,5.6-2.8,7.8l-12.4,15.2H360.1z"/>
</g>
<g>
	<path class="st1" d="M582.6,154.8c4.1,0,7.4-1.5,7.4-6.1c0-3.8-2.8-6.5-6.5-6.5c-3.4,0-5.8,2.1-6.3,5.4h-4.7
		c0.9-6.2,4.9-9.5,11.1-9.5c6,0,10.9,3.9,10.9,10.2c0,3.7-1.6,6.7-4.8,8.5c3.7,1.8,5.4,5.3,5.4,9.4c0,7.1-5.3,11.3-12.1,11.3
		c-5.9,0-11.2-3.9-11.5-10.1h4.5c0.5,3.7,3.7,6,7.3,6c4.2,0,7.2-3.3,7.2-7.4c0-4.8-3.3-7.7-8-7.3V154.8z"/>
</g>
<g>
	<path d="M400.3,145.9v0.8h-4.4l3-3.6c0.3-0.3,0.6-0.8,0.6-1.2c0-0.7-0.6-1.3-1.3-1.3c-0.7,0-1.3,0.6-1.3,1.2H396
		c0.1-1.2,0.9-2,2.2-2c1.2,0,2.1,0.9,2.1,2c0,0.5-0.2,1-0.5,1.4l-2.2,2.7H400.3z"/>
	<path d="M403.2,142.7c0.7,0,1.3-0.3,1.3-1.1c0-0.7-0.5-1.2-1.2-1.2c-0.6,0-1,0.4-1.1,1h-0.8c0.2-1.1,0.9-1.7,2-1.7
		c1.1,0,2,0.7,2,1.8c0,0.7-0.3,1.2-0.9,1.5c0.7,0.3,1,1,1,1.7c0,1.3-1,2-2.2,2c-1.1,0-2-0.7-2.1-1.8h0.8c0.1,0.7,0.7,1.1,1.3,1.1
		c0.8,0,1.3-0.6,1.3-1.3c0-0.9-0.6-1.4-1.4-1.3V142.7z"/>
	<path d="M408.4,142.7c0.7,0,1.3-0.3,1.3-1.1c0-0.7-0.5-1.2-1.2-1.2c-0.6,0-1,0.4-1.1,1h-0.8c0.2-1.1,0.9-1.7,2-1.7
		c1.1,0,2,0.7,2,1.8c0,0.7-0.3,1.2-0.9,1.5c0.7,0.3,1,1,1,1.7c0,1.3-1,2-2.2,2c-1.1,0-2-0.7-2.1-1.8h0.8c0.1,0.7,0.7,1.1,1.3,1.1
		c0.8,0,1.3-0.6,1.3-1.3c0-0.9-0.6-1.4-1.4-1.3V142.7z"/>
	<path d="M418.5,145.9v0.8h-4.4l3-3.6c0.3-0.3,0.6-0.8,0.6-1.2c0-0.7-0.6-1.3-1.3-1.3c-0.7,0-1.3,0.6-1.3,1.2h-0.8
		c0.1-1.2,0.9-2,2.2-2c1.2,0,2.1,0.9,2.1,2c0,0.5-0.2,1-0.5,1.4l-2.2,2.7H418.5z"/>
	<path d="M420,140.7l0.5-0.8h1.5v6.8h-0.8v-6H420z"/>
	<path d="M429.1,145v0.7h-0.8v1h-0.8v-1h-3.3l4.2-6.1v5.3H429.1z M427.5,142.2L427.5,142.2l-1.9,2.8h1.9V142.2z"/>
	<path d="M432.3,140.7v-0.8h4.9l-4.2,6.9l-0.7-0.4l3.5-5.8H432.3z"/>
	<path d="M441.9,145.9v0.8h-4.4l3-3.6c0.3-0.3,0.6-0.8,0.6-1.2c0-0.7-0.6-1.3-1.3-1.3c-0.7,0-1.3,0.6-1.3,1.2h-0.8
		c0.1-1.2,0.9-2,2.2-2c1.2,0,2.1,0.9,2.1,2c0,0.5-0.2,1-0.5,1.4l-2.2,2.7H441.9z"/>
	<path d="M398.2,154.2l-0.3,1.7h1.1l0.3-1.7h0.7l-0.3,1.7h0.8v0.7h-1l-0.2,1.4h0.9v0.7h-1.1l-0.3,1.9h-0.7l0.3-1.9h-1.1l-0.4,1.9
		h-0.7l0.3-1.9h-0.9v-0.7h1l0.2-1.4h-0.9V156h1.1l0.3-1.7H398.2z M397.5,158.1h1.1l0.2-1.4h-1.1L397.5,158.1z"/>
	<path d="M401.4,153.9h3.6v0.8h-2.8v1.9h2.7v0.8h-2.7v2.6h2.8v0.8h-3.6V153.9z"/>
	<path d="M406.7,160.4l1.8-2.4l0,0c-0.2,0.1-0.4,0.1-0.7,0.1c-1.1,0-2-1-2-2.1c0-1.2,1-2.2,2.2-2.2c1.2,0,2.3,1,2.3,2.2
		c0,0.7-0.3,1.3-0.7,1.8l-2.3,3.1L406.7,160.4z M409.6,155.9c0-0.7-0.6-1.4-1.4-1.4c-0.8,0-1.5,0.6-1.5,1.4c0,0.8,0.7,1.4,1.4,1.4
		C409,157.4,409.6,156.7,409.6,155.9z"/>
	<path d="M411.2,153.9h1.4c2.1,0,3.8,1.1,3.8,3.4c0,2.3-1.7,3.4-3.8,3.4h-1.4V153.9z M412,159.9h0.3c1.7,0,3.2-0.6,3.2-2.6
		c0-2-1.5-2.6-3.2-2.6H412V159.9z"/>
	<path d="M420.6,154.2l-1.8,2.4l0,0c0.2-0.1,0.4-0.2,0.7-0.2c1.1,0,2,1,2,2.1c0,1.2-1,2.2-2.2,2.2c-1.2,0-2.3-1-2.3-2.2
		c0-0.7,0.3-1.3,0.7-1.8l2.3-3.1L420.6,154.2z M420.6,158.7c0-0.8-0.7-1.5-1.4-1.5c-0.7,0-1.4,0.7-1.4,1.4c0,0.8,0.7,1.4,1.4,1.4
		C420,160.1,420.6,159.4,420.6,158.7z"/>
	<path d="M426.8,159v0.7H426v1h-0.8v-1h-3.3l4.2-6.1v5.3H426.8z M425.2,156.2L425.2,156.2l-1.9,2.8h1.9V156.2z"/>
	<path d="M428.5,157.2c-0.6-0.3-0.9-0.9-0.9-1.5c0-1.1,0.9-1.9,1.9-1.9c1.1,0,1.9,0.8,1.9,1.9c0,0.7-0.3,1.2-0.9,1.5
		c0.7,0.2,1.1,0.9,1.1,1.6c0,1.3-1,2-2.1,2s-2.1-0.8-2.1-2C427.5,158.1,427.8,157.4,428.5,157.2z M428.3,158.8
		c0,0.7,0.6,1.3,1.3,1.3c0.7,0,1.3-0.6,1.3-1.3c0-0.7-0.6-1.3-1.3-1.3C428.9,157.5,428.3,158.1,428.3,158.8z M428.4,155.6
		c0,0.5,0.6,1.2,1.2,1.2c0.6,0,1.2-0.6,1.2-1.2c0-0.6-0.5-1.2-1.2-1.2C429,154.5,428.4,155,428.4,155.6z"/>
	<path d="M396.6,168.7l0.5-0.8h1.5v6.8h-0.8v-6H396.6z"/>
	<path d="M401.8,168.7l0.5-0.8h1.5v6.8H403v-6H401.8z"/>
	<path d="M409.8,174.4l1.8-2.4l0,0c-0.2,0.1-0.4,0.1-0.7,0.1c-1.1,0-2-1-2-2.1c0-1.2,1-2.2,2.2-2.2c1.2,0,2.3,1,2.3,2.2
		c0,0.7-0.3,1.3-0.7,1.8l-2.3,3.1L409.8,174.4z M412.7,169.9c0-0.7-0.6-1.4-1.4-1.4c-0.8,0-1.5,0.6-1.5,1.4c0,0.8,0.7,1.4,1.4,1.4
		C412.1,171.4,412.7,170.7,412.7,169.9z"/>
	<path d="M417.9,171.2c-0.6-0.3-0.9-0.9-0.9-1.5c0-1.1,0.9-1.9,1.9-1.9c1.1,0,1.9,0.8,1.9,1.9c0,0.7-0.3,1.2-0.9,1.5
		c0.7,0.2,1.1,0.9,1.1,1.6c0,1.3-1,2-2.1,2s-2.1-0.8-2.1-2C416.8,172.1,417.2,171.4,417.9,171.2z M417.6,172.8
		c0,0.7,0.6,1.3,1.3,1.3c0.7,0,1.3-0.6,1.3-1.3c0-0.7-0.6-1.3-1.3-1.3C418.2,171.5,417.6,172.1,417.6,172.8z M417.8,169.6
		c0,0.5,0.6,1.2,1.2,1.2c0.6,0,1.2-0.6,1.2-1.2c0-0.6-0.5-1.2-1.2-1.2C418.3,168.5,417.8,169,417.8,169.6z"/>
	<path d="M424.1,168.7l-0.4,1.4l0.5,0c1.3,0,2.2,1.1,2.2,2.4c0,1.4-1.1,2.4-2.5,2.4c-0.8,0-1.7-0.4-2.1-1.2l0.6-0.6
		c0.2,0.6,0.9,1,1.5,1c0.9,0,1.6-0.8,1.6-1.7c0-0.9-0.7-1.6-1.6-1.6c-0.5,0-1,0.2-1.3,0.6h-0.2l1-3.5h2.7v0.8H424.1z"/>
	<path d="M429.6,171.3c0-1.4,0.6-3.5,2.4-3.5s2.4,2.1,2.4,3.5c0,1.4-0.6,3.5-2.4,3.5S429.6,172.7,429.6,171.3z M430.4,171.3
		c0,0.9,0.3,2.8,1.6,2.8c1.2,0,1.6-1.9,1.6-2.8c0-0.9-0.3-2.8-1.6-2.8C430.7,168.5,430.4,170.3,430.4,171.3z"/>
</g>
<line class="st13" x1="141.1" y1="137.9" x2="141.1" y2="177.3"/>
<line class="st13" x1="376.5" y1="137.9" x2="376.5" y2="177.3"/>
<line class="st14" x1="611.9" y1="137.9" x2="611.9" y2="177.3"/>
<line class="st15" x1="71.5" y1="463.7" x2="71.5" y2="429"/>
<line class="st15" x1="187.6" y1="463.7" x2="187.6" y2="429"/>
<line class="st15" x1="303.7" y1="463.7" x2="303.7" y2="429"/>
<line class="st15" x1="419.9" y1="463.7" x2="419.9" y2="429"/>
<line class="st15" x1="536" y1="463.7" x2="536" y2="429"/>
<line class="st15" x1="652.1" y1="463.7" x2="652.1" y2="429"/>
</svg>
