<?xml version="1.0" encoding="utf-8"?>
<!-- Generator: Adobe Illustrator 23.0.2, SVG Export Plug-In . SVG Version: 6.00 Build 0)  -->
<svg version="1.1" id="Layer_1" xmlns="http://www.w3.org/2000/svg" xmlns:xlink="http://www.w3.org/1999/xlink" x="0px" y="0px"
	 viewBox="0 0 792 462.5" style="enable-background:new 0 0 792 462.5;" xml:space="preserve">
<style type="text/css">
	.st0{fill:#6B7D7C;}
	.st1{fill:#F4EE57;}
	.st2{fill:#E9D648;}
	.st3{fill:#FC88A5;}
	.st4{fill:#EE7191;}
	.st5{fill:#8D6DAF;}
	.st6{fill:#654782;}
	.st7{fill:#DE7FA0;}
	.st8{fill:#C96386;}
	.st9{opacity:0.9;enable-background:new    ;}
	.st10{fill:#404041;}
	.st11{fill:none;}
</style>
<title>Asset 7</title>
<circle class="st0" cx="162" cy="155.5" r="100"/>
<circle class="st1" cx="396" cy="155.5" r="100"/>
<circle class="st2" cx="630" cy="155.5" r="100"/>
<circle class="st3" cx="107" cy="362.9" r="45"/>
<circle class="st4" cx="222.6" cy="362.9" r="45"/>
<circle class="st5" cx="338.2" cy="362.9" r="45"/>
<circle class="st6" cx="453.8" cy="362.9" r="45"/>
<circle class="st7" cx="569.4" cy="362.9" r="45"/>
<circle class="st8" cx="685" cy="362.9" r="45"/>
<g class="st9">
	<path class="st10" d="M22.8,36.5l2-10l3.2,7.3l3.3-7.3l1.8,10h-1.5l-1-5.6L27.9,37l-2.7-6.1l-1,5.6H22.8z"/>
	<path class="st10" d="M39.1,30.6h1.4v5.9h-1.4v-0.6c-0.6,0.7-1.3,0.8-1.8,0.8c-1.8,0-2.9-1.5-2.9-3.1c0-1.9,1.3-3.1,2.9-3.1
		c0.4,0,1.2,0.1,1.8,0.8V30.6z M35.9,33.6c0,1,0.6,1.9,1.6,1.9c0.9,0,1.7-0.6,1.7-1.9c0-1.3-0.8-1.9-1.7-1.9
		C36.5,31.7,35.9,32.6,35.9,33.6z"/>
	<path class="st10" d="M42.9,27.3c0.5,0,0.9,0.4,0.9,0.9c0,0.5-0.4,0.9-0.9,0.9c-0.5,0-0.9-0.4-0.9-0.9C42,27.7,42.4,27.3,42.9,27.3
		z M43.6,30.6v5.9h-1.4v-5.9H43.6z"/>
	<path class="st10" d="M45.3,30.6h1.4v0.5c0.6-0.7,1.3-0.7,1.6-0.7c1.1,0,1.6,0.5,1.7,0.8c0.2,0.3,0.4,0.7,0.4,1.6v3.6H49v-3.3
		c0-1.5-0.6-1.5-1.1-1.5c-0.6,0-1.2,0.1-1.2,2v2.8h-1.4V30.6z"/>
	<path class="st10" d="M62.5,29.4c-1-0.9-2-1-2.5-1c-2,0-3.4,1.5-3.4,3.6c0,2,1.4,3.5,3.4,3.5c1.1,0,2-0.6,2.5-1.1V36
		c-0.9,0.6-1.9,0.7-2.6,0.7c-1.7,0-2.8-0.8-3.3-1.3c-1.1-1-1.5-2.2-1.5-3.5c0-1.7,0.7-2.9,1.5-3.7c1-0.9,2.1-1.2,3.4-1.2
		c0.9,0,1.7,0.2,2.5,0.7V29.4z"/>
	<path class="st10" d="M70,33.6c0,1.8-1.4,3.1-3.2,3.1s-3.2-1.3-3.2-3.1c0-1.8,1.4-3.1,3.2-3.1S70,31.8,70,33.6z M68.6,33.6
		c0-1.3-0.9-1.9-1.8-1.9c-0.9,0-1.8,0.5-1.8,1.9c0,1.1,0.7,1.9,1.8,1.9S68.6,34.7,68.6,33.6z"/>
	<path class="st10" d="M72.8,26.3v10.2h-1.4V26.3H72.8z"/>
	<path class="st10" d="M80.6,33.6c0,1.8-1.4,3.1-3.2,3.1c-1.8,0-3.2-1.3-3.2-3.1c0-1.8,1.4-3.1,3.2-3.1
		C79.2,30.5,80.6,31.8,80.6,33.6z M79.2,33.6c0-1.3-0.9-1.9-1.8-1.9c-0.9,0-1.8,0.5-1.8,1.9c0,1.1,0.7,1.9,1.8,1.9
		S79.2,34.7,79.2,33.6z"/>
	<path class="st10" d="M82,30.6h1.4v0.5c0.2-0.2,0.4-0.4,0.6-0.5c0.3-0.2,0.5-0.2,0.8-0.2c0.3,0,0.7,0.1,1.1,0.3L85.3,32
		c-0.3-0.2-0.6-0.2-0.7-0.2c-0.3,0-0.6,0-0.9,0.3c-0.4,0.4-0.4,1-0.4,1.4v3.1H82V30.6z"/>
</g>
<g class="st9">
	<path class="st10" d="M27.1,296.1c-0.1-0.2-0.2-0.4-0.4-0.6c-0.3-0.2-0.6-0.3-1-0.3c-0.9,0-1.3,0.5-1.3,1.1c0,0.3,0.1,0.8,1,1.1
		l0.9,0.4c1.7,0.7,2.2,1.7,2.2,2.7c0,1.8-1.3,3-3,3c-1.1,0-1.7-0.4-2.2-0.9c-0.5-0.6-0.7-1.2-0.8-1.8l1.4-0.3c0,0.5,0.2,0.9,0.4,1.2
		c0.3,0.3,0.7,0.6,1.2,0.6c0.9,0,1.5-0.6,1.5-1.6c0-1-0.7-1.3-1.3-1.6l-0.9-0.4c-0.8-0.3-1.9-1-1.9-2.4c0-1.3,1-2.5,2.7-2.5
		c1,0,1.6,0.4,1.9,0.6c0.3,0.2,0.5,0.5,0.7,0.9L27.1,296.1z"/>
	<path class="st10" d="M31.4,297.5v3.4c0,0.4,0,0.8,0.3,1.1c0.2,0.2,0.5,0.4,0.9,0.4c0.4,0,0.7-0.2,0.9-0.4c0.2-0.3,0.3-0.7,0.3-1.1
		v-3.4h1.4v3.4c0,0.8-0.1,1.4-0.6,1.9c-0.5,0.5-1.3,0.7-1.9,0.7c-0.6,0-1.3-0.2-1.9-0.7c-0.5-0.5-0.6-1.2-0.6-1.9v-3.4H31.4z"/>
	<path class="st10" d="M38.2,298.2c0.6-0.7,1.3-0.8,1.8-0.8c1.6,0,2.9,1.2,2.9,3.1c0,1.6-1,3.1-2.9,3.1c-0.4,0-1.2-0.1-1.8-0.8v0.6
		h-1.4v-10.2h1.4V298.2z M38.1,300.5c0,1.2,0.8,1.9,1.7,1.9c1,0,1.6-0.9,1.6-1.9c0-1.1-0.6-1.9-1.6-1.9
		C38.9,298.6,38.1,299.2,38.1,300.5z"/>
	<path class="st10" d="M54.7,296.2c-1-0.9-2-1-2.5-1c-2,0-3.4,1.5-3.4,3.6c0,2,1.4,3.5,3.4,3.5c1.1,0,2-0.6,2.5-1.1v1.7
		c-0.9,0.6-1.9,0.7-2.6,0.7c-1.7,0-2.8-0.8-3.3-1.3c-1.1-1-1.5-2.2-1.5-3.5c0-1.7,0.7-2.9,1.5-3.7c1-0.9,2.1-1.2,3.4-1.2
		c0.9,0,1.7,0.2,2.5,0.7V296.2z"/>
	<path class="st10" d="M62.2,300.4c0,1.8-1.4,3.1-3.2,3.1c-1.8,0-3.2-1.3-3.2-3.1c0-1.8,1.4-3.1,3.2-3.1
		C60.8,297.3,62.2,298.6,62.2,300.4z M60.8,300.5c0-1.3-0.9-1.9-1.8-1.9c-0.9,0-1.8,0.5-1.8,1.9c0,1.1,0.7,1.9,1.8,1.9
		S60.8,301.6,60.8,300.5z"/>
	<path class="st10" d="M65,293.2v10.2h-1.4v-10.2H65z"/>
	<path class="st10" d="M72.7,300.4c0,1.8-1.4,3.1-3.2,3.1s-3.2-1.3-3.2-3.1c0-1.8,1.4-3.1,3.2-3.1S72.7,298.6,72.7,300.4z
		 M71.3,300.5c0-1.3-0.9-1.9-1.8-1.9c-0.9,0-1.8,0.5-1.8,1.9c0,1.1,0.7,1.9,1.8,1.9S71.3,301.6,71.3,300.5z"/>
	<path class="st10" d="M74.2,297.5h1.4v0.5c0.2-0.2,0.4-0.4,0.6-0.5c0.3-0.2,0.5-0.2,0.8-0.2c0.3,0,0.7,0.1,1.1,0.3l-0.6,1.2
		c-0.3-0.2-0.6-0.2-0.7-0.2c-0.3,0-0.6,0-0.9,0.3c-0.4,0.4-0.4,1-0.4,1.4v3.1h-1.4V297.5z"/>
</g>
<rect class="st11" width="792" height="462.5"/>
</svg>
