<?xml version="1.0" encoding="utf-8"?>
<!-- Generator: Adobe Illustrator 23.0.4, SVG Export Plug-In . SVG Version: 6.00 Build 0)  -->
<svg version="1.1" id="Layer_1" xmlns="http://www.w3.org/2000/svg" xmlns:xlink="http://www.w3.org/1999/xlink" x="0px" y="0px"
	 viewBox="0 0 801.2 387.1" style="enable-background:new 0 0 801.2 387.1;" xml:space="preserve">
<style type="text/css">
	.st0{fill:#F3EC56;}
	.st1{fill:none;}
	.st2{fill:#EAD547;}
	.st3{clip-path:url(#SVGID_2_);}
</style>
<rect x="0" class="st0" width="396" height="387.1"/>
<rect x="406" class="st0" width="396" height="387.1"/>
<title>Asset 7</title>
<rect class="st1" width="792" height="462.5"/>
<g>
	<g>
		<path class="st2" d="M98.7,106.1c0,10.5,8.6,18.8,19.1,18.8c7.9,0,15-4.5,20.6-9.7l-1,36.8c-7.4,2.6-15.6,4-23.6,4
			c-28,0-50-22.1-50.5-49.9H98.7z"/>
		<path class="st2" d="M198.2,136.8v5.5c0,7.6-0.3,14.2-9.6,14.2c-9.4,0-9.6-6.7-9.6-14.2v-5.5h-35.1v8.8c0,28.2,17.7,41,44.7,41
			c27,0,44.7-12.8,44.7-41v-8.8H198.2z"/>
		<path class="st2" d="M265.8,118.5c-1.9-2.8-4.1-4.4-5.9-5.8v-0.8c13.1-4.4,18.7-10.5,18.7-25.1c0-24.4-18.5-33.6-40.3-33.6H231
			v26.4h2c6,0,11.3,0.9,11.3,8.3c0,7.2-5.8,8.1-11.5,8.1H231v22.9l15.4,31h40.5L265.8,118.5z"/>
		<rect x="292.2" y="141" class="st2" width="35.1" height="49.4"/>
		<rect x="187.9" y="221.7" class="st2" width="35.1" height="49.4"/>
		<path class="st2" d="M78.2,225.7c10.6,0,18.1-7.6,18.1-18.6c0-10.3-6.9-18.8-18.1-18.8c-11.2,0-18.1,8.6-18.1,18.8H24.8
			c0-0.2,0-0.3,0-0.5c0-30.4,24.1-50.1,53.5-50.1c29.4,0,53.5,19.7,53.5,50.1c0,31-24,49.6-53.5,49.6V225.7z"/>
		<path class="st2" d="M297.4,310h34.4v-9.4l33.1-55h-39.5l-6.9,16.2c-1.3,2.9-2.2,6-3.2,9.1h-1l-10.8-25.3h-39.7l33.7,55V310z"/>
		<polygon class="st2" points="227.9,196 227.9,227.4 247.3,226.5 247.3,240.6 282.4,240.6 282.4,226.5 301.8,227.4 301.8,196 		"/>
		<path class="st2" d="M167.1,265.9l-7.9-1.8c-2.7-0.6-7.1-1.2-7.1-4.7c0-3.7,3.8-4.9,6.8-5.1v-25.9c-21,0-41.9,12.8-41.9,35.8
			c0,15.1,11.5,23.2,25.3,25.6l7.1,1.3c3.2,0.6,7.8,1,7.8,5.4c0,4.4-5.5,5.8-9,5.8c-8.1,0-15.6-4-21.9-8.8l-1.8-1.4l-10.8,27.3
			c10.9,5.5,25,8.8,37.2,8.8c20.9,0,41.9-11.4,41.9-34.5C192.7,277.2,181.9,269.2,167.1,265.9z"/>
	</g>
</g>
<g>
	<defs>
		<rect id="SVGID_1_" x="406" width="396" height="386"/>
	</defs>
	<clipPath id="SVGID_2_">
		<use xlink:href="#SVGID_1_"  style="overflow:visible;"/>
	</clipPath>
	<g class="st3">
		<g>
			<g>
				<path class="st2" d="M495.1,94.7c0,9.1,7.4,16.3,16.5,16.3c6.9,0,13-3.9,17.9-8.4l-0.9,31.8c-6.4,2.2-13.5,3.4-20.4,3.4
					c-24.2,0-43.3-19.1-43.7-43.1H495.1z"/>
				<path class="st2" d="M581.1,121.2v4.8c0,6.5-0.2,12.3-8.3,12.3c-8.1,0-8.3-5.8-8.3-12.3v-4.8h-30.4v7.6
					c0,24.4,15.3,35.5,38.7,35.5c23.4,0,38.7-11.1,38.7-35.5v-7.6H581.1z"/>
				<path class="st2" d="M639.6,105.4c-1.7-2.4-3.5-3.8-5.1-5v-0.7c11.3-3.8,16.2-9.1,16.2-21.7c0-21.1-16-29-34.8-29h-6.4v22.8h1.8
					c5.2,0,9.8,0.8,9.8,7.2c0,6.2-5,7-10,7h-1.5v19.8l13.3,26.8h35L639.6,105.4z"/>
				<rect x="662.5" y="124.8" class="st2" width="30.4" height="42.7"/>
				<rect x="572.3" y="194.6" class="st2" width="30.4" height="42.7"/>
				<path class="st2" d="M477.4,198.1c9.2,0,15.6-6.5,15.6-16.1c0-8.9-6-16.3-15.6-16.3c-9.6,0-15.6,7.4-15.6,16.3h-30.6
					c0-0.1,0-0.3,0-0.4c0-26.3,20.8-43.4,46.2-43.4c25.4,0,46.2,17.1,46.2,43.4c0,26.8-20.7,42.9-46.2,42.9V198.1z"/>
				<path class="st2" d="M666.9,271h29.7v-8.1l28.6-47.6h-34.1l-6,14c-1.1,2.6-1.9,5.2-2.8,7.9h-0.9l-9.3-21.8h-34.4l29.2,47.6V271z
					"/>
				<polygon class="st2" points="606.8,172.5 606.8,199.6 623.6,198.8 623.6,211 654,211 654,198.8 670.7,199.6 670.7,172.5 				"/>
				<path class="st2" d="M554.2,232.9l-6.9-1.6c-2.3-0.6-6.1-1-6.1-4.1c0-3.2,3.3-4.3,5.9-4.4v-22.4c-18.2,0-36.3,11.1-36.3,30.9
					c0,13.1,10,20.1,21.8,22.2l6.1,1.1c2.8,0.6,6.8,0.9,6.8,4.7c0,3.8-4.8,5-7.8,5c-7,0-13.5-3.4-19-7.6l-1.6-1.2L508,279
					c9.4,4.8,21.6,7.6,32.2,7.6c18.1,0,36.3-9.9,36.3-29.8C576.4,242.7,567.1,235.8,554.2,232.9z"/>
			</g>
		</g>
		<g>
			<g>
				<path class="st2" d="M303.6,237c0,9.1,7.4,16.3,16.5,16.3c6.9,0,13-3.9,17.9-8.4l-0.9,31.8c-6.4,2.2-13.5,3.4-20.4,3.4
					c-24.2,0-43.3-19.1-43.7-43.1H303.6z"/>
				<path class="st2" d="M389.3,263v4.8c0,6.5-0.2,12.3-8.3,12.3s-8.3-5.8-8.3-12.3V263h-30.4v7.6c0,24.4,15.3,35.5,38.7,35.5
					s38.7-11.1,38.7-35.5V263H389.3z"/>
				<path class="st2" d="M447.8,247.2c-1.7-2.4-3.5-3.8-5.1-5v-0.7c11.3-3.8,16.2-9.1,16.2-21.7c0-21.1-16-29-34.8-29h-6.4v22.8h1.8
					c5.2,0,9.8,0.8,9.8,7.2c0,6.2-5,7-10,7h-1.5v19.8l13.3,26.8h35L447.8,247.2z"/>
				<rect x="470.7" y="266.6" class="st2" width="30.4" height="42.7"/>
				<rect x="380.5" y="336.4" class="st2" width="30.4" height="42.7"/>
				<path class="st2" d="M285.6,339.9c9.2,0,15.6-6.5,15.6-16.1c0-8.9-6-16.3-15.6-16.3c-9.6,0-15.6,7.4-15.6,16.3h-30.6
					c0-0.1,0-0.3,0-0.4c0-26.3,20.8-43.4,46.2-43.4c25.4,0,46.2,17.1,46.2,43.4c0,26.8-20.7,42.9-46.2,42.9V339.9z"/>
				<path class="st2" d="M475.1,412.8h29.7v-8.1l28.6-47.6h-34.1l-6,14c-1.1,2.6-1.9,5.2-2.8,7.9h-0.9l-9.3-21.8H446l29.2,47.6
					V412.8z"/>
				<polygon class="st2" points="415.1,314.2 415.1,341.4 431.8,340.6 431.8,352.8 462.2,352.8 462.2,340.6 478.9,341.4 
					478.9,314.2 				"/>
				<path class="st2" d="M362.4,374.7l-6.9-1.6c-2.3-0.6-6.1-1-6.1-4.1c0-3.2,3.3-4.3,5.9-4.4v-22.4c-18.2,0-36.3,11.1-36.3,30.9
					c0,13.1,10,20.1,21.8,22.2l6.1,1.1c2.8,0.6,6.8,0.9,6.8,4.7c0,3.8-4.8,5-7.8,5c-7,0-13.5-3.4-19-7.6l-1.6-1.2l-9.3,23.6
					c9.4,4.8,21.6,7.6,32.2,7.6c18.1,0,36.3-9.9,36.3-29.8C384.6,384.4,375.3,377.6,362.4,374.7z"/>
			</g>
		</g>
		<g>
			<g>
				<path class="st2" d="M227.3-11.8c0,9.1,7.4,16.3,16.5,16.3c6.9,0,13-3.9,17.9-8.4l-0.9,31.8c-6.4,2.2-13.5,3.4-20.4,3.4
					c-24.2,0-43.3-19.1-43.7-43.1H227.3z"/>
				<path class="st2" d="M313,14.2v4.8c0,6.5-0.2,12.3-8.3,12.3c-8.1,0-8.3-5.8-8.3-12.3v-4.8H266v7.6c0,24.4,15.3,35.5,38.7,35.5
					s38.7-11.1,38.7-35.5v-7.6H313z"/>
				<path class="st2" d="M371.5-1.7c-1.7-2.4-3.5-3.8-5.1-5v-0.7c11.3-3.8,16.2-9.1,16.2-21.7c0-21.1-16-29-34.8-29h-6.4v22.8h1.8
					c5.2,0,9.8,0.8,9.8,7.2c0,6.2-5,7-10,7h-1.5v19.8l13.3,26.8h35L371.5-1.7z"/>
				<rect x="394.4" y="17.8" class="st2" width="30.4" height="42.7"/>
				<rect x="304.2" y="87.6" class="st2" width="30.4" height="42.7"/>
				<path class="st2" d="M209.3,91.1c9.2,0,15.6-6.5,15.6-16.1c0-8.9-6-16.3-15.6-16.3c-9.6,0-15.6,7.4-15.6,16.3h-30.6
					c0-0.1,0-0.3,0-0.4c0-26.3,20.8-43.4,46.2-43.4c25.4,0,46.2,17.1,46.2,43.4c0,26.8-20.7,42.9-46.2,42.9V91.1z"/>
				<path class="st2" d="M398.8,163.9h29.7v-8.1l28.6-47.6H423l-6,14c-1.1,2.6-1.9,5.2-2.8,7.9h-0.9l-9.3-21.8h-34.4l29.2,47.6
					V163.9z"/>
				<polygon class="st2" points="338.8,65.4 338.8,92.6 355.5,91.8 355.5,104 385.9,104 385.9,91.8 402.6,92.6 402.6,65.4 				"/>
				<path class="st2" d="M286.1,125.8l-6.9-1.6c-2.3-0.6-6.1-1-6.1-4.1c0-3.2,3.3-4.3,5.9-4.4V93.4c-18.2,0-36.3,11.1-36.3,30.9
					c0,13.1,10,20.1,21.8,22.2l6.1,1.1c2.8,0.6,6.8,0.9,6.8,4.7c0,3.8-4.8,5-7.8,5c-7,0-13.5-3.4-19-7.6l-1.6-1.2l-9.3,23.6
					c9.4,4.8,21.6,7.6,32.2,7.6c18.1,0,36.3-9.9,36.3-29.8C308.3,135.6,299,128.7,286.1,125.8z"/>
			</g>
		</g>
		<g>
			<g>
				<path class="st2" d="M773.5,124.2c0,9.1,7.4,16.3,16.5,16.3c6.9,0,13-3.9,17.9-8.4l-0.9,31.8c-6.4,2.2-13.5,3.4-20.4,3.4
					c-24.2,0-43.3-19.1-43.7-43.1H773.5z"/>
				<path class="st2" d="M859.3,150.2v4.8c0,6.5-0.2,12.3-8.3,12.3s-8.3-5.8-8.3-12.3v-4.8h-30.4v7.6c0,24.4,15.3,35.5,38.7,35.5
					c23.4,0,38.7-11.1,38.7-35.5v-7.6H859.3z"/>
				<path class="st2" d="M917.8,134.3c-1.7-2.4-3.5-3.8-5.1-5v-0.7c11.3-3.8,16.2-9.1,16.2-21.7c0-21.1-16-29-34.8-29h-6.4v22.8h1.8
					c5.2,0,9.8,0.8,9.8,7.2c0,6.2-5,7-10,7h-1.5v19.8l13.3,26.8h35L917.8,134.3z"/>
				<rect x="940.6" y="153.8" class="st2" width="30.4" height="42.7"/>
				<rect x="850.4" y="223.6" class="st2" width="30.4" height="42.7"/>
				<path class="st2" d="M755.5,227.1c9.2,0,15.6-6.5,15.6-16.1c0-8.9-6-16.3-15.6-16.3c-9.6,0-15.6,7.4-15.6,16.3h-30.6
					c0-0.1,0-0.3,0-0.4c0-26.3,20.8-43.4,46.2-43.4c25.4,0,46.2,17.1,46.2,43.4c0,26.8-20.7,42.9-46.2,42.9V227.1z"/>
				<path class="st2" d="M945.1,300h29.7v-8.1l28.6-47.6h-34.1l-6,14c-1.1,2.6-1.9,5.2-2.8,7.9h-0.9l-9.3-21.8h-34.4l29.2,47.6V300z
					"/>
				<polygon class="st2" points="885,201.4 885,228.6 901.7,227.8 901.7,240 932.1,240 932.1,227.8 948.9,228.6 948.9,201.4 				"/>
				<path class="st2" d="M832.4,261.9l-6.9-1.6c-2.3-0.6-6.1-1-6.1-4.1c0-3.2,3.3-4.3,5.9-4.4v-22.4c-18.2,0-36.3,11.1-36.3,30.9
					c0,13.1,10,20.1,21.8,22.2l6.1,1.1c2.8,0.6,6.8,0.9,6.8,4.7c0,3.8-4.8,5-7.8,5c-7,0-13.5-3.4-19-7.6l-1.6-1.2l-9.3,23.6
					c9.4,4.8,21.6,7.6,32.2,7.6c18.1,0,36.3-9.9,36.3-29.8C854.5,271.6,845.2,264.7,832.4,261.9z"/>
			</g>
		</g>
		<g>
			<g>
				<path class="st2" d="M670.7-68.9c0,9.1,7.4,16.3,16.5,16.3c6.9,0,13-3.9,17.9-8.4l-0.9,31.8c-6.4,2.2-13.5,3.4-20.4,3.4
					c-24.2,0-43.3-19.1-43.7-43.1H670.7z"/>
				<path class="st2" d="M756.5-42.9v4.8c0,6.5-0.2,12.3-8.3,12.3c-8.1,0-8.3-5.8-8.3-12.3v-4.8h-30.4v7.6
					c0,24.4,15.3,35.5,38.7,35.5s38.7-11.1,38.7-35.5v-7.6H756.5z"/>
				<path class="st2" d="M815-58.7c-1.7-2.4-3.5-3.8-5.1-5v-0.7c11.3-3.8,16.2-9.1,16.2-21.7c0-21.1-16-29-34.8-29h-6.4v22.8h1.8
					c5.2,0,9.8,0.8,9.8,7.2c0,6.2-5,7-10,7h-1.5v19.8l13.3,26.8h35L815-58.7z"/>
				<rect x="837.8" y="-39.3" class="st2" width="30.4" height="42.7"/>
				<rect x="747.6" y="30.5" class="st2" width="30.4" height="42.7"/>
				<path class="st2" d="M652.7,34c9.2,0,15.6-6.5,15.6-16.1c0-8.9-6-16.3-15.6-16.3c-9.6,0-15.6,7.4-15.6,16.3h-30.6
					c0-0.1,0-0.3,0-0.4c0-26.3,20.8-43.4,46.2-43.4c25.4,0,46.2,17.1,46.2,43.4c0,26.8-20.7,42.9-46.2,42.9V34z"/>
				<path class="st2" d="M842.3,106.9H872v-8.1l28.6-47.6h-34.1l-6,14c-1.1,2.5-1.9,5.2-2.8,7.9h-0.9l-9.3-21.8h-34.4l29.2,47.6
					V106.9z"/>
				<polygon class="st2" points="782.2,8.4 782.2,35.5 798.9,34.7 798.9,46.9 829.3,46.9 829.3,34.7 846.1,35.5 846.1,8.4 				"/>
				<path class="st2" d="M729.6,68.8l-6.9-1.6c-2.3-0.6-6.1-1-6.1-4.1c0-3.2,3.3-4.3,5.9-4.4V36.3c-18.2,0-36.3,11.1-36.3,30.9
					c0,13.1,10,20.1,21.8,22.2l6.1,1.1c2.8,0.6,6.8,0.9,6.8,4.7c0,3.8-4.8,5-7.8,5c-7,0-13.5-3.4-19-7.6l-1.6-1.2l-9.3,23.6
					c9.4,4.8,21.6,7.6,32.2,7.6c18.1,0,36.3-9.9,36.3-29.8C751.7,78.5,742.4,71.7,729.6,68.8z"/>
			</g>
		</g>
	</g>
</g>
</svg>
