<?xml version="1.0" encoding="utf-8"?>
<!-- Generator: Adobe Illustrator 23.0.6, SVG Export Plug-In . SVG Version: 6.00 Build 0)  -->
<svg version="1.1" id="Layer_1" xmlns="http://www.w3.org/2000/svg" xmlns:xlink="http://www.w3.org/1999/xlink" x="0px" y="0px"
	 viewBox="0 0 792 576.6" style="enable-background:new 0 0 792 576.6;" xml:space="preserve">
<style type="text/css">
	.st0{fill:#404041;}
	.st1{fill:#FC88A5;}
	.st2{fill:#0A0A0A;}
	.st3{fill:#EE7191;}
	.st4{fill:#8D6DAF;}
	.st5{fill:#654782;}
	.st6{fill:#DE7FA0;}
	.st7{fill:#C96386;}
	.st8{fill:#6B7D7C;}
	.st9{fill:#F4EE57;}
	.st10{fill:#E9D648;}
	.st11{fill:#8E8E8E;}
</style>
<g>
	<path class="st0" d="M22.1,349.2l0.5-0.9c0.1-0.2,0.4-0.2,0.5-0.1c0.1,0,1.2,0.9,2.1,0.9c0.7,0,1.3-0.5,1.3-1.1
		c0-0.7-0.6-1.2-1.8-1.7c-1.3-0.5-2.6-1.4-2.6-3c0-1.2,0.9-2.7,3.2-2.7c1.4,0,2.5,0.7,2.8,0.9c0.1,0.1,0.2,0.3,0.1,0.5l-0.5,0.8
		c-0.1,0.2-0.3,0.3-0.5,0.2c-0.1-0.1-1.2-0.8-1.9-0.8c-0.8,0-1.2,0.5-1.2,1c0,0.7,0.5,1.1,1.7,1.6c1.4,0.5,2.9,1.4,2.9,3.2
		c0,1.4-1.2,2.8-3.2,2.8c-1.8,0-2.8-0.8-3.1-1.1C22.1,349.5,22,349.5,22.1,349.2z"/>
	<path class="st0" d="M32.2,344.9c1.4,0,2.6,1.1,2.6,2.6c0,0.1,0,0.3,0,0.4s-0.1,0.2-0.3,0.2H31c0,0.6,0.5,1.2,1.3,1.2
		c0.4,0,0.8-0.2,1.1-0.4c0.1-0.1,0.3-0.1,0.4,0l0.6,0.7c0.1,0.1,0.1,0.3,0,0.4c-0.5,0.4-1.2,0.8-2.1,0.8c-1.7,0-2.9-1.3-2.9-2.9
		C29.4,346.2,30.6,344.9,32.2,344.9z M33.2,347.1c0-0.5-0.5-1-1-1c-0.6,0-1,0.4-1.1,1H33.2z"/>
	<path class="st0" d="M38.6,344.9c0.9,0,1.5,0.3,2.1,1c0.1,0.1,0.1,0.3-0.1,0.4l-0.6,0.6c-0.1,0.1-0.3,0-0.4,0
		c-0.2-0.3-0.6-0.4-1-0.4c-0.8,0-1.4,0.6-1.4,1.4s0.6,1.4,1.4,1.4c0.6,0,0.9-0.3,1.1-0.5c0.1-0.1,0.2-0.1,0.4,0l0.6,0.5
		c0.1,0.1,0.2,0.3,0.1,0.4c-0.5,0.7-1.2,1.2-2.2,1.2c-1.6,0-3-1.3-3-2.9C35.6,346.1,37,344.9,38.6,344.9z"/>
	<path class="st0" d="M44.4,344.9c1.6,0,2.9,1.3,2.9,2.9s-1.3,3-2.9,3s-2.9-1.3-2.9-3C41.6,346.2,42.8,344.9,44.4,344.9z
		 M44.4,349.2c0.7,0,1.3-0.6,1.3-1.4s-0.6-1.4-1.3-1.4c-0.8,0-1.3,0.6-1.3,1.4C43.1,348.6,43.7,349.2,44.4,349.2z"/>
	<path class="st0" d="M48.5,345.3c0-0.2,0.1-0.3,0.3-0.3h0.5c0.1,0,0.2,0.1,0.2,0.2l0.2,0.5c0.2-0.2,0.9-0.8,2-0.8
		c1.8,0,2.5,1.3,2.5,2.8v2.7c0,0.1-0.1,0.3-0.3,0.3h-1.1c-0.2,0-0.3-0.1-0.3-0.3v-2.8c0-0.7-0.4-1.2-1.1-1.2c-0.7,0-1.2,0.5-1.3,0.9
		v3.1c0,0.2-0.1,0.3-0.4,0.3h-1c-0.1,0-0.3-0.1-0.3-0.3L48.5,345.3L48.5,345.3z"/>
	<path class="st0" d="M58.2,344.9c0.6,0,1,0.2,1.2,0.3v-4c0-0.1,0.1-0.3,0.3-0.3h1.2c0.1,0,0.3,0.1,0.3,0.3v9.3
		c0,0.1-0.1,0.3-0.3,0.3h-0.5c-0.1,0-0.2-0.1-0.3-0.3l-0.1-0.4c0,0-0.7,0.8-1.8,0.8c-1.5,0-2.7-1.3-2.7-2.9
		C55.4,346.2,56.5,344.9,58.2,344.9z M58.3,349.2c0.7,0,1.1-0.6,1.2-0.9v-1.6c0,0-0.4-0.3-1.1-0.3c-0.8,0-1.4,0.6-1.4,1.4
		S57.5,349.2,58.3,349.2z"/>
	<path class="st0" d="M64.6,347.1c0.6,0,1,0.2,1,0.2c0-0.7-0.2-1-0.7-1s-1.2,0.1-1.6,0.2c-0.2,0.1-0.3-0.1-0.3-0.3l-0.1-0.7
		c0-0.2,0.1-0.3,0.2-0.4c0.1,0,1-0.3,1.9-0.3c1.8,0,2.2,0.9,2.2,2.4v3c0,0.1-0.1,0.3-0.3,0.3h-0.5c-0.1,0-0.2,0-0.2-0.2L66,350
		c-0.3,0.3-0.8,0.7-1.7,0.7c-1.1,0-1.9-0.7-1.9-1.9C62.4,347.8,63.2,347.1,64.6,347.1z M64.7,349.5c0.4,0,0.9-0.4,1-0.5v-0.8
		c0,0-0.4-0.2-0.8-0.2c-0.5,0-0.9,0.3-0.9,0.8C63.9,349.2,64.2,349.5,64.7,349.5z"/>
	<path class="st0" d="M68.8,345.3c0-0.2,0.1-0.3,0.3-0.3h0.5c0.1,0,0.2,0.1,0.3,0.2l0.2,0.5c0.2-0.3,0.7-0.9,1.6-0.9
		c0.7,0,1.2,0.2,1.1,0.6l-0.5,0.9c-0.1,0.1-0.2,0.2-0.3,0.1c0,0-0.3-0.1-0.4-0.1c-0.6,0-0.9,0.4-1,0.6v3.4c0,0.2-0.1,0.3-0.3,0.3H69
		c-0.1,0-0.3-0.1-0.3-0.3v-5H68.8z"/>
	<path class="st0" d="M73.1,345.4c-0.1-0.2,0-0.4,0.2-0.4h1.3c0.1,0,0.2,0.1,0.2,0.2l1.4,3.2l0,0l1.4-3.2c0.1-0.1,0.2-0.2,0.3-0.2
		H79c0.2,0,0.3,0.2,0.2,0.4l-4.3,9.3c0,0.1-0.1,0.2-0.2,0.2h-1.2c-0.2,0-0.3-0.2-0.2-0.4l2-4.2L73.1,345.4z"/>
	<path class="st0" d="M88.1,340.7c1.4,0,2.4,0.4,3.4,1.3c0.1,0.1,0.1,0.3,0,0.4l-0.9,0.9c-0.1,0.1-0.2,0.1-0.4,0
		c-0.6-0.5-1.4-0.8-2.2-0.8c-1.8,0-3.1,1.5-3.1,3.3s1.3,3.2,3.1,3.2c0.8,0,1.6-0.3,2.1-0.8c0.1-0.1,0.3-0.1,0.4,0l0.9,0.9
		c0.1,0.1,0.1,0.3,0,0.4c-1,0.9-2.2,1.4-3.4,1.4c-2.8,0-5.1-2.2-5.1-5S85.3,340.7,88.1,340.7z"/>
	<path class="st0" d="M95.2,344.9c1.6,0,2.9,1.3,2.9,2.9s-1.3,3-2.9,3s-2.9-1.3-2.9-3C92.3,346.2,93.6,344.9,95.2,344.9z
		 M95.2,349.2c0.7,0,1.3-0.6,1.3-1.4s-0.6-1.4-1.3-1.4c-0.8,0-1.3,0.6-1.3,1.4C93.8,348.6,94.4,349.2,95.2,349.2z"/>
	<path class="st0" d="M99.3,341.1c0-0.1,0.1-0.3,0.3-0.3h1.2c0.1,0,0.3,0.1,0.3,0.3v9.3c0,0.1-0.1,0.3-0.3,0.3h-1.2
		c-0.1,0-0.3-0.1-0.3-0.3V341.1z"/>
	<path class="st0" d="M105.1,344.9c1.6,0,2.9,1.3,2.9,2.9s-1.3,3-2.9,3s-2.9-1.3-2.9-3C102.2,346.2,103.5,344.9,105.1,344.9z
		 M105.1,349.2c0.7,0,1.3-0.6,1.3-1.4s-0.6-1.4-1.3-1.4c-0.8,0-1.3,0.6-1.3,1.4C103.8,348.6,104.4,349.2,105.1,349.2z"/>
	<path class="st0" d="M109.2,345.3c0-0.2,0.1-0.3,0.3-0.3h0.5c0.1,0,0.2,0.1,0.3,0.2l0.2,0.5c0.2-0.3,0.7-0.9,1.6-0.9
		c0.7,0,1.2,0.2,1.1,0.6l-0.5,0.9c-0.1,0.1-0.2,0.2-0.3,0.1c0,0-0.3-0.1-0.4-0.1c-0.6,0-0.9,0.4-1,0.6v3.4c0,0.2-0.1,0.3-0.3,0.3
		h-1.1c-0.1,0-0.3-0.1-0.3-0.3L109.2,345.3L109.2,345.3z"/>
</g>
<g>
	<g>
		<path class="st0" d="M22.7,26.9c0-0.1,0.1-0.3,0.3-0.3h3.3c1.7,0,3.1,1.4,3.1,3.1s-1.4,3.2-3.1,3.2h-1.8v3.3
			c0,0.1-0.1,0.3-0.3,0.3H23c-0.2,0-0.3-0.1-0.3-0.3V26.9z M26.2,31.1c0.8,0,1.4-0.6,1.4-1.5c0-0.8-0.7-1.4-1.4-1.4h-1.6V31h1.6
			V31.1z"/>
		<path class="st0" d="M30.2,31.1c0-0.2,0.1-0.3,0.3-0.3H31c0.1,0,0.2,0.1,0.3,0.2l0.2,0.5c0.2-0.3,0.7-0.9,1.6-0.9
			c0.7,0,1.2,0.2,1.1,0.6l-0.5,0.9c-0.1,0.1-0.2,0.2-0.3,0.1c0,0-0.3-0.1-0.4-0.1c-0.6,0-0.9,0.4-1,0.6v3.4c0,0.2-0.1,0.3-0.3,0.3
			h-1.1c-0.1,0-0.3-0.1-0.3-0.3L30.2,31.1L30.2,31.1z"/>
		<path class="st0" d="M34.8,27.8c0-0.5,0.4-1,1-1c0.5,0,1,0.4,1,1s-0.4,1-1,1C35.3,28.8,34.8,28.4,34.8,27.8z M35,31.1
			c0-0.2,0.1-0.3,0.3-0.3h1.2c0.1,0,0.3,0.1,0.3,0.3v5.1c0,0.1-0.1,0.3-0.3,0.3h-1.2c-0.1,0-0.3-0.1-0.3-0.3V31.1z"/>
		<path class="st0" d="M38.3,31.1c0-0.2,0.1-0.3,0.3-0.3h0.5c0.1,0,0.2,0.1,0.2,0.2l0.2,0.5c0.2-0.3,0.9-0.8,1.9-0.8
			c0.8,0,1.4,0.3,1.8,0.9c0.2-0.3,1-0.9,2-0.9c1.8,0,2.5,1.3,2.5,2.8v2.7c0,0.1-0.1,0.3-0.3,0.3h-1.1c-0.2,0-0.3-0.1-0.3-0.3v-2.8
			c0-0.7-0.4-1.2-1.1-1.2c-0.8,0-1.2,0.6-1.2,0.6s0,0.3,0,0.5v2.8c0,0.1-0.1,0.3-0.3,0.3h-1.1c-0.2,0-0.3-0.1-0.3-0.3v-2.8
			c0-0.7-0.3-1.2-1-1.2s-1,0.5-1.2,0.9v3.1c0,0.1-0.1,0.3-0.3,0.3h-1.1c-0.1,0-0.3-0.1-0.3-0.3v-5H38.3z"/>
		<path class="st0" d="M51.1,32.9c0.6,0,1,0.2,1,0.2c0-0.7-0.2-1-0.7-1s-1.2,0.1-1.6,0.2c-0.2,0.1-0.3-0.1-0.3-0.3l-0.1-0.7
			c0-0.2,0.1-0.3,0.2-0.4c0.1,0,1-0.3,1.9-0.3c1.8,0,2.2,0.9,2.2,2.4v3c0,0.1-0.1,0.3-0.3,0.3h-0.5c-0.1,0-0.2,0-0.2-0.2l-0.2-0.4
			c-0.3,0.3-0.8,0.7-1.7,0.7c-1.1,0-1.9-0.7-1.9-1.9C48.8,33.6,49.7,32.9,51.1,32.9z M51.1,35.3c0.4,0,0.9-0.4,1-0.5V34
			c0,0-0.4-0.2-0.8-0.2c-0.5,0-0.9,0.3-0.9,0.8C50.4,35,50.7,35.3,51.1,35.3z"/>
		<path class="st0" d="M55.2,31.1c0-0.2,0.1-0.3,0.3-0.3H56c0.1,0,0.2,0.1,0.3,0.2l0.2,0.5c0.2-0.3,0.7-0.9,1.6-0.9
			c0.7,0,1.2,0.2,1.1,0.6l-0.5,0.9c-0.1,0.1-0.2,0.2-0.3,0.1c0,0-0.3-0.1-0.4-0.1c-0.6,0-0.9,0.4-1,0.6v3.4c0,0.2-0.1,0.3-0.3,0.3
			h-1.1c-0.1,0-0.3-0.1-0.3-0.3L55.2,31.1L55.2,31.1z"/>
		<path class="st0" d="M59.5,31.2c-0.1-0.2,0-0.4,0.2-0.4H61c0.1,0,0.2,0.1,0.2,0.2l1.4,3.2l0,0L64,31c0.1-0.1,0.2-0.2,0.3-0.2h1.1
			c0.2,0,0.3,0.2,0.2,0.4l-4.3,9.3c0,0.1-0.1,0.2-0.2,0.2H60c-0.2,0-0.3-0.2-0.2-0.4l2-4.2L59.5,31.2z"/>
		<path class="st0" d="M74.6,26.5c1.4,0,2.4,0.4,3.4,1.3c0.1,0.1,0.1,0.3,0,0.4L77.1,29c-0.1,0.1-0.2,0.1-0.4,0
			c-0.6-0.5-1.4-0.8-2.2-0.8c-1.8,0-3.1,1.5-3.1,3.3s1.3,3.2,3.1,3.2c0.8,0,1.6-0.3,2.1-0.8c0.1-0.1,0.3-0.1,0.4,0l0.9,0.9
			c0.1,0.1,0.1,0.3,0,0.4c-1,0.9-2.2,1.4-3.4,1.4c-2.8,0-5.1-2.2-5.1-5C69.5,28.7,71.8,26.5,74.6,26.5z"/>
		<path class="st0" d="M81.6,30.7c1.6,0,2.9,1.3,2.9,2.9c0,1.6-1.3,3-2.9,3s-2.9-1.3-2.9-3C78.7,32,80,30.7,81.6,30.7z M81.6,35
			c0.7,0,1.3-0.6,1.3-1.4c0-0.8-0.6-1.4-1.3-1.4c-0.8,0-1.3,0.6-1.3,1.4C80.3,34.4,80.9,35,81.6,35z"/>
		<path class="st0" d="M85.7,26.9c0-0.1,0.1-0.3,0.3-0.3h1.2c0.1,0,0.3,0.1,0.3,0.3v9.3c0,0.1-0.1,0.3-0.3,0.3H86
			c-0.1,0-0.3-0.1-0.3-0.3V26.9z"/>
		<path class="st0" d="M91.6,30.7c1.6,0,2.9,1.3,2.9,2.9c0,1.6-1.3,3-2.9,3s-2.9-1.3-2.9-3C88.7,32,90,30.7,91.6,30.7z M91.6,35
			c0.7,0,1.3-0.6,1.3-1.4c0-0.8-0.6-1.4-1.3-1.4c-0.8,0-1.3,0.6-1.3,1.4C90.2,34.4,90.8,35,91.6,35z"/>
		<path class="st0" d="M95.7,31.1c0-0.2,0.1-0.3,0.3-0.3h0.5c0.1,0,0.2,0.1,0.3,0.2l0.2,0.5c0.2-0.3,0.7-0.9,1.6-0.9
			c0.7,0,1.2,0.2,1.1,0.6l-0.5,0.9c-0.1,0.1-0.2,0.2-0.3,0.1c0,0-0.3-0.1-0.4-0.1c-0.6,0-0.9,0.4-1,0.6v3.4c0,0.2-0.1,0.3-0.3,0.3
			h-1.1c-0.1,0-0.3-0.1-0.3-0.3L95.7,31.1L95.7,31.1z"/>
	</g>
</g>
<title>Asset 7</title>
<circle class="st1" cx="176.6" cy="422.3" r="45"/>
<g>
	<path class="st2" d="M152.1,514.2v0.9H147l3.5-4.2c0.3-0.3,0.7-0.9,0.7-1.4c0-0.8-0.7-1.5-1.5-1.5s-1.5,0.7-1.5,1.4h-0.9
		c0.1-1.4,1-2.3,2.5-2.3c1.4,0,2.4,1,2.4,2.3c0,0.6-0.2,1.2-0.6,1.6l-2.5,3.1L152.1,514.2L152.1,514.2z"/>
	<path class="st2" d="M155.5,508.2l-0.5,1.6h0.6c1.5,0,2.5,1.3,2.5,2.8c0,1.6-1.3,2.8-2.9,2.8c-0.9,0-2-0.5-2.4-1.4l0.7-0.7
		c0.2,0.7,1,1.2,1.7,1.2c1,0,1.9-0.9,1.9-2c0-1-0.8-1.9-1.9-1.9c-0.6,0-1.2,0.2-1.5,0.7h-0.2l1.2-4h3.1v0.9H155.5L155.5,508.2z"/>
	<path class="st2" d="M164.1,514.2v0.9H159l3.5-4.2c0.3-0.3,0.7-0.9,0.7-1.4c0-0.8-0.7-1.5-1.5-1.5s-1.5,0.7-1.5,1.4h-0.9
		c0.1-1.4,1-2.3,2.5-2.3c1.4,0,2.4,1,2.4,2.3c0,0.6-0.2,1.2-0.6,1.6l-2.5,3.1L164.1,514.2L164.1,514.2z"/>
	<path class="st2" d="M168.8,508.2l0.6-0.9h1.7v7.9h-0.9v-6.9h-1.4V508.2z"/>
	<path class="st2" d="M176.5,510.6c0.8,0,1.5-0.3,1.5-1.3c0-0.8-0.6-1.4-1.4-1.4c-0.7,0-1.2,0.5-1.3,1.2h-0.9c0.2-1.3,1-2,2.3-2
		s2.3,0.8,2.3,2.1c0,0.8-0.3,1.4-1,1.7c0.8,0.3,1.2,1.2,1.2,2c0,1.5-1.2,2.3-2.5,2.3s-2.3-0.8-2.4-2.1h0.9c0.1,0.8,0.8,1.3,1.5,1.3
		c0.9,0,1.5-0.7,1.5-1.5c0-1-0.7-1.6-1.6-1.5L176.5,510.6L176.5,510.6z"/>
	<path class="st2" d="M184.2,507.6l-2.1,2.8l0,0c0.2-0.1,0.5-0.2,0.8-0.2c1.3,0,2.3,1.2,2.3,2.4c0,1.4-1.2,2.5-2.5,2.5
		c-1.4,0-2.7-1.2-2.7-2.5c0-0.8,0.3-1.5,0.8-2.1l2.7-3.6L184.2,507.6z M184.3,512.8c0-0.9-0.8-1.7-1.6-1.7s-1.6,0.8-1.6,1.6
		c0,0.9,0.8,1.6,1.6,1.6C183.5,514.4,184.3,513.7,184.3,512.8z"/>
	<path class="st2" d="M189.9,508.2l0.6-0.9h1.7v7.9h-0.9v-6.9h-1.4V508.2z"/>
	<path class="st2" d="M199.2,507.6l-2.1,2.8l0,0c0.2-0.1,0.5-0.2,0.8-0.2c1.3,0,2.3,1.2,2.3,2.4c0,1.4-1.2,2.5-2.5,2.5
		c-1.4,0-2.7-1.2-2.7-2.5c0-0.8,0.3-1.5,0.8-2.1l2.7-3.6L199.2,507.6z M199.4,512.8c0-0.9-0.8-1.7-1.6-1.7s-1.6,0.8-1.6,1.6
		c0,0.9,0.8,1.6,1.6,1.6C198.5,514.4,199.4,513.7,199.4,512.8z"/>
	<path class="st2" d="M203.6,508.2l-0.5,1.6h0.6c1.5,0,2.5,1.3,2.5,2.8c0,1.6-1.3,2.8-2.9,2.8c-0.9,0-2-0.5-2.4-1.4l0.7-0.7
		c0.2,0.7,1,1.2,1.7,1.2c1,0,1.9-0.9,1.9-2c0-1-0.8-1.9-1.9-1.9c-0.6,0-1.2,0.2-1.5,0.7h-0.2l1.2-4h3.1v0.9H203.6L203.6,508.2z"/>
</g>
<g>
	<path class="st2" d="M158.2,490l-0.3,2h1.3l0.3-2h0.8l-0.3,2h0.9v0.8h-1.2l-0.2,1.6h1v0.8h-1.3l-0.3,2.2h-0.8l0.3-2.2h-1.3
		l-0.5,2.2h-0.8l0.3-2.2h-1v-0.8h1.2l0.2-1.6h-1V492h1.3l0.3-2H158.2z M157.5,494.3h1.3l0.2-1.6h-1.3L157.5,494.3z"/>
	<path class="st2" d="M162.9,490.4v2.2h2.8v0.9h-2.8v3.8H162v-7.9h3.8v0.9L162.9,490.4L162.9,490.4z"/>
	<path class="st2" d="M172.6,491c-0.6-0.5-1.4-0.8-2.1-0.8c-1.7,0-3.1,1.5-3.1,3.2s1.4,3.2,3.1,3.2c0.8,0,1.5-0.3,2.1-0.8v1.2
		c-0.6,0.3-1.4,0.6-2.1,0.6c-2.2,0-4-1.7-4-4s1.9-4.2,4.2-4.2c0.7,0,1.4,0.1,2,0.6C172.6,490,172.6,491,172.6,491z"/>
	<path class="st2" d="M174.8,493.3c-0.7-0.3-1-1-1-1.7c0-1.3,1-2.2,2.2-2.2c1.3,0,2.2,0.9,2.2,2.2c0,0.8-0.3,1.4-1,1.7
		c0.8,0.2,1.3,1,1.3,1.9c0,1.5-1.2,2.3-2.4,2.3s-2.4-0.9-2.4-2.3C173.6,494.3,174,493.5,174.8,493.3z M174.5,495.2
		c0,0.8,0.7,1.5,1.5,1.5s1.5-0.7,1.5-1.5s-0.7-1.5-1.5-1.5C175.2,493.8,174.5,494.3,174.5,495.2z M174.7,491.6
		c0,0.6,0.7,1.4,1.4,1.4s1.4-0.7,1.4-1.4s-0.6-1.4-1.4-1.4S174.7,490.8,174.7,491.6z"/>
	<path class="st2" d="M180.9,493.3c-0.7-0.3-1-1-1-1.7c0-1.3,1-2.2,2.2-2.2c1.3,0,2.2,0.9,2.2,2.2c0,0.8-0.3,1.4-1,1.7
		c0.8,0.2,1.3,1,1.3,1.9c0,1.5-1.2,2.3-2.4,2.3c-1.3,0-2.4-0.9-2.4-2.3C179.6,494.3,180,493.5,180.9,493.3z M180.5,495.2
		c0,0.8,0.7,1.5,1.5,1.5s1.5-0.7,1.5-1.5s-0.7-1.5-1.5-1.5C181.2,493.8,180.5,494.3,180.5,495.2z M180.7,491.6
		c0,0.6,0.7,1.4,1.4,1.4s1.4-0.7,1.4-1.4s-0.6-1.4-1.4-1.4S180.7,490.8,180.7,491.6z"/>
	<path class="st2" d="M186.9,495.4l-0.9,2h-1l3.7-8.2l3.7,8.2h-0.9l-0.9-2H186.9z M188.7,491.3l-1.4,3.1h2.8L188.7,491.3z"/>
	<path class="st2" d="M195.4,490.4L195,492h0.6c1.5,0,2.5,1.3,2.5,2.8c0,1.6-1.3,2.8-2.9,2.8c-0.9,0-2-0.5-2.4-1.4l0.7-0.7
		c0.2,0.7,1,1.2,1.7,1.2c1,0,1.9-0.9,1.9-2c0-1-0.8-1.9-1.9-1.9c-0.6,0-1.2,0.2-1.5,0.7h-0.2l1.2-4h3.1v0.9H195.4L195.4,490.4z"/>
</g>
<g>
	<path class="st2" d="M158.6,526.4l-2.1,2.8l0,0c0.2-0.1,0.5-0.2,0.8-0.2c1.3,0,2.3,1.2,2.3,2.4c0,1.4-1.2,2.5-2.5,2.5
		c-1.4,0-2.7-1.2-2.7-2.5c0-0.8,0.3-1.5,0.8-2.1l2.7-3.6L158.6,526.4z M158.7,531.6c0-0.9-0.8-1.7-1.6-1.7s-1.6,0.8-1.6,1.6
		c0,0.9,0.8,1.6,1.6,1.6C157.9,533.2,158.7,532.5,158.7,531.6z"/>
	<path class="st2" d="M166,527l-0.5,1.6h0.6c1.5,0,2.5,1.3,2.5,2.8c0,1.6-1.3,2.8-2.9,2.8c-0.9,0-2-0.5-2.4-1.4l0.7-0.7
		c0.2,0.7,1,1.2,1.7,1.2c1,0,1.9-0.9,1.9-2c0-1-0.8-1.9-1.9-1.9c-0.6,0-1.2,0.2-1.5,0.7H164l1.2-4h3.1v0.9L166,527L166,527z"/>
	<path class="st2" d="M170.5,533.6l2.1-2.8l0,0c-0.2,0.1-0.5,0.1-0.8,0.1c-1.3,0-2.3-1.2-2.3-2.4c0-1.4,1.2-2.5,2.5-2.5
		c1.4,0,2.7,1.2,2.7,2.5c0,0.8-0.3,1.5-0.8,2.1l-2.7,3.6L170.5,533.6z M173.9,528.5c0-0.8-0.7-1.6-1.6-1.6c-0.9,0-1.7,0.7-1.7,1.6
		c0,0.9,0.8,1.6,1.6,1.6C173.2,530.1,173.9,529.3,173.9,528.5z"/>
	<path class="st2" d="M179.3,527l0.6-0.9h1.7v7.9h-0.9v-7H179.3z"/>
	<path class="st2" d="M186.9,529.4c0.8,0,1.5-0.3,1.5-1.3c0-0.8-0.6-1.4-1.4-1.4c-0.7,0-1.2,0.5-1.3,1.2h-0.9c0.2-1.3,1-2,2.3-2
		s2.3,0.8,2.3,2.1c0,0.8-0.3,1.4-1,1.7c0.8,0.3,1.2,1.2,1.2,2c0,1.5-1.2,2.3-2.5,2.3s-2.3-0.8-2.4-2.1h0.9c0.1,0.8,0.8,1.3,1.5,1.3
		c0.9,0,1.5-0.7,1.5-1.5c0-1-0.7-1.6-1.6-1.5L186.9,529.4L186.9,529.4z"/>
	<path class="st2" d="M193.3,530c0-1.6,0.7-4,2.8-4s2.8,2.4,2.8,4s-0.7,4-2.8,4C194.1,534.1,193.3,531.6,193.3,530z M194.3,530
		c0,1,0.3,3.2,1.9,3.2c1.5,0,1.9-2.2,1.9-3.2s-0.3-3.2-1.9-3.2C194.7,526.7,194.3,528.9,194.3,530z"/>
</g>
<circle class="st3" cx="284.2" cy="422.3" r="45"/>
<g>
	<path class="st2" d="M259.6,514.2v0.9h-5.1l3.5-4.2c0.3-0.3,0.7-0.9,0.7-1.4c0-0.8-0.7-1.5-1.5-1.5s-1.5,0.7-1.5,1.4h-1
		c0.1-1.4,1-2.3,2.5-2.3c1.4,0,2.4,1,2.4,2.3c0,0.6-0.2,1.2-0.6,1.6l-2.5,3.1L259.6,514.2L259.6,514.2z"/>
	<path class="st2" d="M262.9,510.6c0.8,0,1.5-0.3,1.5-1.3c0-0.8-0.6-1.4-1.4-1.4c-0.7,0-1.2,0.5-1.3,1.2h-0.9c0.2-1.3,1-2,2.3-2
		s2.3,0.8,2.3,2.1c0,0.8-0.3,1.4-1,1.7c0.8,0.3,1.2,1.2,1.2,2c0,1.5-1.2,2.3-2.5,2.3s-2.3-0.8-2.4-2.1h0.9c0.1,0.8,0.8,1.3,1.5,1.3
		c0.9,0,1.5-0.7,1.5-1.5c0-1-0.7-1.6-1.6-1.5L262.9,510.6L262.9,510.6z"/>
	<path class="st2" d="M267.8,511.1c-0.7-0.3-1-1-1-1.7c0-1.3,1-2.2,2.2-2.2c1.3,0,2.2,0.9,2.2,2.2c0,0.8-0.3,1.4-1,1.7
		c0.8,0.2,1.3,1,1.3,1.9c0,1.5-1.2,2.3-2.4,2.3s-2.4-0.9-2.4-2.3C266.6,512.1,267,511.3,267.8,511.1z M267.6,512.9
		c0,0.8,0.7,1.5,1.5,1.5s1.5-0.7,1.5-1.5s-0.7-1.5-1.5-1.5C268.3,511.5,267.6,512.1,267.6,512.9z M267.7,509.3
		c0,0.6,0.7,1.4,1.4,1.4s1.4-0.7,1.4-1.4c0-0.7-0.6-1.4-1.4-1.4C268.4,507.9,267.7,508.5,267.7,509.3z"/>
	<path class="st2" d="M276.3,508.2l0.6-0.9h1.7v7.9h-0.9v-6.9h-1.4V508.2z"/>
	<path class="st2" d="M282.4,508.2l0.6-0.9h1.7v7.9h-0.9v-6.9h-1.4V508.2z"/>
	<path class="st2" d="M290,510.6c0.8,0,1.5-0.3,1.5-1.3c0-0.8-0.6-1.4-1.4-1.4c-0.7,0-1.2,0.5-1.3,1.2h-0.9c0.2-1.3,1-2,2.3-2
		s2.3,0.8,2.3,2.1c0,0.8-0.3,1.4-1,1.7c0.8,0.3,1.2,1.2,1.2,2c0,1.5-1.2,2.3-2.5,2.3s-2.3-0.8-2.4-2.1h0.9c0.1,0.8,0.8,1.3,1.5,1.3
		c0.9,0,1.5-0.7,1.5-1.5c0-1-0.7-1.6-1.6-1.5L290,510.6L290,510.6z"/>
	<path class="st2" d="M297.4,508.2l0.6-0.9h1.7v7.9h-0.9v-6.9h-1.4V508.2z"/>
	<path class="st2" d="M307.9,513.1v0.8H307v1.2h-0.9v-1.2h-3.8l4.9-7.1v6.1h0.8v0.2H307.9z M306.1,509.9L306.1,509.9l-2.2,3.2h2.2
		V509.9z"/>
	<path class="st2" d="M311.2,508.2l-0.5,1.6h0.6c1.5,0,2.5,1.3,2.5,2.8c0,1.6-1.3,2.8-2.9,2.8c-0.9,0-2-0.5-2.4-1.4l0.7-0.7
		c0.2,0.7,1,1.2,1.7,1.2c1,0,1.9-0.9,1.9-2c0-1-0.8-1.9-1.9-1.9c-0.6,0-1.2,0.2-1.5,0.7h-0.2l1.2-4h3.1v0.9H311.2L311.2,508.2z"/>
</g>
<g>
	<path class="st2" d="M267.9,489.7l-0.3,2h1.3l0.3-2h0.8l-0.3,2h0.9v0.8h-1.2l-0.2,1.6h1v0.8h-1.3l-0.3,2.2h-0.8l0.3-2.2h-1.3
		l-0.5,2.2h-0.8l0.3-2.2h-1v-0.8h1.2l0.2-1.6h-0.8v-0.8h1.3l0.3-2H267.9z M267.1,494.1h1.3l0.2-1.6h-1.3L267.1,494.1z"/>
	<path class="st2" d="M271.6,489.3h4.2v0.9h-3.2v2.2h3.1v0.9h-3.1v3h3.2v0.9h-4.2V489.3z"/>
	<path class="st2" d="M277,489.3h4.2v0.9H278v2.2h3.1v0.9H278v3h3.2v0.9H277V489.3z"/>
	<path class="st2" d="M282.2,490.2v-0.9h5.7l-4.9,8l-0.8-0.5l4-6.7h-4L282.2,490.2L282.2,490.2z"/>
	<path class="st2" d="M289.1,490.2l0.6-0.9h1.7v7.9h-0.9v-6.9h-1.4V490.2z"/>
	<path class="st2" d="M295.3,496.8l2.1-2.8l0,0c-0.2,0.1-0.5,0.1-0.8,0.1c-1.3,0-2.3-1.2-2.3-2.4c0-1.4,1.2-2.5,2.5-2.5
		c1.4,0,2.7,1.2,2.7,2.5c0,0.8-0.3,1.5-0.8,2.1l-2.7,3.6L295.3,496.8z M298.5,491.7c0-0.8-0.7-1.6-1.6-1.6s-1.7,0.7-1.7,1.6
		s0.8,1.6,1.6,1.6C297.9,493.3,298.5,492.5,298.5,491.7z"/>
	<path class="st2" d="M301.1,490.2l0.6-0.9h1.7v7.9h-0.9v-6.9h-1.4V490.2z"/>
</g>
<g>
	<path class="st2" d="M267,533.1v0.9h-5.1l3.5-4.2c0.3-0.3,0.7-0.9,0.7-1.4c0-0.8-0.7-1.5-1.5-1.5s-1.5,0.7-1.5,1.4h-1
		c0.1-1.4,1-2.3,2.5-2.3c1.4,0,2.4,1,2.4,2.3c0,0.6-0.2,1.2-0.6,1.6l-2.5,3.1h3.1V533.1z"/>
	<path class="st2" d="M271,527.1v-0.9h5.7l-4.9,8l-0.8-0.5l4-6.7h-4L271,527.1L271,527.1z"/>
	<path class="st2" d="M276.8,530.1c0-1.6,0.7-4,2.8-4c2.1,0,2.8,2.4,2.8,4s-0.7,4-2.8,4C277.4,534.3,276.8,531.7,276.8,530.1z
		 M277.7,530.1c0,1,0.3,3.2,1.9,3.2c1.4,0,1.9-2.2,1.9-3.2s-0.3-3.2-1.9-3.2C278.1,526.9,277.7,529,277.7,530.1z"/>
	<path class="st2" d="M291.1,533.1v0.9H286l3.5-4.2c0.3-0.3,0.7-0.9,0.7-1.4c0-0.8-0.7-1.5-1.5-1.5s-1.5,0.7-1.5,1.4h-0.9
		c0.1-1.4,1-2.3,2.5-2.3c1.4,0,2.4,1,2.4,2.3c0,0.6-0.2,1.2-0.6,1.6l-2.5,3.1h3V533.1z"/>
	<path class="st2" d="M292.8,527.1l0.6-0.9h1.7v7.9h-0.9v-6.9L292.8,527.1L292.8,527.1z"/>
	<path class="st2" d="M300.8,530.1c0-1.6,0.7-4,2.8-4c2.1,0,2.8,2.4,2.8,4s-0.7,4-2.8,4C301.5,534.3,300.8,531.7,300.8,530.1z
		 M301.7,530.1c0,1,0.3,3.2,1.9,3.2s1.9-2.2,1.9-3.2s-0.3-3.2-1.9-3.2S301.7,529,301.7,530.1z"/>
</g>
<circle class="st4" cx="391.7" cy="422.3" r="45"/>
<g>
	<path class="st2" d="M362.4,508.2l0.6-0.9h1.7v7.9h-0.9v-6.9h-1.4V508.2z"/>
	<path class="st2" d="M372.8,513.1v0.8h-0.9v1.2H371v-1.2h-3.8l4.9-7.1v6.1h0.8v0.2H372.8z M371.1,509.9L371.1,509.9l-2.2,3.2h2.2
		V509.9z"/>
	<path class="st2" d="M374.4,508.2l0.6-0.9h1.7v7.9h-0.9v-6.9h-1.4V508.2z"/>
	<path class="st2" d="M383.5,508.2l0.6-0.9h1.7v7.9h-0.9v-6.9h-1.4V508.2z"/>
	<path class="st2" d="M388.4,511.2c0-1.6,0.7-4,2.8-4s2.8,2.4,2.8,4c0,1.6-0.7,4-2.8,4C389.1,515.3,388.4,512.8,388.4,511.2z
		 M389.4,511.2c0,1,0.3,3.2,1.9,3.2c1.4,0,1.9-2.2,1.9-3.2s-0.3-3.2-1.9-3.2C389.7,507.9,389.4,510.1,389.4,511.2z"/>
	<path class="st2" d="M395.7,514.8l2.1-2.8l0,0c-0.2,0.1-0.5,0.1-0.8,0.1c-1.3,0-2.3-1.2-2.3-2.4c0-1.4,1.2-2.5,2.5-2.5
		s2.7,1.2,2.7,2.5c0,0.8-0.3,1.5-0.8,2.1l-2.7,3.6L395.7,514.8z M399,509.7c0-0.8-0.7-1.6-1.6-1.6s-1.7,0.7-1.7,1.6s0.8,1.6,1.6,1.6
		C398.3,511.3,399,510.5,399,509.7z"/>
	<path class="st2" d="M404.5,508.2l0.6-0.9h1.7v7.9h-0.9v-6.9h-1.4V508.2z"/>
	<path class="st2" d="M409.7,508.2v-0.9h5.7l-4.9,8l-0.8-0.5l4-6.7L409.7,508.2L409.7,508.2L409.7,508.2z"/>
	<path class="st2" d="M418.3,508.2l-0.5,1.6h0.6c1.5,0,2.5,1.3,2.5,2.8c0,1.6-1.3,2.8-2.9,2.8c-0.9,0-2-0.5-2.4-1.4l0.7-0.7
		c0.2,0.7,1,1.2,1.7,1.2c1,0,1.9-0.9,1.9-2c0-1-0.8-1.9-1.9-1.9c-0.6,0-1.2,0.2-1.5,0.7h-0.2l1.2-4h3.1v0.9H418.3L418.3,508.2z"/>
</g>
<g>
	<path class="st2" d="M372.8,490l-0.3,2h1.3l0.3-2h0.8l-0.3,2h0.9v0.8h-1.2l-0.2,1.6h1v0.8h-1.3l-0.3,2.2h-0.8l0.3-2.2h-1.3
		l-0.5,2.2h-0.7l0.3-2.2h-1v-0.8h1.2l0.2-1.6h-1V492h1.3l0.3-2H372.8z M372,494.3h1.3l0.2-1.6h-1.3L372,494.3z"/>
	<path class="st2" d="M377.5,493.3c-0.7-0.3-1-1-1-1.7c0-1.3,1-2.2,2.2-2.2c1.3,0,2.2,0.9,2.2,2.2c0,0.8-0.3,1.4-1,1.7
		c0.8,0.2,1.3,1,1.3,1.9c0,1.5-1.2,2.3-2.4,2.3c-1.3,0-2.4-0.9-2.4-2.3C376.2,494.3,376.7,493.5,377.5,493.3z M377.2,495.2
		c0,0.8,0.7,1.5,1.5,1.5s1.5-0.7,1.5-1.5s-0.7-1.5-1.5-1.5C378,493.8,377.2,494.3,377.2,495.2z M377.4,491.6c0,0.6,0.7,1.4,1.4,1.4
		s1.4-0.7,1.4-1.4s-0.6-1.4-1.4-1.4S377.4,490.8,377.4,491.6z"/>
	<path class="st2" d="M382.4,489.5h1.6c2.4,0,4.4,1.3,4.4,3.9c0,2.7-2,3.9-4.4,3.9h-1.6V489.5z M383.4,496.4h0.3c2,0,3.7-0.7,3.7-3
		s-1.7-3-3.7-3h-0.3V496.4z"/>
	<path class="st2" d="M393.3,489.8l-2.1,2.8l0,0c0.2-0.1,0.5-0.2,0.8-0.2c1.3,0,2.3,1.2,2.3,2.4c0,1.4-1.2,2.5-2.5,2.5
		c-1.4,0-2.7-1.2-2.7-2.5c0-0.8,0.3-1.5,0.8-2.1l2.7-3.6L393.3,489.8z M393.3,495c0-0.9-0.8-1.7-1.6-1.7c-0.8,0-1.6,0.8-1.6,1.6
		c0,0.9,0.8,1.6,1.6,1.6C392.5,496.7,393.3,496,393.3,495z"/>
	<path class="st2" d="M395.3,489.5h1.6c2.4,0,4.4,1.3,4.4,3.9c0,2.7-2,3.9-4.4,3.9h-1.6V489.5z M396.4,496.4h0.3c2,0,3.7-0.7,3.7-3
		s-1.7-3-3.7-3h-0.3V496.4z"/>
	<path class="st2" d="M403.4,495.4l-0.9,2h-1l3.7-8.2l3.7,8.2h-1l-0.9-2H403.4z M405.3,491.3l-1.4,3.1h2.8L405.3,491.3z"/>
	<path class="st2" d="M410.6,490.4v2.2h2.8v0.9h-2.8v3.8h-0.9v-7.9h3.8v0.9L410.6,490.4L410.6,490.4z"/>
</g>
<g>
	<path class="st2" d="M374.9,531.9v0.8H374v1.2h-0.9v-1.2h-3.8l4.9-7.1v6.1h0.8v0.2H374.9z M373.2,528.7L373.2,528.7l-2.2,3.2h2.2
		V528.7z"/>
	<path class="st2" d="M376.8,533.6l2.1-2.8l0,0c-0.2,0.1-0.5,0.1-0.8,0.1c-1.3,0-2.3-1.2-2.3-2.4c0-1.4,1.2-2.5,2.5-2.5
		c1.4,0,2.7,1.2,2.7,2.5c0,0.8-0.3,1.5-0.8,2.1l-2.7,3.6L376.8,533.6z M380,528.5c0-0.8-0.7-1.6-1.6-1.6s-1.7,0.7-1.7,1.6
		c0,0.9,0.8,1.6,1.6,1.6C379.3,530.1,380,529.3,380,528.5z"/>
	<path class="st2" d="M388.9,526.4l-2.1,2.8l0,0c0.2-0.1,0.5-0.2,0.8-0.2c1.3,0,2.3,1.2,2.3,2.4c0,1.4-1.2,2.5-2.5,2.5
		s-2.7-1.2-2.7-2.5c0-0.8,0.3-1.5,0.8-2.1l2.7-3.6L388.9,526.4z M388.9,531.6c0-0.9-0.8-1.7-1.6-1.7c-0.8,0-1.6,0.8-1.6,1.6
		c0,0.9,0.8,1.6,1.6,1.6C388.1,533.2,388.9,532.5,388.9,531.6z"/>
	<path class="st2" d="M396.1,531.9v0.8h-0.9v1.2h-0.9v-1.2h-3.8l4.9-7.1v6.1h0.8v0.2H396.1z M394.2,528.7L394.2,528.7l-2.2,3.2h2.2
		V528.7z"/>
	<path class="st2" d="M399.5,530c0-1.6,0.7-4,2.8-4c2.1,0,2.8,2.4,2.8,4s-0.7,4-2.8,4C400.2,534.1,399.5,531.6,399.5,530z
		 M400.5,530c0,1,0.3,3.2,1.9,3.2c1.5,0,1.9-2.2,1.9-3.2s-0.3-3.2-1.9-3.2C400.8,526.7,400.5,528.9,400.5,530z"/>
	<path class="st2" d="M408.6,530c0-1.6,0.7-4,2.8-4s2.8,2.4,2.8,4s-0.7,4-2.8,4C409.2,534.1,408.6,531.6,408.6,530z M409.5,530
		c0,1,0.3,3.2,1.9,3.2c1.5,0,1.9-2.2,1.9-3.2s-0.3-3.2-1.9-3.2C409.8,526.7,409.5,528.9,409.5,530z"/>
</g>
<circle class="st5" cx="499.2" cy="422.3" r="45"/>
<g>
	<path class="st2" d="M472.8,508.3l0.6-0.9h1.7v7.9h-0.9v-6.9h-1.4V508.3z"/>
	<path class="st2" d="M477.9,511.3c0-1.6,0.7-4,2.8-4c2.1,0,2.8,2.4,2.8,4c0,1.6-0.7,4-2.8,4C478.6,515.4,477.9,512.9,477.9,511.3z
		 M478.8,511.3c0,1,0.3,3.2,1.9,3.2c1.4,0,1.9-2.2,1.9-3.2s-0.3-3.2-1.9-3.2C479.2,508,478.8,510.2,478.8,511.3z"/>
	<path class="st2" d="M484.8,508.3l0.6-0.9h1.7v7.9h-0.9v-6.9h-1.4V508.3z"/>
	<path class="st2" d="M493.2,508.3v-0.9h5.7l-4.9,8l-0.8-0.5l4-6.7L493.2,508.3L493.2,508.3L493.2,508.3z"/>
	<path class="st2" d="M499.9,508.3l0.6-0.9h1.7v7.9h-0.9v-6.9h-1.4V508.3z"/>
	<path class="st2" d="M508.9,508.3l0.6-0.9h1.7v7.9h-0.9v-6.9h-1.4V508.3z"/>
	<path class="st2" d="M516.5,510.7c0.8,0,1.5-0.3,1.5-1.3c0-0.8-0.6-1.4-1.4-1.4c-0.7,0-1.2,0.5-1.3,1.2h-0.9c0.2-1.3,1-2,2.3-2
		s2.3,0.8,2.3,2.1c0,0.8-0.3,1.4-1,1.7c0.8,0.3,1.2,1.2,1.2,2c0,1.5-1.2,2.3-2.5,2.3s-2.3-0.8-2.4-2.1h0.9c0.1,0.8,0.8,1.3,1.5,1.3
		c0.9,0,1.5-0.7,1.5-1.5c0-1-0.7-1.6-1.6-1.5L516.5,510.7L516.5,510.7z"/>
	<path class="st2" d="M520,511.3c0-1.6,0.7-4,2.8-4s2.8,2.4,2.8,4c0,1.6-0.7,4-2.8,4C520.7,515.4,520,512.9,520,511.3z M520.9,511.3
		c0,1,0.3,3.2,1.9,3.2c1.4,0,1.9-2.2,1.9-3.2s-0.3-3.2-1.9-3.2C521.3,508,520.9,510.2,520.9,511.3z"/>
</g>
<g>
	<path class="st2" d="M481.4,490l-0.3,2h1.3l0.3-2h0.8l-0.3,2h0.9v0.8h-1.2l-0.2,1.6h1v0.8h-1.3l-0.3,2.2h-0.8l0.3-2.2h-1.3
		l-0.5,2.2H479l0.3-2.2h-1v-0.8h1.2l0.2-1.6h-1V492h1.3l0.3-2H481.4z M480.6,494.3h1.3l0.2-1.6h-1.3L480.6,494.3z"/>
	<path class="st2" d="M488.9,489.8l-2.1,2.8l0,0c0.2-0.1,0.5-0.2,0.8-0.2c1.3,0,2.3,1.2,2.3,2.4c0,1.4-1.2,2.5-2.5,2.5
		c-1.4,0-2.7-1.2-2.7-2.5c0-0.8,0.3-1.5,0.8-2.1l2.7-3.6L488.9,489.8z M489,495c0-0.9-0.8-1.7-1.6-1.7c-0.8,0-1.6,0.8-1.6,1.6
		c0,0.9,0.8,1.6,1.6,1.6C488.2,496.7,489,496,489,495z"/>
	<path class="st2" d="M493.3,490.4l-0.5,1.6h0.6c1.5,0,2.5,1.3,2.5,2.8c0,1.6-1.3,2.8-2.9,2.8c-0.9,0-2-0.5-2.4-1.4l0.7-0.7
		c0.2,0.7,1,1.2,1.7,1.2c1,0,1.9-0.9,1.9-2c0-1-0.8-1.9-1.9-1.9c-0.6,0-1.2,0.2-1.5,0.7h-0.1l1.2-4h3.1v0.9H493.3L493.3,490.4z"/>
	<path class="st2" d="M502.1,495.4v0.8h-0.9v1.2h-0.9v-1.2h-3.8l4.9-7.1v6.1h0.8v0.2H502.1z M500.2,492.1L500.2,492.1l-2.2,3.2h2.2
		V492.1z"/>
	<path class="st2" d="M502.9,490.4v-0.9h5.7l-4.9,8l-0.8-0.5l4-6.7h-4L502.9,490.4L502.9,490.4z"/>
	<path class="st2" d="M510.2,493.3c-0.7-0.3-1-1-1-1.7c0-1.3,1-2.2,2.2-2.2c1.3,0,2.2,0.9,2.2,2.2c0,0.8-0.3,1.4-1,1.7
		c0.8,0.2,1.3,1,1.3,1.9c0,1.5-1.2,2.3-2.4,2.3s-2.4-0.9-2.4-2.3C508.9,494.3,509.4,493.5,510.2,493.3z M509.8,495.2
		c0,0.8,0.7,1.5,1.5,1.5s1.5-0.7,1.5-1.5s-0.7-1.5-1.5-1.5C510.5,493.8,509.8,494.3,509.8,495.2z M510.1,491.6
		c0,0.6,0.7,1.4,1.4,1.4c0.7,0,1.4-0.7,1.4-1.4s-0.6-1.4-1.4-1.4C510.6,490.2,510.1,490.8,510.1,491.6z"/>
	<path class="st2" d="M519.9,496.4v0.9h-5.1l3.5-4.2c0.3-0.3,0.7-0.9,0.7-1.4c0-0.8-0.7-1.5-1.5-1.5s-1.5,0.7-1.5,1.4h-1
		c0.1-1.4,1-2.3,2.5-2.3c1.4,0,2.4,1,2.4,2.3c0,0.6-0.2,1.2-0.6,1.6l-2.5,3.1h3.1V496.4z"/>
</g>
<g>
	<path class="st2" d="M474,527v-1h5.7l-4.9,8l-0.8-0.5l4-6.7h-4L474,527L474,527z"/>
	<path class="st2" d="M480.8,527l0.6-0.9h1.7v7.9h-0.9v-7H480.8z"/>
	<path class="st2" d="M490.4,529.9c-0.7-0.3-1-1-1-1.7c0-1.3,1-2.2,2.2-2.2s2.2,0.9,2.2,2.2c0,0.8-0.3,1.4-1,1.7
		c0.8,0.2,1.3,1,1.3,1.9c0,1.5-1.2,2.3-2.4,2.3s-2.4-0.9-2.4-2.3C489.1,530.9,489.6,530.1,490.4,529.9z M490.1,531.7
		c0,0.8,0.7,1.5,1.5,1.5s1.5-0.7,1.5-1.5s-0.7-1.5-1.5-1.5S490.1,530.9,490.1,531.7z M490.3,528.1c0,0.6,0.7,1.4,1.4,1.4
		c0.7,0,1.4-0.7,1.4-1.4s-0.6-1.4-1.4-1.4C490.9,526.7,490.3,527.3,490.3,528.1z"/>
	<path class="st2" d="M497.5,529.4c0.8,0,1.5-0.3,1.5-1.3c0-0.8-0.6-1.4-1.4-1.4c-0.7,0-1.2,0.5-1.3,1.2h-0.9c0.2-1.3,1-2,2.3-2
		s2.3,0.8,2.3,2.1c0,0.8-0.3,1.4-1,1.7c0.8,0.3,1.2,1.2,1.2,2c0,1.5-1.2,2.3-2.5,2.3s-2.3-0.8-2.4-2.1h0.9c0.1,0.8,0.8,1.3,1.5,1.3
		c0.9,0,1.5-0.7,1.5-1.5c0-1-0.7-1.6-1.6-1.5L497.5,529.4L497.5,529.4z"/>
	<path class="st2" d="M509.1,533v0.9H504l3.5-4.2c0.3-0.3,0.7-0.9,0.7-1.4c0-0.8-0.7-1.5-1.5-1.5s-1.5,0.7-1.5,1.4h-0.9
		c0.1-1.4,1-2.3,2.5-2.3c1.4,0,2.4,1,2.4,2.3c0,0.6-0.2,1.2-0.6,1.6l-2.5,3.1h3V533z"/>
	<path class="st2" d="M509.9,530c0-1.6,0.7-4,2.8-4c2.1,0,2.8,2.4,2.8,4s-0.7,4-2.8,4C510.6,534.1,509.9,531.6,509.9,530z
		 M510.9,530c0,1,0.3,3.2,1.9,3.2c1.4,0,1.9-2.2,1.9-3.2s-0.3-3.2-1.9-3.2C511.2,526.7,510.9,528.9,510.9,530z"/>
	<path class="st2" d="M521.7,527l-0.5,1.6h0.6c1.5,0,2.5,1.3,2.5,2.8c0,1.6-1.3,2.8-2.9,2.8c-0.9,0-2-0.5-2.4-1.4l0.7-0.7
		c0.2,0.7,1,1.2,1.7,1.2c1,0,1.9-0.9,1.9-2s-0.8-1.9-1.9-1.9c-0.6,0-1.2,0.2-1.5,0.7h-0.2l1.2-4h3.1v0.9L521.7,527L521.7,527z"/>
</g>
<circle class="st6" cx="606.7" cy="422.3" r="45"/>
<g>
	<path class="st2" d="M582.1,514.3v0.9H577l3.5-4.2c0.3-0.3,0.7-0.9,0.7-1.4c0-0.8-0.7-1.5-1.5-1.5s-1.5,0.7-1.5,1.4h-0.9
		c0.1-1.4,1-2.3,2.5-2.3c1.4,0,2.4,1,2.4,2.3c0,0.6-0.2,1.2-0.6,1.6l-2.5,3.1L582.1,514.3L582.1,514.3z"/>
	<path class="st2" d="M588.1,514.3v0.9H583l3.5-4.2c0.3-0.3,0.7-0.9,0.7-1.4c0-0.8-0.7-1.5-1.5-1.5s-1.5,0.7-1.5,1.4h-0.9
		c0.1-1.4,1-2.3,2.5-2.3c1.4,0,2.4,1,2.4,2.3c0,0.6-0.2,1.2-0.6,1.6l-2.5,3.1L588.1,514.3L588.1,514.3z"/>
	<path class="st2" d="M594.1,514.3v0.9H589l3.5-4.2c0.3-0.3,0.7-0.9,0.7-1.4c0-0.8-0.7-1.5-1.5-1.5s-1.5,0.7-1.5,1.4h-0.9
		c0.1-1.4,1-2.3,2.5-2.3c1.4,0,2.4,1,2.4,2.3c0,0.6-0.2,1.2-0.6,1.6l-2.5,3.1L594.1,514.3L594.1,514.3z"/>
	<path class="st2" d="M598.8,508.3l0.6-0.9h1.7v7.9h-0.9v-6.9h-1.4V508.3z"/>
	<path class="st2" d="M609.1,514.3v0.9H604l3.5-4.2c0.3-0.3,0.7-0.9,0.7-1.4c0-0.8-0.7-1.5-1.5-1.5s-1.5,0.7-1.5,1.4h-0.9
		c0.1-1.4,1-2.3,2.5-2.3c1.4,0,2.4,1,2.4,2.3c0,0.6-0.2,1.2-0.6,1.6l-2.5,3.1L609.1,514.3L609.1,514.3z"/>
	<path class="st2" d="M610.1,508.3v-0.9h5.7l-4.9,8l-0.8-0.5l4-6.7L610.1,508.3L610.1,508.3z"/>
	<path class="st2" d="M619.9,508.3l0.6-0.9h1.7v7.9h-0.9v-6.9h-1.4V508.3z"/>
	<path class="st2" d="M629.3,507.7l-2.1,2.8l0,0c0.2-0.1,0.5-0.2,0.8-0.2c1.3,0,2.3,1.2,2.3,2.4c0,1.4-1.2,2.5-2.5,2.5
		s-2.7-1.2-2.7-2.5c0-0.8,0.3-1.5,0.8-2.1l2.7-3.6L629.3,507.7z M629.4,512.9c0-0.9-0.8-1.7-1.6-1.7s-1.6,0.8-1.6,1.6
		c0,0.9,0.8,1.6,1.6,1.6C628.6,514.5,629.4,513.8,629.4,512.9z"/>
	<path class="st2" d="M630.9,511.3c0-1.6,0.7-4,2.8-4s2.8,2.4,2.8,4c0,1.6-0.7,4-2.8,4C631.7,515.4,630.9,512.9,630.9,511.3z
		 M631.9,511.3c0,1,0.3,3.2,1.9,3.2c1.4,0,1.9-2.2,1.9-3.2s-0.3-3.2-1.9-3.2S631.9,510.2,631.9,511.3z"/>
</g>
<g>
	<path class="st2" d="M588.7,490l-0.3,2h1.3l0.3-2h0.8l-0.3,2h0.9v0.8h-1.2l-0.2,1.6h1v0.8h-1.3l-0.3,2.2h-0.8l0.3-2.2h-1.3
		l-0.5,2.2h-0.8l0.3-2.2h-0.8v-0.8h1.2l0.2-1.6h-1V492h1.3l0.3-2H588.7z M588,494.3h1.3l0.2-1.6h-1.3L588,494.3z"/>
	<path class="st2" d="M592.4,489.5h1.6c2.4,0,4.4,1.3,4.4,3.9c0,2.7-2,3.9-4.4,3.9h-1.6V489.5z M593.3,496.4h0.3c2,0,3.7-0.7,3.7-3
		s-1.7-3-3.7-3h-0.3V496.4z"/>
	<path class="st2" d="M599.3,489.5h4.2v0.9h-3.2v2.2h3.1v0.9h-3.1v3h3.2v0.9h-4.2V489.5z"/>
	<path class="st2" d="M604.5,490.4v-0.9h5.7l-4.9,8l-0.8-0.5l4-6.7h-4V490.4z"/>
	<path class="st2" d="M611.8,490.4v2.2h2.8v0.9h-2.8v3.8h-0.9v-7.9h3.8v0.9L611.8,490.4L611.8,490.4z"/>
	<path class="st2" d="M616.2,495.4l-0.9,2h-1l3.7-8.2l3.7,8.2h-1l-0.9-2H616.2z M618,491.3l-1.4,3.1h2.8L618,491.3z"/>
	<path class="st2" d="M622,493.4c0-1.6,0.7-4,2.8-4s2.8,2.4,2.8,4s-0.7,4-2.8,4C622.7,497.6,622,495,622,493.4z M622.9,493.4
		c0,1,0.3,3.2,1.9,3.2c1.4,0,1.9-2.2,1.9-3.2s-0.3-3.2-1.9-3.2S622.9,492.4,622.9,493.4z"/>
</g>
<g>
	<path class="st2" d="M585.5,533.6l2.1-2.8l0,0c-0.2,0.1-0.5,0.1-0.8,0.1c-1.3,0-2.3-1.2-2.3-2.4c0-1.4,1.2-2.5,2.5-2.5
		c1.4,0,2.7,1.2,2.7,2.5c0,0.8-0.3,1.5-0.8,2.1l-2.7,3.6L585.5,533.6z M588.9,528.5c0-0.8-0.7-1.6-1.6-1.6c-0.9,0-1.7,0.7-1.7,1.6
		c0,0.9,0.8,1.6,1.6,1.6C588.2,530.1,588.9,529.3,588.9,528.5z"/>
	<path class="st2" d="M597.7,526.4l-2.1,2.8l0,0c0.2-0.1,0.5-0.2,0.8-0.2c1.3,0,2.3,1.2,2.3,2.4c0,1.4-1.2,2.5-2.5,2.5
		s-2.7-1.2-2.7-2.5c0-0.8,0.3-1.5,0.8-2.1l2.7-3.6L597.7,526.4z M597.7,531.6c0-0.9-0.8-1.7-1.6-1.7s-1.6,0.8-1.6,1.6
		c0,0.9,0.8,1.6,1.6,1.6C597,533.2,597.7,532.5,597.7,531.6z"/>
	<path class="st2" d="M604.6,533v0.9h-5.1l3.5-4.2c0.3-0.3,0.7-0.9,0.7-1.4c0-0.8-0.7-1.5-1.5-1.5s-1.5,0.7-1.5,1.4h-0.9
		c0.1-1.4,1-2.3,2.5-2.3c1.4,0,2.4,1,2.4,2.3c0,0.6-0.2,1.2-0.6,1.6l-2.5,3.1h3V533z"/>
	<path class="st2" d="M609.4,527l0.6-0.9h1.7v7.9h-0.9v-7H609.4z"/>
	<path class="st2" d="M617.1,527l-0.5,1.6h0.6c1.5,0,2.5,1.3,2.5,2.8c0,1.6-1.3,2.8-2.9,2.8c-0.9,0-2-0.5-2.4-1.4l0.7-0.7
		c0.2,0.7,1,1.2,1.7,1.2c1,0,1.9-0.9,1.9-2c0-1-0.8-1.9-1.9-1.9c-0.6,0-1.2,0.2-1.5,0.7h-0.2l1.2-4h3.1v0.9L617.1,527L617.1,527z"/>
	<path class="st2" d="M623.4,530c0-1.6,0.7-4,2.8-4s2.8,2.4,2.8,4s-0.7,4-2.8,4C624.2,534.1,623.4,531.6,623.4,530z M624.4,530
		c0,1,0.3,3.2,1.9,3.2c1.4,0,1.9-2.2,1.9-3.2s-0.3-3.2-1.9-3.2C624.7,526.7,624.4,528.9,624.4,530z"/>
</g>
<circle class="st7" cx="714.2" cy="422.3" r="45"/>
<g>
	<path class="st2" d="M692.6,514.2v0.9h-5.1l3.5-4.2c0.3-0.3,0.7-0.9,0.7-1.4c0-0.8-0.7-1.5-1.5-1.5s-1.5,0.7-1.5,1.4h-0.9
		c0.1-1.4,1-2.3,2.5-2.3c1.4,0,2.4,1,2.4,2.3c0,0.6-0.2,1.2-0.6,1.6l-2.5,3.1L692.6,514.2L692.6,514.2z"/>
	<path class="st2" d="M693.3,511.2c0-1.6,0.7-4,2.8-4s2.8,2.4,2.8,4c0,1.6-0.7,4-2.8,4C694,515.3,693.3,512.8,693.3,511.2z
		 M694.2,511.2c0,1,0.3,3.2,1.9,3.2c1.4,0,1.9-2.2,1.9-3.2s-0.3-3.2-1.9-3.2C694.7,507.9,694.2,510.1,694.2,511.2z"/>
	<path class="st2" d="M700.3,508.2l0.6-0.9h1.7v7.9h-0.9v-6.9h-1.4V508.2z"/>
	<path class="st2" d="M709.6,514.8l2.1-2.8l0,0c-0.2,0.1-0.5,0.1-0.8,0.1c-1.3,0-2.3-1.2-2.3-2.4c0-1.4,1.2-2.5,2.5-2.5
		c1.4,0,2.7,1.2,2.7,2.5c0,0.8-0.3,1.5-0.8,2.1l-2.7,3.6L709.6,514.8z M712.8,509.7c0-0.8-0.7-1.6-1.6-1.6c-0.9,0-1.7,0.7-1.7,1.6
		s0.8,1.6,1.6,1.6C712.3,511.3,712.8,510.5,712.8,509.7z"/>
	<path class="st2" d="M715.6,514.8l2.1-2.8l0,0c-0.2,0.1-0.5,0.1-0.8,0.1c-1.3,0-2.3-1.2-2.3-2.4c0-1.4,1.2-2.5,2.5-2.5
		s2.7,1.2,2.7,2.5c0,0.8-0.3,1.5-0.8,2.1l-2.7,3.6L715.6,514.8z M718.8,509.7c0-0.8-0.7-1.6-1.6-1.6c-0.9,0-1.7,0.7-1.7,1.6
		s0.8,1.6,1.6,1.6C718.3,511.3,718.8,510.5,718.8,509.7z"/>
	<path class="st2" d="M724.4,508.2l0.6-0.9h1.7v7.9h-0.9v-6.9h-1.4V508.2z"/>
	<path class="st2" d="M732,510.6c0.8,0,1.5-0.3,1.5-1.3c0-0.8-0.6-1.4-1.4-1.4c-0.7,0-1.2,0.5-1.3,1.2h-0.9c0.2-1.3,1-2,2.3-2
		s2.3,0.8,2.3,2.1c0,0.8-0.3,1.4-1,1.7c0.8,0.3,1.2,1.2,1.2,2c0,1.5-1.2,2.3-2.5,2.3s-2.3-0.8-2.4-2.1h0.9c0.1,0.8,0.8,1.3,1.5,1.3
		c0.9,0,1.5-0.7,1.5-1.5c0-1-0.7-1.6-1.6-1.5L732,510.6L732,510.6z"/>
	<path class="st2" d="M740.9,513.1v0.8H740v1.2h-0.9v-1.2h-3.8l4.9-7.1v6.1h0.8L740.9,513.1L740.9,513.1z M739.1,509.9L739.1,509.9
		l-2.2,3.2h2.2V509.9z"/>
</g>
<g>
	<path class="st2" d="M695.9,490l-0.3,2h1.3l0.3-2h0.8l-0.3,2h0.9v0.8h-1.2l-0.2,1.6h1v0.8h-1.3l-0.3,2.2h-0.8l0.3-2.2h-1.3
		l-0.5,2.2h-0.8l0.3-2.2h-1v-0.8h1.2l0.2-1.6h-1V492h1.3l0.3-2H695.9z M695.1,494.3h1.3l0.2-1.6h-1.3L695.1,494.3z"/>
	<path class="st2" d="M705.4,491c-0.6-0.5-1.4-0.8-2.1-0.8c-1.7,0-3.1,1.5-3.1,3.2s1.4,3.2,3.1,3.2c0.8,0,1.5-0.3,2.1-0.8v1.2
		c-0.6,0.3-1.4,0.6-2.1,0.6c-2.2,0-4-1.7-4-4s1.9-4.2,4.2-4.2c0.7,0,1.4,0.1,2,0.6v1H705.4z"/>
	<path class="st2" d="M707.2,497l2.1-2.8l0,0c-0.2,0.1-0.5,0.1-0.8,0.1c-1.3,0-2.3-1.2-2.3-2.4c0-1.4,1.2-2.5,2.5-2.5
		s2.7,1.2,2.7,2.5c0,0.8-0.3,1.5-0.8,2.1l-2.7,3.6L707.2,497z M710.6,491.9c0-0.8-0.7-1.6-1.6-1.6s-1.7,0.7-1.7,1.6s0.8,1.6,1.6,1.6
		C709.9,493.5,710.6,492.7,710.6,491.9z"/>
	<path class="st2" d="M716.4,489.8l-2.1,2.8l0,0c0.2-0.1,0.5-0.2,0.8-0.2c1.3,0,2.3,1.2,2.3,2.4c0,1.4-1.2,2.5-2.5,2.5
		c-1.4,0-2.7-1.2-2.7-2.5c0-0.8,0.3-1.5,0.8-2.1l2.7-3.6L716.4,489.8z M716.5,495c0-0.9-0.8-1.7-1.6-1.7s-1.6,0.8-1.6,1.6
		c0,0.9,0.8,1.6,1.6,1.6C715.7,496.7,716.5,496,716.5,495z"/>
	<path class="st2" d="M720.6,492.8c0.8,0,1.5-0.3,1.5-1.3c0-0.8-0.6-1.4-1.4-1.4c-0.7,0-1.2,0.5-1.3,1.2h-0.9c0.2-1.3,1-2,2.3-2
		s2.3,0.8,2.3,2.1c0,0.8-0.3,1.4-1,1.7c0.8,0.3,1.2,1.2,1.2,2c0,1.5-1.2,2.3-2.5,2.3s-2.3-0.8-2.4-2.1h0.9c0.1,0.8,0.8,1.3,1.5,1.3
		c0.9,0,1.5-0.7,1.5-1.5c0-1-0.7-1.6-1.6-1.5L720.6,492.8L720.6,492.8z"/>
	<path class="st2" d="M725.6,493.3c-0.7-0.3-1-1-1-1.7c0-1.3,1-2.2,2.2-2.2c1.3,0,2.2,0.9,2.2,2.2c0,0.8-0.3,1.4-1,1.7
		c0.8,0.2,1.3,1,1.3,1.9c0,1.5-1.2,2.3-2.4,2.3s-2.4-0.9-2.4-2.3C724.3,494.3,724.8,493.5,725.6,493.3z M725.3,495.2
		c0,0.8,0.7,1.5,1.5,1.5s1.5-0.7,1.5-1.5s-0.7-1.5-1.5-1.5C726,493.8,725.3,494.3,725.3,495.2z M725.5,491.6c0,0.6,0.7,1.4,1.4,1.4
		s1.4-0.7,1.4-1.4s-0.6-1.4-1.4-1.4S725.5,490.8,725.5,491.6z"/>
	<path class="st2" d="M734.5,489.8l-2.1,2.8l0,0c0.2-0.1,0.5-0.2,0.8-0.2c1.3,0,2.3,1.2,2.3,2.4c0,1.4-1.2,2.5-2.5,2.5
		c-1.4,0-2.7-1.2-2.7-2.5c0-0.8,0.3-1.5,0.8-2.1l2.7-3.6L734.5,489.8z M734.5,495c0-0.9-0.8-1.7-1.6-1.7s-1.6,0.8-1.6,1.6
		c0,0.9,0.8,1.6,1.6,1.6C733.7,496.7,734.5,496,734.5,495z"/>
</g>
<g>
	<path class="st2" d="M694.1,533.1v0.9H689l3.5-4.2c0.3-0.3,0.7-0.9,0.7-1.4c0-0.8-0.7-1.5-1.5-1.5s-1.5,0.7-1.5,1.4h-0.9
		c0.1-1.4,1-2.3,2.5-2.3c1.4,0,2.4,1,2.4,2.3c0,0.6-0.2,1.2-0.6,1.6l-2.5,3.1h3V533.1z"/>
	<path class="st2" d="M694.8,530.1c0-1.6,0.7-4,2.8-4s2.8,2.4,2.8,4s-0.7,4-2.8,4C695.5,534.3,694.8,531.7,694.8,530.1z
		 M695.7,530.1c0,1,0.3,3.2,1.9,3.2c1.4,0,1.9-2.2,1.9-3.2s-0.3-3.2-1.9-3.2C696.2,526.9,695.7,529,695.7,530.1z"/>
	<path class="st2" d="M704,527.1v-0.9h5.7l-4.9,8l-0.8-0.5l4-6.7h-4V527.1z"/>
	<path class="st2" d="M715.4,532.1v0.8h-0.9v1.2h-0.9v-1.2h-3.8l4.9-7.1v6.1h0.8L715.4,532.1L715.4,532.1z M713.5,528.8L713.5,528.8
		l-2.2,3.2h2.2V528.8z"/>
	<path class="st2" d="M724.2,533.1v0.9h-5.1l3.5-4.2c0.3-0.3,0.7-0.9,0.7-1.4c0-0.8-0.7-1.5-1.5-1.5s-1.5,0.7-1.5,1.4h-0.9
		c0.1-1.4,1-2.3,2.5-2.3c1.4,0,2.4,1,2.4,2.3c0,0.6-0.2,1.2-0.6,1.6l-2.5,3.1h3V533.1z"/>
	<path class="st2" d="M725.1,527.1v-0.9h5.7l-4.9,8l-0.8-0.5l4-6.7h-4V527.1z"/>
	<path class="st2" d="M733.9,530.1c0-1.6,0.7-4,2.8-4s2.8,2.4,2.8,4s-0.7,4-2.8,4C734.6,534.3,733.9,531.7,733.9,530.1z
		 M734.8,530.1c0,1,0.3,3.2,1.9,3.2c1.4,0,1.9-2.2,1.9-3.2s-0.3-3.2-1.9-3.2C735.3,526.9,734.8,529,734.8,530.1z"/>
</g>
<circle class="st8" cx="659.1" cy="142.6" r="86.2"/>
<g>
	<path class="st2" d="M630.4,267.5l0.6-0.9h1.7v7.7h-0.9v-6.8L630.4,267.5L630.4,267.5z"/>
	<path class="st2" d="M635.2,270.5c0-1.6,0.7-4,2.7-4s2.7,2.4,2.7,4s-0.7,4-2.7,4S635.2,272,635.2,270.5z M636.1,270.5
		c0,1,0.3,3.2,1.8,3.2c1.4,0,1.8-2.1,1.8-3.2c0-1-0.3-3.2-1.8-3.2C636.6,267.3,636.1,269.3,636.1,270.5z"/>
	<path class="st2" d="M641.3,267.5v-0.9h5.5l-4.8,7.8l-0.8-0.5l4-6.6h-4L641.3,267.5L641.3,267.5z"/>
	<path class="st2" d="M651,267.5l0.6-0.9h1.7v7.7h-0.9v-6.8L651,267.5L651,267.5z"/>
	<path class="st2" d="M661,273.4v0.9h-5l3.4-4.1c0.3-0.3,0.7-0.9,0.7-1.4c0-0.8-0.7-1.5-1.5-1.5s-1.5,0.7-1.5,1.4h-0.9
		c0.1-1.4,1-2.3,2.5-2.3c1.4,0,2.4,1,2.4,2.3c0,0.6-0.2,1.1-0.6,1.6l-2.5,3.1H661L661,273.4z"/>
	<path class="st2" d="M664.4,267.5l-0.5,1.6h0.6c1.5,0,2.5,1.2,2.5,2.7c0,1.6-1.2,2.7-2.8,2.7c-0.9,0-1.9-0.5-2.4-1.4l0.7-0.7
		c0.2,0.7,1,1.1,1.7,1.1c1,0,1.8-0.9,1.8-1.9s-0.8-1.8-1.8-1.8c-0.6,0-1.1,0.2-1.5,0.7h-0.2l1.1-4h3.1v0.9L664.4,267.5L664.4,267.5z
		"/>
	<path class="st2" d="M671.6,267.5l0.6-0.9h1.7v7.7H673v-6.8L671.6,267.5L671.6,267.5z"/>
	<path class="st2" d="M681.6,273.4v0.9h-5l3.4-4.1c0.3-0.3,0.7-0.9,0.7-1.4c0-0.8-0.7-1.5-1.5-1.5s-1.5,0.7-1.5,1.4h-1
		c0.1-1.4,1-2.3,2.5-2.3c1.4,0,2.4,1,2.4,2.3c0,0.6-0.2,1.1-0.6,1.6l-2.5,3.1H681.6L681.6,273.4z"/>
	<path class="st2" d="M687.7,272.4v0.8h-0.9v1.1h-0.9v-1.1h-3.7l4.8-6.9v6h0.8L687.7,272.4L687.7,272.4z M685.9,269.2L685.9,269.2
		l-2.1,3.2h2.1V269.2z"/>
</g>
<g>
	<path class="st2" d="M640.9,248.6l-0.3,1.9h1.2l0.3-1.9h0.8l-0.3,2h0.9v0.8h-1.1l-0.2,1.6h1v0.8H642l-0.3,2.1h-0.8l0.3-2.1H640
		l-0.5,2.1h-0.8l0.3-2.1h-1V253h1.1l0.2-1.6h-1v-0.8h1.2l0.3-1.9h1v-0.1H640.9z M640.2,253h1.2l0.2-1.6h-1.2L640.2,253z"/>
	<path class="st2" d="M648.4,248.6l-2,2.7l0,0c0.2-0.1,0.5-0.2,0.8-0.2c1.2,0,2.3,1.1,2.3,2.4c0,1.4-1.1,2.5-2.5,2.5
		s-2.6-1.1-2.6-2.5c0-0.8,0.3-1.5,0.8-2l2.6-3.5L648.4,248.6z M648.4,253.6c0-0.9-0.8-1.7-1.6-1.7s-1.6,0.8-1.6,1.6
		c0,0.9,0.8,1.6,1.6,1.6C647.7,255.2,648.4,254.4,648.4,253.6z"/>
	<path class="st2" d="M650.5,248.2h0.9c1.5,0,2.8,0.3,2.8,2.1c0,0.6-0.3,1.2-0.8,1.5l0,0c0.9,0.1,1.6,1,1.6,1.9
		c0,1.6-1.4,2.1-2.7,2.1h-1.8V248.2z M651.4,251.6h0.2c0.9,0,1.7-0.2,1.7-1.2c0-1.1-0.7-1.2-1.6-1.2h-0.2v2.5h-0.1V251.6z
		 M651.4,255h0.7c0.9,0,1.8-0.2,1.8-1.4s-1.1-1.4-1.9-1.4h-0.6V255L651.4,255z"/>
	<path class="st2" d="M655.7,249.1v-0.9h5.5l-4.8,7.8l-0.8-0.5l4-6.6h-4L655.7,249.1L655.7,249.1z"/>
	<path class="st2" d="M661.8,248.2h1.6c2.4,0,4.3,1.2,4.3,3.8s-1.9,3.8-4.3,3.8h-1.6V248.2z M662.7,255h0.3c1.9,0,3.6-0.7,3.6-2.9
		c0-2.3-1.7-2.9-3.6-2.9h-0.3V255z"/>
	<path class="st2" d="M668.3,249.1v-0.9h5.5L669,256l-0.8-0.5l4-6.6h-4L668.3,249.1L668.3,249.1z"/>
	<path class="st2" d="M680.1,249.7c-0.6-0.5-1.4-0.8-2-0.8c-1.7,0-3.1,1.5-3.1,3.2s1.4,3.2,3.1,3.2c0.8,0,1.5-0.3,2-0.8v1.1
		c-0.6,0.3-1.4,0.6-2,0.6c-2.1,0-4-1.7-4-4s1.8-4.1,4.1-4.1c0.7,0,1.4,0.1,1.9,0.6V249.7z"/>
</g>
<g>
	<path class="st2" d="M635.5,285.4l-2,2.7l0,0c0.2-0.1,0.5-0.2,0.8-0.2c1.2,0,2.3,1.1,2.3,2.4c0,1.4-1.1,2.5-2.5,2.5
		s-2.6-1.1-2.6-2.5c0-0.8,0.3-1.5,0.8-2l2.6-3.5L635.5,285.4z M635.5,290.5c0-0.9-0.8-1.7-1.6-1.7s-1.6,0.8-1.6,1.6
		c0,0.9,0.8,1.6,1.6,1.6C634.8,292.1,635.5,291.3,635.5,290.5z"/>
	<path class="st2" d="M638.1,286l0.6-0.9h1.7v7.7h-0.9V286H638.1z"/>
	<path class="st2" d="M651.4,290.8v0.8h-0.9v1.1h-0.9v-1.1h-3.7l4.8-6.9v6L651.4,290.8L651.4,290.8L651.4,290.8z M649.5,287.7
		L649.5,287.7l-2.1,3.2h2.1V287.7z"/>
	<path class="st2" d="M652.8,286l0.6-0.9h1.7v7.7h-0.9V286H652.8z"/>
	<path class="st2" d="M666.1,290.8v0.8h-0.9v1.1h-0.9v-1.1h-3.7l4.8-6.9v6L666.1,290.8L666.1,290.8L666.1,290.8z M664.3,287.7
		L664.3,287.7l-2.1,3.2h2.1V287.7z"/>
	<path class="st2" d="M670.8,285.4l-2,2.7l0,0c0.2-0.1,0.5-0.2,0.8-0.2c1.2,0,2.3,1.1,2.3,2.4c0,1.4-1.1,2.5-2.5,2.5
		s-2.6-1.1-2.6-2.5c0-0.8,0.3-1.5,0.8-2l2.6-3.5L670.8,285.4z M670.8,290.5c0-0.9-0.8-1.7-1.6-1.7s-1.6,0.8-1.6,1.6
		c0,0.9,0.8,1.6,1.6,1.6C670.1,292.1,670.8,291.3,670.8,290.5z"/>
	<path class="st2" d="M676.4,286l0.6-0.9h1.7v7.7h-0.9V286H676.4z"/>
	<path class="st2" d="M681.2,288.9c0-1.6,0.7-4,2.7-4s2.7,2.4,2.7,4c0,1.6-0.7,4-2.7,4S681.2,290.5,681.2,288.9z M682.1,288.9
		c0,1,0.3,3.2,1.8,3.2s1.8-2.1,1.8-3.2c0-1-0.3-3.2-1.8-3.2S682.1,287.8,682.1,288.9z"/>
</g>
<circle class="st9" cx="213.8" cy="142.6" r="86.2"/>
<g>
	<path class="st2" d="M192.4,273.5v0.9h-5l3.4-4.1c0.3-0.3,0.7-0.9,0.7-1.4c0-0.8-0.7-1.5-1.5-1.5s-1.5,0.7-1.5,1.4h-0.9
		c0.1-1.4,1-2.3,2.5-2.3c1.4,0,2.4,1,2.4,2.3c0,0.6-0.2,1.1-0.6,1.6l-2.5,3.1H192.4L192.4,273.5z"/>
	<path class="st2" d="M198.5,272.4v0.8h-0.9v1.1h-0.9v-1.1H193l4.8-6.9v6h0.8v0.1H198.5z M196.7,269.3L196.7,269.3l-2.1,3.2h2.1
		V269.3z"/>
	<path class="st2" d="M204.4,272.4v0.8h-0.9v1.1h-0.9v-1.1h-3.7l4.8-6.9v6h0.8v0.1H204.4z M202.6,269.3L202.6,269.3l-2.1,3.2h2.1
		V269.3z"/>
	<path class="st2" d="M213,273.5v0.9h-5l3.4-4.1c0.3-0.3,0.7-0.9,0.7-1.4c0-0.8-0.7-1.5-1.5-1.5s-1.5,0.7-1.5,1.4h-0.9
		c0.1-1.4,1-2.3,2.5-2.3c1.4,0,2.4,1,2.4,2.3c0,0.6-0.2,1.1-0.6,1.6l-2.5,3.1H213L213,273.5z"/>
	<path class="st2" d="M216.3,269.8c0.8,0,1.5-0.3,1.5-1.2c0-0.8-0.6-1.4-1.4-1.4c-0.7,0-1.1,0.5-1.2,1.1h-0.9c0.2-1.2,1-1.9,2.3-1.9
		s2.3,0.8,2.3,2c0,0.8-0.3,1.4-1,1.7c0.8,0.3,1.1,1.1,1.1,1.9c0,1.5-1.1,2.3-2.5,2.3c-1.2,0-2.3-0.8-2.4-2h0.9
		c0.1,0.8,0.8,1.2,1.5,1.2c0.9,0,1.5-0.7,1.5-1.5c0-1-0.7-1.6-1.6-1.5L216.3,269.8L216.3,269.8z"/>
	<path class="st2" d="M221.2,270.4c-0.7-0.3-1-1-1-1.7c0-1.2,1-2.1,2.1-2.1c1.2,0,2.1,0.9,2.1,2.1c0,0.8-0.3,1.4-1,1.7
		c0.8,0.2,1.2,1,1.2,1.8c0,1.5-1.1,2.3-2.4,2.3c-1.2,0-2.4-0.9-2.4-2.3C219.9,271.4,220.4,270.6,221.2,270.4z M220.8,272.2
		c0,0.8,0.7,1.5,1.5,1.5s1.5-0.7,1.5-1.5s-0.7-1.5-1.5-1.5C221.6,270.7,220.8,271.4,220.8,272.2z M221,268.6c0,0.6,0.7,1.4,1.4,1.4
		s1.4-0.7,1.4-1.4c0-0.7-0.6-1.4-1.4-1.4C221.6,267.3,221,267.9,221,268.6z"/>
	<path class="st2" d="M230,270.4c-0.7-0.3-1-1-1-1.7c0-1.2,1-2.1,2.1-2.1c1.2,0,2.1,0.9,2.1,2.1c0,0.8-0.3,1.4-1,1.7
		c0.8,0.2,1.2,1,1.2,1.8c0,1.5-1.1,2.3-2.4,2.3c-1.2,0-2.4-0.9-2.4-2.3C228.7,271.4,229.2,270.6,230,270.4z M229.6,272.2
		c0,0.8,0.7,1.5,1.5,1.5s1.5-0.7,1.5-1.5s-0.7-1.5-1.5-1.5C230.4,270.7,229.6,271.4,229.6,272.2z M229.9,268.6
		c0,0.6,0.7,1.4,1.4,1.4s1.4-0.7,1.4-1.4c0-0.7-0.6-1.4-1.4-1.4C230.4,267.3,229.9,267.9,229.9,268.6z"/>
	<path class="st2" d="M234.6,267.6v-0.9h5.5l-4.8,7.8l-0.8-0.5l4-6.6h-4v0.2H234.6z"/>
</g>
<g>
	<path class="st2" d="M197.2,248.6l-0.3,1.9h1.2l0.3-1.9h0.8l-0.3,1.9h0.9v0.8h-1.1l-0.2,1.6h1v0.8h-1.2l-0.3,2.1h-0.8l0.3-2.1h-1.1
		l-0.5,2.1H195l0.3-2.1h-1v-0.8h1.1l0.2-1.6h-1v-0.7h1.2l0.3-1.9h0.9v-0.1H197.2z M196.4,253h1.2l0.2-1.6h-1.2L196.4,253z"/>
	<path class="st2" d="M201.7,249.1v2.1h2.7v0.9h-2.7v3.7h-0.9v-7.7h3.7v0.9h-2.8V249.1z"/>
	<path class="st2" d="M210.5,254v0.8h-0.9v1.1h-0.9v-1.1H205l4.8-6.9v6h0.8v0.1H210.5z M208.7,250.8L208.7,250.8l-2.1,3.2h2.1V250.8
		z"/>
	<path class="st2" d="M211.4,248.2h4.1v0.9h-3.2v2.1h3.1v0.9h-3.1v2.9h3.2v0.9h-4.1V248.2z"/>
	<path class="st2" d="M216.7,248.2h4.1v0.9h-3.1v2.1h3.1v0.9h-3.1v2.9h3.2v0.9h-4.1v-7.8h-0.1V248.2z"/>
	<path class="st2" d="M224.3,249.1l-0.5,1.6h0.6c1.5,0,2.5,1.2,2.5,2.7c0,1.6-1.2,2.7-2.8,2.7c-0.9,0-1.9-0.5-2.4-1.4l0.7-0.7
		c0.2,0.7,1,1.1,1.7,1.1c1,0,1.8-0.9,1.8-1.9s-0.8-1.8-1.8-1.8c-0.6,0-1.1,0.2-1.5,0.7h-0.2l1.1-4h3.1v0.9L224.3,249.1L224.3,249.1z
		"/>
	<path class="st2" d="M227.7,249.1v-0.9h5.5l-4.8,7.8l-0.8-0.5l4-6.6h-4v0.2H227.7z"/>
</g>
<g>
	<path class="st2" d="M195,285.9V285h5.5l-4.8,7.8l-0.8-0.5l4-6.6h-4v0.2H195z"/>
	<path class="st2" d="M203.7,288.8c0-1.6,0.7-4,2.7-4s2.7,2.4,2.7,4c0,1.6-0.7,4-2.7,4S203.7,290.4,203.7,288.8z M204.6,288.8
		c0,1,0.3,3.2,1.8,3.2c1.4,0,1.8-2.1,1.8-3.2c0-1.1-0.3-3.2-1.8-3.2S204.6,287.7,204.6,288.8z"/>
	<path class="st2" d="M212.7,285.9V285h5.5l-4.8,7.8l-0.8-0.5l4-6.6h-4v0.2H212.7z"/>
	<path class="st2" d="M219.9,288.7c-0.7-0.3-1-1-1-1.7c0-1.2,1-2.1,2.1-2.1c1.2,0,2.1,0.9,2.1,2.1c0,0.8-0.3,1.4-1,1.7
		c0.8,0.2,1.2,1,1.2,1.8c0,1.5-1.1,2.3-2.4,2.3s-2.4-0.9-2.4-2.3C218.6,289.7,219.1,288.9,219.9,288.7z M219.5,290.5
		c0,0.8,0.7,1.5,1.5,1.5s1.5-0.7,1.5-1.5s-0.7-1.5-1.5-1.5S219.5,289.7,219.5,290.5z M219.7,286.9c0,0.6,0.7,1.4,1.4,1.4
		s1.4-0.7,1.4-1.4c0-0.7-0.6-1.4-1.4-1.4C220.3,285.6,219.7,286.2,219.7,286.9z"/>
	<path class="st2" d="M227.2,288.8c0-1.6,0.7-4,2.7-4s2.7,2.4,2.7,4c0,1.6-0.7,4-2.7,4S227.2,290.4,227.2,288.8z M228.1,288.8
		c0,1,0.3,3.2,1.8,3.2c1.4,0,1.8-2.1,1.8-3.2c0-1.1-0.3-3.2-1.8-3.2S228.1,287.7,228.1,288.8z"/>
</g>
<circle class="st10" cx="436.4" cy="142.1" r="85.7"/>
<g>
	<path class="st2" d="M415.3,273.5v0.9h-5l3.4-4.1c0.3-0.3,0.7-0.9,0.7-1.4c0-0.8-0.7-1.5-1.5-1.5s-1.5,0.7-1.5,1.4h-1
		c0.1-1.4,1-2.3,2.5-2.3c1.4,0,2.4,1,2.4,2.3c0,0.6-0.2,1.1-0.6,1.6l-2.5,3.1H415.3L415.3,273.5z"/>
	<path class="st2" d="M418.6,269.8c0.8,0,1.5-0.3,1.5-1.2c0-0.8-0.6-1.4-1.4-1.4c-0.7,0-1.1,0.5-1.2,1.1h-0.9c0.2-1.2,1-1.9,2.3-1.9
		s2.3,0.8,2.3,2c0,0.8-0.3,1.4-1,1.7c0.8,0.3,1.1,1.1,1.1,1.9c0,1.5-1.1,2.3-2.5,2.3c-1.2,0-2.3-0.8-2.4-2h0.9
		c0.1,0.8,0.8,1.2,1.5,1.2c0.9,0,1.5-0.7,1.5-1.5c0-1-0.7-1.6-1.6-1.5L418.6,269.8L418.6,269.8z"/>
	<path class="st2" d="M424.5,269.8c0.8,0,1.5-0.3,1.5-1.2c0-0.8-0.6-1.4-1.4-1.4c-0.7,0-1.1,0.5-1.2,1.1h-0.9c0.2-1.2,1-1.9,2.3-1.9
		s2.3,0.8,2.3,2c0,0.8-0.3,1.4-1,1.7c0.8,0.3,1.1,1.1,1.1,1.9c0,1.5-1.1,2.3-2.5,2.3c-1.2,0-2.3-0.8-2.4-2h0.9
		c0.1,0.8,0.8,1.2,1.5,1.2c0.9,0,1.5-0.7,1.5-1.5c0-1-0.7-1.6-1.6-1.5L424.5,269.8L424.5,269.8z"/>
	<path class="st2" d="M435.9,273.5v0.9h-5l3.4-4.1c0.3-0.3,0.7-0.9,0.7-1.4c0-0.8-0.7-1.5-1.5-1.5s-1.5,0.7-1.5,1.4h-0.9
		c0.1-1.4,1-2.3,2.5-2.3c1.4,0,2.4,1,2.4,2.3c0,0.6-0.2,1.1-0.6,1.6l-2.5,3.1H435.9L435.9,273.5z"/>
	<path class="st2" d="M437.6,267.6l0.6-0.9h1.7v7.7H439v-6.8L437.6,267.6L437.6,267.6z"/>
	<path class="st2" d="M447.9,272.4v0.8H447v1.1h-0.9v-1.1h-3.7l4.8-6.9v6h0.8L447.9,272.4L447.9,272.4z M446.1,269.3L446.1,269.3
		l-2.1,3.2h2.1V269.3z"/>
	<path class="st2" d="M451.5,267.6v-0.9h5.5l-4.8,7.8l-0.8-0.5l4-6.6h-4L451.5,267.6L451.5,267.6z"/>
	<path class="st2" d="M462.4,273.5v0.9h-5l3.4-4.1c0.3-0.3,0.7-0.9,0.7-1.4c0-0.8-0.7-1.5-1.5-1.5s-1.5,0.7-1.5,1.4h-0.9
		c0.1-1.4,1-2.3,2.5-2.3c1.4,0,2.4,1,2.4,2.3c0,0.6-0.2,1.1-0.6,1.6l-2.5,3.1H462.4L462.4,273.5z"/>
</g>
<g>
	<path class="st2" d="M419,248.6l-0.3,1.9h1.2l0.3-1.9h0.8l-0.3,1.9h0.9v0.8h-1.1l-0.2,1.6h1v0.8H420l-0.3,2.1h-0.8l0.3-2.1H418
		l-0.5,2.1h-0.8l0.3-2.1h-1v-0.8h1.1l0.2-1.6h-1v-0.7h1.2l0.3-1.9h1v-0.1H419z M418.2,253h1.2l0.2-1.6h-1.2L418.2,253z"/>
	<path class="st2" d="M422.6,248.2h4.1v0.9h-3.2v2.1h3.1v0.9h-3.1v2.9h3.2v0.9h-4.1V248.2z"/>
	<path class="st2" d="M428.6,255.6l2-2.7l0,0c-0.2,0.1-0.5,0.1-0.8,0.1c-1.2,0-2.3-1.1-2.3-2.4c0-1.4,1.1-2.5,2.5-2.5
		s2.6,1.1,2.6,2.5c0,0.8-0.3,1.5-0.8,2l-2.6,3.5L428.6,255.6z M431.9,250.5c0-0.8-0.7-1.6-1.6-1.6s-1.7,0.7-1.7,1.6
		c0,0.9,0.8,1.6,1.6,1.6C431.2,252.2,431.9,251.4,431.9,250.5z"/>
	<path class="st2" d="M433.7,248.2h1.6c2.4,0,4.3,1.2,4.3,3.8s-1.9,3.8-4.3,3.8h-1.6V248.2z M434.6,255h0.3c1.9,0,3.6-0.7,3.6-2.9
		c0-2.3-1.7-2.9-3.6-2.9h-0.3V255z"/>
	<path class="st2" d="M444.3,248.6l-2,2.7l0,0c0.2-0.1,0.5-0.2,0.8-0.2c1.2,0,2.3,1.1,2.3,2.4c0,1.4-1.1,2.5-2.5,2.5
		s-2.6-1.1-2.6-2.5c0-0.8,0.3-1.5,0.8-2l2.6-3.5L444.3,248.6z M444.3,253.6c0-0.9-0.8-1.7-1.6-1.7c-0.8,0-1.6,0.8-1.6,1.6
		c0,0.9,0.8,1.6,1.6,1.6C443.7,255.2,444.3,254.4,444.3,253.6z"/>
	<path class="st2" d="M451.4,254v0.8h-0.9v1.1h-0.9v-1.1h-3.7l4.8-6.9v6L451.4,254L451.4,254L451.4,254z M449.6,250.8L449.6,250.8
		l-2.1,3.2h2.1V250.8z"/>
	<path class="st2" d="M453.3,251.9c-0.7-0.3-1-1-1-1.7c0-1.2,1-2.1,2.1-2.1c1.2,0,2.1,0.9,2.1,2.1c0,0.8-0.3,1.4-1,1.7
		c0.8,0.2,1.2,1,1.2,1.8c0,1.5-1.1,2.3-2.4,2.3s-2.4-0.9-2.4-2.3C452.2,253,452.5,252.2,453.3,251.9z M453.1,253.8
		c0,0.8,0.7,1.5,1.5,1.5s1.5-0.7,1.5-1.5s-0.7-1.5-1.5-1.5S453.1,253,453.1,253.8z M453.2,250.1c0,0.6,0.7,1.4,1.4,1.4
		s1.4-0.7,1.4-1.4s-0.6-1.4-1.4-1.4C453.9,248.9,453.2,249.5,453.2,250.1z"/>
</g>
<g>
	<path class="st2" d="M415,285.8l0.6-0.9h1.7v7.7h-0.9v-6.8L415,285.8L415,285.8z"/>
	<path class="st2" d="M420.9,285.8l0.6-0.9h1.7v7.7h-0.9v-6.8L420.9,285.8L420.9,285.8z"/>
	<path class="st2" d="M430,292.3l2-2.7l0,0c-0.2,0.1-0.5,0.1-0.8,0.1c-1.2,0-2.3-1.1-2.3-2.4c0-1.4,1.1-2.5,2.5-2.5s2.6,1.1,2.6,2.5
		c0,0.8-0.3,1.5-0.8,2l-2.6,3.5L430,292.3z M433.3,287.2c0-0.8-0.7-1.6-1.6-1.6s-1.7,0.7-1.7,1.6s0.8,1.6,1.6,1.6
		C432.6,288.9,433.3,288.1,433.3,287.2z"/>
	<path class="st2" d="M439.1,288.6c-0.7-0.3-1-1-1-1.7c0-1.2,1-2.1,2.1-2.1c1.2,0,2.1,0.9,2.1,2.1c0,0.8-0.3,1.4-1,1.7
		c0.8,0.2,1.2,1,1.2,1.8c0,1.5-1.1,2.3-2.4,2.3s-2.4-0.9-2.4-2.3C437.9,289.7,438.4,288.9,439.1,288.6z M438.8,290.4
		c0,0.8,0.7,1.5,1.5,1.5s1.5-0.7,1.5-1.5s-0.7-1.5-1.5-1.5S438.8,289.7,438.8,290.4z M439,286.8c0,0.6,0.7,1.4,1.4,1.4
		c0.7,0,1.4-0.7,1.4-1.4c0-0.7-0.6-1.4-1.4-1.4C439.6,285.6,439,286.1,439,286.8z"/>
	<path class="st2" d="M446.2,285.8l-0.5,1.6h0.6c1.5,0,2.5,1.2,2.5,2.7c0,1.6-1.2,2.7-2.8,2.7c-0.9,0-1.9-0.5-2.4-1.4l0.7-0.7
		c0.2,0.7,1,1.1,1.7,1.1c1,0,1.8-0.9,1.8-1.9s-0.8-1.8-1.8-1.8c-0.6,0-1.1,0.2-1.5,0.7h-0.2l1.1-4h3.1v0.9L446.2,285.8L446.2,285.8z
		"/>
	<path class="st2" d="M452.4,288.7c0-1.6,0.7-4,2.7-4s2.7,2.4,2.7,4s-0.7,4-2.7,4S452.4,290.3,452.4,288.7z M453.3,288.7
		c0,1,0.3,3.2,1.8,3.2c1.4,0,1.8-2.1,1.8-3.2c0-1-0.3-3.2-1.8-3.2C453.6,285.6,453.3,287.6,453.3,288.7z"/>
</g>
<g>
	<path class="st11" d="M55.8,248.6c0-0.1,0.1-0.2,0.2-0.2h0.9c0.1,0,0.2,0.1,0.2,0.2v2.7h3.3v-2.7c0-0.1,0.1-0.2,0.2-0.2h0.9
		c0.1,0,0.2,0.1,0.2,0.2v6.7c0,0.1-0.1,0.2-0.2,0.2h-0.9c-0.1,0-0.2-0.1-0.2-0.2v-2.8h-3.3v2.8c0,0.1-0.1,0.2-0.2,0.2H56
		c-0.1,0-0.2-0.1-0.2-0.2V248.6z"/>
	<path class="st11" d="M63.6,248.6c0-0.1,0.1-0.2,0.2-0.2H68c0.1,0,0.2,0.1,0.2,0.2v0.8c0,0.1-0.1,0.2-0.2,0.2h-3v1.7h2.5
		c0.1,0,0.2,0.1,0.2,0.2v0.8c0,0.1-0.1,0.2-0.2,0.2H65v1.8h3c0.1,0,0.2,0.1,0.2,0.2v0.8c0,0.1-0.1,0.2-0.2,0.2h-4.1
		c-0.1,0-0.2-0.1-0.2-0.2v-6.7H63.6z"/>
	<path class="st11" d="M71.1,251.9l-2-3.2c-0.1-0.1,0-0.3,0.2-0.3h1.2c0.1,0,0.1,0.1,0.2,0.1l1.3,2.2l0,0l1.3-2.2
		c0,0,0.1-0.1,0.2-0.1h1.2c0.2,0,0.3,0.2,0.2,0.3l-2,3.2l2.1,3.4c0.1,0.1,0,0.3-0.2,0.3h-1.1c-0.1,0-0.2-0.1-0.2-0.1l-1.5-2.3l0,0
		l-1.4,2.3c0,0-0.1,0.1-0.2,0.1h-1.1c-0.2,0-0.3-0.2-0.2-0.3L71.1,251.9z"/>
</g>
<g>
	<path class="st11" d="M55.8,267c0-0.1,0.1-0.2,0.2-0.2h2.9c1.2,0,2.2,1,2.2,2.2c0,0.9-0.6,1.7-1.5,2.1l1.4,2.6
		c0.1,0.1,0,0.3-0.2,0.3h-1.1c-0.1,0-0.1-0.1-0.2-0.1l-1.4-2.7H57v2.6c0,0.1-0.1,0.2-0.2,0.2H56c-0.1,0-0.2-0.1-0.2-0.2V267z
		 M58.8,270.1c0.5,0,1-0.5,1-1s-0.5-1-1-1h-1.7v2H58.8z"/>
	<path class="st11" d="M65.7,266.7c0.9,0,1.8,0.4,2.5,0.9c0.1,0.1,0.1,0.2,0,0.3l-0.6,0.7c-0.1,0.1-0.2,0.1-0.3,0
		c-0.4-0.4-1-0.6-1.5-0.6c-1.3,0-2.3,1.1-2.3,2.4s1,2.3,2.3,2.3c0.6,0,1-0.2,1.2-0.3v-0.9h-0.8c-0.1,0-0.2-0.1-0.2-0.2v-0.8
		c0-0.1,0.1-0.2,0.2-0.2h2c0.1,0,0.2,0.1,0.2,0.2v2.6c0,0.1,0,0.1-0.1,0.2c0,0-1,0.7-2.5,0.7c-2,0-3.7-1.6-3.7-3.6
		S63.7,266.7,65.7,266.7z"/>
	<path class="st11" d="M69.8,267c0-0.1,0.1-0.2,0.2-0.2h2.3c1.2,0,2.1,0.8,2.1,1.9c0,0.8-0.6,1.4-1.1,1.6c0.5,0.2,1.3,0.7,1.3,1.7
		c0,1.1-1,2-2.2,2H70c-0.1,0-0.2-0.1-0.2-0.2V267z M72.2,269.8c0.5,0,0.9-0.4,0.9-0.9s-0.4-0.9-0.9-0.9h-1.1v1.8H72.2z M72.4,272.8
		c0.5,0,0.9-0.4,0.9-0.9s-0.5-0.9-1-0.9h-1.1v1.8H72.4z"/>
</g>
<g>
	<path class="st11" d="M59.5,285.1c1,0,1.8,0.3,2.5,0.9c0.1,0.1,0.1,0.2,0,0.3l-0.6,0.6c-0.1,0.1-0.2,0.1-0.3,0
		c-0.4-0.4-1-0.6-1.6-0.6c-1.3,0-2.3,1.1-2.3,2.4s1,2.4,2.3,2.4c0.6,0,1.1-0.2,1.6-0.6c0.1-0.1,0.2-0.1,0.3,0l0.6,0.7
		c0.1,0.1,0.1,0.2,0,0.3c-0.7,0.7-1.6,1-2.5,1c-2,0-3.7-1.6-3.7-3.7C55.8,286.8,57.4,285.1,59.5,285.1z"/>
	<path class="st11" d="M64,285.3c0-0.1,0.1-0.2,0.2-0.2h0.2c0.1,0,0.1,0,0.2,0.1l2.2,4.8l0,0l2.2-4.8c0-0.1,0.1-0.1,0.2-0.1h0.2
		c0.1,0,0.2,0.1,0.2,0.2l1.2,6.8c0,0.1-0.1,0.2-0.2,0.2h-0.9c-0.1,0-0.2-0.1-0.2-0.2l-0.6-3.9l0,0l-1.8,4c0,0.1-0.1,0.1-0.2,0.1
		h-0.2c-0.1,0-0.1-0.1-0.2-0.1l-1.8-4l0,0l-0.6,3.9c0,0.1-0.1,0.2-0.2,0.2H63c-0.1,0-0.2-0.1-0.2-0.2L64,285.3z"/>
	<path class="st11" d="M73.4,288.9l-2.3-3.4c-0.1-0.1,0-0.3,0.2-0.3h1c0.1,0,0.1,0.1,0.2,0.1l1.6,2.3l1.6-2.3c0,0,0.1-0.1,0.2-0.1h1
		c0.2,0,0.2,0.2,0.2,0.3l-2.4,3.4v3.2c0,0.1-0.1,0.2-0.2,0.2h-0.9c-0.1,0-0.2-0.1-0.2-0.2L73.4,288.9L73.4,288.9z"/>
	<path class="st11" d="M78,285.5c0-0.1,0.1-0.2,0.2-0.2h0.9c0.1,0,0.2,0.1,0.2,0.2v2.7l2.6-2.9c0-0.1,0.1-0.1,0.2-0.1h1
		c0.2,0,0.3,0.2,0.2,0.4l-2.7,3l2.9,3.4c0.1,0.1,0,0.4-0.2,0.4h-1.1c-0.1,0-0.2,0-0.2-0.1l-2.7-3.3v3.1c0,0.1-0.1,0.2-0.2,0.2h-0.9
		c-0.1,0-0.2-0.1-0.2-0.2C78,292.1,78,285.5,78,285.5z"/>
</g>
<g>
	<path class="st11" d="M55.8,489.3c0-0.1,0.1-0.2,0.2-0.2h1c0.1,0,0.2,0.1,0.2,0.2v2.8h3.4v-2.8c0-0.1,0.1-0.2,0.2-0.2h1
		c0.1,0,0.2,0.1,0.2,0.2v6.9c0,0.1-0.1,0.2-0.2,0.2h-1c-0.1,0-0.2-0.1-0.2-0.2v-2.9h-3.4v2.9c0,0.1-0.1,0.2-0.2,0.2h-1
		c-0.1,0-0.2-0.1-0.2-0.2V489.3z"/>
	<path class="st11" d="M63.8,489.3c0-0.1,0.1-0.2,0.2-0.2h4.2c0.1,0,0.2,0.1,0.2,0.2v0.9c0,0.1-0.1,0.2-0.2,0.2h-3.1v1.7h2.6
		c0.1,0,0.2,0.1,0.2,0.2v0.9c0,0.1-0.1,0.2-0.2,0.2h-2.6v1.8h3.1c0.1,0,0.2,0.1,0.2,0.2v0.9c0,0.1-0.1,0.2-0.2,0.2H64
		c-0.1,0-0.2-0.1-0.2-0.2V489.3z"/>
	<path class="st11" d="M71.5,492.7l-2.1-3.3c-0.1-0.1,0-0.3,0.2-0.3h1.2c0.1,0,0.1,0.1,0.2,0.1l1.3,2.2l0,0l1.4-2.2
		c0,0,0.1-0.1,0.2-0.1H75c0.2,0,0.3,0.2,0.2,0.3l-2.1,3.3l2.2,3.4c0.1,0.1,0,0.3-0.2,0.3H74c-0.1,0-0.2-0.1-0.2-0.1l-1.5-2.4l0,0
		l-1.5,2.4c0,0-0.1,0.1-0.2,0.1h-1.1c-0.2,0-0.3-0.2-0.2-0.3L71.5,492.7z"/>
</g>
<g>
	<path class="st11" d="M55.8,508.1c0-0.1,0.1-0.2,0.2-0.2h3c1.2,0,2.3,1,2.3,2.2c0,1-0.6,1.7-1.5,2.1l1.4,2.6c0.1,0.1,0,0.3-0.2,0.3
		h-1.1c-0.1,0-0.1-0.1-0.2-0.1l-1.4-2.8h-1.2v2.7c0,0.1-0.1,0.2-0.2,0.2h-1c-0.1,0-0.2-0.1-0.2-0.2v-6.8H55.8z M58.9,511.3
		c0.6,0,1-0.5,1-1.1s-0.5-1-1-1h-1.7v2.1H58.9z"/>
	<path class="st11" d="M66,507.8c0.9,0,1.8,0.4,2.5,1c0.1,0.1,0.1,0.2,0,0.3l-0.6,0.7c-0.1,0.1-0.2,0.1-0.3,0
		c-0.4-0.4-1-0.6-1.6-0.6c-1.3,0-2.3,1.1-2.3,2.4s1,2.4,2.3,2.4c0.6,0,1-0.2,1.2-0.3v-0.9h-0.8c-0.1,0-0.2-0.1-0.2-0.2v-0.8
		c0-0.1,0.1-0.2,0.2-0.2h2c0.1,0,0.2,0.1,0.2,0.2v2.7c0,0.1,0,0.1-0.1,0.2c0,0-1.1,0.7-2.6,0.7c-2.1,0-3.7-1.6-3.7-3.7
		C62.2,509.5,63.9,507.8,66,507.8z"/>
	<path class="st11" d="M70.1,508.1c0-0.1,0.1-0.2,0.2-0.2h2.4c1.2,0,2.2,0.8,2.2,1.9c0,0.8-0.7,1.4-1.1,1.7c0.6,0.2,1.4,0.7,1.4,1.7
		c0,1.2-1,2-2.3,2h-2.5c-0.1,0-0.2-0.1-0.2-0.2L70.1,508.1L70.1,508.1z M72.6,511c0.5,0,0.9-0.4,0.9-0.9s-0.4-0.9-0.9-0.9h-1.1v1.8
		H72.6z M72.8,514c0.5,0,0.9-0.4,0.9-0.9s-0.5-0.9-1.1-0.9h-1.1v1.9L72.8,514L72.8,514z"/>
</g>
<g>
	<path class="st11" d="M59.6,526.6c1.1,0,1.8,0.3,2.5,1c0.1,0.1,0.1,0.2,0,0.3l-0.6,0.7c-0.1,0.1-0.2,0.1-0.3,0
		c-0.4-0.4-1-0.6-1.6-0.6c-1.3,0-2.3,1.1-2.3,2.4c0,1.3,1,2.4,2.3,2.4c0.6,0,1.2-0.2,1.6-0.6c0.1-0.1,0.2-0.1,0.3,0l0.6,0.7
		c0.1,0.1,0.1,0.2,0,0.3c-0.7,0.7-1.6,1-2.5,1c-2.1,0-3.8-1.7-3.8-3.7C55.8,528.3,57.5,526.6,59.6,526.6z"/>
	<path class="st11" d="M64.2,526.8c0-0.1,0.1-0.2,0.2-0.2h0.2c0.1,0,0.1,0,0.2,0.1l2.3,4.9l0,0l2.3-4.9c0-0.1,0.1-0.1,0.2-0.1h0.2
		c0.1,0,0.2,0.1,0.2,0.2l1.2,7c0,0.1-0.1,0.2-0.2,0.2h-1c-0.1,0-0.2-0.1-0.2-0.2l-0.6-3.9l0,0l-1.8,4.1c0,0.1-0.1,0.1-0.2,0.1H67
		c-0.1,0-0.1-0.1-0.2-0.1l-1.8-4.1l0,0l-0.6,3.9c0,0.1-0.1,0.2-0.2,0.2h-0.9c-0.1,0-0.2-0.1-0.2-0.2L64.2,526.8z"/>
	<path class="st11" d="M73.8,530.5l-2.4-3.5c-0.1-0.1,0-0.3,0.2-0.3h1.1c0.1,0,0.1,0.1,0.2,0.1l1.7,2.4l1.7-2.4c0,0,0.1-0.1,0.2-0.1
		h1.1c0.2,0,0.3,0.2,0.2,0.3l-2.4,3.5v3.3c0,0.1-0.1,0.2-0.2,0.2h-1c-0.1,0-0.2-0.1-0.2-0.2v-3.3H73.8z"/>
	<path class="st11" d="M78.5,527c0-0.1,0.1-0.3,0.2-0.3h0.9c0.1,0,0.2,0.1,0.2,0.3v2.8l2.6-3c0-0.1,0.1-0.1,0.2-0.1h1
		c0.2,0,0.3,0.2,0.2,0.4l-2.7,3.1l2.9,3.5c0.1,0.1,0,0.4-0.2,0.4h-1.1c-0.1,0-0.2,0-0.2-0.1l-2.7-3.4v3.2c0,0.1-0.1,0.3-0.2,0.3
		h-0.9c-0.1,0-0.2-0.1-0.2-0.3C78.5,533.8,78.5,527,78.5,527z"/>
</g>
</svg>
