<svg xmlns="http://www.w3.org/2000/svg" viewBox="0 0 792 600"><defs><style>.cls-1{fill:#404041;}.cls-2{fill:#f6ed56;}.cls-3{fill:#3b3b4d;}.cls-4{fill:none;}.cls-5{fill:#8d6daf;}.cls-6{fill:#fff;}.cls-7{fill:#02b6b2;}.cls-8{fill:#f8eaa7;}.cls-9{fill:#ffda83;}.cls-10{fill:#d93b4d;}</style></defs><title>Asset 2</title><g id="Layer_2" data-name="Layer 2"><g id="Layer_1-2" data-name="Layer 1"><path class="cls-1" d="M467.7,516.65H60.8A11.76,11.76,0,0,1,49.05,504.9V372.6A11.76,11.76,0,0,1,60.8,360.85H467.7a11.76,11.76,0,0,1,11.75,11.75V504.9A11.76,11.76,0,0,1,467.7,516.65ZM60.8,362.35A10.26,10.26,0,0,0,50.55,372.6V504.9A10.26,10.26,0,0,0,60.8,515.15H467.7A10.26,10.26,0,0,0,478,504.9V372.6a10.26,10.26,0,0,0-10.25-10.25Z"/><path class="cls-1" d="M467.7,200.25H60.8A11.76,11.76,0,0,1,49.05,188.5V92.6A11.76,11.76,0,0,1,60.8,80.85H467.7A11.76,11.76,0,0,1,479.45,92.6v95.9A11.76,11.76,0,0,1,467.7,200.25ZM60.8,82.35A10.26,10.26,0,0,0,50.55,92.6v95.9A10.26,10.26,0,0,0,60.8,198.75H467.7A10.26,10.26,0,0,0,478,188.5V92.6A10.26,10.26,0,0,0,467.7,82.35Z"/><path class="cls-2" d="M578,257l-8-121.56a1,1,0,0,1,1.17-1l122.31,21.81a1,1,0,0,1,.82,1.06L687.77,243a1,1,0,0,1-.87.91l-107.77,14A1,1,0,0,1,578,257Z"/><path class="cls-3" d="M572,250.7a1.74,1.74,0,0,1-1.75-1.64h0l-8-121.56a1.71,1.71,0,0,1,.58-1.42,1.75,1.75,0,0,1,1.47-.42l122.31,21.81a1.75,1.75,0,0,1,1.44,1.86l-6.53,85.72a1.76,1.76,0,0,1-1.52,1.61l-107.77,14Zm-.25-1.74a.22.22,0,0,0,.09.18.24.24,0,0,0,.19.06l107.77-14a.27.27,0,0,0,.22-.23l6.52-85.72a.24.24,0,0,0-.2-.27L564,127.14a.24.24,0,0,0-.21.06.24.24,0,0,0-.09.2Z"/><path class="cls-1" d="M24.8,36.6H23.7v-9H25c2.8,0,3.6,1,3.6,2.6,0,1.9-1.5,2.6-3.2,2.6h-.6Zm0-4.8h.4c1.2,0,2.4-.2,2.4-1.7s-1.3-1.6-2.5-1.6h-.3Z"/><path class="cls-1" d="M30.6,31.9h0a1.71,1.71,0,0,1,1.6-1.1,1.61,1.61,0,0,1,.9.3l-.5,1a.84.84,0,0,0-.7-.2c-1.2,0-1.3,1.1-1.3,2v2.8H29.5V31h1.1Z"/><path class="cls-1" d="M35.2,28.4a.7.7,0,0,1-1.4,0,.77.77,0,0,1,.7-.8A.85.85,0,0,1,35.2,28.4ZM35,36.6H33.9V31H35Z"/><path class="cls-1" d="M37.8,31.7h0a1.86,1.86,0,0,1,1.5-.9,1.78,1.78,0,0,1,1.6,1,1.94,1.94,0,0,1,1.7-1c1.5,0,1.9,1.2,1.9,2.4v3.4H43.4V33.4c0-.7-.1-1.6-1-1.6-1.2,0-1.2,1.2-1.2,2.1v2.8H40.1v-3c0-.7,0-1.8-1-1.8-1.2,0-1.2,1.2-1.2,2.1v2.8H36.8V31h1.1v.7Z"/><path class="cls-1" d="M51.2,36.6H50.1v-.9h0a2.37,2.37,0,0,1-1.9,1.1,2.76,2.76,0,0,1-2.7-3,2.73,2.73,0,0,1,2.7-2.9A2.14,2.14,0,0,1,50.1,32h0V31h1.1Zm-1-2.8a1.84,1.84,0,0,0-1.8-2,1.9,1.9,0,0,0-1.8,2,1.79,1.79,0,0,0,1.8,2A1.84,1.84,0,0,0,50.2,33.8Z"/><path class="cls-1" d="M53.8,31.9h0a1.71,1.71,0,0,1,1.6-1.1,1.61,1.61,0,0,1,.9.3l-.5,1a.84.84,0,0,0-.7-.2c-1.2,0-1.3,1.1-1.3,2v2.8H52.7V31h1.1Z"/><path class="cls-1" d="M56.4,31h1.3l1.9,3.6L61.4,31h1.2L58,39.8H56.8L59,35.6Z"/><path class="cls-1" d="M68,34.3l-1,2.3H65.8l4.3-9.4,4.3,9.4H73.2l-1-2.3Zm2.1-4.7-1.6,3.7h3.2Z"/><path class="cls-1" d="M76.1,31v3.1c0,.9.2,1.7,1.3,1.7s1.3-.8,1.3-1.7V31h1.1v3.2c0,1.5-.7,2.6-2.4,2.6s-2.4-1-2.4-2.6V31Z"/><path class="cls-1" d="M85.4,35.7h0a2.52,2.52,0,0,1-1.9,1.1,2.76,2.76,0,0,1-2.7-3,2.72,2.72,0,0,1,2.6-2.9,2.43,2.43,0,0,1,2,1.1h0V26.3h1.1V36.7H85.4Zm0-1.9a1.84,1.84,0,0,0-1.8-2,1.9,1.9,0,0,0-1.8,2,1.81,1.81,0,1,0,3.6,0Z"/><path class="cls-1" d="M89.4,28.4a.7.7,0,0,1-1.4,0,.77.77,0,0,1,.7-.8A1,1,0,0,1,89.4,28.4Zm-.2,8.2H88.1V31h1.1Z"/><path class="cls-1" d="M91.5,34a1.8,1.8,0,0,0,1.7,1.9,1.85,1.85,0,0,0,1.7-1.1l.9.5a2.88,2.88,0,0,1-5.4-1.5c0-1.7.9-3,2.7-3s2.6,1.3,2.6,3V34Zm3.2-.8a1.52,1.52,0,0,0-1.5-1.4,1.62,1.62,0,0,0-1.6,1.4Z"/><path class="cls-1" d="M97.8,31.7h0a2,2,0,0,1,1.7-.9c1.6,0,2,1.1,2,2.4v3.3h-1.1V33.3c0-1-.1-1.6-1.2-1.6-1.4,0-1.4,1.2-1.4,2.2v2.6H96.7V31h1.1Z"/><path class="cls-1" d="M107.1,32.6a2.09,2.09,0,0,0-1.6-.8,1.92,1.92,0,0,0-1.9,2,1.87,1.87,0,0,0,1.9,2,2.13,2.13,0,0,0,1.5-.7v1.4a2.82,2.82,0,0,1-1.5.4,3,3,0,1,1,.1-6,2.6,2.6,0,0,1,1.5.4Z"/><path class="cls-1" d="M109,34a1.8,1.8,0,0,0,1.7,1.9,1.85,1.85,0,0,0,1.7-1.1l.9.5a2.88,2.88,0,0,1-5.4-1.5c0-1.7.9-3,2.7-3s2.6,1.3,2.6,3V34Zm3.2-.8a1.52,1.52,0,0,0-1.5-1.4,1.62,1.62,0,0,0-1.6,1.4Z"/><path class="cls-1" d="M27.7,310a1.55,1.55,0,0,0-1.5-.9,1.43,1.43,0,0,0-1.5,1.3c0,.7.7,1.1,1.3,1.3l.6.3c1.3.5,2.2,1.2,2.2,2.7a2.86,2.86,0,0,1-5.7.3l1.1-.2a1.75,1.75,0,1,0,3.5-.1c0-1-.8-1.4-1.6-1.7l-.6-.3c-1-.4-2-1-2-2.3a2.43,2.43,0,0,1,2.7-2.3,2.54,2.54,0,0,1,2.3,1.4Z"/><path class="cls-1" d="M30.6,314.7a1.8,1.8,0,0,0,1.7,1.9,1.85,1.85,0,0,0,1.7-1.1l.9.5a2.88,2.88,0,0,1-5.4-1.5c0-1.7.9-3,2.7-3s2.6,1.3,2.6,3v.2Zm3.2-.9a1.52,1.52,0,0,0-1.5-1.4,1.62,1.62,0,0,0-1.6,1.4Z"/><path class="cls-1" d="M40,313.3a2.09,2.09,0,0,0-1.6-.8,1.92,1.92,0,0,0-1.9,2,1.87,1.87,0,0,0,1.9,2,2.13,2.13,0,0,0,1.5-.7v1.4a2.82,2.82,0,0,1-1.5.4,3,3,0,1,1,.1-6,2.6,2.6,0,0,1,1.5.4Z"/><path class="cls-1" d="M46.6,314.5a3,3,0,1,1-3-3A2.95,2.95,0,0,1,46.6,314.5Zm-4.9,0a1.9,1.9,0,1,0,1.9-2A2,2,0,0,0,41.7,314.5Z"/><path class="cls-1" d="M48.7,312.4h0a2,2,0,0,1,1.7-.9c1.6,0,2,1.1,2,2.4v3.3H51.3V314c0-1-.1-1.6-1.2-1.6-1.4,0-1.4,1.2-1.4,2.2v2.6H47.6v-5.6h1.1Z"/><path class="cls-1" d="M58.1,316.4h0a2.52,2.52,0,0,1-1.9,1.1,2.76,2.76,0,0,1-2.7-3,2.72,2.72,0,0,1,2.6-2.9,2.43,2.43,0,0,1,2,1.1h0V307h1.1v10.4H58.1Zm0-1.9a1.84,1.84,0,0,0-1.8-2,1.9,1.9,0,0,0-1.8,2,1.81,1.81,0,1,0,3.6,0Z"/><path class="cls-1" d="M65.8,317.3H64.7v-.9h0a2.37,2.37,0,0,1-1.9,1.1,2.76,2.76,0,0,1-2.7-3,2.73,2.73,0,0,1,2.7-2.9,2.14,2.14,0,0,1,1.9,1.1h0v-.9h1.1Zm-1-2.8a1.84,1.84,0,0,0-1.8-2,1.9,1.9,0,0,0-1.8,2,1.81,1.81,0,1,0,3.6,0Z"/><path class="cls-1" d="M68.4,312.6h0a1.71,1.71,0,0,1,1.6-1.1,1.61,1.61,0,0,1,.9.3l-.5,1a.84.84,0,0,0-.7-.2c-1.2,0-1.3,1.1-1.3,2v2.8H67.3v-5.6h1.1Z"/><path class="cls-1" d="M71,311.7h1.3l1.9,3.6,1.8-3.6h1.2l-4.5,8.8H71.5l2.2-4.2Z"/><path class="cls-1" d="M82.6,315l-1,2.3H80.4l4.3-9.4,4.3,9.4H87.8l-1-2.3Zm2.1-4.7L83.1,314h3.2Z"/><path class="cls-1" d="M90.7,311.7v3.1c0,.9.2,1.7,1.3,1.7s1.3-.8,1.3-1.7v-3.1h1.1v3.2c0,1.5-.7,2.6-2.4,2.6s-2.4-1-2.4-2.6v-3.2Z"/><path class="cls-1" d="M100,316.4h0a2.52,2.52,0,0,1-1.9,1.1,2.76,2.76,0,0,1-2.7-3,2.72,2.72,0,0,1,2.6-2.9,2.43,2.43,0,0,1,2,1.1h0V307h1.1v10.4H100Zm0-1.9a1.84,1.84,0,0,0-1.8-2,1.9,1.9,0,0,0-1.8,2,1.81,1.81,0,1,0,3.6,0Z"/><path class="cls-1" d="M104,309.1a.7.7,0,1,1-1.4,0,.77.77,0,0,1,.7-.8A1,1,0,0,1,104,309.1Zm-.2,8.2h-1.1v-5.6h1.1Z"/><path class="cls-1" d="M106.2,314.7a1.8,1.8,0,0,0,1.7,1.9,1.85,1.85,0,0,0,1.7-1.1l.9.5a2.88,2.88,0,0,1-5.4-1.5c0-1.7.9-3,2.7-3s2.6,1.3,2.6,3v.2Zm3.2-.9a1.52,1.52,0,0,0-1.5-1.4,1.62,1.62,0,0,0-1.6,1.4Z"/><path class="cls-1" d="M112.4,312.4h0a2,2,0,0,1,1.7-.9c1.6,0,2,1.1,2,2.4v3.3H115V314c0-1-.1-1.6-1.2-1.6-1.4,0-1.4,1.2-1.4,2.2v2.6h-1.1v-5.6h1.1Z"/><path class="cls-1" d="M121.8,313.3a2.09,2.09,0,0,0-1.6-.8,1.92,1.92,0,0,0-1.9,2,1.87,1.87,0,0,0,1.9,2,2.13,2.13,0,0,0,1.5-.7v1.4a2.82,2.82,0,0,1-1.5.4,3,3,0,1,1,.1-6,2.6,2.6,0,0,1,1.5.4Z"/><path class="cls-1" d="M123.6,314.7a1.8,1.8,0,0,0,1.7,1.9,1.85,1.85,0,0,0,1.7-1.1l.9.5a2.88,2.88,0,0,1-5.4-1.5c0-1.7.9-3,2.7-3s2.6,1.3,2.6,3v.2Zm3.2-.9a1.52,1.52,0,0,0-1.5-1.4,1.62,1.62,0,0,0-1.6,1.4Z"/><path class="cls-1" d="M77.9,123.5l2.4-4.8,1,.4-2,5Zm3,0,2.4-4.8,1,.4-2,5Z"/><path class="cls-1" d="M91,132.6H89.3V119H91Z"/><path class="cls-1" d="M100.1,125.3h0a2.9,2.9,0,0,1,2.6-1.4c2.4,0,3,1.6,3,3.7v5h-1.6v-4.8c0-1.4-.2-2.4-1.9-2.4-2.1,0-2.1,1.8-2.1,3.4v3.9H98.5v-8.4h1.6Z"/><path class="cls-1" d="M108.9,128.7a2.67,2.67,0,0,0,2.5,2.8,2.74,2.74,0,0,0,2.5-1.6l1.4.8a4.34,4.34,0,0,1-3.9,2.3c-2.6,0-4.1-1.9-4.1-4.4s1.4-4.5,4.1-4.5,3.9,2,3.9,4.5v.3h-6.4Zm4.8-1.3a2.22,2.22,0,0,0-2.3-2.1,2.39,2.39,0,0,0-2.4,2.1Z"/><path class="cls-1" d="M117.7,128.7a2.67,2.67,0,0,0,2.5,2.8,2.74,2.74,0,0,0,2.5-1.6l1.4.8a4.34,4.34,0,0,1-3.9,2.3c-2.6,0-4.1-1.9-4.1-4.4s1.4-4.5,4.1-4.5,3.9,2,3.9,4.5v.3h-6.4Zm4.8-1.3a2.22,2.22,0,0,0-2.3-2.1,2.39,2.39,0,0,0-2.4,2.1Z"/><path class="cls-1" d="M131.8,131.3h0a3.48,3.48,0,0,1-2.9,1.6c-2.6,0-4-2.1-4-4.6a4.11,4.11,0,0,1,4-4.4,3.13,3.13,0,0,1,2.9,1.7h0V117h1.6v15.6h-1.6Zm.1-2.9a2.76,2.76,0,0,0-2.7-3,2.82,2.82,0,0,0-2.7,3,2.85,2.85,0,0,0,2.7,3.1A2.91,2.91,0,0,0,131.9,128.4Z"/><path class="cls-1" d="M144.9,118.6a3.54,3.54,0,0,0-1.1-.3c-1.2,0-1.2,1.5-1.2,2.3v3.6h2.2v1.5h-2.2v6.9H141v-6.9h-.7v-1.5h.7v-4.1c0-1.8.6-3.3,2.7-3.3a3.59,3.59,0,0,1,1.1.2v1.6Z"/><path class="cls-1" d="M147.4,125.5h0a2.6,2.6,0,0,1,2.4-1.6,2.84,2.84,0,0,1,1.3.4l-.7,1.5a1.21,1.21,0,0,0-1-.3c-1.7,0-2,1.6-2,3v4.1h-1.6v-8.4h1.6Z"/><path class="cls-1" d="M153,128.7a2.67,2.67,0,0,0,2.5,2.8,2.74,2.74,0,0,0,2.5-1.6l1.4.8a4.34,4.34,0,0,1-3.9,2.3c-2.6,0-4.1-1.9-4.1-4.4s1.4-4.5,4.1-4.5,3.9,2,3.9,4.5v.3H153Zm4.8-1.3a2.22,2.22,0,0,0-2.3-2.1,2.39,2.39,0,0,0-2.4,2.1Z"/><path class="cls-1" d="M164.1,126.1a1.23,1.23,0,0,0-1.1-.7.88.88,0,0,0-.9.8c0,.7,1,1.1,2,1.5a2.58,2.58,0,0,1,1.9,2.4,2.82,2.82,0,0,1-2.9,2.8,3,3,0,0,1-2.9-1.9l1.4-.6a1.74,1.74,0,0,0,1.5,1.1,1.24,1.24,0,0,0,1.3-1.2.87.87,0,0,0-.6-.9l-1.6-.8c-.9-.5-1.6-1-1.6-2.1a2.39,2.39,0,0,1,2.5-2.4,2.53,2.53,0,0,1,2.3,1.5Z"/><path class="cls-1" d="M169.3,117v8.3h0a2.85,2.85,0,0,1,2.5-1.4c2.4,0,3,1.6,3,3.7v5h-1.6v-4.8c0-1.4-.2-2.4-1.9-2.4-2.1,0-2.1,1.8-2.1,3.4v3.9h-1.6V117Z"/><path class="cls-1" d="M184.6,120.3a1.1,1.1,0,1,1-1.1-1.1A1.11,1.11,0,0,1,184.6,120.3Zm-.3,12.3h-1.6v-8.4h1.6Z"/><path class="cls-1" d="M188.5,125.3h0a2.9,2.9,0,0,1,2.6-1.4c2.4,0,3,1.6,3,3.7v5h-1.6v-4.8c0-1.4-.2-2.4-1.9-2.4-2.1,0-2.1,1.8-2.1,3.4v3.9h-1.6v-8.4h1.6Z"/><path class="cls-1" d="M199.7,126.1a1.23,1.23,0,0,0-1.1-.7.88.88,0,0,0-.9.8c0,.7,1,1.1,2,1.5a2.58,2.58,0,0,1,1.9,2.4,2.82,2.82,0,0,1-2.9,2.8,3,3,0,0,1-2.9-1.9l1.4-.6a1.74,1.74,0,0,0,1.5,1.1,1.24,1.24,0,0,0,1.3-1.2.87.87,0,0,0-.6-.9l-1.6-.8c-.9-.5-1.6-1-1.6-2.1a2.39,2.39,0,0,1,2.5-2.4,2.53,2.53,0,0,1,2.3,1.5Z"/><path class="cls-1" d="M204.7,125.6h0a3.62,3.62,0,0,1,3-1.7,4.17,4.17,0,0,1,4,4.4c0,2.4-1.4,4.6-4,4.6a3.48,3.48,0,0,1-2.9-1.6h0v6.1h-1.6V124.1h1.6v1.5Zm5.3,2.8a2.76,2.76,0,0,0-2.7-3,2.82,2.82,0,0,0-2.7,3,2.85,2.85,0,0,0,2.7,3.1A2.91,2.91,0,0,0,210,128.4Z"/><path class="cls-1" d="M215.5,120.3a1.1,1.1,0,1,1-1.1-1.1A1.11,1.11,0,0,1,215.5,120.3Zm-.3,12.3h-1.6v-8.4h1.6Z"/><path class="cls-1" d="M219.5,125.5h0a2.6,2.6,0,0,1,2.4-1.6,2.84,2.84,0,0,1,1.3.4l-.7,1.5a1.21,1.21,0,0,0-1-.3c-1.7,0-2,1.6-2,3v4.1h-1.6v-8.4h1.6Z"/><path class="cls-1" d="M232,132.6h-1.6v-1.3h0a3.36,3.36,0,0,1-2.9,1.6c-2.6,0-4-2.1-4-4.6a4.11,4.11,0,0,1,4-4.4,3.24,3.24,0,0,1,2.9,1.7h0v-1.4H232Zm-1.5-4.2a2.76,2.76,0,0,0-2.7-3,2.82,2.82,0,0,0-2.7,3,2.85,2.85,0,0,0,2.7,3.1A2.91,2.91,0,0,0,230.5,128.4Z"/><path class="cls-1" d="M235.9,132.6h-1.6v-6.9h-.9v-1.5h.9V121h1.6v3.2h1.6v1.5h-1.6Z"/><path class="cls-1" d="M240.7,120.3a1.1,1.1,0,1,1-1.1-1.1A1.11,1.11,0,0,1,240.7,120.3Zm-.3,12.3h-1.6v-8.4h1.6Z"/><path class="cls-1" d="M251.2,128.4a4.48,4.48,0,0,1-4.5,4.5,4.5,4.5,0,0,1,0-9A4.48,4.48,0,0,1,251.2,128.4Zm-7.3,0a2.9,2.9,0,0,0,2.9,2.9,3,3,0,0,0,2.9-2.9,2.9,2.9,0,1,0-5.8,0Z"/><path class="cls-1" d="M254.3,125.3h0a2.9,2.9,0,0,1,2.6-1.4c2.4,0,3,1.6,3,3.7v5h-1.6v-4.8c0-1.4-.2-2.4-1.9-2.4-2.1,0-2.1,1.8-2.1,3.4v3.9h-1.6v-8.4h1.6Z"/><path class="cls-1" d="M265.5,126.1a1.23,1.23,0,0,0-1.1-.7.88.88,0,0,0-.9.8c0,.7,1,1.1,2,1.5a2.58,2.58,0,0,1,1.9,2.4,2.82,2.82,0,0,1-2.9,2.8,3,3,0,0,1-2.9-1.9l1.4-.6a1.74,1.74,0,0,0,1.5,1.1,1.24,1.24,0,0,0,1.3-1.2.87.87,0,0,0-.6-.9l-1.6-.8c-.9-.5-1.6-1-1.6-2.1a2.39,2.39,0,0,1,2.5-2.4,2.53,2.53,0,0,1,2.3,1.5Z"/><path class="cls-1" d="M278.4,118.6a3.54,3.54,0,0,0-1.1-.3c-1.2,0-1.2,1.5-1.2,2.3v3.6h2.2v1.5h-2.2v6.9h-1.6v-6.9h-.7v-1.5h.7v-4.1c0-1.8.6-3.3,2.7-3.3a3.59,3.59,0,0,1,1.1.2v1.6Z"/><path class="cls-1" d="M280.9,125.5h0a2.6,2.6,0,0,1,2.4-1.6,2.84,2.84,0,0,1,1.3.4l-.7,1.5a1.21,1.21,0,0,0-1-.3c-1.7,0-2,1.6-2,3v4.1h-1.6v-8.4h1.6v1.3Z"/><path class="cls-1" d="M293.7,128.4a4.48,4.48,0,0,1-4.5,4.5,4.5,4.5,0,0,1,0-9A4.48,4.48,0,0,1,293.7,128.4Zm-7.3,0a2.9,2.9,0,0,0,2.9,2.9,3,3,0,0,0,2.9-2.9,2.9,2.9,0,1,0-5.8,0Z"/><path class="cls-1" d="M296.8,125.2h0a3,3,0,0,1,2.3-1.3,2.67,2.67,0,0,1,2.4,1.5,3,3,0,0,1,2.6-1.5c2.2,0,2.8,1.7,2.8,3.6v5h-1.6v-4.8c0-1.1-.1-2.5-1.6-2.5-1.7,0-1.9,1.8-1.9,3.1v4.1h-1.6v-4.5c0-1.1-.1-2.8-1.5-2.8-1.7,0-1.9,1.8-1.9,3.1v4.1h-1.6v-8.4h1.6v1.3Z"/><path class="cls-1" d="M322.5,128.4a4.48,4.48,0,0,1-4.5,4.5,4.5,4.5,0,0,1,0-9A4.48,4.48,0,0,1,322.5,128.4Zm-7.4,0a2.9,2.9,0,0,0,2.9,2.9,3,3,0,0,0,2.9-2.9,2.9,2.9,0,1,0-5.8,0Z"/><path class="cls-1" d="M325.5,124.2v4.7c0,1.4.3,2.5,1.9,2.5s1.9-1.2,1.9-2.5v-4.7h1.6V129c0,2.3-1.1,3.9-3.6,3.9s-3.6-1.6-3.6-3.9v-4.8Z"/><path class="cls-1" d="M335,132.6h-1.6v-6.9h-.9v-1.5h.9V121H335v3.2h1.6v1.5H335Z"/><path class="cls-1" d="M340.9,126.1a1.23,1.23,0,0,0-1.1-.7.88.88,0,0,0-.9.8c0,.7,1,1.1,2,1.5a2.58,2.58,0,0,1,1.9,2.4,2.82,2.82,0,0,1-2.9,2.8A3,3,0,0,1,337,131l1.4-.6a1.74,1.74,0,0,0,1.5,1.1,1.24,1.24,0,0,0,1.3-1.2.87.87,0,0,0-.6-.9l-1.6-.8c-.9-.5-1.6-1-1.6-2.1a2.39,2.39,0,0,1,2.5-2.4,2.53,2.53,0,0,1,2.3,1.5Z"/><path class="cls-1" d="M346.7,120.3a1.1,1.1,0,1,1-1.1-1.1A1.11,1.11,0,0,1,346.7,120.3Zm-.3,12.3h-1.6v-8.4h1.6Z"/><path class="cls-1" d="M355.3,131.3h0a3.48,3.48,0,0,1-2.9,1.6c-2.6,0-4-2.1-4-4.6a4.11,4.11,0,0,1,4-4.4,3.13,3.13,0,0,1,2.9,1.7h0V117h1.6v15.6h-1.6Zm0-2.9a2.76,2.76,0,0,0-2.7-3,2.82,2.82,0,0,0-2.7,3,2.73,2.73,0,1,0,5.4,0Z"/><path class="cls-1" d="M359.9,128.7a2.67,2.67,0,0,0,2.5,2.8,2.74,2.74,0,0,0,2.5-1.6l1.4.8a4.34,4.34,0,0,1-3.9,2.3c-2.6,0-4.1-1.9-4.1-4.4s1.4-4.5,4.1-4.5,3.9,2,3.9,4.5v.3h-6.4Zm4.9-1.3a2.22,2.22,0,0,0-2.3-2.1,2.39,2.39,0,0,0-2.4,2.1Z"/><path class="cls-1" d="M381.2,128.4a4.48,4.48,0,0,1-4.5,4.5,4.5,4.5,0,0,1,0-9A4.48,4.48,0,0,1,381.2,128.4Zm-7.4,0a2.9,2.9,0,0,0,2.9,2.9,3,3,0,0,0,2.9-2.9,2.9,2.9,0,0,0-5.8,0Z"/><path class="cls-1" d="M386.9,118.6a3.54,3.54,0,0,0-1.1-.3c-1.2,0-1.2,1.5-1.2,2.3v3.6h2.2v1.5h-2.2v6.9H383v-6.9h-.7v-1.5h.7v-4.1c0-1.8.6-3.3,2.7-3.3a3.59,3.59,0,0,1,1.1.2v1.6Z"/><path class="cls-1" d="M90.8,158.6H89.2v-6.9h-.9v-1.5h.9V147h1.6v3.2h1.6v1.5H90.8Z"/><path class="cls-1" d="M94.9,143v8.3h0a2.85,2.85,0,0,1,2.5-1.4c2.4,0,3,1.6,3,3.7v5H98.8v-4.8c0-1.4-.2-2.4-1.9-2.4-2.1,0-2.1,1.8-2.1,3.4v3.9H93.2V143Z"/><path class="cls-1" d="M103.6,154.7a2.67,2.67,0,0,0,2.5,2.8,2.74,2.74,0,0,0,2.5-1.6l1.4.8a4.34,4.34,0,0,1-3.9,2.3c-2.6,0-4.1-1.9-4.1-4.4s1.4-4.5,4.1-4.5,3.9,2,3.9,4.5v.3h-6.4Zm4.8-1.3a2.22,2.22,0,0,0-2.3-2.1,2.39,2.39,0,0,0-2.4,2.1Z"/><path class="cls-1" d="M120,152.1a1.23,1.23,0,0,0-1.1-.7.88.88,0,0,0-.9.8c0,.7,1,1.1,2,1.5a2.58,2.58,0,0,1,1.9,2.4,2.82,2.82,0,0,1-2.9,2.8,3,3,0,0,1-2.9-1.9l1.4-.6a1.74,1.74,0,0,0,1.5,1.1,1.24,1.24,0,0,0,1.3-1.2.87.87,0,0,0-.6-.9l-1.6-.8c-.9-.5-1.6-1-1.6-2.1a2.39,2.39,0,0,1,2.5-2.4,2.53,2.53,0,0,1,2.3,1.5Z"/><path class="cls-1" d="M129.7,152.6a3,3,0,0,0-2.4-1.1,2.91,2.91,0,0,0-2.8,3,2.86,2.86,0,0,0,2.9,3,3,3,0,0,0,2.3-1.1v2.1a4.65,4.65,0,0,1-2.3.6,4.4,4.4,0,0,1-4.5-4.4,4.44,4.44,0,0,1,4.6-4.5,4,4,0,0,1,2.2.6Z"/><path class="cls-1" d="M133.1,143v8.3h0a2.85,2.85,0,0,1,2.5-1.4c2.4,0,3,1.6,3,3.7v5H137v-4.8c0-1.4-.2-2.4-1.9-2.4-2.1,0-2.1,1.8-2.1,3.4v3.9h-1.6V143Z"/><path class="cls-1" d="M149.1,154.4a4.48,4.48,0,0,1-4.5,4.5,4.5,4.5,0,1,1,4.5-4.5Zm-7.3,0a2.9,2.9,0,0,0,2.9,2.9,3,3,0,0,0,2.9-2.9,2.9,2.9,0,1,0-5.8,0Z"/><path class="cls-1" d="M158.9,154.4a4.48,4.48,0,0,1-4.5,4.5,4.5,4.5,0,0,1,0-9A4.48,4.48,0,0,1,158.9,154.4Zm-7.4,0a2.9,2.9,0,0,0,2.9,2.9,3,3,0,0,0,2.9-2.9,2.9,2.9,0,0,0-5.8,0Z"/><path class="cls-1" d="M162,158.6h-1.6V143H162Z"/><path class="cls-1" d="M173.7,144.6a3.54,3.54,0,0,0-1.1-.3c-1.2,0-1.2,1.5-1.2,2.3v3.6h2.2v1.5h-2.2v6.9h-1.6v-6.9h-.7v-1.5h.7v-4.1c0-1.8.6-3.3,2.7-3.3a3.59,3.59,0,0,1,1.1.2v1.6Z"/><path class="cls-1" d="M182.7,154.4a4.48,4.48,0,0,1-4.5,4.5,4.5,4.5,0,0,1,0-9A4.48,4.48,0,0,1,182.7,154.4Zm-7.3,0a2.9,2.9,0,0,0,2.9,2.9,3,3,0,0,0,2.9-2.9,2.9,2.9,0,1,0-5.8,0Z"/><path class="cls-1" d="M185.9,151.5h0a2.6,2.6,0,0,1,2.4-1.6,2.84,2.84,0,0,1,1.3.4l-.7,1.5a1.21,1.21,0,0,0-1-.3c-1.7,0-2,1.6-2,3v4.1h-1.6v-8.4h1.6Z"/><path class="cls-1" d="M197.3,151.2h0a3,3,0,0,1,2.3-1.3,2.67,2.67,0,0,1,2.4,1.5,3,3,0,0,1,2.6-1.5c2.2,0,2.8,1.7,2.8,3.6v5h-1.6v-4.8c0-1.1-.1-2.5-1.6-2.5-1.7,0-1.9,1.8-1.9,3.1v4.1h-1.6v-4.5c0-1.1-.1-2.8-1.5-2.8-1.7,0-1.9,1.8-1.9,3.1v4.1h-1.6v-8.4h1.6Z"/><path class="cls-1" d="M208.2,150.2h1.9l2.8,5.3,2.6-5.3h1.8l-6.8,13.3h-1.8l3.3-6.3Z"/><path class="cls-1" d="M226.8,152.1a1.23,1.23,0,0,0-1.1-.7.88.88,0,0,0-.9.8c0,.7,1,1.1,2,1.5a2.58,2.58,0,0,1,1.9,2.4,2.82,2.82,0,0,1-2.9,2.8,3,3,0,0,1-2.9-1.9l1.4-.6a1.74,1.74,0,0,0,1.5,1.1,1.24,1.24,0,0,0,1.3-1.2.87.87,0,0,0-.6-.9l-1.6-.8c-.9-.5-1.6-1-1.6-2.1a2.39,2.39,0,0,1,2.5-2.4,2.53,2.53,0,0,1,2.3,1.5Z"/><path class="cls-1" d="M232.1,153.3l3.2-3.2h2.1l-3.6,3.5,4,4.9h-2.1l-3-3.8-.6.6v3.3h-1.6V143h1.6v10.3Z"/><path class="cls-1" d="M241,146.3a1.1,1.1,0,1,1-1.1-1.1A1.11,1.11,0,0,1,241,146.3Zm-.3,12.3H239v-8.4h1.6v8.4Z"/><path class="cls-1" d="M244.9,158.6h-1.6V143h1.6Z"/><path class="cls-1" d="M248.9,158.6h-1.6V143h1.6Z"/><path class="cls-1" d="M264.3,158.6h-1.6v-1.3h0a3.36,3.36,0,0,1-2.9,1.6c-2.6,0-4-2.1-4-4.6a4.11,4.11,0,0,1,4-4.4,3.24,3.24,0,0,1,2.9,1.7h0v-1.4h1.6Zm-1.5-4.2a2.76,2.76,0,0,0-2.7-3,2.82,2.82,0,0,0-2.7,3,2.85,2.85,0,0,0,2.7,3.1A2.91,2.91,0,0,0,262.8,154.4Z"/><path class="cls-1" d="M268.1,151.3h0a2.9,2.9,0,0,1,2.6-1.4c2.4,0,3,1.6,3,3.7v5H272v-4.8c0-1.4-.2-2.4-1.9-2.4-2.1,0-2.1,1.8-2.1,3.4v3.9h-1.6v-8.4H268v1Z"/><path class="cls-1" d="M282.1,157.3h0a3.48,3.48,0,0,1-2.9,1.6c-2.6,0-4-2.1-4-4.6a4.11,4.11,0,0,1,4-4.4,3.13,3.13,0,0,1,2.9,1.7h0V143h1.6v15.6h-1.6Zm.1-2.9a2.76,2.76,0,0,0-2.7-3,2.82,2.82,0,0,0-2.7,3,2.73,2.73,0,1,0,5.4,0Z"/><path class="cls-1" d="M292.6,151.6h0a3.62,3.62,0,0,1,3-1.7,4.17,4.17,0,0,1,4,4.4c0,2.4-1.4,4.6-4,4.6a3.48,3.48,0,0,1-2.9-1.6h0v6.1h-1.6V150.1h1.6v1.5Zm5.3,2.8a2.76,2.76,0,0,0-2.7-3,2.82,2.82,0,0,0-2.7,3,2.85,2.85,0,0,0,2.7,3.1A2.91,2.91,0,0,0,297.9,154.4Z"/><path class="cls-1" d="M309,158.6h-1.6v-1.3h0a3.36,3.36,0,0,1-2.9,1.6c-2.6,0-4-2.1-4-4.6a4.11,4.11,0,0,1,4-4.4,3.24,3.24,0,0,1,2.9,1.7h0v-1.4H309Zm-1.5-4.2a2.76,2.76,0,0,0-2.7-3,2.82,2.82,0,0,0-2.7,3,2.85,2.85,0,0,0,2.7,3.1A2.91,2.91,0,0,0,307.5,154.4Z"/><path class="cls-1" d="M312.9,158.6h-1.6v-6.9h-.9v-1.5h.9V147h1.6v3.2h1.6v1.5h-1.6Z"/><path class="cls-1" d="M317,143v8.3h0a2.85,2.85,0,0,1,2.5-1.4c2.4,0,3,1.6,3,3.7v5H321v-4.8c0-1.4-.2-2.4-1.9-2.4-2.1,0-2.1,1.8-2.1,3.4v3.9h-1.6V143Z"/><path class="cls-1" d="M334.2,144.6a3.54,3.54,0,0,0-1.1-.3c-1.2,0-1.2,1.5-1.2,2.3v3.6h2.2v1.5H332v6.9h-1.6v-6.9h-.7v-1.5h.7v-4.1c0-1.8.6-3.3,2.7-3.3a3.59,3.59,0,0,1,1.1.2Z"/><path class="cls-1" d="M343.2,154.4a4.48,4.48,0,0,1-4.5,4.5,4.5,4.5,0,0,1,0-9A4.48,4.48,0,0,1,343.2,154.4Zm-7.4,0a2.9,2.9,0,0,0,2.9,2.9,3,3,0,0,0,2.9-2.9,2.9,2.9,0,0,0-5.8,0Z"/><path class="cls-1" d="M346.4,151.5h0a2.6,2.6,0,0,1,2.4-1.6,2.84,2.84,0,0,1,1.3.4l-.7,1.5a1.21,1.21,0,0,0-1-.3c-1.7,0-2,1.6-2,3v4.1h-1.6v-8.4h1.6v1.3Z"/><path class="cls-1" d="M358.1,158.6h-1.6v-6.9h-.9v-1.5h.9V147h1.6v3.2h1.6v1.5h-1.6Z"/><path class="cls-1" d="M362.2,143v8.3h0a2.85,2.85,0,0,1,2.5-1.4c2.4,0,3,1.6,3,3.7v5h-1.6v-4.8c0-1.4-.2-2.4-1.9-2.4-2.1,0-2.1,1.8-2.1,3.4v3.9h-1.6V143Z"/><path class="cls-1" d="M370.9,154.7a2.67,2.67,0,0,0,2.5,2.8,2.74,2.74,0,0,0,2.5-1.6l1.4.8a4.34,4.34,0,0,1-3.9,2.3c-2.6,0-4.1-1.9-4.1-4.4s1.4-4.5,4.1-4.5,3.9,2,3.9,4.5v.3h-6.4Zm4.8-1.3a2.22,2.22,0,0,0-2.3-2.1,2.39,2.39,0,0,0-2.4,2.1Z"/><path class="cls-1" d="M388.1,144.6a3.54,3.54,0,0,0-1.1-.3c-1.2,0-1.2,1.5-1.2,2.3v3.6H388v1.5h-2.2v6.9h-1.6v-6.9h-.7v-1.5h.7v-4.1c0-1.8.6-3.3,2.7-3.3a3.59,3.59,0,0,1,1.1.2v1.6Z"/><path class="cls-1" d="M390.4,150.2v4.7c0,1.4.3,2.5,1.9,2.5s1.9-1.2,1.9-2.5v-4.7h1.6V155c0,2.3-1.1,3.9-3.6,3.9s-3.6-1.6-3.6-3.9v-4.8Z"/><path class="cls-1" d="M400,158.6h-1.6v-6.9h-.9v-1.5h.9V147H400v3.2h1.6v1.5H400Z"/><path class="cls-1" d="M404,150.2v4.7c0,1.4.3,2.5,1.9,2.5s1.9-1.2,1.9-2.5v-4.7h1.6V155c0,2.3-1.1,3.9-3.6,3.9s-3.6-1.6-3.6-3.9v-4.8Z"/><path class="cls-1" d="M413.4,151.5h0a2.6,2.6,0,0,1,2.4-1.6,2.84,2.84,0,0,1,1.3.4l-.7,1.5a1.21,1.21,0,0,0-1-.3c-1.7,0-2,1.6-2,3v4.1h-1.6v-8.4h1.6v1.3Z"/><path class="cls-1" d="M418.9,154.7a2.67,2.67,0,0,0,2.5,2.8,2.74,2.74,0,0,0,2.5-1.6l1.4.8a4.34,4.34,0,0,1-3.9,2.3c-2.6,0-4.1-1.9-4.1-4.4s1.4-4.5,4.1-4.5,3.9,2,3.9,4.5v.3h-6.4Zm4.8-1.3a2.22,2.22,0,0,0-2.3-2.1,2.39,2.39,0,0,0-2.4,2.1Z"/><path class="cls-1" d="M429.3,157.8a1,1,0,0,1-1,1,1.08,1.08,0,0,1-1-1,1,1,0,0,1,1-1A1.08,1.08,0,0,1,429.3,157.8Z"/><path class="cls-1" d="M434.7,145.3l-2.4,4.8-1-.4,2-5Zm2.9,0-2.4,4.8-1-.4,2-5Z"/><path class="cls-1" d="M77.9,398.2l2.4-4.8,1,.4-2,5Zm3,0,2.4-4.8,1,.4-2,5Z"/><path class="cls-1" d="M93.2,407.3H91.5v-12H88.3v-1.5h8.1v1.5H93.2Z"/><path class="cls-1" d="M99.2,391.7V400h0a2.85,2.85,0,0,1,2.5-1.4c2.4,0,3,1.6,3,3.7v5h-1.6v-4.8c0-1.4-.2-2.4-1.9-2.4-2.1,0-2.1,1.8-2.1,3.4v3.9H97.5V391.8h1.7Z"/><path class="cls-1" d="M107.9,403.3a2.67,2.67,0,0,0,2.5,2.8,2.74,2.74,0,0,0,2.5-1.6l1.4.8a4.34,4.34,0,0,1-3.9,2.3c-2.6,0-4.1-1.9-4.1-4.4s1.4-4.5,4.1-4.5,3.9,2,3.9,4.5v.3h-6.4Zm4.9-1.2a2.22,2.22,0,0,0-2.3-2.1,2.39,2.39,0,0,0-2.4,2.1Z"/><path class="cls-1" d="M122.6,407.3H121V391.7h1.6Z"/><path class="cls-1" d="M125.9,403.3a2.67,2.67,0,0,0,2.5,2.8,2.74,2.74,0,0,0,2.5-1.6l1.4.8a4.34,4.34,0,0,1-3.9,2.3c-2.6,0-4.1-1.9-4.1-4.4s1.4-4.5,4.1-4.5,3.9,2,3.9,4.5v.3h-6.4Zm4.8-1.2a2.22,2.22,0,0,0-2.3-2.1,2.39,2.39,0,0,0-2.4,2.1Z"/><path class="cls-1" d="M139.9,401.3a3,3,0,0,0-2.4-1.1,2.91,2.91,0,0,0-2.8,3,2.86,2.86,0,0,0,2.9,3,3,3,0,0,0,2.3-1.1v2.1a4.65,4.65,0,0,1-2.3.6,4.4,4.4,0,0,1-4.5-4.4,4.44,4.44,0,0,1,4.6-4.5,4,4,0,0,1,2.2.6Z"/><path class="cls-1" d="M143.5,407.3h-1.6v-6.9H141v-1.5h.9v-3.2h1.6v3.2h1.6v1.5h-1.6Z"/><path class="cls-1" d="M147.5,398.9v4.7c0,1.4.3,2.5,1.9,2.5s1.9-1.2,1.9-2.5v-4.7h1.6v4.8c0,2.3-1.1,3.9-3.6,3.9s-3.6-1.6-3.6-3.9v-4.8Z"/><path class="cls-1" d="M156.9,400.2h0a2.6,2.6,0,0,1,2.4-1.6,2.84,2.84,0,0,1,1.3.4l-.7,1.5a1.21,1.21,0,0,0-1-.3c-1.7,0-2,1.6-2,3v4.1h-1.6v-8.4h1.6Z"/><path class="cls-1" d="M162.5,403.3a2.67,2.67,0,0,0,2.5,2.8,2.74,2.74,0,0,0,2.5-1.6l1.4.8a4.34,4.34,0,0,1-3.9,2.3c-2.6,0-4.1-1.9-4.1-4.4s1.4-4.5,4.1-4.5,3.9,2,3.9,4.5v.3h-6.4Zm4.8-1.2A2.22,2.22,0,0,0,165,400a2.39,2.39,0,0,0-2.4,2.1Z"/><path class="cls-1" d="M176.5,403.3a2.67,2.67,0,0,0,2.5,2.8,2.74,2.74,0,0,0,2.5-1.6l1.4.8a4.34,4.34,0,0,1-3.9,2.3c-2.6,0-4.1-1.9-4.1-4.4s1.4-4.5,4.1-4.5,3.9,2,3.9,4.5v.3h-6.4Zm4.8-1.2A2.22,2.22,0,0,0,179,400a2.39,2.39,0,0,0-2.4,2.1Z"/><path class="cls-1" d="M187.2,404.1l2.4-5.3h1.8l-4.2,8.7-4.2-8.7h1.8Z"/><path class="cls-1" d="M193.3,403.3a2.67,2.67,0,0,0,2.5,2.8,2.74,2.74,0,0,0,2.5-1.6l1.4.8a4.34,4.34,0,0,1-3.9,2.3c-2.6,0-4.1-1.9-4.1-4.4s1.4-4.5,4.1-4.5,3.9,2,3.9,4.5v.3h-6.4Zm4.8-1.2a2.22,2.22,0,0,0-2.3-2.1,2.39,2.39,0,0,0-2.4,2.1Z"/><path class="cls-1" d="M202.8,400.2h0a2.6,2.6,0,0,1,2.4-1.6,2.84,2.84,0,0,1,1.3.4l-.7,1.5a1.21,1.21,0,0,0-1-.3c-1.7,0-2,1.6-2,3v4.1h-1.6v-8.4h1.6Z"/><path class="cls-1" d="M206.8,398.9h1.9l2.8,5.3,2.6-5.3h1.8l-6.8,13.3h-1.8l3.3-6.3Z"/><path class="cls-1" d="M220.7,398.9h1.9l2.8,5.3,2.6-5.3h1.8L223,412.2h-1.8l3.3-6.3Z"/><path class="cls-1" d="M231.7,403.3a2.67,2.67,0,0,0,2.5,2.8,2.74,2.74,0,0,0,2.5-1.6l1.4.8a4.34,4.34,0,0,1-3.9,2.3c-2.6,0-4.1-1.9-4.1-4.4s1.4-4.5,4.1-4.5,3.9,2,3.9,4.5v.3h-6.4Zm4.8-1.2a2.22,2.22,0,0,0-2.3-2.1,2.39,2.39,0,0,0-2.4,2.1Z"/><path class="cls-1" d="M247.4,407.3h-1.6V406h0a3.36,3.36,0,0,1-2.9,1.6c-2.6,0-4-2.1-4-4.6a4.11,4.11,0,0,1,4-4.4,3.24,3.24,0,0,1,2.9,1.7h0v-1.4h1.6Zm-1.5-4.2a2.76,2.76,0,0,0-2.7-3,2.82,2.82,0,0,0-2.7,3,2.85,2.85,0,0,0,2.7,3.1A2.91,2.91,0,0,0,245.9,403.1Z"/><path class="cls-1" d="M251.3,400.2h0a2.6,2.6,0,0,1,2.4-1.6,2.84,2.84,0,0,1,1.3.4l-.7,1.5a1.21,1.21,0,0,0-1-.3c-1.7,0-2,1.6-2,3v4.1h-1.6v-8.4h1.6Z"/><path class="cls-1" d="M263.4,395a1.1,1.1,0,1,1-1.1-1.1A1.18,1.18,0,0,1,263.4,395Zm-.4,12.3h-1.6v-8.4H263Z"/><path class="cls-1" d="M269,400.8a1.23,1.23,0,0,0-1.1-.7.88.88,0,0,0-.9.8c0,.7,1,1.1,2,1.5a2.58,2.58,0,0,1,1.9,2.4,2.82,2.82,0,0,1-2.9,2.8,3,3,0,0,1-2.9-1.9l1.4-.6a1.74,1.74,0,0,0,1.5,1.1,1.24,1.24,0,0,0,1.3-1.2.87.87,0,0,0-.6-.9l-1.6-.8c-.9-.5-1.6-1-1.6-2.1a2.39,2.39,0,0,1,2.5-2.4,2.53,2.53,0,0,1,2.3,1.5Z"/><path class="cls-1" d="M285.7,407.3H284V406h0a3.36,3.36,0,0,1-2.9,1.6c-2.6,0-4-2.1-4-4.6a4.11,4.11,0,0,1,4-4.4,3.24,3.24,0,0,1,2.9,1.7h0v-1.4h1.6v8.4Zm-1.6-4.2a2.76,2.76,0,0,0-2.7-3,2.82,2.82,0,0,0-2.7,3,2.73,2.73,0,1,0,5.4,0Z"/><path class="cls-1" d="M300.8,407.1c0,2.9-.8,5-4.1,5a3.81,3.81,0,0,1-4.1-3.8h1.6a2.29,2.29,0,0,0,2.5,2.4c2,0,2.4-1.4,2.4-3.1V406h0a3.36,3.36,0,0,1-2.9,1.6c-2.6,0-4-2.1-4-4.6a4.11,4.11,0,0,1,4-4.4,3.13,3.13,0,0,1,2.9,1.7h0v-1.4h1.6v8.2Zm-1.5-4a2.76,2.76,0,0,0-2.7-3,2.82,2.82,0,0,0-2.7,3,2.85,2.85,0,0,0,2.7,3.1A2.91,2.91,0,0,0,299.3,403.1Z"/><path class="cls-1" d="M311.2,403.1a4.48,4.48,0,0,1-4.5,4.5,4.42,4.42,0,0,1-4.5-4.5,4.5,4.5,0,0,1,9,0Zm-7.4,0a2.9,2.9,0,0,0,2.9,2.9,3,3,0,0,0,2.9-2.9,2.9,2.9,0,0,0-5.8,0Z"/><path class="cls-1" d="M320.9,403.1a4.48,4.48,0,0,1-4.5,4.5,4.42,4.42,0,0,1-4.5-4.5,4.5,4.5,0,0,1,9,0Zm-7.4,0a2.9,2.9,0,0,0,2.9,2.9,3,3,0,0,0,2.9-2.9,2.9,2.9,0,0,0-5.8,0Z"/><path class="cls-1" d="M328.7,406h0a3.48,3.48,0,0,1-2.9,1.6c-2.6,0-4-2.1-4-4.6a4.11,4.11,0,0,1,4-4.4,3.13,3.13,0,0,1,2.9,1.7h0v-8.6h1.6v15.6h-1.6Zm.1-2.9a2.76,2.76,0,0,0-2.7-3,2.82,2.82,0,0,0-2.7,3,2.85,2.85,0,0,0,2.7,3.1A2.91,2.91,0,0,0,328.8,403.1Z"/><path class="cls-1" d="M90.8,433.3H89.2v-6.9h-.9v-1.5h.9v-3.2h1.6v3.2h1.6v1.5H90.8Z"/><path class="cls-1" d="M95,426.2h0a2.6,2.6,0,0,1,2.4-1.6,2.84,2.84,0,0,1,1.3.4l-.7,1.5a1.21,1.21,0,0,0-1-.3c-1.7,0-2,1.6-2,3v4.1H93.4v-8.4H95Z"/><path class="cls-1" d="M107.5,433.3h-1.6V432h0a3.36,3.36,0,0,1-2.9,1.6c-2.6,0-4-2.1-4-4.6a4.11,4.11,0,0,1,4-4.4,3.24,3.24,0,0,1,2.9,1.7h0v-1.4h1.6Zm-1.6-4.2a2.76,2.76,0,0,0-2.7-3,2.82,2.82,0,0,0-2.7,3,2.73,2.73,0,1,0,5.4,0Z"/><path class="cls-1" d="M115.8,432h0a3.48,3.48,0,0,1-2.9,1.6c-2.6,0-4-2.1-4-4.6a4.11,4.11,0,0,1,4-4.4,3.13,3.13,0,0,1,2.9,1.7h0v-8.6h1.6v15.6h-1.6Zm.1-2.9a2.76,2.76,0,0,0-2.7-3,2.82,2.82,0,0,0-2.7,3,2.73,2.73,0,1,0,5.4,0Z"/><path class="cls-1" d="M121.9,421a1.1,1.1,0,1,1-1.1-1.1A1.11,1.11,0,0,1,121.9,421Zm-.3,12.3H120v-8.4h1.6Z"/><path class="cls-1" d="M126,433.3h-1.6v-6.9h-.9v-1.5h.9v-3.2H126v3.2h1.6v1.5H126Z"/><path class="cls-1" d="M130.7,421a1.1,1.1,0,1,1-1.1-1.1A1.11,1.11,0,0,1,130.7,421Zm-.3,12.3h-1.6v-8.4h1.6Z"/><path class="cls-1" d="M141.3,429.1a4.48,4.48,0,0,1-4.5,4.5,4.42,4.42,0,0,1-4.5-4.5,4.5,4.5,0,0,1,9,0Zm-7.4,0a2.9,2.9,0,0,0,2.9,2.9,3,3,0,0,0,2.9-2.9,2.9,2.9,0,1,0-5.8,0Z"/><path class="cls-1" d="M144.4,426h0a2.9,2.9,0,0,1,2.6-1.4c2.4,0,3,1.6,3,3.7v5h-1.6v-4.8c0-1.4-.2-2.4-1.9-2.4-2.1,0-2.1,1.8-2.1,3.4v3.9h-1.6V425h1.6Z"/><path class="cls-1" d="M159.2,433.3h-1.6v-6.9h-.9v-1.5h.9v-3.2h1.6v3.2h1.6v1.5h-1.6Z"/><path class="cls-1" d="M169.9,429.1a4.48,4.48,0,0,1-4.5,4.5,4.42,4.42,0,0,1-4.5-4.5,4.5,4.5,0,0,1,9,0Zm-7.3,0a2.9,2.9,0,0,0,2.9,2.9,3,3,0,0,0,2.9-2.9,2.9,2.9,0,1,0-5.8,0Z"/><path class="cls-1" d="M178.3,428l3.2-3.2h2.1l-3.6,3.5,4,4.9h-2.1l-3-3.8-.6.6v3.3h-1.6V417.7h1.6V428Z"/><path class="cls-1" d="M186.5,426h0a2.9,2.9,0,0,1,2.6-1.4c2.4,0,3,1.6,3,3.7v5h-1.6v-4.8c0-1.4-.2-2.4-1.9-2.4-2.1,0-2.1,1.8-2.1,3.4v3.9h-1.6V425h1.6Z"/><path class="cls-1" d="M202.6,429.1a4.48,4.48,0,0,1-4.5,4.5,4.42,4.42,0,0,1-4.5-4.5,4.5,4.5,0,0,1,9,0Zm-7.4,0a2.9,2.9,0,0,0,2.9,2.9,3,3,0,0,0,2.9-2.9,2.9,2.9,0,1,0-5.8,0Z"/><path class="cls-1" d="M206.9,430.2l2.5-5.8,2.5,5.8,2.4-5.4h1.8l-4.3,8.7-2.5-5.6-2.5,5.6-4.3-8.7h1.8Z"/><path class="cls-1" d="M230.4,429.1a4.48,4.48,0,0,1-4.5,4.5,4.42,4.42,0,0,1-4.5-4.5,4.5,4.5,0,0,1,9,0Zm-7.3,0A2.9,2.9,0,0,0,226,432a3,3,0,0,0,2.9-2.9,2.9,2.9,0,1,0-5.8,0Z"/><path class="cls-1" d="M233.8,433.3h-1.6v-6.9h-.9v-1.5h.9v-3.2h1.6v3.2h1.6v1.5h-1.6Z"/><path class="cls-1" d="M237.8,417.7V426h0a2.85,2.85,0,0,1,2.5-1.4c2.4,0,3,1.6,3,3.7v5h-1.6v-4.8c0-1.4-.2-2.4-1.9-2.4-2.1,0-2.1,1.8-2.1,3.4v3.9h-1.6V417.8h1.7Z"/><path class="cls-1" d="M246.6,429.3a2.67,2.67,0,0,0,2.5,2.8,2.74,2.74,0,0,0,2.5-1.6l1.4.8a4.34,4.34,0,0,1-3.9,2.3c-2.6,0-4.1-1.9-4.1-4.4s1.4-4.5,4.1-4.5,3.9,2,3.9,4.5v.3h-6.4Zm4.8-1.2a2.22,2.22,0,0,0-2.3-2.1,2.39,2.39,0,0,0-2.4,2.1Z"/><path class="cls-1" d="M256.2,426.2h0a2.6,2.6,0,0,1,2.4-1.6,2.84,2.84,0,0,1,1.3.4l-.7,1.5a1.21,1.21,0,0,0-1-.3c-1.7,0-2,1.6-2,3v4.1h-1.6v-8.4h1.6Z"/><path class="cls-1" d="M272.2,432h0a3.48,3.48,0,0,1-2.9,1.6c-2.6,0-4-2.1-4-4.6a4.11,4.11,0,0,1,4-4.4,3.13,3.13,0,0,1,2.9,1.7h0v-8.6h1.6v15.6h-1.6Zm.1-2.9a2.76,2.76,0,0,0-2.7-3,2.82,2.82,0,0,0-2.7,3,2.85,2.85,0,0,0,2.7,3.1A2.91,2.91,0,0,0,272.3,429.1Z"/><path class="cls-1" d="M276.9,429.3a2.67,2.67,0,0,0,2.5,2.8,2.74,2.74,0,0,0,2.5-1.6l1.4.8a4.34,4.34,0,0,1-3.9,2.3c-2.6,0-4.1-1.9-4.1-4.4s1.4-4.5,4.1-4.5,3.9,2,3.9,4.5v.3h-6.4Zm4.8-1.2a2.22,2.22,0,0,0-2.3-2.1,2.39,2.39,0,0,0-2.4,2.1Z"/><path class="cls-1" d="M288.1,426.8a1.23,1.23,0,0,0-1.1-.7.88.88,0,0,0-.9.8c0,.7,1,1.1,2,1.5a2.58,2.58,0,0,1,1.9,2.4,2.82,2.82,0,0,1-2.9,2.8,3,3,0,0,1-2.9-1.9l1.4-.6a1.74,1.74,0,0,0,1.5,1.1,1.24,1.24,0,0,0,1.3-1.2.87.87,0,0,0-.6-.9l-1.6-.8c-.9-.5-1.6-1-1.6-2.1a2.39,2.39,0,0,1,2.5-2.4,2.53,2.53,0,0,1,2.3,1.5Z"/><path class="cls-1" d="M293.9,421a1.1,1.1,0,1,1-1.1-1.1A1.11,1.11,0,0,1,293.9,421Zm-.3,12.3H292v-8.4h1.6Z"/><path class="cls-1" d="M304.1,433.1c0,2.9-.8,5-4.1,5a3.81,3.81,0,0,1-4.1-3.8h1.6a2.29,2.29,0,0,0,2.5,2.4c2,0,2.4-1.4,2.4-3.1V432h0a3.36,3.36,0,0,1-2.9,1.6c-2.6,0-4-2.1-4-4.6a4.11,4.11,0,0,1,4-4.4,3.13,3.13,0,0,1,2.9,1.7h0v-1.4H304v8.2Zm-1.5-4a2.76,2.76,0,0,0-2.7-3,2.82,2.82,0,0,0-2.7,3,2.85,2.85,0,0,0,2.7,3.1A2.91,2.91,0,0,0,302.6,429.1Z"/><path class="cls-1" d="M307.8,426h0a2.9,2.9,0,0,1,2.6-1.4c2.4,0,3,1.6,3,3.7v5h-1.6v-4.8c0-1.4-.2-2.4-1.9-2.4-2.1,0-2.1,1.8-2.1,3.4v3.9h-1.6V425h1.6Z"/><path class="cls-1" d="M316.6,429.3a2.67,2.67,0,0,0,2.5,2.8,2.74,2.74,0,0,0,2.5-1.6l1.4.8a4.34,4.34,0,0,1-3.9,2.3c-2.6,0-4.1-1.9-4.1-4.4s1.4-4.5,4.1-4.5,3.9,2,3.9,4.5v.3h-6.4Zm4.8-1.2a2.22,2.22,0,0,0-2.3-2.1,2.39,2.39,0,0,0-2.4,2.1Z"/><path class="cls-1" d="M326.1,426.2h0a2.6,2.6,0,0,1,2.4-1.6,2.84,2.84,0,0,1,1.3.4l-.7,1.5a1.21,1.21,0,0,0-1-.3c-1.7,0-2,1.6-2,3v4.1h-1.6v-8.4h1.6v1.3Z"/><path class="cls-1" d="M334.1,426.8a1.23,1.23,0,0,0-1.1-.7.88.88,0,0,0-.9.8c0,.7,1,1.1,2,1.5a2.58,2.58,0,0,1,1.9,2.4,2.82,2.82,0,0,1-2.9,2.8,3,3,0,0,1-2.9-1.9l1.4-.6a1.74,1.74,0,0,0,1.5,1.1,1.24,1.24,0,0,0,1.3-1.2.87.87,0,0,0-.6-.9l-1.6-.8c-.9-.5-1.6-1-1.6-2.1a2.39,2.39,0,0,1,2.5-2.4,2.53,2.53,0,0,1,2.3,1.5Z"/><path class="cls-1" d="M351.1,429.1a4.48,4.48,0,0,1-4.5,4.5,4.42,4.42,0,0,1-4.5-4.5,4.5,4.5,0,0,1,9,0Zm-7.4,0a2.9,2.9,0,0,0,2.9,2.9,3,3,0,0,0,2.9-2.9,2.9,2.9,0,1,0-5.8,0Z"/><path class="cls-1" d="M354.3,426.2h0a2.6,2.6,0,0,1,2.4-1.6,2.84,2.84,0,0,1,1.3.4l-.7,1.5a1.21,1.21,0,0,0-1-.3c-1.7,0-2,1.6-2,3v4.1h-1.6v-8.4h1.6v1.3Z"/><path class="cls-1" d="M96.8,459.3H95.2V458h0a3.36,3.36,0,0,1-2.9,1.6c-2.6,0-4-2.1-4-4.6a4.11,4.11,0,0,1,4-4.4,3.24,3.24,0,0,1,2.9,1.7h0v-1.4h1.6Zm-1.5-4.2a2.76,2.76,0,0,0-2.7-3,2.82,2.82,0,0,0-2.7,3,2.85,2.85,0,0,0,2.7,3.1A2.91,2.91,0,0,0,95.3,455.1Z"/><path class="cls-1" d="M100.7,452.2h0a2.6,2.6,0,0,1,2.4-1.6,2.84,2.84,0,0,1,1.3.4l-.7,1.5a1.21,1.21,0,0,0-1-.3c-1.7,0-2,1.6-2,3v4.1H99v-8.4h1.6v1.3Z"/><path class="cls-1" d="M107.5,459.3h-1.6v-6.9H105v-1.5h.9v-3.2h1.6v3.2H109v1.5h-1.6v6.9Z"/><path class="cls-1" d="M112.2,447a1.1,1.1,0,1,1-1.1-1.1A1.11,1.11,0,0,1,112.2,447Zm-.3,12.3h-1.6v-8.4h1.6Z"/><path class="cls-1" d="M117.9,452.8a1.23,1.23,0,0,0-1.1-.7.88.88,0,0,0-.9.8c0,.7,1,1.1,2,1.5a2.58,2.58,0,0,1,1.9,2.4,2.82,2.82,0,0,1-2.9,2.8,3,3,0,0,1-2.9-1.9l1.4-.6a1.74,1.74,0,0,0,1.5,1.1,1.24,1.24,0,0,0,1.3-1.2.87.87,0,0,0-.6-.9l-1.6-.8c-.9-.5-1.6-1-1.6-2.1a2.39,2.39,0,0,1,2.5-2.4,2.53,2.53,0,0,1,2.3,1.5Z"/><path class="cls-1" d="M123.3,459.3h-1.6v-6.9h-.9v-1.5h.9v-3.2h1.6v3.2h1.6v1.5h-1.6Z"/><path class="cls-1" d="M129.1,452.8a1.23,1.23,0,0,0-1.1-.7.88.88,0,0,0-.9.8c0,.7,1,1.1,2,1.5a2.58,2.58,0,0,1,1.9,2.4,2.82,2.82,0,0,1-2.9,2.8,3,3,0,0,1-2.9-1.9l1.4-.6a1.74,1.74,0,0,0,1.5,1.1,1.24,1.24,0,0,0,1.3-1.2.87.87,0,0,0-.6-.9l-1.6-.8c-.9-.5-1.6-1-1.6-2.1a2.39,2.39,0,0,1,2.5-2.4,2.53,2.53,0,0,1,2.3,1.5Z"/><path class="cls-1" d="M142,445.3a3.54,3.54,0,0,0-1.1-.3c-1.2,0-1.2,1.5-1.2,2.3v3.6h2.2v1.5h-2.2v6.9h-1.6v-6.9h-.7v-1.5h.7v-4.1c0-1.8.6-3.3,2.7-3.3a3.59,3.59,0,0,1,1.1.2v1.6Z"/><path class="cls-1" d="M144.5,452.2h0a2.6,2.6,0,0,1,2.4-1.6,2.84,2.84,0,0,1,1.3.4l-.7,1.5a1.21,1.21,0,0,0-1-.3c-1.7,0-2,1.6-2,3v4.1h-1.6v-8.4h1.6Z"/><path class="cls-1" d="M157.4,455.1a4.48,4.48,0,0,1-4.5,4.5,4.42,4.42,0,0,1-4.5-4.5,4.5,4.5,0,0,1,9,0Zm-7.4,0a2.9,2.9,0,0,0,2.9,2.9,3,3,0,0,0,2.9-2.9,2.9,2.9,0,0,0-2.9-2.9A2.84,2.84,0,0,0,150,455.1Z"/><path class="cls-1" d="M160.4,451.9h0a3,3,0,0,1,2.3-1.3,2.67,2.67,0,0,1,2.4,1.5,3,3,0,0,1,2.6-1.5c2.2,0,2.8,1.7,2.8,3.6v5h-1.6v-4.8c0-1.1-.1-2.5-1.6-2.5-1.7,0-1.9,1.8-1.9,3.1v4.1h-1.6v-4.5c0-1.1-.1-2.8-1.5-2.8-1.7,0-1.9,1.8-1.9,3.1V459h-1.6v-8.4h1.6Z"/><path class="cls-1" d="M179.7,459.3h-1.6v-6.9h-.9v-1.5h.9v-3.2h1.6v3.2h1.6v1.5h-1.6Z"/><path class="cls-1" d="M183.8,443.7V452h0a2.85,2.85,0,0,1,2.5-1.4c2.4,0,3,1.6,3,3.7v5h-1.6v-4.8c0-1.4-.2-2.4-1.9-2.4-2.1,0-2.1,1.8-2.1,3.4v3.9h-1.6V443.8h1.7Z"/><path class="cls-1" d="M192.5,455.3a2.67,2.67,0,0,0,2.5,2.8,2.74,2.74,0,0,0,2.5-1.6l1.4.8a4.34,4.34,0,0,1-3.9,2.3c-2.6,0-4.1-1.9-4.1-4.4s1.4-4.5,4.1-4.5,3.9,2,3.9,4.5v.3h-6.4Zm4.8-1.2A2.22,2.22,0,0,0,195,452a2.39,2.39,0,0,0-2.4,2.1Z"/><path class="cls-1" d="M211.8,458h0a3.48,3.48,0,0,1-2.9,1.6c-2.6,0-4-2.1-4-4.6a4.11,4.11,0,0,1,4-4.4,3.13,3.13,0,0,1,2.9,1.7h0v-8.6h1.6v15.6h-1.6Zm.1-2.9a2.76,2.76,0,0,0-2.7-3,2.82,2.82,0,0,0-2.7,3,2.73,2.73,0,1,0,5.4,0Z"/><path class="cls-1" d="M217.8,447a1.1,1.1,0,1,1-1.1-1.1A1.11,1.11,0,0,1,217.8,447Zm-.3,12.3h-1.6v-8.4h1.6Z"/><path class="cls-1" d="M223,456.1l2.4-5.3h1.8l-4.2,8.7-4.2-8.7h1.8Z"/><path class="cls-1" d="M229.1,455.3a2.67,2.67,0,0,0,2.5,2.8,2.74,2.74,0,0,0,2.5-1.6l1.4.8a4.34,4.34,0,0,1-3.9,2.3c-2.6,0-4.1-1.9-4.1-4.4s1.4-4.5,4.1-4.5,3.9,2,3.9,4.5v.3h-6.4Zm4.8-1.2a2.22,2.22,0,0,0-2.3-2.1,2.39,2.39,0,0,0-2.4,2.1Z"/><path class="cls-1" d="M238.7,452.2h0a2.6,2.6,0,0,1,2.4-1.6,2.84,2.84,0,0,1,1.3.4l-.7,1.5a1.21,1.21,0,0,0-1-.3c-1.7,0-2,1.6-2,3v4.1H237v-8.4h1.6v1.3Z"/><path class="cls-1" d="M246.6,452.8a1.23,1.23,0,0,0-1.1-.7.88.88,0,0,0-.9.8c0,.7,1,1.1,2,1.5a2.58,2.58,0,0,1,1.9,2.4,2.82,2.82,0,0,1-2.9,2.8,3,3,0,0,1-2.9-1.9l1.4-.6a1.74,1.74,0,0,0,1.5,1.1,1.24,1.24,0,0,0,1.3-1.2.87.87,0,0,0-.6-.9l-1.6-.8c-.9-.5-1.6-1-1.6-2.1a2.39,2.39,0,0,1,2.5-2.4,2.53,2.53,0,0,1,2.3,1.5Z"/><path class="cls-1" d="M251.1,455.3a2.67,2.67,0,0,0,2.5,2.8,2.74,2.74,0,0,0,2.5-1.6l1.4.8a4.34,4.34,0,0,1-3.9,2.3c-2.6,0-4.1-1.9-4.1-4.4s1.4-4.5,4.1-4.5,3.9,2,3.9,4.5v.3h-6.4Zm4.8-1.2a2.22,2.22,0,0,0-2.3-2.1,2.39,2.39,0,0,0-2.4,2.1Z"/><path class="cls-1" d="M272,459.3h-1.6V458h0a3.36,3.36,0,0,1-2.9,1.6c-2.6,0-4-2.1-4-4.6a4.11,4.11,0,0,1,4-4.4,3.24,3.24,0,0,1,2.9,1.7h0v-1.4H272Zm-1.5-4.2a2.76,2.76,0,0,0-2.7-3,2.82,2.82,0,0,0-2.7,3,2.85,2.85,0,0,0,2.7,3.1A2.91,2.91,0,0,0,270.5,455.1Z"/><path class="cls-1" d="M275.9,452.2h0a2.6,2.6,0,0,1,2.4-1.6,2.84,2.84,0,0,1,1.3.4l-.7,1.5a1.21,1.21,0,0,0-1-.3c-1.7,0-2,1.6-2,3v4.1h-1.6v-8.4h1.6v1.3Z"/><path class="cls-1" d="M281.4,455.3a2.67,2.67,0,0,0,2.5,2.8,2.74,2.74,0,0,0,2.5-1.6l1.4.8a4.34,4.34,0,0,1-3.9,2.3c-2.6,0-4.1-1.9-4.1-4.4s1.4-4.5,4.1-4.5,3.9,2,3.9,4.5v.3h-6.4Zm4.8-1.2a2.22,2.22,0,0,0-2.3-2.1,2.39,2.39,0,0,0-2.4,2.1Z"/><path class="cls-1" d="M297.2,459.3h-1.6V458h0a3.36,3.36,0,0,1-2.9,1.6c-2.6,0-4-2.1-4-4.6a4.11,4.11,0,0,1,4-4.4,3.24,3.24,0,0,1,2.9,1.7h0v-1.4h1.6Zm-1.6-4.2a2.76,2.76,0,0,0-2.7-3,2.82,2.82,0,0,0-2.7,3,2.73,2.73,0,1,0,5.4,0Z"/><path class="cls-1" d="M308.6,445.3a3.54,3.54,0,0,0-1.1-.3c-1.2,0-1.2,1.5-1.2,2.3v3.6h2.2v1.5h-2.2v6.9h-1.6v-6.9H304v-1.5h.7v-4.1c0-1.8.6-3.3,2.7-3.3a3.59,3.59,0,0,1,1.1.2v1.6Z"/><path class="cls-1" d="M317.7,455.1a4.48,4.48,0,0,1-4.5,4.5,4.42,4.42,0,0,1-4.5-4.5,4.5,4.5,0,0,1,9,0Zm-7.4,0a2.9,2.9,0,0,0,2.9,2.9,3,3,0,0,0,2.9-2.9,2.9,2.9,0,1,0-5.8,0Z"/><path class="cls-1" d="M320.9,452.2h0a2.6,2.6,0,0,1,2.4-1.6,2.84,2.84,0,0,1,1.3.4l-.7,1.5a1.21,1.21,0,0,0-1-.3c-1.7,0-2,1.6-2,3v4.1h-1.6v-8.4h1.6v1.3Z"/><path class="cls-1" d="M332.5,459.3h-1.6v-6.9H330v-1.5h.9v-3.2h1.6v3.2h1.6v1.5h-1.6Z"/><path class="cls-1" d="M335.9,455.3a2.67,2.67,0,0,0,2.5,2.8,2.74,2.74,0,0,0,2.5-1.6l1.4.8a4.34,4.34,0,0,1-3.9,2.3c-2.6,0-4.1-1.9-4.1-4.4s1.4-4.5,4.1-4.5,3.9,2,3.9,4.5v.3h-6.4Zm4.9-1.2a2.22,2.22,0,0,0-2.3-2.1,2.39,2.39,0,0,0-2.4,2.1Z"/><path class="cls-1" d="M351.7,459.3H350V458h0a3.36,3.36,0,0,1-2.9,1.6c-2.6,0-4-2.1-4-4.6a4.11,4.11,0,0,1,4-4.4,3.24,3.24,0,0,1,2.9,1.7h0v-1.4h1.6v8.4Zm-1.6-4.2a2.76,2.76,0,0,0-2.7-3,2.82,2.82,0,0,0-2.7,3,2.73,2.73,0,1,0,5.4,0Z"/><path class="cls-1" d="M360,453.3a3,3,0,0,0-2.4-1.1,2.91,2.91,0,0,0-2.8,3,2.86,2.86,0,0,0,2.9,3,3,3,0,0,0,2.3-1.1v2.1a4.65,4.65,0,0,1-2.3.6,4.4,4.4,0,0,1-4.5-4.4,4.44,4.44,0,0,1,4.6-4.5,4,4,0,0,1,2.2.6v1.8Z"/><path class="cls-1" d="M363.3,443.7V452h0a2.85,2.85,0,0,1,2.5-1.4c2.4,0,3,1.6,3,3.7v5h-1.6v-4.8c0-1.4-.2-2.4-1.9-2.4-2.1,0-2.1,1.8-2.1,3.4v3.9h-1.6V443.8h1.7Z"/><path class="cls-1" d="M373.4,447a1.1,1.1,0,1,1-1.1-1.1A1.11,1.11,0,0,1,373.4,447Zm-.3,12.3h-1.6v-8.4h1.6Z"/><path class="cls-1" d="M377.3,452h0a2.9,2.9,0,0,1,2.6-1.4c2.4,0,3,1.6,3,3.7v5h-1.6v-4.8c0-1.4-.2-2.4-1.9-2.4-2.1,0-2.1,1.8-2.1,3.4v3.9h-1.6V451h1.6Z"/><path class="cls-1" d="M393,459.1c0,2.9-.8,5-4.1,5a3.81,3.81,0,0,1-4.1-3.8h1.6a2.29,2.29,0,0,0,2.5,2.4c2,0,2.4-1.4,2.4-3.1V458h0a3.36,3.36,0,0,1-2.9,1.6c-2.6,0-4-2.1-4-4.6a4.11,4.11,0,0,1,4-4.4,3.13,3.13,0,0,1,2.9,1.7h0v-1.4h1.6v8.2Zm-1.5-4a2.76,2.76,0,0,0-2.7-3,2.82,2.82,0,0,0-2.7,3,2.85,2.85,0,0,0,2.7,3.1A2.91,2.91,0,0,0,391.5,455.1Z"/><path class="cls-1" d="M96.8,485.3H95.2V484h0a3.36,3.36,0,0,1-2.9,1.6c-2.6,0-4-2.1-4-4.6a4.11,4.11,0,0,1,4-4.4,3.24,3.24,0,0,1,2.9,1.7h0v-1.4h1.6Zm-1.5-4.2a2.76,2.76,0,0,0-2.7-3,2.82,2.82,0,0,0-2.7,3,2.85,2.85,0,0,0,2.7,3.1A2.91,2.91,0,0,0,95.3,481.1Z"/><path class="cls-1" d="M100.5,478h0a2.9,2.9,0,0,1,2.6-1.4c2.4,0,3,1.6,3,3.7v5h-1.6v-4.8c0-1.4-.2-2.4-1.9-2.4-2.1,0-2.1,1.8-2.1,3.4v3.9H98.9V477h1.6Z"/><path class="cls-1" d="M114.6,484h0a3.48,3.48,0,0,1-2.9,1.6c-2.6,0-4-2.1-4-4.6a4.11,4.11,0,0,1,4-4.4,3.13,3.13,0,0,1,2.9,1.7h0v-8.6h1.6v15.6h-1.6Zm.1-2.9a2.76,2.76,0,0,0-2.7-3,2.82,2.82,0,0,0-2.7,3,2.85,2.85,0,0,0,2.7,3.1A2.91,2.91,0,0,0,114.7,481.1Z"/><path class="cls-1" d="M125.1,477.9h0a3,3,0,0,1,2.3-1.3,2.67,2.67,0,0,1,2.4,1.5,3,3,0,0,1,2.6-1.5c2.2,0,2.8,1.7,2.8,3.6v5h-1.6v-4.8c0-1.1-.1-2.5-1.6-2.5-1.7,0-1.9,1.8-1.9,3.1v4.1h-1.6v-4.5c0-1.1-.1-2.8-1.5-2.8-1.7,0-1.9,1.8-1.9,3.1V485h-1.6v-8.4h1.6Z"/><path class="cls-1" d="M136,476.9h1.9l2.8,5.3,2.6-5.3h1.8l-6.8,13.3h-1.8l3.3-6.3Z"/><path class="cls-1" d="M151.1,469.7h1.6v8.6h0a3.58,3.58,0,0,1,2.9-1.7,4.17,4.17,0,0,1,4,4.4c0,2.4-1.4,4.6-4,4.6a3.48,3.48,0,0,1-2.9-1.6h0v1.3h-1.6Zm7,11.4a2.76,2.76,0,0,0-2.7-3,2.82,2.82,0,0,0-2.7,3,2.85,2.85,0,0,0,2.7,3.1A2.91,2.91,0,0,0,158.1,481.1Z"/><path class="cls-1" d="M162.8,476.9v4.7c0,1.4.3,2.5,1.9,2.5s1.9-1.2,1.9-2.5v-4.7h1.6v4.8c0,2.3-1.1,3.9-3.6,3.9s-3.6-1.6-3.6-3.9v-4.8Z"/><path class="cls-1" d="M173.9,478.8a1.23,1.23,0,0,0-1.1-.7.88.88,0,0,0-.9.8c0,.7,1,1.1,2,1.5a2.58,2.58,0,0,1,1.9,2.4,2.82,2.82,0,0,1-2.9,2.8,3,3,0,0,1-2.9-1.9l1.4-.6a1.74,1.74,0,0,0,1.5,1.1,1.24,1.24,0,0,0,1.3-1.2.87.87,0,0,0-.6-.9l-1.6-.8c-.9-.5-1.6-1-1.6-2.1a2.39,2.39,0,0,1,2.5-2.4,2.53,2.53,0,0,1,2.3,1.5Z"/><path class="cls-1" d="M179.7,473a1.1,1.1,0,1,1-1.1-1.1A1.11,1.11,0,0,1,179.7,473Zm-.3,12.3h-1.6v-8.4h1.6Z"/><path class="cls-1" d="M183.6,478h0a2.9,2.9,0,0,1,2.6-1.4c2.4,0,3,1.6,3,3.7v5h-1.6v-4.8c0-1.4-.2-2.4-1.9-2.4-2.1,0-2.1,1.8-2.1,3.4v3.9H182V477h1.6Z"/><path class="cls-1" d="M192.4,481.3a2.67,2.67,0,0,0,2.5,2.8,2.74,2.74,0,0,0,2.5-1.6l1.4.8a4.34,4.34,0,0,1-3.9,2.3c-2.6,0-4.1-1.9-4.1-4.4s1.4-4.5,4.1-4.5,3.9,2,3.9,4.5v.3h-6.4Zm4.8-1.2a2.22,2.22,0,0,0-2.3-2.1,2.39,2.39,0,0,0-2.4,2.1Z"/><path class="cls-1" d="M203.6,478.8a1.23,1.23,0,0,0-1.1-.7.88.88,0,0,0-.9.8c0,.7,1,1.1,2,1.5a2.58,2.58,0,0,1,1.9,2.4,2.82,2.82,0,0,1-2.9,2.8,3,3,0,0,1-2.9-1.9l1.4-.6a1.74,1.74,0,0,0,1.5,1.1,1.24,1.24,0,0,0,1.3-1.2.87.87,0,0,0-.6-.9l-1.6-.8c-.9-.5-1.6-1-1.6-2.1a2.39,2.39,0,0,1,2.5-2.4,2.53,2.53,0,0,1,2.3,1.5Z"/><path class="cls-1" d="M210.5,478.8a1.23,1.23,0,0,0-1.1-.7.88.88,0,0,0-.9.8c0,.7,1,1.1,2,1.5a2.58,2.58,0,0,1,1.9,2.4,2.82,2.82,0,0,1-2.9,2.8,3,3,0,0,1-2.9-1.9l1.4-.6a1.74,1.74,0,0,0,1.5,1.1,1.24,1.24,0,0,0,1.3-1.2.87.87,0,0,0-.6-.9l-1.6-.8c-.9-.5-1.6-1-1.6-2.1a2.39,2.39,0,0,1,2.5-2.4,2.53,2.53,0,0,1,2.3,1.5Z"/><path class="cls-1" d="M216.5,484.5a1,1,0,0,1-1,1,1.08,1.08,0,0,1-1-1,1,1,0,0,1,1-1A1.08,1.08,0,0,1,216.5,484.5Z"/><path class="cls-1" d="M221.9,472l-2.4,4.8-1-.4,2-5Zm3,0-2.4,4.8-1-.4,2-5Z"/><rect class="cls-4" width="792" height="600"/><path class="cls-1" d="M27.2,52.6H24.8V45.5H22.9v-2h6.2v2H27.2Z"/><path class="cls-1" d="M32.1,42.6v4.6h0a2.22,2.22,0,0,1,2-1c1.6,0,2.3,1,2.3,2.6v3.8H34.2V49.4c0-.7-.1-1.5-1-1.5s-1.1.7-1.1,1.5v3.2H29.9v-10Z"/><path class="cls-1" d="M44.2,49.9H39.6A1.27,1.27,0,0,0,41,51.3a1,1,0,0,0,1-.6h2.1a2.76,2.76,0,0,1-1.2,1.6,4.55,4.55,0,0,1-2,.5,3.29,3.29,0,0,1-3.6-3.3,3.12,3.12,0,0,1,3.4-3.3,3.15,3.15,0,0,1,3.4,3.4v.3Zm-2.1-1.3a1.19,1.19,0,0,0-1.2-1,1.2,1.2,0,0,0-1.3,1Z"/><path class="cls-1" d="M56,52c0,2.6-1.3,3.7-3.6,3.7-1.4,0-3.3-.7-3.5-2.4h2.4a1,1,0,0,0,.4.5,1.27,1.27,0,0,0,.6.1c1.2,0,1.4-.8,1.4-1.8v-.3a2.44,2.44,0,0,1-2,.8,3,3,0,0,1-3-3.1,3.18,3.18,0,0,1,3.2-3.3,1.92,1.92,0,0,1,1.8.9h0v-.6H56Zm-4.9-2.5a1.4,1.4,0,1,0,1.4-1.4A1.31,1.31,0,0,0,51.1,49.5Z"/><path class="cls-1" d="M59.6,47.5h0a2.11,2.11,0,0,1,2-1.1H62v2.1a1.49,1.49,0,0,0-.9-.2c-1.2,0-1.5.8-1.5,1.9v2.5H57.4V46.5h2.2Z"/><path class="cls-1" d="M69.6,52.6H67.4v-.7h0a2.2,2.2,0,0,1-1.9.9,3.31,3.31,0,0,1,0-6.6,2.56,2.56,0,0,1,1.9.8v-.6h2.2Zm-4.9-3.1a1.4,1.4,0,1,0,1.4-1.4A1.36,1.36,0,0,0,64.7,49.5Z"/><path class="cls-1" d="M73.1,47.1h0a2.32,2.32,0,0,1,1.9-.9,3.31,3.31,0,0,1,0,6.6,2.73,2.73,0,0,1-1.9-.8v3.7H71V46.5h2.2v.6Zm0,2.4a1.4,1.4,0,1,0,1.4-1.4A1.36,1.36,0,0,0,73.1,49.5Z"/><path class="cls-1" d="M81.4,42.6v4.6h0a2.22,2.22,0,0,1,2-1c1.6,0,2.3,1,2.3,2.6v3.8H83.5V49.4c0-.7-.1-1.5-1-1.5s-1.1.7-1.1,1.5v3.2H79.2v-10Z"/><path class="cls-1" d="M89.5,44.1a1.2,1.2,0,1,1-1.2-1.2A1.22,1.22,0,0,1,89.5,44.1Zm-.2,8.5H87.1V46.4h2.2Z"/><path class="cls-1" d="M95.2,48.5a2.1,2.1,0,0,0-1.1-.4,1.47,1.47,0,0,0-1.5,1.5,1.42,1.42,0,0,0,1.5,1.5,2.1,2.1,0,0,0,1.1-.4v1.8a4,4,0,0,1-1.5.3,3.25,3.25,0,1,1,.1-6.5,2.3,2.3,0,0,1,1.4.4Z"/><path class="cls-1" d="M105.3,51.9h0a2.32,2.32,0,0,1-1.9.9,3.31,3.31,0,0,1,0-6.6,2.56,2.56,0,0,1,1.9.8V42.6h2.2v10h-2.2Zm-2.7-2.4a1.4,1.4,0,1,0,1.4-1.4A1.36,1.36,0,0,0,102.6,49.5Z"/><path class="cls-1" d="M115.2,49.9h-4.6a1.27,1.27,0,0,0,1.4,1.4,1,1,0,0,0,1-.6h2.1a2.76,2.76,0,0,1-1.2,1.6,4.55,4.55,0,0,1-2,.5,3.29,3.29,0,0,1-3.6-3.3,3.4,3.4,0,0,1,6.8.1v.3Zm-2-1.3a1.19,1.19,0,0,0-1.2-1,1.2,1.2,0,0,0-1.3,1Z"/><path class="cls-1" d="M120.2,48a2.38,2.38,0,0,0-1.2-.3c-.3,0-.7.1-.7.4s.7.5,1,.5c1,.2,1.8.7,1.8,1.8,0,1.6-1.5,2.3-2.9,2.3a5.53,5.53,0,0,1-2.5-.7l.8-1.5a3.49,3.49,0,0,0,1.7.6c.3,0,.7-.1.7-.5s-.7-.5-1.4-.7-1.4-.5-1.4-1.6c0-1.5,1.4-2.2,2.7-2.2a4.48,4.48,0,0,1,2,.4Z"/><path class="cls-1" d="M124.7,44.1a1.2,1.2,0,1,1-1.2-1.2A1.22,1.22,0,0,1,124.7,44.1Zm-.2,8.5h-2.2V46.4h2.2Z"/><path class="cls-1" d="M132.7,52c0,2.6-1.3,3.7-3.6,3.7-1.4,0-3.3-.7-3.5-2.4H128a1,1,0,0,0,.4.5,1.27,1.27,0,0,0,.6.1c1.2,0,1.4-.8,1.4-1.8v-.3a2.44,2.44,0,0,1-2,.8,3,3,0,0,1-3-3.1,3.18,3.18,0,0,1,3.2-3.3,1.92,1.92,0,0,1,1.8.9h0v-.6h2.2V52Zm-4.9-2.5a1.4,1.4,0,1,0,1.4-1.4A1.31,1.31,0,0,0,127.8,49.5Z"/><path class="cls-1" d="M136.3,47.2h0a2.22,2.22,0,0,1,2-1c1.7,0,2.3,1,2.3,2.6v3.8h-2.2v-3c0-.6.1-1.6-1-1.6-.9,0-1.1.7-1.1,1.4v3.2h-2.2V46.4h2.2Z"/><path class="cls-1" d="M150.2,48a2.38,2.38,0,0,0-1.2-.3c-.3,0-.7.1-.7.4s.7.5,1,.5c1,.2,1.8.7,1.8,1.8,0,1.6-1.5,2.3-2.9,2.3a5.53,5.53,0,0,1-2.5-.7l.8-1.5a3.49,3.49,0,0,0,1.7.6c.3,0,.7-.1.7-.5s-.7-.5-1.4-.7-1.4-.5-1.4-1.6c0-1.5,1.4-2.2,2.7-2.2a4.48,4.48,0,0,1,2,.4Z"/><path class="cls-1" d="M154.7,52.6h-2.2V48.2h-.7V46.4h.7V44.6h2.2v1.8h1.2v1.8h-1.2Z"/><path class="cls-1" d="M158.8,46.4v3.3c0,.8.2,1.3,1.1,1.3s1.1-.6,1.1-1.3V46.4h2.2v3.7c0,2-1.4,2.7-3.3,2.7s-3.3-.6-3.3-2.7V46.4Z"/><path class="cls-1" d="M169.1,51.9h0a2.32,2.32,0,0,1-1.9.9,3.31,3.31,0,0,1,0-6.6,2.56,2.56,0,0,1,1.9.8V42.6h2.2v10h-2.2Zm-2.7-2.4a1.4,1.4,0,1,0,1.4-1.4A1.36,1.36,0,0,0,166.4,49.5Z"/><path class="cls-1" d="M179,49.9h-4.6a1.27,1.27,0,0,0,1.4,1.4,1,1,0,0,0,1-.6h2.1a2.76,2.76,0,0,1-1.2,1.6,4.55,4.55,0,0,1-2,.5,3.29,3.29,0,0,1-3.6-3.3,3.4,3.4,0,0,1,6.8.1v.3Zm-2-1.3a1.19,1.19,0,0,0-1.2-1,1.2,1.2,0,0,0-1.3,1Z"/><path class="cls-1" d="M182.2,47.2h0a2.22,2.22,0,0,1,2-1c1.7,0,2.3,1,2.3,2.6v3.8h-2.2v-3c0-.6.1-1.6-1-1.6-.9,0-1.1.7-1.1,1.4v3.2H180V46.4h2.2Z"/><path class="cls-1" d="M190.3,52.6h-2.2V48.2h-.7V46.4h.7V44.6h2.2v1.8h1.2v1.8h-1.2Z"/><path class="cls-1" d="M203.1,52.6h-2.2v-.7h0a2.2,2.2,0,0,1-1.9.9,3.31,3.31,0,0,1,0-6.6,2.56,2.56,0,0,1,1.9.8v-.6h2.2Zm-4.9-3.1a1.4,1.4,0,1,0,1.4-1.4A1.36,1.36,0,0,0,198.2,49.5Z"/><path class="cls-1" d="M207,52.6h-2.2V48.2h-.7V46.4h.7V44.6H207v1.8h1.2v1.8H207Z"/><path class="cls-1" d="M219.5,46.6a2.81,2.81,0,0,0-2.1-1,2.5,2.5,0,0,0,0,5,2.61,2.61,0,0,0,2-1v2.8a7.79,7.79,0,0,1-2.1.4,5.13,5.13,0,0,1-3.4-1.3,4.48,4.48,0,0,1-1.5-3.4,4.78,4.78,0,0,1,4.7-4.8,4.65,4.65,0,0,1,2.1.5v2.8Z"/><path class="cls-1" d="M227.4,46.6a2.81,2.81,0,0,0-2.1-1,2.5,2.5,0,0,0,0,5,2.61,2.61,0,0,0,2-1v2.8a7.79,7.79,0,0,1-2.1.4,5.13,5.13,0,0,1-3.4-1.3,4.48,4.48,0,0,1-1.5-3.4,4.78,4.78,0,0,1,4.7-4.8,4.65,4.65,0,0,1,2.1.5v2.8Z"/><path class="cls-1" d="M231.2,51l-.6,1.6h-2.5l3.5-9h2.6l3.4,9H235l-.6-1.6Zm1.6-4.6h0l-1,2.9h2Z"/><path class="cls-1" d="M27.2,333.3H24.8v-7.1H22.9v-2h6.2v2H27.2Z"/><path class="cls-1" d="M32.1,323.3v4.6h0a2.22,2.22,0,0,1,2-1c1.6,0,2.3,1,2.3,2.6v3.8H34.2v-3.2c0-.7-.1-1.5-1-1.5s-1.1.7-1.1,1.5v3.2H29.9v-10Z"/><path class="cls-1" d="M44.2,330.6H39.6A1.27,1.27,0,0,0,41,332a1,1,0,0,0,1-.6h2.1a2.76,2.76,0,0,1-1.2,1.6,4.55,4.55,0,0,1-2,.5,3.29,3.29,0,0,1-3.6-3.3,3.12,3.12,0,0,1,3.4-3.3,3.15,3.15,0,0,1,3.4,3.4v.3Zm-2.1-1.3a1.19,1.19,0,0,0-1.2-1,1.2,1.2,0,0,0-1.3,1Z"/><path class="cls-1" d="M56,332.7c0,2.6-1.3,3.7-3.6,3.7-1.4,0-3.3-.7-3.5-2.4h2.4a1,1,0,0,0,.4.5,1.27,1.27,0,0,0,.6.1c1.2,0,1.4-.8,1.4-1.8v-.3a2.44,2.44,0,0,1-2,.8,3,3,0,0,1-3-3.1,3.18,3.18,0,0,1,3.2-3.3,1.92,1.92,0,0,1,1.8.9h0v-.6H56Zm-4.9-2.5a1.4,1.4,0,1,0,1.4-1.4A1.31,1.31,0,0,0,51.1,330.2Z"/><path class="cls-1" d="M59.6,328.1h0a2.11,2.11,0,0,1,2-1.1H62v2.1a1.49,1.49,0,0,0-.9-.2c-1.2,0-1.5.8-1.5,1.9v2.5H57.4v-6.2h2.2Z"/><path class="cls-1" d="M69.6,333.3H67.4v-.7h0a2.2,2.2,0,0,1-1.9.9,3.31,3.31,0,0,1,0-6.6,2.56,2.56,0,0,1,1.9.8v-.6h2.2Zm-4.9-3.1a1.4,1.4,0,1,0,1.4-1.4A1.36,1.36,0,0,0,64.7,330.2Z"/><path class="cls-1" d="M73.1,327.8h0a2.32,2.32,0,0,1,1.9-.9,3.31,3.31,0,0,1,0,6.6,2.73,2.73,0,0,1-1.9-.8v3.7H71v-9.2h2.2v.6Zm0,2.4a1.4,1.4,0,1,0,1.4-1.4A1.36,1.36,0,0,0,73.1,330.2Z"/><path class="cls-1" d="M81.4,323.3v4.6h0a2.22,2.22,0,0,1,2-1c1.6,0,2.3,1,2.3,2.6v3.8H83.5v-3.2c0-.7-.1-1.5-1-1.5s-1.1.7-1.1,1.5v3.2H79.2v-10Z"/><path class="cls-1" d="M89.5,324.8a1.2,1.2,0,1,1-1.2-1.2A1.15,1.15,0,0,1,89.5,324.8Zm-.2,8.5H87.1v-6.2h2.2Z"/><path class="cls-1" d="M95.2,329.1a2.1,2.1,0,0,0-1.1-.4,1.47,1.47,0,0,0-1.5,1.5,1.42,1.42,0,0,0,1.5,1.5,2.1,2.1,0,0,0,1.1-.4v1.8a4,4,0,0,1-1.5.3,3.25,3.25,0,1,1,.1-6.5,2.3,2.3,0,0,1,1.4.4Z"/><path class="cls-1" d="M105.3,332.6h0a2.32,2.32,0,0,1-1.9.9,3.31,3.31,0,0,1,0-6.6,2.56,2.56,0,0,1,1.9.8v-4.4h2.2v10h-2.2Zm-2.7-2.4a1.4,1.4,0,1,0,1.4-1.4A1.36,1.36,0,0,0,102.6,330.2Z"/><path class="cls-1" d="M115.2,330.6h-4.6A1.27,1.27,0,0,0,112,332a1,1,0,0,0,1-.6h2.1a2.76,2.76,0,0,1-1.2,1.6,4.55,4.55,0,0,1-2,.5,3.29,3.29,0,0,1-3.6-3.3,3.4,3.4,0,0,1,6.8.1v.3Zm-2-1.3a1.19,1.19,0,0,0-1.2-1,1.2,1.2,0,0,0-1.3,1Z"/><path class="cls-1" d="M120.2,328.7a2.38,2.38,0,0,0-1.2-.3c-.3,0-.7.1-.7.4s.7.5,1,.5c1,.2,1.8.7,1.8,1.8,0,1.6-1.5,2.3-2.9,2.3a5.53,5.53,0,0,1-2.5-.7l.8-1.5a3.49,3.49,0,0,0,1.7.6c.3,0,.7-.1.7-.5s-.7-.5-1.4-.7-1.4-.5-1.4-1.6c0-1.5,1.4-2.2,2.7-2.2a4.48,4.48,0,0,1,2,.4Z"/><path class="cls-1" d="M124.7,324.8a1.2,1.2,0,1,1-1.2-1.2A1.15,1.15,0,0,1,124.7,324.8Zm-.2,8.5h-2.2v-6.2h2.2Z"/><path class="cls-1" d="M132.7,332.7c0,2.6-1.3,3.7-3.6,3.7-1.4,0-3.3-.7-3.5-2.4H128a1,1,0,0,0,.4.5,1.27,1.27,0,0,0,.6.1c1.2,0,1.4-.8,1.4-1.8v-.3a2.44,2.44,0,0,1-2,.8,3,3,0,0,1-3-3.1,3.18,3.18,0,0,1,3.2-3.3,1.92,1.92,0,0,1,1.8.9h0v-.6h2.2v5.5Zm-4.9-2.5a1.4,1.4,0,1,0,1.4-1.4A1.31,1.31,0,0,0,127.8,330.2Z"/><path class="cls-1" d="M136.3,327.9h0a2.22,2.22,0,0,1,2-1c1.7,0,2.3,1,2.3,2.6v3.8h-2.2v-3c0-.6.1-1.6-1-1.6-.9,0-1.1.7-1.1,1.4v3.2h-2.2v-6.2h2.2Z"/><path class="cls-1" d="M148.3,327.9h0a2.33,2.33,0,0,1,2-1,2.25,2.25,0,0,1,2.1,1.2,2.25,2.25,0,0,1,2.1-1.2c1.6,0,2.1,1,2.1,2.4v3.9h-2.2v-2.9c0-.6,0-1.7-.9-1.7s-1,.9-1,1.7v2.9h-2.2v-2.9c0-.7,0-1.7-1-1.7s-1,1-1,1.7v2.9h-2.2V327h2.2v.9Z"/><path class="cls-1" d="M164.7,333.3h-2.2v-.7h0a2.2,2.2,0,0,1-1.9.9,3.31,3.31,0,0,1,0-6.6,2.56,2.56,0,0,1,1.9.8v-.6h2.2Zm-4.9-3.1a1.4,1.4,0,1,0,1.4-1.4A1.36,1.36,0,0,0,159.8,330.2Z"/><path class="cls-1" d="M168.5,324.8a1.2,1.2,0,1,1-1.2-1.2A1.15,1.15,0,0,1,168.5,324.8Zm-.1,11.6h-2.2v-9.2h2.2Z"/><path class="cls-1" d="M176.8,330.2c0,2.1-1.7,3.3-3.7,3.3s-3.7-1.2-3.7-3.3,1.7-3.3,3.7-3.3S176.8,328.1,176.8,330.2Zm-5.1,0a1.4,1.4,0,1,0,1.4-1.4A1.36,1.36,0,0,0,171.7,330.2Z"/><path class="cls-1" d="M179.9,328.1h0a2.11,2.11,0,0,1,2-1.1h.4v2.1a1.49,1.49,0,0,0-.9-.2c-1.2,0-1.5.8-1.5,1.9v2.5h-2.2v-6.2h2.2Z"/><path class="cls-1" d="M189.7,333.3h-2.4v-9h2.4Z"/><path class="cls-1" d="M193.4,327.9h0a2.22,2.22,0,0,1,2-1c1.7,0,2.3,1,2.3,2.6v3.8h-2.2v-3c0-.6.1-1.6-1-1.6-.9,0-1.1.7-1.1,1.4v3.2h-2.2v-6.2h2.2Z"/><path class="cls-1" d="M203.2,328.7a2.38,2.38,0,0,0-1.2-.3c-.3,0-.7.1-.7.4s.7.5,1,.5c1,.2,1.8.7,1.8,1.8,0,1.6-1.5,2.3-2.9,2.3a5.53,5.53,0,0,1-2.5-.7l.8-1.5a3.49,3.49,0,0,0,1.7.6c.3,0,.7-.1.7-.5s-.7-.5-1.4-.7-1.4-.5-1.4-1.6c0-1.5,1.4-2.2,2.7-2.2a4.48,4.48,0,0,1,2,.4Z"/><path class="cls-1" d="M207.7,333.3h-2.2v-4.4h-.7v-1.8h.7v-1.8h2.2v1.8h1.2v1.8h-1.2Z"/><path class="cls-1" d="M211.8,328.1h0a2.11,2.11,0,0,1,2-1.1h.4v2.1a1.49,1.49,0,0,0-.9-.2c-1.2,0-1.5.8-1.5,1.9v2.5h-2.2v-6.2h2.2Z"/><path class="cls-1" d="M217.2,327.1v3.3c0,.8.2,1.3,1.1,1.3s1.1-.6,1.1-1.3v-3.3h2.2v3.7c0,2-1.4,2.7-3.3,2.7s-3.3-.6-3.3-2.7v-3.7Z"/><path class="cls-1" d="M227.4,329.1a2.1,2.1,0,0,0-1.1-.4,1.47,1.47,0,0,0-1.5,1.5,1.42,1.42,0,0,0,1.5,1.5,2.1,2.1,0,0,0,1.1-.4v1.8a4,4,0,0,1-1.5.3,3.25,3.25,0,1,1,.1-6.5,2.3,2.3,0,0,1,1.4.4v1.8Z"/><path class="cls-1" d="M231.1,333.3h-2.2v-4.4h-.7v-1.8h.7v-1.8h2.2v1.8h1.2v1.8h-1.2Z"/><path class="cls-1" d="M240,330.2c0,2.1-1.7,3.3-3.7,3.3s-3.7-1.2-3.7-3.3,1.7-3.3,3.7-3.3S240,328.1,240,330.2Zm-5.1,0a1.4,1.4,0,1,0,1.4-1.4A1.36,1.36,0,0,0,234.9,330.2Z"/><path class="cls-1" d="M243.2,328.1h0a2.11,2.11,0,0,1,2-1.1h.4v2.1a1.49,1.49,0,0,0-.9-.2c-1.2,0-1.5.8-1.5,1.9v2.5H241v-6.2h2.2Z"/><path class="cls-1" d="M257.3,333.3h-2.2v-.7h0a2.2,2.2,0,0,1-1.9.9,3.31,3.31,0,0,1,0-6.6,2.56,2.56,0,0,1,1.9.8v-.6h2.2Zm-4.9-3.1a1.4,1.4,0,1,0,1.4-1.4A1.36,1.36,0,0,0,252.4,330.2Z"/><path class="cls-1" d="M261.1,333.3h-2.2v-4.4h-.7v-1.8h.7v-1.8h2.2v1.8h1.2v1.8h-1.2Z"/><path class="cls-1" d="M273.7,327.3a2.81,2.81,0,0,0-2.1-1,2.5,2.5,0,0,0,0,5,2.61,2.61,0,0,0,2-1v2.8a7.79,7.79,0,0,1-2.1.4,5.13,5.13,0,0,1-3.4-1.3,4.48,4.48,0,0,1-1.5-3.4,4.78,4.78,0,0,1,4.7-4.8,4.65,4.65,0,0,1,2.1.5v2.8Z"/><path class="cls-1" d="M281.6,327.3a2.81,2.81,0,0,0-2.1-1,2.5,2.5,0,0,0,0,5,2.61,2.61,0,0,0,2-1v2.8a7.79,7.79,0,0,1-2.1.4,5.13,5.13,0,0,1-3.4-1.3,4.48,4.48,0,0,1-1.5-3.4,4.78,4.78,0,0,1,4.7-4.8,4.65,4.65,0,0,1,2.1.5v2.8Z"/><path class="cls-1" d="M285.4,331.7l-.6,1.6h-2.5l3.5-9h2.6l3.4,9h-2.5l-.6-1.6ZM287,327h0l-1,2.9h2Z"/><path class="cls-5" d="M573.61,385l144.58-8.36a1,1,0,0,1,1,1.1L704.16,526.66a1,1,0,0,1-1.11.89L579.41,512.48a1,1,0,0,1-.88-1l-5.86-125.48A1,1,0,0,1,573.61,385Z"/><path class="cls-3" d="M694.17,520.31l-.21,0L570.32,505.22a1.75,1.75,0,0,1-1.54-1.66l-5.86-125.47a1.76,1.76,0,0,1,1.65-1.83l144.58-8.36a1.76,1.76,0,0,1,1.36.53,1.79,1.79,0,0,1,.48,1.39L695.91,518.73a1.77,1.77,0,0,1-1.74,1.58ZM709.25,369.4h0l-144.57,8.35h0a.26.26,0,0,0-.24.27l5.86,125.48a.25.25,0,0,0,.22.23l123.64,15.08a.25.25,0,0,0,.18-.06.25.25,0,0,0,.1-.17L709.5,369.67a.29.29,0,0,0-.07-.2A.25.25,0,0,0,709.25,369.4ZM564.61,377h0Z"/><path class="cls-6" d="M607.43,444l10.8,2.84A1,1,0,0,1,619,448l-10.84,60.17a1,1,0,0,1-1.17.8l-14.47-2.78a1,1,0,0,1-.78-1.21l14.5-60.22A1,1,0,0,1,607.43,444Z"/><path class="cls-3" d="M607.14,509.76l-.33,0L592.34,507a1.78,1.78,0,0,1-1.14-.77,1.81,1.81,0,0,1-.23-1.36l14.5-60.22a1.74,1.74,0,0,1,.8-1.09,1.77,1.77,0,0,1,1.35-.19l10.8,2.83a1.77,1.77,0,0,1,1.28,2l-10.84,60.16a1.72,1.72,0,0,1-.73,1.14A1.77,1.77,0,0,1,607.14,509.76Zm0-65a.22.22,0,0,0-.13,0,.23.23,0,0,0-.11.15l-14.5,60.22a.29.29,0,0,0,0,.2.33.33,0,0,0,.17.11l14.46,2.78a.3.3,0,0,0,.19,0,.26.26,0,0,0,.11-.16l10.83-60.17a.24.24,0,0,0-.18-.28l-10.8-2.84h-.07Z"/><path class="cls-6" d="M662.19,446l9-2.16a1,1,0,0,1,1.22.78l12.94,65a1,1,0,0,1-1,1.19l-12.49-.54a1,1,0,0,1-1-.85l-9.49-62.33A1,1,0,0,1,662.19,446Z"/><path class="cls-3" d="M684.4,511.55h-.07l-12.5-.54a1.76,1.76,0,0,1-1.65-1.48l-9.49-62.33a1.77,1.77,0,0,1,1.32-2h0l9-2.16a1.73,1.73,0,0,1,1.35.23,1.7,1.7,0,0,1,.77,1.13l13,65a1.76,1.76,0,0,1-.39,1.48A1.7,1.7,0,0,1,684.4,511.55Zm-22-64.87a.26.26,0,0,0-.19.28l9.49,62.33a.25.25,0,0,0,.24.21l12.49.55a.29.29,0,0,0,.2-.09.25.25,0,0,0,.06-.21l-12.95-65a.26.26,0,0,0-.11-.16.25.25,0,0,0-.19,0Z"/><path class="cls-7" d="M604.62,416.52,609,360.05a1,1,0,0,1,1-.93h60.67a1,1,0,0,1,1,.95l3.44,62.39a.26.26,0,0,1-.24.24Z"/><path class="cls-3" d="M674.85,423.45l-70.3-6.19a.74.74,0,0,1-.68-.8L608.24,360a1.75,1.75,0,0,1,1.74-1.62h60.67A1.75,1.75,0,0,1,672.4,360l3.44,62.39A1,1,0,0,1,674.85,423.45Zm-69.43-7.62,68.89,6.07-3.41-61.79a.25.25,0,0,0-.25-.24H610a.25.25,0,0,0-.25.23Z"/><path class="cls-8" d="M615.79,400l-5.94,2.85a.92.92,0,0,0-.4,1.27l6.34,11.18Z"/><path class="cls-3" d="M615.79,416a.76.76,0,0,1-.65-.38l-6.34-11.18a1.78,1.78,0,0,1-.14-1.31,1.69,1.69,0,0,1,.85-1l6-2.86a.77.77,0,0,1,.72,0,.75.75,0,0,1,.35.64v15.3a.74.74,0,0,1-.56.72A.58.58,0,0,1,615.79,416ZM615,401.14l-4.87,2.34c-.14.07-.06.24,0,.26l4.92,8.67Z"/><path class="cls-8" d="M662.64,400.26l6.34,4.21a.87.87,0,0,1,.24,1.26l-6.66,10.86V400.26Z"/><path class="cls-3" d="M662.56,417.34a.71.71,0,0,1-.2,0,.76.76,0,0,1-.55-.73V400.26a.76.76,0,0,1,.75-.75,1.09,1.09,0,0,1,.5.13l6.34,4.2a1.56,1.56,0,0,1,.7,1,1.7,1.7,0,0,1-.25,1.31L663.2,417A.75.75,0,0,1,662.56,417.34Zm.75-15.73v12.33l5.27-8.6c0-.08.07-.13.06-.17l-.07-.08Z"/><rect class="cls-8" x="637.91" y="434.67" width="3.41" height="22.2"/><path class="cls-3" d="M641.32,457.62h-3.41a.76.76,0,0,1-.75-.75v-22.2a.75.75,0,0,1,.75-.75h3.41a.75.75,0,0,1,.75.75v22.2A.76.76,0,0,1,641.32,457.62Zm-2.66-1.5h1.91v-20.7h-1.91Z"/><path class="cls-7" d="M618.46,446.32l17.37-.08a1,1,0,0,1,.8.39l2.08,2.69a1,1,0,0,0,1.42.16l3.69-3a1,1,0,0,1,.63-.23l16-.07a1,1,0,0,1,1,.92l5.08,68a1,1,0,0,1-1.09,1.07l-51.52-4.79a1,1,0,0,1-.9-1.07l4.46-63A1,1,0,0,1,618.46,446.32Z"/><path class="cls-3" d="M665.52,516.89h-.16l-51.52-4.8a1.75,1.75,0,0,1-1.58-1.86l4.46-63a1.76,1.76,0,0,1,1.74-1.62l17.37-.07h0a1.76,1.76,0,0,1,1.38.67l2.08,2.69a.24.24,0,0,0,.17.09.22.22,0,0,0,.19-.05l3.68-3a1.71,1.71,0,0,1,1.1-.4l16-.07h0a1.75,1.75,0,0,1,1.74,1.62l5.08,68a1.77,1.77,0,0,1-1.75,1.89Zm-47-69.82a.25.25,0,0,0-.25.23l-4.46,63a.25.25,0,0,0,.22.27l51.52,4.79a.27.27,0,0,0,.2-.07.23.23,0,0,0,.07-.19l-5.07-68a.25.25,0,0,0-.25-.23h0l-16,.07a.25.25,0,0,0-.16.06l-3.68,3a1.76,1.76,0,0,1-2.49-.28L636,447.09a.23.23,0,0,0-.19-.09h0l-17.37.07Zm0-.75h0Z"/><path class="cls-8" d="M615.79,381.37v46.56a7.39,7.39,0,0,0,7.38,7.37h33a7.38,7.38,0,0,0,7.37-7.37V381.37a1,1,0,0,0-1-1H616.79A1,1,0,0,0,615.79,381.37Z"/><path class="cls-3" d="M656.14,436.05h-33a8.13,8.13,0,0,1-8.13-8.12V381.37a1.75,1.75,0,0,1,1.75-1.75h45.72a1.75,1.75,0,0,1,1.75,1.75v46.56A8.13,8.13,0,0,1,656.14,436.05Zm-39.35-54.93a.25.25,0,0,0-.25.25v46.56a6.63,6.63,0,0,0,6.63,6.62h33a6.63,6.63,0,0,0,6.62-6.62V381.37a.25.25,0,0,0-.25-.25Z"/><path class="cls-3" d="M648.93,405l9.59-2.77a.49.49,0,0,0,0-.95l-9.35-3.18a.52.52,0,0,0-.64.48l-.24,5.95A.51.51,0,0,0,648.93,405Z"/><path class="cls-3" d="M629.43,405.73l2-7.13a.38.38,0,0,0-.48-.48l-10.38,2.54a.39.39,0,0,0-.08.71L629,406A.36.36,0,0,0,629.43,405.73Z"/><path class="cls-3" d="M640.29,426,625,418.1a.45.45,0,0,1-.16-.55l.16-.32a.45.45,0,0,1,.55-.16l14.83,7.61a.23.23,0,0,0,.31,0l16.1-7.69a.51.51,0,0,1,.55.16l.16.32a.51.51,0,0,1-.16.55L640.68,426C640.53,426.11,640.37,426.11,640.29,426Z"/><path class="cls-3" d="M642.19,415.25h-4.83a.76.76,0,0,1-.8-.8v-4.83a.75.75,0,0,1,.8-.79h4.83a.74.74,0,0,1,.79.79v4.83A.79.79,0,0,1,642.19,415.25Z"/><path class="cls-8" d="M658.84,506.17h-.4l-46-5.7a2.12,2.12,0,0,1,.56-4.21L659,502a2.08,2.08,0,0,1,1.82,2.38A2,2,0,0,1,658.84,506.17Z"/><path class="cls-3" d="M658.84,506.92h-.4l-46.07-5.71a2.88,2.88,0,0,1-1.38-5.13,2.79,2.79,0,0,1,2.13-.56l46,5.71a2.85,2.85,0,0,1,1.92,1.09,2.87,2.87,0,0,1-2.17,4.6ZM612.72,497a1.39,1.39,0,0,0-.82.27,1.41,1.41,0,0,0-.52.93,1.37,1.37,0,0,0,.26,1,1.4,1.4,0,0,0,.92.51l46,5.71h.31a1.3,1.3,0,0,0,1.24-1.18,1.33,1.33,0,0,0-.26-1,1.45,1.45,0,0,0-.92-.52l-46-5.7Z"/><path class="cls-8" d="M619.12,504.75a2.1,2.1,0,0,1-2.14-1.91,2.13,2.13,0,0,1,1.83-2.37L666,494.84a2.12,2.12,0,0,1,.56,4.2l-47.17,5.63A.62.62,0,0,1,619.12,504.75Z"/><path class="cls-3" d="M619.12,505.5a2.83,2.83,0,0,1-2.89-2.6,2.88,2.88,0,0,1,2.47-3.18l47.18-5.63a2.87,2.87,0,0,1,.75,5.69l-47.07,5.62A1.14,1.14,0,0,1,619.12,505.5Zm47.13-9.93h-.18l-47.18,5.63a1.37,1.37,0,0,0-1.16,1.53A1.34,1.34,0,0,0,619,504a1.09,1.09,0,0,1,.24-.07l47.17-5.63a1.37,1.37,0,0,0-.19-2.72Z"/><path class="cls-6" d="M592.2,507.17l4.26,6.69a1,1,0,0,0,.88.46L635.25,513a1,1,0,0,0,1-1.18l-2.85-15.64a1,1,0,0,0-1.24-.78l-39.32,10.24A1,1,0,0,0,592.2,507.17Z"/><path class="cls-3" d="M597.31,515.07a1.76,1.76,0,0,1-1.48-.81l-4.27-6.68a1.76,1.76,0,0,1,1-2.64l39.32-10.24a1.76,1.76,0,0,1,1.38.22,1.72,1.72,0,0,1,.78,1.16l2.85,15.64a1.75,1.75,0,0,1-.35,1.41,1.81,1.81,0,0,1-1.31.65l-37.91,1.29Zm35.05-18.93h-.06L593,506.39a.24.24,0,0,0-.17.15.24.24,0,0,0,0,.23h0l4.26,6.68c0,.08.12.15.22.12l37.91-1.29a.26.26,0,0,0,.19-.09.28.28,0,0,0,.05-.2l-2.85-15.64a.26.26,0,0,0-.11-.17A.39.39,0,0,0,632.36,496.14Z"/><path class="cls-6" d="M680.36,502.13l-35.1-6a1,1,0,0,0-1.13,1.26l6.57,23.06a1,1,0,0,0,1.29.67l19.61-6.94,12.65-4.12a1,1,0,0,0,.54-1.48l-3.76-6A1,1,0,0,0,680.36,502.13Z"/><path class="cls-3" d="M651.66,521.92a1.73,1.73,0,0,1-1.68-1.27l-6.57-23a1.77,1.77,0,0,1,.38-1.65,1.72,1.72,0,0,1,1.6-.55l35.09,6a1.78,1.78,0,0,1,1.19.8l3.76,6a1.72,1.72,0,0,1,.16,1.53,1.78,1.78,0,0,1-1.1,1.06l-12.66,4.12-19.59,6.93A1.61,1.61,0,0,1,651.66,521.92Zm-6.57-25a.25.25,0,0,0-.18.08.24.24,0,0,0-.06.24l6.57,23.05a.27.27,0,0,0,.13.16.23.23,0,0,0,.19,0l19.61-6.94L684,509.34a.24.24,0,0,0,.16-.15.25.25,0,0,0,0-.22l-3.76-6a.26.26,0,0,0-.17-.12h0l-35.09-6Z"/><path class="cls-8" d="M612.38,496.26l-22.11,7.22a2.17,2.17,0,0,0-1.35,1.74,2.07,2.07,0,0,0,.87,2L598,514a2.32,2.32,0,0,0,1.19.4h.39a2,2,0,0,0,1.35-.87l12-14.91"/><path class="cls-3" d="M599.62,515.17h-.4a3,3,0,0,1-1.57-.51l-.09-.06-8.25-6.82a2.78,2.78,0,0,1-1.14-2.63,2.93,2.93,0,0,1,1.79-2.36l22.19-7.24a.75.75,0,0,1,.47,1.43l-22.12,7.21a1.38,1.38,0,0,0-.83,1.11,1.32,1.32,0,0,0,.52,1.27l8.28,6.84a1.63,1.63,0,0,0,.75.26h.34a1.19,1.19,0,0,0,.78-.54l12-15a.76.76,0,0,1,1.06-.11.75.75,0,0,1,.11,1.05l-12,14.9a2.63,2.63,0,0,1-1.82,1.15Z"/><path class="cls-8" d="M665.42,497.85l18.63,18.79a2.07,2.07,0,0,0,1.66.87,2.2,2.2,0,0,0,1.82-1l4-11.81a2.41,2.41,0,0,0-.08-1.67,2.1,2.1,0,0,0-1.27-1L666.61,495"/><path class="cls-3" d="M685.71,518.26a2.81,2.81,0,0,1-2.24-1.14l-18.58-18.74a.75.75,0,0,1,1.06-1.06l18.63,18.79.08.09a1.33,1.33,0,0,0,1.05.56,1.46,1.46,0,0,0,1.16-.57l3.92-11.68a1.68,1.68,0,0,0-.06-1.13,1.32,1.32,0,0,0-.79-.61l-23.55-7.06a.75.75,0,0,1,.43-1.43l23.55,7.05a2.83,2.83,0,0,1,1.72,1.42,3.14,3.14,0,0,1,.13,2.2l-4,11.85a.94.94,0,0,1-.12.22A3,3,0,0,1,685.71,518.26Z"/><path class="cls-9" d="M615.79,238.46a2.15,2.15,0,0,1-1.19-.4l-40.11-30.59a2,2,0,0,1-.32-2.94l31.32-34.64a2,2,0,1,1,2.93,2.62l-29.89,33.05L617,234.81a2,2,0,0,1,.4,2.78A1.94,1.94,0,0,1,615.79,238.46Z"/><path class="cls-3" d="M615.79,239.21a2.86,2.86,0,0,1-1.64-.55L574,208.06a2.7,2.7,0,0,1-1.08-1.92,2.77,2.77,0,0,1,.63-2.08l31.34-34.67A2.72,2.72,0,1,1,609,173l-29.34,32.45,37.8,28.76A2.76,2.76,0,0,1,618,238,2.68,2.68,0,0,1,615.79,239.21ZM607,170a1.25,1.25,0,0,0-.92.39L574.73,205a1.24,1.24,0,0,0-.29.89,1.31,1.31,0,0,0,.47.91l40.15,30.63a1.44,1.44,0,0,0,.73.24,1.2,1.2,0,0,0,1-.56,1.31,1.31,0,0,0,.23-.94,1.15,1.15,0,0,0-.46-.79l-38.46-29.26a.75.75,0,0,1-.1-1.1L607.86,172a1.25,1.25,0,0,0-.1-1.71A1.18,1.18,0,0,0,607,170Z"/><path class="cls-10" d="M610.26,156.62l-16,16.79a1,1,0,0,0,.15,1.51l13.85,9.77a1,1,0,0,0,1.4-.24l15-21.41a1,1,0,0,0,0-1.18l-3.57-4.67A7.16,7.16,0,0,0,610.26,156.62Z"/><path class="cls-3" d="M608.89,185.62a1.75,1.75,0,0,1-1-.32L594,175.53a1.75,1.75,0,0,1-.73-1.26,1.73,1.73,0,0,1,.47-1.37l16-16.8a7.89,7.89,0,0,1,12,.64l3.58,4.66a1.76,1.76,0,0,1,0,2.07l-15,21.41a1.73,1.73,0,0,1-1.13.72A1.51,1.51,0,0,1,608.89,185.62Zm6.56-30.48a6.39,6.39,0,0,0-4.64,2h0l-15.95,16.79a.25.25,0,0,0-.07.19.2.2,0,0,0,.11.18l13.85,9.78a.23.23,0,0,0,.18,0,.31.31,0,0,0,.17-.1l15-21.41a.27.27,0,0,0,0-.3l-3.58-4.66a6.39,6.39,0,0,0-4.74-2.5Zm-5.19,1.48h0Z"/><path class="cls-9" d="M666,237.91a1.93,1.93,0,0,1-1.5-.72,2,2,0,0,1,.15-2.77l31.79-27.75-30-32.5a2,2,0,1,1,2.85-2.69l31.31,34a2,2,0,0,1,.56,1.43,1.67,1.67,0,0,1-.71,1.35l-33.38,29.09A1.12,1.12,0,0,1,666,237.91Z"/><path class="cls-3" d="M666,238.66a2.7,2.7,0,0,1-2.08-1,2.75,2.75,0,0,1,.23-3.81l31.22-27.25L665.9,174.68a2.79,2.79,0,0,1-.73-1.94,2.6,2.6,0,0,1,.86-1.9,2.7,2.7,0,0,1,1.93-.72,2.63,2.63,0,0,1,1.9.85l31.31,34a2.75,2.75,0,0,1,.75,1.93,2.38,2.38,0,0,1-1,2l-33.18,28.94A1.9,1.9,0,0,1,666,238.66Zm1.94-67a1.33,1.33,0,0,0-.88.33,1.16,1.16,0,0,0-.36.82,1.34,1.34,0,0,0,.34.9l30,32.49a.75.75,0,0,1,.2.55.76.76,0,0,1-.25.53L665.12,235a1.24,1.24,0,0,0-.1,1.71,1.22,1.22,0,0,0,1,.47.67.67,0,0,0,.42-.1.68.68,0,0,1,.2-.27L700,207.69a1,1,0,0,0,.46-.78,1.3,1.3,0,0,0-.34-.9l-31.33-34a1.13,1.13,0,0,0-.82-.36Z"/><path class="cls-10" d="M662.15,157l22,17.74a1,1,0,0,1-.06,1.6l-13.56,9.25a1,1,0,0,1-1.36-.21l-19.12-24.82a1,1,0,0,1,.06-1.29l1.37-1.48A7.81,7.81,0,0,1,662.15,157Z"/><path class="cls-3" d="M670,186.48a1.75,1.75,0,0,1-1.38-.68L649.49,161a1.73,1.73,0,0,1,.11-2.25l1.37-1.48a8.58,8.58,0,0,1,11.65-.86l22,17.73a1.74,1.74,0,0,1-.11,2.81L671,186.17A1.71,1.71,0,0,1,670,186.48ZM657.26,156a7.05,7.05,0,0,0-5.19,2.25l-1.37,1.48a.26.26,0,0,0,0,.33l19.12,24.82a.25.25,0,0,0,.34.05l13.57-9.25a.24.24,0,0,0,.11-.19.25.25,0,0,0-.1-.21l-22-17.73h0A7,7,0,0,0,657.26,156Z"/><path class="cls-6" d="M622.35,155.35l28.84,1.27a1,1,0,0,1,.95.85l11.7,79.91a1,1,0,0,1-.86,1.13l-43.64,5.67a1,1,0,0,1-1.13-1l3.1-86.84A1,1,0,0,1,622.35,155.35Z"/><path class="cls-3" d="M619.21,244.93a1.75,1.75,0,0,1-1.75-1.81l3.1-86.84a1.7,1.7,0,0,1,.56-1.22,1.73,1.73,0,0,1,1.26-.46l28.85,1.27a1.74,1.74,0,0,1,1.65,1.49l11.71,79.91a1.8,1.8,0,0,1-.34,1.31,1.77,1.77,0,0,1-1.17.68l-43.64,5.66Zm3.09-88.83a.24.24,0,0,0-.16.06.25.25,0,0,0-.08.18L619,243.17a.24.24,0,0,0,.28.26l43.65-5.66a.22.22,0,0,0,.16-.1.24.24,0,0,0,.05-.19l-11.7-79.9a.27.27,0,0,0-.24-.22l-28.84-1.26h0Z"/><path class="cls-9" d="M637.59,155.06V143.81a1,1,0,0,0-1-1h-2a1,1,0,0,0-1,1v11a1,1,0,0,1-1,1l-3.74-.18a1,1,0,0,0-1,1.44l2.7,5.4a1,1,0,0,0,.85.55l8.95.42a1,1,0,0,0,.92-.5l3-5.18a1,1,0,0,0-.83-1.49l-4.92-.21A1,1,0,0,1,637.59,155.06Z"/><path class="cls-3" d="M640.44,164.19h-.08l-9-.42a1.77,1.77,0,0,1-1.49-1l-2.7-5.4a1.74,1.74,0,0,1,.1-1.74,1.72,1.72,0,0,1,1.55-.79l3.75.18a.27.27,0,0,0,.18-.07.25.25,0,0,0,.08-.18v-11a1.75,1.75,0,0,1,1.75-1.75h2a1.75,1.75,0,0,1,1.75,1.75v11.25a.26.26,0,0,0,.24.25l4.92.21a1.74,1.74,0,0,1,1.47.9,1.76,1.76,0,0,1,0,1.72l-3,5.18A1.76,1.76,0,0,1,640.44,164.19Zm-11.65-7.82a.23.23,0,0,0-.21.12.25.25,0,0,0,0,.25l2.7,5.39a.26.26,0,0,0,.22.14l8.95.42a.24.24,0,0,0,.23-.12l3-5.18a.24.24,0,0,0,0-.25.26.26,0,0,0-.21-.13l-4.92-.2a1.75,1.75,0,0,1-1.68-1.75V143.81a.25.25,0,0,0-.25-.25h-2a.25.25,0,0,0-.25.25v11a1.78,1.78,0,0,1-.54,1.27,1.86,1.86,0,0,1-1.3.48l-3.74-.19Z"/><path class="cls-10" d="M668.4,143.76l-70.18-3.86a1,1,0,0,1-1-1l-2.78-50.5a20.06,20.06,0,0,1,20.74-21.14l41.23,1.49a17.49,17.49,0,0,1,16.82,18.69l-3.83,55.34A1,1,0,0,1,668.4,143.76Z"/><path class="cls-3" d="M668.45,144.51h-.09l-70.18-3.86a1.74,1.74,0,0,1-1.66-1.65L593.74,88.5a20.8,20.8,0,0,1,21.52-21.94l41.23,1.49A18.25,18.25,0,0,1,674,87.54l-3.83,55.34A1.77,1.77,0,0,1,668.45,144.51ZM614.51,68.05a19.29,19.29,0,0,0-19.27,20.36l2.78,50.5a.26.26,0,0,0,.24.24L668.44,143h0a.25.25,0,0,0,.25-.24l3.84-55.33a16.74,16.74,0,0,0-16.1-17.89l-41.23-1.49Z"/><rect class="cls-9" x="599.86" y="114.24" width="7.45" height="9.67" rx="1"/><path class="cls-1" d="M606.31,124.66h-5.45a1.75,1.75,0,0,1-1.75-1.75v-7.67a1.75,1.75,0,0,1,1.75-1.75h5.45a1.75,1.75,0,0,1,1.75,1.75v7.67A1.75,1.75,0,0,1,606.31,124.66ZM600.86,115a.25.25,0,0,0-.25.25v7.67a.25.25,0,0,0,.25.25h5.45a.25.25,0,0,0,.25-.25v-7.67a.25.25,0,0,0-.25-.25Z"/><rect class="cls-9" x="660.34" y="115.59" width="7.45" height="9.67" rx="1"/><path class="cls-3" d="M666.8,126h-5.46a1.76,1.76,0,0,1-1.75-1.75v-7.67a1.75,1.75,0,0,1,1.75-1.75h5.46a1.75,1.75,0,0,1,1.75,1.75v7.67A1.76,1.76,0,0,1,666.8,126Zm-5.46-9.67a.25.25,0,0,0-.25.25v7.67a.25.25,0,0,0,.25.25h5.46a.25.25,0,0,0,.25-.25v-7.67a.25.25,0,0,0-.25-.25Z"/><path class="cls-9" d="M606.44,95.69v39.48c0,4.83,2.93,8.8,6.58,8.8h41.62c3.64,0,6.58-4,6.58-8.8V95.69c0-.71-.4-1.27-1-1.27H607.39A1.3,1.3,0,0,0,606.44,95.69Z"/><path class="cls-3" d="M654.64,144.72H613c-4,0-7.33-4.29-7.33-9.55V95.69a2.06,2.06,0,0,1,1.58-2h53a1.85,1.85,0,0,1,1.71,2v39.48C662,140.43,658.68,144.72,654.64,144.72ZM607.48,95.17a.64.64,0,0,0-.29.52v39.48c0,4.44,2.61,8.05,5.83,8.05h41.62c3.21,0,5.83-3.61,5.83-8.05V95.69c0-.34-.15-.52-.21-.52Z"/><circle class="cls-3" cx="618.88" cy="112.14" r="2.7"/><path class="cls-3" d="M618.88,116a3.89,3.89,0,1,1,3.89-3.88A3.88,3.88,0,0,1,618.88,116Zm0-5.39a1.5,1.5,0,0,0-1.5,1.51,1.51,1.51,0,1,0,1.5-1.51Z"/><circle class="cls-3" cx="648.37" cy="112.14" r="2.7"/><path class="cls-3" d="M648.37,116a3.89,3.89,0,1,1,3.89-3.88A3.88,3.88,0,0,1,648.37,116Zm0-5.39a1.5,1.5,0,0,0-1.5,1.51,1.51,1.51,0,0,0,3,0A1.5,1.5,0,0,0,648.37,110.63Z"/><path class="cls-3" d="M633.47,117.57l-3.33,6c-.16.23.08.55.32.55h9.91a.39.39,0,0,0,.24-.71l-6.58-6C633.87,117.33,633.55,117.33,633.47,117.57Z"/><polygon class="cls-10" points="653.61 133.27 624.83 141.03 622.21 130.41 653.61 133.27"/><path class="cls-3" d="M624.83,141.83a.6.6,0,0,1-.4-.08,1.24,1.24,0,0,1-.39-.48l-2.62-10.62a.79.79,0,0,1,.16-.71.65.65,0,0,1,.63-.24l31.4,2.85a.71.71,0,0,1,.71.72,1,1,0,0,1-.56.87l-28.69,7.77A.29.29,0,0,0,624.83,141.83Zm-1.59-10.47,2.15,8.72,23.7-6.42Z"/><path class="cls-6" d="M638.46,463.05l-3.4-3.41a.76.76,0,0,1,0-1.11l3.4-3.41a.76.76,0,0,1,1.11,0l3.41,3.41a.76.76,0,0,1,0,1.11l-3.41,3.41A.76.76,0,0,1,638.46,463.05Z"/><path class="cls-3" d="M639,464a1.52,1.52,0,0,1-1.08-.45h0l-3.4-3.41a1.51,1.51,0,0,1,0-2.17l3.4-3.41a1.52,1.52,0,0,1,2.17,0l3.41,3.41a1.51,1.51,0,0,1,0,2.17l-3.4,3.41A1.56,1.56,0,0,1,639,464Zm0-1.51,0,0,3.43-3.43L639,455.65l-3.45,3.41Z"/><path class="cls-6" d="M638.46,474.46l-3.4-3.4a.76.76,0,0,1,0-1.11l3.4-3.41a.76.76,0,0,1,1.11,0L643,470a.76.76,0,0,1,0,1.11l-3.41,3.4A.76.76,0,0,1,638.46,474.46Z"/><path class="cls-3" d="M639,475.45a1.53,1.53,0,0,1-1.09-.46h0l-3.4-3.41a1.48,1.48,0,0,1-.46-1.08,1.5,1.5,0,0,1,.46-1.08l3.4-3.41a1.52,1.52,0,0,1,2.17,0l3.41,3.42a1.5,1.5,0,0,1,.46,1.08,1.52,1.52,0,0,1-.46,1.09l-3.4,3.4A1.53,1.53,0,0,1,639,475.45Zm0-1.52,0,0,3.43-3.43L639,467.07l-3.45,3.41Z"/><path class="cls-7" d="M634.39,442.93l-4,1.6a1,1,0,0,0-.61.74l-1.65,8.78a1,1,0,0,0,1.44,1.07l8.84-4.6a1,1,0,0,0,.41-1.37l-3.2-5.78A1,1,0,0,0,634.39,442.93Z"/><path class="cls-3" d="M629.13,456a1.77,1.77,0,0,1-1-.35,1.73,1.73,0,0,1-.67-1.73l1.65-8.77a1.76,1.76,0,0,1,1.07-1.3l4-1.61h0a1.76,1.76,0,0,1,2.19.78l3.2,5.78a1.76,1.76,0,0,1-.73,2.4l-8.83,4.6A1.83,1.83,0,0,1,629.13,456Zm5.54-12.37-4,1.61a.23.23,0,0,0-.15.18l-1.66,8.78a.26.26,0,0,0,.1.25.25.25,0,0,0,.26,0l8.84-4.6a.4.4,0,0,0,.13-.15.26.26,0,0,0,0-.2L635,443.73a.27.27,0,0,0-.32-.11Z"/><path class="cls-7" d="M643.65,443.51l-3.76,5.69a1,1,0,0,0,.3,1.39l8,5.13a1,1,0,0,0,1.53-1l-1-8.19a1,1,0,0,0-.37-.66l-3.26-2.63A1,1,0,0,0,643.65,443.51Z"/><path class="cls-3" d="M648.72,456.63a1.73,1.73,0,0,1-1-.28l-8-5.12a1.78,1.78,0,0,1-.76-1.11,1.73,1.73,0,0,1,.25-1.33L643,443.1a1.74,1.74,0,0,1,2.56-.4l3.26,2.62a1.72,1.72,0,0,1,.64,1.16l1,8.19a1.73,1.73,0,0,1-.81,1.69A1.76,1.76,0,0,1,648.72,456.63Zm-4.24-12.82h0a.24.24,0,0,0-.17.11h0l-3.75,5.69a.3.3,0,0,0,0,.19.24.24,0,0,0,.11.15l8,5.13a.23.23,0,0,0,.27,0,.23.23,0,0,0,.11-.24l-1-8.19a.22.22,0,0,0-.09-.17l-3.26-2.62A.23.23,0,0,0,644.48,443.81Zm-.83-.3h0Z"/><path class="cls-10" d="M642.11,181.86,626.89,180c-.32,0-.55.23-.4.55l6,14.11a.41.41,0,0,0,.71.08l9.2-12.29A.41.41,0,0,0,642.11,181.86Z"/><path class="cls-3" d="M632.88,195.7h-.18a1.17,1.17,0,0,1-.85-.65l-6-14.15a1.08,1.08,0,0,1,0-1.06,1.2,1.2,0,0,1,1-.54l15.28,1.82a1.11,1.11,0,0,1,.93.6,1.17,1.17,0,0,1-.05,1.2l-9.22,12.32a.27.27,0,0,1-.07.08A1.27,1.27,0,0,1,632.88,195.7Zm-5.46-14.84,5.56,13,8.48-11.33Zm14.69,1.75h0Zm-14.94-2.35v0A0,0,0,0,1,627.17,180.26Z"/><path class="cls-10" d="M643.38,217.93l14.27-8.25a.44.44,0,0,0,.16-.55l-8.25-14.27a.45.45,0,0,0-.55-.16L634.74,203a.45.45,0,0,0-.16.55l8.24,14.27C642.9,218,643.14,218,643.38,217.93Z"/><path class="cls-3" d="M643.12,218.73a1,1,0,0,1-1-.63l-8.22-14.22a.84.84,0,0,1-.06-.14,1.19,1.19,0,0,1,.54-1.47l14.22-8.22.14-.06a1.2,1.2,0,0,1,1.46.53l8.23,14.23.06.14a1.21,1.21,0,0,1-.54,1.47l-14.23,8.22-.13.06A1.61,1.61,0,0,1,643.12,218.73Zm.26-.8h0Zm-8-14.5,7.91,13.67L657,209.2l-7.9-13.67ZM657.27,209l0,0Zm-22.12-5.46,0,0Zm13.76-8.34s0,0,0,0Z"/><circle class="cls-10" cx="633.95" cy="221.89" r="7.21"/><path class="cls-3" d="M634,229.86a8,8,0,1,1,8-8A8,8,0,0,1,634,229.86Zm0-14.43a6.47,6.47,0,1,0,6.46,6.46A6.47,6.47,0,0,0,634,215.43Z"/><polyline class="cls-6" points="472.8 122.3 499.1 107.1 472.8 91.9"/><path class="cls-1" d="M472.8,123.05a.75.75,0,0,1-.65-.37.76.76,0,0,1,.27-1L497.6,107.1,472.42,92.55a.76.76,0,0,1-.27-1,.75.75,0,0,1,1-.27l26.3,15.2a.75.75,0,0,1,0,1.3L473.17,123A.69.69,0,0,1,472.8,123.05Z"/><polyline class="cls-6" points="472.8 406.9 499.1 391.8 472.8 376.6"/><path class="cls-1" d="M472.8,407.65a.74.74,0,0,1-.65-.38.75.75,0,0,1,.28-1L497.6,391.8l-25.18-14.55a.76.76,0,0,1-.27-1,.75.75,0,0,1,1-.27l26.3,15.2a.74.74,0,0,1,.38.65.73.73,0,0,1-.38.65l-26.3,15.1A.69.69,0,0,1,472.8,407.65Z"/><path class="cls-9" d="M613.42,235.54l-17.89,6.27a1,1,0,0,0-.53,1.46l4.34,7.2a1,1,0,0,0,1.46.28l16.58-13.16"/><path class="cls-3" d="M600.2,251.7a1.87,1.87,0,0,1-.34,0,1.81,1.81,0,0,1-1.16-.82l-4.34-7.19a1.75,1.75,0,0,1,.93-2.56l17.88-6.27a.76.76,0,0,1,1,.46.75.75,0,0,1-.46,1l-17.89,6.27a.26.26,0,0,0-.16.15.3.3,0,0,0,0,.22l4.35,7.19a.2.2,0,0,0,.16.11.23.23,0,0,0,.2,0L616.91,237a.77.77,0,0,1,1.06.12.76.76,0,0,1-.13,1.06l-16.58,13.16A1.76,1.76,0,0,1,600.2,251.7Z"/><path class="cls-9" d="M664.47,237.19,680.1,248.1a1,1,0,0,0,1.42-.39l4.27-8.37a1,1,0,0,0-.71-1.44l-17.16-3"/><path class="cls-3" d="M680.63,249a1.79,1.79,0,0,1-.93-.26L664,237.81a.75.75,0,1,1,.86-1.23l15.63,10.9a.18.18,0,0,0,.16,0,.24.24,0,0,0,.16-.12l4.28-8.37a.24.24,0,0,0,0-.22.27.27,0,0,0-.18-.14l-17.16-3a.75.75,0,0,1,.25-1.48l17.17,3a1.75,1.75,0,0,1,1.25,2.52l-4.27,8.36a1.78,1.78,0,0,1-1.1.89A1.82,1.82,0,0,1,680.63,249Z"/></g></g></svg>