<?xml version="1.0" encoding="utf-8"?>
<!-- Generator: Adobe Illustrator 23.0.4, SVG Export Plug-In . SVG Version: 6.00 Build 0)  -->
<svg version="1.1" id="Layer_1" xmlns="http://www.w3.org/2000/svg" xmlns:xlink="http://www.w3.org/1999/xlink" x="0px" y="0px"
	 viewBox="0 0 792 462.5" style="enable-background:new 0 0 792 462.5;" xml:space="preserve">
<style type="text/css">
	.st0{opacity:0.9;}
	.st1{fill:#404041;}
</style>
<g class="st0">
	<path class="st1" d="M24.2,28.9v2.8h3.4v1.1h-3.4v4.8H23v-9.8h4.7v1.1H24.2z"/>
	<path class="st1" d="M30.1,31.5v3.4c0,1,0.2,1.8,1.4,1.8c1.2,0,1.4-0.9,1.4-1.8v-3.4h1.2V35c0,1.7-0.8,2.8-2.6,2.8S29,36.7,29,35
		v-3.5H30.1z"/>
	<path class="st1" d="M37,37.6h-1.2v-5h-0.6v-1.1h0.6v-2.3H37v2.3h1.1v1.1H37V37.6z"/>
	<path class="st1" d="M39.9,31.5v3.4c0,1,0.2,1.8,1.4,1.8s1.4-0.9,1.4-1.8v-3.4h1.2V35c0,1.7-0.8,2.8-2.6,2.8s-2.6-1.1-2.6-2.8v-3.5
		H39.9z"/>
	<path class="st1" d="M46.7,32.5L46.7,32.5c0.3-0.7,0.9-1.2,1.7-1.2c0.3,0,0.7,0.1,1,0.3l-0.5,1.1c-0.2-0.2-0.4-0.2-0.7-0.2
		c-1.3,0-1.4,1.2-1.4,2.2v3h-1.2v-6.1h1.2L46.7,32.5L46.7,32.5z"/>
	<path class="st1" d="M55.7,37.6h-1.2v-0.9l0,0c-0.5,0.7-1.2,1.2-2.1,1.2c-1.9,0-2.9-1.5-2.9-3.3c0-1.7,1.1-3.2,2.9-3.2
		c0.9,0,1.6,0.5,2.1,1.2l0,0v-1h1.2V37.6z M54.6,34.5c0-1.2-0.7-2.2-2-2.2c-1.2,0-1.9,1.1-1.9,2.2c0,1.1,0.7,2.2,1.9,2.2
		C53.9,36.8,54.6,35.7,54.6,34.5z"/>
	<path class="st1" d="M62.8,31.1L62.8,31.1l-1.2,6.5h-1.3l2-10.2l3.4,7.7l3.4-7.7l2,10.2h-1.3l-1.1-6.5l0,0l-2.9,6.7L62.8,31.1z"/>
	<path class="st1" d="M72.8,34.7c0,1,0.7,2,1.8,2c0.9,0,1.4-0.5,1.8-1.2l1,0.6c-0.6,1.1-1.6,1.7-2.8,1.7c-1.9,0-3-1.4-3-3.2
		c0-1.9,1-3.3,3-3.3c1.9,0,2.8,1.4,2.8,3.2v0.2H72.8z M76.2,33.9c-0.1-0.9-0.7-1.5-1.7-1.5c-0.9,0-1.6,0.6-1.7,1.5H76.2z"/>
	<path class="st1" d="M82.9,36.6L82.9,36.6c-0.5,0.7-1.2,1.2-2.1,1.2c-1.9,0-2.9-1.5-2.9-3.3c0-1.7,1.1-3.2,2.9-3.2
		c0.9,0,1.6,0.5,2.1,1.2l0,0v-6.2h1.2v11.3h-1.2V36.6z M83,34.5c0-1.2-0.7-2.2-2-2.2c-1.2,0-1.9,1.1-1.9,2.2c0,1.1,0.7,2.2,1.9,2.2
		C82.3,36.8,83,35.7,83,34.5z"/>
	<path class="st1" d="M87.3,28.7c0,0.4-0.4,0.8-0.8,0.8s-0.8-0.4-0.8-0.8c0-0.5,0.4-0.8,0.8-0.8C86.9,27.9,87.3,28.3,87.3,28.7z
		 M87.1,37.6h-1.2v-6.1h1.2V37.6z"/>
	<path class="st1" d="M90.1,31.5v3.4c0,1,0.2,1.8,1.4,1.8s1.4-0.9,1.4-1.8v-3.4H94V35c0,1.7-0.8,2.8-2.6,2.8s-2.6-1.1-2.6-2.8v-3.5
		H90.1z"/>
	<path class="st1" d="M96.7,32.3L96.7,32.3c0.4-0.5,1-0.9,1.6-0.9c0.8,0,1.4,0.4,1.8,1.1c0.4-0.7,1.1-1.1,1.9-1.1c1.6,0,2,1.2,2,2.6
		v3.6h-1.2v-3.4c0-0.8-0.1-1.8-1.1-1.8c-1.2,0-1.3,1.3-1.3,2.2v3h-1.2v-3.2c0-0.8,0-2-1.1-2c-1.2,0-1.4,1.3-1.4,2.2v3h-1.2v-6.1h1.2
		C96.7,31.5,96.7,32.3,96.7,32.3z"/>
</g>
<g>
	<path class="st1" d="M48.3,80.6l-3,6.6h-3.5l12.6-27.5L67,87.2h-3.5l-3.1-6.6H48.3z M54.3,67l-4.7,10.7H59L54.3,67z"/>
	<path class="st1" d="M70,60.9h3.2c5,0,9.6,1.3,9.6,7.3c0,1.9-1,4.1-2.8,5v0.1c3.1,0.6,5.2,3.6,5.2,6.7c0,5.2-4.5,7.3-9.2,7.3h-6.2
		L70,60.9L70,60.9z M73.2,72.6H74c3.1,0,5.7-0.6,5.7-4.4c0-3.7-2.5-4.3-5.6-4.3h-0.9C73.2,63.8,73.2,72.6,73.2,72.6z M73.2,84.3h2.5
		c3,0,6.2-0.9,6.2-4.7c0-3.7-3.8-4.5-6.7-4.5h-2V84.3z"/>
	<path class="st1" d="M109.2,65.9c-1.9-1.7-4.5-2.6-7-2.6c-5.9,0-10.4,5-10.4,10.7c0,5.8,4.5,10.7,10.3,10.7c2.6,0,5-1,7-2.8V86
		c-2,1.2-4.6,1.8-6.9,1.8c-7.5,0-13.7-6-13.7-13.6c0-7.8,6.2-13.9,14-13.9c2.3,0,4.7,0.6,6.6,1.7L109.2,65.9L109.2,65.9z"/>
	<path class="st1" d="M114,60.9h5.4c8.1,0,14.8,4.2,14.8,13c0,9-6.5,13.3-14.9,13.3H114C114,87.2,114,60.9,114,60.9z M117.3,84.2
		h1.2c6.7,0,12.5-2.5,12.5-10.2s-5.8-10.2-12.5-10.2h-1.2V84.2z"/>
	<path class="st1" d="M138.6,60.9h14.1v3h-10.8v7.3h10.6v3h-10.6v9.9h10.8v3h-14.1C138.6,87.2,138.6,60.9,138.6,60.9z"/>
	<path class="st1" d="M161.2,63.9v7.4h9.2v3h-9.2v12.9h-3.3V60.9h12.8v3H161.2z"/>
	<path class="st1" d="M199.6,74v1c0,7.3-5,12.8-12.5,12.8c-7.3,0-13.3-6.3-13.3-13.7c0-7.5,6.1-13.8,13.7-13.8c4,0,8.2,1.8,10.7,5
		l-2.3,2.2c-1.9-2.6-5-4.3-8.3-4.3c-5.9,0-10.5,4.8-10.5,10.7c0,5.5,4.5,10.7,10.2,10.7c4,0,8.4-3.5,8.6-7.8h-6.8V74H199.6z"/>
	<path class="st1" d="M219.6,71.5V60.9h3.3v26.3h-3.3V74.6h-12.5v12.7h-3.3V60.9h3.3v10.7H219.6z"/>
	<path class="st1" d="M231.9,87.2h-3.3V60.9h3.3V87.2z"/>
	<path class="st1" d="M246,60.9v16.7c0,5-1,10.2-7.2,10.2c-1.6,0-2.8-0.4-4.1-1.2l1.7-2.8c0.7,0.6,1.7,0.9,2.6,0.9
		c3.8,0,3.7-4.4,3.7-7.1V60.9H246z"/>
	<path class="st1" d="M266.2,60.9h4.3l-11.8,11.8l12,14.5h-4.4L256.4,75l-1.3,1.3v11h-3.3V60.9h3.3v11.4L266.2,60.9z"/>
	<path class="st1" d="M277.1,84.2h8v3h-11.3V60.9h3.3V84.2L277.1,84.2z"/>
	<path class="st1" d="M292.8,69.9L292.8,69.9l-3.1,17.4h-3.4l5.4-27.5l9,20.8l9-20.8l5.4,27.5h-3.4l-3-17.4h-0.1l-7.9,17.9
		L292.8,69.9z"/>
	<path class="st1" d="M318.9,59.7l19.7,20.7V60.9h3.3v27.4l-19.7-20.7v19.6h-3.3V59.7z"/>
	<path class="st1" d="M373.4,74.1c0,7.8-6.2,13.7-13.8,13.7c-7.6,0-13.8-5.9-13.8-13.7c0-7.5,6.2-13.7,13.8-13.7
		C367.2,60.3,373.4,66.6,373.4,74.1z M370.2,74.1c0-5.8-4.3-10.7-10.5-10.7s-10.5,4.9-10.5,10.7c0,6,4.8,10.7,10.5,10.7
		C365.4,84.8,370.2,80.1,370.2,74.1z"/>
	<path class="st1" d="M381.1,87.2h-3.3V60.9h3.8c8.1,0,10.7,2.8,10.7,7.6c0,5.5-4.2,7.7-9.2,7.7h-1.9V87.2z M381.1,73.3h1
		c3.3,0,7-0.6,7-4.8c0-4.1-3.9-4.6-7.2-4.6h-0.8L381.1,73.3L381.1,73.3z"/>
	<path class="st1" d="M418,87.8l-2.3-2.3c-2.2,1.5-5,2.3-7.5,2.3c-7.6,0-13.8-5.9-13.8-13.7c0-7.5,6.2-13.7,13.8-13.7
		s13.8,6.2,13.8,13.7c0,3.8-1.6,7.3-4.1,9.7l4,4L418,87.8L418,87.8z M415.6,81.5c2-1.8,3-4.9,3-7.3c0-5.8-4.3-10.7-10.5-10.7
		s-10.5,4.9-10.5,10.7c0,6,4.8,10.7,10.5,10.7c1.6,0,3.7-0.5,5.2-1.5l-6.1-5.9h4L415.6,81.5z"/>
	<path class="st1" d="M442.7,87.2h-4l-7.7-11.1h-1.4v11.1h-3.3V60.9h3.9c2.3,0,4.9,0,7,1.2c2.2,1.3,3.5,3.8,3.5,6.2
		c0,3.8-2.5,6.9-6.3,7.3L442.7,87.2z M429.5,73.4h1c3.3,0,7-0.6,7-4.8c0-4.1-3.9-4.7-7.2-4.7h-0.9L429.5,73.4L429.5,73.4z"/>
	<path class="st1" d="M458.1,65.9c-1-1.7-2.2-2.5-4.2-2.5c-2.1,0-4.4,1.5-4.4,3.8c0,2,2,3.1,3.7,3.8l1.9,0.7
		c3.8,1.5,6.5,3.5,6.5,7.9c0,4.8-3.7,8.2-8.4,8.2c-4.2,0-7.5-3.1-8.2-7.3l3.3-0.7c0,2.9,2.3,5,5,5c2.8,0,4.9-2.4,4.9-5.1
		c0-2.8-2.3-4-4.5-5l-1.8-0.7c-3-1.3-5.7-3-5.7-6.7c0-4.2,3.8-6.8,7.7-6.8c2.9,0,5.3,1.5,6.8,3.9L458.1,65.9z"/>
	<path class="st1" d="M473.3,87.2H470V63.9h-6.2v-3h15.8v3h-6.2L473.3,87.2L473.3,87.2z"/>
	<path class="st1" d="M486.1,60.9v15.5c0,4.3,1.3,8.3,6.3,8.3s6.3-3.9,6.3-8.3V60.9h3.3v16.6c0,5.8-3.6,10.2-9.6,10.2
		s-9.6-4.4-9.6-10.2V60.9H486.1z"/>
	<path class="st1" d="M516.5,80.5l7.8-19.5h3.6l-11.4,27.7L505,61h3.6L516.5,80.5z"/>
	<path class="st1" d="M539.3,79.8l7.4-19.4l7.4,19.4l7.3-18.8h3.6l-10.9,27.4l-7.4-19.3l-7.4,19.3L528.3,61h3.6L539.3,79.8z"/>
	<path class="st1" d="M566.8,60.9h3.8l5.4,9.5l5.7-9.5h3.8l-7.5,12.5l8,13.8h-3.7L576,76.4l-6.4,10.7h-3.7l8.3-13.8L566.8,60.9z"/>
	<path class="st1" d="M586.7,60.9h3.8l6.4,11.2l6.4-11.2h3.8l-8.5,14.9v11.5h-3.3V75.8L586.7,60.9z"/>
	<path class="st1" d="M627,84.2v3h-18.6l13.3-23.3h-11.4v-3h16.8l-13.3,23.3H627z"/>
	<path class="st1" d="M59.5,133.2h-3.1v-2.6h-0.1c-1.3,1.8-3.2,3.1-5.5,3.1c-5,0-7.8-4.1-7.8-8.8c0-4.5,2.9-8.5,7.7-8.5
		c2.4,0,4.3,1.3,5.7,3.2h0.1v-2.8h3.1L59.5,133.2L59.5,133.2z M56.6,125c0-3.2-1.9-5.9-5.3-5.9c-3.2,0-5.1,2.8-5.1,5.9s1.8,6,5.1,6
		C54.7,131,56.6,128.2,56.6,125z"/>
	<path class="st1" d="M64.5,102.9h3.1v16.7h0.1c1.3-1.9,3.2-3.2,5.7-3.2c4.7,0,7.7,4,7.7,8.5c0,4.7-2.8,8.8-7.8,8.8
		c-2.3,0-4.3-1.3-5.5-3.1h-0.1v2.6h-3.1L64.5,102.9L64.5,102.9z M78,125c0-3.2-1.9-5.9-5.3-5.9c-3.2,0-5.1,2.8-5.1,5.9s1.8,6,5.1,6
		C76,131,78,128.2,78,125z"/>
	<path class="st1" d="M97.3,121.5c-1.3-1.5-2.8-2.2-4.7-2.2c-3,0-5.4,2.8-5.4,5.7c0,3.3,2.3,5.8,5.7,5.8c1.8,0,3.3-0.8,4.5-2.2v4
		c-1.5,0.7-2.8,1.1-4.5,1.1c-4.8,0-8.7-3.7-8.7-8.5c0-5,3.9-8.8,8.9-8.8c1.5,0,3,0.4,4.3,1.1L97.3,121.5L97.3,121.5z"/>
	<path class="st1" d="M114,130.6L114,130.6c-1.3,1.8-3.3,3.1-5.6,3.1c-5,0-7.8-4.1-7.8-8.8c0-4.5,2.9-8.5,7.7-8.5
		c2.5,0,4.4,1.3,5.7,3.2h0.1v-16.7h3.1v30.3h-3.1L114,130.6L114,130.6z M114.2,125c0-3.2-1.9-5.9-5.3-5.9c-3.2,0-5.1,2.8-5.1,5.9
		s1.8,6,5.1,6C112.3,131,114.2,128.2,114.2,125z"/>
	<path class="st1" d="M124.3,125.5c0,2.8,1.9,5.4,5,5.4c2.4,0,3.7-1.2,4.9-3.2l2.7,1.5c-1.6,2.8-4.4,4.5-7.5,4.5c-5,0-8-3.8-8-8.5
		c0-5,2.7-8.8,8-8.8c5.2,0,7.6,3.9,7.6,8.7v0.5H124.3z M133.6,123.1c-0.4-2.5-2-4-4.5-4c-2.5,0-4.2,1.7-4.7,4H133.6z"/>
	<path class="st1" d="M148.7,106.1c-0.6-0.3-1.5-0.6-2.1-0.6c-2.2,0-2.2,2.8-2.2,4.4v7h4.3v2.9h-4.3v13.4h-3.2v-13.4h-1.5v-2.9h1.5
		v-7.9c0-3.6,1.2-6.4,5.2-6.4c0.7,0,1.5,0.2,2.2,0.5L148.7,106.1L148.7,106.1z"/>
	<path class="st1" d="M166.6,132.9c0,5.6-1.6,9.6-8,9.6c-4.5,0-7.8-2.8-7.9-7.4h3.1c0,2.9,2,4.6,4.9,4.6c3.9,0,4.7-2.7,4.7-6v-3.1
		h-0.1c-1.3,1.8-3.2,3.1-5.5,3.1c-5,0-7.8-4.1-7.8-8.8c0-4.5,2.9-8.5,7.7-8.5c2.5,0,4.4,1.3,5.7,3.3h0.1v-2.8h3.1L166.6,132.9
		L166.6,132.9z M163.6,125c0-3.2-1.9-5.9-5.3-5.9c-3.2,0-5.1,2.8-5.1,5.9s1.8,6,5.1,6C161.7,131,163.6,128.2,163.6,125z"/>
	<path class="st1" d="M174.9,102.9V119h0.1c1-1.7,2.9-2.7,5-2.7c4.6,0,5.8,3.1,5.8,7.1v9.7h-3.1v-9.4c0-2.8-0.4-4.7-3.6-4.7
		c-4,0-4,3.6-4,6.5v7.5h-3.1v-30.3C171.9,102.9,174.9,102.9,174.9,102.9z"/>
	<path class="st1" d="M195.7,109.4c0,1.2-1,2.1-2.2,2.1s-2.2-0.9-2.2-2.1c0-1.2,1-2.2,2.2-2.2C194.7,107.2,195.7,108.2,195.7,109.4z
		 M195,133.2h-3.1v-16.3h3.1V133.2z"/>
	<path class="st1" d="M205.7,109.4c0,1.2-1,2.1-2.2,2.1c-1.2,0-2.2-0.9-2.2-2.1c0-1.2,1-2.2,2.2-2.2S205.7,108.2,205.7,109.4z
		 M205.1,142.5h-3.1v-25.7h3.1V142.5z"/>
	<path class="st1" d="M214.6,123l6.2-6.2h4.1l-7,6.8l7.7,9.5h-4l-5.8-7.4l-1.1,1.1v6.3h-3.1v-30.3h3.1L214.6,123L214.6,123z"/>
	<path class="st1" d="M231.8,133.2h-3.1v-30.3h3.1V133.2z"/>
	<path class="st1" d="M240.5,118.9L240.5,118.9c1-1.5,2.6-2.6,4.4-2.6c2.1,0,3.7,1.1,4.7,2.9c1-1.7,2.9-2.9,5-2.9
		c4.3,0,5.4,3.3,5.4,7.1v9.7h-3.2v-9.3c0-2.1-0.3-4.8-3-4.8c-3.3,0-3.6,3.5-3.6,6v8h-3.1v-8.5c0-2.1-0.1-5.4-3-5.4
		c-3.3,0-3.7,3.5-3.7,6v8h-3.1v-16.3h3.1L240.5,118.9L240.5,118.9z"/>
	<path class="st1" d="M268.5,119L268.5,119c1-1.7,3-2.7,5-2.7c4.6,0,5.8,3.1,5.8,7.1v9.7h-3.1v-9.4c0-2.8-0.4-4.7-3.6-4.7
		c-4,0-4,3.6-4,6.5v7.5h-3.1v-16.3h3.1V119z"/>
	<path class="st1" d="M300.7,125c0,5-3.9,8.7-8.7,8.7c-4.9,0-8.7-3.8-8.7-8.7c0-5,3.9-8.7,8.7-8.7
		C296.9,116.4,300.7,120.1,300.7,125z M286.4,125c0,3,2.5,5.7,5.6,5.7s5.6-2.6,5.6-5.7c0-3.1-2.5-5.7-5.6-5.7
		C288.9,119.4,286.4,122,286.4,125z"/>
	<path class="st1" d="M307.6,119.6L307.6,119.6c1.4-1.9,3.3-3.2,5.8-3.2c4.7,0,7.7,4,7.7,8.5c0,4.7-2.8,8.8-7.8,8.8
		c-2.3,0-4.3-1.3-5.5-3.1h-0.1v11.9h-3.1v-25.7h3.1L307.6,119.6L307.6,119.6z M317.9,125c0-3.2-1.9-5.9-5.3-5.9
		c-3.2,0-5.1,2.8-5.1,5.9s1.8,6,5.1,6C316.1,131,317.9,128.2,317.9,125z"/>
	<path class="st1" d="M340.6,142.5h-3.1v-11.9h-0.1c-1.3,1.8-3.2,3.1-5.5,3.1c-5,0-7.8-4.1-7.8-8.8c0-4.5,2.9-8.5,7.7-8.5
		c2.5,0,4.4,1.3,5.7,3.2h0.1v-2.8h3.1L340.6,142.5L340.6,142.5z M337.6,125c0-3.2-1.9-5.9-5.3-5.9c-3.2,0-5.1,2.8-5.1,5.9
		s1.8,6,5.1,6C335.7,131,337.6,128.2,337.6,125z"/>
	<path class="st1" d="M349.2,119.5L349.2,119.5c0.8-1.9,2.5-3.1,4.6-3.1c0.9,0,1.8,0.3,2.6,0.8l-1.5,2.8c-0.6-0.5-1.2-0.6-1.9-0.6
		c-3.4,0-3.8,3.1-3.8,5.8v8h-3.1v-16.3h3.1L349.2,119.5L349.2,119.5z"/>
	<path class="st1" d="M365.7,120.6c-0.4-0.8-1.2-1.5-2.1-1.5c-0.8,0-1.7,0.7-1.7,1.6c0,1.5,1.9,2,3.8,2.9c1.8,0.9,3.8,2,3.8,4.7
		c0,3.1-2.6,5.4-5.6,5.4c-2.4,0-4.8-1.4-5.7-3.7l2.7-1.2c0.6,1.2,1.5,2.1,2.9,2.1c1.3,0,2.5-0.9,2.5-2.3c0-0.8-0.5-1.3-1.2-1.7
		l-3-1.7c-1.8-1-3.1-1.9-3.1-4.1c0-2.7,2.2-4.8,4.8-4.8c2,0,3.6,1.1,4.5,2.8L365.7,120.6z"/>
	<path class="st1" d="M377.4,133.2h-3.1v-13.4h-1.7v-2.9h1.7v-6.2h3.1v6.2h3v2.9h-3V133.2z"/>
	<path class="st1" d="M386.3,116.8v9c0,2.6,0.6,5,3.8,5s3.8-2.3,3.8-5v-9h3.1v9.4c0,4.5-2.1,7.5-6.9,7.5c-4.8,0-6.9-3-6.9-7.5v-9.4
		C383.2,116.8,386.3,116.8,386.3,116.8z"/>
	<path class="st1" d="M407.9,127l4.7-10.2h3.5l-8.3,16.9l-8.2-16.9h3.5L407.9,127z"/>
	<path class="st1" d="M424.6,127.2l4.8-11.3l4.8,11.3l4.8-10.4h3.6l-8.3,16.9l-4.8-10.9l-4.8,10.9l-8.3-16.9h3.6L424.6,127.2z"/>
	<path class="st1" d="M444,116.8h3.7l3.9,5.2l4.2-5.2h3.8l-6,7.4l7,8.9h-3.7l-5.4-6.6l-5.2,6.6h-3.8l7.3-8.9L444,116.8z"/>
	<path class="st1" d="M460.8,116.8h3.7l5.5,10.4l5.1-10.4h3.5l-13.2,25.7h-3.6l6.4-12.1L460.8,116.8z"/>
	<path class="st1" d="M496,130.2v2.9h-16.7l11-13.4h-9.2v-2.9h15.3l-11,13.4H496z"/>
	<path class="st1" d="M46.3,157.6l1.8-3H54v26.3h-3.1v-23.2H46.3z"/>
	<path class="st1" d="M81.9,177.9v3h-17l11.5-14.1c1.1-1.3,2.3-2.9,2.3-4.7c0-2.8-2.5-5-5.1-5c-2.7,0-4.9,2.2-5,4.8h-3.3
		c0.6-4.7,3.6-7.8,8.4-7.8c4.5,0,8.3,3.3,8.3,7.9c0,1.9-0.7,3.9-1.9,5.4l-8.6,10.6L81.9,177.9L81.9,177.9z"/>
	<path class="st1" d="M94.2,165.7c2.8,0,5.1-1,5.1-4.2c0-2.7-1.9-4.5-4.6-4.5c-2.4,0-4,1.5-4.3,3.8h-3.2c0.6-4.3,3.4-6.6,7.7-6.6
		c4.2,0,7.6,2.7,7.6,7.1c0,2.6-1.1,4.7-3.3,6c2.6,1.2,3.8,3.7,3.8,6.5c0,5-3.7,7.9-8.4,7.9c-4.1,0-7.8-2.8-8-7.1h3.1
		c0.3,2.6,2.6,4.2,5,4.2c2.9,0,5-2.3,5-5.1c0-3.3-2.3-5.3-5.5-5L94.2,165.7L94.2,165.7z"/>
	<path class="st1" d="M125.4,174.2v2.8h-3v3.9h-3.1V177h-12.9l16.2-23.6v20.8L125.4,174.2L125.4,174.2z M119.2,163.4L119.2,163.4
		l-7.4,10.8h7.4V163.4z"/>
	<path class="st1" d="M137.5,157.6l-1.7,5.4l1.8-0.1c5,0,8.4,4.3,8.4,9.2c0,5.5-4.3,9.4-9.7,9.4c-3.2,0-6.5-1.7-8-4.6l2.5-2.3
		c0.8,2.2,3.5,3.9,5.8,3.9c3.6,0,6.3-2.9,6.3-6.4c0-3.4-2.9-6.2-6.2-6.2c-1.8,0-3.8,0.9-5,2.3h-0.6l4-13.5h10.6v3L137.5,157.6
		L137.5,157.6z"/>
	<path class="st1" d="M164.2,155.6l-7,9.5l0.1,0.1c0.7-0.4,1.7-0.6,2.6-0.6c4.3,0,7.6,4,7.6,8.3c0,4.8-3.9,8.6-8.7,8.6
		c-4.5,0-8.7-3.8-8.7-8.4c0-2.7,1.3-4.9,2.8-7l9-12L164.2,155.6z M164.3,173.2c0-3.3-2.8-5.7-5.6-5.7s-5.6,2.6-5.6,5.5
		c0,3,2.6,5.5,5.6,5.5C161.7,178.5,164.3,176.1,164.3,173.2z"/>
	<path class="st1" d="M171.5,157.6v-3h18.9l-16.3,26.9l-2.6-1.6l13.7-22.3H171.5z"/>
	<path class="st1" d="M197.2,167.2c-2.2-1.2-3.5-3.3-3.5-5.9c0-4.3,3.3-7.3,7.5-7.3c4.2,0,7.5,3,7.5,7.3c0,2.6-1.3,4.7-3.5,5.9
		c2.8,0.9,4.1,3.5,4.1,6.3c0,4.9-3.8,7.9-8.3,7.9c-4.5,0-8.3-3-8.3-7.9C193.1,170.7,194.5,168.2,197.2,167.2z M196.2,173.6
		c0,2.7,2.5,5,5,5s5-2.3,5-5c0-2.8-2.5-5-5-5S196.2,170.8,196.2,173.6z M196.9,161.3c0,2.1,2.3,4.5,4.5,4.5s4.5-2.4,4.5-4.5
		c0-2.5-2.1-4.5-4.5-4.5C199,156.8,196.9,158.9,196.9,161.3z"/>
	<path class="st1" d="M217.6,179.8l7-9.5l-0.1-0.1c-0.7,0.4-1.7,0.5-2.6,0.5c-4.3,0-7.6-3.9-7.6-8.1c0-4.8,3.9-8.6,8.7-8.6
		c4.5,0,8.7,3.8,8.7,8.4c0,2.6-1.3,4.9-2.8,7l-9,12L217.6,179.8z M228.6,162.4c0-2.8-2.5-5.5-5.4-5.5c-3.1,0-5.8,2.5-5.8,5.5
		c0,3.1,2.8,5.5,5.6,5.5C226.4,168,228.6,165.4,228.6,162.4z"/>
	<path class="st1" d="M234.8,167.8c0-5.4,2.4-13.7,9.2-13.7s9.2,8.3,9.2,13.7c0,5.4-2.4,13.7-9.2,13.7S234.8,173.1,234.8,167.8z
		 M237.9,167.7c0,3.7,1.3,10.8,6.1,10.8s6.1-7.2,6.1-10.8s-1.3-10.9-6.1-10.9S237.9,164.1,237.9,167.7z"/>
</g>
<g>
	<path class="st1" d="M51,297.7l-1.8,4.6h-7.3L52,276h7.4l9.9,26.3h-7.3l-1.7-4.6H51z M55.8,284.1L55.8,284.1l-2.9,8.4h5.7
		L55.8,284.1z"/>
	<path class="st1" d="M72.7,302.3V276h9.7c4.7,0,7.8,1.8,7.8,6.8c0,2.4-0.7,4.3-2.9,5.4v0.1c3.8,0.5,5.4,3,5.4,6.7
		c0,5.5-4.7,7.3-9.5,7.3L72.7,302.3L72.7,302.3z M79.5,286.3h0.7c1.8,0,3.7-0.3,3.7-2.6c0-2.4-2.1-2.6-3.9-2.6h-0.5
		C79.5,281.2,79.5,286.3,79.5,286.3z M79.5,297h0.9c2,0,5.4,0.1,5.4-2.8c0-3.2-3.4-2.8-5.6-2.8h-0.7C79.5,291.4,79.5,297,79.5,297z"
		/>
	<path class="st1" d="M116.3,284.7c-1.4-1.9-3.7-2.9-6-2.9c-4.2,0-7,3.2-7,7.3c0,4.1,2.8,7.2,7.2,7.2c2.2,0,4.5-1.1,5.9-2.8v8.2
		c-2.3,0.7-3.9,1.2-6.1,1.2c-3.7,0-7.2-1.4-9.9-3.9c-2.9-2.6-4.2-6.1-4.2-9.9c0-3.6,1.4-7.1,3.9-9.6c2.6-2.7,6.3-4.2,10-4.2
		c2.2,0,4.2,0.5,6.2,1.3C116.3,276.5,116.3,284.7,116.3,284.7z"/>
	<path class="st1" d="M121.6,275.9h9.7c7.3,0,13.4,5.8,13.4,13.1s-6.1,13.1-13.4,13.1h-9.7V275.9z M128.5,296.5h1.6
		c4,0,7.5-2.2,7.5-7.3c0-4.7-3.1-7.3-7.5-7.3h-1.6V296.5z"/>
	<path class="st1" d="M155.8,281.7v4.4h7.7v5.8h-7.7v4.5h8.2v5.8h-15v-26.3h15v5.8L155.8,281.7L155.8,281.7z"/>
	<path class="st1" d="M176.2,281.7v4.4h7.5v5.8h-7.5v10.3h-6.8v-26.3h15.1v5.8L176.2,281.7L176.2,281.7z"/>
	<path class="st1" d="M215.6,287.6c-0.1,3.9-0.4,7.2-2.7,10.4c-2.6,3.6-6.4,5.1-10.8,5.1c-8.3,0-14-5.6-14-13.9
		c0-8.5,5.8-14.1,14.2-14.1c5.4,0,9.5,2.5,11.8,7.3l-6.5,2.8c-0.9-2.5-2.9-4.2-5.7-4.2c-4.5,0-6.8,4.3-6.8,8.3c0,4,2.5,8.3,7,8.3
		c2.9,0,5.2-1.6,5.5-4.6H202v-5.4L215.6,287.6L215.6,287.6z"/>
	<path class="st1" d="M236.6,286.1v-10.2h6.8v26.3h-6.8v-10.7h-9.9v10.7h-6.8v-26.3h6.8v10.2H236.6z"/>
	<path class="st1" d="M255.9,302.3h-6.8V276h6.8V302.3z"/>
	<path class="st1" d="M274.3,275.9v17.7c0,5.5-2.9,9.3-8.7,9.3c-2.9,0-5.2-1.5-6.8-3.9l3.9-4.1c0.7,1,1.8,2.2,2.8,2.2
		c2,0,1.9-2.4,1.9-3.9v-17.4L274.3,275.9L274.3,275.9z"/>
	<path class="st1" d="M294.9,275.9h8.4l-10.5,12.5l11.4,13.9h-8.9l-8.8-11.4h-0.1v11.4h-6.7V276h6.8v10.8h0.1L294.9,275.9z"/>
	<path class="st1" d="M314.2,296.5h8.2v5.8h-15.1V276h6.8L314.2,296.5L314.2,296.5z"/>
	<path class="st1" d="M328.7,275.9h6.7l5.3,14l5.7-14h6.8l3.9,26.3h-6.8l-1.9-15.1h-0.1l-6.3,15.1h-2.8l-6.1-15.1h-0.1l-2.2,15.1
		h-6.8L328.7,275.9z"/>
	<path class="st1" d="M361.2,275.9h6.8l12.5,16.1h0.1v-16.1h6.8v26.3h-6.8l-12.5-16.1H368v16.2h-6.8V275.9z"/>
	<path class="st1" d="M420.9,288.6c0,8.5-6.1,14.5-14.5,14.5s-14.5-6-14.5-14.5c0-8,7-13.5,14.5-13.5
		C413.9,275.1,420.9,280.7,420.9,288.6z M398.9,288.7c0,4.5,3.3,7.8,7.4,7.8c4.1,0,7.4-3.3,7.4-7.8c0-3.7-3.3-7-7.4-7
		C402.2,281.7,398.9,285,398.9,288.7z"/>
	<path class="st1" d="M425.2,275.9h10.5c5.7,0,9.5,2.6,9.5,8.6c0,6.2-3.3,8.9-9.3,8.9h-3.9v8.7h-6.8L425.2,275.9L425.2,275.9z
		 M432,288h1.2c2.5,0,5,0,5-3.2c0-3.3-2.3-3.3-5-3.3H432V288z"/>
	<path class="st1" d="M472,303.9l-2.1-2.5c-2,1.2-4.4,1.7-7.3,1.7c-8.4,0-14.5-6-14.5-14.5c0-8,7-13.5,14.5-13.5
		c8.2,0,14.5,5.5,14.5,14c0,3.5-1.2,6.5-3.4,9.3l4.4,4.5L472,303.9z M468.8,293.1c0.8-1.1,1.2-2.6,1.2-3.9c0-3.9-3.3-7.5-7.4-7.5
		c-4,0-7.4,3.3-7.4,7c0,4.5,3.4,7.8,7.4,7.8c0.7,0,1.4-0.1,2.1-0.4l-4.2-4.2l6.4-0.8L468.8,293.1z"/>
	<path class="st1" d="M503.5,302.3h-8.5l-6.4-10.1h-0.1v10.1h-6.8V276h10.2c5.2,0,9.2,2.5,9.2,8.1c0,3.7-2,6.8-5.8,7.4L503.5,302.3z
		 M488.4,287.8h0.6c2.2,0,4.8-0.5,4.8-3.3s-2.5-3.3-4.8-3.3h-0.6V287.8z"/>
	<path class="st1" d="M520.9,282.7c-1.3-1-2.8-1.7-4.5-1.7c-1.3,0-2.9,0.7-2.9,2.2c0,1.6,1.8,2.1,3,2.5l1.7,0.6
		c3.7,1.1,6.5,2.9,6.5,7.2c0,2.6-0.6,5.3-2.8,7.1c-2,1.7-4.8,2.5-7.4,2.5c-3.3,0-6.5-1.1-9.3-3l2.9-5.5c1.7,1.5,3.8,2.8,6.1,2.8
		c1.6,0,3.3-0.8,3.3-2.7c0-1.9-2.7-2.6-4.1-3c-4.3-1.2-7.2-2.3-7.2-7.4c0-5.3,3.8-8.8,9.1-8.8c2.7,0,5.9,0.8,8.3,2.2L520.9,282.7z"
		/>
	<path class="st1" d="M539.5,302.3h-6.8v-20.5h-5.7V276h18.1v5.8h-5.7L539.5,302.3L539.5,302.3z"/>
	<path class="st1" d="M571.6,275.9v14.8c0,3.4-0.2,6.7-2.8,9.3c-2.2,2.2-5.7,2.9-8.7,2.9s-6.5-0.7-8.7-2.9c-2.6-2.6-2.8-5.9-2.8-9.3
		v-14.8h6.8v13.9c0,3.4,0.3,7.2,4.7,7.2s4.7-3.8,4.7-7.2v-13.9H571.6z"/>
	<path class="st1" d="M588.1,291.9l6.4-16h7.4l-11.2,26.3h-5.3l-11-26.3h7.4L588.1,291.9z"/>
	<path class="st1" d="M613.7,292.9L613.7,292.9l5.6-17h5.4l5.1,17h0.1l5-17h7.2l-8.4,26.3h-7l-4.6-15.2H622l-5.1,15.2h-7l-7.8-26.3
		h7.2L613.7,292.9z"/>
	<path class="st1" d="M644.3,275.9h8.4l4,6.8l4-6.8h8.4l-8.4,12.2l9.7,14h-8.3l-5.5-8.5l-6.1,8.5h-8.3l10.3-14L644.3,275.9z"/>
	<path class="st1" d="M670.7,275.9h8.2l5,7.2l5-7.2h8.2l-9.7,13.7v12.7h-6.8v-12.7L670.7,275.9z"/>
	<path class="st1" d="M720.3,296.5v5.8h-22.5l12.5-20.5H700V276h21.8l-12.4,20.5H720.3z"/>
	<path class="st1" d="M63.7,348.2h-6.3v-2h-0.1c-1.1,1.7-3.3,2.6-5.4,2.6c-5.3,0-9-4.4-9-9.5s3.7-9.5,9-9.5c2,0,4.2,0.7,5.5,2.3
		v-1.7h6.3V348.2z M49.4,339.2c0,2.3,1.5,4,4,4s4-1.7,4-4c0-2.2-1.5-4-4-4C50.9,335.1,49.4,337.1,49.4,339.2z"/>
	<path class="st1" d="M68.9,319.2h6.3V332c1.4-1.6,3.5-2.3,5.5-2.3c5.3,0,9,4.4,9,9.5s-3.7,9.5-9,9.5c-2.1,0-4.2-0.8-5.4-2.6h-0.1v2
		h-6.3C68.9,348.3,68.9,319.2,68.9,319.2z M75,339.2c0,2.3,1.5,4,4,4s4-1.7,4-4c0-2.2-1.5-4-4-4S75,337.1,75,339.2z"/>
	<path class="st1" d="M106.9,336.1c-0.9-0.7-2-1.3-3.3-1.3c-2.5,0-4.3,1.9-4.3,4.3c0,2.6,1.8,4.4,4.5,4.4c1.1,0,2.3-0.5,3.2-1.2v5.4
		c-1.4,0.7-2.9,1-4.5,1c-5.3,0-9.7-3.9-9.7-9.4c0-5.8,4.4-9.7,10-9.7c1.5,0,2.9,0.4,4.2,1L106.9,336.1L106.9,336.1z"/>
	<path class="st1" d="M125.4,346.2L125.4,346.2c-1.2,1.7-3.4,2.6-5.5,2.6c-5.3,0-9-4.4-9-9.5s3.7-9.5,9-9.5c2,0,4.2,0.7,5.5,2.3
		v-12.8h6.3v28.9h-6.3V346.2z M117.5,339.2c0,2.3,1.5,4,4,4s4-1.7,4-4c0-2.2-1.5-4-4-4S117.5,337.1,117.5,339.2z"/>
	<path class="st1" d="M155.4,340.3H142c0,2.6,1.4,3.9,3.9,3.9c1.4,0,2.3-0.5,3-1.7h6.1c-0.5,2.1-1.7,3.7-3.4,4.7
		c-1.7,1-3.7,1.5-5.7,1.5c-6,0-10.4-3.3-10.4-9.5c0-6,4-9.5,9.9-9.5c6.2,0,9.8,3.9,9.8,9.9L155.4,340.3L155.4,340.3z M149.5,336.6
		c-0.3-1.7-1.9-2.8-3.6-2.8c-1.8,0-3.4,1-3.8,2.8H149.5z"/>
	<path class="st1" d="M166.4,348.2h-6.3v-12.7h-2.2v-5.2h2.2V328c0-2.5,0.1-4.3,1.8-6.2c1.6-1.8,3.9-2.8,6.2-2.8
		c1,0,1.8,0.2,2.8,0.6v5.5c-0.7-0.3-1.4-0.6-2.2-0.6c-1.7,0-2.2,1-2.2,3v2.9h4.4v5.2h-4.4L166.4,348.2L166.4,348.2z"/>
	<path class="st1" d="M193.8,346.4c0,7.6-3.8,10.7-10.4,10.7c-4.1,0-9.6-2.1-10.2-6.8h7.2c0.2,0.6,0.6,1.1,1.2,1.4
		c0.6,0.3,1.2,0.5,1.8,0.5c3.4,0,4-2.2,4-5.1v-0.8c-1.7,1.7-3.3,2.5-5.7,2.5c-5.2,0-8.8-3.9-8.8-9.2s3.7-9.7,9.2-9.7
		c2.1,0,4,0.7,5.2,2.5h0.1v-1.9h6.3L193.8,346.4L193.8,346.4z M179.4,339.1c0,2.3,1.5,4,4,4s4-1.7,4-4c0-2.2-1.5-4-4-4
		S179.4,336.9,179.4,339.1z"/>
	<path class="st1" d="M205.2,319.2v13.3h0.1c1.5-1.9,3.2-2.8,5.7-2.8c4.5,0,6.7,3,6.7,7.5v10.9h-6.3v-9.2c0-2.1-0.3-4.2-2.8-4.2
		c-2.5,0-3.3,2.2-3.3,4.2v9.2h-6.3v-28.9H205.2z"/>
	<path class="st1" d="M229.8,323.4c0,1.9-1.6,3.6-3.6,3.6c-1.9,0-3.6-1.6-3.6-3.6c0-1.9,1.6-3.6,3.6-3.6
		C228.2,319.8,229.8,321.5,229.8,323.4z M229.4,348.2H223v-17.9h6.3V348.2z"/>
	<path class="st1" d="M241.5,323.4c0,1.9-1.6,3.6-3.6,3.6c-1.9,0-3.6-1.6-3.6-3.6c0-1.9,1.6-3.6,3.6-3.6
		C239.9,319.8,241.5,321.5,241.5,323.4z M241.1,357.1h-6.3v-26.8h6.3V357.1z"/>
	<path class="st1" d="M252.8,336.7l6.6-6.4h8.7l-9,8.3l9.5,9.6h-8.9l-7-7.3v7.3h-6.3v-29h6.3V336.7z"/>
	<path class="st1" d="M278,348.2h-6.3v-29h6.3V348.2z"/>
	<path class="st1" d="M289.6,332.5L289.6,332.5c1.6-2,3.4-2.8,5.7-2.8c2.6,0,4.8,1,6.1,3.4c1.2-2.2,3.7-3.4,6.1-3.4
		c4.5,0,6.1,2.9,6.1,7.1v11.4h-6.2v-8.5c0-1.8,0.1-4.9-2.6-4.9c-2.9,0-3,2.8-3,4.9v8.5h-6.3v-8.5c0-2,0-5-2.8-5s-2.8,3-2.8,5v8.5
		h-6.3v-17.9h6.3L289.6,332.5L289.6,332.5z"/>
	<path class="st1" d="M325.3,332.6L325.3,332.6c1.6-2.2,3.3-2.9,5.8-2.9c4.8,0,6.7,3,6.7,7.4v11h-6.3v-8.7c0-1.7,0.3-4.7-2.8-4.7
		c-2.6,0-3.3,1.9-3.3,4.1v9.3H319v-17.9h6.3L325.3,332.6L325.3,332.6z"/>
	<path class="st1" d="M363.4,339.2c0,6.1-5,9.5-10.7,9.5s-10.7-3.4-10.7-9.5c0-6.1,5-9.5,10.7-9.5S363.4,333.1,363.4,339.2z
		 M348.6,339.2c0,2.3,1.5,4,4,4c2.6,0,4-1.7,4-4c0-2.2-1.5-4-4-4C350,335.1,348.6,337.1,348.6,339.2z"/>
	<path class="st1" d="M373.5,332.3L373.5,332.3c1.2-1.7,3.4-2.6,5.5-2.6c5.3,0,9,4.5,9,9.5c0,5.1-3.7,9.5-9,9.5
		c-2,0-4.2-0.7-5.5-2.3v10.7h-6.3v-26.8h6.3V332.3z M373.4,339.2c0,2.3,1.5,4,4,4c2.6,0,4-1.7,4-4c0-2.2-1.5-4-4-4
		C374.8,335.1,373.4,337.1,373.4,339.2z"/>
	<path class="st1" d="M412.2,357.1h-6.3v-10.7c-1.3,1.6-3.5,2.3-5.5,2.3c-5.3,0-9-4.3-9-9.5c0-5,3.8-9.5,9-9.5
		c2.1,0,4.3,0.8,5.4,2.6h0.1v-2h6.3V357.1z M397.9,339.2c0,2.3,1.5,4,4,4c2.6,0,4-1.7,4-4c0-2.2-1.5-4-4-4
		C399.3,335.1,397.9,337.1,397.9,339.2z"/>
	<path class="st1" d="M423.7,333.2L423.7,333.2c1.3-2.2,3.4-3.2,5.9-3.2h1.2v6.1c-0.8-0.5-1.7-0.6-2.7-0.6c-3.5,0-4.4,2.3-4.4,5.4
		v7.3h-6.3v-17.9h6.3V333.2z"/>
	<path class="st1" d="M446.1,334.9c-1-0.6-2.3-0.8-3.4-0.8c-0.7,0-2,0.3-2,1.2c0,1.2,2,1.4,2.8,1.6c2.9,0.6,5.2,2,5.2,5.3
		c0,4.7-4.3,6.7-8.4,6.7c-2.6,0-5-0.7-7.3-2l2.3-4.4c1.3,0.9,3.5,1.8,5,1.8c0.8,0,2-0.4,2-1.4c0-1.4-2-1.5-3.9-2
		c-2-0.6-3.9-1.5-3.9-4.7c0-4.4,3.9-6.3,7.9-6.3c2,0,4,0.3,5.9,1.2L446.1,334.9z"/>
	<path class="st1" d="M460.2,348.2h-6.3v-12.7h-2v-5.2h2v-5.4h6.3v5.4h3.6v5.2h-3.6V348.2z"/>
	<path class="st1" d="M473.3,330.3v9.5c0,2.3,0.6,3.9,3.2,3.9c2.7,0,3.2-1.6,3.2-3.9v-9.5h6.3V341c0,5.9-4.1,7.7-9.5,7.7
		c-5.4,0-9.5-1.8-9.5-7.7v-10.7H473.3z"/>
	<path class="st1" d="M500,339.5l4.2-9.2h7.2l-9.4,17.9h-4l-9.4-17.9h7.2L500,339.5z"/>
	<path class="st1" d="M522.9,339.9l4.5-9.7h3.8l4.5,9.7l4.5-9.7h7l-9.4,17.9h-4.1l-4.4-9.8l-4.4,9.8h-4.1l-9.4-17.9h7.1L522.9,339.9
		z"/>
	<path class="st1" d="M549,330.3h8.1l3.2,3.7l3.2-3.7h8.2l-7.4,8.2l8.9,9.7h-8.4l-4.6-5.3l-4.6,5.3h-8.4l8.9-9.7L549,330.3z"/>
	<path class="st1" d="M573.3,330.3h7.3l4.8,9.2l4.7-9.2h7.3l-14.3,26.8h-7.2l6.1-11.4L573.3,330.3z"/>
	<path class="st1" d="M616.2,342.9v5.2H598l8.4-12.7h-7.3v-5.2h17.9l-8.4,12.7H616.2z"/>
	<path class="st1" d="M47.7,375.4v-5.8h10.7v26.3h-6.8v-20.5L47.7,375.4L47.7,375.4z"/>
	<path class="st1" d="M89.5,390.1v5.8H68.3l10.7-11.7c1.6-1.7,3-4,3-6.4c0-1.7-1.2-3.4-3-3.4s-2.8,1.5-2.8,3.2c0,0.4,0,0.7,0.1,1.1
		h-7.5c0.2-6.1,4-10.1,10.3-10.1c5.5,0,10.2,3.7,10.2,9.4c0,3.8-1.6,6-4.2,8.4l-4,3.8L89.5,390.1L89.5,390.1z"/>
	<path class="st1" d="M94.8,377.2c0.3-2.8,1.4-4.9,3-6.3s4-2.3,6.7-2.3c4.7,0,8.4,2.8,8.4,7.6c0,2.1-0.8,4.3-2.8,5.4
		c2.8,0.7,4.3,3.9,4.3,6.6c0,5.8-5,8.7-10.2,8.7c-3,0-5.7-0.8-7.8-2.9c-1.6-1.6-3-4.3-3-6.6h7c0,2.1,1.5,3.8,3.7,3.8
		c2.1,0,3.7-1.4,3.7-3.5c0-2-1.7-3.5-3.7-3.5c-0.5,0-0.8,0.1-1.2,0.2v-4.6h0.7c1.7,0,3-1.1,3-2.9c0-1.6-1.2-2.7-2.7-2.7
		c-1.7,0-2.8,1.3-2.8,3H94.8z"/>
	<path class="st1" d="M140.1,385.2v5.2h-3.2v5.4h-6.3v-5.4h-12.8v-4.3l10.2-16.5h9v15.6H140.1z M130.6,375.1L130.6,375.1l-6.2,10.1
		h6.2V375.1z"/>
	<path class="st1" d="M152.9,375.4l-0.5,3l2.2-0.2c5.4-0.5,9.3,3.9,9.3,9.5c0,2.8-1.2,5.3-3.4,7.2c-2.1,1.7-5,2.2-7.7,2.2
		c-3,0-6.1-0.7-8.5-2.4l1-6.4c2,1.8,4.6,3,7.3,3c2.2,0,4.2-1.6,4.2-3.9c0-3.2-3-4.5-5.8-4.5c-1.7,0-3.5,0.4-5,1.1l2.3-14.2H162v5.8
		h-9.1V375.4z"/>
	<path class="st1" d="M185.9,369.6l-7.4,8.9l0.1,0.1c1.2-0.6,2.3-0.8,3.7-0.8c5.1,0,8.4,4.4,8.4,9.3c0,6.4-5.3,9.9-11.3,9.9
		c-2.6,0-5.5-0.6-7.5-2.3c-2.1-1.7-3.5-4.5-3.5-7.3c0-3.8,1.9-7.5,4.2-10.5l5.7-7.4L185.9,369.6L185.9,369.6z M183.5,387.2
		c0-2.4-1.8-4.3-4.2-4.3c-2.4,0-4.3,1.9-4.3,4.3c0,2.4,1.9,4.3,4.3,4.3C181.6,391.6,183.5,389.6,183.5,387.2z"/>
	<path class="st1" d="M195,375.4v-5.8h21.6l-15.1,26.3h-7.5l12-20.5L195,375.4L195,375.4z"/>
	<path class="st1" d="M238.6,376.1c0,2.8-1.7,5.1-4.1,6v0.1c3.1,1,5.2,3.5,5.2,6.9c0,5.4-5.5,8-10,8s-10-2.5-10-8
		c0-3.5,2.1-5.9,5.2-6.9v-0.1c-2.4-0.8-4.1-3.2-4.1-6c0-5,4.5-7.5,9-7.5C234.1,368.6,238.6,371,238.6,376.1z M226.4,388.1
		c0,1.7,1.4,3.2,3.1,3.2c1.7,0,3.1-1.5,3.1-3.2c0-1.8-1.4-3.3-3.1-3.3C227.8,384.8,226.4,386.3,226.4,388.1z M226.7,376.3
		c0,1.7,1.3,2.9,2.9,2.9c1.6,0,2.9-1.3,2.9-2.9c0-1.7-1.3-2.9-2.9-2.9C228,373.3,226.7,374.6,226.7,376.3z"/>
	<path class="st1" d="M248.2,395.9l7.5-8.9l-0.1-0.1c-1.2,0.6-2.3,0.8-3.7,0.8c-5.1,0-8.4-4.4-8.4-9.3c0-6.4,5.3-9.9,11.3-9.9
		c2.6,0,5.5,0.6,7.5,2.3c2.1,1.7,3.5,4.5,3.5,7.3c0,3.8-1.9,7.4-4.2,10.5l-5.6,7.3H248.2L248.2,395.9z M250.6,378.3
		c0,2.4,1.8,4.3,4.2,4.3c2.4,0,4.3-1.9,4.3-4.3c0-2.4-1.9-4.3-4.3-4.3C252.4,374,250.6,375.9,250.6,378.3z"/>
	<path class="st1" d="M290.9,382.8c0,6.8-3.3,14.2-11.2,14.2c-7.8,0-11.2-7.3-11.2-14.2c0-6.9,3.3-14.2,11.2-14.2
		S290.9,375.9,290.9,382.8z M275.4,382.7c0,2.6,0.8,8.2,4.3,8.2s4.3-5.7,4.3-8.2c0-2.5-0.8-8.2-4.3-8.2S275.4,380.1,275.4,382.7z"/>
</g>
<title>Asset 7</title>
<g class="st0">
	<path class="st1" d="M24.2,244.1v2.8h3.4v1.1h-3.4v4.8H23V243h4.7v1.1H24.2z"/>
	<path class="st1" d="M30.1,246.7v3.4c0,1,0.2,1.8,1.4,1.8c1.2,0,1.4-0.9,1.4-1.8v-3.4h1.2v3.5c0,1.7-0.8,2.8-2.6,2.8
		s-2.6-1.1-2.6-2.8v-3.5H30.1z"/>
	<path class="st1" d="M37,252.8h-1.2v-5h-0.6v-1.1h0.6v-2.3H37v2.3h1.1v1.1H37V252.8z"/>
	<path class="st1" d="M39.9,246.7v3.4c0,1,0.2,1.8,1.4,1.8s1.4-0.9,1.4-1.8v-3.4h1.2v3.5c0,1.7-0.8,2.8-2.6,2.8s-2.6-1.1-2.6-2.8
		v-3.5H39.9z"/>
	<path class="st1" d="M46.7,247.7L46.7,247.7c0.3-0.7,0.9-1.2,1.7-1.2c0.3,0,0.7,0.1,1,0.3l-0.5,1.1c-0.2-0.2-0.4-0.2-0.7-0.2
		c-1.3,0-1.4,1.2-1.4,2.2v3h-1.2v-6.1h1.2L46.7,247.7L46.7,247.7z"/>
	<path class="st1" d="M55.7,252.8h-1.2v-0.9l0,0c-0.5,0.7-1.2,1.2-2.1,1.2c-1.9,0-2.9-1.5-2.9-3.3c0-1.7,1.1-3.2,2.9-3.2
		c0.9,0,1.6,0.5,2.1,1.2l0,0v-1h1.2V252.8z M54.6,249.7c0-1.2-0.7-2.2-2-2.2c-1.2,0-1.9,1.1-1.9,2.2c0,1.1,0.7,2.2,1.9,2.2
		C53.9,251.9,54.6,250.9,54.6,249.7z"/>
	<path class="st1" d="M61,243h1.2c1.8,0,3.6,0.5,3.6,2.7c0,0.7-0.4,1.5-1.1,1.9l0,0c1.2,0.2,2,1.3,2,2.5c0,2-1.7,2.7-3.4,2.7H61V243
		z M62.2,247.3h0.3c1.2,0,2.1-0.2,2.1-1.6c0-1.4-0.9-1.6-2.1-1.6h-0.3V247.3z M62.2,251.7h0.9c1.1,0,2.3-0.3,2.3-1.7
		s-1.4-1.7-2.5-1.7h-0.8L62.2,251.7L62.2,251.7z"/>
	<path class="st1" d="M73.9,249.7c0,1.8-1.4,3.2-3.2,3.2c-1.8,0-3.3-1.4-3.3-3.2s1.4-3.2,3.3-3.2C72.5,246.5,73.9,247.9,73.9,249.7z
		 M68.6,249.7c0,1.1,0.9,2.1,2.1,2.1s2.1-1,2.1-2.1c0-1.2-0.9-2.1-2.1-2.1C69.5,247.6,68.6,248.6,68.6,249.7z"/>
	<path class="st1" d="M76.2,252.8H75v-11.3h1.2V252.8z"/>
	<path class="st1" d="M82.4,251.8L82.4,251.8c-0.5,0.7-1.2,1.2-2.1,1.2c-1.9,0-2.9-1.5-2.9-3.3c0-1.7,1.1-3.2,2.9-3.2
		c0.9,0,1.6,0.5,2.1,1.2l0,0v-6.2h1.2v11.3h-1.2V251.8z M82.5,249.7c0-1.2-0.7-2.2-2-2.2c-1.2,0-1.9,1.1-1.9,2.2
		c0,1.1,0.7,2.2,1.9,2.2C81.8,251.9,82.5,250.9,82.5,249.7z"/>
</g>
</svg>
