<?xml version="1.0" encoding="utf-8"?>
<!-- Generator: Adobe Illustrator 23.0.2, SVG Export Plug-In . SVG Version: 6.00 Build 0)  -->
<svg version="1.1" id="Layer_1" xmlns="http://www.w3.org/2000/svg" xmlns:xlink="http://www.w3.org/1999/xlink" x="0px" y="0px"
	 viewBox="0 0 792 170" style="enable-background:new 0 0 792 170;" xml:space="preserve">
<style type="text/css">
	.st0{fill:none;}
	.st1{fill:#0A0A0A;}
</style>
<title>Asset 5</title>
<g>
	<g id="Layer_1-2">
		<rect class="st0" width="792" height="170"/>
		<path class="st1" d="M223.4,56.3l6,18.6l6-18.6h4.4l6,18.6l6-18.6h6.7l-9.5,28h-5.5l-5.9-17l-5.9,17h-5.6l-9.5-28L223.4,56.3z"/>
		<path class="st1" d="M259.6,53.7h6v14.1c0.6-0.8,1.4-1.4,2.3-1.9c2.9-1.4,6.4-0.9,9,1.1c1.3,1.5,2,3.5,1.9,5.5v11.9h-6v-9.6
			c0-1.3,0-2.8-1-3.7c-0.6-0.6-1.5-0.9-2.4-0.8c-0.9,0-1.8,0.3-2.4,0.9c-0.9,1.1-1.4,2.5-1.3,3.9v9.4h-6L259.6,53.7z"/>
		<path class="st1" d="M301.2,81.9c-4.7,4-11.7,4-16.4,0c-3.8-3.9-3.8-10.1,0-13.9c4.7-4,11.7-4,16.4,0C305,71.8,305,78,301.2,81.9z
			 M289.7,71.4c-1.9,2-1.9,5.1,0,7.1c0.9,0.9,2.2,1.4,3.4,1.3c1.3,0,2.5-0.5,3.4-1.3c1.9-2,1.9-5.1,0-7.1
			C294.5,69.6,291.6,69.6,289.7,71.4z"/>
		<path class="st1" d="M323.8,53.7v18.8l6.8-6.9h7.9l-8.9,8.5l9.5,10.2H331l-7.2-8.1v8.1h-6V53.7H323.8z"/>
		<path class="st1" d="M344.8,54c1.9,0,3.5,1.6,3.5,3.5s-1.6,3.5-3.5,3.5s-3.5-1.6-3.5-3.5l0,0C341.3,55.6,342.8,54,344.8,54
			L344.8,54z M347.8,65.5v18.8h-6V65.5H347.8z"/>
		<path class="st1" d="M359.2,53.7v30.6h-6V53.7H359.2z"/>
		<path class="st1" d="M370.3,53.7v30.6h-6V53.7H370.3z"/>
		<path class="st1" d="M394.4,76h-14c0,1.2,0.4,2.3,1.1,3.2c0.8,0.8,2,1.3,3.1,1.2c0.8,0,1.7-0.2,2.4-0.6c0.6-0.4,1-0.9,1.3-1.6
			l5.7,0.6c-0.6,2-1.9,3.6-3.6,4.7c-1.8,1-3.9,1.5-5.9,1.4c-2.8,0-5.3-0.5-7.5-2.7c-1.9-1.9-2.9-4.6-2.8-7.3c0-2.7,1-5.4,2.9-7.4
			c4.2-3.6,10.5-3.6,14.6,0.1c1.8,2.1,2.8,4.8,2.6,7.6L394.4,76L394.4,76z M388.8,72.4c-0.2-0.8-0.6-1.6-1.2-2.2
			c-1.7-1.6-4.3-1.6-5.9,0.1c-0.6,0.6-0.9,1.3-1.1,2.1H388.8z"/>
		<path class="st1" d="M418.6,84.3h-6V82c-1.3,1.9-3.6,3-5.9,2.9c-2.4,0.1-4.7-0.8-6.4-2.6c-1.9-2-3-4.7-2.9-7.5
			c-0.1-2.8,1-5.4,2.9-7.4c1.8-1.6,4.1-2.5,6.5-2.5c2.3-0.1,4.5,0.9,5.8,2.7v-14h6V84.3z M404.9,71.4c-1,0.9-1.5,2.3-1.5,3.6
			c0,1.3,0.5,2.5,1.5,3.4c0.8,0.8,2,1.3,3.1,1.3c1.3,0,2.5-0.5,3.5-1.4c0.9-0.9,1.4-2.1,1.4-3.4s-0.5-2.5-1.4-3.4
			C409.7,69.8,406.8,69.7,404.9,71.4L404.9,71.4z"/>
		<path class="st1" d="M439.4,70.4v13.9h-6V70.4h-2.1v-4.9h2.1v-6h6v6h3.7v4.9H439.4z"/>
		<path class="st1" d="M445.9,53.7h6v14.1c0.6-0.8,1.4-1.4,2.3-1.9c2.9-1.4,6.4-0.9,9,1.1c1.3,1.5,2,3.5,1.9,5.5v11.9h-6v-9.6
			c0-1.3,0-2.8-1-3.7c-0.6-0.6-1.5-0.9-2.4-0.8c-0.9,0-1.8,0.3-2.4,0.9c-0.9,1.1-1.4,2.5-1.2,3.9v9.4h-6L445.9,53.7z"/>
		<path class="st1" d="M488.1,76h-14c0,1.2,0.4,2.3,1.1,3.2c0.8,0.8,2,1.2,3.1,1.2c0.8,0,1.7-0.2,2.4-0.6c0.6-0.4,1-0.9,1.3-1.6
			l5.7,0.6c-0.6,2-1.9,3.6-3.6,4.7c-1.8,1-3.9,1.5-5.9,1.4c-2.8,0-5.3-0.5-7.5-2.7c-1.9-1.9-2.9-4.6-2.8-7.3c0-2.7,1-5.4,2.9-7.4
			c4.2-3.6,10.5-3.6,14.6,0.1c1.8,2.1,2.8,4.8,2.6,7.6L488.1,76z M482.5,72.4c-0.2-0.8-0.6-1.6-1.2-2.2c-1.7-1.6-4.3-1.6-5.9,0.1
			c-0.6,0.6-0.9,1.3-1.1,2.1H482.5z"/>
		<path class="st1" d="M515.7,71.5c-1.1-0.9-2.5-1.4-4-1.4c-1.3,0-2.5,0.5-3.4,1.3c-0.9,0.9-1.4,2.2-1.4,3.5c0,1.2,0.4,2.4,1.3,3.4
			c1,1,2.3,1.5,3.7,1.5s2.8-0.5,3.9-1.5v5.5c-1.5,0.8-3.1,1.2-4.8,1.1c-2.7,0.1-5.3-0.9-7.3-2.8c-1.9-1.9-2.9-4.4-2.9-7.1
			c0-2.8,1.1-5.5,3.1-7.4c1.9-1.8,4.5-2.8,7.2-2.7c1.6,0,3.3,0.3,4.8,1L515.7,71.5z"/>
		<path class="st1" d="M534.1,65.5h6v18.7h-6V82c-1.2,1.9-3.3,3-5.5,2.9c-2.6,0.1-5.2-0.9-7-2.9c-1.8-1.9-2.8-4.4-2.7-7
			c-0.1-2.8,1-5.5,2.9-7.6c1.7-1.7,4.1-2.6,6.5-2.6c2.3-0.1,4.5,0.9,5.9,2.7L534.1,65.5z M526.4,71.5c-0.9,0.9-1.4,2.1-1.4,3.4
			c0,1.2,0.4,2.4,1.3,3.4c0.9,0.9,2.2,1.5,3.6,1.5c1.2,0,2.3-0.5,3.2-1.3c1.9-1.9,2-5,0.1-7c-0.9-0.8-2.1-1.3-3.4-1.3
			C528.5,70.1,527.3,70.6,526.4,71.5z"/>
		<path class="st1" d="M551.1,70.4v13.9h-6V70.4H543v-4.9h2v-6h6v6h3.7v4.9H551.1z"/>
		<path class="st1" d="M562.3,75.3v-7.7c1.8,0.4,4.1,0.2,5.4-0.9c0.8-0.7,1.3-1.8,1.3-2.9c0-0.8-0.3-1.6-0.8-2.2
			c-0.5-0.5-1.3-0.8-2-0.8c-0.8,0-1.6,0.3-2.1,0.8c-0.5,0.7-0.8,1.5-0.7,2.4h-6.5c0-2.2,0.8-4.2,2.3-5.8c1-1.1,3.1-2.6,6.9-2.6
			c2.5-0.1,5,0.8,6.9,2.5c1.5,1.5,2.4,3.6,2.3,5.8c0,2-0.7,3.9-2.1,5.3c-1.3,1.4-3,2.2-4.8,2.5v3.5L562.3,75.3L562.3,75.3z
			 M565.5,77.3c2.1,0,3.8,1.7,3.8,3.8s-1.7,3.8-3.8,3.8s-3.8-1.7-3.8-3.8l0,0C561.7,79,563.3,77.3,565.5,77.3
			C565.5,77.3,565.5,77.3,565.5,77.3L565.5,77.3z"/>
	</g>
</g>
</svg>
