<?xml version="1.0" encoding="utf-8"?>
<!-- Generator: Adobe Illustrator 23.0.6, SVG Export Plug-In . SVG Version: 6.00 Build 0)  -->
<svg version="1.1" id="Layer_1" xmlns="http://www.w3.org/2000/svg" xmlns:xlink="http://www.w3.org/1999/xlink" x="0px" y="0px"
	 viewBox="0 0 792 278.4" style="enable-background:new 0 0 792 278.4;" xml:space="preserve">
<style type="text/css">
	.st0{fill:#BCBEC0;}
	.st1{fill:#0A0A0A;}
	.st2{fill:none;}
</style>
<path class="st0" d="M161.9,62.5c-46.3,0-83.8,37.5-83.8,83.8s37.5,83.8,83.8,83.8s83.8-37.5,83.8-83.8
	C245.6,100,208.1,62.5,161.9,62.5L161.9,62.5z"/>
<path class="st0" d="M400.5,62.5c-46.3,0-83.8,37.5-83.8,83.8s37.5,83.8,83.8,83.8s83.8-37.5,83.8-83.8
	C484.2,100,446.8,62.5,400.5,62.5L400.5,62.5z"/>
<path class="st0" d="M643.4,62.5c-46.3,0-83.8,37.5-83.8,83.8s37.5,83.8,83.8,83.8s83.8-37.5,83.8-83.8
	C727.1,100,689.7,62.5,643.4,62.5L643.4,62.5z"/>
<title>Asset 6</title>
<g>
	<g id="Layer_1-2">
		<path class="st1" d="M571.3,137.6h5.3v-5.1h3.1v13.3h-3.1v-5.7h-5.3v5.7h-3.1v-13.3h3.1V137.6z"/>
		<path class="st1" d="M585.8,132.5v13.3h-3.1v-13.3H585.8z"/>
		<path class="st1" d="M595.2,138.6h6.6v0.1c0,2.1-0.7,4.1-2.1,5.6c-1.2,1.3-3,1.9-4.8,1.8c-1.8,0.1-3.6-0.6-4.9-1.9
			c-2.6-2.9-2.6-7.3,0-10.1c1.4-1.4,3.3-2.1,5.2-1.9c1.3,0,2.6,0.3,3.7,1c0.9,0.6,1.6,1.4,2.2,2.4l-2.8,1.5
			c-0.3-0.6-0.7-1.1-1.2-1.4c-0.6-0.4-1.3-0.6-2-0.6c-1-0.1-2,0.3-2.8,1.1c-0.8,0.9-1.2,2-1.1,3.2c-0.1,1.1,0.3,2.2,1.1,3.1
			c0.7,0.7,1.7,1.1,2.7,1c0.8,0.1,1.7-0.2,2.3-0.7c0.5-0.4,0.8-1,1-1.6H595v-2.6H595.2z"/>
		<path class="st1" d="M607.2,137.6h5.3v-5.1h3.1v13.3h-3.1v-5.7h-5.3v5.7h-3.1v-13.3h3.1V137.6z"/>
		<path class="st1" d="M623.2,135.1v10.7h-3.1v-10.7h-2.9v-2.6h8.9v2.6H623.2z"/>
		<path class="st1" d="M630.8,132.5v10.7h4.1v2.6h-7.2v-13.3H630.8z"/>
		<path class="st1" d="M639.8,132.5v13.3h-3.1v-13.3H639.8z"/>
		<path class="st1" d="M649.2,138.6h6.6v0.1c0,2.1-0.7,4.1-2.1,5.6c-1.2,1.3-3,1.9-4.8,1.8c-1.8,0.1-3.6-0.6-4.9-1.9
			c-2.6-2.9-2.6-7.3,0-10.1c1.4-1.4,3.3-2.1,5.2-1.9c1.3,0,2.6,0.3,3.7,1c0.9,0.6,1.6,1.4,2.2,2.4l-2.8,1.5
			c-0.3-0.6-0.7-1.1-1.2-1.4c-0.6-0.4-1.3-0.6-2-0.6c-1-0.1-2,0.3-2.8,1.1c-0.8,0.9-1.2,2-1.1,3.2c-0.1,1.1,0.3,2.2,1.1,3.1
			c0.7,0.7,1.7,1.1,2.7,1c0.8,0.1,1.7-0.2,2.3-0.7c0.5-0.4,0.8-1,1-1.6h-3.2L649.2,138.6z"/>
		<path class="st1" d="M661.2,137.6h5.3v-5.1h3.1v13.3h-3.1v-5.7h-5.3v5.7h-3.1v-13.3h3.1V137.6z"/>
		<path class="st1" d="M677.2,135.1v10.7h-3.1v-10.7h-2.9v-2.6h8.9v2.6H677.2z"/>
		<path class="st1" d="M689.3,135.1h-4.5v2.6h4.2v2.6h-4.2v3h4.5v2.6h-7.5v-13.4h7.5V135.1z"/>
		<path class="st1" d="M696,132.5c1.9-0.1,3.8,0.5,5.3,1.8c2.5,2.7,2.5,6.8,0.1,9.5c-1.4,1.4-3.3,2.1-5.3,2h-4.3v-13.3H696z
			 M694.9,143.3h0.8c1.1,0,2.1-0.3,3-0.9c0.9-0.8,1.4-2,1.3-3.2c0-1.1-0.4-2.1-1.1-2.9c-0.9-0.8-2.1-1.2-3.2-1.1h-0.8V143.3z"/>
		<rect class="st2" width="792" height="278.4"/>
		<path class="st1" d="M153.9,225c-47.4,0-85.8-38.4-85.8-85.8s38.4-85.8,85.8-85.8s85.8,38.4,85.8,85.8
			C239.6,186.6,201.2,224.9,153.9,225z M153.9,55.5c-46.3,0-83.8,37.5-83.8,83.8s37.5,83.8,83.8,83.8s83.8-37.5,83.8-83.8
			C237.6,93,200.1,55.5,153.9,55.5L153.9,55.5z"/>
		<path class="st1" d="M392.5,225c-47.4,0-85.8-38.4-85.8-85.8s38.4-85.8,85.8-85.8s85.8,38.4,85.8,85.8
			C478.2,186.6,439.8,224.9,392.5,225z M392.5,55.5c-46.3,0-83.8,37.5-83.8,83.8s37.5,83.8,83.8,83.8s83.8-37.5,83.8-83.8
			C476.2,93,438.8,55.5,392.5,55.5L392.5,55.5z"/>
		<path class="st1" d="M635.4,225c-47.4,0-85.8-38.4-85.8-85.8s38.4-85.8,85.8-85.8s85.8,38.4,85.8,85.8
			C721.1,186.6,682.7,224.9,635.4,225z M635.4,55.5c-46.3,0-83.8,37.5-83.8,83.8s37.5,83.8,83.8,83.8s83.8-37.5,83.8-83.8
			C719.1,93,681.7,55.5,635.4,55.5L635.4,55.5z"/>
		<path class="st1" d="M139.5,132.5l2.8,8.8l2.8-8.8h2.1l2.8,8.8l2.9-8.8h3.2l-4.6,13.3H149l-2.8-8.1l-2.8,8.1h-2.6l-4.5-13.3H139.5
			z"/>
		<path class="st1" d="M160.8,132.5v13.3h-3.1v-13.3H160.8z"/>
		<path class="st1" d="M168.5,135.1v10.7h-3.1v-10.7h-2.9v-2.6h8.9v2.6H168.5z"/>
		<path class="st1" d="M360.6,145.4c-0.9,0.5-1.9,0.7-2.9,0.7c-1.9,0.1-3.8-0.6-5.2-1.9c-2.8-2.8-2.8-7.3,0-10.1
			c1.4-1.3,3.1-2,5-1.9c1.1,0,2.2,0.3,3.2,0.7v3.6c-0.8-0.9-1.9-1.4-3.1-1.4c-1,0-2,0.3-2.7,1c-0.8,0.8-1.3,1.9-1.3,3.1
			c-0.1,2.2,1.6,4,3.7,4.1c0.1,0,0.2,0,0.3,0c1.2,0,2.3-0.5,3.1-1.4L360.6,145.4z"/>
		<path class="st1" d="M374.4,140.4c0.1,1.6-0.4,3.1-1.5,4.2c-2.4,2-5.9,2-8.3,0c-1.1-1.1-1.6-2.7-1.5-4.2v-7.9h3.1v7.8
			c-0.1,0.8,0.2,1.6,0.7,2.2c1.1,0.9,2.7,0.9,3.7,0c0.5-0.6,0.8-1.4,0.7-2.2v-7.8h3.1L374.4,140.4L374.4,140.4z"/>
		<path class="st1" d="M382,132.5c1.2-0.1,2.5,0.3,3.4,1.2c0.8,0.8,1.2,1.9,1.2,3c0.1,1-0.3,2-1,2.7c-0.5,0.5-1.2,0.8-1.9,1l4.1,5.5
			H384l-3.6-5.3v5.3h-3.1v-13.3L382,132.5L382,132.5z M380.4,138.6h0.7c0.7,0.1,1.3-0.2,1.8-0.6c0.3-0.3,0.5-0.8,0.5-1.3
			s-0.2-1-0.6-1.4c-0.5-0.3-1.1-0.5-1.7-0.4h-0.7L380.4,138.6L380.4,138.6z"/>
		<path class="st1" d="M392.6,132.5v13.3h-3.1v-13.3H392.6z"/>
		<path class="st1" d="M407.4,134.2c2.7,2.8,2.7,7.2,0,10c-1.4,1.3-3.2,2.1-5.2,2c-1.9,0-3.8-0.7-5.2-2c-1.4-1.3-2.1-3.1-2.1-5
			s0.8-3.7,2.1-5.1C400,131.5,404.4,131.5,407.4,134.2L407.4,134.2z M399.3,136.2c-0.8,0.8-1.2,1.9-1.2,3c-0.1,2.2,1.7,4,3.9,4.1
			c0.1,0,0.1,0,0.2,0c1.1,0.1,2.2-0.4,3-1.1c0.8-0.8,1.2-1.9,1.2-3s-0.4-2.2-1.2-3c-0.8-0.7-1.9-1.1-3-1.1
			C401.1,135,400,135.4,399.3,136.2L399.3,136.2z"/>
		<path class="st1" d="M423,140.4c0.1,1.6-0.4,3.1-1.5,4.2c-2.4,2-5.9,2-8.3,0c-1.1-1.1-1.6-2.7-1.5-4.2v-7.9h3.1v7.8
			c-0.1,0.8,0.2,1.6,0.7,2.2c1.1,0.9,2.7,0.9,3.7,0c0.5-0.6,0.8-1.4,0.7-2.2v-7.8h3.1L423,140.4L423,140.4z"/>
		<path class="st1" d="M432.8,135.8c-0.6-0.6-1.4-1-2.2-1c-0.5,0-1,0.1-1.3,0.5c-0.2,0.2-0.3,0.5-0.3,0.8s0.1,0.6,0.3,0.7
			c0.5,0.3,1.1,0.6,1.7,0.8l1,0.4c0.7,0.2,1.3,0.6,1.8,1c0.7,0.7,1,1.5,1,2.5c0,1.2-0.4,2.4-1.2,3.3c-1,0.9-2.4,1.4-3.8,1.4
			c-0.9,0-1.8-0.2-2.6-0.6c-0.7-0.4-1.4-0.9-2-1.5l1.6-2.2c0.4,0.4,0.8,0.7,1.2,1c0.5,0.3,1.1,0.5,1.7,0.5c0.5,0,1-0.1,1.4-0.5
			c0.3-0.3,0.5-0.7,0.5-1.1c0-0.4-0.2-0.8-0.5-1c-0.5-0.3-1-0.6-1.6-0.7l-1.1-0.4c-0.7-0.2-1.3-0.6-1.9-1.1
			c-0.6-0.6-0.8-1.5-0.8-2.3c0-1.1,0.4-2.2,1.2-3c0.9-0.9,2.1-1.3,3.3-1.2c1.4,0,2.9,0.4,4,1.3L432.8,135.8z"/>
	</g>
</g>
</svg>
