<?xml version="1.0" encoding="utf-8"?>
<!-- Generator: Adobe Illustrator 23.0.3, SVG Export Plug-In . SVG Version: 6.00 Build 0)  -->
<svg version="1.1" id="Layer_1" xmlns="http://www.w3.org/2000/svg" xmlns:xlink="http://www.w3.org/1999/xlink" x="0px" y="0px"
	 viewBox="0 0 792 252" style="enable-background:new 0 0 792 252;" xml:space="preserve">
<style type="text/css">
	.st0{fill:none;}
	.st1{fill:#00D34B;}
</style>
<title>Asset 3</title>
<g>
	<g id="Layer_1-2">
		<rect class="st0" width="792" height="252"/>
		<path class="st1" d="M155.2,226.4c-48.2,0-87.2-39.1-87.2-87.3c0-48.2,39.1-87.2,87.3-87.2c48.2,0,87.2,39.1,87.2,87.2
			C242.4,187.4,203.4,226.4,155.2,226.4z M155.2,56.9C109.8,57,73,93.8,73,139.2c0,45.4,36.8,82.2,82.3,82.2
			c45.4,0,82.2-36.8,82.2-82.2C237.4,93.8,200.6,57,155.2,56.9L155.2,56.9z"/>
		<path class="st1" d="M393.9,226.4c-48.2,0-87.2-39.1-87.2-87.2s39.1-87.2,87.2-87.2s87.2,39.1,87.2,87.2
			C481,187.4,442,226.4,393.9,226.4z M393.9,56.9c-45.4,0-82.2,36.8-82.2,82.2s36.8,82.2,82.2,82.2s82.2-36.8,82.2-82.2
			C476,93.8,439.2,57,393.9,56.9L393.9,56.9z"/>
		<path class="st1" d="M636.8,226.4c-48.2,0-87.3-39-87.3-87.2s39-87.3,87.2-87.3c48.2,0,87.3,39,87.3,87.2c0,0,0,0,0,0
			C723.9,187.4,684.9,226.4,636.8,226.4z M636.8,56.9c-45.4,0-82.3,36.8-82.3,82.2s36.8,82.3,82.2,82.3c45.4,0,82.3-36.8,82.3-82.2
			c0,0,0,0,0,0C718.9,93.8,682.1,57.1,636.8,56.9L636.8,56.9z"/>
		<path class="st1" d="M122.1,131.6c1.3-0.1,2.5,0.3,3.5,1.1c0.9,0.8,1.4,2,1.3,3.2c0.1,1.2-0.4,2.3-1.1,3.1
			c-0.9,0.8-2.2,1.3-3.4,1.2h-1.9v4.7h-3.1v-13.3H122.1z M120.5,137.7h1.1c0.6,0,1.2-0.1,1.7-0.5c0.3-0.4,0.5-0.8,0.5-1.3
			c0-0.5-0.2-1-0.5-1.3c-0.5-0.4-1.1-0.6-1.7-0.5h-1L120.5,137.7z"/>
		<path class="st1" d="M131.9,131.6v10.7h4.1v2.6h-7.2v-13.3H131.9z"/>
		<path class="st1" d="M146.3,142.4h-5l-1,2.5H137l5.4-13.3h2.8l5.3,13.3h-3.2L146.3,142.4z M145.4,140.1l-1.6-4.5l-1.7,4.5H145.4z"
			/>
		<path class="st1" d="M153.8,138.7l-4.8-7.1h3.6l2.7,4.1l2.7-4.1h3.6l-4.8,7.1v6.2h-3.1V138.7z"/>
		<path class="st1" d="M170.6,134.2h-4.3v2.6h4v2.6h-4v5.6h-3.1v-13.3h7.4V134.2z"/>
		<path class="st1" d="M184.1,139.5c0.1,1.6-0.4,3.1-1.5,4.2c-2.4,2-5.9,2-8.3,0c-1.1-1.1-1.6-2.7-1.5-4.2v-7.9h3.1v7.8
			c-0.1,0.8,0.2,1.6,0.7,2.2c1.1,0.9,2.7,0.9,3.7,0c0.5-0.6,0.8-1.4,0.7-2.2v-7.8h3.1V139.5z"/>
		<path class="st1" d="M190.1,131.6v10.7h4.1v2.6H187v-13.3H190.1z"/>
		<path class="st1" d="M333.8,134.2h-4.5v2.6h4.2v2.6h-4.2v3h4.5v2.6h-7.5v-13.4h7.5V134.2z"/>
		<path class="st1" d="M340,137.9l-4.1-6.3h3.7l2.2,3.8l2.2-3.8h3.7l-4.1,6.3l4.9,7.1h-3.7l-3-4.6l-3,4.6H335L340,137.9z"/>
		<path class="st1" d="M354.8,131.6c1.3-0.1,2.5,0.3,3.5,1.1c0.9,0.8,1.4,2,1.3,3.2c0.1,1.2-0.4,2.3-1.1,3.1
			c-0.9,0.8-2.2,1.3-3.4,1.2h-1.9v4.7h-3.1v-13.3H354.8z M353.1,137.7h1.1c0.6,0,1.2-0.1,1.7-0.5c0.3-0.4,0.5-0.8,0.5-1.3
			c0-0.5-0.2-1-0.5-1.3c-0.5-0.4-1.1-0.6-1.7-0.5h-1L353.1,137.7z"/>
		<path class="st1" d="M369,134.2h-4.5v2.6h4.2v2.6h-4.2v3h4.5v2.6h-7.5v-13.4h7.5V134.2z"/>
		<path class="st1" d="M376.2,131.6c1.2-0.1,2.5,0.3,3.4,1.2c0.8,0.8,1.2,1.9,1.2,3c0.1,1-0.3,2-1,2.7c-0.5,0.5-1.2,0.8-1.9,1
			l4.1,5.5h-3.8l-3.6-5.3v5.3h-3.1v-13.3H376.2z M374.6,137.6h0.7c0.7,0.1,1.3-0.2,1.8-0.6c0.3-0.3,0.5-0.8,0.5-1.3
			c0-0.5-0.2-1-0.6-1.4c-0.5-0.3-1.1-0.5-1.7-0.4h-0.7V137.6z"/>
		<path class="st1" d="M386.8,131.6v13.3h-3.1v-13.3H386.8z"/>
		<path class="st1" d="M389.2,144.9l2.1-13.3h2.6l3.3,8l3.3-8h2.6l2.1,13.3h-3.1l-1.1-8l-3.3,8h-1.1l-3.3-8l-1.1,8H389.2z"/>
		<path class="st1" d="M415.1,134.2h-4.5v2.6h4.2v2.6h-4.2v3h4.5v2.6h-7.5v-13.4h7.5V134.2z"/>
		<path class="st1" d="M417.6,144.9v-13.3h2.7l7.2,8.6v-8.6h3.1v13.3h-2.7l-7.2-8.6v8.6H417.6z"/>
		<path class="st1" d="M438.2,134.2v10.7h-3.1v-10.7h-2.9v-2.6h8.9v2.6H438.2z"/>
		<path class="st1" d="M449.7,142.4h-5l-1,2.5h-3.2l5.4-13.3h2.8l5.3,13.3h-3.2L449.7,142.4z M448.8,140.1l-1.6-4.5l-1.7,4.5H448.8z
			"/>
		<path class="st1" d="M458.5,131.6v10.7h4.1v2.6h-7.2v-13.3H458.5z"/>
		<path class="st1" d="M625.7,134.2h-4.3v2.6h4v2.6h-4v5.6h-3.1v-13.3h7.4V134.2z"/>
		<path class="st1" d="M639.3,139.5c0.1,1.6-0.4,3.1-1.5,4.2c-2.4,2-5.9,2-8.3,0c-1.1-1.1-1.6-2.7-1.5-4.2v-7.9h3.1v7.8
			c-0.1,0.8,0.2,1.6,0.7,2.2c1.1,0.9,2.7,0.9,3.7,0c0.5-0.6,0.8-1.4,0.7-2.2v-7.8h3.1L639.3,139.5z"/>
		<path class="st1" d="M642.2,144.9v-13.3h2.7l7.2,8.6v-8.6h3.1v13.3h-2.7l-7.2-8.6v8.6H642.2z"/>
	</g>
</g>
<rect x="117.4" y="150.7" class="st1" width="76.8" height="5"/>
<rect x="326.3" y="150.7" class="st1" width="136.3" height="5"/>
<rect x="618.3" y="150.7" class="st1" width="36.9" height="5"/>
</svg>
