<svg xmlns="http://www.w3.org/2000/svg" viewBox="0 0 792 278.4"><defs><style>.cls-1{fill:none;}.cls-2{fill:#fff;}</style></defs><title>Asset 3</title><g id="Layer_2" data-name="Layer 2"><g id="Layer_1-2" data-name="Layer 1"><rect class="cls-1" width="792" height="278.4"/><path class="cls-2" d="M155.23,226.45a87.25,87.25,0,1,1,87.26-87.25A87.35,87.35,0,0,1,155.23,226.45Zm0-169.5a82.25,82.25,0,1,0,82.26,82.25A82.34,82.34,0,0,0,155.23,57Z"/><path class="cls-2" d="M393.86,226.45a87.25,87.25,0,1,1,87.25-87.25A87.36,87.36,0,0,1,393.86,226.45Zm0-169.5a82.25,82.25,0,1,0,82.25,82.25A82.34,82.34,0,0,0,393.86,57Z"/><path class="cls-2" d="M636.77,226.45A87.25,87.25,0,1,1,724,139.2,87.35,87.35,0,0,1,636.77,226.45Zm0-169.5A82.25,82.25,0,1,0,719,139.2,82.34,82.34,0,0,0,636.77,57Z"/><path class="cls-2" d="M122.12,131.59a5,5,0,0,1,3.5,1.1,4.1,4.1,0,0,1,1.3,3.24,4.29,4.29,0,0,1-1.14,3.14,4.55,4.55,0,0,1-3.4,1.18H120.5v4.68h-3.08V131.59Zm-1.62,6.14h1.1a2.36,2.36,0,0,0,1.66-.5,1.86,1.86,0,0,0,.5-1.32,1.76,1.76,0,0,0-.5-1.3,2.4,2.4,0,0,0-1.72-.5h-1Z"/><path class="cls-2" d="M131.94,131.59v10.74h4.14v2.6h-7.22V131.59Z"/><path class="cls-2" d="M146.28,142.41h-5l-1,2.52H137l5.39-13.34h2.82l5.26,13.34h-3.2Zm-.84-2.36-1.64-4.48-1.66,4.48Z"/><path class="cls-2" d="M153.84,138.71l-4.79-7.12h3.64l2.69,4.14,2.68-4.14h3.64l-4.78,7.12v6.22h-3.08Z"/><path class="cls-2" d="M170.56,134.19h-4.32v2.58h4v2.6h-4v5.56h-3.09V131.59h7.41Z"/><path class="cls-2" d="M184.1,139.49a5.66,5.66,0,0,1-1.48,4.22,6.47,6.47,0,0,1-8.33,0,5.66,5.66,0,0,1-1.48-4.22v-7.9h3.09v7.82a3.15,3.15,0,0,0,.7,2.24,2.82,2.82,0,0,0,3.72,0,3.15,3.15,0,0,0,.7-2.24v-7.82h3.08Z"/><path class="cls-2" d="M190.09,131.59v10.74h4.15v2.6H187V131.59Z"/><path class="cls-2" d="M333.84,134.19h-4.46v2.58h4.24v2.6h-4.24v3h4.46v2.6H326.3V131.59h7.54Z"/><path class="cls-2" d="M340,137.85l-4.14-6.26h3.7l2.2,3.8,2.2-3.8h3.7l-4.14,6.26,4.9,7.08h-3.7l-3-4.62-3,4.62h-3.7Z"/><path class="cls-2" d="M354.76,131.59a5,5,0,0,1,3.5,1.1,4.1,4.1,0,0,1,1.3,3.24,4.29,4.29,0,0,1-1.14,3.14,4.55,4.55,0,0,1-3.4,1.18h-1.88v4.68h-3.08V131.59Zm-1.62,6.14h1.1a2.36,2.36,0,0,0,1.66-.5,1.86,1.86,0,0,0,.5-1.32,1.76,1.76,0,0,0-.5-1.3,2.4,2.4,0,0,0-1.72-.5h-1Z"/><path class="cls-2" d="M369,134.19h-4.46v2.58h4.24v2.6h-4.24v3H369v2.6H361.5V131.59H369Z"/><path class="cls-2" d="M376.22,131.59a4.77,4.77,0,0,1,3.4,1.16,4,4,0,0,1,1.16,3,3.65,3.65,0,0,1-1,2.72,4.2,4.2,0,0,1-1.86,1l4.1,5.46h-3.76l-3.6-5.26v5.26h-3.08V131.59Zm-1.6,6.06h.7a2.53,2.53,0,0,0,1.84-.58,1.8,1.8,0,0,0,.5-1.3,1.62,1.62,0,0,0-.62-1.36,3,3,0,0,0-1.7-.42h-.72Z"/><path class="cls-2" d="M386.82,131.59v13.34h-3.08V131.59Z"/><path class="cls-2" d="M389.18,144.93l2.14-13.34h2.56l3.32,8,3.32-8h2.56l2.14,13.34h-3.08l-1.06-8-3.34,8h-1.08l-3.34-8-1.06,8Z"/><path class="cls-2" d="M415.06,134.19H410.6v2.58h4.24v2.6H410.6v3h4.46v2.6h-7.54V131.59h7.54Z"/><path class="cls-2" d="M417.56,144.93V131.59h2.68l7.24,8.6v-8.6h3.08v13.34h-2.68l-7.24-8.64v8.64Z"/><path class="cls-2" d="M438.16,134.19v10.74h-3.08V134.19h-2.9v-2.6h8.88v2.6Z"/><path class="cls-2" d="M449.68,142.41h-5l-1,2.52h-3.2l5.38-13.34h2.82l5.26,13.34h-3.2Zm-.84-2.36-1.64-4.48-1.66,4.48Z"/><path class="cls-2" d="M458.46,131.59v10.74h4.14v2.6h-7.22V131.59Z"/><path class="cls-2" d="M625.74,134.19h-4.32v2.58h4v2.6h-4v5.56h-3.08V131.59h7.4Z"/><path class="cls-2" d="M639.28,139.49a5.66,5.66,0,0,1-1.48,4.22,6.45,6.45,0,0,1-8.32,0,5.66,5.66,0,0,1-1.48-4.22v-7.9h3.08v7.82a3.15,3.15,0,0,0,.7,2.24,2.82,2.82,0,0,0,3.72,0,3.15,3.15,0,0,0,.7-2.24v-7.82h3.08Z"/><path class="cls-2" d="M642.2,144.93V131.59h2.68l7.24,8.6v-8.6h3.08v13.34h-2.68l-7.24-8.64v8.64Z"/></g></g></svg>