<?xml version="1.0" encoding="utf-8"?>
<!-- Generator: Adobe Illustrator 23.0.3, SVG Export Plug-In . SVG Version: 6.00 Build 0)  -->
<svg version="1.1" id="Layer_1" xmlns="http://www.w3.org/2000/svg" xmlns:xlink="http://www.w3.org/1999/xlink" x="0px" y="0px"
	 viewBox="0 0 792 278.4" style="enable-background:new 0 0 792 278.4;" xml:space="preserve">
<style type="text/css">
	.st0{fill:none;}
	.st1{fill:#00D34B;}
</style>
<title>Asset 2</title>
<rect class="st0" width="792" height="278.4"/>
<path class="st1" d="M153.9,226.4c-48.2,0-87.2-39.1-87.2-87.2s39.1-87.2,87.2-87.2s87.2,39.1,87.2,87.2
	C241.1,187.4,202,226.4,153.9,226.4z M153.9,56.9c-45.4,0-82.2,36.8-82.2,82.2s36.8,82.2,82.2,82.2s82.2-36.8,82.2-82.2
	C236.1,93.8,199.3,57,153.9,56.9L153.9,56.9z"/>
<path class="st1" d="M392.5,226.4c-48.2,0-87.2-39.1-87.2-87.2s39.1-87.2,87.2-87.2s87.2,39.1,87.2,87.2
	C479.7,187.4,440.7,226.4,392.5,226.4z M392.5,56.9c-45.4,0-82.2,36.8-82.2,82.2s36.8,82.2,82.2,82.2s82.2-36.8,82.2-82.2
	C474.7,93.8,437.9,57,392.5,56.9L392.5,56.9z"/>
<path class="st1" d="M635.4,226.4c-48.2,0-87.2-39.1-87.2-87.2s39.1-87.2,87.2-87.2s87.2,39.1,87.2,87.2
	C722.6,187.4,683.6,226.4,635.4,226.4z M635.4,56.9c-45.4,0-82.2,36.8-82.2,82.2s36.8,82.2,82.2,82.2s82.2-36.8,82.2-82.2
	C717.6,93.8,680.8,57,635.4,56.9L635.4,56.9z"/>
<path class="st1" d="M110.4,131.6c1.3-0.1,2.5,0.3,3.5,1.1c0.9,0.8,1.4,2,1.3,3.2c0.1,1.2-0.4,2.3-1.1,3.1c-0.9,0.8-2.2,1.3-3.4,1.2
	h-1.9v4.7h-3.1v-13.3H110.4z M108.8,137.7h1.1c0.6,0,1.2-0.1,1.7-0.5c0.3-0.4,0.5-0.8,0.5-1.3c0-0.5-0.2-1-0.5-1.3
	c-0.5-0.4-1.1-0.6-1.7-0.5h-1L108.8,137.7z"/>
<path class="st1" d="M121.8,131.6c1.2-0.1,2.5,0.3,3.4,1.2c0.8,0.8,1.2,1.9,1.2,3c0.1,1-0.3,2-1,2.7c-0.5,0.5-1.2,0.8-1.9,1l4.1,5.5
	h-3.8l-3.6-5.3v5.3h-3.1v-13.3H121.8z M120.2,137.6h0.7c0.7,0.1,1.3-0.2,1.8-0.6c0.3-0.3,0.5-0.8,0.5-1.3c0-0.5-0.2-1-0.6-1.4
	c-0.5-0.3-1.1-0.5-1.7-0.4h-0.7L120.2,137.6z"/>
<path class="st1" d="M141.1,133.2c2.7,2.8,2.7,7.2,0,10c-1.4,1.3-3.2,2.1-5.2,2c-1.9,0-3.8-0.7-5.2-2c-1.4-1.3-2.1-3.1-2.1-5
	c0-1.9,0.8-3.7,2.1-5.1C133.7,130.6,138.1,130.6,141.1,133.2L141.1,133.2z M133,135.2c-0.8,0.8-1.2,1.9-1.2,3c0,1.1,0.4,2.2,1.2,3
	c0.8,0.7,1.8,1.1,2.9,1.1c1.1,0.1,2.2-0.4,3-1.1c0.8-0.8,1.2-1.9,1.2-3c0-1.1-0.4-2.2-1.2-3c-0.8-0.7-1.9-1.1-2.9-1.1
	C134.8,134,133.8,134.5,133,135.2L133,135.2z"/>
<path class="st1" d="M151.9,137.6h6.6v0.1c0,2.1-0.7,4.1-2.1,5.6c-1.2,1.3-3,1.9-4.8,1.8c-1.8,0.1-3.6-0.6-4.9-1.9
	c-2.6-2.9-2.6-7.3,0-10.1c1.4-1.4,3.3-2.1,5.2-1.9c1.3,0,2.6,0.3,3.7,1c0.9,0.6,1.6,1.4,2.2,2.4l-2.8,1.5c-0.3-0.6-0.7-1.1-1.2-1.4
	c-0.6-0.4-1.3-0.6-2-0.6c-1-0.1-2,0.3-2.8,1.1c-0.8,0.9-1.2,2-1.1,3.2c-0.1,1.1,0.3,2.2,1.1,3.1c0.7,0.7,1.7,1.1,2.7,1
	c0.8,0.1,1.7-0.2,2.3-0.7c0.5-0.4,0.8-1,1-1.6H152L151.9,137.6z"/>
<path class="st1" d="M165.5,131.6c1.2-0.1,2.5,0.3,3.4,1.2c0.8,0.8,1.2,1.9,1.2,3c0.1,1-0.3,2-1,2.7c-0.5,0.5-1.2,0.8-1.9,1l4.1,5.5
	h-3.8l-3.6-5.3v5.3h-3.1v-13.3H165.5z M163.9,137.6h0.7c0.7,0.1,1.3-0.2,1.8-0.6c0.3-0.3,0.5-0.8,0.5-1.3c0-0.5-0.2-1-0.6-1.4
	c-0.5-0.3-1.1-0.5-1.7-0.4h-0.7V137.6z"/>
<path class="st1" d="M180.5,134.2H176v2.6h4.2v2.6H176v3h4.5v2.6H173v-13.4h7.5L180.5,134.2z"/>
<path class="st1" d="M189.9,134.9c-0.6-0.6-1.4-1-2.2-1c-0.5,0-1,0.1-1.3,0.5c-0.2,0.2-0.3,0.5-0.3,0.8c0,0.3,0.1,0.6,0.3,0.7
	c0.5,0.3,1.1,0.6,1.7,0.8l1,0.4c0.7,0.2,1.3,0.6,1.8,1c0.7,0.7,1,1.5,1,2.5c0,1.2-0.4,2.4-1.2,3.3c-1,0.9-2.4,1.4-3.8,1.4
	c-0.9,0-1.8-0.2-2.6-0.6c-0.7-0.4-1.4-0.9-2-1.5l1.6-2.2c0.4,0.4,0.8,0.7,1.2,1c0.5,0.3,1.1,0.5,1.7,0.5c0.5,0,1-0.1,1.4-0.5
	c0.3-0.3,0.5-0.7,0.5-1.1c0-0.4-0.2-0.8-0.5-1c-0.5-0.3-1-0.6-1.6-0.7l-1.1-0.4c-0.7-0.2-1.3-0.6-1.9-1.1c-0.6-0.6-0.8-1.5-0.8-2.3
	c0-1.1,0.4-2.2,1.2-3c0.9-0.9,2.1-1.3,3.3-1.2c1.4,0,2.9,0.4,4,1.3L189.9,134.9z"/>
<path class="st1" d="M200.9,134.9c-0.6-0.6-1.4-1-2.2-1c-0.5,0-1,0.1-1.3,0.5c-0.2,0.2-0.3,0.5-0.3,0.8c0,0.3,0.1,0.6,0.3,0.7
	c0.5,0.3,1.1,0.6,1.7,0.8l1,0.4c0.7,0.2,1.3,0.6,1.8,1c0.7,0.7,1,1.5,1,2.5c0,1.2-0.4,2.4-1.2,3.3c-1,0.9-2.4,1.4-3.8,1.4
	c-0.9,0-1.8-0.2-2.6-0.6c-0.7-0.4-1.4-0.9-2-1.5l1.6-2.2c0.4,0.4,0.8,0.7,1.2,1c0.5,0.3,1.1,0.5,1.7,0.5c0.5,0,1-0.1,1.4-0.5
	c0.3-0.3,0.5-0.7,0.5-1.1c0-0.4-0.2-0.8-0.5-1c-0.5-0.3-1-0.6-1.6-0.7l-1.1-0.4c-0.7-0.2-1.3-0.6-1.9-1.1c-0.6-0.6-0.8-1.5-0.8-2.3
	c0-1.1,0.4-2.2,1.2-3c0.9-0.9,2.1-1.3,3.3-1.2c1.4,0,2.9,0.4,4,1.3L200.9,134.9z"/>
<path class="st1" d="M356.6,136.7h5.3v-5.1h3.1v13.3h-3.1v-5.7h-5.3v5.7h-3.1v-13.3h3.1V136.7z"/>
<path class="st1" d="M371.1,131.6v13.3H368v-13.3H371.1z"/>
<path class="st1" d="M380.9,134.9c-0.6-0.6-1.4-1-2.2-1c-0.5,0-1,0.1-1.3,0.5c-0.2,0.2-0.3,0.5-0.3,0.8c0,0.3,0.1,0.6,0.3,0.7
	c0.5,0.3,1.1,0.6,1.7,0.8l1,0.4c0.7,0.2,1.3,0.6,1.8,1c0.7,0.7,1,1.6,1,2.5c0,1.2-0.4,2.4-1.2,3.3c-1,0.9-2.4,1.4-3.8,1.4
	c-0.9,0-1.8-0.2-2.6-0.6c-0.7-0.4-1.4-0.9-2-1.5l1.6-2.2c0.4,0.4,0.8,0.7,1.2,1c0.5,0.3,1.1,0.5,1.7,0.5c0.5,0,1-0.1,1.4-0.5
	c0.3-0.3,0.5-0.7,0.5-1.1c0-0.4-0.2-0.8-0.5-1c-0.5-0.3-1-0.6-1.6-0.7l-1.1-0.4c-0.7-0.2-1.3-0.6-1.9-1.1c-0.6-0.6-0.8-1.5-0.8-2.3
	c0-1.1,0.4-2.2,1.2-3c0.9-0.9,2.1-1.3,3.3-1.2c1.4,0,2.9,0.4,4,1.3L380.9,134.9z"/>
<path class="st1" d="M389.7,134.2v10.7h-3.1v-10.7h-2.9v-2.6h8.9v2.6H389.7z"/>
<path class="st1" d="M405.7,133.2c2.7,2.8,2.7,7.2,0,10c-1.4,1.3-3.2,2.1-5.2,2c-1.9,0-3.8-0.7-5.2-2c-1.4-1.3-2.1-3.1-2.1-5
	c0-1.9,0.8-3.7,2.1-5.1C398.3,130.6,402.7,130.6,405.7,133.2L405.7,133.2z M397.6,135.2c-0.8,0.8-1.2,1.9-1.2,3c0,1.1,0.4,2.2,1.2,3
	c0.8,0.7,1.8,1.1,2.9,1.1c1.1,0.1,2.2-0.4,3-1.1c0.8-0.8,1.2-1.9,1.2-3c0-1.1-0.4-2.2-1.2-3c-0.8-0.7-1.9-1.1-3-1.1
	C399.4,134,398.3,134.5,397.6,135.2L397.6,135.2z"/>
<path class="st1" d="M414.7,131.6c1.2-0.1,2.5,0.3,3.4,1.2c0.8,0.8,1.2,1.9,1.2,3c0.1,1-0.3,2-1,2.7c-0.5,0.5-1.2,0.8-1.9,1l4.1,5.5
	h-3.8l-3.6-5.3v5.3H410v-13.3H414.7z M413.1,137.6h0.7c0.7,0.1,1.3-0.2,1.9-0.6c0.3-0.4,0.5-0.8,0.5-1.3c0-0.5-0.2-1-0.6-1.4
	c-0.5-0.3-1.1-0.5-1.7-0.4h-0.7V137.6z"/>
<path class="st1" d="M425.1,138.7l-4.8-7.1h3.6l2.7,4.1l2.7-4.1h3.7l-4.8,7.1v6.2h-3.1L425.1,138.7z"/>
<path class="st1" d="M583.5,131.6v13.3h-3.1v-13.3H583.5z"/>
<path class="st1" d="M585.9,144.9l2.1-13.3h2.6l3.3,8l3.3-8h2.6l2.1,13.3h-3.1l-1-8l-3.3,8h-1.1L590,137l-1.1,8L585.9,144.9z"/>
<path class="st1" d="M603.6,144.9l2.1-13.3h2.6l3.3,8l3.3-8h2.6l2.2,13.3h-3.1l-1.1-8l-3.3,8h-1.1l-3.3-8l-1.1,8H603.6z"/>
<path class="st1" d="M629.5,134.2H625v2.6h4.2v2.6H625v3h4.5v2.6h-7.5v-13.4h7.5L629.5,134.2z"/>
<path class="st1" d="M636.7,131.6c1.2-0.1,2.5,0.3,3.4,1.2c0.8,0.8,1.2,1.9,1.2,3c0.1,1-0.3,2-1,2.7c-0.5,0.5-1.2,0.8-1.9,1l4.1,5.5
	h-3.8l-3.6-5.3v5.3H632v-13.3H636.7z M635.1,137.6h0.7c0.7,0.1,1.3-0.2,1.8-0.6c0.3-0.3,0.5-0.8,0.5-1.3c0-0.5-0.2-1-0.6-1.4
	c-0.5-0.3-1.1-0.5-1.7-0.4h-0.7L635.1,137.6z"/>
<path class="st1" d="M651,134.9c-0.6-0.6-1.4-1-2.2-1c-0.5,0-1,0.1-1.3,0.5c-0.2,0.2-0.3,0.5-0.3,0.8c0,0.3,0.1,0.6,0.3,0.7
	c0.5,0.3,1.1,0.6,1.7,0.8l1,0.4c0.7,0.2,1.3,0.6,1.8,1c0.7,0.7,1,1.5,1,2.5c0,1.2-0.4,2.4-1.2,3.3c-1,0.9-2.4,1.4-3.8,1.4
	c-0.9,0-1.8-0.2-2.6-0.6c-0.7-0.4-1.4-0.9-2-1.5l1.6-2.2c0.4,0.4,0.8,0.7,1.2,1c0.5,0.3,1.1,0.5,1.7,0.5c0.5,0,1-0.1,1.4-0.5
	c0.3-0.3,0.5-0.7,0.5-1.1c0-0.4-0.2-0.8-0.5-1c-0.5-0.3-1-0.6-1.6-0.7l-1.1-0.4c-0.7-0.2-1.3-0.6-1.9-1.1c-0.6-0.6-0.8-1.5-0.8-2.3
	c0-1.1,0.4-2.2,1.2-3c0.9-0.9,2.1-1.3,3.3-1.2c1.4,0,2.9,0.4,4,1.3L651,134.9z"/>
<path class="st1" d="M658.3,131.6v13.3h-3.1v-13.3H658.3z"/>
<path class="st1" d="M673.1,133.2c2.7,2.8,2.7,7.2,0,10c-1.4,1.3-3.2,2.1-5.2,2c-1.9,0-3.8-0.7-5.2-2c-1.4-1.3-2.1-3.1-2.1-5
	c0-1.9,0.8-3.7,2.1-5.1C665.7,130.6,670.1,130.6,673.1,133.2L673.1,133.2z M665,135.2c-0.8,0.8-1.2,1.9-1.2,3c0,1.1,0.4,2.2,1.2,3
	c0.8,0.7,1.8,1.1,2.9,1.1c1.1,0.1,2.2-0.4,3-1.1c0.8-0.8,1.2-1.9,1.2-3c0-1.1-0.4-2.2-1.2-3c-0.8-0.7-1.9-1.1-2.9-1.1
	C666.8,134,665.8,134.5,665,135.2L665,135.2z"/>
<path class="st1" d="M677.4,144.9v-13.3h2.7l7.2,8.6v-8.6h3.1v13.3h-2.7l-7.2-8.6v8.6H677.4z"/>
</svg>
