<svg xmlns="http://www.w3.org/2000/svg" viewBox="0 0 792 278.4"><defs><style>.cls-1{fill:none;}.cls-2{fill:#fff;}</style></defs><title>Asset 2</title><g id="Layer_2" data-name="Layer 2"><g id="Layer_1-2" data-name="Layer 1"><rect class="cls-1" width="792" height="278.4"/><path class="cls-2" d="M153.88,226.45a87.25,87.25,0,1,1,87.25-87.25A87.35,87.35,0,0,1,153.88,226.45Zm0-169.5a82.25,82.25,0,1,0,82.25,82.25A82.34,82.34,0,0,0,153.88,57Z"/><path class="cls-2" d="M392.5,226.45a87.25,87.25,0,1,1,87.25-87.25A87.35,87.35,0,0,1,392.5,226.45Zm0-169.5a82.25,82.25,0,1,0,82.25,82.25A82.34,82.34,0,0,0,392.5,57Z"/><path class="cls-2" d="M635.41,226.45a87.25,87.25,0,1,1,87.25-87.25A87.35,87.35,0,0,1,635.41,226.45Zm0-169.5a82.25,82.25,0,1,0,82.25,82.25A82.34,82.34,0,0,0,635.41,57Z"/><path class="cls-2" d="M110.39,131.59a5,5,0,0,1,3.5,1.1,4.1,4.1,0,0,1,1.3,3.24,4.29,4.29,0,0,1-1.14,3.14,4.55,4.55,0,0,1-3.4,1.18h-1.88v4.68h-3.08V131.59Zm-1.62,6.14h1.1a2.36,2.36,0,0,0,1.66-.5,1.86,1.86,0,0,0,.5-1.32,1.76,1.76,0,0,0-.5-1.3,2.4,2.4,0,0,0-1.72-.5h-1Z"/><path class="cls-2" d="M121.81,131.59a4.77,4.77,0,0,1,3.4,1.16,4,4,0,0,1,1.16,3,3.65,3.65,0,0,1-1,2.72,4.2,4.2,0,0,1-1.86,1l4.1,5.46h-3.76l-3.6-5.26v5.26h-3.08V131.59Zm-1.6,6.06h.7a2.53,2.53,0,0,0,1.84-.58,1.8,1.8,0,0,0,.5-1.3,1.62,1.62,0,0,0-.62-1.36,3,3,0,0,0-1.7-.42h-.72Z"/><path class="cls-2" d="M141.09,133.23a7.1,7.1,0,0,1,0,10,7.12,7.12,0,0,1-5.16,2,7.34,7.34,0,0,1-5.2-2,6.81,6.81,0,0,1-2.08-5,7.45,7.45,0,0,1,2.06-5.06,7.88,7.88,0,0,1,10.38,0Zm-8.1,2a4.09,4.09,0,0,0-1.18,3,4,4,0,0,0,1.22,3,3.92,3.92,0,0,0,2.86,1.1,4,4,0,0,0,3-1.14,4,4,0,0,0,1.16-3,4.2,4.2,0,0,0-1.16-3,4.28,4.28,0,0,0-2.94-1.14A4.09,4.09,0,0,0,133,135.27Z"/><path class="cls-2" d="M151.89,137.65h6.62v.14a8.67,8.67,0,0,1-2.06,5.62,6.12,6.12,0,0,1-4.76,1.82,6.27,6.27,0,0,1-4.88-1.86,7.6,7.6,0,0,1,0-10.14,6.86,6.86,0,0,1,5.24-1.94,6.72,6.72,0,0,1,3.74,1,7.37,7.37,0,0,1,2.16,2.38l-2.78,1.5a4,4,0,0,0-1.18-1.44,3.35,3.35,0,0,0-2-.64,3.61,3.61,0,0,0-2.76,1.08,4.57,4.57,0,0,0-1.14,3.16,4.19,4.19,0,0,0,1.12,3.06,3.51,3.51,0,0,0,2.7,1,3.42,3.42,0,0,0,2.32-.72,3.11,3.11,0,0,0,1-1.58h-3.22Z"/><path class="cls-2" d="M165.49,131.59a4.77,4.77,0,0,1,3.4,1.16,4,4,0,0,1,1.16,3,3.65,3.65,0,0,1-1,2.72,4.2,4.2,0,0,1-1.86,1l4.1,5.46h-3.76l-3.6-5.26v5.26h-3.08V131.59Zm-1.6,6.06h.7a2.53,2.53,0,0,0,1.84-.58,1.8,1.8,0,0,0,.5-1.3,1.62,1.62,0,0,0-.62-1.36,3,3,0,0,0-1.7-.42h-.72Z"/><path class="cls-2" d="M180.49,134.19H176v2.58h4.24v2.6H176v3h4.46v2.6H173V131.59h7.54Z"/><path class="cls-2" d="M189.87,134.85a3.25,3.25,0,0,0-2.24-1,1.67,1.67,0,0,0-1.3.46,1.19,1.19,0,0,0-.34.84.94.94,0,0,0,.3.74,5.36,5.36,0,0,0,1.68.76l1,.38a5.35,5.35,0,0,1,1.82,1,3.33,3.33,0,0,1,1,2.48,4.78,4.78,0,0,1-1.18,3.3,5.17,5.17,0,0,1-3.78,1.36,5.65,5.65,0,0,1-2.64-.56,8.48,8.48,0,0,1-2-1.46l1.6-2.2a8.17,8.17,0,0,0,1.24,1,3.1,3.1,0,0,0,1.68.48,2.13,2.13,0,0,0,1.4-.46,1.38,1.38,0,0,0,.48-1.08,1.18,1.18,0,0,0-.46-1,6.52,6.52,0,0,0-1.56-.74l-1.1-.38a4.49,4.49,0,0,1-1.86-1.06,3.28,3.28,0,0,1-.8-2.32,4.1,4.1,0,0,1,1.16-3,4.3,4.3,0,0,1,3.3-1.22,6.45,6.45,0,0,1,4,1.32Z"/><path class="cls-2" d="M200.87,134.85a3.25,3.25,0,0,0-2.24-1,1.67,1.67,0,0,0-1.3.46,1.19,1.19,0,0,0-.34.84.94.94,0,0,0,.3.74,5.36,5.36,0,0,0,1.68.76l1,.38a5.35,5.35,0,0,1,1.82,1,3.33,3.33,0,0,1,1,2.48,4.78,4.78,0,0,1-1.18,3.3,5.17,5.17,0,0,1-3.78,1.36,5.65,5.65,0,0,1-2.64-.56,8.48,8.48,0,0,1-2-1.46l1.6-2.2a8.17,8.17,0,0,0,1.24,1,3.1,3.1,0,0,0,1.68.48,2.13,2.13,0,0,0,1.4-.46,1.38,1.38,0,0,0,.48-1.08,1.18,1.18,0,0,0-.46-1,6.52,6.52,0,0,0-1.56-.74l-1.1-.38a4.49,4.49,0,0,1-1.86-1.06,3.28,3.28,0,0,1-.8-2.32,4.1,4.1,0,0,1,1.16-3,4.3,4.3,0,0,1,3.3-1.22,6.45,6.45,0,0,1,4,1.32Z"/><path class="cls-2" d="M356.6,136.67h5.33v-5.08H365v13.34h-3.08v-5.66H356.6v5.66h-3.08V131.59h3.08Z"/><path class="cls-2" d="M371.06,131.59v13.34H368V131.59Z"/><path class="cls-2" d="M380.92,134.85a3.25,3.25,0,0,0-2.24-1,1.67,1.67,0,0,0-1.3.46,1.19,1.19,0,0,0-.34.84.94.94,0,0,0,.3.74,5.36,5.36,0,0,0,1.68.76l1,.38a5.49,5.49,0,0,1,1.83,1,3.37,3.37,0,0,1,1,2.48,4.78,4.78,0,0,1-1.18,3.3,5.2,5.2,0,0,1-3.79,1.36,5.65,5.65,0,0,1-2.64-.56,8.48,8.48,0,0,1-2-1.46l1.6-2.2a8.17,8.17,0,0,0,1.24,1,3.1,3.1,0,0,0,1.68.48,2.13,2.13,0,0,0,1.4-.46,1.38,1.38,0,0,0,.48-1.08,1.18,1.18,0,0,0-.46-1,6.52,6.52,0,0,0-1.56-.74l-1.1-.38a4.49,4.49,0,0,1-1.86-1.06,3.28,3.28,0,0,1-.8-2.32,4.1,4.1,0,0,1,1.16-3,4.3,4.3,0,0,1,3.3-1.22,6.49,6.49,0,0,1,4,1.32Z"/><path class="cls-2" d="M389.72,134.19v10.74h-3.08V134.19h-2.9v-2.6h8.88v2.6Z"/><path class="cls-2" d="M405.67,133.23a7.1,7.1,0,0,1,0,10,7.13,7.13,0,0,1-5.17,2,7.34,7.34,0,0,1-5.2-2,6.81,6.81,0,0,1-2.08-5,7.45,7.45,0,0,1,2.06-5.06,7.9,7.9,0,0,1,10.39,0Zm-8.11,2a4.09,4.09,0,0,0-1.18,3,4,4,0,0,0,1.22,3,3.92,3.92,0,0,0,2.86,1.1,4,4,0,0,0,3-1.14,4,4,0,0,0,1.16-3,4.2,4.2,0,0,0-1.16-3,4.29,4.29,0,0,0-2.95-1.14A4.09,4.09,0,0,0,397.56,135.27Z"/><path class="cls-2" d="M414.72,131.59a4.75,4.75,0,0,1,3.4,1.16,4,4,0,0,1,1.17,3,3.65,3.65,0,0,1-1,2.72,4.23,4.23,0,0,1-1.87,1l4.11,5.46h-3.77l-3.6-5.26v5.26H410V131.59Zm-1.6,6.06h.7a2.57,2.57,0,0,0,1.85-.58,1.84,1.84,0,0,0,.5-1.3,1.62,1.62,0,0,0-.63-1.36,3,3,0,0,0-1.7-.42h-.72Z"/><path class="cls-2" d="M425.08,138.71l-4.78-7.12h3.64l2.68,4.14,2.68-4.14H433l-4.78,7.12v6.22h-3.09Z"/><path class="cls-2" d="M583.52,131.59v13.34h-3.08V131.59Z"/><path class="cls-2" d="M585.88,144.93,588,131.59h2.56l3.32,8,3.32-8h2.57l2.14,13.34h-3.09l-1.05-8-3.35,8h-1.08L590,137l-1.06,8Z"/><path class="cls-2" d="M603.6,144.93l2.14-13.34h2.56l3.32,8,3.32-8h2.56l2.15,13.34h-3.09l-1.06-8-3.34,8h-1.08l-3.34-8-1.06,8Z"/><path class="cls-2" d="M629.48,134.19H625v2.58h4.24v2.6H625v3h4.46v2.6h-7.54V131.59h7.54Z"/><path class="cls-2" d="M636.66,131.59a4.77,4.77,0,0,1,3.4,1.16,4,4,0,0,1,1.16,3,3.65,3.65,0,0,1-1,2.72,4.2,4.2,0,0,1-1.86,1l4.1,5.46h-3.76l-3.6-5.26v5.26H632V131.59Zm-1.6,6.06h.7a2.53,2.53,0,0,0,1.84-.58,1.8,1.8,0,0,0,.5-1.3,1.62,1.62,0,0,0-.62-1.36,3,3,0,0,0-1.7-.42h-.72Z"/><path class="cls-2" d="M651,134.85a3.25,3.25,0,0,0-2.24-1,1.67,1.67,0,0,0-1.3.46,1.19,1.19,0,0,0-.34.84.94.94,0,0,0,.3.74,5.36,5.36,0,0,0,1.68.76l1,.38a5.35,5.35,0,0,1,1.82,1,3.33,3.33,0,0,1,1,2.48,4.78,4.78,0,0,1-1.18,3.3,5.17,5.17,0,0,1-3.78,1.36,5.65,5.65,0,0,1-2.64-.56,8.48,8.48,0,0,1-2-1.46l1.6-2.2a8.17,8.17,0,0,0,1.24,1,3.1,3.1,0,0,0,1.68.48,2.13,2.13,0,0,0,1.4-.46,1.38,1.38,0,0,0,.48-1.08,1.18,1.18,0,0,0-.46-1,6.52,6.52,0,0,0-1.56-.74l-1.1-.38a4.49,4.49,0,0,1-1.86-1.06,3.28,3.28,0,0,1-.8-2.32,4.1,4.1,0,0,1,1.16-3,4.3,4.3,0,0,1,3.3-1.22,6.45,6.45,0,0,1,4,1.32Z"/><path class="cls-2" d="M658.26,131.59v13.34h-3.08V131.59Z"/><path class="cls-2" d="M673.06,133.23a7.1,7.1,0,0,1,0,10,7.12,7.12,0,0,1-5.16,2,7.34,7.34,0,0,1-5.2-2,6.81,6.81,0,0,1-2.08-5,7.45,7.45,0,0,1,2.06-5.06,7.88,7.88,0,0,1,10.38,0Zm-8.1,2a4.09,4.09,0,0,0-1.18,3,4,4,0,0,0,1.22,3,3.92,3.92,0,0,0,2.86,1.1,4,4,0,0,0,3-1.14,4,4,0,0,0,1.16-3,4.2,4.2,0,0,0-1.16-3,4.28,4.28,0,0,0-2.94-1.14A4.09,4.09,0,0,0,665,135.27Z"/><path class="cls-2" d="M677.44,144.93V131.59h2.68l7.24,8.6v-8.6h3.08v13.34h-2.68l-7.24-8.64v8.64Z"/></g></g></svg>